<svg height="512" viewBox="0 0 512 512" width="512" xmlns="http://www.w3.org/2000/svg"><g id="BULINE"><circle cx="256" cy="256" fill="#7cc8fb" r="256"/></g><g id="Icons"><path d="m509 216.76h-506a255.05 255.05 0 0 1 37.3-98.69 256 256 0 0 1 215.7-118.07c118 0 217.32 79.8 247 188.38a251.7 251.7 0 0 1 6 28.38z" fill="#db1b1b"/><path d="m510 287.93c-.21 1.77-.45 3.54-.71 5.3a250.3 250.3 0 0 1 -5 25.38c-27.93 111.12-128.5 193.39-248.29 193.39a255.9 255.9 0 0 1 -170.15-64.72 257.46 257.46 0 0 1 -46.39-54.68 254.65 254.65 0 0 1 -37.46-104.67z" fill="#225db2"/><path d="m512 256a256.91 256.91 0 0 1 -2 31.93c-.21 1.77-.45 3.54-.71 5.3a250.3 250.3 0 0 1 -5 25.38h-218l-179 145.75a256.07 256.07 0 0 1 1.53-417.81l177.43 141.83h216.75a251.7 251.7 0 0 1 6 28.38 257.79 257.79 0 0 1 3 39.24z" fill="#fff"/><path d="m512 256a256.91 256.91 0 0 1 -2 31.93c-.21 1.77-.45 3.54-.71 5.3h-232.24l-191.2 154a257.46 257.46 0 0 1 -46.39-54.63 254.65 254.65 0 0 1 -37.46-104.67 258.74 258.74 0 0 1 1-71.17 255.05 255.05 0 0 1 37.3-98.69 257.13 257.13 0 0 1 46.7-54.4l190 153.09h232a257.79 257.79 0 0 1 3 39.24z" fill="#00b564"/><path d="m282 1.31a255.76 255.76 0 0 0 -143 62.36c-1.4 1.23-2.78 2.47-4.15 3.74a251.81 251.81 0 0 0 -19.06 19.46 255.66 255.66 0 0 0 -36.25 53.44q-1.69 3.34-3.31 6.74a254.61 254.61 0 0 0 -21.23 69.71h-52a255.05 255.05 0 0 1 37.3-98.69 256.23 256.23 0 0 1 241.7-116.76z" fill="#c11616"/><path d="m282 510.7a259.63 259.63 0 0 1 -26 1.3 255.9 255.9 0 0 1 -170.15-64.72 257.46 257.46 0 0 1 -46.39-54.68 254.65 254.65 0 0 1 -37.46-104.67h52a253.75 253.75 0 0 0 21.6 75.55q1.58 3.42 3.26 6.78a253.16 253.16 0 0 0 12.6 22.34 255.76 255.76 0 0 0 23.34 31.4 252.14 252.14 0 0 0 18.52 19.18q2.24 2.12 4.53 4.15a256 256 0 0 0 144.15 63.37z" fill="#225db2"/><path d="m133.32 443.13-26.07 21.23a256.07 256.07 0 0 1 1.53-417.81l26.11 20.86a251.81 251.81 0 0 0 -19.06 19.46 255.66 255.66 0 0 0 -36.25 53.44q-1.69 3.34-3.31 6.74a255.76 255.76 0 0 0 -.67 216.43q1.58 3.42 3.26 6.78a253.16 253.16 0 0 0 12.6 22.34 255.76 255.76 0 0 0 23.34 31.4 252.14 252.14 0 0 0 18.52 19.13z" fill="#dbdbdb"/><path d="m91.46 392.6a255.76 255.76 0 0 0 23.34 31.4l-28.95 23.28a257.46 257.46 0 0 1 -46.39-54.68 254.65 254.65 0 0 1 -37.46-104.67 258.74 258.74 0 0 1 1-71.17 255.05 255.05 0 0 1 37.3-98.69 257.13 257.13 0 0 1 46.7-54.4l28.79 23.2a255.66 255.66 0 0 0 -36.25 53.44q-1.69 3.34-3.31 6.74a255.76 255.76 0 0 0 -.67 216.43q1.58 3.42 3.26 6.78a253.16 253.16 0 0 0 12.64 22.34z" fill="#009e52"/><path d="m210.25 255-40.87 32.93-129.92 104.67a254.65 254.65 0 0 1 -37.46-104.67 258.74 258.74 0 0 1 1-71.17 255.05 255.05 0 0 1 37.3-98.69l122.49 98.69z" fill="#f7bb38"/><path d="m65.74 338.94a254.29 254.29 0 0 0 9.86 24.54l-36.14 29.12a254.65 254.65 0 0 1 -37.46-104.67 258.74 258.74 0 0 1 1-71.17 255.05 255.05 0 0 1 37.3-98.69l36 29a256.81 256.81 0 0 0 -10.56 191.87z" fill="#dba12c"/><path d="m169.92 255-40.87 32.93-102.19 82.33a253.91 253.91 0 0 1 -24.86-82.33 258.74 258.74 0 0 1 1-71.17 253.92 253.92 0 0 1 24.59-76.45l94.88 76.45z" fill="#27273d"/><path d="m54 287.93a254 254 0 0 0 11.76 51l-38.9 31.33a253.91 253.91 0 0 1 -24.86-82.33 258.74 258.74 0 0 1 1-71.17 253.92 253.92 0 0 1 24.59-76.45l38.7 31.18a254.52 254.52 0 0 0 -11.29 45.27 258.74 258.74 0 0 0 -1 71.17z" fill="#1c1c2b"/><g fill="#ea3d3d"><circle cx="428.81" cy="106.07" r="16.28"/><circle cx="404.83" cy="82.09" r="11.53"/></g></g></svg>