<svg width="141" height="159" viewBox="0 0 141 159" fill="none" xmlns="http://www.w3.org/2000/svg">
<path d="M1.875 0L4.26563 27L15 30L25.7306 27.0019L28.125 0H1.875Z" fill="#FF5722"/>
<path d="M22.9405 8.82939H14.9999H10.3593L10.6593 12.2213H14.9999H22.6405L21.7386 22.3913L14.9999 24.2719L14.9943 24.2738L8.25927 22.3913L7.78864 17.0719H11.0886L11.3343 19.8319L14.9961 20.8275L14.9999 20.8256L18.6655 19.83L19.048 15.5344H14.9999H7.65364L6.76489 5.52002H14.9999H23.233L22.9405 8.82939Z" fill="#FAFAFA"/>
<path d="M56.875 0L59.2656 27L70 30L80.7306 27.0019L83.125 0H56.875Z" fill="#2196F3"/>
<path d="M78.0137 8.82939L77.7118 12.2213L76.8006 22.3894L69.9999 24.27L69.9943 24.2719L63.1974 22.3894L62.7231 17.0719H66.0531L66.3006 19.83L69.9962 20.8275L69.9981 20.8256L73.6993 19.8281L74.2037 15.2325L62.5637 15.2644L62.2337 12.1219L74.4831 11.9775L74.7306 8.61377L61.9056 8.64939L61.6899 5.52002H69.9999H78.3099L78.0137 8.82939Z" fill="#FAFAFA"/>
<path d="M134.446 17.2458C133.05 17.2531 131.837 17.5892 130.822 18.0861C130.449 17.3481 130.076 16.6905 130.011 16.2083C129.938 15.6457 129.85 15.3022 129.938 14.63C130.025 13.9578 130.42 13.0006 130.413 12.9275C130.405 12.8545 130.325 12.5111 129.521 12.5038C128.717 12.4964 128.023 12.6572 127.943 12.8691C127.863 13.081 127.709 13.5632 127.607 14.0601C127.468 14.7908 125.999 17.3993 125.159 18.7656C124.889 18.2322 124.655 17.7646 124.604 17.392C124.531 16.8293 124.443 16.4859 124.531 15.8137C124.618 15.1415 125.013 14.1843 125.006 14.1112C124.998 14.0382 124.918 13.6948 124.114 13.6874C123.31 13.6801 122.616 13.8409 122.536 14.0528C122.456 14.2647 122.368 14.7615 122.2 15.2438C122.032 15.726 120.081 20.0808 119.569 21.2061C119.306 21.7833 119.08 22.2436 118.919 22.5578C118.919 22.5578 118.912 22.5797 118.89 22.6163C118.751 22.8866 118.671 23.0328 118.671 23.0328C118.671 23.0328 118.671 23.0328 118.671 23.0401C118.561 23.2374 118.444 23.42 118.386 23.42C118.342 23.42 118.261 22.8939 118.4 22.1779C118.693 20.6654 119.387 18.3126 119.379 18.2322C119.379 18.1884 119.511 17.7792 118.926 17.5673C118.356 17.3554 118.152 17.7062 118.101 17.7062C118.05 17.7062 118.013 17.8304 118.013 17.8304C118.013 17.8304 118.649 15.1853 116.8 15.1853C115.646 15.1853 114.053 16.4494 113.264 17.5892C112.767 17.8596 111.707 18.4368 110.575 19.0579C110.144 19.299 109.698 19.5401 109.281 19.7667C109.252 19.7374 109.223 19.7009 109.194 19.6717C106.958 17.2824 102.822 15.5945 102.998 12.3868C103.063 11.2178 103.465 8.14894 110.94 4.4225C117.092 1.39021 121.988 2.23048 122.835 4.0937C124.048 6.75335 120.212 11.6927 113.855 12.4088C111.43 12.6791 110.158 11.7439 109.837 11.3931C109.501 11.0278 109.45 11.0059 109.325 11.0789C109.121 11.1885 109.252 11.5173 109.325 11.7073C109.515 12.2042 110.297 13.081 111.62 13.5121C112.789 13.892 115.631 14.1039 119.073 12.7741C122.923 11.2835 125.934 7.14061 125.049 3.66991C124.165 0.148062 118.32 -1.01371 112.789 0.951803C109.501 2.12088 105.935 3.96218 103.37 6.35879C100.323 9.20842 99.8412 11.6854 100.038 12.723C100.747 16.4056 105.825 18.8022 107.857 20.5777C107.754 20.6362 107.659 20.6873 107.579 20.7311C106.563 21.2353 102.691 23.2593 101.726 25.4001C100.63 27.826 101.902 29.565 102.742 29.7988C105.35 30.5222 108.032 29.2216 109.471 27.0734C110.911 24.9252 110.736 22.134 110.071 20.8554C110.063 20.8407 110.056 20.8261 110.041 20.8115C110.304 20.6581 110.575 20.4973 110.838 20.3439C111.357 20.037 111.868 19.752 112.306 19.5182C112.058 20.1978 111.875 21.0088 111.788 22.1779C111.678 23.5515 112.241 25.3344 112.979 26.0358C113.307 26.3427 113.695 26.35 113.943 26.35C114.805 26.35 115.193 25.634 115.624 24.7864C116.15 23.7488 116.625 22.5432 116.625 22.5432C116.625 22.5432 116.033 25.802 117.64 25.802C118.225 25.802 118.817 25.0421 119.08 24.6549C119.08 24.6622 119.08 24.6622 119.08 24.6622C119.08 24.6622 119.094 24.6402 119.124 24.5891C119.182 24.4941 119.219 24.4357 119.219 24.4357C119.219 24.4357 119.219 24.4284 119.219 24.421C119.452 24.0119 119.979 23.0839 120.76 21.5422C121.769 19.5548 122.74 17.0705 122.74 17.0705C122.74 17.0705 122.828 17.6769 123.128 18.6853C123.303 19.2771 123.668 19.9274 123.961 20.5558C123.727 20.8846 123.581 21.0672 123.581 21.0672C123.581 21.0672 123.581 21.0672 123.588 21.0746C123.398 21.323 123.193 21.5933 122.967 21.8564C122.171 22.8063 121.221 23.895 121.089 24.2091C120.936 24.5818 120.972 24.8521 121.265 25.0713C121.476 25.2321 121.856 25.254 122.244 25.2321C122.96 25.1809 123.464 25.0056 123.712 24.896C124.1 24.7572 124.553 24.5453 124.976 24.2311C125.758 23.6538 126.233 22.8282 126.189 21.7395C126.167 21.1403 125.97 20.5412 125.729 19.9785C125.802 19.8763 125.868 19.774 125.941 19.6717C127.176 17.8669 128.133 15.8868 128.133 15.8868C128.133 15.8868 128.221 16.4932 128.52 17.5016C128.666 18.013 128.966 18.5683 129.229 19.109C128.067 20.0516 127.351 21.1476 127.095 21.8637C126.635 23.1935 126.993 23.7927 127.673 23.9315C127.979 23.9973 128.418 23.8511 128.739 23.7123C129.148 23.5808 129.631 23.3543 130.091 23.0182C130.873 22.4409 131.625 21.6372 131.582 20.5485C131.56 20.0516 131.428 19.5621 131.246 19.0871C132.232 18.6779 133.503 18.4514 135.125 18.6414C138.603 19.0506 139.29 21.2207 139.159 22.134C139.027 23.0474 138.297 23.5442 138.055 23.6977C137.814 23.8511 137.734 23.9023 137.756 24.0119C137.785 24.1726 137.902 24.1653 138.107 24.1361C138.392 24.0849 139.933 23.3981 139.999 21.7176C140.109 19.5694 138.063 17.2239 134.446 17.2458ZM107.616 26.2916C106.461 27.5483 104.854 28.0233 104.159 27.6214C103.414 27.1903 103.706 25.3344 105.124 24.0046C105.986 23.1935 107.097 22.4409 107.835 21.9806C108.003 21.8783 108.251 21.7322 108.551 21.5495C108.602 21.5203 108.631 21.5057 108.631 21.5057C108.69 21.4691 108.748 21.4326 108.807 21.3961C109.325 23.2958 108.828 24.969 107.616 26.2916ZM116.018 20.5777C115.616 21.5568 114.776 24.063 114.265 23.9242C113.826 23.8073 113.556 21.9075 114.177 20.0297C114.491 19.0871 115.156 17.9619 115.543 17.5235C116.172 16.822 116.866 16.5882 117.034 16.8732C117.246 17.2458 116.267 19.9639 116.018 20.5777ZM122.952 23.895C122.784 23.9826 122.624 24.0411 122.551 23.9973C122.499 23.968 122.624 23.8511 122.624 23.8511C122.624 23.8511 123.493 22.9159 123.836 22.4921C124.034 22.2436 124.268 21.9514 124.516 21.6226C124.516 21.6518 124.516 21.6883 124.516 21.7176C124.516 22.8355 123.435 23.5881 122.952 23.895ZM128.301 22.6747C128.177 22.5871 128.199 22.2948 128.615 21.3814C128.776 21.0234 129.156 20.4243 129.806 19.847C129.879 20.0808 129.93 20.3073 129.923 20.5192C129.916 21.9294 128.907 22.4555 128.301 22.6747Z" fill="#CD6799"/>
<path d="M30 43H0V73H30V43Z" fill="#F7DF1E"/>
<path d="M20.1525 66.4376C20.7568 67.4243 21.543 68.1495 22.9335 68.1495C24.1016 68.1495 24.8477 67.5657 24.8477 66.7591C24.8477 65.7924 24.0811 65.45 22.7954 64.8876L22.0906 64.5853C20.0563 63.7186 18.7049 62.6329 18.7049 60.3376C18.7049 58.2234 20.3158 56.6138 22.8335 56.6138C24.6258 56.6138 25.9144 57.2376 26.843 58.871L24.6477 60.2805C24.1644 59.4138 23.643 59.0724 22.8335 59.0724C22.0077 59.0724 21.4844 59.5962 21.4844 60.2805C21.4844 61.1262 22.0082 61.4686 23.2177 61.9924L23.9225 62.2943C26.3177 63.3214 27.6701 64.3686 27.6701 66.7229C27.6701 69.261 25.6763 70.6514 22.9987 70.6514C20.3806 70.6514 18.6892 69.4038 17.8616 67.7686L20.1525 66.4376ZM10.1939 66.6819C10.6368 67.4676 11.0396 68.1319 12.0082 68.1319C12.9344 68.1319 13.5187 67.7695 13.5187 66.3605V56.7748H16.3377V66.3986C16.3377 69.3176 14.6263 70.6462 12.1282 70.6462C9.87107 70.6462 8.56393 69.4781 7.89917 68.0712L10.1939 66.6819Z" fill="black"/>
<path d="M74.3203 43L70.3203 49.9281L66.3204 43H53L70.3203 73L87.6406 43H74.3203Z" fill="#41B883"/>
<path d="M74.3204 43L70.3204 49.9281L66.3205 43H59.9282L70.3204 60.9996L80.7126 43H74.3204Z" fill="#34495E"/>
<path d="M139.687 58.0034C139.687 55.7718 136.893 53.6569 132.608 52.3454C133.597 47.9783 133.157 44.5038 131.221 43.3914C130.775 43.1305 130.253 43.0069 129.683 43.0069V44.5381C129.999 44.5381 130.253 44.5999 130.466 44.7166C131.399 45.2522 131.805 47.2916 131.489 49.9146C131.413 50.5601 131.29 51.2399 131.138 51.9334C129.793 51.6038 128.323 51.3497 126.778 51.1849C125.851 49.9146 124.89 48.761 123.922 47.7517C126.16 45.6711 128.261 44.5312 129.69 44.5312V43C127.801 43 125.329 44.3458 122.83 46.6805C120.331 44.3596 117.859 43.0275 115.97 43.0275V44.5587C117.392 44.5587 119.5 45.6917 121.738 47.7585C120.777 48.7679 119.816 49.9146 118.902 51.1849C117.35 51.3497 115.881 51.6038 114.535 51.9403C114.377 51.2536 114.26 50.5875 114.178 49.949C113.855 47.3259 114.254 45.2866 115.181 44.7441C115.387 44.6205 115.654 44.5656 115.97 44.5656V43.0343C115.393 43.0343 114.872 43.1579 114.418 43.4189C112.489 44.5312 112.056 47.9989 113.052 52.3523C108.781 53.6706 106 55.7787 106 58.0034C106 60.2351 108.795 62.35 113.079 63.6615C112.091 68.0286 112.53 71.5031 114.466 72.6155C114.913 72.8764 115.435 73 116.011 73C117.9 73 120.372 71.6542 122.871 69.3195C125.371 71.6404 127.843 72.9725 129.731 72.9725C130.308 72.9725 130.829 72.8489 131.283 72.588C133.212 71.4756 133.645 68.008 132.649 63.6546C136.906 62.3431 139.687 60.2282 139.687 58.0034ZM130.747 53.4234C130.493 54.3092 130.177 55.2225 129.82 56.1357C129.539 55.5864 129.243 55.0371 128.921 54.4878C128.605 53.9384 128.268 53.4028 127.932 52.881C128.907 53.0252 129.848 53.2037 130.747 53.4234ZM127.602 60.7363C127.067 61.6633 126.517 62.5422 125.947 63.3593C124.924 63.4486 123.887 63.4967 122.844 63.4967C121.807 63.4967 120.77 63.4486 119.754 63.3662C119.184 62.5491 118.628 61.677 118.092 60.7569C117.57 59.8574 117.096 58.9441 116.664 58.024C117.089 57.1039 117.57 56.1838 118.085 55.2843C118.621 54.3573 119.17 53.4784 119.74 52.6612C120.763 52.572 121.8 52.5239 122.844 52.5239C123.881 52.5239 124.917 52.572 125.934 52.6544C126.504 53.4715 127.06 54.3436 127.595 55.2637C128.117 56.1632 128.591 57.0764 129.024 57.9966C128.591 58.9167 128.117 59.8368 127.602 60.7363ZM129.82 59.8437C130.191 60.7638 130.507 61.6839 130.768 62.5766C129.868 62.7963 128.921 62.9817 127.939 63.1259C128.275 62.5972 128.612 62.0547 128.927 61.4985C129.243 60.9492 129.539 60.393 129.82 59.8437ZM122.857 67.1703C122.219 66.5111 121.58 65.7764 120.948 64.973C121.566 65.0005 122.198 65.0211 122.837 65.0211C123.482 65.0211 124.121 65.0073 124.746 64.973C124.128 65.7764 123.489 66.5111 122.857 67.1703ZM117.749 63.1259C116.774 62.9817 115.833 62.8032 114.933 62.5834C115.187 61.6976 115.503 60.7844 115.86 59.8711C116.142 60.4205 116.437 60.9698 116.76 61.5191C117.083 62.0684 117.412 62.604 117.749 63.1259ZM122.823 48.8366C123.462 49.4958 124.1 50.2305 124.732 51.0339C124.114 51.0064 123.482 50.9858 122.844 50.9858C122.198 50.9858 121.56 50.9995 120.935 51.0339C121.553 50.2305 122.191 49.4958 122.823 48.8366ZM117.742 52.881C117.405 53.4097 117.069 53.9522 116.753 54.5084C116.437 55.0577 116.142 55.607 115.86 56.1563C115.49 55.2362 115.174 54.3161 114.913 53.4234C115.812 53.2106 116.76 53.0252 117.742 52.881ZM111.528 61.4779C109.097 60.4411 107.524 59.0815 107.524 58.0034C107.524 56.9254 109.097 55.5589 111.528 54.529C112.118 54.2749 112.764 54.0483 113.43 53.8354C113.821 55.1813 114.336 56.5821 114.975 58.0172C114.343 59.4454 113.835 60.8393 113.45 62.1783C112.77 61.9654 112.125 61.732 111.528 61.4779ZM115.222 71.2902C114.288 70.7546 113.883 68.7153 114.199 66.0922C114.274 65.4468 114.398 64.767 114.549 64.0735C115.895 64.4031 117.364 64.6571 118.909 64.8219C119.836 66.0922 120.797 67.2458 121.766 68.2552C119.527 70.3358 117.426 71.4756 115.998 71.4756C115.689 71.4688 115.428 71.407 115.222 71.2902ZM131.509 66.0579C131.832 68.6809 131.434 70.7203 130.507 71.2628C130.301 71.3864 130.033 71.4413 129.717 71.4413C128.296 71.4413 126.188 70.3083 123.949 68.2415C124.911 67.2321 125.872 66.0854 126.785 64.8151C128.337 64.6503 129.806 64.3962 131.152 64.0597C131.31 64.7533 131.434 65.4193 131.509 66.0579ZM134.153 61.4779C133.562 61.732 132.917 61.9586 132.251 62.1714C131.859 60.8256 131.344 59.4248 130.706 57.9897C131.338 56.5615 131.846 55.1675 132.23 53.8286C132.91 54.0414 133.556 54.2749 134.16 54.529C136.591 55.5658 138.163 56.9254 138.163 58.0034C138.156 59.0815 136.584 60.4479 134.153 61.4779Z" fill="#61DAFB"/>
<path d="M122.837 61.1415C124.57 61.1415 125.975 59.7365 125.975 58.0034C125.975 56.2704 124.57 54.8654 122.837 54.8654C121.104 54.8654 119.699 56.2704 119.699 58.0034C119.699 59.7365 121.104 61.1415 122.837 61.1415Z" fill="#61DAFB"/>
<g clip-path="url(#clip0)">
<path d="M26.339 89.9661C23.5678 85.9746 18.0509 84.8051 14.0848 87.322L7.09327 91.7966C5.18649 92.9915 3.86445 94.9491 3.4831 97.161C3.15259 99.0169 3.43225 100.924 4.32208 102.576C3.71191 103.491 3.30513 104.508 3.12716 105.576C2.72039 107.839 3.25428 110.178 4.57632 112.034C7.37293 116.025 12.8645 117.195 16.8306 114.678L23.8221 110.229C25.7289 109.034 27.0509 107.076 27.4322 104.864C27.7628 103.008 27.4831 101.102 26.5933 99.4491C27.2034 98.5339 27.6102 97.5169 27.7882 96.4491C28.2204 94.161 27.6865 91.822 26.339 89.9661Z" fill="#FF3E00"/>
<path d="M13.3984 112.415C11.1357 113 8.77126 112.11 7.44923 110.203C6.63567 109.085 6.33058 107.686 6.5594 106.314C6.61024 106.085 6.66109 105.881 6.71194 105.653L6.83906 105.246L7.19499 105.5C8.03397 106.11 8.94923 106.568 9.94075 106.873L10.195 106.949L10.1696 107.203C10.1441 107.559 10.2458 107.941 10.4492 108.246C10.856 108.831 11.5679 109.11 12.2543 108.932C12.4069 108.881 12.5594 108.831 12.6865 108.754L19.6526 104.305C20.0085 104.076 20.2374 103.746 20.3136 103.339C20.3899 102.932 20.2882 102.5 20.0594 102.17C19.6526 101.585 18.9408 101.331 18.2543 101.508C18.1018 101.559 17.9492 101.61 17.8221 101.686L15.1526 103.39C14.7204 103.67 14.2374 103.873 13.7289 104C11.4662 104.585 9.10177 103.695 7.77973 101.788C6.9916 100.67 6.66109 99.2712 6.91533 97.8983C7.14414 96.5763 7.9577 95.3814 9.10177 94.6695L16.0933 90.2204C16.5255 89.9407 17.0085 89.7373 17.517 89.5848C19.7797 89 22.1441 89.8898 23.4662 91.7966C24.2797 92.9153 24.5848 94.3136 24.356 95.6865C24.3052 95.9153 24.2543 96.1187 24.178 96.3475L24.0509 96.7543L23.695 96.5C22.856 95.8898 21.9408 95.4322 20.9492 95.1271L20.695 95.0509L20.7204 94.7966C20.7458 94.4407 20.6441 94.0593 20.4408 93.7543C20.034 93.1695 19.3221 92.9153 18.6357 93.0932C18.4831 93.1441 18.3306 93.1949 18.2035 93.2712L11.2374 97.7204C10.8814 97.9492 10.6526 98.2797 10.5763 98.6865C10.5001 99.0932 10.6018 99.5254 10.8306 99.8559C11.2374 100.441 11.9492 100.695 12.6357 100.517C12.7882 100.466 12.9408 100.415 13.0679 100.339L15.7374 98.6356C16.1696 98.3559 16.6526 98.1526 17.1611 98C19.4238 97.4153 21.7882 98.3051 23.1102 100.212C23.9238 101.331 24.2289 102.729 24.0001 104.102C23.7713 105.424 22.9577 106.619 21.8136 107.331L14.8221 111.78C14.3899 112.059 13.9069 112.263 13.3984 112.415Z" fill="white"/>
</g>
<path d="M69.965 86L56 90.98L58.13 109.445L69.965 116L81.8 109.445L83.93 90.98L69.965 86Z" fill="#DD0031"/>
<path d="M69.9651 86V89.33V89.315V104.51V116L81.8001 109.445L83.9301 90.98L69.9651 86Z" fill="#C3002F"/>
<path d="M69.9649 89.315L61.2349 108.89H64.4899L66.2449 104.51H73.6549L75.4099 108.89H78.6649L69.9649 89.315ZM72.5149 101.81H67.4149L69.9649 95.675L72.5149 101.81Z" fill="white"/>
<g clip-path="url(#clip1)">
<path d="M122.97 86C115.314 86 115.792 89.32 115.792 89.32L115.801 92.7595H123.106V93.7922H112.899C112.899 93.7922 108 93.2366 108 100.961C108 108.686 112.276 108.412 112.276 108.412H114.828V104.827C114.828 104.827 114.69 100.552 119.035 100.552C123.38 100.552 126.281 100.552 126.281 100.552C126.281 100.552 130.352 100.617 130.352 96.6171C130.352 92.6168 130.352 90.0028 130.352 90.0028C130.352 90.0028 130.97 86 122.97 86ZM118.941 88.3129C119.668 88.3129 120.256 88.9004 120.256 89.6272C120.256 90.3541 119.668 90.9416 118.941 90.9416C118.215 90.9416 117.627 90.3541 117.627 89.6272C117.627 88.9004 118.215 88.3129 118.941 88.3129Z" fill="url(#paint0_linear)"/>
<path d="M123.187 116C130.843 116 130.365 112.68 130.365 112.68L130.356 109.241H123.051V108.208H133.258C133.258 108.208 138.157 108.763 138.157 101.039C138.157 93.314 133.881 93.5879 133.881 93.5879H131.329V97.1725C131.329 97.1725 131.467 101.448 127.122 101.448C122.777 101.448 119.876 101.448 119.876 101.448C119.876 101.448 115.805 101.383 115.805 105.383C115.805 109.383 115.805 111.997 115.805 111.997C115.805 111.997 115.187 116 123.187 116ZM127.216 113.687C126.489 113.687 125.901 113.1 125.901 112.373C125.901 111.646 126.489 111.058 127.216 111.058C127.942 111.058 128.53 111.646 128.53 112.373C128.53 113.1 127.942 113.687 127.216 113.687Z" fill="url(#paint1_linear)"/>
</g>
<path d="M4.28314 145.24C4.32617 146.127 5.21264 145.714 5.60854 145.438C5.98723 145.172 6.09911 145.395 6.13354 144.879C6.15935 144.535 6.19378 144.199 6.17657 143.855C5.59993 143.803 4.98027 143.941 4.50691 144.285C4.25732 144.457 3.80978 145.025 4.28314 145.24Z" fill="#F6D2A2"/>
<path d="M21.9523 156.136C22.6322 156.558 23.8802 157.832 22.856 158.451C21.8748 159.346 21.324 157.462 20.4634 157.203C20.8335 156.696 21.2982 156.231 21.9523 156.136Z" fill="#F6D2A2"/>
<path d="M9.78271 157.574C8.98231 157.694 8.53477 158.417 7.86347 158.787C7.23519 159.157 6.99421 158.667 6.94257 158.563C6.8479 158.52 6.85651 158.606 6.70159 158.451C6.11635 157.531 7.30404 156.859 7.92371 156.403C8.78436 156.231 9.32657 156.98 9.78271 157.574Z" fill="#F6D2A2"/>
<path d="M25.7306 145.129C25.6875 146.015 24.8011 145.602 24.4052 145.327C24.0265 145.06 23.9146 145.283 23.8802 144.767C23.8544 144.423 23.8199 144.087 23.8372 143.743C24.4138 143.691 25.0335 143.829 25.5068 144.173C25.7478 144.345 26.2039 144.913 25.7306 145.129Z" fill="#F6D2A2"/>
<path d="M23.3811 134.319C26.4536 133.234 24.0524 129.026 21.3757 130.885C19.62 129.379 17.2016 129.103 14.6627 129.103C12.1754 129.301 9.80861 129.757 8.15617 131.203C5.48816 129.482 3.0267 133.613 6.15946 134.654C5.2816 138.063 6.27995 141.54 6.14225 145.008C6.01315 148.124 5.19553 152.298 6.92544 155.095C8.39715 157.487 11.5643 158.34 14.1721 158.434C17.5028 158.555 21.5393 157.737 23.1573 154.51C24.7064 151.437 24.2761 147.607 24.0782 144.294C23.8802 140.946 24.2503 137.546 23.3811 134.319Z" fill="#69D7E2"/>
<path d="M25.963 144.604C25.8769 144.423 25.7134 144.216 25.5585 144.104C25.1626 143.82 24.6548 143.665 24.1298 143.648C24.1126 143.115 24.0953 142.529 24.0953 141.789V141.118C24.0867 139.001 24.0609 138.071 23.9404 136.909C23.8458 135.997 23.6994 135.154 23.4929 134.362C24.19 134.095 24.6462 133.656 24.8269 133.088C24.999 132.563 24.913 131.969 24.6203 131.444C24.3191 130.928 23.8372 130.541 23.2777 130.386C22.6753 130.222 22.0212 130.343 21.3929 130.764C20.8335 130.291 20.188 129.93 19.4651 129.654C18.1827 129.181 16.6938 129 14.6712 129V129.086L14.6626 129C12.5024 129.172 10.9016 129.508 9.5762 130.153C9.0426 130.411 8.56924 130.721 8.15613 131.083C7.51925 130.687 6.85655 130.592 6.24549 130.782C5.67746 130.954 5.18689 131.358 4.89427 131.883C4.60165 132.408 4.5328 133.011 4.73075 133.527C4.9287 134.043 5.38484 134.448 6.06475 134.697C5.84959 135.567 5.73771 136.488 5.72049 137.503C5.70328 138.493 5.74631 139.285 5.90123 141.075C6.01311 142.409 6.05615 143.02 6.07336 143.76C5.48812 143.734 4.90288 143.889 4.46395 144.208C4.30903 144.32 4.1369 144.518 4.05944 144.707C3.94756 144.948 3.99059 145.163 4.21436 145.292C4.24878 145.705 4.48116 145.895 4.83402 145.86C5.09222 145.834 5.40205 145.697 5.66885 145.507C5.7291 145.464 5.78934 145.43 5.84959 145.404C5.87541 145.395 5.89262 145.387 5.91844 145.378C5.91844 145.378 5.97008 145.361 5.98729 145.352C6.01311 145.344 6.03893 145.335 6.05615 145.318C6.03893 145.722 6.00451 146.144 5.92705 147.108C5.84098 148.192 5.79795 148.786 5.78074 149.449C5.70328 151.91 5.9959 153.701 6.87376 155.121C7.14917 155.568 7.48482 155.964 7.88072 156.326C7.80326 156.377 7.47622 156.618 7.37294 156.696C7.01147 156.971 6.76188 157.203 6.61557 157.462C6.42622 157.797 6.42622 158.133 6.64139 158.486L6.64999 158.494L6.6586 158.503C6.75327 158.598 6.80491 158.624 6.87376 158.624H6.88237H6.89958C6.90819 158.641 6.91679 158.649 6.9254 158.667C6.95122 158.71 6.97704 158.744 7.00286 158.778C7.21802 159.028 7.51925 159.088 7.92375 158.847C8.13892 158.735 8.29383 158.606 8.62088 158.331C8.62949 158.322 8.62949 158.322 8.63809 158.314C9.16309 157.866 9.42128 157.703 9.80857 157.642L9.94628 157.617C9.99792 157.642 10.0496 157.66 10.1098 157.685C11.3319 158.176 12.752 158.443 14.1893 158.494C16.0483 158.563 17.8384 158.331 19.3532 157.78C19.7577 157.634 20.1364 157.462 20.4978 157.272C20.7216 157.358 20.9109 157.539 21.2724 157.961C21.2896 157.978 21.2896 157.978 21.2982 157.995C21.3155 158.012 21.3155 158.021 21.3241 158.03C21.3413 158.056 21.3671 158.073 21.3843 158.099C21.6683 158.434 21.8577 158.598 22.0728 158.692C22.3568 158.813 22.6322 158.753 22.9163 158.494C23.4154 158.185 23.4499 157.703 23.1228 157.152C22.8904 156.765 22.4859 156.36 22.1073 156.102C22.5548 155.663 22.9421 155.138 23.2433 154.544C24.0695 152.892 24.388 150.964 24.3708 148.485C24.3622 147.607 24.3277 146.841 24.2331 145.378V145.335C24.2761 145.352 24.3191 145.378 24.3622 145.413C24.629 145.593 24.9388 145.74 25.197 145.765C25.5498 145.8 25.7822 145.611 25.8166 145.197C26.0318 145.06 26.0748 144.845 25.963 144.604ZM23.2261 130.566C23.7425 130.704 24.19 131.066 24.4654 131.548C24.7408 132.029 24.8183 132.572 24.6634 133.054C24.4999 133.561 24.0867 133.966 23.4413 134.207C23.3122 133.742 23.1572 133.286 22.9851 132.847C23.2347 132.632 23.3552 132.365 23.1572 131.986C22.9593 131.608 22.615 131.565 22.2622 131.677C22.0384 131.384 21.7888 131.126 21.5306 130.885C22.0986 130.523 22.6839 130.42 23.2261 130.566ZM4.87706 133.475C4.69632 133.011 4.75657 132.46 5.03197 131.978C5.30738 131.496 5.75492 131.117 6.28852 130.962C6.83934 130.799 7.43318 130.876 8.01843 131.22C7.68277 131.522 7.38155 131.866 7.12335 132.245C6.67581 132.012 6.21967 131.969 5.96147 132.443C5.69467 132.95 6.00451 133.269 6.44344 133.51C6.38319 133.656 6.32295 133.811 6.27131 133.966C6.21106 134.155 6.15082 134.353 6.09918 134.551C5.4709 134.31 5.05779 133.94 4.87706 133.475ZM5.91844 145.206C5.90984 145.206 5.8582 145.223 5.8582 145.232C5.83238 145.24 5.80656 145.249 5.78074 145.266C5.71189 145.292 5.64303 145.335 5.57418 145.387C5.3332 145.559 5.04058 145.688 4.81681 145.705C4.55862 145.731 4.41231 145.619 4.38649 145.309C4.56722 145.249 4.64468 145.206 4.71353 145.103L4.57583 144.999C4.52419 145.068 4.47255 145.094 4.31763 145.146C4.30903 145.146 4.30903 145.146 4.30042 145.154C4.16272 145.077 4.1369 144.956 4.21436 144.784C4.28321 144.629 4.43813 144.449 4.56722 144.354C4.98033 144.053 5.53115 143.906 6.08196 143.941C6.08196 144.156 6.09057 144.371 6.08196 144.578C6.08196 144.604 6.08196 144.621 6.07336 144.647C6.06475 144.767 6.06475 144.819 6.05615 144.879C6.03033 145.129 6.01311 145.163 5.91844 145.206ZM8.5176 158.193C8.509 158.202 8.509 158.202 8.50039 158.21C8.18195 158.486 8.02703 158.598 7.82908 158.71C7.50204 158.908 7.27827 158.865 7.12335 158.675C7.09753 158.649 7.08032 158.615 7.0631 158.589C7.0545 158.581 7.04589 158.563 7.03729 158.555C7.03729 158.555 7.03729 158.555 7.03729 158.546C7.0545 158.391 7.11474 158.279 7.26966 158.038C7.27827 158.03 7.27827 158.03 7.27827 158.021C7.37294 157.883 7.41597 157.806 7.459 157.711L7.30409 157.642C7.26966 157.72 7.22663 157.789 7.14056 157.926C7.13196 157.935 7.13196 157.935 7.13196 157.944C6.97704 158.167 6.90819 158.305 6.87376 158.46H6.86516C6.86516 158.46 6.86516 158.46 6.85655 158.46H6.83934C6.82212 158.451 6.7963 158.434 6.76188 158.4C6.42622 157.866 6.69303 157.41 7.4504 156.842C7.54507 156.773 7.86351 156.549 7.94957 156.481C7.96679 156.481 7.984 156.472 8.00121 156.463C8.46596 156.859 9.00817 157.203 9.61063 157.487C9.61063 157.496 9.61923 157.505 9.62784 157.513C9.27497 157.599 8.99957 157.78 8.5176 158.193ZM22.9679 157.255C23.2347 157.703 23.2261 158.064 22.8904 158.314C22.8646 158.262 22.8474 158.202 22.813 158.116C22.813 158.107 22.813 158.107 22.8044 158.099C22.6839 157.771 22.6064 157.634 22.4601 157.479L22.3396 157.599C22.4687 157.72 22.529 157.849 22.6495 158.15C22.6495 158.159 22.6495 158.159 22.6581 158.167C22.7011 158.279 22.7269 158.348 22.7527 158.408C22.529 158.598 22.331 158.632 22.1245 158.537C21.9437 158.46 21.7716 158.296 21.4962 157.987C21.479 157.969 21.4618 157.944 21.4445 157.918C21.4359 157.909 21.4273 157.901 21.4187 157.883C21.4015 157.866 21.4015 157.866 21.3929 157.849C21.0745 157.479 20.8851 157.281 20.6786 157.169C21.1605 156.894 21.5909 156.584 21.9782 156.222C22.3396 156.489 22.7441 156.885 22.9679 157.255ZM23.0884 154.467C22.3482 155.956 21.04 157.006 19.2843 157.642C17.7868 158.185 16.0139 158.408 14.1807 158.34C11.0221 158.228 8.28523 157.126 7.00286 155.043C6.14221 153.658 5.8582 151.893 5.93565 149.466C5.96147 148.804 5.9959 148.21 6.08196 147.125C6.17664 145.903 6.20246 145.55 6.22828 144.999C6.24549 144.604 6.24549 144.199 6.23688 143.769C6.21967 143.011 6.17664 142.409 6.06475 141.058C5.90984 139.268 5.8668 138.484 5.88402 137.503C5.90984 136.212 6.08196 135.076 6.44344 134C7.02868 132.253 8.10449 131.074 9.65366 130.308C10.9532 129.671 12.5282 129.344 14.6712 129.172C16.6766 129.172 18.1397 129.353 19.4048 129.818C20.9196 130.377 22.047 131.358 22.8216 132.864C23.3208 134.086 23.6134 135.403 23.7683 136.918C23.8888 138.071 23.9146 139.001 23.9232 141.109V141.781C23.9318 142.822 23.949 143.554 23.9921 144.285C24.0093 144.569 24.0179 144.69 24.0609 145.37C24.1556 146.833 24.19 147.59 24.1986 148.468C24.2158 150.938 23.906 152.84 23.0884 154.467ZM25.722 145.042C25.7134 145.042 25.7048 145.034 25.6962 145.034C25.5412 144.982 25.4896 144.948 25.438 144.888L25.3003 144.991C25.3777 145.094 25.4552 145.137 25.6273 145.197C25.5929 145.507 25.4466 145.619 25.197 145.593C24.9732 145.576 24.6806 145.438 24.4396 145.275C24.3708 145.223 24.3019 145.189 24.2331 145.154C24.2244 145.154 24.2158 145.146 24.2072 145.146C24.1728 144.672 24.1728 144.552 24.1556 144.302C24.147 144.147 24.1384 143.993 24.1298 143.838C24.6117 143.846 25.0851 143.993 25.4466 144.259C25.5757 144.354 25.7306 144.535 25.7994 144.69C25.8855 144.836 25.8683 144.965 25.722 145.042Z" fill="black"/>
<path d="M15.9674 137.979C15.976 138.418 16.0621 138.9 15.9846 139.365C15.8641 139.589 15.6404 139.614 15.4424 139.7C15.167 139.657 14.9346 139.477 14.8228 139.218C14.7539 138.693 14.84 138.194 14.8658 137.669C14.8658 137.652 15.1928 137.678 15.4855 137.764C15.735 137.841 15.9674 137.971 15.9674 137.979Z" fill="white"/>
<path d="M13.5318 138.014C13.2909 138.926 13.8503 140.415 14.7712 139.193C14.7023 138.676 14.7798 138.177 14.8056 137.669C14.8142 137.626 13.5405 137.953 13.5318 138.014Z" fill="white"/>
<path d="M16.0706 138.384C16.0534 138.125 16.0448 138.022 16.0448 137.893V137.833L15.9846 137.816L14.9002 137.48V137.42L14.7883 137.446H14.7797V137.454L13.5575 137.764L13.5145 137.773L13.4973 137.816C13.308 138.272 13.351 138.96 13.592 139.382C13.8674 139.864 14.3149 139.873 14.7711 139.322C14.9002 139.571 15.1411 139.743 15.4165 139.786H15.4424L15.4682 139.778C15.5026 139.761 15.537 139.752 15.5973 139.726C15.6059 139.726 15.6059 139.726 15.6145 139.718C15.8641 139.632 15.9674 139.563 16.0534 139.399L16.062 139.391V139.373C16.0879 139.218 16.0965 139.055 16.0965 138.874C16.0965 138.745 16.0879 138.625 16.0706 138.384ZM14.6936 138.065C14.685 138.22 14.6764 138.28 14.6678 138.366C14.6506 138.685 14.6506 138.926 14.6764 139.167C14.2719 139.683 13.9534 139.683 13.7383 139.296C13.5317 138.934 13.4887 138.323 13.6436 137.919L14.728 137.643C14.7194 137.755 14.7108 137.867 14.6936 138.065ZM15.8985 139.339C15.8383 139.442 15.7608 139.494 15.5543 139.563C15.5456 139.563 15.5456 139.563 15.537 139.571C15.4854 139.589 15.451 139.606 15.4252 139.614C15.1928 139.571 14.9948 139.416 14.9002 139.201C14.8743 138.969 14.8743 138.728 14.8916 138.409C14.9002 138.323 14.9002 138.263 14.9174 138.108C14.9346 137.91 14.9432 137.79 14.9432 137.678L15.8813 137.962C15.8813 138.074 15.8899 138.177 15.9071 138.401C15.9243 138.633 15.9329 138.754 15.9329 138.891C15.9329 139.055 15.9243 139.201 15.8985 139.339Z" fill="black"/>
<path d="M8.35103 134.229C9.14283 137.311 14.0743 136.519 13.885 133.429C13.6612 129.728 7.59366 130.443 8.35103 134.229Z" fill="white"/>
<path d="M13.971 133.42C13.9194 132.525 13.5235 131.828 12.8694 131.389C12.2842 130.993 11.5096 130.838 10.7436 130.933C9.97763 131.036 9.2719 131.381 8.80715 131.923C8.29076 132.525 8.09281 133.317 8.27355 134.229L8.351 134.212L8.27355 134.229C9.08256 137.397 14.1604 136.631 13.971 133.42ZM8.42846 134.212C8.25633 133.343 8.44568 132.603 8.92764 132.043C9.36657 131.536 10.0293 131.2 10.7608 131.105C11.4924 131.011 12.2239 131.157 12.7747 131.536C13.3858 131.949 13.7559 132.594 13.8075 133.446C13.9883 136.45 9.19444 137.173 8.42846 134.212Z" fill="black"/>
<path d="M9.71081 134.625C10.1719 134.625 10.5456 134.221 10.5456 133.722C10.5456 133.223 10.1719 132.818 9.71081 132.818C9.24974 132.818 8.87598 133.223 8.87598 133.722C8.87598 134.221 9.24974 134.625 9.71081 134.625Z" fill="black"/>
<path d="M10.0896 134.161C10.1989 134.161 10.2875 134.057 10.2875 133.928C10.2875 133.8 10.1989 133.696 10.0896 133.696C9.98023 133.696 9.8916 133.8 9.8916 133.928C9.8916 134.057 9.98023 134.161 10.0896 134.161Z" fill="white"/>
<path d="M15.2672 133.653C15.8782 137.191 21.6618 136.253 20.827 132.689C20.0782 129.488 15.0606 130.374 15.2672 133.653Z" fill="white"/>
<path d="M20.9044 132.672C20.1384 129.376 14.9745 130.28 15.1811 133.662V133.671C15.4651 135.34 16.954 136.192 18.5979 135.917C19.3466 135.788 20.0179 135.426 20.4569 134.893C20.9388 134.299 21.111 133.533 20.9044 132.672ZM20.3278 134.789C19.9146 135.289 19.2864 135.633 18.572 135.753C17.0143 136.012 15.62 135.211 15.3446 133.645C15.1553 130.46 20.0265 129.608 20.7495 132.707C20.9388 133.524 20.7839 134.239 20.3278 134.789Z" fill="black"/>
<path d="M16.6872 134.402C17.1388 134.402 17.5049 133.998 17.5049 133.498C17.5049 132.999 17.1388 132.595 16.6872 132.595C16.2357 132.595 15.8696 132.999 15.8696 133.498C15.8696 133.998 16.2357 134.402 16.6872 134.402Z" fill="black"/>
<path d="M17.0658 133.937C17.1704 133.937 17.2552 133.833 17.2552 133.705C17.2552 133.577 17.1704 133.473 17.0658 133.473C16.9612 133.473 16.8765 133.577 16.8765 133.705C16.8765 133.833 16.9612 133.937 17.0658 133.937Z" fill="white"/>
<path d="M13.7095 136.154C13.0296 136.214 12.4788 137.015 12.8317 137.652C13.2964 138.495 14.3378 137.574 14.9833 137.66C15.732 137.678 16.3431 138.452 16.937 137.798C17.5997 137.075 16.6529 136.369 15.9042 136.06L13.7095 136.154Z" fill="#F6D2A2"/>
<path d="M17.023 136.731C16.7907 136.438 16.3862 136.171 15.9472 135.991L15.93 135.982H15.9128L13.7095 136.068C12.9436 136.137 12.3928 137.024 12.7628 137.695C12.9091 137.953 13.1071 138.082 13.3739 138.099C13.5718 138.108 13.7784 138.065 14.0968 137.953C14.1227 137.944 14.1571 137.936 14.2001 137.919C14.6304 137.772 14.8026 137.729 14.9747 137.755H14.9833C15.1899 137.755 15.362 137.815 15.689 137.944C16.0505 138.091 16.1624 138.134 16.3431 138.151C16.5927 138.168 16.8079 138.082 17.0058 137.867C17.3415 137.497 17.3243 137.101 17.023 136.731ZM16.8767 137.746C16.7132 137.927 16.5497 137.987 16.3517 137.979C16.1968 137.97 16.0935 137.927 15.7493 137.789C15.405 137.643 15.2157 137.592 14.9919 137.583C14.7767 137.557 14.596 137.6 14.1399 137.755C14.0968 137.772 14.0624 137.781 14.0366 137.789C13.4083 138.005 13.1071 137.987 12.9005 137.609C12.5907 137.049 13.0641 136.292 13.7095 136.232L15.887 136.146C16.3001 136.318 16.6702 136.567 16.8853 136.834C17.1435 137.144 17.1521 137.454 16.8767 137.746Z" fill="#231F20"/>
<path d="M16.0763 135.784C15.8095 134.803 13.5718 134.949 13.6234 136.12C13.7353 136.989 16.3345 136.757 16.0763 135.784Z" fill="black"/>
<path d="M70.0527 156C82.7843 156 93.1054 150.627 93.1054 144C93.1054 137.373 82.7843 132 70.0527 132C57.321 132 47 137.373 47 144C47 150.627 57.321 156 70.0527 156Z" fill="#8993BE"/>
<path fill-rule="evenodd" clip-rule="evenodd" d="M53.4734 151.105L55.9998 138.316H61.8417C64.3679 138.474 65.6312 139.737 65.6312 141.947C65.6312 145.737 62.6312 147.947 59.9469 147.789H57.1051L56.4735 151.105H53.4734ZM57.7365 145.421L58.5261 140.684H60.5787C61.6839 140.684 62.4733 141.158 62.4733 142.105C62.3155 144.79 61.0523 145.263 59.6313 145.421H57.7367H57.7365ZM65.0442 147.789L67.5705 135H70.5706L69.9389 138.316H72.7809C75.3073 138.474 76.2547 139.737 75.9389 141.316L74.8337 147.789H71.6758L72.7811 141.947C72.9389 141.158 72.9389 140.684 71.8338 140.684H69.4653L68.0443 147.789H65.0442ZM74.6314 151.105L77.1577 138.316H82.9997C85.5262 138.474 86.7894 139.737 86.7894 141.947C86.7894 145.737 83.7893 147.947 81.1051 147.789H78.2629L77.6313 151.105H74.6314ZM78.8944 145.421L79.6839 140.684H81.7367C82.842 140.684 83.6313 141.158 83.6313 142.105C83.4736 144.79 82.2104 145.263 80.7894 145.421H78.8946H78.8944Z" fill="#232531"/>
<g clip-path="url(#clip2)">
<path d="M122.852 134.559C121.465 135.534 119.894 136.639 119.052 138.467C117.59 141.656 122.044 145.136 122.235 145.282C122.279 145.316 122.332 145.333 122.385 145.333C122.441 145.333 122.497 145.314 122.543 145.276C122.631 145.202 122.656 145.076 122.603 144.974C122.587 144.943 120.988 141.837 121.047 139.61C121.069 138.834 122.154 137.953 123.304 137.021C124.357 136.168 125.551 135.2 126.249 134.069C127.782 131.577 126.078 129.128 126.061 129.103C125.993 129.008 125.868 128.974 125.761 129.021C125.654 129.068 125.595 129.183 125.62 129.297C125.623 129.314 125.955 130.933 125.033 132.602C124.653 133.292 123.818 133.879 122.852 134.559Z" fill="#DB380E"/>
<path d="M128.692 135.657C128.79 135.584 128.818 135.449 128.759 135.342C128.7 135.235 128.571 135.188 128.457 135.231C128.221 135.321 122.69 137.453 122.69 140.029C122.69 141.804 123.449 142.743 124.002 143.428C124.22 143.696 124.407 143.928 124.469 144.127C124.643 144.697 124.231 145.729 124.057 146.079C124.007 146.179 124.032 146.301 124.117 146.374C124.163 146.414 124.22 146.434 124.278 146.434C124.327 146.434 124.376 146.42 124.418 146.39C124.513 146.324 126.742 144.748 126.343 142.849C126.194 142.127 125.839 141.6 125.526 141.135C125.041 140.414 124.691 139.893 125.222 138.931C125.845 137.809 128.663 135.679 128.692 135.657Z" fill="#DB380E"/>
<path d="M114.294 146.475C114.199 146.759 114.244 147.04 114.423 147.289C115.023 148.122 117.147 148.58 120.404 148.58C120.404 148.58 120.404 148.58 120.404 148.58C120.846 148.58 121.312 148.572 121.789 148.554C126.996 148.368 128.928 146.746 129.008 146.677C129.094 146.602 129.118 146.476 129.064 146.375C129.01 146.274 128.893 146.223 128.782 146.254C126.948 146.755 123.523 146.932 121.148 146.932C118.49 146.932 117.136 146.741 116.805 146.599C116.975 146.366 118.024 145.949 119.323 145.693C119.448 145.669 119.533 145.554 119.521 145.428C119.508 145.302 119.403 145.206 119.276 145.206C118.514 145.206 114.693 145.267 114.294 146.475Z" fill="#73A1FB"/>
<path d="M131.72 144.804C130.646 144.804 129.627 145.342 129.584 145.365C129.485 145.418 129.434 145.532 129.462 145.642C129.489 145.751 129.587 145.828 129.7 145.828C129.723 145.828 131.991 145.846 132.197 147.142C132.379 148.26 130.05 150.072 129.138 150.676C129.039 150.741 129.001 150.867 129.047 150.976C129.086 151.069 129.176 151.127 129.273 151.127C129.29 151.127 129.308 151.125 129.325 151.121C129.541 151.075 134.622 149.955 134.085 146.997C133.757 145.184 132.618 144.804 131.72 144.804Z" fill="#73A1FB"/>
<path d="M128.235 150.314C128.253 150.219 128.214 150.123 128.135 150.067L126.917 149.214C126.857 149.172 126.782 149.159 126.712 149.178C126.7 149.181 125.426 149.516 123.576 149.721C122.842 149.804 122.02 149.847 121.198 149.847C119.349 149.847 118.14 149.63 117.964 149.47C117.941 149.426 117.948 149.405 117.952 149.394C117.984 149.305 118.156 149.199 118.266 149.158C118.388 149.112 118.454 148.98 118.416 148.855C118.378 148.731 118.25 148.657 118.123 148.688C116.901 148.983 116.304 149.395 116.347 149.914C116.424 150.833 118.553 151.304 120.353 151.429C120.612 151.447 120.892 151.456 121.185 151.456C121.185 151.456 121.185 151.456 121.185 151.456C124.178 151.456 128.014 150.517 128.053 150.507C128.146 150.484 128.218 150.409 128.235 150.314Z" fill="#73A1FB"/>
<path d="M119.051 152.286C119.143 152.226 119.184 152.112 119.152 152.007C119.119 151.902 119.021 151.833 118.91 151.835C118.747 151.839 117.308 151.904 117.207 152.82C117.177 153.094 117.255 153.344 117.44 153.563C117.957 154.175 119.351 154.539 121.702 154.675C121.981 154.692 122.263 154.701 122.542 154.701C125.531 154.701 127.545 153.765 127.629 153.725C127.711 153.686 127.765 153.606 127.769 153.516C127.774 153.425 127.729 153.34 127.652 153.293L126.112 152.353C126.059 152.32 125.995 152.309 125.934 152.322C125.924 152.324 124.947 152.527 123.472 152.727C123.193 152.765 122.843 152.784 122.433 152.784C120.959 152.784 119.32 152.543 119.006 152.386C119.001 152.356 119.007 152.319 119.051 152.286Z" fill="#73A1FB"/>
<path d="M121.149 157.526C127.996 157.521 131.671 156.303 132.379 155.537C132.629 155.266 132.657 155.009 132.635 154.841C132.583 154.429 132.207 154.176 132.164 154.149C132.062 154.083 131.924 154.1 131.843 154.193C131.763 154.285 131.762 154.42 131.842 154.513C131.885 154.568 131.91 154.661 131.784 154.788C131.501 155.052 128.646 155.854 123.894 156.095C123.243 156.129 122.56 156.146 121.864 156.146C117.609 156.146 114.495 155.564 114.086 155.224C114.244 154.998 115.345 154.636 116.517 154.431C116.649 154.408 116.738 154.284 116.717 154.151C116.697 154.019 116.575 153.928 116.441 153.945C116.408 153.95 116.296 153.956 116.166 153.964C114.233 154.082 112 154.345 111.883 155.341C111.848 155.645 111.938 155.92 112.151 156.16C112.673 156.747 114.174 157.526 121.149 157.526C121.149 157.526 121.149 157.526 121.149 157.526Z" fill="#73A1FB"/>
<path d="M133.724 155.753C133.627 155.708 133.513 155.731 133.44 155.808C133.43 155.819 132.401 156.896 129.306 157.528C128.121 157.765 125.897 157.886 122.695 157.886C119.487 157.886 116.435 157.76 116.404 157.758C116.277 157.752 116.168 157.845 116.151 157.97C116.133 158.096 116.214 158.214 116.337 158.243C116.369 158.251 119.568 159 123.941 159C126.039 159 128.08 158.83 130.009 158.494C133.604 157.863 133.856 156.08 133.865 156.005C133.877 155.899 133.82 155.797 133.724 155.753Z" fill="#73A1FB"/>
</g>
<defs>
<linearGradient id="paint0_linear" x1="110.898" y1="88.6223" x2="125.81" y2="103.584" gradientUnits="userSpaceOnUse">
<stop stop-color="#387EB8"/>
<stop offset="1" stop-color="#366994"/>
</linearGradient>
<linearGradient id="paint1_linear" x1="120.071" y1="98.1402" x2="136.087" y2="113.484" gradientUnits="userSpaceOnUse">
<stop stop-color="#FFE052"/>
<stop offset="1" stop-color="#FFC331"/>
</linearGradient>
<clipPath id="clip0">
<rect width="24.9407" height="30" fill="white" transform="translate(3 86)"/>
</clipPath>
<clipPath id="clip1">
<rect width="30.157" height="30" fill="white" transform="translate(108 86)"/>
</clipPath>
<clipPath id="clip2">
<rect width="30" height="30" fill="white" transform="translate(108 129)"/>
</clipPath>
</defs>
</svg>
