<?xml version="1.0" encoding="utf-8"?>
<!-- Generator: Adobe Illustrator 24.0.2, SVG Export Plug-In . SVG Version: 6.00 Build 0)  -->
<svg version="1.1" id="Capa_1" xmlns="http://www.w3.org/2000/svg" xmlns:xlink="http://www.w3.org/1999/xlink" x="0px" y="0px"
	 viewBox="0 0 198.4 212.6" style="enable-background:new 0 0 198.4 212.6;" xml:space="preserve">
<style type="text/css">
	.st0{fill:url(#SVGID_1_);}
	.st1{fill:none;stroke:#000000;stroke-width:2;}
	.st2{clip-path:url(#SVGID_3_);}
	.st3{fill:#202040;}
	.st4{fill:url(#SVGID_4_);}
	.st5{clip-path:url(#SVGID_6_);}
</style>
<g>
	
		<linearGradient id="SVGID_1_" gradientUnits="userSpaceOnUse" x1="76.3518" y1="135.8047" x2="76.3518" y2="35.8047" gradientTransform="matrix(0.9659 -0.2588 -0.2588 -0.9659 47.1702 208.9416)">
		<stop  offset="0" style="stop-color:#0CCA98"/>
		<stop  offset="1" style="stop-color:#00FFCC"/>
	</linearGradient>
	<path class="st0" d="M66.5,63.2l38.6-10.4c10.7-2.9,21.6,3.5,24.5,14.1l15.5,58c2.9,10.7-3.5,21.6-14.1,24.5l-38.6,10.4
		c-10.7,2.9-21.6-3.5-24.5-14.1l-15.5-58C49.5,77,55.8,66,66.5,63.2z"/>
	<path class="st1" d="M66.7,64.1l38.6-10.4c10.1-2.7,20.6,3.3,23.3,13.4l15.5,58c2.7,10.1-3.3,20.6-13.4,23.3l-38.6,10.4
		c-10.1,2.7-20.6-3.3-23.3-13.4l-15.5-58C50.6,77.3,56.6,66.9,66.7,64.1z"/>
</g>
<g>
	<defs>
		
			<rect id="SVGID_2_" x="75.9" y="85.3" transform="matrix(0.9659 -0.2588 0.2588 0.9659 -24.332 28.7281)" width="42" height="42.9"/>
	</defs>
	<clipPath id="SVGID_3_">
		<use xlink:href="#SVGID_2_"  style="overflow:visible;"/>
	</clipPath>
	<g class="st2">
		<path class="st3" d="M82.2,104.2l4.3,2.2c0,0,0.1,0,0.1,0s0.1,0,0.1-0.1c0.6-0.8,1.3-1.6,2.1-2.3c3.3-2.9,7.1-3.5,8.5-3.7
			c1.3-0.2,2.7-0.2,4-0.1c0,0,0.1,0,0.1,0c0,0,0.1-0.1,0.1-0.1l1.5-4.9c0,0,0-0.1,0-0.1c0,0-0.1-0.1-0.1-0.1l0,0c-2-0.3-4-0.3-6-0.1
			c-1.7,0.2-7.1,1-11.7,5.3c-1.1,1.1-2.1,2.2-3,3.5c0,0,0,0,0,0.1c0,0,0,0,0,0.1C82.1,104.1,82.1,104.1,82.2,104.2
			C82.2,104.2,82.2,104.2,82.2,104.2L82.2,104.2z"/>
		<path class="st3" d="M107.7,89.8l-4.9,2.1c0,0-0.1,0.1-0.1,0.1c0,0,0,0.1,0,0.1c0.4,0.9,0.7,1.9,1,2.9c0.1,0.4,0.7,2.7,0.7,4.8
			c-0.1,3.6-2.2,6.5-3.3,7.9c0,0,0,0.1,0,0.1c0,0,0,0.1,0.1,0.1c1.2,1.2,2.6,2.2,3.9,3.2c0,0,0.1,0,0.1,0c0,0,0.1,0,0.1-0.1
			c2.4-2.8,4-6.3,4.5-10c0.8-5.3-1-9.6-1.8-11.3c0,0-0.1-0.1-0.1-0.1C107.7,89.7,107.7,89.7,107.7,89.8L107.7,89.8z"/>
		<path class="st3" d="M105.8,118l0.5-5.6c0,0,0,0,0-0.1c0,0,0,0,0-0.1c0,0,0,0-0.1,0c0,0,0,0-0.1,0l0,0c-1.9-0.2-3.7-0.7-5.4-1.6
			c-1.3-0.6-2.5-1.5-3.6-2.5c-0.6-0.6-1.3-1.2-1.7-2.2c-0.1-0.2-0.3-0.5-0.6-1.2c-0.1-0.3-0.3-0.7-0.4-0.9c0,0,0-0.1-0.1-0.1
			c0,0-0.1,0-0.1,0l-5.4,1.4c0,0-0.1,0-0.1,0.1c0,0,0,0.1,0,0.1c0.1,0.6,0.3,1.2,0.6,1.8c0.3,0.7,0.8,1.4,1.3,2.1
			c1.4,1.8,3.1,3.4,4.9,4.8c1.6,1.1,3.4,2,5.2,2.7c1.6,0.6,3.2,1.1,4.9,1.4c0,0,0,0,0.1,0c0,0,0,0,0.1,0
			C105.8,118.1,105.8,118.1,105.8,118C105.8,118.1,105.8,118,105.8,118L105.8,118z"/>
		<path class="st3" d="M91.6,112l3.6,4c0,0,0,0.1,0,0.1c0,0,0,0.1-0.1,0.1c0,0,0,0-0.1,0c-2,0.5-4,0.6-6.1,0.4
			c-3.1-0.3-6-1.4-8.6-3.1c-1.9-1.4-3.5-3.3-4.5-5.5l0,0c-1.1-1.9-1.7-4-1.9-6.1c0-0.7,0-1.3,0-2c0-0.2,0.1-0.4,0.1-0.6
			c0,0,0-0.1,0-0.1c0,0,0,0,0.1-0.1c0,0,0.1,0,0.1,0c0,0,0.1,0,0.1,0c0,0,0.1,0,0.1,0.1c0,0,0.1,0.1,0.1,0.1
			c0.3,1.6,0.8,3.1,1.5,4.6c0.4,1,0.9,1.9,1.5,2.8c0,0,0,0,0,0c1.4,1.7,3.3,3,5.3,3.8c1.3,0.6,2.7,1,4.2,1.2
			c1.4,0.2,2.8,0.3,4.3,0.2C91.5,111.9,91.5,111.9,91.6,112C91.6,111.9,91.6,111.9,91.6,112L91.6,112z"/>
		<path class="st3" d="M93.6,94.4L87.7,96c0,0,0,0-0.1,0c0,0,0,0-0.1,0c0,0,0,0-0.1,0c0,0,0,0,0-0.1c0,0,0,0,0-0.1
			c0.1-0.4,0.1-0.9,0.3-1.3c0.5-1.7,1.4-2.9,2.3-4.1c1.3-1.7,2.9-3.1,4.7-4.3c1.8-1.3,3.9-2.1,6.1-2.5c1.2-0.3,2.5-0.4,3.7-0.4
			c0.9,0,1.8,0.1,2.7,0.3c0.9,0.2,1.8,0.4,2.7,0.7c0.6,0.2,1.2,0.4,1.8,0.7c0.5,0.2,0.9,0.5,1.4,0.9c0,0,0.1,0.1,0.1,0.1
			c0,0.1,0,0.1,0,0.2c0,0.1-0.1,0.1-0.1,0.1c-0.1,0-0.1,0-0.2,0c-0.7-0.2-1.4-0.5-2.2-0.6c-1.1-0.3-2.2-0.4-3.4-0.5
			c-1.1,0-2.2,0.2-3.3,0.5c-1.3,0.3-2.5,0.8-3.6,1.5c-0.7,0.4-1.4,0.9-2,1.5c-0.9,0.8-1.7,1.6-2.4,2.5c-0.5,0.6-0.8,1.1-1.1,1.4
			C94.4,93.1,94,93.7,93.6,94.4C93.7,94.4,93.6,94.4,93.6,94.4C93.6,94.4,93.6,94.4,93.6,94.4L93.6,94.4z"/>
		<path class="st3" d="M109.9,105.2l2.2-5.3c0,0,0.1-0.1,0.1-0.1c0,0,0.1,0,0.1,0l0,0c0.6,0.3,1.1,0.7,1.6,1.2
			c0.8,0.9,1.2,1.8,1.7,3c0.3,0.8,0.6,1.7,0.8,2.5c0.5,1.6,0.6,3.3,0.5,5c-0.1,1.8-0.4,3.6-1,5.3c-0.7,2-1.7,3.7-3.1,5.3
			c-1.1,1.3-2.4,2.4-3.9,3.1c-0.5,0.3-1.1,0.5-1.6,0.8l-0.8,0.3c0,0-0.1,0-0.1,0s-0.1,0-0.1-0.1c0,0,0-0.1,0-0.1c0,0,0-0.1,0.1-0.1
			c0.5-0.4,1.1-0.8,1.6-1.3c0.6-0.5,1.2-1,1.6-1.5l0,0c1.1-1.3,1.9-2.8,2.5-4.3l0,0c0.7-1.4,0.9-3,0.8-4.6l0,0
			c0-0.8-0.1-1.6-0.2-2.4c-0.2-0.9-0.3-1.7-0.5-2.4c-0.1-0.5-0.3-1.1-0.6-1.6c-0.1-0.3-0.3-0.7-0.5-1c-0.2-0.3-0.4-0.6-0.6-0.9
			C110.3,105.7,110.1,105.4,109.9,105.2z"/>
		<path class="st3" d="M98.9,101.9c-0.4,0-0.8,0.2-1.1,0.5c-0.3,0.3-0.5,0.7-0.6,1.1c-0.1,0.4,0,0.8,0.1,1.2
			c0.2,0.4,0.5,0.7,0.8,0.9c0.4,0.2,0.8,0.3,1.2,0.3s0.8-0.2,1.1-0.5c0.3-0.3,0.5-0.7,0.6-1.1c0.1-0.4,0-0.8-0.1-1.2
			c-0.2-0.4-0.5-0.7-0.8-0.9C99.8,101.9,99.3,101.8,98.9,101.9L98.9,101.9z"/>
	</g>
</g>
<g>
	
		<linearGradient id="SVGID_4_" gradientUnits="userSpaceOnUse" x1="107.7126" y1="152.7638" x2="107.7126" y2="52.7638" gradientTransform="matrix(1 0 0 -1 0 214.063)">
		<stop  offset="0" style="stop-color:#0CCA98"/>
		<stop  offset="1" style="stop-color:#00FFCC"/>
	</linearGradient>
	<path class="st4" d="M87.7,61.3h40c11,0,20,9,20,20v60c0,11-9,20-20,20h-40c-11,0-20-9-20-20v-60C67.7,70.3,76.7,61.3,87.7,61.3z"
		/>
	<path class="st1" d="M87.7,62.3h40c10.5,0,19,8.5,19,19v60c0,10.5-8.5,19-19,19h-40c-10.5,0-19-8.5-19-19v-60
		C68.7,70.8,77.2,62.3,87.7,62.3z"/>
</g>
<g>
	<defs>
		<rect id="SVGID_5_" x="84.9" y="89.9" width="42" height="42.9"/>
	</defs>
	<clipPath id="SVGID_6_">
		<use xlink:href="#SVGID_5_"  style="overflow:visible;"/>
	</clipPath>
	<g class="st5">
		<path class="st3" d="M92.3,105l3.6,3.2c0,0,0.1,0,0.1,0c0,0,0.1,0,0.1,0c0.8-0.6,1.7-1.2,2.6-1.6c4-1.9,7.8-1.5,9.2-1.3
			c1.3,0.2,2.6,0.5,3.9,1c0,0,0.1,0,0.1,0c0,0,0.1,0,0.1-0.1l2.7-4.3c0,0,0-0.1,0-0.1s0-0.1-0.1-0.1l0,0c-1.9-0.8-3.8-1.3-5.8-1.6
			c-1.7-0.2-7.1-0.9-12.7,2.1c-1.4,0.7-2.6,1.6-3.8,2.7c0,0,0,0,0,0.1c0,0,0,0,0,0.1C92.3,104.9,92.3,104.9,92.3,105
			C92.3,105,92.3,105,92.3,105L92.3,105z"/>
		<path class="st3" d="M120.6,97.6l-5.3,0.8c0,0-0.1,0-0.1,0.1c0,0,0,0.1,0,0.1c0.1,1,0.2,2,0.2,3.1c0,0.4,0,2.8-0.6,4.8
			c-1,3.5-3.8,5.7-5.2,6.7c0,0-0.1,0.1-0.1,0.1c0,0,0,0.1,0,0.1c0.9,1.4,1.9,2.8,3,4.1c0,0,0.1,0.1,0.1,0.1c0,0,0.1,0,0.1,0
			c3.1-2.1,5.5-5.1,7-8.5c2.1-4.9,1.5-9.5,1.1-11.4c0,0,0-0.1-0.1-0.1C120.7,97.6,120.7,97.6,120.6,97.6L120.6,97.6z"/>
		<path class="st3" d="M111.6,124.5l1.9-5.3c0,0,0,0,0-0.1c0,0,0,0,0-0.1c0,0,0,0,0-0.1s0,0-0.1,0l0,0c-1.8-0.7-3.4-1.7-4.8-2.9
			c-1.1-1-2.1-2.1-2.8-3.3c-0.4-0.7-0.9-1.5-1.1-2.5c0-0.2-0.1-0.5-0.3-1.3c-0.1-0.3-0.1-0.8-0.1-1c0,0,0-0.1-0.1-0.1
			c0,0-0.1,0-0.1,0l-5.6,0c0,0-0.1,0-0.1,0.1c0,0-0.1,0.1-0.1,0.1c0,0.6,0,1.3,0.1,1.9c0.1,0.8,0.4,1.6,0.7,2.3
			c0.9,2.1,2.1,4.1,3.5,5.9c1.3,1.5,2.7,2.8,4.3,3.9c1.4,1,2.8,1.9,4.4,2.7c0,0,0,0,0.1,0c0,0,0,0,0.1,0
			C111.5,124.6,111.5,124.5,111.6,124.5C111.5,124.5,111.5,124.5,111.6,124.5L111.6,124.5z"/>
		<path class="st3" d="M99.4,114.9l2.4,4.8c0,0,0,0.1,0,0.1c0,0,0,0.1-0.1,0.1c0,0-0.1,0-0.1,0c-2-0.1-4-0.5-6-1.2
			c-2.9-1.1-5.5-2.9-7.5-5.2c-1.5-1.9-2.5-4.1-2.9-6.5v0c-0.5-2.1-0.6-4.3-0.2-6.4c0.1-0.6,0.3-1.3,0.5-1.9c0.1-0.2,0.2-0.4,0.2-0.6
			c0,0,0-0.1,0.1-0.1c0,0,0,0,0.1,0c0,0,0.1,0,0.1,0c0,0,0.1,0,0.1,0c0,0,0.1,0.1,0.1,0.1c0,0,0,0.1,0,0.1c-0.1,1.6,0,3.2,0.2,4.8
			c0.2,1,0.4,2.1,0.7,3.1c0,0,0,0,0,0c0.9,2,2.4,3.8,4.2,5.1c1.1,0.9,2.4,1.7,3.7,2.3c1.3,0.6,2.7,1,4.1,1.3
			C99.3,114.8,99.3,114.8,99.4,114.9C99.3,114.9,99.4,114.9,99.4,114.9L99.4,114.9z"/>
		<path class="st3" d="M105.8,98.5h-6.1c0,0,0,0-0.1,0c0,0,0,0-0.1,0c0,0,0,0,0-0.1c0,0,0,0,0-0.1c0,0,0,0,0-0.1
			c0.2-0.4,0.4-0.8,0.6-1.2c0.9-1.5,2.1-2.4,3.3-3.3c1.7-1.3,3.6-2.3,5.6-3c2.1-0.8,4.3-1,6.5-0.8c1.2,0.1,2.5,0.3,3.7,0.6
			c0.9,0.2,1.7,0.6,2.6,1c0.8,0.4,1.6,0.9,2.4,1.4c0.5,0.3,1,0.7,1.5,1.2c0.4,0.4,0.8,0.8,1.1,1.2c0,0,0.1,0.1,0.1,0.2
			s0,0.1-0.1,0.2c0,0-0.1,0.1-0.2,0.1c-0.1,0-0.1,0-0.2,0c-0.6-0.4-1.3-0.8-1.9-1.2c-1-0.6-2.1-1-3.2-1.3c-1.1-0.3-2.2-0.4-3.3-0.4
			c-1.3,0-2.6,0.2-3.8,0.5c-0.8,0.2-1.6,0.5-2.3,0.9c-1,0.5-2,1.1-3,1.7c-0.6,0.4-1.1,0.8-1.4,1.1C107,97.4,106.4,97.9,105.8,98.5
			C105.9,98.5,105.9,98.5,105.8,98.5C105.9,98.5,105.8,98.5,105.8,98.5L105.8,98.5z"/>
		<path class="st3" d="M118.8,113.1l3.5-4.6c0,0,0.1-0.1,0.1-0.1c0,0,0.1,0,0.1,0l0,0c0.5,0.5,0.9,1,1.2,1.6
			c0.6,1.1,0.7,2.1,0.8,3.4c0.1,0.9,0.1,1.8,0.1,2.7c0,1.7-0.2,3.4-0.8,4.9c-0.6,1.7-1.3,3.4-2.3,4.9c-1.2,1.7-2.7,3.2-4.4,4.3
			c-1.4,1-2.9,1.7-4.6,2c-0.6,0.1-1.2,0.3-1.7,0.3l-0.8,0.1c0,0-0.1,0-0.1,0c0,0-0.1-0.1-0.1-0.1c0,0,0-0.1,0-0.1
			c0,0,0.1-0.1,0.1-0.1c0.6-0.2,1.3-0.5,1.9-0.8c0.7-0.3,1.4-0.7,2-1.1l0,0c1.4-1,2.5-2.2,3.5-3.5v0c1-1.2,1.7-2.7,1.9-4.3v0
			c0.2-0.8,0.3-1.6,0.4-2.4c0.1-0.9,0.2-1.7,0.1-2.4c0-0.6,0-1.1-0.1-1.7c0-0.4-0.1-0.7-0.2-1.1c-0.1-0.3-0.2-0.6-0.3-1
			C119,113.7,118.9,113.4,118.8,113.1z"/>
		<path class="st3" d="M109.1,107.1c-0.4-0.1-0.8,0-1.2,0.2c-0.4,0.2-0.7,0.5-0.9,0.9c-0.2,0.4-0.3,0.8-0.2,1.2
			c0.1,0.4,0.3,0.8,0.6,1.1c0.3,0.3,0.7,0.5,1.1,0.6c0.4,0.1,0.9,0,1.2-0.2c0.4-0.2,0.7-0.5,0.9-0.9c0.2-0.4,0.3-0.8,0.2-1.2
			c-0.1-0.4-0.3-0.8-0.6-1.1C109.9,107.3,109.5,107.1,109.1,107.1L109.1,107.1z"/>
	</g>
</g>
</svg>
