<?xml version="1.0" encoding="utf-8"?>
<!-- Generator: Adobe Illustrator 24.0.2, SVG Export Plug-In . SVG Version: 6.00 Build 0)  -->
<svg version="1.1" id="Capa_1" xmlns="http://www.w3.org/2000/svg" xmlns:xlink="http://www.w3.org/1999/xlink" x="0px" y="0px"
	 viewBox="0 0 198.4 212.6" style="enable-background:new 0 0 198.4 212.6;" xml:space="preserve">
<style type="text/css">
	.st0{fill:url(#SVGID_1_);}
	.st1{fill:none;stroke:#000000;stroke-width:2;}
	.st2{clip-path:url(#SVGID_3_);}
	.st3{fill:#202040;}
	.st4{fill:url(#SVGID_4_);}
	.st5{clip-path:url(#SVGID_6_);}
	.st6{fill:url(#SVGID_7_);}
	.st7{clip-path:url(#SVGID_9_);}
	.st8{fill:url(#SVGID_10_);}
	.st9{clip-path:url(#SVGID_12_);}
	.st10{fill:url(#SVGID_13_);}
	.st11{clip-path:url(#SVGID_15_);}
	.st12{fill:url(#SVGID_16_);}
	.st13{clip-path:url(#SVGID_18_);}
</style>
<g>
	
		<linearGradient id="SVGID_1_" gradientUnits="userSpaceOnUse" x1="27.496" y1="107.2529" x2="27.496" y2="7.2529" gradientTransform="matrix(0.5736 -0.8192 -0.8192 -0.5736 111.0379 156.3113)">
		<stop  offset="0" style="stop-color:#0CCA98"/>
		<stop  offset="1" style="stop-color:#00FFCC"/>
	</linearGradient>
	<path class="st0" d="M27.5,88.7l22.9-32.8c6.3-9,18.8-11.2,27.9-4.9l49.1,34.4c9,6.3,11.2,18.8,4.9,27.9L109.4,146
		c-6.3,9-18.8,11.2-27.9,4.9l-49.1-34.4C23.3,110.2,21.1,97.7,27.5,88.7z"/>
	<path class="st1" d="M28.3,89.2l22.9-32.8c6-8.6,17.9-10.7,26.5-4.7l49.1,34.4c8.6,6,10.7,17.9,4.7,26.5l-22.9,32.8
		c-6,8.6-17.9,10.7-26.5,4.7L33,115.7C24.4,109.7,22.3,97.8,28.3,89.2z"/>
</g>
<g>
	<defs>
		
			<rect id="SVGID_2_" x="57.8" y="81" transform="matrix(0.5736 -0.8192 0.8192 0.5736 -50.2977 108.2848)" width="42" height="42.9"/>
	</defs>
	<clipPath id="SVGID_3_">
		<use xlink:href="#SVGID_2_"  style="overflow:visible;"/>
	</clipPath>
	<g class="st2">
		<path class="st3" d="M65.9,109.9l4.7-1.1c0,0,0.1,0,0.1-0.1c0,0,0-0.1,0-0.1c-0.1-1,0-2.1,0.2-3.1c0.7-4.4,3.2-7.2,4.2-8.3
			c0.9-1,1.9-1.9,3-2.6c0,0,0.1-0.1,0.1-0.1c0,0,0-0.1,0-0.1l-2-4.7c0,0-0.1-0.1-0.1-0.1s-0.1,0-0.1,0l0,0c-1.7,1.1-3.3,2.3-4.7,3.8
			c-1.1,1.2-4.8,5.3-5.6,11.6c-0.2,1.5-0.2,3.1,0,4.6c0,0,0,0,0,0.1c0,0,0,0,0,0.1C65.8,109.9,65.8,109.9,65.9,109.9
			C65.9,109.9,65.9,109.9,65.9,109.9L65.9,109.9z"/>
		<path class="st3" d="M76.1,82.5l-2.4,4.8c0,0,0,0.1,0,0.1c0,0,0,0.1,0.1,0.1c0.9,0.5,1.8,1,2.6,1.6c0.4,0.3,2.3,1.6,3.6,3.2
			c2.3,2.8,2.5,6.4,2.5,8.1c0,0,0,0.1,0,0.1c0,0,0.1,0.1,0.1,0.1c1.7,0.1,3.4,0.1,5.1-0.1c0,0,0.1,0,0.1-0.1c0,0,0-0.1,0-0.1
			c0-3.7-1-7.4-3-10.6c-2.8-4.5-6.9-6.7-8.7-7.5c0,0-0.1,0-0.1,0C76.2,82.5,76.2,82.5,76.1,82.5z"/>
		<path class="st3" d="M92.9,105.4l-3.2-4.6c0,0,0,0,0,0c0,0,0,0-0.1,0c0,0,0,0-0.1,0c0,0,0,0-0.1,0c-1.6,1.1-3.3,1.8-5.2,2.3
			c-1.4,0.4-2.9,0.5-4.3,0.4c-0.8-0.1-1.8-0.1-2.7-0.6c-0.2-0.1-0.5-0.2-1.2-0.5c-0.3-0.1-0.7-0.4-0.9-0.5c0,0-0.1,0-0.1,0
			c0,0-0.1,0-0.1,0.1l-3.2,4.6c0,0,0,0.1,0,0.1c0,0,0,0.1,0.1,0.1c0.5,0.4,1,0.7,1.6,1c0.7,0.4,1.5,0.6,2.3,0.8
			c2.3,0.5,4.6,0.6,6.9,0.5c2-0.2,3.9-0.6,5.7-1.3c1.6-0.5,3.2-1.2,4.7-2.1c0,0,0,0,0,0c0,0,0,0,0-0.1
			C92.9,105.5,92.9,105.4,92.9,105.4C92.9,105.4,92.9,105.4,92.9,105.4L92.9,105.4z"/>
		<path class="st3" d="M78.1,109.9l5.4,0.8c0,0,0.1,0,0.1,0.1s0,0.1,0,0.1c0,0,0,0.1,0,0.1c-1.2,1.6-2.7,3-4.4,4.2
			c-2.6,1.7-5.5,2.8-8.6,3.1c-2.4,0.1-4.8-0.3-7-1.4l0,0c-2-0.8-3.9-2-5.4-3.5c-0.5-0.5-0.9-1-1.2-1.5c-0.1-0.2-0.2-0.4-0.3-0.5
			c0,0,0-0.1,0-0.1c0,0,0-0.1,0-0.1c0,0,0-0.1,0-0.1c0,0,0,0,0.1-0.1c0,0,0.1,0,0.1,0c0,0,0.1,0,0.1,0c1.3,1,2.6,1.9,4.1,2.6
			c1,0.5,1.9,0.9,2.9,1.2c0,0,0,0,0,0c2.2,0.4,4.4,0.2,6.5-0.5c1.4-0.4,2.7-1,4-1.7c1.2-0.7,2.4-1.6,3.4-2.6c0,0,0.1,0,0.1,0
			C78,109.9,78.1,109.8,78.1,109.9z"/>
		<path class="st3" d="M68.4,95.2l-3.5,5c0,0,0,0-0.1,0c0,0,0,0-0.1,0c0,0,0,0-0.1,0c0,0,0,0-0.1,0c0,0,0,0,0,0
			c-0.2-0.4-0.5-0.8-0.6-1.2c-0.7-1.6-0.8-3.1-0.9-4.6c-0.1-2.1,0.2-4.3,0.8-6.3c0.6-2.2,1.6-4.1,3.1-5.8c0.8-1,1.6-1.9,2.6-2.7
			c0.7-0.6,1.5-1.1,2.3-1.6c0.8-0.5,1.6-0.8,2.5-1.2c0.6-0.2,1.2-0.4,1.8-0.6c0.5-0.1,1.1-0.2,1.6-0.2c0.1,0,0.1,0,0.2,0
			c0,0,0.1,0.1,0.1,0.1c0,0.1,0,0.1,0,0.2c0,0.1-0.1,0.1-0.1,0.1c-0.7,0.3-1.4,0.6-2.1,0.9c-1,0.5-2,1.1-2.9,1.8
			c-0.9,0.7-1.6,1.6-2.2,2.5c-0.8,1.1-1.4,2.2-1.8,3.4c-0.3,0.8-0.5,1.6-0.6,2.4c-0.2,1.1-0.3,2.3-0.3,3.5c0,0.8,0,1.4,0.1,1.7
			C68.1,93.6,68.2,94.3,68.4,95.2C68.4,95.1,68.4,95.1,68.4,95.2C68.4,95.1,68.4,95.1,68.4,95.2z"/>
		<path class="st3" d="M87.7,92.9L86,87.4c0,0,0-0.1,0-0.1c0,0,0.1-0.1,0.1-0.1l0,0c0.7-0.1,1.4-0.2,2-0.1c1.2,0.2,2.1,0.6,3.2,1.3
			c0.8,0.4,1.5,0.9,2.2,1.5c1.4,0.9,2.6,2.1,3.6,3.5c1.1,1.4,2,3,2.7,4.7c0.7,1.9,1.1,4,1,6.1c0,1.7-0.3,3.4-1,4.9
			c-0.2,0.6-0.5,1.1-0.7,1.6l-0.4,0.7c0,0-0.1,0.1-0.1,0.1c0,0-0.1,0-0.1,0c0,0-0.1,0-0.1-0.1c0,0,0-0.1,0-0.1
			c0.2-0.6,0.3-1.3,0.4-2c0.1-0.8,0.2-1.5,0.3-2.2v0c0-1.7-0.3-3.3-0.9-4.9l0,0c-0.4-1.5-1.2-2.9-2.4-4l0,0
			c-0.5-0.6-1.1-1.2-1.7-1.7c-0.7-0.6-1.3-1.1-1.9-1.5c-0.5-0.3-1-0.6-1.5-0.9c-0.3-0.2-0.7-0.3-1-0.5c-0.3-0.1-0.6-0.2-1-0.3
			C88.4,93.1,88.1,93,87.7,92.9z"/>
		<path class="st3" d="M77.2,97.4c-0.3,0.3-0.5,0.7-0.6,1.1c-0.1,0.4,0,0.8,0.2,1.2c0.2,0.4,0.5,0.7,0.9,0.9
			c0.4,0.2,0.8,0.2,1.2,0.2c0.4-0.1,0.8-0.3,1.1-0.6c0.3-0.3,0.5-0.7,0.5-1.1c0.1-0.4,0-0.8-0.2-1.2c-0.2-0.4-0.5-0.7-0.9-0.9
			c-0.4-0.2-0.8-0.2-1.2-0.2C77.9,96.9,77.5,97.1,77.2,97.4z"/>
	</g>
</g>
<g>
	
		<linearGradient id="SVGID_4_" gradientUnits="userSpaceOnUse" x1="45.8817" y1="124.4342" x2="45.8817" y2="24.4342" gradientTransform="matrix(0.766 -0.6428 -0.6428 -0.766 102.2254 184.4066)">
		<stop  offset="0" style="stop-color:#0CCA98"/>
		<stop  offset="1" style="stop-color:#00FFCC"/>
	</linearGradient>
	<path class="st4" d="M42.1,72.4l30.6-25.7c8.5-7.1,21.1-6,28.2,2.5l38.6,46c7.1,8.5,6,21.1-2.5,28.2l-30.6,25.7
		c-8.5,7.1-21.1,6-28.2-2.5l-38.6-46C32.5,92.2,33.6,79.5,42.1,72.4z"/>
	<path class="st1" d="M42.7,73.2l30.6-25.7c8-6.7,20-5.7,26.8,2.3l38.6,46c6.7,8,5.7,20-2.3,26.8l-30.6,25.7c-8,6.7-20,5.7-26.8-2.3
		l-38.6-46C33.6,91.9,34.7,80,42.7,73.2z"/>
</g>
<g>
	<defs>
		
			<rect id="SVGID_5_" x="67.1" y="77.6" transform="matrix(0.766 -0.6428 0.6428 0.766 -43.0669 79.8223)" width="42" height="42.9"/>
	</defs>
	<clipPath id="SVGID_6_">
		<use xlink:href="#SVGID_5_"  style="overflow:visible;"/>
	</clipPath>
	<g class="st5">
		<path class="st3" d="M73.7,103l4.8,0.2c0,0,0.1,0,0.1,0c0,0,0.1-0.1,0.1-0.1c0.2-1,0.5-2,0.9-2.9c1.8-4,5-6.2,6.2-6.9
			c1.1-0.7,2.3-1.3,3.6-1.8c0,0,0.1,0,0.1-0.1c0,0,0-0.1,0-0.1l-0.7-5c0,0,0-0.1-0.1-0.1c0,0-0.1,0-0.1,0l0,0
			c-1.9,0.6-3.8,1.4-5.5,2.5c-1.4,0.9-6,3.9-8.4,9.8c-0.6,1.4-1,2.9-1.2,4.5c0,0,0,0,0,0.1c0,0,0,0,0,0.1
			C73.6,102.9,73.6,102.9,73.7,103C73.6,102.9,73.7,103,73.7,103L73.7,103z"/>
		<path class="st3" d="M90.6,79.1l-3.6,4c0,0,0,0.1,0,0.1c0,0,0,0.1,0.1,0.1c0.8,0.7,1.5,1.4,2.1,2.2c0.3,0.3,1.8,2.2,2.6,4
			c1.5,3.3,0.8,6.8,0.3,8.5c0,0,0,0.1,0,0.1c0,0,0.1,0.1,0.1,0.1c1.6,0.5,3.3,1,4.9,1.3c0,0,0.1,0,0.1,0c0,0,0.1-0.1,0.1-0.1
			c1-3.6,0.9-7.4-0.1-11c-1.5-5.1-5-8.2-6.4-9.4c0,0-0.1,0-0.1,0C90.7,79.1,90.7,79.1,90.6,79.1z"/>
		<path class="st3" d="M100.9,105.5l-1.9-5.3c0,0,0,0,0-0.1c0,0,0,0-0.1,0c0,0,0,0-0.1,0c0,0,0,0-0.1,0c-1.8,0.6-3.7,0.9-5.6,0.9
			c-1.5,0-2.9-0.3-4.3-0.7c-0.8-0.3-1.7-0.6-2.4-1.2c-0.1-0.1-0.5-0.3-1.1-0.9c-0.3-0.2-0.6-0.5-0.7-0.7c0,0-0.1-0.1-0.1-0.1
			c0,0-0.1,0-0.1,0l-4.3,3.6c0,0-0.1,0.1-0.1,0.1c0,0,0,0.1,0,0.1c0.4,0.5,0.8,1,1.3,1.4c0.6,0.5,1.3,1,2,1.3c2.1,1,4.2,1.8,6.5,2.3
			c1.9,0.3,3.9,0.4,5.9,0.2c1.7-0.1,3.4-0.4,5.1-0.8c0,0,0,0,0.1,0s0,0,0-0.1C100.9,105.6,100.9,105.6,100.9,105.5
			C100.9,105.6,100.9,105.5,100.9,105.5L100.9,105.5z"/>
		<path class="st3" d="M85.5,106l5,2.1c0,0,0.1,0.1,0.1,0.1c0,0,0,0.1,0,0.1c0,0,0,0.1-0.1,0.1c-1.6,1.3-3.4,2.2-5.3,2.9
			c-2.9,1-6.1,1.3-9.1,0.8c-2.3-0.5-4.5-1.6-6.4-3.1l0,0c-1.8-1.3-3.2-2.9-4.3-4.8c-0.3-0.6-0.6-1.2-0.8-1.8
			c-0.1-0.2-0.1-0.4-0.2-0.6c0,0,0-0.1,0-0.1c0,0,0-0.1,0-0.1c0,0,0,0,0.1-0.1c0,0,0.1,0,0.1,0c0,0,0.1,0,0.1,0c0,0,0.1,0,0.1,0.1
			c0.9,1.3,2,2.5,3.3,3.5c0.8,0.7,1.6,1.3,2.5,1.9c0,0,0,0,0,0c2,0.9,4.2,1.4,6.4,1.2c1.5,0,2.9-0.3,4.3-0.7
			c1.4-0.4,2.7-0.9,3.9-1.7C85.3,106,85.3,106,85.5,106C85.4,106,85.5,106,85.5,106z"/>
		<path class="st3" d="M79.9,89.3l-4.7,3.9c0,0,0,0-0.1,0c0,0,0,0-0.1,0c0,0,0,0-0.1,0c0,0,0,0-0.1,0c0,0,0,0,0-0.1
			c-0.1-0.4-0.2-0.9-0.3-1.3c-0.3-1.8,0-3.2,0.4-4.7c0.5-2.1,1.3-4.1,2.4-5.9c1.1-1.9,2.7-3.6,4.5-4.8c1-0.7,2.1-1.4,3.2-1.9
			c0.8-0.4,1.7-0.7,2.6-0.9c0.9-0.2,1.8-0.4,2.7-0.5c0.6-0.1,1.3-0.1,1.9-0.1c0.5,0,1.1,0.1,1.6,0.2c0.1,0,0.1,0,0.1,0.1
			c0,0,0.1,0.1,0.1,0.2c0,0.1,0,0.1-0.1,0.2c0,0-0.1,0.1-0.2,0.1c-0.8,0.1-1.5,0.2-2.2,0.4c-1.1,0.2-2.2,0.5-3.3,1
			c-1,0.5-2,1.1-2.8,1.8c-1,0.8-1.9,1.8-2.6,2.9c-0.5,0.7-0.9,1.4-1.2,2.2c-0.5,1.1-0.9,2.1-1.2,3.3c-0.2,0.7-0.3,1.3-0.4,1.7
			C80.1,87.7,80,88.5,79.9,89.3C79.9,89.2,79.9,89.3,79.9,89.3C79.9,89.3,79.9,89.3,79.9,89.3z"/>
		<path class="st3" d="M99.2,92.2l-0.2-5.8c0,0,0-0.1,0-0.1c0,0,0.1-0.1,0.1-0.1l0,0c0.7,0,1.3,0.2,2,0.5c1.2,0.5,1.9,1.2,2.8,2
			c0.6,0.6,1.2,1.3,1.8,2c1.1,1.3,2,2.7,2.6,4.3c0.7,1.7,1.1,3.4,1.4,5.3c0.2,2.1,0,4.1-0.6,6.1c-0.4,1.6-1.2,3.2-2.2,4.5
			c-0.3,0.5-0.7,0.9-1.1,1.4l-0.6,0.6c0,0-0.1,0.1-0.1,0.1c0,0-0.1,0-0.1,0c0,0-0.1-0.1-0.1-0.1s0-0.1,0-0.1
			c0.3-0.6,0.6-1.2,0.9-1.9c0.3-0.7,0.6-1.4,0.8-2.1l0,0c0.4-1.6,0.6-3.3,0.4-5l0,0c0-1.6-0.4-3.2-1.3-4.5l0,0
			c-0.3-0.7-0.8-1.4-1.2-2.1c-0.6-0.8-1-1.4-1.5-1.9c-0.4-0.4-0.8-0.8-1.2-1.2c-0.3-0.3-0.6-0.5-0.9-0.7c-0.3-0.2-0.6-0.4-0.9-0.6
			C99.8,92.5,99.5,92.3,99.2,92.2z"/>
		<path class="st3" d="M87.8,93.8c-0.4,0.2-0.7,0.5-0.8,0.9c-0.2,0.4-0.2,0.8-0.1,1.2c0.1,0.4,0.3,0.8,0.6,1.1
			c0.3,0.3,0.7,0.5,1.1,0.5c0.4,0,0.8-0.1,1.2-0.3c0.4-0.2,0.6-0.5,0.8-0.9c0.2-0.4,0.2-0.8,0.1-1.2c-0.1-0.4-0.3-0.8-0.7-1.1
			c-0.3-0.3-0.7-0.4-1.1-0.5C88.6,93.5,88.2,93.6,87.8,93.8z"/>
	</g>
</g>
<g>
	
		<linearGradient id="SVGID_7_" gradientUnits="userSpaceOnUse" x1="69.3482" y1="140.1678" x2="69.3482" y2="40.1678" gradientTransform="matrix(0.9063 -0.4226 -0.4226 -0.9063 74.8032 208.5239)">
		<stop  offset="0" style="stop-color:#0CCA98"/>
		<stop  offset="1" style="stop-color:#00FFCC"/>
	</linearGradient>
	<path class="st6" d="M60.3,60.6l36.3-16.9c10-4.7,21.9-0.3,26.6,9.7l25.4,54.4c4.7,10,0.3,21.9-9.7,26.6l-36.3,16.9
		c-10,4.7-21.9,0.3-26.6-9.7L50.6,87.2C45.9,77.2,50.3,65.3,60.3,60.6z"/>
	<path class="st1" d="M60.7,61.5L97,44.6c9.5-4.4,20.8-0.3,25.2,9.2l25.4,54.4c4.4,9.5,0.3,20.8-9.2,25.2l-36.3,16.9
		c-9.5,4.4-20.8,0.3-25.2-9.2L51.5,86.8C47.1,77.3,51.2,66,60.7,61.5z"/>
</g>
<g>
	<defs>
		
			<rect id="SVGID_8_" x="76.9" y="76.8" transform="matrix(0.9063 -0.4226 0.4226 0.9063 -32.3605 50.5749)" width="42" height="42.9"/>
	</defs>
	<clipPath id="SVGID_9_">
		<use xlink:href="#SVGID_8_"  style="overflow:visible;"/>
	</clipPath>
	<g class="st7">
		<path class="st3" d="M83,98.3l4.6,1.4c0,0,0.1,0,0.1,0c0,0,0.1,0,0.1-0.1c0.5-0.9,1-1.8,1.7-2.6c2.8-3.4,6.4-4.6,7.7-5.1
			c1.3-0.4,2.6-0.7,3.9-0.8c0,0,0.1,0,0.1,0c0,0,0.1-0.1,0.1-0.1l0.6-5c0,0,0-0.1,0-0.1c0,0-0.1-0.1-0.1-0.1l0,0c-2,0.1-4,0.4-5.9,1
			C94.2,87.3,89,89,85.2,94c-0.9,1.2-1.7,2.6-2.3,4c0,0,0,0,0,0.1c0,0,0,0,0,0.1C82.8,98.2,82.9,98.2,83,98.3
			C82.9,98.3,82.9,98.3,83,98.3L83,98.3z"/>
		<path class="st3" d="M105.5,79.7l-4.5,3c0,0-0.1,0.1-0.1,0.1s0,0.1,0,0.1c0.6,0.9,1.1,1.8,1.5,2.7c0.2,0.4,1.2,2.6,1.5,4.6
			c0.6,3.6-1,6.8-1.9,8.3c0,0,0,0.1,0,0.1c0,0,0,0.1,0.1,0.1c1.4,0.9,2.9,1.8,4.4,2.5c0,0,0.1,0,0.1,0c0,0,0.1,0,0.1-0.1
			c1.9-3.2,2.8-6.9,2.7-10.6c-0.2-5.3-2.7-9.2-3.8-10.8c0,0-0.1-0.1-0.1-0.1C105.6,79.6,105.5,79.6,105.5,79.7z"/>
		<path class="st3" d="M108.6,107.8l-0.5-5.6c0,0,0,0,0-0.1c0,0,0,0,0-0.1c0,0,0,0-0.1,0c0,0,0,0-0.1,0c-1.9,0.1-3.8-0.1-5.6-0.6
			c-1.4-0.4-2.7-1-4-1.8c-0.7-0.5-1.5-1-2-1.8c-0.1-0.2-0.4-0.4-0.8-1.1c-0.2-0.3-0.4-0.7-0.5-0.9c0,0-0.1-0.1-0.1-0.1
			c0,0-0.1,0-0.1,0l-5.1,2.3c0,0-0.1,0.1-0.1,0.1s0,0.1,0,0.1c0.2,0.6,0.5,1.1,0.9,1.7c0.5,0.7,1,1.3,1.6,1.8
			c1.7,1.5,3.6,2.8,5.7,3.9c1.8,0.8,3.7,1.4,5.6,1.7c1.7,0.3,3.4,0.5,5.1,0.6c0,0,0,0,0.1,0c0,0,0,0,0.1,0
			C108.6,107.9,108.6,107.9,108.6,107.8C108.6,107.8,108.6,107.8,108.6,107.8L108.6,107.8z"/>
		<path class="st3" d="M93.5,104.3l4.3,3.3c0,0,0.1,0.1,0.1,0.1c0,0,0,0.1,0,0.1c0,0,0,0-0.1,0.1c-1.9,0.8-3.9,1.3-5.9,1.4
			c-3.1,0.2-6.2-0.3-9-1.6c-2.1-1.1-4-2.7-5.3-4.7l0,0c-1.4-1.7-2.4-3.6-2.9-5.7c-0.2-0.6-0.3-1.3-0.3-2c0-0.2,0-0.4,0-0.6
			c0,0,0-0.1,0-0.1c0,0,0-0.1,0-0.1c0,0,0,0,0.1,0c0,0,0.1,0,0.1,0c0,0,0.1,0,0.1,0c0,0,0.1,0.1,0.1,0.1c0.6,1.5,1.3,2.9,2.2,4.3
			c0.6,0.9,1.3,1.7,2,2.5c0,0,0,0,0,0c1.7,1.4,3.7,2.4,5.9,2.9c1.4,0.3,2.9,0.5,4.3,0.5c1.4,0,2.8-0.2,4.2-0.6
			C93.4,104.3,93.4,104.3,93.5,104.3C93.5,104.3,93.5,104.3,93.5,104.3z"/>
		<path class="st3" d="M92.4,86.7l-5.5,2.6c0,0,0,0-0.1,0c0,0,0,0-0.1,0c0,0,0,0-0.1,0c0,0,0,0,0-0.1c0,0,0,0,0-0.1
			c0-0.4,0-0.9,0-1.3c0.2-1.8,0.9-3.1,1.6-4.4c1-1.9,2.3-3.6,3.9-5.1c1.6-1.6,3.5-2.8,5.6-3.5c1.2-0.5,2.4-0.8,3.6-1
			c0.9-0.2,1.8-0.2,2.7-0.2c0.9,0,1.8,0.1,2.7,0.3c0.6,0.1,1.3,0.2,1.9,0.4c0.5,0.2,1,0.4,1.5,0.6c0.1,0,0.1,0.1,0.1,0.1
			c0,0.1,0,0.1,0,0.2c0,0.1-0.1,0.1-0.1,0.1c-0.1,0-0.1,0-0.2,0c-0.7-0.1-1.5-0.2-2.3-0.2c-1.1-0.1-2.3,0-3.4,0.1
			c-1.1,0.2-2.2,0.5-3.2,1c-1.2,0.5-2.3,1.2-3.3,2.1c-0.6,0.5-1.2,1.1-1.7,1.8c-0.7,0.9-1.4,1.8-2,2.8c-0.4,0.7-0.6,1.2-0.8,1.6
			C93,85.2,92.7,85.9,92.4,86.7C92.5,86.7,92.5,86.7,92.4,86.7C92.5,86.7,92.4,86.7,92.4,86.7z"/>
		<path class="st3" d="M110.3,94.4l1.3-5.6c0,0,0-0.1,0.1-0.1c0,0,0.1,0,0.1,0l0,0c0.6,0.2,1.2,0.5,1.8,0.9c1,0.8,1.5,1.6,2.2,2.7
			c0.5,0.8,0.9,1.6,1.2,2.4c0.7,1.5,1.2,3.1,1.4,4.8c0.2,1.8,0.2,3.6,0,5.4c-0.3,2-1.1,4-2.1,5.8c-0.8,1.5-2,2.8-3.3,3.8
			c-0.5,0.4-0.9,0.7-1.4,1l-0.7,0.4c0,0-0.1,0-0.1,0c0,0-0.1,0-0.1-0.1c0,0,0-0.1,0-0.1c0,0,0-0.1,0.1-0.1c0.4-0.5,0.9-1,1.4-1.5
			c0.5-0.6,1-1.2,1.4-1.8l0,0c0.8-1.5,1.4-3,1.7-4.7l0,0c0.4-1.5,0.4-3.2,0-4.7l0,0c-0.1-0.8-0.4-1.6-0.6-2.3
			c-0.3-0.9-0.6-1.6-0.9-2.2c-0.2-0.5-0.5-1-0.8-1.5c-0.2-0.3-0.4-0.6-0.6-0.9c-0.2-0.2-0.4-0.5-0.7-0.8
			C110.8,94.9,110.6,94.7,110.3,94.4z"/>
		<path class="st3" d="M99,93.1c-0.4,0.1-0.8,0.4-1,0.7c-0.3,0.3-0.4,0.7-0.4,1.2c0,0.4,0.1,0.8,0.3,1.2c0.2,0.4,0.6,0.6,1,0.8
			c0.4,0.1,0.8,0.2,1.2,0c0.4-0.1,0.8-0.4,1-0.7c0.3-0.3,0.4-0.7,0.4-1.2c0-0.4-0.1-0.8-0.4-1.2c-0.2-0.3-0.6-0.6-1-0.7
			C99.8,93,99.4,93,99,93.1z"/>
	</g>
</g>
<g>
	
		<linearGradient id="SVGID_10_" gradientUnits="userSpaceOnUse" x1="95.7796" y1="151.8595" x2="95.7796" y2="51.8594" gradientTransform="matrix(0.9848 -0.1736 -0.1736 -0.9848 32.1339 218.2474)">
		<stop  offset="0" style="stop-color:#0CCA98"/>
		<stop  offset="1" style="stop-color:#00FFCC"/>
	</linearGradient>
	<path class="st8" d="M80.4,55.5l39.4-6.9c10.9-1.9,21.3,5.3,23.2,16.2l10.4,59.1c1.9,10.9-5.3,21.3-16.2,23.2L97.8,154
		c-10.9,1.9-21.3-5.3-23.2-16.2L64.2,78.7C62.3,67.8,69.5,57.5,80.4,55.5z"/>
	<path class="st1" d="M80.6,56.5l39.4-6.9c10.3-1.8,20.2,5.1,22,15.4l10.4,59.1c1.8,10.3-5.1,20.2-15.4,22L97.6,153
		c-10.3,1.8-20.2-5.1-22-15.4L65.2,78.5C63.3,68.2,70.2,58.3,80.6,56.5z"/>
</g>
<g>
	<defs>
		
			<rect id="SVGID_11_" x="85.9" y="80.2" transform="matrix(0.9848 -0.1736 0.1736 0.9848 -16.0215 20.1178)" width="42" height="42.9"/>
	</defs>
	<clipPath id="SVGID_12_">
		<use xlink:href="#SVGID_11_"  style="overflow:visible;"/>
	</clipPath>
	<g class="st9">
		<path class="st3" d="M92.5,97.8l4.1,2.6c0,0,0.1,0,0.1,0c0,0,0.1,0,0.1-0.1c0.7-0.8,1.4-1.5,2.3-2.1c3.6-2.6,7.4-2.8,8.8-2.9
			c1.3-0.1,2.7,0,4,0.3c0,0,0.1,0,0.1,0c0,0,0.1-0.1,0.1-0.1l1.9-4.7c0,0,0-0.1,0-0.1c0,0-0.1-0.1-0.1-0.1l0,0c-2-0.5-4-0.7-6-0.6
			c-1.7,0.1-7.2,0.3-12.1,4.3c-1.2,1-2.3,2.1-3.3,3.3c0,0,0,0,0,0.1c0,0,0,0,0,0.1C92.5,97.7,92.5,97.7,92.5,97.8
			C92.5,97.7,92.5,97.8,92.5,97.8L92.5,97.8z"/>
		<path class="st3" d="M119.1,85.6l-5.1,1.7c0,0-0.1,0-0.1,0.1c0,0,0,0.1,0,0.1c0.3,1,0.6,2,0.7,3c0.1,0.4,0.5,2.8,0.3,4.8
			c-0.4,3.6-2.8,6.3-4,7.5c0,0-0.1,0.1-0.1,0.1c0,0,0,0.1,0,0.1c1.1,1.3,2.3,2.5,3.6,3.6c0,0,0.1,0,0.1,0s0.1,0,0.1-0.1
			c2.7-2.6,4.5-5.9,5.4-9.6c1.2-5.2-0.2-9.6-0.8-11.4c0,0,0-0.1-0.1-0.1C119.2,85.6,119.2,85.6,119.1,85.6z"/>
		<path class="st3" d="M114.8,113.6l1-5.5c0,0,0,0,0-0.1c0,0,0,0,0-0.1c0,0,0,0,0,0s0,0-0.1,0c-1.9-0.4-3.7-1-5.3-2
			c-1.3-0.7-2.4-1.7-3.4-2.8c-0.6-0.6-1.2-1.3-1.5-2.3c-0.1-0.2-0.2-0.5-0.5-1.3c-0.1-0.3-0.2-0.7-0.3-1c0,0,0-0.1-0.1-0.1
			c0,0-0.1,0-0.1,0l-5.5,1c0,0-0.1,0-0.1,0.1c0,0,0,0.1,0,0.1c0.1,0.6,0.2,1.2,0.4,1.8c0.3,0.8,0.6,1.5,1.1,2.2
			c1.3,1.9,2.8,3.7,4.5,5.2c1.5,1.2,3.2,2.3,5,3.1c1.5,0.8,3.1,1.4,4.8,1.9c0,0,0,0,0.1,0c0,0,0,0,0.1,0
			C114.8,113.7,114.8,113.7,114.8,113.6C114.8,113.6,114.8,113.6,114.8,113.6L114.8,113.6z"/>
		<path class="st3" d="M101.2,106.3l3.2,4.3c0,0,0,0.1,0,0.1c0,0,0,0.1-0.1,0.1c0,0-0.1,0-0.1,0c-2,0.3-4.1,0.2-6.1-0.1
			c-3-0.6-5.9-1.9-8.3-3.9c-1.8-1.6-3.1-3.6-4-5.9l0,0c-0.9-2-1.3-4.1-1.3-6.3c0-0.7,0.1-1.3,0.2-2c0-0.2,0.1-0.4,0.1-0.6
			c0,0,0-0.1,0-0.1c0,0,0,0,0.1-0.1c0,0,0.1,0,0.1,0c0,0,0.1,0,0.1,0c0,0,0.1,0,0.1,0.1c0,0,0,0.1,0.1,0.1c0.2,1.6,0.5,3.2,1.1,4.7
			c0.3,1,0.8,2,1.3,2.9c0,0,0,0,0,0c1.3,1.8,3,3.3,5,4.3c1.3,0.7,2.6,1.2,4,1.6c1.4,0.3,2.8,0.5,4.2,0.5
			C101.1,106.2,101.1,106.2,101.2,106.3C101.2,106.3,101.2,106.3,101.2,106.3z"/>
		<path class="st3" d="M104.7,89l-6,1.1c0,0,0,0-0.1,0c0,0,0,0-0.1,0c0,0,0,0,0-0.1c0,0,0,0,0-0.1c0,0,0,0,0-0.1
			c0.1-0.4,0.2-0.9,0.4-1.3c0.6-1.7,1.6-2.8,2.7-3.9c1.5-1.5,3.2-2.9,5-3.9c1.9-1.1,4.1-1.8,6.3-1.9c1.2-0.1,2.5-0.2,3.7,0
			c0.9,0.1,1.8,0.3,2.7,0.5c0.9,0.2,1.8,0.6,2.6,1c0.6,0.2,1.1,0.5,1.7,0.9c0.5,0.3,0.9,0.6,1.3,1c0,0,0.1,0.1,0.1,0.1
			c0,0.1,0,0.1,0,0.2c0,0-0.1,0.1-0.1,0.1c-0.1,0-0.1,0-0.2,0c-0.7-0.3-1.4-0.6-2.1-0.8c-1.1-0.4-2.2-0.6-3.3-0.7
			c-1.1-0.1-2.2,0-3.3,0.2c-1.3,0.2-2.5,0.6-3.7,1.2c-0.7,0.4-1.4,0.8-2.1,1.3c-0.9,0.7-1.8,1.4-2.6,2.2c-0.5,0.5-0.9,1-1.2,1.3
			C105.7,87.8,105.2,88.4,104.7,89C104.8,89,104.8,89,104.7,89C104.7,89,104.7,89,104.7,89z"/>
		<path class="st3" d="M120,101.1l2.7-5.1c0,0,0.1-0.1,0.1-0.1c0,0,0.1,0,0.1,0l0,0c0.6,0.4,1.1,0.8,1.5,1.4c0.8,1,1,1.9,1.4,3.2
			c0.2,0.9,0.4,1.7,0.5,2.6c0.3,1.7,0.3,3.3,0.1,5c-0.2,1.8-0.7,3.6-1.4,5.2c-0.8,1.9-2.1,3.6-3.6,5c-1.2,1.2-2.6,2.2-4.2,2.8
			c-0.5,0.2-1.1,0.4-1.7,0.6l-0.8,0.2c0,0-0.1,0-0.1,0c0,0-0.1-0.1-0.1-0.1c0,0,0-0.1,0-0.1c0,0,0-0.1,0.1-0.1
			c0.6-0.3,1.1-0.7,1.7-1.1c0.7-0.5,1.2-0.9,1.8-1.4l0,0c1.2-1.2,2.1-2.6,2.8-4.1l0,0c0.8-1.4,1.2-2.9,1.2-4.5l0,0
			c0.1-0.8,0.1-1.6,0-2.4c-0.1-0.9-0.1-1.7-0.3-2.4c-0.1-0.6-0.2-1.1-0.4-1.6c-0.1-0.4-0.2-0.7-0.4-1c-0.1-0.3-0.3-0.6-0.5-0.9
			C120.3,101.7,120.2,101.4,120,101.1z"/>
		<path class="st3" d="M109.4,96.9c-0.4,0-0.8,0.1-1.2,0.4c-0.3,0.3-0.6,0.6-0.7,1c-0.1,0.4-0.1,0.8,0,1.2c0.1,0.4,0.4,0.8,0.7,1
			c0.3,0.2,0.8,0.4,1.2,0.4c0.4,0,0.8-0.2,1.2-0.4c0.3-0.3,0.6-0.6,0.7-1c0.1-0.4,0.1-0.8,0-1.2c-0.1-0.4-0.4-0.7-0.7-1
			C110.2,97,109.8,96.9,109.4,96.9z"/>
	</g>
</g>
<g>
	
		<linearGradient id="SVGID_13_" gradientUnits="userSpaceOnUse" x1="125.1787" y1="161.4071" x2="125.1787" y2="61.4071" gradientTransform="matrix(0.9962 8.715574e-02 8.715574e-02 -0.9962 -16.0395 206.4351)">
		<stop  offset="0" style="stop-color:#0CCA98"/>
		<stop  offset="1" style="stop-color:#00FFCC"/>
	</linearGradient>
	<path class="st10" d="M102.8,54.8l39.8,3.5c11,1,19.1,10.7,18.2,21.7l-5.2,59.8c-1,11-10.7,19.1-21.7,18.2l-39.8-3.5
		c-11-1-19.1-10.7-18.2-21.7L81.1,73C82.1,62,91.8,53.8,102.8,54.8z"/>
	<path class="st1" d="M102.7,55.8l39.8,3.5c10.5,0.9,18.2,10.1,17.3,20.6l-5.2,59.8c-0.9,10.5-10.1,18.2-20.6,17.3l-39.8-3.5
		c-10.5-0.9-18.2-10.1-17.3-20.6l5.2-59.8C83.1,62.6,92.3,54.9,102.7,55.8z"/>
</g>
<g>
	<defs>
		
			<rect id="SVGID_14_" x="95.1" y="85.2" transform="matrix(8.715574e-02 -0.9962 0.9962 8.715574e-02 0.5895 213.0473)" width="42.9" height="42"/>
	</defs>
	<clipPath id="SVGID_15_">
		<use xlink:href="#SVGID_14_"  style="overflow:visible;"/>
	</clipPath>
	<g class="st11">
		<path class="st3" d="M103.6,98.8l3.3,3.6c0,0,0.1,0,0.1,0.1c0,0,0.1,0,0.1,0c0.9-0.6,1.8-1,2.7-1.4c4.1-1.6,7.9-0.8,9.2-0.5
			c1.3,0.3,2.6,0.7,3.8,1.3c0,0,0.1,0,0.1,0c0,0,0.1,0,0.1-0.1l3.1-4.1c0,0,0-0.1,0-0.1c0,0,0-0.1-0.1-0.1l0,0
			c-1.8-1-3.7-1.7-5.6-2.1c-1.6-0.4-7-1.5-12.8,1c-1.4,0.6-2.8,1.4-4,2.3c0,0,0,0,0,0.1c0,0,0,0,0,0.1
			C103.6,98.6,103.6,98.7,103.6,98.8C103.6,98.7,103.6,98.7,103.6,98.8L103.6,98.8z"/>
		<path class="st3" d="M132.4,93.9l-5.4,0.3c0,0-0.1,0-0.1,0.1c0,0,0,0.1,0,0.1c0.1,1,0,2.1-0.1,3.1c0,0.4-0.3,2.8-1,4.7
			c-1.3,3.4-4.3,5.4-5.8,6.2c0,0-0.1,0.1-0.1,0.1c0,0,0,0.1,0,0.1c0.8,1.5,1.6,3,2.6,4.4c0,0,0.1,0.1,0.1,0.1c0,0,0.1,0,0.1,0
			c3.2-1.9,5.9-4.6,7.7-7.9c2.5-4.7,2.3-9.3,2.1-11.2c0,0,0-0.1-0.1-0.1C132.5,93.9,132.5,93.9,132.4,93.9z"/>
		<path class="st3" d="M121,119.8l2.4-5.1c0,0,0,0,0-0.1c0,0,0,0,0-0.1c0,0,0,0,0-0.1c0,0,0,0-0.1,0c-1.7-0.8-3.3-2-4.6-3.3
			c-1-1-1.9-2.2-2.5-3.6c-0.4-0.8-0.8-1.6-0.9-2.6c0-0.2-0.1-0.5-0.2-1.4c0-0.3,0-0.8,0-1c0,0,0-0.1,0-0.1c0,0-0.1-0.1-0.1-0.1
			l-5.6-0.5c0,0-0.1,0-0.1,0s-0.1,0.1-0.1,0.1c-0.1,0.6-0.1,1.3-0.1,1.9c0.1,0.8,0.2,1.6,0.5,2.4c0.7,2.2,1.7,4.3,3,6.2
			c1.1,1.6,2.5,3,4,4.3c1.3,1.1,2.7,2.1,4.1,3c0,0,0,0,0.1,0C120.9,119.9,120.9,119.9,121,119.8C121,119.9,121,119.9,121,119.8
			C121,119.8,121,119.8,121,119.8L121,119.8z"/>
		<path class="st3" d="M109.8,109.3l2,5c0,0,0,0.1,0,0.1s-0.1,0.1-0.1,0.1c0,0-0.1,0-0.1,0c-2-0.2-4-0.8-5.8-1.7
			c-2.8-1.4-5.2-3.4-7-5.9c-1.3-2-2.1-4.3-2.3-6.7l0,0c-0.4-2.1-0.2-4.3,0.4-6.4c0.2-0.6,0.4-1.3,0.7-1.8c0.1-0.2,0.2-0.4,0.3-0.6
			c0,0,0,0,0.1-0.1c0,0,0.1,0,0.1,0s0.1,0,0.1,0c0,0,0.1,0,0.1,0c0,0,0.1,0.1,0.1,0.1c0,0,0,0.1,0,0.1c-0.2,1.6-0.3,3.2-0.2,4.8
			c0.1,1.1,0.2,2.1,0.5,3.1c0,0,0,0,0,0c0.8,2.1,2,4,3.7,5.4c1.1,1,2.2,1.9,3.5,2.6c1.2,0.7,2.6,1.2,3.9,1.6
			C109.7,109.1,109.7,109.1,109.8,109.3C109.7,109.2,109.7,109.2,109.8,109.3z"/>
		<path class="st3" d="M117.6,93.5l-6.1-0.5c0,0,0,0-0.1,0c0,0,0,0-0.1,0c0,0,0,0,0-0.1c0,0,0,0,0-0.1c0,0,0,0,0-0.1
			c0.2-0.4,0.4-0.8,0.7-1.1c1-1.5,2.3-2.3,3.6-3c1.8-1.1,3.8-1.9,5.9-2.5c2.1-0.6,4.4-0.7,6.6-0.2c1.2,0.2,2.4,0.5,3.6,0.9
			c0.9,0.3,1.7,0.7,2.5,1.2c0.8,0.5,1.5,1,2.3,1.6c0.5,0.4,1,0.8,1.4,1.3c0.4,0.4,0.7,0.8,1,1.3c0,0,0,0.1,0,0.2
			c0,0.1,0,0.1-0.1,0.2c0,0-0.1,0.1-0.2,0.1c-0.1,0-0.1,0-0.2-0.1c-0.6-0.5-1.2-0.9-1.8-1.3c-0.9-0.6-2-1.2-3-1.6
			c-1.1-0.4-2.2-0.6-3.3-0.7c-1.3-0.1-2.6-0.1-3.9,0.2c-0.8,0.2-1.6,0.4-2.4,0.7c-1.1,0.4-2.1,0.9-3.1,1.5c-0.7,0.4-1.2,0.7-1.5,0.9
			C118.9,92.5,118.3,92.9,117.6,93.5C117.7,93.4,117.7,93.5,117.6,93.5C117.6,93.5,117.6,93.5,117.6,93.5z"/>
		<path class="st3" d="M129.2,109.1l3.9-4.3c0,0,0.1-0.1,0.1-0.1c0,0,0.1,0,0.1,0l0,0c0.4,0.5,0.8,1.1,1.1,1.7
			c0.5,1.1,0.5,2.1,0.5,3.4c0,0.9,0,1.8-0.2,2.7c-0.1,1.7-0.5,3.3-1.2,4.9c-0.7,1.7-1.6,3.3-2.8,4.7c-1.3,1.6-2.9,2.9-4.7,3.9
			c-1.5,0.9-3.1,1.4-4.8,1.6c-0.6,0.1-1.2,0.1-1.8,0.2l-0.8,0c0,0-0.1,0-0.1,0c0,0-0.1-0.1-0.1-0.1c0,0,0-0.1,0-0.1
			c0,0,0.1-0.1,0.1-0.1c0.6-0.2,1.3-0.4,2-0.6c0.8-0.3,1.4-0.6,2.1-0.9l0,0c1.4-0.8,2.7-1.9,3.8-3.2l0,0c1.1-1.1,1.9-2.5,2.3-4.1
			l0,0c0.3-0.8,0.5-1.5,0.6-2.3c0.2-0.9,0.3-1.7,0.3-2.4c0-0.6,0-1.1,0-1.7c0-0.4,0-0.7-0.1-1.1c-0.1-0.3-0.1-0.7-0.2-1
			C129.4,109.8,129.3,109.4,129.2,109.1z"/>
		<path class="st3" d="M120.1,102.3c-0.4-0.1-0.8-0.1-1.2,0.1c-0.4,0.2-0.7,0.4-1,0.8c-0.2,0.4-0.3,0.8-0.3,1.2
			c0,0.4,0.2,0.8,0.5,1.2c0.3,0.3,0.6,0.6,1.1,0.7c0.4,0.1,0.8,0.1,1.2-0.1c0.4-0.2,0.7-0.4,0.9-0.8c0.2-0.4,0.3-0.8,0.3-1.2
			c0-0.4-0.2-0.8-0.5-1.1C120.9,102.6,120.5,102.4,120.1,102.3z"/>
	</g>
</g>
<g>
	
		<linearGradient id="SVGID_16_" gradientUnits="userSpaceOnUse" x1="153.8625" y1="165.6723" x2="153.8625" y2="65.6723" gradientTransform="matrix(0.9397 0.342 0.342 -0.9397 -58.1264 170.8871)">
		<stop  offset="0" style="stop-color:#0CCA98"/>
		<stop  offset="1" style="stop-color:#00FFCC"/>
	</linearGradient>
	<path class="st12" d="M124.3,61l37.6,13.7c10.4,3.8,15.7,15.3,12,25.6l-20.5,56.4c-3.8,10.4-15.3,15.7-25.6,12L90.1,155
		c-10.4-3.8-15.7-15.3-12-25.6l20.5-56.4C102.5,62.6,113.9,57.2,124.3,61z"/>
	<path class="st1" d="M124,61.9l37.6,13.7c9.9,3.6,14.9,14.5,11.4,24.4l-20.5,56.4c-3.6,9.9-14.5,14.9-24.4,11.4L90.5,154
		c-9.9-3.6-14.9-14.5-11.4-24.4l20.5-56.4C103.2,63.4,114.1,58.3,124,61.9z"/>
</g>
<g>
	<defs>
		
			<rect id="SVGID_17_" x="102.9" y="93.2" transform="matrix(0.342 -0.9397 0.9397 0.342 -25.5172 191.9316)" width="42.9" height="42"/>
	</defs>
	<clipPath id="SVGID_18_">
		<use xlink:href="#SVGID_17_"  style="overflow:visible;"/>
	</clipPath>
	<g class="st13">
		<path class="st3" d="M113.7,103.6l2.3,4.3c0,0,0.1,0.1,0.1,0.1c0,0,0.1,0,0.1,0c1-0.3,2-0.5,3-0.6c4.4-0.5,7.8,1.2,9.1,1.9
			c1.2,0.6,2.3,1.4,3.3,2.2c0,0,0.1,0,0.1,0c0,0,0.1,0,0.1,0l4-3.1c0,0,0.1-0.1,0.1-0.1c0,0,0-0.1,0-0.1l0,0
			c-1.5-1.4-3.1-2.6-4.9-3.5c-1.5-0.8-6.4-3.3-12.6-2.4c-1.5,0.2-3,0.6-4.5,1.2c0,0,0,0-0.1,0c0,0,0,0,0,0.1
			C113.7,103.5,113.7,103.5,113.7,103.6C113.7,103.6,113.7,103.6,113.7,103.6L113.7,103.6z"/>
		<path class="st3" d="M142.8,106.4l-5.3-1.1c0,0-0.1,0-0.1,0c0,0-0.1,0.1-0.1,0.1c-0.2,1-0.5,2-0.9,3c-0.1,0.4-1,2.7-2.2,4.3
			c-2.1,2.9-5.5,4.1-7.2,4.5c0,0-0.1,0-0.1,0.1c0,0,0,0.1,0,0.1c0.3,1.7,0.8,3.3,1.4,4.9c0,0,0,0.1,0.1,0.1c0,0,0.1,0,0.1,0
			c3.6-0.9,6.9-2.9,9.4-5.6c3.6-3.9,4.6-8.4,5-10.3c0,0,0-0.1,0-0.1C142.9,106.4,142.9,106.4,142.8,106.4z"/>
		<path class="st3" d="M125.1,128.5l3.6-4.3c0,0,0,0,0-0.1s0,0,0-0.1c0,0,0,0,0-0.1c0,0,0,0,0-0.1c-1.4-1.2-2.6-2.7-3.6-4.4
			c-0.7-1.3-1.2-2.7-1.5-4.1c-0.2-0.8-0.3-1.7-0.2-2.7c0-0.2,0-0.6,0.2-1.3c0.1-0.3,0.2-0.7,0.3-1c0,0,0-0.1,0-0.1
			c0,0-0.1-0.1-0.1-0.1l-5.3-1.9c0,0-0.1,0-0.1,0c0,0-0.1,0.1-0.1,0.1c-0.2,0.6-0.4,1.2-0.5,1.8c-0.1,0.8-0.2,1.6-0.1,2.4
			c0.1,2.3,0.6,4.6,1.3,6.8c0.7,1.8,1.6,3.6,2.7,5.2c0.9,1.4,2,2.8,3.2,4c0,0,0,0,0.1,0c0,0,0,0,0.1,0
			C125,128.6,125.1,128.6,125.1,128.5C125.1,128.5,125.1,128.5,125.1,128.5L125.1,128.5z"/>
		<path class="st3" d="M116.9,115.4l0.6,5.4c0,0,0,0.1,0,0.1c0,0-0.1,0.1-0.1,0.1c0,0-0.1,0-0.1,0c-1.9-0.8-3.6-1.8-5.2-3.1
			c-2.3-2-4.2-4.6-5.3-7.5c-0.7-2.3-0.9-4.7-0.5-7.1l0,0c0.2-2.2,0.9-4.2,2-6.1c0.3-0.6,0.7-1.1,1.2-1.6c0.1-0.2,0.3-0.3,0.4-0.5
			c0,0,0,0,0.1,0c0,0,0.1,0,0.1,0c0,0,0.1,0,0.1,0c0,0,0.1,0,0.1,0.1c0,0,0.1,0.1,0.1,0.1c0,0,0,0.1,0,0.1c-0.7,1.5-1.1,3-1.4,4.6
			c-0.2,1-0.3,2.1-0.4,3.1c0,0,0,0,0,0c0.2,2.2,0.9,4.3,2.2,6.2c0.8,1.2,1.7,2.4,2.7,3.4c1,1,2.2,1.9,3.4,2.6
			C116.9,115.2,116.9,115.3,116.9,115.4C116.9,115.3,116.9,115.3,116.9,115.4z"/>
		<path class="st3" d="M128.6,102.2l-5.7-2.1c0,0,0,0-0.1,0c0,0,0,0,0-0.1c0,0,0,0,0-0.1c0,0,0,0,0-0.1c0,0,0,0,0-0.1
			c0.3-0.3,0.6-0.6,1-0.9c1.4-1.1,2.8-1.6,4.2-2c2-0.6,4.2-0.9,6.3-0.8c2.2,0,4.4,0.5,6.4,1.5c1.1,0.5,2.2,1.1,3.3,1.8
			c0.7,0.5,1.4,1.1,2.1,1.8c0.6,0.7,1.2,1.4,1.8,2.1c0.4,0.5,0.7,1,1,1.6c0.3,0.5,0.5,1,0.6,1.5c0,0.1,0,0.1,0,0.2
			c0,0.1-0.1,0.1-0.1,0.1c-0.1,0-0.1,0-0.2,0c-0.1,0-0.1,0-0.1-0.1c-0.4-0.6-0.9-1.2-1.4-1.8c-0.7-0.9-1.6-1.6-2.5-2.3
			c-0.9-0.6-1.9-1.1-3-1.5c-1.2-0.5-2.5-0.7-3.8-0.8c-0.8-0.1-1.7,0-2.5,0c-1.2,0.1-2.3,0.3-3.4,0.6c-0.7,0.2-1.3,0.4-1.7,0.5
			C130.1,101.5,129.4,101.8,128.6,102.2C128.7,102.2,128.7,102.2,128.6,102.2C128.7,102.2,128.6,102.2,128.6,102.2z"/>
		<path class="st3" d="M135.8,120.3l4.9-3.1c0,0,0.1,0,0.1,0c0,0,0.1,0,0.1,0.1l0,0c0.3,0.6,0.5,1.3,0.6,1.9
			c0.2,1.2-0.1,2.2-0.4,3.4c-0.2,0.9-0.5,1.7-0.8,2.5c-0.5,1.6-1.4,3.1-2.4,4.4c-1.1,1.4-2.4,2.7-3.9,3.8c-1.7,1.2-3.6,2.1-5.6,2.5
			c-1.6,0.5-3.3,0.6-5,0.3c-0.6-0.1-1.2-0.2-1.8-0.3l-0.8-0.2c0,0-0.1,0-0.1-0.1c0,0,0-0.1,0-0.1c0,0,0-0.1,0.1-0.1c0,0,0.1,0,0.1,0
			c0.6,0,1.3,0,2.1-0.1c0.8-0.1,1.5-0.2,2.2-0.3l0,0c1.6-0.4,3.1-1.2,4.5-2.1l0,0c1.4-0.8,2.5-1.9,3.3-3.3l0,0
			c0.5-0.7,0.9-1.4,1.2-2.1c0.4-0.9,0.7-1.6,0.9-2.3c0.2-0.5,0.3-1.1,0.4-1.6c0.1-0.4,0.1-0.7,0.2-1.1c0-0.3,0-0.7,0-1
			C135.8,121,135.8,120.6,135.8,120.3z"/>
		<path class="st3" d="M128.7,111.3c-0.4-0.2-0.8-0.3-1.2-0.3c-0.4,0-0.8,0.2-1.1,0.5c-0.3,0.3-0.5,0.7-0.6,1.1
			c-0.1,0.4,0,0.8,0.2,1.2c0.2,0.4,0.5,0.7,0.8,0.9c0.4,0.2,0.8,0.3,1.2,0.2c0.4-0.1,0.8-0.2,1.1-0.5c0.3-0.3,0.5-0.7,0.6-1.1
			c0.1-0.4,0-0.8-0.2-1.2C129.4,111.8,129.1,111.5,128.7,111.3z"/>
	</g>
</g>
</svg>
