<?xml version="1.0" encoding="utf-8"?>
<!-- Generator: Adobe Illustrator 24.0.2, SVG Export Plug-In . SVG Version: 6.00 Build 0)  -->
<svg version="1.1" id="Capa_1" xmlns="http://www.w3.org/2000/svg" xmlns:xlink="http://www.w3.org/1999/xlink" x="0px" y="0px"
	 viewBox="0 0 198.4 212.6" style="enable-background:new 0 0 198.4 212.6;" xml:space="preserve">
<style type="text/css">
	.st0{fill:url(#SVGID_1_);}
	.st1{fill:none;stroke:#000000;stroke-width:2;}
	.st2{clip-path:url(#SVGID_3_);}
	.st3{fill:#202040;}
	.st4{fill:url(#SVGID_4_);}
	.st5{clip-path:url(#SVGID_6_);}
	.st6{fill:url(#SVGID_7_);}
	.st7{clip-path:url(#SVGID_9_);}
	.st8{fill:url(#SVGID_10_);}
	.st9{clip-path:url(#SVGID_12_);}
</style>
<g>
	
		<linearGradient id="SVGID_1_" gradientUnits="userSpaceOnUse" x1="50.4613" y1="126.649" x2="50.4613" y2="26.649" gradientTransform="matrix(0.866 -0.5 -0.5 -0.866 82.9774 192.2112)">
		<stop  offset="0" style="stop-color:#0CCA98"/>
		<stop  offset="1" style="stop-color:#00FFCC"/>
	</linearGradient>
	<path class="st0" d="M46,67.3l34.6-20c9.6-5.5,21.8-2.2,27.3,7.3l30,52c5.5,9.6,2.2,21.8-7.3,27.3l-34.6,20
		c-9.6,5.5-21.8,2.2-27.3-7.3l-30-52C33.2,85.1,36.5,72.8,46,67.3z"/>
	<path class="st1" d="M46.5,68.2l34.6-20c9.1-5.2,20.7-2.1,26,7l30,52c5.2,9.1,2.1,20.7-7,26l-34.6,20c-9.1,5.2-20.7,2.1-26-7
		l-30-52C34.3,85,37.4,73.4,46.5,68.2z"/>
</g>
<g>
	<defs>
		<rect id="SVGID_2_" x="65.7" y="80.1" transform="matrix(0.866 -0.5 0.5 0.866 -39.1348 56.9829)" width="42" height="42.9"/>
	</defs>
	<clipPath id="SVGID_3_">
		<use xlink:href="#SVGID_2_"  style="overflow:visible;"/>
	</clipPath>
	<g class="st2">
		<path class="st3" d="M71.9,102.8l4.7,1c0,0,0.1,0,0.1,0c0,0,0.1-0.1,0.1-0.1c0.4-1,0.9-1.9,1.4-2.7c2.5-3.7,6-5.2,7.3-5.7
			c1.2-0.5,2.5-0.9,3.8-1.1c0,0,0.1,0,0.1-0.1c0,0,0-0.1,0-0.1l0.2-5.1c0,0,0-0.1-0.1-0.1c0,0-0.1-0.1-0.1-0.1l0,0
			c-2,0.2-4,0.7-5.8,1.5c-1.6,0.6-6.6,2.8-10,8.2c-0.8,1.3-1.5,2.7-2,4.2c0,0,0,0,0,0.1c0,0,0,0,0,0.1
			C71.8,102.8,71.8,102.8,71.9,102.8C71.8,102.8,71.8,102.8,71.9,102.8L71.9,102.8z"/>
		<path class="st3" d="M92.7,82.3l-4.2,3.3c0,0-0.1,0.1-0.1,0.1c0,0,0,0.1,0,0.1c0.6,0.8,1.2,1.7,1.7,2.6c0.2,0.4,1.4,2.5,1.9,4.4
			c0.9,3.5-0.4,6.9-1.2,8.4c0,0,0,0.1,0,0.1c0,0,0,0.1,0.1,0.1c1.5,0.8,3.1,1.5,4.6,2.1c0,0,0.1,0,0.1,0c0,0,0.1,0,0.1-0.1
			c1.6-3.4,2.2-7.1,1.8-10.8c-0.6-5.3-3.5-9-4.7-10.4c0,0-0.1-0.1-0.1-0.1C92.8,82.3,92.7,82.3,92.7,82.3z"/>
		<path class="st3" d="M98.3,110.1l-1-5.5c0,0,0,0,0-0.1c0,0,0,0,0-0.1c0,0,0,0-0.1,0c0,0,0,0-0.1,0c-1.9,0.3-3.8,0.3-5.7-0.1
			c-1.4-0.3-2.8-0.8-4.1-1.5c-0.7-0.4-1.6-0.9-2.2-1.6c-0.1-0.1-0.4-0.4-0.9-1c-0.2-0.3-0.5-0.6-0.6-0.8c0,0-0.1-0.1-0.1-0.1
			c0,0-0.1,0-0.1,0l-4.9,2.8c0,0-0.1,0.1-0.1,0.1c0,0,0,0.1,0,0.1c0.3,0.6,0.6,1.1,1,1.6c0.5,0.6,1.1,1.2,1.8,1.7
			c1.8,1.4,3.9,2.5,6,3.4c1.9,0.7,3.8,1.1,5.7,1.2c1.7,0.2,3.4,0.2,5.1,0.1c0,0,0,0,0.1,0c0,0,0,0,0.1,0
			C98.2,110.2,98.3,110.2,98.3,110.1C98.3,110.1,98.3,110.1,98.3,110.1L98.3,110.1z"/>
		<path class="st3" d="M83,107.9l4.5,3c0,0,0.1,0.1,0.1,0.1c0,0,0,0.1,0,0.1c0,0,0,0-0.1,0.1c-1.8,1-3.7,1.6-5.7,2
			c-3.1,0.5-6.2,0.2-9.1-0.8c-2.2-0.9-4.2-2.3-5.7-4.2l0,0c-1.5-1.5-2.7-3.4-3.4-5.5c-0.2-0.6-0.4-1.3-0.5-1.9
			c0-0.2-0.1-0.4-0.1-0.6c0,0,0-0.1,0-0.1c0,0,0-0.1,0-0.1c0,0,0,0,0.1-0.1c0,0,0.1,0,0.1,0c0,0,0.1,0,0.1,0c0,0,0.1,0.1,0.1,0.1
			c0.7,1.4,1.6,2.8,2.6,4.1c0.7,0.8,1.4,1.6,2.2,2.3c0,0,0,0,0,0c1.8,1.3,3.9,2.1,6.1,2.3c1.4,0.2,2.9,0.2,4.3,0.1
			c1.4-0.1,2.8-0.5,4.2-1C82.8,107.9,82.8,107.9,83,107.9C82.9,107.9,82.9,107.9,83,107.9z"/>
		<path class="st3" d="M80.3,90.5L75,93.5c0,0,0,0-0.1,0c0,0,0,0-0.1,0c0,0,0,0-0.1,0c0,0,0,0,0-0.1c0,0,0,0,0-0.1
			c-0.1-0.4-0.1-0.9-0.1-1.3c0-1.8,0.6-3.2,1.2-4.5c0.9-2,2-3.8,3.4-5.4c1.4-1.7,3.2-3.1,5.3-4c1.1-0.6,2.3-1,3.5-1.3
			c0.9-0.2,1.8-0.4,2.7-0.5c0.9-0.1,1.8-0.1,2.8,0c0.6,0,1.3,0.1,1.9,0.2c0.5,0.1,1,0.3,1.6,0.5c0.1,0,0.1,0.1,0.1,0.1
			c0,0.1,0,0.1,0,0.2c0,0.1,0,0.1-0.1,0.1c0,0-0.1,0.1-0.2,0c-0.8-0.1-1.5-0.1-2.3,0c-1.1,0-2.3,0.2-3.4,0.4
			c-1.1,0.3-2.1,0.7-3.1,1.3c-1.1,0.6-2.2,1.4-3.1,2.4c-0.6,0.6-1.1,1.2-1.6,1.9c-0.7,1-1.2,2-1.7,3c-0.3,0.7-0.5,1.3-0.7,1.6
			C80.8,88.9,80.6,89.7,80.3,90.5C80.4,90.4,80.4,90.4,80.3,90.5C80.4,90.5,80.3,90.5,80.3,90.5z"/>
		<path class="st3" d="M98.8,96.6l0.8-5.7c0,0,0-0.1,0.1-0.1c0,0,0.1,0,0.1,0l0,0c0.7,0.2,1.3,0.4,1.9,0.8c1.1,0.7,1.6,1.5,2.4,2.5
			c0.5,0.7,1,1.5,1.4,2.3c0.9,1.4,1.5,3,1.8,4.7c0.4,1.8,0.5,3.6,0.4,5.4c-0.2,2.1-0.7,4.1-1.6,5.9c-0.7,1.5-1.7,2.9-3,4.1
			c-0.4,0.4-0.9,0.8-1.4,1.2l-0.7,0.5c0,0-0.1,0-0.1,0c0,0-0.1,0-0.1-0.1c0,0,0-0.1,0-0.1c0,0,0-0.1,0-0.1c0.4-0.5,0.8-1.1,1.3-1.7
			c0.5-0.7,0.9-1.3,1.2-1.9l0,0c0.7-1.5,1.1-3.1,1.3-4.8l0,0c0.3-1.6,0.1-3.2-0.5-4.7l0,0c-0.2-0.8-0.5-1.5-0.8-2.3
			c-0.4-0.9-0.7-1.6-1.1-2.1c-0.3-0.5-0.6-1-1-1.4c-0.2-0.3-0.5-0.6-0.7-0.8c-0.2-0.2-0.5-0.5-0.8-0.7C99.4,97,99.1,96.8,98.8,96.6z
			"/>
		<path class="st3" d="M87.4,96.3c-0.4,0.1-0.7,0.4-1,0.8c-0.2,0.4-0.4,0.8-0.3,1.2c0,0.4,0.2,0.8,0.4,1.2c0.3,0.3,0.6,0.6,1,0.7
			c0.4,0.1,0.8,0.1,1.2-0.1c0.4-0.2,0.7-0.4,1-0.8c0.2-0.4,0.3-0.8,0.3-1.2c0-0.4-0.2-0.8-0.5-1.2c-0.3-0.3-0.6-0.5-1-0.7
			C88.2,96.1,87.8,96.1,87.4,96.3z"/>
	</g>
</g>
<g>
	
		<linearGradient id="SVGID_4_" gradientUnits="userSpaceOnUse" x1="78.2528" y1="143.7995" x2="78.2528" y2="43.7995" gradientTransform="matrix(0.9659 -0.2588 -0.2588 -0.9659 46.9813 212.8049)">
		<stop  offset="0" style="stop-color:#0CCA98"/>
		<stop  offset="1" style="stop-color:#00FFCC"/>
	</linearGradient>
	<path class="st4" d="M66,58.8l38.6-10.4c10.7-2.9,21.6,3.5,24.5,14.1l15.5,58c2.9,10.7-3.5,21.6-14.1,24.5l-38.6,10.4
		c-10.7,2.9-21.6-3.5-24.5-14.1l-15.5-58C49,72.7,55.4,61.7,66,58.8z"/>
	<path class="st1" d="M66.3,59.8l38.6-10.4c10.1-2.7,20.6,3.3,23.3,13.4l15.5,58c2.7,10.1-3.3,20.6-13.4,23.3l-38.6,10.4
		c-10.1,2.7-20.6-3.3-23.3-13.4l-15.5-58C50.1,72.9,56.2,62.5,66.3,59.8z"/>
</g>
<g>
	<defs>
		
			<rect id="SVGID_5_" x="75.5" y="81" transform="matrix(0.9659 -0.2588 0.2588 0.9659 -23.2203 28.4707)" width="42" height="42.9"/>
	</defs>
	<clipPath id="SVGID_6_">
		<use xlink:href="#SVGID_5_"  style="overflow:visible;"/>
	</clipPath>
	<g class="st5">
		<path class="st3" d="M81.8,99.9l4.3,2.2c0,0,0.1,0,0.1,0c0,0,0.1,0,0.1-0.1c0.6-0.8,1.3-1.6,2.1-2.3c3.3-2.9,7.1-3.5,8.5-3.7
			c1.3-0.2,2.7-0.2,4-0.1c0,0,0.1,0,0.1,0c0,0,0.1-0.1,0.1-0.1l1.5-4.9c0,0,0-0.1,0-0.1c0,0-0.1-0.1-0.1-0.1l0,0c-2-0.3-4-0.3-6-0.1
			c-1.7,0.2-7.1,1-11.7,5.3c-1.1,1.1-2.1,2.2-3,3.5c0,0,0,0,0,0.1c0,0,0,0,0,0.1C81.7,99.8,81.7,99.8,81.8,99.9
			C81.8,99.8,81.8,99.8,81.8,99.9L81.8,99.9z"/>
		<path class="st3" d="M107.2,85.4l-4.9,2.1c0,0-0.1,0.1-0.1,0.1c0,0,0,0.1,0,0.1c0.4,0.9,0.7,1.9,1,2.9c0.1,0.4,0.7,2.7,0.7,4.8
			c-0.1,3.6-2.2,6.5-3.3,7.9c0,0,0,0.1,0,0.1c0,0,0,0.1,0.1,0.1c1.2,1.2,2.6,2.2,3.9,3.2c0,0,0.1,0,0.1,0c0,0,0.1,0,0.1-0.1
			c2.4-2.8,4-6.3,4.5-10c0.8-5.3-1-9.6-1.8-11.3c0,0-0.1-0.1-0.1-0.1C107.3,85.4,107.3,85.4,107.2,85.4z"/>
		<path class="st3" d="M105.4,113.7l0.5-5.6c0,0,0,0,0-0.1c0,0,0,0,0-0.1c0,0,0,0-0.1,0c0,0,0,0-0.1,0c-1.9-0.2-3.7-0.7-5.4-1.6
			c-1.3-0.6-2.5-1.5-3.6-2.5c-0.6-0.6-1.3-1.2-1.7-2.2c-0.1-0.2-0.3-0.5-0.6-1.2c-0.1-0.3-0.3-0.7-0.4-0.9c0,0,0-0.1-0.1-0.1
			c0,0-0.1,0-0.1,0l-5.4,1.4c0,0-0.1,0-0.1,0.1c0,0,0,0.1,0,0.1c0.1,0.6,0.3,1.2,0.6,1.8c0.3,0.7,0.8,1.4,1.3,2.1
			c1.4,1.8,3.1,3.4,4.9,4.8c1.6,1.1,3.4,2,5.2,2.7c1.6,0.6,3.2,1.1,4.9,1.4c0,0,0,0,0.1,0c0,0,0,0,0.1,0
			C105.4,113.8,105.4,113.8,105.4,113.7C105.4,113.7,105.4,113.7,105.4,113.7L105.4,113.7z"/>
		<path class="st3" d="M91.2,107.6l3.6,4c0,0,0,0.1,0,0.1c0,0,0,0.1-0.1,0.1c0,0,0,0-0.1,0c-2,0.5-4,0.6-6.1,0.4
			c-3.1-0.3-6-1.4-8.6-3.1c-1.9-1.4-3.5-3.3-4.5-5.5l0,0c-1.1-1.9-1.7-4-1.9-6.1c0-0.7,0-1.3,0-2c0-0.2,0.1-0.4,0.1-0.6
			c0,0,0-0.1,0-0.1c0,0,0,0,0.1-0.1s0.1,0,0.1,0c0,0,0.1,0,0.1,0c0,0,0.1,0,0.1,0.1c0,0,0.1,0.1,0.1,0.1c0.3,1.6,0.8,3.1,1.5,4.6
			c0.4,1,0.9,1.9,1.5,2.8c0,0,0,0,0,0c1.4,1.7,3.3,3,5.3,3.8c1.3,0.6,2.7,1,4.2,1.2c1.4,0.2,2.8,0.3,4.3,0.2
			C91,107.5,91.1,107.5,91.2,107.6C91.1,107.6,91.2,107.6,91.2,107.6z"/>
		<path class="st3" d="M93.2,90.1l-5.9,1.6c0,0,0,0-0.1,0c0,0,0,0-0.1,0c0,0,0,0-0.1,0s0,0,0-0.1c0,0,0,0,0-0.1
			c0.1-0.4,0.1-0.9,0.3-1.3c0.5-1.7,1.4-2.9,2.3-4.1c1.3-1.7,2.9-3.1,4.7-4.3c1.8-1.3,3.9-2.1,6.1-2.5c1.2-0.3,2.5-0.4,3.7-0.4
			c0.9,0,1.8,0.1,2.7,0.3c0.9,0.2,1.8,0.4,2.7,0.7c0.6,0.2,1.2,0.4,1.8,0.7c0.5,0.2,0.9,0.5,1.4,0.9c0,0,0.1,0.1,0.1,0.1
			c0,0.1,0,0.1,0,0.2c0,0.1-0.1,0.1-0.1,0.1c-0.1,0-0.1,0-0.2,0c-0.7-0.2-1.4-0.5-2.2-0.6c-1.1-0.3-2.2-0.4-3.4-0.5
			c-1.1,0-2.2,0.2-3.3,0.5c-1.3,0.3-2.5,0.8-3.6,1.5c-0.7,0.4-1.4,0.9-2,1.5c-0.9,0.8-1.7,1.6-2.4,2.5c-0.5,0.6-0.8,1.1-1.1,1.4
			C94,88.7,93.6,89.4,93.2,90.1C93.2,90,93.2,90.1,93.2,90.1C93.2,90.1,93.2,90.1,93.2,90.1z"/>
		<path class="st3" d="M109.5,100.8l2.2-5.3c0,0,0.1-0.1,0.1-0.1s0.1,0,0.1,0l0,0c0.6,0.3,1.1,0.7,1.6,1.2c0.8,0.9,1.2,1.8,1.7,3
			c0.3,0.8,0.6,1.7,0.8,2.5c0.5,1.6,0.6,3.3,0.5,5c-0.1,1.8-0.4,3.6-1,5.3c-0.7,2-1.7,3.7-3.1,5.3c-1.1,1.3-2.4,2.4-3.9,3.2
			c-0.5,0.3-1.1,0.5-1.6,0.8l-0.8,0.3c0,0-0.1,0-0.1,0s-0.1,0-0.1-0.1s0-0.1,0-0.1c0,0,0-0.1,0.1-0.1c0.5-0.4,1.1-0.8,1.6-1.3
			c0.6-0.5,1.2-1,1.6-1.5l0,0c1.1-1.3,1.9-2.8,2.5-4.3l0,0c0.7-1.4,0.9-3,0.8-4.6l0,0c0-0.8-0.1-1.6-0.2-2.4
			c-0.2-0.9-0.3-1.7-0.5-2.4c-0.1-0.5-0.3-1.1-0.6-1.6c-0.1-0.3-0.3-0.7-0.5-1c-0.2-0.3-0.4-0.6-0.6-0.9
			C109.9,101.4,109.7,101.1,109.5,100.8z"/>
		<path class="st3" d="M98.5,97.5c-0.4,0-0.8,0.2-1.1,0.5c-0.3,0.3-0.5,0.7-0.6,1.1c-0.1,0.4,0,0.8,0.1,1.2c0.2,0.4,0.5,0.7,0.8,0.9
			c0.4,0.2,0.8,0.3,1.2,0.3c0.4,0,0.8-0.2,1.1-0.5c0.3-0.3,0.5-0.7,0.6-1.1c0.1-0.4,0-0.8-0.1-1.2c-0.2-0.4-0.5-0.7-0.8-0.9
			S98.9,97.5,98.5,97.5z"/>
	</g>
</g>
<g>
	
		<linearGradient id="SVGID_7_" gradientUnits="userSpaceOnUse" x1="106.7126" y1="156.7638" x2="106.7126" y2="56.7638" gradientTransform="matrix(1 0 0 -1 0 214.063)">
		<stop  offset="0" style="stop-color:#0CCA98"/>
		<stop  offset="1" style="stop-color:#00FFCC"/>
	</linearGradient>
	<path class="st6" d="M86.7,57.3h40c11,0,20,9,20,20v60c0,11-9,20-20,20h-40c-11,0-20-9-20-20v-60C66.7,66.3,75.7,57.3,86.7,57.3z"
		/>
	<path class="st1" d="M86.7,58.3h40c10.5,0,19,8.5,19,19v60c0,10.5-8.5,19-19,19h-40c-10.5,0-19-8.5-19-19v-60
		C67.7,66.8,76.2,58.3,86.7,58.3z"/>
</g>
<g>
	<defs>
		<rect id="SVGID_8_" x="83.9" y="85.9" width="42" height="42.9"/>
	</defs>
	<clipPath id="SVGID_9_">
		<use xlink:href="#SVGID_8_"  style="overflow:visible;"/>
	</clipPath>
	<g class="st7">
		<path class="st3" d="M91.3,101l3.6,3.2c0,0,0.1,0,0.1,0s0.1,0,0.1,0c0.8-0.6,1.7-1.2,2.6-1.6c4-1.9,7.8-1.5,9.2-1.3
			c1.3,0.2,2.6,0.5,3.9,1c0,0,0.1,0,0.1,0c0,0,0.1,0,0.1-0.1l2.7-4.3c0,0,0-0.1,0-0.1s0-0.1-0.1-0.1l0,0c-1.9-0.8-3.8-1.3-5.8-1.6
			c-1.7-0.2-7.1-0.9-12.7,2.1c-1.4,0.7-2.6,1.6-3.8,2.7c0,0,0,0,0,0.1c0,0,0,0,0,0.1C91.3,100.9,91.3,100.9,91.3,101
			C91.3,101,91.3,101,91.3,101L91.3,101z"/>
		<path class="st3" d="M119.6,93.6l-5.3,0.8c0,0-0.1,0-0.1,0.1c0,0,0,0.1,0,0.1c0.1,1,0.2,2.1,0.2,3.1c0,0.4,0,2.8-0.6,4.8
			c-1,3.5-3.8,5.7-5.2,6.7c0,0-0.1,0.1-0.1,0.1c0,0,0,0.1,0,0.1c0.9,1.4,1.9,2.8,3,4.1c0,0,0.1,0.1,0.1,0.1c0,0,0.1,0,0.1,0
			c3.1-2.1,5.5-5.1,7-8.5c2.1-4.9,1.5-9.5,1.1-11.4c0,0,0-0.1-0.1-0.1C119.7,93.6,119.7,93.6,119.6,93.6z"/>
		<path class="st3" d="M110.6,120.5l1.9-5.3c0,0,0,0,0-0.1c0,0,0,0,0-0.1c0,0,0,0,0-0.1s0,0-0.1,0c-1.8-0.7-3.4-1.7-4.8-2.9
			c-1.1-1-2.1-2.1-2.8-3.3c-0.4-0.7-0.9-1.5-1.1-2.5c0-0.2-0.1-0.5-0.3-1.3c-0.1-0.3-0.1-0.8-0.1-1c0,0,0-0.1-0.1-0.1
			c0,0-0.1,0-0.1-0.1l-5.6,0c0,0-0.1,0-0.1,0.1c0,0-0.1,0.1-0.1,0.1c0,0.6,0,1.3,0.1,1.9c0.1,0.8,0.4,1.6,0.7,2.3
			c0.9,2.1,2.1,4.1,3.5,5.9c1.3,1.5,2.7,2.8,4.3,3.9c1.4,1,2.8,1.9,4.4,2.7c0,0,0,0,0.1,0c0,0,0,0,0.1,0
			C110.5,120.6,110.5,120.5,110.6,120.5C110.5,120.5,110.5,120.5,110.6,120.5L110.6,120.5z"/>
		<path class="st3" d="M98.4,110.9l2.4,4.8c0,0,0,0.1,0,0.1c0,0,0,0.1-0.1,0.1c0,0-0.1,0-0.1,0c-2-0.1-4-0.5-6-1.2
			c-2.9-1.1-5.5-2.9-7.5-5.2c-1.5-1.9-2.5-4.1-2.9-6.5v0c-0.5-2.1-0.6-4.3-0.2-6.4c0.1-0.6,0.3-1.3,0.5-1.9c0.1-0.2,0.2-0.4,0.2-0.6
			c0,0,0-0.1,0.1-0.1c0,0,0,0,0.1,0c0,0,0.1,0,0.1,0c0,0,0.1,0,0.1,0c0,0,0.1,0.1,0.1,0.1c0,0,0,0.1,0,0.1c-0.1,1.6,0,3.2,0.2,4.8
			c0.2,1,0.4,2.1,0.7,3.1c0,0,0,0,0,0c0.9,2,2.4,3.8,4.2,5.1c1.1,0.9,2.4,1.7,3.7,2.3c1.3,0.6,2.7,1,4.1,1.3
			C98.3,110.8,98.3,110.8,98.4,110.9C98.3,110.9,98.4,110.9,98.4,110.9z"/>
		<path class="st3" d="M104.8,94.5h-6.1c0,0,0,0-0.1,0c0,0,0,0-0.1,0c0,0,0,0,0-0.1c0,0,0,0,0-0.1c0,0,0,0,0-0.1
			c0.2-0.4,0.4-0.8,0.6-1.2c0.9-1.5,2.1-2.4,3.3-3.3c1.7-1.3,3.6-2.3,5.6-3c2.1-0.8,4.3-1,6.5-0.8c1.2,0.1,2.5,0.3,3.7,0.6
			c0.9,0.2,1.7,0.6,2.6,1c0.8,0.4,1.6,0.9,2.4,1.4c0.5,0.3,1,0.7,1.5,1.2c0.4,0.4,0.8,0.8,1.1,1.2c0,0,0.1,0.1,0.1,0.2
			c0,0.1,0,0.1-0.1,0.2c0,0-0.1,0.1-0.2,0.1c-0.1,0-0.1,0-0.2,0c-0.6-0.4-1.3-0.8-1.9-1.2c-1-0.6-2.1-1-3.2-1.3
			c-1.1-0.3-2.2-0.4-3.3-0.4c-1.3,0-2.6,0.2-3.8,0.5c-0.8,0.2-1.6,0.5-2.3,0.9c-1,0.5-2,1.1-3,1.7c-0.6,0.4-1.1,0.8-1.4,1.1
			C106,93.4,105.4,93.9,104.8,94.5C104.9,94.5,104.9,94.5,104.8,94.5C104.9,94.5,104.8,94.5,104.8,94.5z"/>
		<path class="st3" d="M117.8,109.1l3.5-4.6c0,0,0.1-0.1,0.1-0.1c0,0,0.1,0,0.1,0l0,0c0.5,0.5,0.9,1,1.2,1.6
			c0.6,1.1,0.7,2.1,0.8,3.4c0.1,0.9,0.1,1.8,0.1,2.7c0,1.7-0.2,3.4-0.8,4.9c-0.6,1.7-1.3,3.4-2.3,4.9c-1.2,1.7-2.6,3.2-4.4,4.3
			c-1.4,1-2.9,1.7-4.6,2c-0.6,0.1-1.2,0.3-1.7,0.3l-0.8,0.1c0,0-0.1,0-0.1,0c0,0-0.1-0.1-0.1-0.1c0,0,0-0.1,0-0.1
			c0,0,0.1-0.1,0.1-0.1c0.6-0.2,1.3-0.5,1.9-0.8c0.7-0.3,1.4-0.7,2-1.1l0,0c1.4-1,2.5-2.2,3.5-3.5v0c1-1.2,1.7-2.7,1.9-4.3v0
			c0.2-0.8,0.3-1.6,0.4-2.4c0.1-0.9,0.2-1.7,0.1-2.4c0-0.6-0.1-1.1-0.1-1.7c0-0.4-0.1-0.7-0.2-1.1c-0.1-0.3-0.2-0.6-0.3-1
			C118,109.7,117.9,109.4,117.8,109.1z"/>
		<path class="st3" d="M108.1,103.1c-0.4-0.1-0.8,0-1.2,0.2c-0.4,0.2-0.7,0.5-0.9,0.9c-0.2,0.4-0.3,0.8-0.2,1.2
			c0.1,0.4,0.3,0.8,0.6,1.1c0.3,0.3,0.7,0.5,1.1,0.6c0.4,0.1,0.9,0,1.2-0.2c0.4-0.2,0.7-0.5,0.9-0.9c0.2-0.4,0.3-0.8,0.2-1.2
			c-0.1-0.4-0.3-0.8-0.6-1.1C108.9,103.3,108.5,103.1,108.1,103.1z"/>
	</g>
</g>
<g>
	
		<linearGradient id="SVGID_10_" gradientUnits="userSpaceOnUse" x1="136.1463" y1="166.9989" x2="136.1463" y2="66.9989" gradientTransform="matrix(0.9659 0.2588 0.2588 -0.9659 -46.4981 191.7232)">
		<stop  offset="0" style="stop-color:#0CCA98"/>
		<stop  offset="1" style="stop-color:#00FFCC"/>
	</linearGradient>
	<path class="st8" d="M108.9,60.5l38.6,10.4c10.7,2.9,17,13.8,14.1,24.5l-15.5,58c-2.9,10.7-13.8,17-24.5,14.1L83,157.1
		c-10.7-2.9-17-13.8-14.1-24.5l15.5-58C87.3,63.9,98.2,57.6,108.9,60.5z"/>
	<path class="st1" d="M108.7,61.4l38.6,10.4c10.1,2.7,16.2,13.1,13.4,23.3l-15.5,58c-2.7,10.1-13.1,16.2-23.3,13.4l-38.6-10.4
		c-10.1-2.7-16.2-13.1-13.4-23.3l15.5-58C88.1,64.7,98.5,58.7,108.7,61.4z"/>
</g>
<g>
	<defs>
		
			<rect id="SVGID_11_" x="92.1" y="92.5" transform="matrix(0.2588 -0.9659 0.9659 0.2588 -25.4693 193.7543)" width="42.9" height="42"/>
	</defs>
	<clipPath id="SVGID_12_">
		<use xlink:href="#SVGID_11_"  style="overflow:visible;"/>
	</clipPath>
	<g class="st9">
		<path class="st3" d="M102.1,103.9l2.6,4.1c0,0,0.1,0.1,0.1,0.1c0,0,0.1,0,0.1,0c0.9-0.4,1.9-0.7,2.9-0.9c4.3-0.9,7.9,0.6,9.2,1.1
			c1.2,0.5,2.4,1.2,3.5,1.9c0,0,0.1,0,0.1,0c0,0,0.1,0,0.1,0l3.7-3.5c0,0,0.1-0.1,0.1-0.1c0,0,0-0.1-0.1-0.1l0,0
			c-1.6-1.3-3.3-2.3-5.2-3.1c-1.5-0.6-6.6-2.7-12.8-1.3c-1.5,0.4-3,0.9-4.4,1.6c0,0,0,0-0.1,0c0,0,0,0,0,0.1
			C102,103.8,102,103.8,102.1,103.9C102,103.8,102,103.9,102.1,103.9L102.1,103.9z"/>
		<path class="st3" d="M131.3,104.1l-5.3-0.6c0,0-0.1,0-0.1,0c0,0-0.1,0.1-0.1,0.1c-0.1,1-0.3,2-0.6,3c-0.1,0.4-0.7,2.7-1.8,4.5
			c-1.9,3.1-5.2,4.6-6.8,5.1c0,0-0.1,0-0.1,0.1c0,0,0,0.1,0,0.1c0.5,1.6,1.1,3.2,1.8,4.8c0,0,0.1,0.1,0.1,0.1c0,0,0.1,0,0.1,0
			c3.5-1.3,6.6-3.5,8.9-6.4c3.3-4.2,3.9-8.8,4-10.7c0,0,0-0.1,0-0.1C131.4,104.1,131.3,104.1,131.3,104.1z"/>
		<path class="st3" d="M115.6,127.7l3.2-4.6c0,0,0,0,0-0.1c0,0,0,0,0-0.1c0,0,0,0,0-0.1c0,0,0,0,0-0.1c-1.5-1.1-2.9-2.5-3.9-4.1
			c-0.8-1.2-1.5-2.5-1.9-3.9c-0.2-0.8-0.5-1.7-0.4-2.7c0-0.2,0-0.6,0.1-1.4c0-0.3,0.1-0.8,0.2-1c0,0,0-0.1,0-0.1
			c0,0-0.1-0.1-0.1-0.1l-5.4-1.5c0,0-0.1,0-0.1,0c0,0-0.1,0.1-0.1,0.1c-0.2,0.6-0.3,1.2-0.4,1.8c-0.1,0.8-0.1,1.6,0.1,2.4
			c0.3,2.3,1,4.5,1.9,6.6c0.8,1.8,1.9,3.4,3.2,4.9c1.1,1.3,2.3,2.6,3.5,3.7c0,0,0,0,0.1,0c0,0,0,0,0.1,0
			C115.5,127.7,115.5,127.7,115.6,127.7C115.6,127.7,115.6,127.7,115.6,127.7L115.6,127.7z"/>
		<path class="st3" d="M106.3,115.3l1.1,5.3c0,0,0,0.1,0,0.1s-0.1,0.1-0.1,0.1c0,0-0.1,0-0.1,0c-2-0.6-3.8-1.5-5.4-2.7
			c-2.5-1.8-4.5-4.2-5.9-7c-0.9-2.2-1.3-4.6-1.1-7l0,0c0-2.2,0.5-4.3,1.5-6.2c0.3-0.6,0.6-1.2,1-1.7c0.1-0.2,0.3-0.3,0.4-0.5
			c0,0,0,0,0.1-0.1c0,0,0.1,0,0.1,0c0,0,0.1,0,0.1,0c0,0,0.1,0,0.1,0c0,0,0.1,0.1,0.1,0.1c0,0,0,0.1,0,0.1c-0.5,1.5-0.9,3.1-1,4.7
			c-0.1,1.1-0.1,2.1-0.1,3.2c0,0,0,0,0,0c0.4,2.2,1.3,4.2,2.7,6c0.9,1.2,1.9,2.2,3,3.1c1.1,0.9,2.3,1.7,3.6,2.3
			C106.2,115.2,106.2,115.2,106.3,115.3C106.3,115.2,106.3,115.3,106.3,115.3z"/>
		<path class="st3" d="M116.8,101.1l-5.9-1.6c0,0,0,0-0.1,0c0,0,0,0,0-0.1c0,0,0,0,0-0.1c0,0,0,0,0-0.1c0,0,0,0,0-0.1
			c0.3-0.4,0.6-0.7,0.9-1c1.3-1.3,2.6-1.8,4-2.4c2-0.8,4.1-1.2,6.2-1.4c2.2-0.2,4.4,0.1,6.5,0.9c1.2,0.4,2.3,0.9,3.4,1.5
			c0.8,0.5,1.5,1,2.2,1.6c0.7,0.6,1.3,1.3,1.9,2c0.4,0.5,0.8,1,1.2,1.5c0.3,0.5,0.5,0.9,0.8,1.4c0,0.1,0,0.1,0,0.2
			c0,0.1-0.1,0.1-0.1,0.1c0,0-0.1,0-0.2,0c-0.1,0-0.1,0-0.1-0.1c-0.5-0.6-1-1.1-1.6-1.6c-0.8-0.8-1.7-1.5-2.7-2.1
			c-1-0.6-2-1-3.1-1.2c-1.3-0.3-2.5-0.5-3.8-0.5c-0.8,0-1.6,0.1-2.5,0.3c-1.1,0.2-2.3,0.5-3.3,0.9c-0.7,0.3-1.3,0.5-1.6,0.7
			C118.2,100.4,117.5,100.7,116.8,101.1C116.9,101.1,116.8,101.1,116.8,101.1C116.8,101.1,116.8,101.1,116.8,101.1z"/>
		<path class="st3" d="M125.5,118.5l4.6-3.5c0,0,0.1,0,0.1,0c0,0,0.1,0,0.1,0.1l0,0c0.4,0.6,0.6,1.2,0.8,1.9
			c0.3,1.2,0.1,2.2-0.1,3.5c-0.1,0.9-0.3,1.7-0.6,2.6c-0.4,1.6-1.1,3.2-2.1,4.6c-1,1.5-2.2,2.9-3.5,4.1c-1.6,1.4-3.4,2.4-5.3,3
			c-1.6,0.6-3.3,0.9-5,0.8c-0.6,0-1.2-0.1-1.8-0.1l-0.8-0.1c0,0-0.1,0-0.1-0.1c0,0,0-0.1,0-0.1c0,0,0-0.1,0-0.1c0,0,0.1-0.1,0.1-0.1
			c0.6-0.1,1.3-0.2,2.1-0.3c0.8-0.1,1.5-0.3,2.2-0.5l0,0c1.6-0.6,3-1.4,4.3-2.5l0,0c1.3-0.9,2.3-2.2,3-3.6l0,0
			c0.4-0.7,0.7-1.4,1-2.2c0.3-0.9,0.6-1.6,0.7-2.3c0.1-0.5,0.2-1.1,0.3-1.7c0.1-0.4,0.1-0.7,0.1-1.1c0-0.3,0-0.7,0-1
			C125.6,119.2,125.6,118.9,125.5,118.5z"/>
		<path class="st3" d="M117.7,110.2c-0.4-0.2-0.8-0.2-1.2-0.1c-0.4,0.1-0.8,0.3-1.1,0.6c-0.3,0.3-0.5,0.7-0.5,1.1
			c0,0.4,0,0.8,0.3,1.2c0.2,0.4,0.5,0.7,0.9,0.8c0.4,0.2,0.8,0.2,1.2,0.1c0.4-0.1,0.8-0.3,1.1-0.6c0.3-0.3,0.5-0.7,0.5-1.1
			c0-0.4-0.1-0.8-0.3-1.2C118.4,110.7,118.1,110.4,117.7,110.2z"/>
	</g>
</g>
</svg>
