<svg height="512" viewBox="0 0 512 512" width="512" xmlns="http://www.w3.org/2000/svg"><g id="BULINE"><circle cx="256" cy="256" fill="#f7bb38" r="256"/></g><g id="Icons"><path d="m492.29 354.64a256.68 256.68 0 0 0 0-197.28l-168.65 98.64z" fill="#27273d"/><path d="m54.22 413.56a256 256 0 0 0 403.56 0l-201.78-118z" fill="#03914d"/><path d="m457.78 98.44a256 256 0 0 0 -403.56 0l201.78 118.01z" fill="#03914d"/><path d="m19.71 157.36a256.68 256.68 0 0 0 0 197.28l168.65-98.64z" fill="#27273d"/><path d="m323.64 256 168.65-98.64a255.82 255.82 0 0 0 -34.51-58.92l-201.78 118.01-201.78-118.01a255.82 255.82 0 0 0 -34.51 58.92l168.65 98.64-168.65 98.64a255.82 255.82 0 0 0 34.51 58.92l201.78-118 201.78 118a255.82 255.82 0 0 0 34.51-58.92z" fill="#f6c752"/><path d="m294 509.19a256.33 256.33 0 0 1 -239.78-95.63l54.67-32a256.35 256.35 0 0 0 185.11 127.63z" fill="#037f41"/><path d="m294 2.81a256.35 256.35 0 0 0 -185.11 127.6l-54.67-32a256.33 256.33 0 0 1 239.78-95.6z" fill="#037f41"/><path d="m76 256a256 256 0 0 0 7.42 61.38l-63.71 37.26a256.68 256.68 0 0 1 0-197.28l63.71 37.26a256 256 0 0 0 -7.42 61.38z" fill="#1d1d2d"/><path d="m95.71 354.64a253.5 253.5 0 0 0 13.18 26.95l-54.67 32a255.82 255.82 0 0 1 -34.51-58.92l63.71-37.26a252.81 252.81 0 0 0 12.29 37.23z" fill="#e2b247"/><path d="m83.42 194.62-63.71-37.26a255.82 255.82 0 0 1 34.51-58.92l54.67 32a254.29 254.29 0 0 0 -25.47 64.21z" fill="#e2b247"/><g fill="#00b564"><circle cx="401.54" cy="88.45" r="16.28"/><circle cx="377.56" cy="64.47" r="11.53"/></g></g></svg>