<svg width="140" height="160" viewBox="0 0 140 160" fill="none" xmlns="http://www.w3.org/2000/svg">
<path d="M74.1355 28.2416H65.234C62.4943 28.2416 60.2732 26.0206 60.2732 23.2809V10.9177C60.2732 10.2831 59.7808 9.74191 59.1466 9.71789C58.48 9.69263 57.9296 10.2277 57.9296 10.8888V13.8448C57.9296 14.4802 57.4355 15.0214 56.8005 15.0439C56.1338 15.0676 55.5859 14.5343 55.5859 13.8729V10.9422C55.5859 9.01303 57.1179 7.40324 59.0468 7.37377C61.0101 7.34383 62.6169 8.93224 62.6169 10.8888V23.2809C62.6169 24.7263 63.7886 25.898 65.234 25.898H68.0111L74.1355 28.2416Z" fill="#C68A65"/>
<path d="M82.6747 5.03953C83.5808 5.03953 84.3153 4.30503 84.3153 3.39898C84.3153 2.49292 83.5808 1.75842 82.6747 1.75842C81.7687 1.75842 81.0342 2.49292 81.0342 3.39898C81.0342 4.30503 81.7687 5.03953 82.6747 5.03953Z" fill="#FF9EB1"/>
<path d="M83.2538 14.3467C82.4564 12.3304 81.4648 11.0361 81.065 10.562L81.0648 10.562C81.9654 9.60689 82.4775 8.3405 82.4775 6.9847C82.4775 4.10289 80.133 1.75836 77.2512 1.75836H73.2292C70.3474 1.75836 68.0028 4.10289 68.0028 6.9847C68.0028 8.36054 68.5519 9.66929 69.4909 10.6342C66.7157 12.5443 65.0581 15.6976 65.0581 19.0666C65.0581 24.1338 69.1659 28.2416 74.233 28.2416H79.0028L81.5947 23.4415C81.4802 24.114 81.9025 24.761 82.5663 24.9185C83.2918 25.0907 84.0103 24.6126 84.1351 23.8775C84.845 19.6973 84.0764 16.4264 83.2538 14.3467Z" fill="#C68A65"/>
<path d="M79.8995 6.98475C79.8995 5.52208 78.7137 4.33643 77.2511 4.33643H73.2291C71.7665 4.33643 70.5808 5.52214 70.5808 6.98475C70.5808 7.9617 71.1102 8.81449 71.8974 9.27356C71.934 11.1048 73.4289 12.5783 75.2689 12.5783C77.1206 12.5783 78.6231 11.0862 78.6413 9.23887C79.3962 8.77225 79.8995 7.93744 79.8995 6.98475Z" fill="#FFE6B4"/>
<path d="M67.8635 5.03953C68.7695 5.03953 69.504 4.30503 69.504 3.39898C69.504 2.49292 68.7695 1.75842 67.8635 1.75842C66.9574 1.75842 66.2229 2.49292 66.2229 3.39898C66.2229 4.30503 66.9574 5.03953 67.8635 5.03953Z" fill="#FF9EB1"/>
<path d="M80.3919 24.2061C79.6133 23.4275 79.2567 22.3869 79.3216 21.3681C79.3512 20.9041 78.8063 20.6289 78.4603 20.9397C77.7104 21.6133 77.2385 22.5902 77.2385 23.6778C77.2385 25.7033 78.8947 27.3595 80.9202 27.3595C82.0078 27.3595 82.9847 26.8877 83.6584 26.1377C83.9691 25.7918 83.6939 25.2468 83.2299 25.2764C82.2111 25.3414 81.1706 24.9848 80.3919 24.2061Z" fill="#FFCD69"/>
<path d="M69.9409 14.0232C69.9409 15.1452 70.859 16.0872 71.9808 16.0681C73.0706 16.0496 73.9514 15.1573 73.9514 14.0632V13.1447C73.9514 12.4328 74.5285 11.8557 75.2404 11.8557C75.9523 11.8557 76.5294 12.4328 76.5294 13.1447V14.0632C76.5294 16.6055 74.4488 18.6709 71.9009 18.6462" fill="#C68A65"/>
<path d="M73.4211 6.78723C73.2665 6.78723 73.1159 6.84993 73.0069 6.95891C72.898 7.0679 72.8352 7.21907 72.8352 7.37317C72.8352 7.52786 72.8979 7.67844 73.0069 7.78743C73.1159 7.897 73.2665 7.95911 73.4211 7.95911C73.5752 7.95911 73.7264 7.897 73.8354 7.78743C73.9443 7.67844 74.0071 7.52727 74.0071 7.37317C74.0071 7.21907 73.9444 7.06848 73.8354 6.95891C73.7264 6.84999 73.5752 6.78723 73.4211 6.78723Z" fill="black"/>
<path d="M77.0596 7.95911C77.2137 7.95911 77.3648 7.897 77.4738 7.78743C77.5828 7.67844 77.6455 7.52727 77.6455 7.37317C77.6455 7.21907 77.5829 7.06848 77.4738 6.95891C77.3648 6.84993 77.2137 6.78723 77.0596 6.78723C76.9055 6.78723 76.7543 6.84993 76.6454 6.95891C76.5364 7.0679 76.4736 7.21907 76.4736 7.37317C76.4736 7.52786 76.5363 7.67844 76.6454 7.78743C76.7543 7.89706 76.9055 7.95911 77.0596 7.95911Z" fill="black"/>
<path d="M84.7128 23.9757C85.4526 19.6197 84.624 16.218 83.7986 14.1313C83.1325 12.447 82.3296 11.2399 81.8256 10.5764C82.6271 9.55977 83.0634 8.30257 83.0634 6.98486C83.0634 6.51279 83.0065 6.0539 82.8997 5.61417C84.0221 5.50092 84.901 4.55074 84.901 3.39907C84.901 2.17141 83.9022 1.17261 82.6746 1.17261C81.8421 1.17261 81.1077 1.64134 80.7261 2.32844C79.7561 1.60278 78.553 1.17261 77.2513 1.17261H73.2293C71.9467 1.17261 70.76 1.59048 69.7976 2.29686C69.4129 1.62353 68.6879 1.17261 67.8634 1.17261C66.6357 1.17261 65.6369 2.17141 65.6369 3.39907C65.6369 4.53153 66.487 5.46852 67.5823 5.60714C67.4745 6.04898 67.4169 6.51027 67.4169 6.98486C67.4169 8.26133 67.8542 9.5235 68.6332 10.5371C66.0163 12.5804 64.4722 15.7223 64.4722 19.0668C64.4722 21.4403 65.3242 23.6184 66.7379 25.3122H65.2339C64.1139 25.3122 63.2027 24.401 63.2027 23.281V19.5311C63.2027 19.2075 62.9404 18.9452 62.6168 18.9452C62.2932 18.9452 62.0309 19.2075 62.0309 19.5311V23.281C62.0309 25.0472 63.4677 26.484 65.2339 26.484H67.8955C68.4187 26.9318 68.9895 27.3254 69.5994 27.6558H65.2339C62.8216 27.6558 60.8591 25.6933 60.8591 23.281V10.9177C60.8591 9.9525 60.1166 9.16832 59.1687 9.13246C58.687 9.11354 58.2301 9.28843 57.8827 9.62299C57.5351 9.95772 57.3436 10.4073 57.3436 10.8889V13.8449C57.3436 14.1722 57.0907 14.4474 56.7797 14.4585C56.6179 14.464 56.4664 14.406 56.3509 14.2946C56.2354 14.1832 56.1718 14.0334 56.1718 13.873V10.9423C56.1718 9.32195 57.4655 7.98395 59.0557 7.95976C59.8453 7.94569 60.5915 8.24703 61.1557 8.80265C61.7201 9.35851 62.0309 10.0995 62.0309 10.8889V14.2579C62.0309 14.5815 62.2933 14.8438 62.6169 14.8438C62.9405 14.8438 63.2028 14.5815 63.2028 14.2579V10.8889C63.2028 9.78306 62.7678 8.74558 61.9779 7.96772C61.1883 7.1901 60.1443 6.77229 59.0378 6.78799C56.8114 6.82197 55 8.68559 55 10.9423V13.873C55 14.3543 55.1908 14.8035 55.5372 15.1378C55.8835 15.4721 56.3393 15.6468 56.8212 15.6296C57.7712 15.5958 58.5155 14.8119 58.5155 13.8449V10.8889C58.5155 10.7287 58.5794 10.5789 58.6955 10.4671C58.8114 10.3555 58.9642 10.2977 59.1244 10.3034C59.4348 10.3152 59.6873 10.5907 59.6873 10.9177V23.2809C59.6873 26.3394 62.1755 28.8276 65.234 28.8276H79.176C79.4996 28.8276 79.7619 28.5652 79.7619 28.2416C79.7619 28.0831 79.7498 27.9274 79.7271 27.7751C80.1103 27.8868 80.5109 27.9454 80.9202 27.9454C82.129 27.9454 83.2859 27.4292 84.0943 26.5293C84.3935 26.1962 84.4605 25.7203 84.2649 25.3169C84.221 25.2263 84.1656 25.1443 84.1018 25.071C84.422 24.7883 84.6407 24.4009 84.7128 23.9757ZM82.6746 2.34437C83.2561 2.34437 83.7292 2.8175 83.7292 3.39902C83.7292 3.98053 83.2561 4.45366 82.6746 4.45366C82.6063 4.45366 82.5389 4.4471 82.4731 4.43438C82.2506 3.98071 81.971 3.55991 81.6432 3.18188C81.7445 2.70553 82.1716 2.34437 82.6746 2.34437ZM67.8634 4.45366C67.2819 4.45366 66.8088 3.98053 66.8088 3.39902C66.8088 2.8175 67.2819 2.34437 67.8634 2.34437C68.3504 2.34437 68.7641 2.676 68.8834 3.12991C68.5335 3.52387 68.2362 3.96536 68.0027 4.44364C67.9568 4.44967 67.9104 4.45366 67.8634 4.45366ZM74.2331 27.6558C69.4971 27.6558 65.644 23.8028 65.644 19.0667C65.644 15.89 67.2063 12.918 69.8232 11.1169C69.9654 11.019 70.0572 10.8634 70.0741 10.6916C70.091 10.5198 70.0313 10.3493 69.9109 10.2256C69.0707 9.36231 68.5888 8.18106 68.5888 6.9848C68.5888 4.42606 70.6705 2.34437 73.2293 2.34437H77.2513C79.81 2.34437 81.8917 4.42606 81.8917 6.9848C81.8917 8.17549 81.4467 9.30319 80.6387 10.1601C80.4345 10.3768 80.4251 10.7121 80.6171 10.9398C80.9904 11.3824 81.9414 12.6214 82.709 14.5622C83.4794 16.51 84.252 19.6902 83.5575 23.7796C83.5244 23.9745 83.4156 24.1419 83.2511 24.2508C83.0876 24.3591 82.8925 24.3938 82.7017 24.3485C82.3422 24.2632 82.1097 23.9081 82.1724 23.54C82.9053 19.237 81.9123 16.0067 80.9503 14.0547C80.8073 13.7644 80.456 13.645 80.1657 13.7881C79.8755 13.9311 79.7561 14.2825 79.8992 14.5727C80.7846 16.3694 81.6974 19.3495 81.0172 23.3432C80.9801 23.5613 80.9825 23.7775 81.019 23.9846C80.9456 23.9237 80.8742 23.8599 80.8062 23.7919C80.1776 23.1634 79.8497 22.2936 79.9063 21.4055C79.9352 20.9522 79.6899 20.5313 79.2813 20.3332C78.8777 20.1377 78.4019 20.2046 78.0688 20.5038C77.9342 20.6247 77.8093 20.7542 77.6924 20.8897C77.2849 19.6516 76.3745 18.6306 75.1904 18.0852C75.3256 17.9756 75.4564 17.8589 75.5818 17.7347C76.5706 16.7554 77.1152 15.4515 77.1152 14.0633V13.1447C77.1152 13.003 77.0989 12.8651 77.0689 12.7323C78.2759 12.1177 79.0915 10.9222 79.212 9.55713C80.0148 8.94714 80.4855 8.00692 80.4855 6.98486C80.4855 5.20146 79.0346 3.75062 77.2513 3.75062H73.2293C71.4459 3.75062 69.995 5.20152 69.995 6.98486C69.995 8.02216 70.4997 8.99805 71.3308 9.60254C71.4642 10.9229 72.257 12.089 73.418 12.7048C73.3839 12.846 73.3654 12.9932 73.3654 13.1447V14.0633C73.3654 14.8327 72.7397 15.4693 71.9707 15.4824C71.5975 15.489 71.2438 15.3442 70.9704 15.0754C70.6884 14.7981 70.5267 14.4146 70.5267 14.0233C70.5267 13.6997 70.2644 13.4374 69.9408 13.4374C69.6172 13.4374 69.3549 13.6997 69.3549 14.0233C69.3549 14.7268 69.6443 15.4149 70.1489 15.911C70.6483 16.4019 71.3031 16.6658 71.9907 16.654C73.3949 16.6301 74.5372 15.4679 74.5372 14.0633V13.1447C74.5372 12.757 74.8526 12.4416 75.2403 12.4416C75.628 12.4416 75.9434 12.757 75.9434 13.1447V14.0633C75.9434 15.1364 75.5222 16.1446 74.7573 16.9021C74.0019 17.6502 73.0051 18.0606 71.9463 18.0606C71.9331 18.0606 71.9198 18.0605 71.9065 18.0604C71.5855 18.0585 71.3181 18.317 71.3149 18.6406C71.3118 18.9642 71.5716 19.229 71.8951 19.2322C71.9123 19.2324 71.9294 19.2324 71.9466 19.2324C72.6003 19.2324 73.2352 19.1102 73.8269 18.8786C75.5065 19.1647 76.7551 20.6326 76.7551 22.3533C76.7551 23.2072 76.4457 24.031 75.8838 24.673C75.6347 24.9576 75.5769 25.3482 75.733 25.6924C75.8889 26.0361 76.2203 26.2496 76.598 26.2496C77.4927 26.2496 78.2515 26.8424 78.5022 27.6558H74.2331ZM74.039 11.7065C73.116 11.2515 72.5043 10.3099 72.4833 9.26189C72.4792 9.0577 72.3691 8.87038 72.1927 8.7675C71.5599 8.39855 71.1668 7.71543 71.1668 6.98486C71.1668 5.8476 72.0921 4.92245 73.2293 4.92245H77.2513C78.3884 4.92245 79.3137 5.84766 79.3137 6.98486C79.3137 7.70483 78.9472 8.36117 78.3334 8.74054C78.1624 8.84624 78.0575 9.03215 78.0556 9.23312C78.0449 10.3126 77.4179 11.2731 76.4625 11.7247C76.134 11.4416 75.7069 11.2698 75.2402 11.2698C74.7835 11.2698 74.3646 11.4341 74.039 11.7065ZM80.9202 26.7736C80.097 26.7736 79.3207 26.4506 78.7341 25.8639C78.1475 25.2773 77.8244 24.5009 77.8244 23.6778C77.8244 22.8575 78.1525 22.0698 78.7297 21.4915C78.6992 22.6593 79.149 23.7919 79.9776 24.6205C80.8063 25.4491 81.9396 25.8992 83.1066 25.8683C82.5281 26.4456 81.7406 26.7736 80.9202 26.7736Z" fill="black"/>
<path d="M76.0231 9.47287C76.0231 9.14928 75.7607 8.88696 75.4372 8.88696H75.0429C74.7194 8.88696 74.457 9.14928 74.457 9.47287C74.457 9.79647 74.7194 10.0588 75.0429 10.0588H75.4372C75.7607 10.0588 76.0231 9.79647 76.0231 9.47287Z" fill="black"/>
<path d="M62.6169 16.3083C62.4628 16.3083 62.3117 16.371 62.2027 16.48C62.0937 16.589 62.031 16.7401 62.031 16.8942C62.031 17.0489 62.0937 17.1995 62.2027 17.3085C62.3117 17.4181 62.4628 17.4802 62.6169 17.4802C62.771 17.4802 62.9222 17.4181 63.0312 17.3085C63.1402 17.1995 63.2029 17.0489 63.2029 16.8942C63.2029 16.7401 63.1402 16.589 63.0312 16.48C62.9222 16.371 62.771 16.3083 62.6169 16.3083Z" fill="black"/>
<g clip-path="url(#clip0)">
<path d="M135.192 11.9536V14.4676L135.24 14.6525C136.637 14.6525 137.769 13.52 137.769 12.1229V9.0388C137.769 7.64178 136.637 6.50922 135.24 6.50922C134.484 6.50922 133.806 6.84057 133.342 7.36585L133.342 7.36602C134.487 8.55553 135.192 10.1722 135.192 11.9536Z" fill="#6D92AC"/>
<path d="M137.948 21.302C136.426 21.302 135.192 20.0678 135.192 18.5453V17.9919V17.2049V11.9536C135.192 8.2997 132.229 5.33759 128.576 5.33759C127.565 5.33759 126.602 5.76291 125.921 6.50928H119.966C115.565 6.50928 111.998 10.0765 111.998 14.4768C111.998 15.8445 112.343 17.1315 112.95 18.256C113.252 18.8146 113.404 19.4414 113.404 20.0762V26.0913C113.404 26.4068 113.66 26.6625 113.975 26.6625H116.582C116.898 26.6625 117.154 26.4068 117.154 26.0913V21.9333C118.028 22.2633 118.976 22.4444 119.966 22.4444H123.665V26.0913C123.665 26.4068 123.92 26.6625 124.236 26.6625H126.843C127.158 26.6625 127.414 26.4068 127.414 26.0913V22.2413C128.44 21.9884 129.403 21.5046 130.226 20.8175V20.8175C131.111 22.8769 133.158 24.3192 135.542 24.3192H137.859C138.716 24.3192 139.41 23.6247 139.41 22.768V22.7637C139.41 21.9564 138.756 21.302 137.948 21.302Z" fill="#8AA8BD"/>
<path d="M130.226 20.8174V20.8174C129.403 21.5045 128.44 21.9884 127.414 22.2412V26.0912C127.414 26.4067 127.158 26.6624 126.843 26.6624H129.654C129.97 26.6624 130.226 26.4067 130.226 26.0912V20.8174C130.226 20.8174 130.226 20.8174 130.226 20.8174Z" fill="#6D92AC"/>
<path d="M119.966 22.4444C118.976 22.4444 118.028 22.2633 117.153 21.9333V26.0913C117.153 26.4068 116.898 26.6625 116.582 26.6625H119.394C119.71 26.6625 119.966 26.4068 119.966 26.0913V22.4444Z" fill="#6D92AC"/>
<path d="M131.677 19.105C129.867 19.105 128.396 17.6333 128.396 15.8243C128.396 15.1772 128.92 14.6526 129.567 14.6526C130.215 14.6526 130.739 15.1772 130.739 15.8243C130.739 16.3411 131.16 16.7616 131.677 16.7616C132.324 16.7616 132.848 17.2862 132.848 17.9333C132.848 18.5805 132.324 19.105 131.677 19.105Z" fill="#FFF3DA"/>
<path d="M137.948 20.7161C136.751 20.7161 135.777 19.7423 135.777 18.5452V15.191C137.24 14.9354 138.355 13.6574 138.355 12.123V9.03884C138.355 7.32095 136.958 5.92341 135.24 5.92341C134.551 5.92341 133.887 6.15289 133.348 6.56497C132.076 5.4375 130.405 4.75171 128.575 4.75171C127.493 4.75171 126.451 5.17627 125.675 5.92341H119.965C118.635 5.92341 117.36 6.22049 116.176 6.80652C115.886 6.95005 115.768 7.30144 115.911 7.59144C116.013 7.79789 116.221 7.91758 116.437 7.91758C116.524 7.91752 116.613 7.89796 116.696 7.85665C117.717 7.35136 118.817 7.09511 119.966 7.09511H121.96C121.533 7.62841 121.277 8.30407 121.277 9.03884V12.123C121.277 13.8409 122.675 15.2384 124.392 15.2384C126.11 15.2384 127.508 13.8409 127.508 12.123C127.508 11.7994 127.246 11.5371 126.922 11.5371C126.599 11.5371 126.336 11.7994 126.336 12.123C126.336 13.1947 125.464 14.0667 124.392 14.0667C123.321 14.0667 122.449 13.1947 122.449 12.123V9.03884C122.449 7.96709 123.321 7.09511 124.392 7.09511C125.013 7.09511 125.582 7.38118 125.953 7.88003C126.146 8.13956 126.513 8.19352 126.773 8.0003C127.033 7.80715 127.086 7.44011 126.893 7.18058C126.777 7.0244 126.646 6.88127 126.505 6.75121C127.061 6.22325 127.804 5.92341 128.576 5.92341C131.901 5.92341 134.606 8.62851 134.606 11.9536V18.5452C134.606 20.3883 136.105 21.8878 137.948 21.8878C138.433 21.8878 138.828 22.2826 138.828 22.7679C138.828 23.3002 138.395 23.7332 137.863 23.7332H135.542C133 23.7332 130.878 21.8986 130.43 19.4836C130.822 19.6172 131.24 19.6909 131.676 19.6909C132.646 19.6909 133.434 18.9024 133.434 17.9333C133.434 16.9642 132.646 16.1758 131.676 16.1758C131.483 16.1758 131.325 16.0181 131.325 15.8243C131.325 14.8552 130.536 14.0667 129.567 14.0667C128.598 14.0667 127.81 14.8552 127.81 15.8243C127.81 17.0035 128.341 18.0605 129.176 18.7703C129.2 19.4166 129.32 20.0387 129.523 20.6224C128.851 21.1129 128.081 21.4734 127.274 21.6724C127.012 21.7369 126.828 21.9716 126.828 22.2413V26.0766H124.251V22.4444C124.251 22.1208 123.988 21.8585 123.665 21.8585H117.153C116.83 21.8585 116.568 22.1208 116.568 22.4444V26.0766H113.99V20.0762C113.99 19.3385 113.809 18.6129 113.466 17.9777C112.889 16.9094 112.584 15.6988 112.584 14.4768C112.584 13.3581 112.828 12.2838 113.308 11.2837C113.448 10.9921 113.326 10.642 113.034 10.5019C112.742 10.3617 112.392 10.4845 112.252 10.7762C111.767 11.7853 111.49 12.8591 111.427 13.9747C110.603 14.221 110 14.9857 110 15.8889V21.8585C110 22.182 110.262 22.4443 110.586 22.4443C110.909 22.4443 111.172 22.182 111.172 21.8585V15.8889C111.172 15.6439 111.279 15.4242 111.449 15.2727C111.556 16.4142 111.891 17.5284 112.435 18.5344C112.685 18.999 112.818 19.5322 112.818 20.0762V26.0913C112.818 26.7293 113.337 27.2483 113.975 27.2483H119.394C120.032 27.2483 120.551 26.7293 120.551 26.0913V23.0302H123.079V26.0913C123.079 26.7293 123.598 27.2483 124.236 27.2483H129.654C130.292 27.2483 130.811 26.7293 130.811 26.0913V22.7964C131.978 24.0903 133.667 24.9049 135.542 24.9049H137.863C139.041 24.9049 140 23.9463 140 22.7679C140 21.6365 139.08 20.7161 137.948 20.7161ZM134.166 7.41891C134.481 7.20988 134.854 7.09511 135.24 7.09511C136.311 7.09511 137.183 7.96709 137.183 9.03884V12.123C137.183 13.0082 136.588 13.7566 135.777 13.9905V11.9536C135.777 10.2364 135.173 8.65786 134.166 7.41891ZM129.567 15.2384C129.89 15.2384 130.153 15.5012 130.153 15.8243C130.153 16.6641 130.836 17.3475 131.676 17.3475C131.999 17.3475 132.262 17.6103 132.262 17.9333C132.262 18.2564 131.999 18.5192 131.676 18.5192C130.19 18.5192 128.982 17.3102 128.982 15.8243C128.982 15.5012 129.244 15.2384 129.567 15.2384ZM119.38 26.0766H117.739V23.0302H119.38V26.0766ZM128 26.0766V22.6855C128.573 22.5062 129.124 22.2577 129.64 21.9492V26.0767H128V26.0766Z" fill="black"/>
<path d="M130.97 12.0788C131.08 11.9699 131.142 11.8187 131.142 11.6646C131.142 11.5106 131.08 11.3594 130.97 11.2505C130.861 11.1415 130.711 11.0788 130.556 11.0788C130.402 11.0788 130.251 11.1415 130.142 11.2505C130.033 11.3594 129.97 11.5106 129.97 11.6646C129.97 11.8187 130.033 11.9699 130.142 12.0788C130.251 12.1878 130.402 12.2505 130.556 12.2505C130.711 12.2506 130.861 12.1878 130.97 12.0788Z" fill="black"/>
<path d="M114.299 9.46131C114.454 9.46131 114.604 9.39863 114.714 9.28966C114.823 9.18069 114.886 9.02954 114.886 8.87546C114.886 8.72138 114.823 8.57023 114.714 8.46127C114.604 8.3523 114.454 8.28961 114.299 8.28961C114.145 8.28961 113.995 8.3523 113.885 8.46127C113.776 8.57023 113.713 8.72138 113.713 8.87546C113.713 9.02954 113.776 9.18069 113.885 9.28966C113.995 9.39863 114.145 9.46131 114.299 9.46131Z" fill="black"/>
</g>
<path d="M110.586 57.874V53.6491C110.586 50.5846 113.07 48.1003 116.135 48.1003C119.199 48.1003 121.684 50.5846 121.684 53.6491V55.8293V57.874H110.586Z" fill="#FF9171"/>
<path d="M114.655 57.874V55.7347C114.655 53.7938 116.228 52.2204 118.169 52.2204C120.11 52.2204 121.684 53.7938 121.684 55.7347V56.579V57.874H114.655Z" fill="#FFC8B8"/>
<path d="M134.987 48.2626C133.386 48.2626 132.088 49.5606 132.088 51.1617V53.9663C132.088 54.9952 131.254 55.8292 130.225 55.8292H117.544V58.399V58.6116C117.544 63.1121 120.701 66.8746 124.921 67.8069C125.235 68.803 125.992 69.6023 126.961 69.9746C127.93 69.6023 128.688 68.803 129.002 67.8069C133.222 66.8745 136.379 63.112 136.379 58.6116V54.0512C136.379 53.2188 137.054 52.5439 137.886 52.5439V51.1617C137.886 49.5606 136.588 48.2626 134.987 48.2626Z" fill="#FFCD69"/>
<path d="M138.551 46.0147C138.026 45.6527 137.389 45.5772 136.824 45.7532C136.5 45.0637 135.799 44.5862 134.987 44.5862C134.175 44.5862 133.474 45.0637 133.15 45.7532C132.585 45.5772 131.948 45.6526 131.423 46.0147C130.516 46.6401 130.288 47.8824 130.914 48.7893C131.539 49.6962 132.781 49.9244 133.688 49.2989C133.979 49.0986 134.199 48.835 134.344 48.5396C134.546 48.607 134.762 48.6441 134.987 48.6441C135.212 48.6441 135.428 48.607 135.63 48.5396C135.775 48.835 135.996 49.0986 136.286 49.2989C137.193 49.9243 138.435 49.6962 139.061 48.7893C139.686 47.8824 139.458 46.6401 138.551 46.0147Z" fill="#FF7D97"/>
<path d="M121.94 58.5248H127.995C129.581 58.5248 130.867 59.8108 130.867 61.3971C130.867 62.9834 129.581 64.2693 127.995 64.2693H127.684C124.512 64.2694 121.94 61.6975 121.94 58.5248Z" fill="#FF9171"/>
<path d="M127.684 64.8553H127.995C129.902 64.8553 131.453 63.3039 131.453 61.3971C131.453 59.4903 129.902 57.9389 127.995 57.9389H121.94C121.616 57.9389 121.354 58.2012 121.354 58.5248C121.354 62.0154 124.194 64.8553 127.684 64.8553ZM130.281 61.3971C130.281 62.6578 129.256 63.6835 127.995 63.6835H127.684C126.196 63.6835 124.854 63.0501 123.911 62.0388C124.269 62.155 124.651 62.2185 125.048 62.2185H127.07C127.394 62.2185 127.656 61.9562 127.656 61.6326C127.656 61.309 127.394 61.0467 127.07 61.0467H125.048C123.859 61.0467 122.86 60.2196 122.595 59.1108H127.995C129.256 59.1108 130.281 60.1364 130.281 61.3971Z" fill="black"/>
<path d="M135.402 51.4075C135.511 51.2986 135.573 51.1474 135.573 50.9933C135.573 50.8386 135.511 50.688 135.402 50.579C135.293 50.47 135.141 50.4073 134.987 50.4073C134.833 50.4073 134.682 50.47 134.573 50.579C134.463 50.688 134.401 50.8386 134.401 50.9933C134.401 51.1474 134.463 51.2986 134.573 51.4075C134.682 51.5165 134.833 51.5792 134.987 51.5792C135.141 51.5793 135.293 51.5165 135.402 51.4075Z" fill="black"/>
<path d="M139.957 47.1906C139.832 46.5126 139.451 45.9237 138.884 45.5324C138.359 45.1703 137.733 45.0189 137.113 45.0941C136.628 44.4178 135.836 44.0003 134.987 44.0003C134.139 44.0003 133.347 44.4178 132.861 45.0941C132.241 45.0188 131.616 45.1704 131.091 45.5323C129.919 46.3403 129.623 47.9505 130.431 49.122C130.738 49.5674 131.177 49.8989 131.675 50.0805C131.563 50.4211 131.502 50.7844 131.502 51.1618V53.9665C131.502 54.6706 130.929 55.2434 130.225 55.2434H122.27V53.6492C122.27 50.2664 119.518 47.5144 116.135 47.5144C112.752 47.5144 110 50.2664 110 53.6492V57.8741C110 58.1977 110.262 58.46 110.586 58.46H116.958V58.6117C116.958 60.2503 117.363 61.8758 118.129 63.3126C118.281 63.5982 118.636 63.7062 118.922 63.5538C119.207 63.4015 119.315 63.0466 119.163 62.7611C118.487 61.4935 118.13 60.0586 118.13 58.6117V56.4153H130.225C131.575 56.4153 132.674 55.3167 132.674 53.9665V51.1618C132.674 49.8863 133.712 48.8486 134.987 48.8486C136.263 48.8486 137.3 49.8864 137.3 51.1618V52.0416C136.43 52.2956 135.793 53.1004 135.793 54.0513V58.6117C135.793 62.7227 132.884 66.3493 128.876 67.2348C128.671 67.28 128.506 67.4309 128.443 67.6306C128.208 68.3752 127.662 68.999 126.961 69.3369C126.26 68.999 125.714 68.3752 125.479 67.6306C125.416 67.4308 125.251 67.28 125.047 67.2348C124.179 67.0429 123.346 66.7208 122.573 66.2773C122.292 66.1163 121.934 66.2133 121.773 66.4941C121.612 66.7747 121.709 67.1328 121.99 67.2938C122.772 67.7425 123.608 68.0816 124.479 68.304C124.844 69.1859 125.525 69.9204 126.375 70.3541V72.8279H125.259C124.936 72.8279 124.673 73.0902 124.673 73.4139C124.673 73.7375 124.936 73.9998 125.259 73.9998H129.099C129.422 73.9998 129.685 73.7375 129.685 73.4139C129.685 73.0902 129.422 72.8279 129.099 72.8279H127.547V70.3541C128.398 69.9203 129.078 69.1859 129.444 68.3039C131.508 67.7755 133.374 66.5815 134.728 64.917C136.17 63.1423 136.965 60.903 136.965 58.6117V54.0513C136.965 53.5432 137.378 53.1299 137.886 53.1299C138.21 53.1299 138.472 52.8676 138.472 52.544V51.1618C138.472 50.7843 138.411 50.4211 138.3 50.0805C138.798 49.8989 139.236 49.5674 139.543 49.122C139.934 48.5545 140.081 47.8686 139.957 47.1906ZM111.172 53.6492C111.172 50.9126 113.398 48.6863 116.135 48.6863C118.58 48.6863 120.616 50.4642 121.023 52.7948C120.284 52.0775 119.277 51.6345 118.168 51.6345C115.907 51.6345 114.067 53.4743 114.067 55.7358V57.2882H111.172V53.6492ZM117.544 55.2434C117.22 55.2434 116.958 55.5057 116.958 55.8294V57.2881H115.239V55.7358C115.239 54.1205 116.553 52.8063 118.168 52.8063C119.616 52.8063 120.821 53.8618 121.056 55.2434H117.544V55.2434ZM138.578 48.4567C138.379 48.7465 138.077 48.9482 137.739 49.0277C137.101 48.2066 136.105 47.6768 134.987 47.6768C133.869 47.6768 132.873 48.2066 132.235 49.0277C131.897 48.9482 131.596 48.7465 131.396 48.4567C130.955 47.8172 131.116 46.9381 131.756 46.4971C132.114 46.25 132.559 46.1827 132.976 46.3127C133.255 46.3997 133.556 46.2673 133.681 46.0025C133.918 45.4981 134.431 45.1722 134.987 45.1722C135.544 45.1722 136.057 45.4981 136.294 46.0025C136.418 46.2674 136.719 46.3996 136.998 46.3127C137.415 46.1828 137.86 46.25 138.218 46.4971C138.858 46.9381 139.019 47.8172 138.578 48.4567Z" fill="black"/>
<path d="M120.2 64.5809C120.046 64.5809 119.895 64.643 119.786 64.7526C119.677 64.8616 119.615 65.0122 119.615 65.1669C119.615 65.321 119.677 65.4721 119.786 65.5811C119.895 65.6901 120.046 65.7528 120.2 65.7528C120.355 65.7528 120.506 65.6901 120.615 65.5811C120.724 65.4721 120.786 65.321 120.786 65.1669C120.786 65.0128 120.724 64.8616 120.615 64.7526C120.506 64.6431 120.355 64.5809 120.2 64.5809Z" fill="black"/>
<g clip-path="url(#clip1)">
<path d="M17.5129 99.8359C16.3079 101.743 14.2092 102.9 11.9531 102.9C8.32102 102.9 5.3766 99.9553 5.3766 96.3232V96.3122H2.9812C2.9812 103.589 8.87978 109.487 16.1561 109.487H16.8748C22.4963 109.487 27.2955 105.966 29.1876 101.01C30.0532 98.7419 28.3609 96.3122 25.9337 96.3122H23.9074C21.3126 96.3123 18.8989 97.6423 17.5129 99.8359Z" fill="white"/>
<path d="M17.5129 99.8359C16.3079 101.743 14.2092 102.9 11.9532 102.9C8.32108 102.9 5.37666 99.9553 5.37666 96.3232V96.3123H2.9812C2.9812 100.934 5.36136 104.999 8.96223 107.351L10.3203 106.515C12.252 105.326 14.4758 104.696 16.7441 104.696C21.3744 104.696 25.1281 100.943 25.1281 96.3123H23.9074C21.3126 96.3123 18.8989 97.6423 17.5129 99.8359Z" fill="#8AA8BD"/>
<path d="M0.586182 93.6773H2.52251C3.56987 93.6773 4.41887 94.5264 4.41887 95.5737V96.3123H3.22114C1.76592 96.3123 0.586182 95.1325 0.586182 93.6773Z" fill="#8AA8BD"/>
<path d="M8.25163 93.6773H6.3153C5.26794 93.6773 4.41895 94.5264 4.41895 95.5737V96.3123H5.61667C7.07189 96.3123 8.25163 95.1325 8.25163 93.6773Z" fill="#8AA8BD"/>
<path d="M21.1269 100.492C20.9722 100.492 20.821 100.429 20.712 100.32C20.603 100.21 20.5403 100.06 20.5403 99.9055C20.5403 99.7514 20.603 99.6002 20.712 99.4912C20.821 99.3816 20.9722 99.3195 21.1269 99.3195C21.281 99.3195 21.4316 99.3816 21.5412 99.4912C21.6502 99.6002 21.7129 99.7514 21.7129 99.9055C21.7129 100.06 21.6502 100.21 21.5412 100.32C21.4316 100.429 21.281 100.492 21.1269 100.492Z" fill="black"/>
<path d="M20.2842 103.918L18.2009 104.853C16.1157 105.788 15.1841 108.237 16.12 110.323L18.2033 109.387C20.2884 108.452 21.22 106.003 20.2842 103.918Z" fill="#8AA8BD"/>
<path d="M29.2856 97.4887C28.5256 96.3851 27.2726 95.7263 25.9339 95.7263H23.9076C22.1168 95.7263 20.3494 96.3286 18.931 97.4222C18.6746 97.6198 18.6271 97.9878 18.8247 98.244C19.0223 98.5003 19.3903 98.5479 19.6465 98.3503C20.8611 97.4139 22.3744 96.8982 23.9076 96.8982H24.5205C24.2199 100.925 20.8471 104.11 16.7444 104.11C14.3662 104.11 12.0387 104.769 10.0134 106.016L8.95768 106.665C5.83534 104.5 3.76336 100.957 3.58065 96.8982H4.81377C5.10765 100.58 8.19758 103.486 11.9534 103.486C13.4121 103.486 14.8179 103.048 16.0191 102.22C16.2855 102.036 16.3526 101.671 16.169 101.405C15.9852 101.138 15.6204 101.071 15.3539 101.255C14.3492 101.948 13.1734 102.314 11.9535 102.314C8.83673 102.314 6.26869 99.9209 5.9887 96.876C7.58995 96.6908 8.83749 95.3273 8.83749 93.6772C8.83749 93.3537 8.57514 93.0912 8.25149 93.0912H6.31516C5.55535 93.0912 4.87454 93.4348 4.4188 93.9742C3.96307 93.4348 3.28225 93.0912 2.52244 93.0912H0.586002C0.262353 93.0912 0 93.3537 0 93.6772C0 95.1713 1.02263 96.4308 2.40466 96.7931C2.52198 100.213 3.88707 103.429 6.28041 105.895C8.7057 108.394 11.9307 109.863 15.3917 110.052C15.4465 110.224 15.5103 110.395 15.5855 110.562C15.6831 110.78 15.8968 110.909 16.1205 110.909C16.2007 110.909 16.2822 110.892 16.3601 110.857L18.2617 110.003C20.8062 109.749 23.222 108.791 25.254 107.229C27.279 105.672 28.8286 103.594 29.7354 101.219C30.2085 99.9791 30.0404 98.5847 29.2856 97.4887ZM6.3151 94.2633H7.58005C7.32736 95.1084 6.54265 95.7263 5.61642 95.7263H5.00469V95.5737C5.00469 94.8511 5.59257 94.2633 6.3151 94.2633ZM1.25733 94.2633H2.52233C3.24487 94.2633 3.83268 94.8511 3.83268 95.5737V95.7263H3.22096C2.29472 95.7263 1.51007 95.1084 1.25733 94.2633ZM25.6947 96.8983H25.9339C26.2985 96.8983 26.6491 96.9634 26.9741 97.0871C26.7005 100.737 24.508 103.925 21.2338 105.498C21.2232 105.059 21.1499 104.622 21.0158 104.198C23.6498 102.765 25.4904 100.051 25.6947 96.8983ZM15.1759 108.863C13.3292 108.723 11.6017 108.193 10.0727 107.355L10.6277 107.014C10.8709 106.864 11.1193 106.725 11.3715 106.594C12.6038 107.177 13.914 107.526 15.2755 107.638C15.1878 108.043 15.1554 108.454 15.1759 108.863ZM15.682 106.491C14.7146 106.441 13.7747 106.258 12.8739 105.944C14.0534 105.529 15.2959 105.304 16.5568 105.284C16.2051 105.635 15.9096 106.041 15.682 106.491ZM19.829 106.875C19.4916 107.762 18.8292 108.464 17.9635 108.853L16.4583 109.528C16.2703 108.817 16.3084 108.066 16.5753 107.365C16.9127 106.478 17.5752 105.776 18.4409 105.387L19.946 104.712C20.1341 105.423 20.0959 106.174 19.829 106.875ZM28.6404 100.801C27.2181 104.526 24.072 107.347 20.3067 108.423C20.5598 108.08 20.7687 107.701 20.9244 107.292C20.9796 107.147 21.0272 107 21.0676 106.853C23.0255 106.062 24.7179 104.746 25.9762 103.033C27.106 101.494 27.8207 99.7177 28.0728 97.8417C28.1609 97.9391 28.244 98.0427 28.3203 98.1535C28.8644 98.9434 28.9811 99.9083 28.6404 100.801Z" fill="black"/>
<path d="M17.5132 100.422C17.3591 100.422 17.2079 100.359 17.099 100.25C16.99 100.141 16.9272 99.9905 16.9272 99.8358C16.9272 99.6816 16.9899 99.5305 17.099 99.4215C17.2079 99.3125 17.3591 99.2498 17.5132 99.2498C17.6674 99.2498 17.8185 99.3125 17.9275 99.4215C18.0365 99.5305 18.0992 99.6816 18.0992 99.8358C18.0992 99.9899 18.0366 100.141 17.9275 100.25C17.8185 100.359 17.6674 100.422 17.5132 100.422Z" fill="black"/>
</g>
<g clip-path="url(#clip2)">
<path d="M65.1479 65.2078L64.6074 67.5642C65.1288 68.1811 65.4213 68.9704 65.4213 69.7781H68.0676C68.0676 68.9703 67.7751 68.1811 67.2536 67.5642C67.2536 67.5642 67.4797 66.0905 67.615 65.2084L65.1479 65.2078Z" fill="#FF5D7D"/>
<path d="M76.27 65.2078L75.7295 67.5642C76.2509 68.1811 76.5434 68.9704 76.5434 69.7781H79.1896C79.1896 68.9704 78.8971 68.1811 78.3758 67.5642C78.3758 67.5642 78.714 64.9983 78.8493 64.1162L76.27 65.2078Z" fill="#FF5D7D"/>
<path d="M65.1479 65.2078C65.153 65.2079 65.1562 65.208 65.1596 65.2081C65.1536 65.2079 65.1479 65.2078 65.1479 65.2078Z" fill="#FF7D97"/>
<path d="M65.1594 65.2081C65.1624 65.2081 65.1652 65.2082 65.1677 65.2082C65.1657 65.2082 65.1629 65.2082 65.1594 65.2081Z" fill="#FF7D97"/>
<path d="M81.1461 54.0358C80.44 52.9307 79.4432 52.0293 78.2635 51.4397L79.0951 48.3358C77.316 47.8591 75.4882 48.9061 74.9953 50.6766H65.1479C61.1353 50.6766 57.8823 53.9295 57.8823 57.9422C57.8823 59.9318 58.6821 61.7345 59.9776 63.0465C61.2716 64.3569 62.0229 66.1072 62.0229 67.9489V69.2221C62.0229 69.5292 62.2719 69.7781 62.5789 69.7781H65.4213C65.4213 68.9703 65.1288 68.1811 64.6074 67.5642L65.1479 65.2078H73.1459V69.2221C73.1459 69.5292 73.3949 69.7781 73.7019 69.7781H76.5444C76.5444 68.9703 76.2519 68.1811 75.7304 67.5642C75.7304 67.5642 75.9692 66.0079 76.1045 65.1258C78.9461 64.7001 81.2499 62.6303 82.0141 59.9144L84.4141 58.5483V55.1499H83.1671C82.3469 55.1499 81.5877 54.7269 81.1461 54.0358Z" fill="#FF7D97"/>
<path d="M65.168 65.2083C65.1769 65.2084 65.1744 65.2084 65.168 65.2083V65.2083Z" fill="#FF7D97"/>
<path d="M78.1838 56.3603C78.0292 56.3603 77.8786 56.2976 77.7696 56.1886C77.66 56.0796 77.5979 55.9285 77.5979 55.7744C77.5979 55.6197 77.66 55.4691 77.7696 55.3601C77.8786 55.2505 78.0292 55.1884 78.1838 55.1884C78.3379 55.1884 78.4891 55.2505 78.5981 55.3601C78.7071 55.4691 78.7698 55.6197 78.7698 55.7744C78.7698 55.9285 78.7071 56.0796 78.5981 56.1886C78.4891 56.2976 78.3379 56.3603 78.1838 56.3603Z" fill="black"/>
<path d="M69.7334 51.2626C69.5787 51.2626 69.4281 51.1999 69.3191 51.091C69.2102 50.982 69.1475 50.8308 69.1475 50.6767C69.1475 50.522 69.2102 50.3714 69.3191 50.2624C69.4281 50.1529 69.5787 50.0908 69.7334 50.0908C69.8875 50.0908 70.0387 50.1529 70.1476 50.2624C70.2566 50.3714 70.3193 50.5226 70.3193 50.6767C70.3193 50.8308 70.2566 50.982 70.1476 51.091C70.0387 51.1999 69.8875 51.2626 69.7334 51.2626Z" fill="black"/>
<path d="M84.4141 54.5639H83.1672C82.5483 54.5639 81.9774 54.2485 81.6399 53.7203C80.9601 52.6564 80.0361 51.7733 78.9493 51.1439L79.6611 48.4875C79.7449 48.1749 79.5594 47.8536 79.2468 47.7698C77.3158 47.2524 75.3144 48.28 74.5772 50.0906H72.37C72.0464 50.0906 71.7841 50.3529 71.7841 50.6765C71.7841 51.0001 72.0464 51.2625 72.37 51.2625H74.9953C75.2584 51.2625 75.4893 51.0871 75.5598 50.8337C75.9114 49.5706 77.0995 48.7511 78.3612 48.8108L77.6974 51.2879C77.6254 51.5568 77.7525 51.8393 78.0014 51.9637C79.0831 52.5044 79.9997 53.3299 80.6523 54.3512C81.2063 55.2182 82.1464 55.7358 83.1672 55.7358H83.8282V58.2076L81.7243 59.4052C81.5904 59.4814 81.4919 59.6073 81.4502 59.7557C80.7404 62.2778 78.6081 64.1583 76.0177 64.5463C75.7638 64.5843 75.5643 64.7832 75.5254 65.0369L75.1514 67.4754C75.1256 67.6428 75.1737 67.8131 75.283 67.9424C75.5896 68.3053 75.7994 68.7358 75.8966 69.1922H73.7319V63.2449C73.7319 62.9213 73.4696 62.659 73.1459 62.659C72.8223 62.659 72.56 62.9213 72.56 63.2449V64.6219H67.6173C68.0686 64.0712 68.3399 63.3676 68.3399 62.6017C68.3399 62.2781 68.0776 62.0158 67.754 62.0158C67.4304 62.0158 67.168 62.2781 67.168 62.6017C67.168 63.7156 66.2618 64.6219 65.1479 64.6219C64.8747 64.6219 64.6379 64.8106 64.5768 65.0768L64.0363 67.4332C63.9951 67.613 64.0409 67.8016 64.1599 67.9424C64.4666 68.3053 64.6763 68.7358 64.7735 69.1922H62.6088L62.6088 67.9488C62.6088 65.9682 61.8224 64.0809 60.3944 62.6348C59.1523 61.3768 58.4682 59.7103 58.4682 57.9422C58.4682 54.259 61.4647 51.2625 65.1479 51.2625H67.0965C67.4201 51.2625 67.6824 51.0002 67.6824 50.6766C67.6824 50.353 67.4201 50.0906 67.0965 50.0906H65.1479C62.0659 50.0906 59.3935 51.8758 58.1091 54.4662C57.83 54.6639 57.499 54.7543 57.1509 54.7272C56.8677 54.705 56.6103 54.574 56.4261 54.3582C56.2419 54.1424 56.1528 53.8676 56.1754 53.5845C56.2075 53.1806 56.5624 52.8774 56.9663 52.9092C57.2889 52.9343 57.5709 52.6934 57.5962 52.3708C57.6214 52.0481 57.3803 51.7661 57.0577 51.7409C56.0106 51.6592 55.0906 52.4442 55.0072 53.4914C54.9598 54.0868 55.1472 54.6649 55.5348 55.119C55.9225 55.5731 56.4639 55.8488 57.0595 55.8954C57.1288 55.9008 57.198 55.9035 57.2671 55.9035C57.3687 55.9035 57.4698 55.8976 57.57 55.8861C57.3919 56.5417 57.2963 57.2309 57.2963 57.9421C57.2963 60.0203 58.1004 61.9793 59.5606 63.458C60.7706 64.6834 61.4369 66.2782 61.4369 67.9488L61.437 69.222C61.437 69.8517 61.9493 70.3639 62.5789 70.3639H68.0675C68.3911 70.3639 68.6535 70.1016 68.6535 69.778C68.6535 68.9243 68.3774 68.0905 67.8713 67.4017L68.118 65.7936H72.5599V69.222C72.5599 69.8517 73.0722 70.3639 73.7019 70.3639H79.1893C79.5129 70.3639 79.7752 70.1016 79.7752 69.778C79.7752 68.9218 79.4976 68.0857 78.9887 67.3957C79.0673 66.8035 79.2701 65.2837 79.3896 64.464C80.846 63.4876 81.9638 62.034 82.5083 60.3073L84.7039 59.0575C84.887 58.9533 85 58.7589 85 58.5482V55.1498C85.0001 54.8262 84.7378 54.5639 84.4141 54.5639ZM65.9632 69.1921C65.8684 68.5562 65.6214 67.9484 65.241 67.4233L65.6147 65.7937H66.9325L66.6746 67.4753C66.6488 67.6427 66.6969 67.813 66.8062 67.9424C67.1129 68.3052 67.3226 68.7358 67.4198 69.1921H65.9632ZM77.0862 69.1921C76.9901 68.5475 76.7376 67.9317 76.3482 67.4017L76.6202 65.6287C77.1356 65.5219 77.6334 65.3642 78.1079 65.1612C77.9654 66.1933 77.8043 67.4145 77.7946 67.4876C77.7731 67.6512 77.8215 67.8163 77.928 67.9424C78.2347 68.3052 78.4444 68.7358 78.5416 69.1921H77.0862Z" fill="black"/>
</g>
<g clip-path="url(#clip3)">
<path d="M11.3306 26.4234V22.6188H8.32471V26.4314L8.72356 27.1625C8.92354 27.5292 8.70674 27.9666 8.32471 28.055V28.0721H11.2797C11.7079 28.0721 11.98 27.6137 11.7749 27.2378L11.3306 26.4234Z" fill="#FFC144"/>
<path d="M23.2449 26.4234V21.3182C22.6438 21.9522 21.8357 22.386 20.9281 22.5148L20.239 22.6126V26.5034L20.5985 27.1626C20.7916 27.5165 20.5964 27.9366 20.239 28.0449V28.072H23.1082C23.575 28.072 23.8717 27.5724 23.6481 27.1625L23.2449 26.4234Z" fill="#FFC144"/>
<path d="M1.75781 23.9513C2.49703 23.3784 2.92969 22.4958 2.92969 21.5605C2.92969 20.9133 2.40504 20.3886 1.75781 20.3886C1.11059 20.3886 0.585938 20.9133 0.585938 21.5605C0.585938 22.4958 1.01859 23.3784 1.75781 23.9513Z" fill="#FFCD69"/>
<path d="M23.238 19.8748C22.2305 20.4815 20.9701 20.4815 19.9625 19.8748L17.5697 18.4341C17.5658 18.4317 17.5618 18.4293 17.5577 18.4269C16.8729 18.0129 16.4622 17.2635 16.4622 16.4633V16.3195L15.7997 16.9819C14.6082 15.6672 13.9323 14.0091 13.8077 12.3063H10.7641C7.60225 12.3063 5.03906 14.8695 5.03906 18.0314V27.4571C5.03906 27.7968 5.31439 28.0721 5.65406 28.0721H8.18361C8.65043 28.0721 8.94709 27.5724 8.7235 27.1625L8.32037 26.4234V22.6188H16.9143V27.4571C16.9143 27.7968 17.1896 28.0721 17.5293 28.0721H20.0587C20.5255 28.0721 20.8222 27.5724 20.5986 27.1625L20.1953 26.4234V22.6188L20.928 22.5148C22.6174 22.275 23.963 20.9796 24.2681 19.3008C24.2695 19.2927 24.271 19.2847 24.2725 19.2767L24.2776 19.2488L23.238 19.8748Z" fill="#FFCD69"/>
<path d="M16.4622 16.3194L15.7998 16.9819C13.0956 13.998 13.0452 9.24606 16.0754 6.21582C19.1267 3.16455 24.0737 3.16455 27.125 6.21582C30.1552 9.24606 30.1048 13.9979 27.4007 16.9819L26.7382 16.3194V16.4632C26.7382 17.2634 26.3275 18.0129 25.6427 18.4268C25.6387 18.4292 25.6347 18.4316 25.6307 18.4341L23.238 19.8748C22.2304 20.4815 20.97 20.4815 19.9624 19.8748L17.5698 18.4341C17.5658 18.4317 17.5617 18.4293 17.5578 18.4268C16.873 18.0129 16.4622 17.2634 16.4622 16.4632V16.3194Z" fill="#FFC144"/>
<path d="M20.2326 16.2037L19.3473 15.6707C16.9159 14.2066 16.5052 10.8485 18.5121 8.84157C20.2176 7.13614 22.9826 7.13614 24.6881 8.84157C26.695 10.8485 26.2843 14.2066 23.8529 15.6707L22.9677 16.2037C22.1263 16.7103 21.0739 16.7103 20.2326 16.2037Z" fill="#FFE6B4"/>
<path d="M26.8506 9.27644C26.8506 8.89212 26.7009 8.53083 26.4292 8.25919C26.1575 7.98743 25.7962 7.83784 25.412 7.83784C25.1461 7.83784 24.8914 7.90956 24.6697 8.04356C22.8764 6.62519 20.3219 6.6256 18.529 8.04491C17.9762 7.71274 17.2473 7.78317 16.7712 8.25919C16.2104 8.82011 16.2104 9.73276 16.7713 10.2938C16.8081 10.3305 16.8472 10.3643 16.8873 10.3966C16.6673 11.0734 16.5943 11.7989 16.6839 12.5308C16.8702 14.0537 17.7308 15.3811 19.0452 16.1726L19.9305 16.7057V16.7057C20.4455 17.0158 21.0228 17.1708 21.6002 17.1708C22.1775 17.1707 22.755 17.0157 23.27 16.7057L24.1552 16.1726C25.4696 15.3811 26.3302 14.0537 26.5166 12.5308C26.6061 11.7988 26.5331 11.0734 26.3131 10.3966C26.3532 10.3643 26.3924 10.3305 26.4291 10.2937C26.7009 10.022 26.8506 9.66075 26.8506 9.27644ZM25.3533 12.3885C25.2111 13.5511 24.5541 14.5645 23.5507 15.1687L22.6654 15.7018C22.0083 16.0973 21.1921 16.0973 20.535 15.7018L19.6497 15.1687C18.6463 14.5645 17.9893 13.5511 17.8471 12.3885C17.7048 11.2258 18.0983 10.084 18.9266 9.25581C19.6638 8.51858 20.6318 8.15015 21.6002 8.15015C22.5684 8.15015 23.5369 8.51876 24.2738 9.25581C25.1021 10.084 25.4955 11.2259 25.3533 12.3885Z" fill="black"/>
<path d="M29.9991 11.6077C29.9672 9.41795 29.0937 7.35598 27.5393 5.80149C25.0242 3.28648 21.1799 2.62777 17.9731 4.16263C17.6813 4.30237 17.5579 4.65224 17.6976 4.94415C17.8374 5.236 18.1871 5.35928 18.4791 5.21971C21.2383 3.8989 24.5463 4.46591 26.7106 6.63018C29.2934 9.21299 29.5334 13.2673 27.3613 16.114L27.1524 15.9051C26.9849 15.7376 26.7328 15.6875 26.5139 15.7781C26.295 15.8688 26.1522 16.0824 26.1522 16.3194V16.4632C26.1522 17.062 25.8407 17.6223 25.3347 17.9283L22.9357 19.3728C22.1119 19.8688 21.0886 19.8688 20.2646 19.3728L17.8764 17.9348L17.8608 17.9253C17.3595 17.6223 17.0481 17.062 17.0481 16.4632V16.3194C17.0481 16.0824 16.9053 15.8688 16.6863 15.7781C16.4673 15.6875 16.2153 15.7376 16.0477 15.9051L15.8397 16.1131C14.2282 13.9852 13.9104 11.0496 15.0766 8.61855C15.2165 8.32682 15.0934 7.97678 14.8016 7.8368C14.51 7.69688 14.1599 7.81998 14.0199 8.11172C13.4774 9.24287 13.2004 10.4716 13.1999 11.7204H10.764C8.48453 11.7204 6.48356 12.9353 5.37421 14.7514C4.92855 14.2437 4.27558 13.9274 3.56947 13.9274C2.24748 13.9274 1.17187 15.003 1.17187 16.3251V19.9035C0.489901 20.1453 0 20.7966 0 21.5605C0 22.6687 0.522948 23.7355 1.39892 24.4144C1.50457 24.4963 1.63119 24.5372 1.75781 24.5372C1.88443 24.5372 2.01111 24.4963 2.1167 24.4144C2.99267 23.7355 3.51562 22.6687 3.51562 21.5604C3.51562 20.7966 3.02572 20.1453 2.34375 19.9034V16.325C2.34375 15.6491 2.89365 15.0992 3.56958 15.0992C4.14087 15.0992 4.64442 15.5032 4.76683 16.06C4.76706 16.0611 4.76747 16.0621 4.76771 16.0632C4.56386 16.6829 4.45312 17.3444 4.45312 18.0313V27.457C4.45312 28.1192 4.99183 28.6579 5.65405 28.6579H11.2796C11.6895 28.6579 12.0593 28.4475 12.2686 28.095C12.4779 27.7424 12.4856 27.3171 12.2893 26.9571L11.9165 26.2739V23.2047H16.3283V27.457C16.3283 28.1192 16.867 28.6579 17.5292 28.6579H23.1999C23.6085 28.6579 23.9771 28.4481 24.1857 28.0967C24.3943 27.7452 24.402 27.3212 24.2063 26.9624L23.8307 26.2739V21.5601C24.2893 21.0096 24.6266 20.3502 24.7986 19.619L25.9328 18.936C25.9343 18.9351 25.9442 18.9292 25.9457 18.9282C26.4919 18.598 26.9053 18.0901 27.131 17.5021C27.2177 17.5472 27.3145 17.5704 27.4151 17.5677C27.5754 17.5638 27.7272 17.4942 27.8349 17.3754C29.2615 15.801 30.0302 13.7526 29.9991 11.6077ZM1.75781 23.1449C1.38515 22.7069 1.17187 22.1421 1.17187 21.5604C1.17187 21.2373 1.43472 20.9745 1.75781 20.9745C2.08089 20.9745 2.34375 21.2373 2.34375 21.5604C2.34375 22.1421 2.13046 22.7069 1.75781 23.1449ZM10.8162 26.7039L11.2429 27.4861H9.41652C9.41377 27.3022 9.36695 27.1186 9.27467 26.9493L8.90623 26.2739V23.2047H10.7447V26.4233C10.7447 26.5214 10.7692 26.6179 10.8162 26.7039ZM17.5002 27.457V22.6188C17.5002 22.2952 17.2378 22.0329 16.9142 22.0329H10.4244C11.4195 21.3579 12.0747 20.2178 12.0747 18.9274C12.0747 18.6038 11.8124 18.3415 11.4887 18.3415C11.1651 18.3415 10.9028 18.6038 10.9028 18.9274C10.9028 20.349 9.74629 21.5055 8.32469 21.5055C8.32393 21.5055 8.32323 21.5056 8.32252 21.5056C8.32176 21.5056 8.32106 21.5055 8.32036 21.5055C7.99674 21.5055 7.73442 21.7679 7.73442 22.0915V26.4233C7.73442 26.5214 7.75903 26.6179 7.80596 26.7039L8.23264 27.4861H5.65405C5.63806 27.4861 5.62499 27.473 5.62499 27.4571V18.0313C5.62499 15.1977 7.93036 12.8923 10.7641 12.8923H13.2811C13.2834 12.9085 13.2849 12.9247 13.2872 12.9409C13.5273 14.6066 14.246 16.14 15.3655 17.3754C15.4733 17.4942 15.625 17.5638 15.7854 17.5677C15.8851 17.57 15.9826 17.5471 16.0694 17.5021C16.2952 18.0902 16.7089 18.5983 17.2563 18.9293L19.6602 20.3768C20.2585 20.7371 20.9294 20.9172 21.6001 20.9172C22.1053 20.9172 22.6105 20.815 23.0848 20.6106C22.4334 21.5161 21.3726 22.0915 20.1955 22.0915C19.8719 22.0915 19.6095 22.3539 19.6095 22.6775V26.4234C19.6095 26.5215 19.6341 26.6179 19.6811 26.704L20.1078 27.4862H17.5292C17.5132 27.4861 17.5002 27.473 17.5002 27.457ZM21.295 27.4861C21.2915 27.3046 21.2449 27.1235 21.1537 26.9564L20.7813 26.2739L20.7814 23.2272C21.4595 23.1432 22.0966 22.9145 22.6589 22.5712V26.4233C22.6589 26.5214 22.6835 26.6178 22.7304 26.7039L23.1571 27.4861H21.295V27.4861Z" fill="black"/>
<path d="M23.3579 10.8805H22.772C22.4484 10.8805 22.186 11.1429 22.186 11.4664V12.833L21.6001 13.1456L21.0142 12.833V11.4664C21.0142 11.1429 20.7518 10.8805 20.4282 10.8805H19.8423C19.5187 10.8805 19.2563 11.1429 19.2563 11.4664C19.2563 11.79 19.5187 12.0524 19.8423 12.0524V13.1846C19.8423 13.401 19.9615 13.5998 20.1525 13.7015L21.3244 14.3266C21.4105 14.3725 21.5053 14.3955 21.6001 14.3955C21.6949 14.3955 21.7896 14.3725 21.8758 14.3266L23.0477 13.7015C23.2387 13.5998 23.3579 13.401 23.3579 13.1846V12.0524C23.6815 12.0524 23.9438 11.79 23.9438 11.4664C23.9438 11.1429 23.6815 10.8805 23.3579 10.8805Z" fill="black"/>
<path d="M16.0752 6.8017C16.2299 6.8017 16.3805 6.73906 16.49 6.63002C16.599 6.52103 16.6611 6.36986 16.6611 6.21576C16.6611 6.06166 16.599 5.91049 16.49 5.80156C16.3805 5.69258 16.2299 5.62982 16.0752 5.62982C15.9211 5.62982 15.7699 5.69252 15.661 5.80156C15.552 5.91049 15.4893 6.06166 15.4893 6.21576C15.4893 6.36986 15.552 6.52103 15.661 6.63002C15.7699 6.739 15.9211 6.8017 16.0752 6.8017Z" fill="black"/>
</g>
<g clip-path="url(#clip4)">
<path d="M18.526 139.085L21.9073 136.16C22.6597 135.509 23.5961 135.115 24.5804 135.03L25.1894 133.41H23.418C21.4054 133.41 19.4452 134.052 17.8222 135.242C16.5179 136.198 15.4806 137.473 14.8092 138.944L14.0735 140.557H14.8408C16.1966 140.493 17.4954 139.977 18.526 139.085Z" fill="#C68A65"/>
<path d="M4.05329 151.068L3.81462 148.577C3.63097 147.84 3.34624 147.127 2.97396 146.457C2.66209 145.895 2.48255 145.25 2.47751 144.563C2.47124 143.703 2.74431 142.909 3.20917 142.258L3.20906 142.256C1.76032 142.256 0.585938 143.431 0.585938 144.879V151.143C0.585938 152.626 1.28731 154.021 2.47739 154.906L2.49644 154.886C3.49443 153.866 4.05329 152.495 4.05335 151.068V151.068H4.05329Z" fill="#C68A65"/>
<path d="M10.4077 148.503H7.72789L6.41668 152.003V156.17L6.71032 156.77C6.83508 157.026 6.67844 157.318 6.41504 157.372V157.381H8.69107C9.00481 157.381 9.21003 157.052 9.0722 156.771L8.77856 156.17V152.003L10.4077 148.503Z" fill="#C68A65"/>
<path d="M13.538 148.503L11.6544 156.716C11.5763 157.056 11.835 157.381 12.1845 157.381H13.9513C14.3535 157.381 14.6165 156.96 14.4398 156.598L14.2304 156.17L16.2189 148.782L13.538 148.503Z" fill="#C68A65"/>
<path d="M29.0003 138.441L26.8146 135.846C26.3561 135.316 25.6899 135.012 24.9891 135.012C23.8572 135.012 22.7632 135.419 21.9072 136.16L18.5259 139.085C17.4241 140.039 16.0158 140.563 14.5588 140.563H6.5046C4.29121 140.563 2.46123 142.35 2.4774 144.563C2.48244 145.25 2.66193 145.895 2.97379 146.457C3.6611 147.695 4.05318 149.075 4.05318 150.491V156.957C4.05318 157.191 4.2431 157.381 4.47744 157.381H6.32922C6.64296 157.381 6.84817 157.052 6.71034 156.771L6.4167 156.17V152.003L7.72791 148.503H15.5549C16.3368 148.503 16.9708 149.137 16.9708 149.919V156.957C16.9708 157.191 17.1607 157.381 17.395 157.381H19.2468C19.5605 157.381 19.7657 157.052 19.6279 156.771L19.3343 156.17V151.781C19.3343 150.179 20.1788 148.714 21.5293 147.853C22.6875 147.114 23.4557 145.819 23.4557 144.343V142.907L24.9622 140.239L27.0322 141.125C27.8469 141.477 28.7953 141.146 29.2143 140.364C29.548 139.74 29.463 138.975 29.0003 138.441Z" fill="#D1A184"/>
<path d="M25.6997 138.163C25.8087 138.054 25.8714 137.903 25.8714 137.748C25.8714 137.594 25.8087 137.443 25.6997 137.334C25.5908 137.225 25.4396 137.162 25.2855 137.162C25.1313 137.162 24.9802 137.225 24.8712 137.334C24.7622 137.443 24.6995 137.594 24.6995 137.748C24.6995 137.903 24.7622 138.054 24.8712 138.163C24.9802 138.272 25.1313 138.334 25.2855 138.334C25.4396 138.334 25.5908 138.272 25.6997 138.163Z" fill="black"/>
<path d="M29.4464 138.06L27.2629 135.469C27.2612 135.467 27.2596 135.465 27.2579 135.463C26.9877 135.151 26.6596 134.902 26.2967 134.727V132.619C26.2967 132.36 26.1269 132.132 25.879 132.058C25.6311 131.983 25.3638 132.08 25.2214 132.296L24.8738 132.824H23.4179C21.2659 132.824 19.211 133.497 17.4756 134.769C16.0938 135.783 14.9875 137.142 14.276 138.701L13.6937 139.977H11.7786C11.4549 139.977 11.1926 140.24 11.1926 140.563C11.1926 140.887 11.4549 141.149 11.7786 141.149H14.559C16.1564 141.149 17.7014 140.574 18.9094 139.528L22.2907 136.603C23.04 135.955 23.9984 135.598 24.9892 135.598C25.5191 135.598 26.0219 135.827 26.3692 136.227L28.5523 138.818C28.554 138.82 28.5556 138.822 28.5572 138.824C28.859 139.173 28.9155 139.68 28.6978 140.087C28.4249 140.597 27.7953 140.816 27.2629 140.587L25.193 139.7C24.9183 139.583 24.599 139.69 24.452 139.951L22.9455 142.619C22.8958 142.707 22.8698 142.806 22.8698 142.907V144.343C22.8698 145.57 22.2509 146.698 21.2143 147.359C19.6701 148.343 18.7483 149.996 18.7483 151.781V156.17C18.7483 156.259 18.7687 156.347 18.8079 156.428L18.9876 156.795H17.5568V149.919C17.5568 148.815 16.6588 147.917 15.5549 147.917H8.57329L8.88604 147.083C8.9996 146.78 8.84595 146.442 8.54288 146.328C8.23981 146.215 7.9021 146.368 7.78854 146.672L5.86802 151.798C5.84341 151.863 5.83075 151.933 5.83075 152.003V156.17C5.83075 156.259 5.85115 156.347 5.89035 156.428L6.07013 156.795H4.63932V150.491C4.63932 149.022 4.24097 147.53 3.48721 146.174C3.21414 145.683 3.06765 145.124 3.06349 144.559C3.05698 143.664 3.40482 142.817 4.04296 142.174C4.69886 141.513 5.57315 141.149 6.50476 141.149C6.8284 141.149 7.09075 140.887 7.09075 140.563C7.09075 140.24 6.8284 139.977 6.50476 139.977C5.25848 139.977 4.08879 140.464 3.21121 141.348C3.10392 141.456 3.00272 141.569 2.90773 141.685C1.27909 141.837 0 143.212 0 144.879V151.143C0 152.803 0.79542 154.386 2.12778 155.376C2.23226 155.454 2.35503 155.492 2.47721 155.492C2.63026 155.492 2.78239 155.432 2.89636 155.316L2.91535 155.296C3.11587 155.091 3.29993 154.874 3.46729 154.647V156.957C3.46729 157.514 3.92049 157.967 4.47753 157.967H8.69108C9.04191 157.967 9.36233 157.789 9.54809 157.492C9.73384 157.194 9.75277 156.828 9.5986 156.513L9.36455 156.034V152.133L10.7813 149.089H12.8023L11.083 156.585C11.0057 156.922 11.085 157.271 11.3005 157.541C11.5161 157.812 11.8382 157.967 12.1843 157.967H13.9511C14.3435 157.967 14.7018 157.768 14.9095 157.436C15.1173 157.103 15.1384 156.693 14.966 156.341L14.8532 156.11L16.3847 150.42V156.957C16.3847 157.514 16.838 157.967 17.395 157.967H19.2468C19.5976 157.967 19.918 157.789 20.1038 157.492C20.2895 157.194 20.3085 156.828 20.1543 156.513L19.9202 156.034V151.781C19.9202 150.399 20.6395 149.115 21.8443 148.347C23.2202 147.47 24.0417 145.973 24.0417 144.343V143.061L25.2143 140.984L26.7999 141.663C27.8853 142.132 29.1728 141.683 29.7309 140.64C30.1756 139.81 30.0611 138.774 29.4464 138.06ZM21.5239 135.717L18.1426 138.642C17.2567 139.409 16.1506 139.868 14.9902 139.959L15.3423 139.188C15.9707 137.811 16.9481 136.61 18.1687 135.714C19.7017 134.59 21.5169 133.996 23.4179 133.996H24.1016L23.7151 134.583C22.9114 134.782 22.159 135.167 21.5239 135.717ZM2.41949 154.088C1.63063 153.321 1.17198 152.254 1.17198 151.143V144.879C1.17198 144.164 1.54332 143.533 2.10305 143.17C1.96118 143.617 1.88805 144.086 1.89157 144.567C1.89714 145.329 2.09473 146.081 2.46291 146.744C3.11998 147.926 3.46735 149.221 3.46735 150.491V151.069C3.46706 152.177 3.09824 153.231 2.41949 154.088ZM8.24737 151.756C8.21133 151.833 8.19264 151.918 8.19264 152.003V156.17C8.19264 156.259 8.21303 156.347 8.25223 156.428L8.43201 156.795H7.32666C7.31084 156.699 7.28125 156.604 7.23689 156.513L7.00279 156.034V152.109L8.13421 149.089H9.48867L8.24737 151.756ZM13.6644 156.018C13.6276 156.155 13.6416 156.3 13.7039 156.428L13.8836 156.795H12.2372L14.0047 149.089H15.5291L13.6644 156.018Z" fill="black"/>
<path d="M9.14214 141.149C9.29625 141.149 9.44685 141.087 9.55643 140.978C9.66542 140.869 9.72812 140.718 9.72812 140.563C9.72812 140.409 9.66542 140.258 9.55643 140.149C9.44685 140.04 9.29625 139.977 9.14214 139.977C8.98744 139.977 8.83684 140.04 8.72726 140.149C8.61827 140.258 8.55615 140.409 8.55615 140.563C8.55615 140.718 8.61827 140.869 8.72726 140.978C8.83625 141.087 8.98744 141.149 9.14214 141.149Z" fill="black"/>
</g>
<path d="M130.765 138.321C130.04 137.611 129.632 136.639 129.632 135.625C129.632 134.913 130.209 134.336 130.921 134.336H134.944L132.858 131.786C132.236 131.026 131.307 130.586 130.325 130.586C128.519 130.586 127.054 132.051 127.054 133.858V134.336V135.625C127.054 137.333 127.741 138.968 128.961 140.163L130.942 142.102C131.234 142.388 131.421 142.77 131.445 143.178C131.5 144.108 130.758 144.883 129.839 144.883H129.836C129.166 144.883 128.56 144.503 128.25 143.91C127.113 141.733 124.833 140.246 122.207 140.246C120.244 140.246 118.376 141.093 117.082 142.57L112.797 147.461H127.229H129.02H129.839C132.148 147.461 134.026 145.583 134.026 143.274C134.026 142.156 133.568 141.065 132.769 140.283L130.765 138.321Z" fill="#FF7D97"/>
<path d="M133.277 131.973H135.582C136.477 131.973 137.203 132.698 137.203 133.594V135.878L136.407 134.989C136.034 134.574 135.502 134.336 134.944 134.336L133.277 131.973Z" fill="#8AA8BD"/>
<path d="M135.582 131.387H133.287C132.552 130.505 131.475 130 130.326 130C128.198 130 126.468 131.731 126.468 133.858V135.625C126.468 137.478 127.227 139.285 128.552 140.582L130.532 142.521C130.729 142.714 130.846 142.959 130.86 143.212C130.877 143.497 130.779 143.768 130.583 143.975C130.387 144.183 130.123 144.297 129.836 144.297C129.39 144.297 128.981 144.045 128.769 143.638C127.961 142.092 126.629 140.875 125.017 140.213C124.718 140.09 124.375 140.233 124.252 140.532C124.129 140.832 124.272 141.174 124.572 141.297C125.928 141.854 127.05 142.879 127.73 144.181C128.145 144.975 128.952 145.469 129.839 145.469C130.44 145.469 131.022 145.217 131.436 144.779C131.855 144.335 132.066 143.754 132.03 143.144C131.999 142.599 131.758 142.081 131.352 141.683L129.371 139.744C128.271 138.667 127.64 137.165 127.64 135.625V133.858C127.64 132.377 128.845 131.172 130.326 131.172C131.134 131.172 131.892 131.531 132.404 132.157L133.708 133.75H130.921C129.887 133.75 129.046 134.591 129.046 135.625C129.046 136.79 129.523 137.925 130.355 138.74L132.359 140.701C133.046 141.374 133.44 142.312 133.44 143.274C133.44 145.26 131.825 146.875 129.839 146.875H124.055L125.633 145.297C125.862 145.068 125.862 144.697 125.633 144.468C125.405 144.24 125.034 144.24 124.805 144.468L122.398 146.875H120.774L122.352 145.297C122.581 145.068 122.581 144.697 122.352 144.468C122.123 144.24 121.752 144.24 121.523 144.468L119.117 146.875H117.493L119.071 145.297C119.3 145.068 119.3 144.697 119.071 144.468C118.842 144.24 118.471 144.24 118.242 144.468L115.836 146.875H114.089L117.523 142.956C118.154 142.236 118.956 141.663 119.842 141.299C120.142 141.176 120.285 140.834 120.162 140.534C120.039 140.235 119.697 140.092 119.397 140.215C118.344 140.647 117.391 141.328 116.642 142.184L112.356 147.075C112.205 147.248 112.168 147.493 112.263 147.703C112.358 147.912 112.567 148.047 112.797 148.047H123.292L121.964 151.187C121.904 151.33 121.902 151.491 121.961 151.636C122.019 151.78 122.133 151.894 122.276 151.955L125.917 153.493V157.991C125.917 158.136 125.971 158.276 126.069 158.384L127.357 159.807C127.472 159.935 127.632 160 127.791 160C127.931 160 128.072 159.95 128.184 159.849C128.424 159.631 128.443 159.261 128.226 159.021L127.089 157.765V153.988L128.658 154.651V155.754C128.658 156.077 128.921 156.339 129.244 156.339C129.568 156.339 129.83 156.077 129.83 155.754V154.262C129.83 154.027 129.689 153.814 129.472 153.722L127.089 152.716V148.047H129.84C132.471 148.047 134.612 145.906 134.612 143.274C134.612 141.999 134.09 140.756 133.179 139.864L131.175 137.902C130.567 137.307 130.218 136.477 130.218 135.625C130.218 135.237 130.533 134.922 130.921 134.922H134.944C135.335 134.922 135.709 135.089 135.97 135.38L136.766 136.269C136.88 136.396 137.04 136.464 137.203 136.464C137.273 136.464 137.344 136.451 137.412 136.425C137.639 136.339 137.789 136.121 137.789 135.878V133.594C137.789 132.377 136.799 131.387 135.582 131.387ZM125.917 152.221L123.272 151.104L124.564 148.047H125.917V152.221ZM136.617 134.376C136.229 134.039 135.747 133.827 135.236 133.767L134.247 132.559H135.582C136.153 132.559 136.617 133.023 136.617 133.594V134.376H136.617Z" fill="black"/>
<path d="M122.207 140.832C122.361 140.832 122.512 140.77 122.621 140.661C122.73 140.552 122.793 140.401 122.793 140.246C122.793 140.092 122.73 139.941 122.621 139.832C122.512 139.723 122.361 139.66 122.207 139.66C122.053 139.66 121.902 139.723 121.793 139.832C121.684 139.941 121.621 140.092 121.621 140.246C121.621 140.401 121.684 140.552 121.793 140.661C121.902 140.77 122.053 140.832 122.207 140.832Z" fill="black"/>
<g clip-path="url(#clip5)">
<path d="M74.554 150.913H75.1306C76.1494 150.913 76.9752 150.087 76.9752 149.068C76.9752 148.05 76.1493 147.224 75.1306 147.224H71.0001L65.2328 145.104C63.3261 146.56 62.0959 148.856 62.0959 151.44C62.0959 155.84 65.6628 159.407 70.0628 159.407H75.5387C75.5387 159.367 75.5377 159.326 75.5357 159.286C75.4901 158.298 74.888 157.456 74.0357 157.064H74.554V150.913Z" fill="#A7BDCD"/>
<path d="M79.2795 139.644C79.5579 139.697 79.8451 139.724 80.1388 139.724C82.6623 139.724 84.708 137.679 84.708 135.155C84.708 132.632 82.6623 130.586 80.1388 130.586C78.1491 130.586 76.4564 131.858 75.8293 133.632L79.2795 139.644Z" fill="#A7BDCD"/>
<path d="M80.1384 137.264C81.3031 137.264 82.2473 136.32 82.2473 135.155C82.2473 133.99 81.3031 133.046 80.1384 133.046C78.9737 133.046 78.0295 133.99 78.0295 135.155C78.0295 136.32 78.9737 137.264 80.1384 137.264Z" fill="white"/>
<path d="M62.721 139.644C62.4427 139.697 62.1555 139.724 61.8617 139.724C59.3382 139.724 57.2925 137.679 57.2925 135.155C57.2925 132.632 59.3382 130.586 61.8617 130.586C63.8514 130.586 65.5441 131.858 66.1712 133.632L62.721 139.644Z" fill="#A7BDCD"/>
<path d="M61.8616 137.264C63.0263 137.264 63.9704 136.32 63.9704 135.155C63.9704 133.99 63.0263 133.046 61.8616 133.046C60.6969 133.046 59.7527 133.99 59.7527 135.155C59.7527 136.32 60.6969 137.264 61.8616 137.264Z" fill="white"/>
<path d="M71.0003 147.224C75.5728 147.224 79.2796 143.866 79.2796 139.724C79.2796 135.583 75.5728 132.225 71.0003 132.225C66.4277 132.225 62.7209 135.583 62.7209 139.724C62.7209 143.866 66.4277 147.224 71.0003 147.224Z" fill="#A7BDCD"/>
<path d="M71 143.122C70.1737 143.122 69.5039 142.452 69.5039 141.626V140.674C69.5039 139.847 70.1738 139.178 71 139.178C71.8263 139.178 72.4962 139.847 72.4962 140.674V141.626C72.4962 142.452 71.8263 143.122 71 143.122Z" fill="#6D92AC"/>
<path d="M81.3248 138.048L79.588 137.562C79.0982 137.425 78.5901 137.711 78.453 138.2L75.8829 147.384C76.5265 147.672 76.9752 148.318 76.9752 149.068C76.9752 150.087 76.1493 150.913 75.1305 150.913H74.8954L73.1741 157.064H74.0356C74.8879 157.456 75.49 158.298 75.5356 159.286C75.5377 159.326 75.5387 159.367 75.5387 159.407C75.5387 159.407 75.5254 159.407 75.5009 159.407C75.942 159.457 76.3667 159.182 76.4901 158.741L81.9635 139.183C82.1006 138.693 81.8146 138.185 81.3248 138.048Z" fill="#89DF8F"/>
<path d="M79.58 148.227C79.58 148.227 78.8212 149.804 77.1048 150.302C76.0932 150.595 75.4674 151.635 75.7091 152.66C76.0677 154.18 77.9271 153.87 77.9271 153.87C77.9271 153.87 81.9062 153.265 79.58 148.227Z" fill="#A7BDCD"/>
<path d="M67.2801 137.967C67.1261 137.967 66.9749 138.03 66.866 138.139C66.757 138.247 66.6943 138.399 66.6943 138.553C66.6943 138.707 66.757 138.858 66.866 138.967C66.9749 139.076 67.1261 139.138 67.2801 139.138C67.4342 139.138 67.5853 139.076 67.6943 138.967C67.8033 138.858 67.8659 138.707 67.8659 138.553C67.8659 138.399 67.8033 138.247 67.6943 138.139C67.5853 138.03 67.4341 137.967 67.2801 137.967Z" fill="black"/>
<path d="M74.7201 137.967C74.566 137.967 74.4149 138.03 74.3059 138.139C74.197 138.247 74.1343 138.399 74.1343 138.553C74.1343 138.707 74.197 138.858 74.3059 138.967C74.4149 139.076 74.566 139.138 74.7201 139.138C74.8741 139.138 75.0253 139.076 75.1342 138.967C75.2432 138.858 75.3059 138.707 75.3059 138.553C75.3059 138.399 75.2432 138.247 75.1342 138.139C75.0253 138.03 74.8741 137.967 74.7201 137.967Z" fill="black"/>
<path d="M71.0002 138.592C69.8522 138.592 68.9182 139.526 68.9182 140.674V141.626C68.9182 142.774 69.8522 143.708 71.0002 143.708C72.1481 143.708 73.0821 142.774 73.0821 141.626V140.674C73.0821 139.526 72.1481 138.592 71.0002 138.592ZM71.9105 141.626C71.9105 142.128 71.5021 142.536 71.0002 142.536C70.4982 142.536 70.0898 142.128 70.0898 141.626V140.674C70.0898 140.172 70.4982 139.763 71.0002 139.763C71.5021 139.763 71.9105 140.172 71.9105 140.674V141.626Z" fill="black"/>
<path d="M80.1386 130C78.1954 130 76.4338 131.097 75.5584 132.789C74.1859 132.035 72.6278 131.639 71.0001 131.639C69.3349 131.639 67.7755 132.06 66.443 132.791C65.5681 131.098 63.8057 130 61.8616 130C59.0191 130 56.7065 132.313 56.7065 135.155C56.7065 137.998 59.0191 140.31 61.8616 140.31C61.9604 140.31 62.0591 140.306 62.1577 140.301C62.2991 142.123 63.1055 143.779 64.3559 145.071C63.2807 146.033 62.4683 147.245 61.9896 148.61C61.8826 148.916 62.0434 149.25 62.3486 149.357C62.4127 149.38 62.4781 149.39 62.5424 149.39C62.7843 149.39 63.0107 149.239 63.0952 148.998C63.5222 147.78 64.2576 146.704 65.2331 145.86C66.7844 147.074 68.7998 147.81 71.0001 147.81H75.1306C75.8248 147.81 76.3895 148.374 76.3895 149.068C76.3895 149.763 75.8247 150.327 75.1305 150.327H74.0462C73.7227 150.327 73.4604 150.59 73.4604 150.913C73.4604 151.237 73.7227 151.499 74.0462 151.499H74.1231L73.5879 153.412C73.1236 152.055 71.8371 151.077 70.3255 151.077C70.002 151.077 69.7397 151.339 69.7397 151.663C69.7397 151.986 70.002 152.249 70.3255 152.249C71.5807 152.249 72.6018 153.27 72.6018 154.525C72.6018 155.198 72.3144 155.818 71.8084 156.251H71.1765C70.853 156.251 70.5907 156.513 70.5907 156.837C70.5907 157.16 70.853 157.422 71.1765 157.422H72.961C73.8555 157.422 74.6141 158.015 74.8649 158.828H70.0628C66.9147 158.828 64.11 156.83 63.0836 153.856C62.9781 153.55 62.6446 153.388 62.3388 153.494C62.0329 153.599 61.8706 153.933 61.9761 154.239C63.1655 157.685 66.4153 160 70.0628 160C70.0628 160 75.5912 160 75.6036 160C76.272 160 76.8719 159.551 77.0543 158.899L78.319 154.38C78.8405 154.234 79.9028 153.814 80.4925 152.718C81.1376 151.519 81.0095 149.925 80.1118 147.981C80.1114 147.98 80.1108 147.979 80.1104 147.979L82.403 139.787C84.168 138.924 85.2937 137.137 85.2937 135.155C85.2936 132.313 82.9811 130 80.1386 130V130ZM62.1594 139.126C62.0604 139.134 61.9611 139.139 61.8616 139.139C59.6651 139.139 57.8781 137.352 57.8781 135.155C57.8781 132.959 59.6651 131.172 61.8616 131.172C63.4006 131.172 64.7923 132.061 65.4503 133.425C65.0817 133.695 64.7374 133.992 64.4206 134.312C64.0657 133.238 63.0531 132.46 61.8616 132.46C60.3758 132.46 59.1669 133.669 59.1669 135.155C59.1669 136.641 60.3758 137.85 61.8616 137.85C62.0423 137.85 62.2187 137.831 62.3895 137.797C62.2736 138.228 62.196 138.672 62.1594 139.126ZM61.8616 136.678C61.0218 136.678 60.3385 135.995 60.3385 135.155C60.3385 134.315 61.0218 133.632 61.8616 133.632C62.7014 133.632 63.3847 134.315 63.3847 135.155C63.3847 135.995 62.7014 136.678 61.8616 136.678ZM75.9341 145.028C74.5527 146.067 72.8057 146.638 71.0001 146.638C66.7578 146.638 63.3065 143.537 63.3065 139.724C63.3065 135.912 66.7578 132.811 71.0001 132.811C74.2485 132.811 77.1688 134.683 78.2493 137.408C78.0806 137.584 77.9567 137.801 77.889 138.042L75.9341 145.028ZM75.968 158.433C75.6577 157.484 74.91 156.732 73.9641 156.415L75.0808 152.424C75.0913 152.547 75.1098 152.671 75.139 152.794C75.4043 153.919 76.2875 154.345 77.0813 154.455L75.968 158.433ZM79.4661 152.153C78.9652 153.097 77.847 153.29 77.839 153.291C77.8363 153.292 77.8335 153.292 77.8308 153.292C77.777 153.302 76.5094 153.501 76.2793 152.525C76.112 151.816 76.5555 151.071 77.2679 150.864C78.2643 150.575 78.9757 149.976 79.4374 149.451C79.8046 150.57 79.8167 151.492 79.4661 152.153ZM81.3994 139.025L78.7726 148.412C78.7722 148.413 78.7721 148.414 78.7717 148.415C78.5262 148.747 78.1144 149.195 77.521 149.505C77.5468 149.363 77.5611 149.218 77.5611 149.068C77.5611 148.266 77.1697 147.553 76.568 147.11L79.0172 138.358C79.0413 138.272 79.0976 138.2 79.1756 138.157C79.2536 138.113 79.3441 138.102 79.4302 138.126L81.1671 138.612C81.3449 138.662 81.4492 138.847 81.3994 139.025ZM78.6155 135.155C78.6155 134.315 79.2988 133.632 80.1386 133.632C80.9784 133.632 81.6617 134.315 81.6617 135.155C81.6617 135.995 80.9784 136.678 80.1386 136.678C79.2988 136.678 78.6155 135.995 78.6155 135.155ZM82.4772 138.381C82.3103 137.96 81.9567 137.619 81.4889 137.485C82.2919 137.018 82.8332 136.149 82.8332 135.155C82.8332 133.669 81.6244 132.46 80.1385 132.46C78.9481 132.46 77.9362 133.237 77.5806 134.309C77.2645 133.989 76.9204 133.691 76.5517 133.421C77.2105 132.059 78.6012 131.172 80.1386 131.172C82.3351 131.172 84.122 132.959 84.122 135.155C84.122 136.453 83.4976 137.643 82.4772 138.381Z" fill="black"/>
<path d="M62.0958 152.026C61.9417 152.026 61.7906 151.963 61.6816 151.854C61.5727 151.745 61.51 151.594 61.51 151.44C61.51 151.286 61.5727 151.135 61.6816 151.026C61.7906 150.917 61.9417 150.854 62.0958 150.854C62.2499 150.854 62.401 150.917 62.51 151.026C62.6189 151.135 62.6816 151.286 62.6816 151.44C62.6816 151.594 62.6189 151.745 62.51 151.854C62.401 151.963 62.2498 152.026 62.0958 152.026Z" fill="black"/>
</g>
<g clip-path="url(#clip6)">
<path d="M21.428 50.983C21.428 50.983 19.4166 50.5405 20.0187 48.3565C20.0187 48.3565 20.0206 48.3576 20.0251 48.36C20.3051 48.5085 20.6492 48.5967 21.0482 48.5477C22.3736 48.385 23.213 49.8348 23.1125 49.6759L21.428 50.983Z" fill="#A7BDCD"/>
<path d="M24.6063 49.6759C24.5057 49.8348 25.3452 48.385 26.6706 48.5477C27.0696 48.5967 27.4137 48.5085 27.6937 48.36C27.6981 48.3576 27.7 48.3565 27.7 48.3565C28.3021 50.5405 26.2907 50.983 26.2907 50.983L24.6063 49.6759Z" fill="#A7BDCD"/>
<path d="M28.9075 52.6535C27.6352 51.9809 26.443 51.1665 25.3538 50.2259C24.9384 49.8671 24.408 49.6698 23.8592 49.6698C23.0215 49.6698 22.2508 50.1279 21.8505 50.8638C21.4171 51.6608 20.5824 52.157 19.6751 52.157H5.39836C2.73838 52.157 0.582835 54.315 0.585941 56.975L0.58805 58.6186C0.59016 60.2907 1.44985 61.8447 2.86518 62.735L3.51264 64.942V69.1901C3.51264 69.4436 3.71813 69.649 3.97155 69.649H6.10043H6.10067H8.52774C8.89131 69.649 9.12352 69.2613 8.9519 68.9408L8.52059 68.1353V63.8515H14.7829C14.908 64.2632 15.1375 64.64 15.4555 64.942V69.1901C15.4555 69.4436 15.6609 69.649 15.9144 69.649H17.669H20.2568C20.6204 69.649 20.8526 69.2612 20.6809 68.9407L20.2496 68.1353V63.6926C22.2734 63.1748 23.7696 61.3392 23.7696 59.1541V56.8921C23.7696 56.1509 24.3705 55.5499 25.1118 55.5499H28.3735C28.9482 55.5499 29.4141 55.084 29.4141 54.5093V53.4941C29.4141 53.1417 29.2191 52.8181 28.9075 52.6535Z" fill="white"/>
<path d="M20.6808 68.9407L20.2495 68.1353V63.6219H19.0063C18.7294 64.1009 18.34 64.5157 17.8603 64.8248V68.4283L18.1746 68.9017C18.3796 69.2105 18.1725 69.6184 17.8125 69.6463V69.649H20.2567C20.6203 69.649 20.8525 69.2612 20.6808 68.9407Z" fill="#E2E9EE"/>
<path d="M8.95163 68.9407L8.52033 68.1353V64.8248V63.8515L7.19657 63.8445C6.92101 64.2508 6.54542 64.5908 6.09302 64.8248V68.1354L6.52433 68.9408C6.69595 69.2613 6.46374 69.649 6.10017 69.649H8.52747C8.89105 69.649 9.12326 69.2612 8.95163 68.9407Z" fill="#E2E9EE"/>
<path d="M1.13004 57.9107C0.963047 57.9107 0.799277 57.9245 0.639785 57.951L0.587402 57.9757L0.588223 58.6186C0.590332 60.2906 1.45002 61.8446 2.86535 62.7349L2.99637 63.1816C3.00832 63.1704 3.01594 63.1634 3.01594 63.1634C3.67488 62.6195 4.09488 61.7966 4.09488 60.8756C4.09488 59.2381 2.7675 57.9107 1.13004 57.9107Z" fill="#A7BDCD"/>
<path d="M5.39839 52.157C4.93315 52.157 4.48386 52.2243 4.05835 52.3475V54.7661C4.05835 55.2839 4.47806 55.7036 4.99585 55.7036C5.43753 55.7036 5.83403 55.9744 5.99476 56.3859C6.27571 57.1052 6.96899 57.5786 7.74126 57.5786H10.9138C11.4316 57.5786 11.8513 57.1589 11.8513 56.6411C11.8513 56.1234 12.271 55.7036 12.7888 55.7036C13.436 55.7036 13.9607 55.179 13.9607 54.5317V52.1569H5.39839V52.157Z" fill="#A7BDCD"/>
<path d="M21.7896 54.9421H19.4309C18.9213 54.9421 18.5082 55.3552 18.5082 55.8648C18.5082 56.3744 18.0951 56.7875 17.5855 56.7875H17.542C16.958 56.7875 16.4846 57.2609 16.4846 57.8449C16.4846 58.4289 16.9581 58.9023 17.542 58.9023H21.7896C22.8832 58.9023 23.7698 58.0157 23.7698 56.9221C23.7697 55.8287 22.8832 54.9421 21.7896 54.9421Z" fill="#A7BDCD"/>
<path d="M29.1813 52.1354C28.5774 51.8162 27.9912 51.4627 27.426 51.0783C27.6544 50.9083 27.8821 50.6825 28.062 50.3842C28.4284 49.7765 28.4966 49.0419 28.2647 48.2007C28.2164 48.0255 28.0964 47.8787 27.9281 47.81C27.7598 47.7414 27.576 47.7507 27.419 47.8423C27.2088 47.9538 26.9808 47.9956 26.7418 47.9661C26.0643 47.883 25.389 48.1047 24.7894 48.6075C24.6217 48.7481 24.4367 48.9369 24.2902 49.117C24.1482 49.0954 24.0043 49.0838 23.8592 49.0838C23.7135 49.0838 23.5695 49.0951 23.428 49.1166C23.2815 48.9366 23.0966 48.748 22.929 48.6075C22.3295 48.1046 21.6543 47.8828 20.9766 47.9661C20.7387 47.9956 20.5116 47.9541 20.3022 47.8437L20.2991 47.8421C20.142 47.7564 19.9544 47.7474 19.7897 47.8171C19.625 47.8869 19.5012 48.0282 19.4537 48.2008C19.2219 49.0419 19.2901 49.7765 19.6564 50.3842C19.9308 50.8392 20.3164 51.1263 20.6464 51.3025C20.3581 51.4751 20.0239 51.5711 19.6752 51.5711H11.6462C11.3227 51.5711 11.0603 51.8334 11.0603 52.157C11.0603 52.4806 11.3227 52.7429 11.6462 52.7429H13.3747V54.5317C13.3747 54.8548 13.1119 55.1177 12.7888 55.1177C11.9487 55.1177 11.2654 55.8011 11.2654 56.6411C11.2654 56.835 11.1077 56.9927 10.9138 56.9927H7.74123C7.20639 56.9927 6.73506 56.6708 6.54053 56.1727C6.29016 55.5318 5.68383 55.1177 4.99582 55.1177C4.80194 55.1177 4.64426 54.96 4.64426 54.7661V52.8108C4.89077 52.7667 5.14266 52.7429 5.39836 52.7429H6.37278C6.69633 52.7429 6.95871 52.4806 6.95871 52.157C6.95871 51.8334 6.69633 51.5711 6.37278 51.5711H5.39836C3.9552 51.5711 2.59881 52.1334 1.57893 53.1544C0.559047 54.1754 -0.00163703 55.5325 3.59031e-06 56.9757L0.00211297 66.3592C0.00211297 66.6828 0.264496 66.9452 0.58805 66.9452C0.911664 66.9452 1.17399 66.6828 1.17399 66.3592V61.9957C1.50797 62.4171 1.90694 62.7922 2.36338 63.1059L2.92664 65.0261V69.19C2.92664 69.7661 3.39539 70.2348 3.97155 70.2348H8.52774C8.90637 70.2348 9.24862 70.0409 9.44315 69.716C9.63768 69.3912 9.64711 68.9979 9.4684 68.6641L9.10653 67.9883V64.4374H14.3835C14.509 64.7048 14.6719 64.955 14.8695 65.1779V69.19C14.8695 69.7662 15.3382 70.2349 15.9144 70.2349H20.2567C20.6354 70.2349 20.9777 70.0409 21.1722 69.716C21.3667 69.3911 21.3761 68.9979 21.1974 68.6641L20.8355 67.9883V64.1254C22.8838 63.402 24.3555 61.4469 24.3555 59.1541V56.8921C24.3555 56.4752 24.6947 56.1359 25.1117 56.1359H28.3734C29.2703 56.1359 30 55.4063 30 54.5094V53.4942C30 52.9229 29.6864 52.4023 29.1813 52.1354ZM26.599 49.1293C26.8099 49.1551 27.0203 49.1524 27.226 49.1218C27.226 49.3706 27.1716 49.588 27.0631 49.7714C26.8893 50.065 26.6022 50.2359 26.3994 50.3261C26.1747 50.1495 25.953 49.9691 25.7368 49.7824C25.65 49.7075 25.5589 49.6387 25.4647 49.5752C25.7344 49.3276 26.134 49.0723 26.599 49.1293ZM21.1195 49.1293C21.5846 49.0723 21.9839 49.3273 22.2534 49.5746C21.9411 49.7852 21.6696 50.0578 21.4578 50.3808C21.2759 50.3171 20.8794 50.1428 20.66 49.779C20.5485 49.5939 20.4926 49.3741 20.4925 49.1219C20.6981 49.1525 20.9085 49.1552 21.1195 49.1293ZM1.17399 58.6178L1.17381 58.4978C2.46528 58.5214 3.50871 59.5785 3.50871 60.8756C3.50871 61.3519 3.36703 61.8084 3.10911 62.1948C1.89791 61.4011 1.17586 60.0703 1.17399 58.6178ZM8.00409 68.4119L8.35272 69.063H7.16332C7.14955 68.9261 7.10895 68.7908 7.0411 68.6641L6.67916 67.9883V65.1605C6.9876 64.9592 7.25877 64.7147 7.487 64.4374H7.93465V68.1352C7.93465 68.2318 7.9585 68.3268 8.00409 68.4119ZM19.733 68.4119L20.0817 69.063H18.8356C18.8187 68.8926 18.7611 68.7258 18.6628 68.5776L18.4462 68.2515V65.129C18.7181 64.922 18.9598 64.6846 19.1687 64.4235C19.3356 64.4209 19.5007 64.4105 19.6636 64.3927V68.1354C19.6637 68.2318 19.6875 68.3268 19.733 68.4119ZM23.1836 56.9245C23.1824 57.6922 22.5575 58.3164 21.7896 58.3164H17.5419C17.2819 58.3164 17.0704 58.1049 17.0704 57.8449C17.0704 57.585 17.2819 57.3735 17.5419 57.3735H17.5854C18.4172 57.3735 19.094 56.6967 19.094 55.8648C19.094 55.6791 19.2451 55.5281 19.4308 55.5281H21.7896C22.5575 55.5281 23.1824 56.1523 23.1836 56.92V56.9245ZM28.8281 54.5093C28.8281 54.76 28.6242 54.964 28.3734 54.964H25.1117C24.6383 54.964 24.2045 55.1358 23.8685 55.4199C23.4019 54.7759 22.6439 54.3562 21.7896 54.3562H19.4308C18.5989 54.3562 17.9221 55.033 17.9221 55.8648C17.9221 56.0506 17.7711 56.2016 17.5854 56.2016H17.5419C16.6357 56.2016 15.8985 56.9388 15.8985 57.8449C15.8985 58.7511 16.6357 59.4882 17.5419 59.4882H21.7896C22.3034 59.4882 22.7818 59.3354 23.1836 59.0742V59.1541C23.1836 61.1529 21.745 62.8211 19.849 63.1802C19.9917 62.7592 20.0674 62.3117 20.0674 61.8522V61.2421C20.0674 60.9186 19.805 60.6562 19.4814 60.6562C19.1579 60.6562 18.8955 60.9186 18.8955 61.2421V61.8522C18.8955 62.8595 18.3899 63.7866 17.543 64.3322C17.3756 64.4401 17.2744 64.6256 17.2744 64.8247V68.4282C17.2744 68.5436 17.3084 68.6564 17.3722 68.7523L17.5785 69.063H16.0414V64.9419C16.0414 64.7813 15.9755 64.6277 15.859 64.5171C15.4784 64.1555 15.2601 63.6471 15.2601 63.1221V61.4667C15.2601 61.1431 14.9978 60.8807 14.6742 60.8807C14.3506 60.8807 14.0882 61.1431 14.0882 61.4667V63.1221C14.0882 63.17 14.0894 63.2178 14.0916 63.2655H8.12754C8.24051 62.9148 8.30033 62.543 8.30033 62.1611V61.0857C8.30033 60.7622 8.03795 60.4998 7.7144 60.4998C7.39084 60.4998 7.12846 60.7622 7.12846 61.0857V62.1611C7.12846 63.0669 6.62866 63.8881 5.82411 64.3042C5.62952 64.4048 5.50735 64.6056 5.50735 64.8247V68.1352C5.50735 68.2317 5.5312 68.3268 5.57678 68.4118L5.92547 69.0629H4.09852V64.9419C4.09852 64.886 4.09055 64.8305 4.07485 64.7769L3.66077 63.3653C4.31262 62.7037 4.68065 61.8151 4.68065 60.8755C4.68065 58.9318 3.11069 57.3487 1.17235 57.3258L1.17188 56.9742C1.17053 55.8444 1.60957 54.7819 2.40803 53.9825C2.72514 53.665 3.08438 53.4052 3.47239 53.2061V54.7661C3.47239 55.6061 4.15577 56.2895 4.99582 56.2895C5.19762 56.2895 5.37551 56.411 5.44899 56.5989C5.82041 57.55 6.72018 58.1645 7.74123 58.1645H10.9138C11.7539 58.1645 12.4372 57.4811 12.4372 56.6411C12.4372 56.4472 12.595 56.2895 12.7889 56.2895C13.7581 56.2895 14.5466 55.5009 14.5466 54.5317V52.7429H19.6752C20.7981 52.7429 21.8289 52.1301 22.3652 51.1437C22.6632 50.5959 23.2356 50.2556 23.8592 50.2556C24.2673 50.2556 24.6619 50.4025 24.9708 50.6692C26.0919 51.6374 27.3243 52.4793 28.6337 53.1714C28.7537 53.2348 28.8281 53.3584 28.8281 53.4941V54.5093Z" fill="black"/>
<path d="M24.8438 52.0236C24.6896 52.0236 24.5385 52.0863 24.4295 52.1952C24.3205 52.3042 24.2578 52.4555 24.2578 52.6101C24.2578 52.7642 24.3204 52.9154 24.4295 53.0243C24.5385 53.1333 24.6896 53.1954 24.8438 53.1954C24.9979 53.1954 25.149 53.1334 25.2579 53.0243C25.3669 52.9148 25.4297 52.7642 25.4297 52.6101C25.4297 52.4554 25.367 52.3048 25.2579 52.1952C25.149 52.0863 24.9979 52.0236 24.8438 52.0236Z" fill="black"/>
<path d="M9.00928 52.7432C9.16338 52.7432 9.31455 52.6805 9.42354 52.5715C9.53246 52.4625 9.59521 52.3113 9.59521 52.1572C9.59521 52.0025 9.53252 51.8514 9.42354 51.7424C9.31455 51.6334 9.16332 51.5713 9.00928 51.5713C8.85518 51.5713 8.704 51.6334 8.59502 51.7424C8.48609 51.852 8.42334 52.0025 8.42334 52.1572C8.42334 52.3113 8.48604 52.4625 8.59502 52.5715C8.704 52.6804 8.85518 52.7432 9.00928 52.7432Z" fill="black"/>
</g>
<g clip-path="url(#clip7)">
<path d="M62.0297 102.998H58.5976L56.5859 107.522L59.8476 105.342H63.9529L62.0297 102.998Z" fill="#FFAD95"/>
<path d="M64.022 105.344L59.6736 107.854L60.2238 112.695L61.8006 109.29L65.5896 107.122L64.022 105.344Z" fill="#FFAD95"/>
<path d="M66.6792 108.245L63.9668 110.957L65.8985 115.423L66.3623 111.876L68.6734 109.565" fill="#FFAD95"/>
<path d="M79.9706 102.998H83.4027L85.4144 107.522L82.1527 105.342H78.0474L79.9706 102.998Z" fill="#FFAD95"/>
<path d="M77.9778 105.344L82.3262 107.854L81.7759 112.695L80.1992 109.29L76.4102 107.122L77.9778 105.344Z" fill="#FFAD95"/>
<path d="M75.3208 108.245L78.0333 110.957L76.1016 115.423L75.6377 111.876L73.3267 109.565L75.3208 108.245Z" fill="#FFAD95"/>
<path d="M79.5745 100.482L82.3261 99.4751V96.961L84.8866 97.4697V98.882C84.8866 100.247 84.0492 101.473 82.7771 101.969L79.7657 103.144L79.5745 100.482Z" fill="#FFAD95"/>
<path d="M62.4254 100.482L59.6738 99.4751V96.961L57.1133 97.4697V98.882C57.1133 100.247 57.9508 101.473 59.2228 101.969L62.2343 103.144L62.4254 100.482Z" fill="#FFAD95"/>
<path d="M60.1895 92.8408L61.0842 88.5767C58.4664 89.4808 56.5859 91.9665 56.5859 94.8916C56.5859 95.8054 56.7697 96.6763 57.1019 97.4696C57.1057 97.4696 57.1095 97.4697 57.1133 97.4697C60.7866 97.4697 63.7669 94.5046 63.7924 90.8373C62.0403 91.8116 60.1895 92.8408 60.1895 92.8408Z" fill="#FF9171"/>
<path d="M81.8107 92.8408L80.916 88.5767C83.5338 89.4808 85.4142 91.9665 85.4142 94.8916C85.4142 95.8054 85.2305 96.6763 84.8983 97.4696C84.8945 97.4696 84.8907 97.4697 84.8869 97.4697C81.2136 97.4697 78.2333 94.5046 78.2078 90.8373C79.9598 91.8116 81.8107 92.8408 81.8107 92.8408Z" fill="#FF9171"/>
<path d="M79.0388 104.268L75.2001 108.107C72.8805 110.427 69.1197 110.427 66.8 108.107L62.9613 104.268C61.7193 103.026 61.7193 101.013 62.9613 99.7706C67.401 95.3309 74.5991 95.3309 79.0388 99.7706C80.2809 101.013 80.2809 103.026 79.0388 104.268Z" fill="#FF9171"/>
<path d="M75.3394 97.2231C75.9866 97.2231 76.5112 96.6985 76.5112 96.0513C76.5112 95.4041 75.9866 94.8794 75.3394 94.8794C74.6921 94.8794 74.1675 95.4041 74.1675 96.0513C74.1675 96.6985 74.6921 97.2231 75.3394 97.2231Z" fill="#8AA8BD"/>
<path d="M66.6609 97.2231C67.3081 97.2231 67.8328 96.6985 67.8328 96.0513C67.8328 95.4041 67.3081 94.8794 66.6609 94.8794C66.0137 94.8794 65.489 95.4041 65.489 96.0513C65.489 96.6985 66.0137 97.2231 66.6609 97.2231Z" fill="#8AA8BD"/>
<path d="M85.9494 107.284L83.9377 102.76C83.8437 102.548 83.6339 102.412 83.4023 102.412H83.229C84.6001 101.772 85.4727 100.413 85.4727 98.882V97.6117C85.8117 96.773 85.9892 95.8867 85.9995 94.9754C86.0031 94.6518 85.7438 94.3865 85.4202 94.3828C85.4179 94.3828 85.4157 94.3828 85.4135 94.3828C85.093 94.3828 84.8314 94.6408 84.8277 94.9621C84.8203 95.6182 84.7099 96.2587 84.4993 96.8714C81.6957 96.6935 79.3909 94.5996 78.8931 91.8888L81.5258 93.3528C81.7263 93.4643 81.9734 93.4485 82.1582 93.3125C82.3428 93.1763 82.4311 92.945 82.384 92.7204L81.7255 89.5824C82.2132 89.8581 82.6644 90.2011 83.0597 90.5995C83.2877 90.8292 83.6587 90.8306 83.8883 90.6026C84.118 90.3746 84.1194 90.0037 83.8915 89.774C83.1115 88.9881 82.1487 88.3825 81.1071 88.0228C80.9077 87.954 80.6867 87.9975 80.5284 88.1371C80.3701 88.2766 80.2991 88.4905 80.3424 88.697L80.9735 91.7049L78.4925 90.3252C78.3103 90.2239 78.0881 90.227 77.9089 90.3333C77.7296 90.4396 77.6203 90.633 77.6218 90.8413C77.6352 92.7713 78.3968 94.5836 79.7663 95.9444C80.3512 96.5256 81.0181 96.9948 81.7403 97.3424V99.0655L79.8112 99.7711C79.7034 99.6264 79.5843 99.4875 79.453 99.3563C78.5946 98.4979 77.637 97.7978 76.6168 97.2556C76.9138 96.9407 77.097 96.5173 77.097 96.0513C77.097 95.082 76.3084 94.2935 75.3392 94.2935C74.3699 94.2935 73.5814 95.082 73.5814 96.0513C73.5814 96.0815 73.5827 96.1114 73.5842 96.1412C71.8833 95.7673 70.116 95.7675 68.415 96.1415C68.4165 96.1115 68.4186 96.0817 68.4186 96.0514C68.4186 95.0821 67.63 94.2935 66.6608 94.2935C65.6915 94.2935 64.903 95.0821 64.903 96.0514C64.903 96.5174 65.0859 96.941 65.383 97.256C64.3629 97.7982 63.4052 98.498 62.5468 99.3564C62.4156 99.4876 62.2966 99.6265 62.1888 99.7712L60.2598 99.0654V97.3424C60.982 96.9948 61.6488 96.5256 62.2338 95.9444C63.6033 94.5836 64.3649 92.7713 64.3784 90.8413C64.3798 90.633 64.2704 90.4395 64.0913 90.3333C63.9119 90.227 63.6898 90.224 63.5077 90.3252L61.0265 91.7049L61.6576 88.6969C61.7009 88.4904 61.6299 88.2766 61.4717 88.1371C61.3133 87.9975 61.0922 87.954 60.8929 88.0227C57.9663 89.0336 56.0001 91.7939 56.0001 94.8916C56.0001 95.8322 56.1778 96.7467 56.5274 97.6116V98.882C56.5274 100.413 57.4 101.772 58.771 102.412H58.5977C58.3662 102.412 58.1564 102.549 58.0623 102.76L56.0506 107.284C55.9446 107.522 56.009 107.802 56.2085 107.97C56.317 108.061 56.4513 108.108 56.5861 108.108C56.6991 108.108 56.8126 108.075 56.9115 108.009L60.0255 105.928H61.8384L59.3809 107.346C59.1789 107.463 59.0653 107.688 59.0916 107.92L59.6419 112.761C59.6715 113.022 59.8712 113.231 60.1306 113.273C60.162 113.278 60.1933 113.28 60.2243 113.28C60.4497 113.28 60.6588 113.15 60.7558 112.941L62.254 109.705L65.635 107.771L65.9799 108.116L63.5524 110.543C63.3826 110.713 63.3336 110.969 63.429 111.19L65.3606 115.656C65.4544 115.873 65.6672 116.009 65.8982 116.009C65.9251 116.009 65.9524 116.007 65.9797 116.004C66.2408 115.967 66.4453 115.761 66.4795 115.499L66.9175 112.15L68.9621 110.105C69.6228 110.321 70.3114 110.43 71 110.43C71.6886 110.43 72.3772 110.321 73.0379 110.105L75.0826 112.15L75.5206 115.499C75.5549 115.761 75.7594 115.967 76.0204 116.004C76.0478 116.007 76.0749 116.009 76.102 116.009C76.3328 116.009 76.5457 115.873 76.6395 115.656L78.5711 111.19C78.6665 110.969 78.6176 110.713 78.4477 110.543L76.0202 108.116L76.3651 107.771L79.7461 109.705L81.2444 112.941C81.3413 113.15 81.5505 113.281 81.7758 113.28C81.8068 113.28 81.8382 113.278 81.8696 113.273C82.1289 113.231 82.3286 113.022 82.3582 112.761L82.9085 107.92C82.9349 107.688 82.8213 107.463 82.6192 107.346L80.1617 105.928H81.9746L85.0886 108.009C85.1875 108.075 85.301 108.108 85.4141 108.108C85.5489 108.108 85.6832 108.061 85.7916 107.97C85.991 107.802 86.0554 107.522 85.9494 107.284ZM84.3008 98.0321V98.882C84.3008 99.378 84.1699 99.8481 83.9343 100.254L82.9122 99.2323V97.785C83.3625 97.9114 83.8271 97.9944 84.3008 98.0321ZM82.1763 100.154L83.1392 101.117C82.9634 101.239 82.7711 101.343 82.5643 101.423L80.5495 102.209C80.5729 101.74 80.5088 101.268 80.3584 100.819L82.1763 100.154ZM75.3392 95.4653C75.6623 95.4653 75.9251 95.7282 75.9251 96.0512C75.9251 96.3743 75.6623 96.6372 75.3392 96.6372C75.0161 96.6372 74.7532 96.3743 74.7532 96.0512C74.7532 95.7282 75.0162 95.4653 75.3392 95.4653ZM66.6608 95.4653C66.9839 95.4653 67.2468 95.7282 67.2468 96.0512C67.2468 96.3743 66.9839 96.6372 66.6608 96.6372C66.3377 96.6372 66.0749 96.3743 66.0749 96.0512C66.0749 95.7282 66.3377 95.4653 66.6608 95.4653ZM61.4505 102.209L59.4357 101.423C59.2289 101.343 59.0366 101.239 58.8608 101.117L59.8236 100.154L61.6415 100.819C61.4912 101.268 61.4271 101.74 61.4505 102.209ZM59.0879 99.2323L58.0658 100.254C57.8301 99.8481 57.6993 99.378 57.6993 98.882V98.0321C58.173 97.9944 58.6375 97.9114 59.0879 97.785V99.2323ZM60.2749 89.5804L59.6161 92.7204C59.5689 92.945 59.6572 93.1763 59.8419 93.3125C60.0266 93.4486 60.2738 93.4644 60.4743 93.3528L63.107 91.8888C62.609 94.6012 60.3024 96.6959 57.5008 96.8717C57.2824 96.2368 57.1719 95.5724 57.1719 94.8915C57.1719 92.6648 58.3834 90.6458 60.2749 89.5804ZM59.8477 104.756C59.7318 104.756 59.6185 104.79 59.5221 104.855L57.9444 105.909L58.9783 103.584H61.7845C61.9659 103.982 62.2197 104.355 62.5468 104.683L62.6201 104.756H59.8477ZM61.5099 108.781C61.4043 108.841 61.3202 108.933 61.2692 109.043L60.5703 110.552L60.2994 108.169L63.935 106.071L64.7763 106.912L61.5099 108.781ZM65.948 111.462C65.8566 111.553 65.798 111.672 65.7813 111.8L65.5929 113.241L64.6626 111.09L66.8281 108.925C67.1384 109.183 67.4671 109.408 67.8097 109.6L65.948 111.462ZM67.2143 107.693L63.3755 103.854C62.364 102.842 62.364 101.196 63.3756 100.185C65.4776 98.0828 68.2388 97.0318 71 97.0318C73.7611 97.0318 76.5224 98.0829 78.6244 100.185C79.636 101.196 79.636 102.842 78.6244 103.854L74.7857 107.693C72.6983 109.78 69.3017 109.78 67.2143 107.693ZM76.4071 113.241L76.2187 111.8C76.202 111.672 76.1434 111.553 76.052 111.462L74.1903 109.6C74.5329 109.408 74.8615 109.183 75.1719 108.925L77.3374 111.09L76.4071 113.241ZM81.4298 110.552L80.7309 109.043C80.6798 108.933 80.5957 108.841 80.4902 108.781L77.2238 106.912L78.0651 106.071L81.7007 108.169L81.4298 110.552ZM82.4779 104.855C82.3815 104.79 82.2682 104.756 82.1523 104.756H79.3798L79.4531 104.683C79.4531 104.683 79.4531 104.683 79.4531 104.683C79.7803 104.355 80.0341 103.982 80.2155 103.584H83.0216L84.0556 105.909L82.4779 104.855Z" fill="black"/>
<path d="M84.9285 92.973C84.7744 92.973 84.6232 92.9103 84.5142 92.8013C84.4053 92.6924 84.3425 92.5412 84.3425 92.3871C84.3425 92.233 84.4052 92.0818 84.5142 91.9728C84.6232 91.8638 84.7744 91.8011 84.9285 91.8011C85.0832 91.8011 85.2343 91.8638 85.3433 91.9728C85.4522 92.0818 85.515 92.233 85.515 92.3871C85.515 92.5412 85.4523 92.6924 85.3433 92.8013C85.2337 92.9103 85.0831 92.973 84.9285 92.973Z" fill="black"/>
</g>
<g clip-path="url(#clip8)">
<path d="M138.445 93.8848C138.427 93.2947 138.028 92.7834 137.471 92.5885L134.965 91.712C133.662 90.0694 131.107 87.5859 126.472 87.5859C124.794 87.5859 123.19 87.9098 121.705 88.4966C120.803 88.8528 119.8 88.8805 118.888 88.5524C118.358 88.3618 117.786 88.2577 117.19 88.2577C115.119 88.2577 113.341 89.5074 112.566 91.2935C113.534 91.0042 114.573 91.011 115.538 91.3152C116.141 91.5053 116.353 92.2455 115.951 92.7331C113.768 95.3799 112.451 98.7997 112.451 102.392C112.451 105.35 113.388 107.833 114.952 109.985C115.388 110.585 115.158 111.435 114.483 111.741L113.414 112.226C111.823 112.948 111.117 114.822 111.839 116.414L115.273 114.857C116.024 114.516 116.601 113.915 116.92 113.209C117.151 112.696 117.78 112.516 118.252 112.822C118.886 113.234 119.668 113.421 120.473 113.292L124.196 112.694C123.92 110.969 122.297 109.795 120.571 110.072L118.882 110.343C118.286 110.438 117.745 109.978 117.745 109.374C117.745 104.754 119.835 101.093 123.141 98.6706C123.84 100.492 123.882 102.554 122.773 103.919C124.054 103.654 125.242 102.924 126.061 101.775C127.148 100.248 127.323 98.3476 126.697 96.7201C128.962 95.8185 131.526 95.3419 134.232 95.3419H137.035C137.83 95.3418 138.471 94.6851 138.445 93.8848Z" fill="#80B6FF"/>
<path d="M139.031 93.8662C139.005 93.0479 138.455 92.3122 137.664 92.0353L135.316 91.2143C133.042 88.4177 130.067 87 126.472 87C124.764 87 123.087 87.3202 121.489 87.9517C120.708 88.2602 119.855 88.2776 119.085 88.0011C118.478 87.7826 117.84 87.6718 117.19 87.6718C114.947 87.6718 112.921 89.0018 112.028 91.0604C111.938 91.2694 111.976 91.5121 112.128 91.6825C112.279 91.8529 112.516 91.9202 112.734 91.8549C113.596 91.5973 114.504 91.6038 115.361 91.874C115.493 91.9155 115.541 92.0172 115.558 92.0741C115.572 92.1216 115.594 92.2445 115.499 92.3602C113.76 94.4686 112.587 96.9961 112.107 99.6694C112.05 99.988 112.262 100.293 112.581 100.35C112.616 100.356 112.65 100.359 112.685 100.359C112.963 100.359 113.21 100.16 113.261 99.8764C113.705 97.4006 114.792 95.0593 116.403 93.1058C116.717 92.7245 116.821 92.2145 116.681 91.7414C116.542 91.2718 116.18 90.9036 115.713 90.7564C115.064 90.5517 114.392 90.4669 113.723 90.5021C114.555 89.4691 115.821 88.8436 117.19 88.8436C117.704 88.8436 118.209 88.9311 118.689 89.1038C119.726 89.4769 120.874 89.4546 121.919 89.0416C123.38 88.4645 124.912 88.1719 126.472 88.1719C129.748 88.1719 132.451 89.4854 134.506 92.0761C134.574 92.163 134.667 92.2285 134.771 92.2651L137.277 93.1415C137.615 93.2596 137.849 93.5658 137.859 93.9035C137.866 94.1294 137.784 94.343 137.627 94.5048C137.471 94.6668 137.26 94.756 137.035 94.756H134.232C131.659 94.756 129.232 95.1663 127.008 95.975C126.938 95.836 126.863 95.6989 126.781 95.5642C126.614 95.2875 126.253 95.199 125.977 95.3665C125.7 95.5341 125.611 95.8944 125.779 96.1712C126.771 97.8091 126.694 99.8751 125.583 101.435C125.16 102.029 124.614 102.511 123.988 102.855C124.537 101.091 124.064 98.9679 123.181 97.3675C123.024 97.0842 122.668 96.9813 122.384 97.1375C122.101 97.2938 121.998 97.6502 122.154 97.9336C122.251 98.1082 122.341 98.29 122.426 98.4769C120.834 99.7189 119.576 101.214 118.683 102.927C117.672 104.868 117.159 107.037 117.159 109.374C117.159 109.834 117.36 110.268 117.71 110.567C118.059 110.865 118.52 110.994 118.974 110.921L120.664 110.65C121.344 110.541 122.025 110.703 122.583 111.107C122.979 111.393 123.279 111.777 123.459 112.219L120.38 112.713C119.749 112.814 119.106 112.679 118.571 112.331C118.201 112.091 117.747 112.024 117.327 112.147C116.908 112.27 116.565 112.569 116.385 112.968C116.115 113.569 115.634 114.05 115.031 114.323L112.191 115.611C112.097 115.143 112.135 114.658 112.307 114.2C112.55 113.556 113.029 113.044 113.656 112.76L114.724 112.275C115.209 112.055 115.566 111.634 115.702 111.119C115.837 110.607 115.736 110.068 115.426 109.641C114.335 108.14 113.635 106.589 113.286 104.897C113.221 104.58 112.911 104.377 112.594 104.442C112.277 104.507 112.073 104.817 112.139 105.134C112.517 106.967 113.304 108.715 114.478 110.33C114.619 110.523 114.595 110.719 114.569 110.819C114.523 110.992 114.404 111.134 114.241 111.208L113.172 111.692C112.26 112.106 111.563 112.85 111.211 113.788C110.858 114.725 110.892 115.744 111.305 116.656C111.403 116.872 111.616 117 111.839 117C111.92 117 112.002 116.983 112.081 116.948L115.515 115.391C116.377 115 117.066 114.31 117.454 113.45C117.507 113.331 117.604 113.287 117.657 113.272C117.711 113.256 117.819 113.24 117.933 113.314C118.712 113.82 119.648 114.018 120.566 113.87L124.289 113.273C124.609 113.222 124.826 112.921 124.775 112.602C124.616 111.613 124.082 110.745 123.27 110.158C122.459 109.57 121.467 109.335 120.478 109.493L118.789 109.764C118.632 109.79 118.522 109.719 118.47 109.675C118.418 109.631 118.331 109.533 118.331 109.374C118.331 105.43 119.887 102.083 122.842 99.6449C123.21 101.032 123.16 102.514 122.318 103.55C122.162 103.742 122.144 104.012 122.272 104.224C122.38 104.401 122.571 104.505 122.773 104.505C122.812 104.505 122.852 104.501 122.892 104.493C124.369 104.187 125.663 103.342 126.538 102.115C127.596 100.628 127.899 98.7724 127.429 97.0691C129.519 96.3122 131.804 95.9279 134.232 95.9279H137.035C137.58 95.9279 138.09 95.7121 138.469 95.3203C138.849 94.9284 139.048 94.4121 139.031 93.8662Z" fill="black"/>
<path d="M130.304 92.6068C130.413 92.4978 130.475 92.3467 130.475 92.1926C130.475 92.0385 130.413 91.8873 130.304 91.7783C130.195 91.6693 130.044 91.6066 129.889 91.6066C129.735 91.6066 129.584 91.6693 129.475 91.7783C129.366 91.8873 129.303 92.0385 129.303 92.1926C129.303 92.3467 129.366 92.4978 129.475 92.6068C129.584 92.7157 129.735 92.7785 129.889 92.7785C130.044 92.7785 130.195 92.7158 130.304 92.6068Z" fill="black"/>
<path d="M112.864 102.806C112.973 102.697 113.036 102.546 113.036 102.392C113.036 102.238 112.973 102.087 112.864 101.978C112.755 101.869 112.604 101.806 112.45 101.806C112.296 101.806 112.145 101.869 112.035 101.978C111.926 102.087 111.864 102.238 111.864 102.392C111.864 102.546 111.926 102.697 112.035 102.806C112.145 102.915 112.296 102.978 112.45 102.978C112.604 102.978 112.755 102.915 112.864 102.806Z" fill="black"/>
</g>
<defs>
<clipPath id="clip0">
<rect width="30" height="30" fill="white" transform="translate(110 1)"/>
</clipPath>
<clipPath id="clip1">
<rect width="30" height="30" fill="white" transform="translate(0 87)"/>
</clipPath>
<clipPath id="clip2">
<rect width="30" height="30" fill="white" transform="translate(55 44)"/>
</clipPath>
<clipPath id="clip3">
<rect width="30" height="30" fill="white" transform="translate(0 1)"/>
</clipPath>
<clipPath id="clip4">
<rect width="30" height="30" fill="white" transform="translate(0 130)"/>
</clipPath>
<clipPath id="clip5">
<rect width="30" height="30" fill="white" transform="translate(56 130)"/>
</clipPath>
<clipPath id="clip6">
<rect width="30" height="30" fill="white" transform="translate(0 44)"/>
</clipPath>
<clipPath id="clip7">
<rect width="30" height="30" fill="white" transform="translate(56 87)"/>
</clipPath>
<clipPath id="clip8">
<rect width="30" height="30" fill="white" transform="translate(110 87)"/>
</clipPath>
</defs>
</svg>
