<svg width="186" height="146" viewBox="0 0 186 146" fill="none" xmlns="http://www.w3.org/2000/svg">
<g filter="url(#filter0_d_672_4959)">
<rect x="41" y="34.7056" width="80" height="100" rx="5" transform="rotate(-15 41 34.7056)" fill="#0CCA98"/>
</g>
<ellipse cx="92.5781" cy="72.6491" rx="2.04082" ry="2.04082" transform="rotate(-15 92.5781 72.6491)" fill="#202040"/>
<path d="M82.6389 75.0655C82.5508 75.1502 82.5237 75.2805 82.5694 75.3938C85.5823 82.8589 92.9049 87.3867 100.589 87.1342C100.772 87.1282 100.907 86.9607 100.876 86.78L99.9843 81.5774C99.9636 81.4566 99.8727 81.36 99.7539 81.33C95.098 80.1522 91.087 76.7616 89.3197 71.9049C89.3059 71.8669 89.2923 71.829 89.2788 71.791C89.2262 71.6429 89.0717 71.5554 88.9191 71.5931C86.4663 72.1993 84.3379 73.431 82.6389 75.0655Z" fill="#202040"/>
<path d="M89.0659 61.8837C89.1743 61.8629 89.2637 61.7863 89.3012 61.6824C90.7579 57.6424 93.9286 54.255 98.2769 52.6719C102.217 51.2373 106.369 51.5596 109.876 53.2389C109.951 53.2749 110.038 53.2796 110.116 53.2511L110.235 53.2077C110.468 53.1231 110.508 52.8134 110.302 52.6773C105.513 49.5191 99.3452 48.5888 93.5437 50.7009C87.2772 52.9824 82.9646 58.2577 81.6306 64.3267C81.5724 64.5914 81.8673 64.7863 82.0967 64.6423C84.2155 63.3122 86.5826 62.3587 89.0659 61.8837Z" fill="#202040"/>
<path d="M85.5216 81.7603C85.2697 81.4938 84.8974 81.3766 84.5373 81.4461C80.4296 82.2387 76.0133 81.316 72.4568 78.5347C69.1578 75.9548 67.2301 72.2694 66.7883 68.412C66.7772 68.3148 66.7282 68.2258 66.6511 68.1656V68.1656C66.4217 67.9862 66.0873 68.1391 66.082 68.4303C65.9782 74.1321 68.4601 79.8132 73.2969 83.5958C78.0857 87.3408 84.1198 88.3936 89.5789 86.9777C90.4288 86.7572 90.4882 85.6175 89.738 85.1613C88.1954 84.2232 86.7708 83.0812 85.5216 81.7603Z" fill="#202040"/>
<path d="M100.171 79.653C99.9352 79.9857 99.5124 80.1294 99.1248 80.0028C97.0683 79.3316 95.1399 78.18 93.5289 76.5359C93.3737 76.3774 93.3673 76.1282 93.5038 75.9534V75.9534C96.5808 72.0111 97.3777 67.0113 96.0899 62.5445C95.979 62.1598 96.0869 61.7415 96.3857 61.475L99.3959 58.7892C99.8431 58.3903 100.541 58.471 100.853 58.982C104.681 65.2338 104.609 73.3873 100.171 79.653Z" fill="#202040"/>
<path d="M103.697 74.6096C103.595 74.9515 103.672 75.3219 103.899 75.5973C106.536 78.7997 107.843 83.0747 107.144 87.4947C106.49 91.632 104.205 95.1045 101.049 97.3597C100.969 97.4166 100.915 97.5028 100.9 97.5996V97.5996C100.854 97.8874 101.151 98.1057 101.408 97.9691C106.441 95.298 110.201 90.3738 111.159 84.3078C112.11 78.2891 110.092 72.4851 106.189 68.3908C105.576 67.7474 104.541 68.2715 104.527 69.1604C104.498 70.9971 104.225 72.8352 103.697 74.6096Z" fill="#202040"/>
<path d="M94.3636 62.6613C94.7575 62.6986 95.0864 62.9777 95.1813 63.3617C95.704 65.4756 95.7452 67.737 95.1918 69.989C95.1355 70.2179 94.9084 70.3583 94.6756 70.3213V70.3213C89.7379 69.5374 84.9825 71.2613 81.7041 74.5516C81.4211 74.8355 81.0023 74.944 80.624 74.8114L76.8153 73.4769C76.2504 73.279 75.9832 72.6308 76.2777 72.1097C79.8345 65.8165 86.8507 61.9491 94.3636 62.6613Z" fill="#202040"/>
<g filter="url(#filter1_d_672_4959)">
<rect x="65" y="30" width="80" height="100" rx="5" fill="#0CCA98"/>
</g>
<ellipse cx="105" cy="79.9998" rx="2.04082" ry="2.04082" fill="#202040"/>
<path d="M94.774 79.7614C94.667 79.8205 94.607 79.9393 94.6219 80.0606C95.6001 88.0511 101.501 94.3198 108.989 96.0647C109.167 96.1064 109.34 95.9794 109.357 95.7967L109.843 90.5407C109.854 90.4187 109.791 90.3019 109.684 90.2421C105.492 87.8994 102.495 83.5863 102.045 78.4376C102.042 78.3974 102.038 78.3572 102.035 78.317C102.023 78.1603 101.896 78.0358 101.739 78.0328C99.2128 77.9835 96.8381 78.6224 94.774 79.7614Z" fill="#202040"/>
<path d="M104.394 68.6922C104.504 68.7002 104.61 68.6493 104.673 68.5587C107.126 65.0333 111.065 62.582 115.675 62.1783C119.853 61.8124 123.78 63.1984 126.732 65.7281C126.796 65.7823 126.878 65.8092 126.961 65.8019L127.087 65.7908C127.334 65.7693 127.453 65.4806 127.289 65.2957C123.48 61.0057 117.764 58.5108 111.613 59.0494C104.97 59.6312 99.4387 63.6106 96.5794 69.1276C96.4547 69.3681 96.6891 69.6328 96.948 69.5531C99.3388 68.8166 101.872 68.5083 104.394 68.6922Z" fill="#202040"/>
<path d="M95.8261 86.9743C95.6517 86.6517 95.3225 86.4421 94.9567 86.416C90.7837 86.1185 86.7567 84.0842 84.0413 80.4772C81.5225 77.1313 80.6143 73.0726 81.1859 69.2323C81.2003 69.1355 81.176 69.0369 81.1172 68.9588V68.9588C80.942 68.7261 80.5794 68.7873 80.4989 69.0671C78.9229 74.5479 79.8499 80.6777 83.5429 85.5832C87.1992 90.44 92.7552 93.0188 98.3948 93.064C99.2728 93.071 99.6251 91.9855 99.0185 91.3507C97.7713 90.0453 96.6909 88.5735 95.8261 86.9743Z" fill="#202040"/>
<path d="M110.522 88.7303C110.208 88.9907 109.762 89.02 109.421 88.7975C107.608 87.6168 106.043 86.0054 104.913 84.0003C104.804 83.8071 104.862 83.5647 105.039 83.4311V83.4311C109.032 80.4196 111.096 75.7964 111.008 71.1485C111 70.7482 111.213 70.3721 111.57 70.192L115.173 68.3769C115.708 68.1073 116.361 68.3657 116.531 68.9403C118.61 75.9697 116.43 83.8267 110.522 88.7303Z" fill="#202040"/>
<path d="M115.233 84.7713C115.046 85.0753 115.025 85.4531 115.172 85.7778C116.891 89.5536 117.046 94.021 115.228 98.1096C113.525 101.937 110.419 104.7 106.787 106.061C106.695 106.095 106.621 106.165 106.581 106.254V106.254C106.462 106.52 106.692 106.808 106.976 106.742C112.528 105.465 117.435 101.682 119.931 96.0705C122.407 90.503 121.96 84.3744 119.249 79.4096C118.824 78.6292 117.689 78.8678 117.445 79.7228C116.941 81.4893 116.202 83.194 115.233 84.7713Z" fill="#202040"/>
<path d="M109.31 70.8146C109.681 70.9526 109.926 71.3072 109.918 71.7028C109.876 73.8799 109.331 76.0749 108.213 78.107C108.1 78.3135 107.844 78.3903 107.629 78.2944V78.2944C103.062 76.2592 98.0226 76.6935 94.0042 79.0231C93.6574 79.2242 93.2248 79.2206 92.8937 78.9946L89.5602 76.7198C89.0657 76.3824 88.9754 75.6871 89.3947 75.26C94.4592 70.1018 102.237 68.1821 109.31 70.8146Z" fill="#202040"/>
<defs>
<filter id="filter0_d_672_4959" x="36.1226" y="9.12256" width="112.911" height="127.053" filterUnits="userSpaceOnUse" color-interpolation-filters="sRGB">
<feFlood flood-opacity="0" result="BackgroundImageFix"/>
<feColorMatrix in="SourceAlpha" type="matrix" values="0 0 0 0 0 0 0 0 0 0 0 0 0 0 0 0 0 0 127 0" result="hardAlpha"/>
<feOffset/>
<feGaussianBlur stdDeviation="3"/>
<feComposite in2="hardAlpha" operator="out"/>
<feColorMatrix type="matrix" values="0 0 0 0 0 0 0 0 0 0 0 0 0 0 0 0 0 0 0.25 0"/>
<feBlend mode="normal" in2="BackgroundImageFix" result="effect1_dropShadow_672_4959"/>
<feBlend mode="normal" in="SourceGraphic" in2="effect1_dropShadow_672_4959" result="shape"/>
</filter>
<filter id="filter1_d_672_4959" x="59" y="24" width="92" height="112" filterUnits="userSpaceOnUse" color-interpolation-filters="sRGB">
<feFlood flood-opacity="0" result="BackgroundImageFix"/>
<feColorMatrix in="SourceAlpha" type="matrix" values="0 0 0 0 0 0 0 0 0 0 0 0 0 0 0 0 0 0 127 0" result="hardAlpha"/>
<feOffset/>
<feGaussianBlur stdDeviation="3"/>
<feComposite in2="hardAlpha" operator="out"/>
<feColorMatrix type="matrix" values="0 0 0 0 0 0 0 0 0 0 0 0 0 0 0 0 0 0 0.25 0"/>
<feBlend mode="normal" in2="BackgroundImageFix" result="effect1_dropShadow_672_4959"/>
<feBlend mode="normal" in="SourceGraphic" in2="effect1_dropShadow_672_4959" result="shape"/>
</filter>
</defs>
</svg>
