<svg width="196" height="155" viewBox="0 0 196 155" fill="none" xmlns="http://www.w3.org/2000/svg">
<g filter="url(#filter0_d_672_4957)">
<rect width="80.3809" height="100.463" rx="5" transform="matrix(0.499899 -0.866084 0.865967 0.500101 5 79.646)" fill="#0CCA98"/>
</g>
<ellipse rx="2.05012" ry="2.05012" transform="matrix(0.499899 -0.866084 0.865967 0.500101 68.5893 69.9587)" fill="#202040"/>
<path d="M63.246 78.7374C63.2436 78.8602 63.3169 78.972 63.4299 79.0201C70.8727 82.1834 79.2904 80.1977 84.5693 74.5585C84.6952 74.424 84.6716 74.2096 84.5213 74.1032L80.1925 71.0399C80.092 70.9688 79.9589 70.9648 79.8531 71.0279C75.7093 73.4991 70.4518 73.94 65.7465 71.7448C65.7098 71.7277 65.6731 71.7104 65.6366 71.693C65.494 71.6251 65.3221 71.6727 65.2405 71.8079C63.9288 73.9815 63.2918 76.3689 63.246 78.7374Z" fill="#202040"/>
<path d="M58.4478 64.8049C58.5101 64.7131 58.5192 64.5951 58.472 64.4947C56.637 60.5891 56.4831 55.9294 58.4473 51.7151C60.2274 47.8959 63.4056 45.1749 67.0895 43.8764C67.1683 43.8486 67.233 43.7907 67.2683 43.7149L67.3223 43.5991C67.4272 43.3739 67.236 43.1251 66.9927 43.175C61.3477 44.3337 56.3058 48.0549 53.6851 53.6777C50.8544 59.7512 51.5383 66.5637 54.9017 71.8237C55.0484 72.053 55.3963 71.9821 55.457 71.7167C56.0172 69.2662 57.0213 66.9069 58.4478 64.8049Z" fill="#202040"/>
<path d="M70.046 81.4453C69.6795 81.435 69.3334 81.6153 69.128 81.9191C66.7733 85.4022 62.9802 87.8855 58.4772 88.4364C54.3013 88.9473 50.3141 87.6984 47.2603 85.2715C47.1833 85.2104 47.0853 85.182 46.9877 85.1939V85.1939C46.6974 85.2295 46.5684 85.5757 46.7715 85.7864C50.748 89.9114 56.5464 92.1845 62.669 91.4355C68.7346 90.6934 73.7713 87.15 76.6424 82.2603C77.0869 81.5031 76.3229 80.6552 75.47 80.8635C73.7038 81.295 71.8762 81.4967 70.046 81.4453Z" fill="#202040"/>
<path d="M78.9582 69.5427C79.0268 69.9447 78.8295 70.3452 78.4661 70.5299C76.5278 71.515 74.339 72.0675 72.0255 72.044C71.8028 72.0417 71.6212 71.8691 71.5939 71.6479V71.6479C70.9792 66.6595 67.9926 62.5401 63.9036 60.2817C63.5531 60.0882 63.3336 59.7159 63.3564 59.3162L63.5874 55.2605C63.6215 54.6622 64.1716 54.2261 64.7541 54.3661C71.9173 56.0871 77.6607 61.9341 78.9582 69.5427Z" fill="#202040"/>
<path d="M77.8818 63.4535C78.0516 63.7673 78.3683 63.9746 78.7233 64.0089C82.8723 64.4099 86.8379 66.5194 89.482 70.1569C91.9565 73.5611 92.8 77.6519 92.1598 81.497C92.1437 81.5941 92.1665 81.6938 92.2243 81.7734V81.7734C92.3964 82.0102 92.7618 81.955 92.8476 81.6751C94.5253 76.2012 93.6983 70.0308 90.0703 65.0398C86.4682 60.0843 80.9065 57.3943 75.2221 57.2616C74.3335 57.2408 73.9729 58.3431 74.5917 58.9813C75.8797 60.3096 76.9942 61.8135 77.8818 63.4535Z" fill="#202040"/>
<path d="M62.766 61.5912C63.0709 61.3391 63.5008 61.3039 63.8395 61.5083C65.7134 62.6389 67.3499 64.217 68.557 66.2112C68.6797 66.4139 68.6181 66.6749 68.4265 66.8141V66.8141C64.3613 69.7661 62.2078 74.3712 62.2172 79.0395C62.218 79.4404 61.9986 79.8132 61.6375 79.987L57.9766 81.7486C57.4372 82.0081 56.7899 81.7386 56.6295 81.1618C54.6831 74.1609 56.9203 66.4243 62.766 61.5912Z" fill="#202040"/>
<g filter="url(#filter1_d_672_4957)">
<rect width="80.3755" height="100.469" rx="5" transform="matrix(0.707012 -0.707202 0.707012 0.707202 22.0771 60.8418)" fill="#0CCA98"/>
</g>
<ellipse rx="2.05012" ry="2.05012" transform="matrix(0.707012 -0.707202 0.707012 0.707202 86.0063 67.947)" fill="#202040"/>
<path d="M78.5738 75.0433C78.5397 75.1612 78.5815 75.2883 78.6782 75.3639C85.049 80.3463 93.6936 80.6075 100.252 76.5271C100.408 76.4298 100.441 76.2166 100.323 76.0749L96.9346 71.9954C96.8559 71.9007 96.7283 71.8623 96.6099 71.8958C91.9678 73.2101 86.7753 72.2748 82.7984 68.9363C82.7673 68.9102 82.7364 68.8841 82.7056 68.8578C82.5854 68.7553 82.4071 68.7568 82.2933 68.8662C80.4639 70.6262 79.2309 72.7674 78.5738 75.0433Z" fill="#202040"/>
<path d="M77.5441 60.3433C77.628 60.2708 77.6673 60.1592 77.6477 60.05C76.8859 55.8024 77.9429 51.2616 80.9306 47.6994C83.6382 44.4712 87.4122 42.6657 91.3065 42.3652C91.3898 42.3588 91.4673 42.3195 91.5211 42.2554L91.6031 42.1576C91.7628 41.9673 91.6425 41.6774 91.3946 41.6626C85.6421 41.3204 79.8091 43.6095 75.8228 48.3623C71.517 53.496 70.4149 60.2534 72.3027 66.2049C72.385 66.4644 72.7395 66.4859 72.8668 66.2453C74.0419 64.0233 75.6223 62.0044 77.5441 60.3433Z" fill="#202040"/>
<path d="M84.4418 79.42C84.0904 79.3152 83.7095 79.3998 83.4325 79.64C80.2567 82.3948 75.9503 83.8115 71.4583 83.1778C67.2924 82.5902 63.7642 80.3517 61.4424 77.2168C61.3839 77.1379 61.2966 77.0851 61.1993 77.0713V77.0713C60.9096 77.0305 60.6955 77.3316 60.8371 77.5876C63.6108 82.6016 68.6234 86.2983 74.7312 87.1599C80.7822 88.0134 86.5642 85.8947 90.6026 81.9149C91.2279 81.2986 90.7095 80.2818 89.8318 80.2623C88.014 80.2217 86.1964 79.9434 84.4418 79.42Z" fill="#202040"/>
<path d="M96.1301 70.2301C96.0923 70.6362 95.7981 70.972 95.3992 71.0564C93.2721 71.5061 91.0149 71.4731 88.7865 70.8515C88.5719 70.7916 88.4411 70.5779 88.472 70.3572V70.3572C89.169 65.3795 87.35 60.6273 83.9846 57.3873C83.6962 57.1096 83.5806 56.6933 83.7061 56.313L84.9785 52.4555C85.1663 51.8864 85.8105 51.6075 86.337 51.8935C92.8108 55.4103 96.8456 62.5449 96.1301 70.2301Z" fill="#202040"/>
<path d="M96.6653 64.0694C96.7482 64.4164 97.0003 64.6986 97.3343 64.8236C101.238 66.285 104.523 69.3493 106.136 73.5474C107.645 77.4762 107.401 81.646 105.788 85.1943C105.747 85.2839 105.744 85.3862 105.779 85.478V85.478C105.884 85.7513 106.251 85.7926 106.406 85.5444C109.443 80.6914 110.241 74.5172 108.028 68.7569C105.831 63.0378 101.155 58.9997 95.6986 57.3998C94.8456 57.1497 94.212 58.1211 94.6446 58.8978C95.5449 60.5143 96.2323 62.2555 96.6653 64.0694Z" fill="#202040"/>
<path d="M82.5465 58.3571C82.9062 58.1925 83.3305 58.2698 83.6048 58.5549C85.1223 60.1321 86.2947 62.0801 86.9447 64.319C87.0108 64.5464 86.8837 64.7827 86.6626 64.8675V64.8675C81.9722 66.6665 78.7005 70.5571 77.5017 75.0687C77.3987 75.4562 77.0902 75.7595 76.6964 75.8339L72.7044 76.5877C72.1163 76.6988 71.5608 76.271 71.5552 75.6723C71.4865 68.406 75.6493 61.5122 82.5465 58.3571Z" fill="#202040"/>
<g filter="url(#filter2_d_672_4957)">
<rect width="80.3701" height="100.476" rx="5" transform="matrix(0.865967 -0.500101 0.499899 0.866084 41.1636 45.198)" fill="#0CCA98"/>
</g>
<circle r="2.05012" transform="matrix(0.865967 -0.500101 0.499899 0.866084 101.076 68.6116)" fill="#202040"/>
<path d="M92.0603 73.5421C91.9969 73.6472 92.0044 73.7808 92.0782 73.8789C96.9427 80.3408 105.225 82.8311 112.616 80.5876C112.792 80.5341 112.879 80.3366 112.802 80.1693L110.584 75.3515C110.533 75.2396 110.419 75.1695 110.296 75.1713C105.472 75.2389 100.699 72.9913 97.7211 68.737C97.6979 68.7037 97.6748 68.6704 97.6518 68.6371C97.5623 68.507 97.3896 68.4622 97.2514 68.5385C95.0289 69.7648 93.2839 71.5139 92.0603 73.5421Z" fill="#202040"/>
<path d="M94.8693 59.0765C94.9691 59.0281 95.036 58.9305 95.0453 58.8199C95.4084 54.5199 97.6044 50.4075 101.412 47.7401C104.863 45.3229 108.975 44.5559 112.815 45.2739C112.897 45.2892 112.982 45.2714 113.05 45.2234L113.155 45.1501C113.358 45.0076 113.317 44.6965 113.081 44.6181C107.613 42.7982 101.387 43.4993 96.3068 47.0581C90.8193 50.9021 88.0063 57.1439 88.2898 63.3814C88.3022 63.6534 88.639 63.7659 88.8242 63.5664C90.5342 61.7244 92.5832 60.1834 94.8693 59.0765Z" fill="#202040"/>
<path d="M96.5958 79.2887C96.2836 79.0965 95.8937 79.0796 95.5639 79.24C91.7836 81.0787 87.2574 81.3322 83.0824 79.5572C79.2105 77.9111 76.3818 74.8355 74.9502 71.2063C74.9141 71.115 74.8434 71.0413 74.753 71.0029V71.0029C74.4838 70.8884 74.199 71.1239 74.2696 71.4078C75.6514 76.969 79.5367 81.8375 85.2134 84.2509C90.8374 86.642 96.9706 86.0923 101.901 83.2935C102.665 82.8601 102.427 81.7439 101.584 81.4978C99.839 80.988 98.1553 80.2486 96.5958 79.2887Z" fill="#202040"/>
<path d="M110.264 73.4379C110.122 73.8204 109.751 74.0687 109.344 74.0468C107.173 73.9305 105.001 73.3144 103.01 72.1369C102.818 72.0236 102.747 71.7833 102.834 71.5781V71.5781C104.795 66.9505 104.268 61.8892 101.855 57.8883C101.648 57.5455 101.645 57.1135 101.864 56.7786L104.091 53.3821C104.42 52.8809 105.114 52.7783 105.549 53.1909C110.892 58.2638 112.943 66.1998 110.264 73.4379Z" fill="#202040"/>
<path d="M112.375 67.6259C112.365 67.9824 112.536 68.3202 112.826 68.5275C116.219 70.9498 118.599 74.7601 119.07 79.2327C119.511 83.4183 118.197 87.383 115.721 90.3927C115.658 90.4687 115.628 90.5665 115.638 90.6644V90.6644C115.669 90.9555 116.013 91.0904 116.227 90.8909C120.416 86.9894 122.785 81.2322 122.137 75.0953C121.495 69.0023 118.023 63.8913 113.167 60.9333C112.408 60.4709 111.544 61.2452 111.761 62.1074C112.212 63.9019 112.426 65.7617 112.375 67.6259Z" fill="#202040"/>
<path d="M100.215 58.4529C100.605 58.3871 100.995 58.5715 101.186 58.9179C102.244 60.8343 102.872 63.0195 102.921 65.3504C102.926 65.5871 102.742 65.7824 102.506 65.8071V65.8071C97.5104 66.3305 93.3435 69.2415 91.0181 73.289C90.8184 73.6366 90.4419 73.8498 90.0421 73.8197L85.9911 73.5144C85.3943 73.4694 84.9686 72.9124 85.118 72.3328C86.9318 65.2963 92.7365 59.7149 100.215 58.4529Z" fill="#202040"/>
<g filter="url(#filter3_d_672_4957)">
<rect width="80.3716" height="100.476" rx="5" transform="matrix(0.9659 -0.258916 0.258722 0.965952 64.2686 34.8579)" fill="#0CCA98"/>
</g>
<ellipse rx="2.05012" ry="2.05012" transform="matrix(0.9659 -0.258916 0.258722 0.965952 116.081 72.9803)" fill="#202040"/>
<path d="M106.096 75.409C106.008 75.4941 105.98 75.6251 106.026 75.7389C109.053 83.2396 116.409 87.7888 124.128 87.5346C124.312 87.5286 124.447 87.3603 124.416 87.1787L123.521 81.9511C123.5 81.8297 123.409 81.7327 123.29 81.7025C118.612 80.5194 114.583 77.1128 112.808 72.2328C112.794 72.1947 112.78 72.1565 112.767 72.1184C112.714 71.9695 112.559 71.8816 112.406 71.9195C109.941 72.5288 107.803 73.7666 106.096 75.409Z" fill="#202040"/>
<path d="M112.554 62.1635C112.663 62.1426 112.752 62.0656 112.79 61.9612C114.254 57.9017 117.439 54.4978 121.808 52.9069C125.766 51.4652 129.937 51.7888 133.46 53.476C133.536 53.5121 133.622 53.5168 133.701 53.4882L133.821 53.4445C134.054 53.3595 134.095 53.0483 133.888 52.9116C129.077 49.7386 122.881 48.8041 117.053 50.9267C110.757 53.2195 106.424 58.5204 105.084 64.6187C105.025 64.8846 105.322 65.0805 105.552 64.9357C107.681 63.5991 110.059 62.6409 112.554 62.1635Z" fill="#202040"/>
<path d="M108.99 82.1338C108.739 81.8674 108.366 81.7501 108.006 81.8197C103.879 82.6173 99.4411 81.6906 95.8676 78.8956C92.5536 76.3034 90.6172 72.6004 90.1737 68.7245C90.1625 68.6269 90.1133 68.5375 90.0359 68.477V68.477C89.8054 68.2967 89.4694 68.4504 89.4641 68.743C89.3595 74.4722 91.8525 80.1804 96.7113 83.9809C101.525 87.746 107.592 88.8025 113.079 87.3753C113.928 87.1543 113.988 86.0146 113.237 85.5588C111.683 84.6147 110.248 83.4646 108.99 82.1338Z" fill="#202040"/>
<path d="M123.707 80.0201C123.472 80.3528 123.049 80.4966 122.661 80.3701C120.594 79.6959 118.656 78.5386 117.037 76.8858C116.881 76.7267 116.875 76.4762 117.012 76.3006V76.3006C120.104 72.3383 120.904 67.313 119.61 62.8241C119.499 62.4394 119.607 62.0211 119.905 61.7545L122.936 59.0502C123.383 58.6512 124.08 58.7318 124.393 59.2428C128.242 65.5258 128.169 73.7222 123.707 80.0201Z" fill="#202040"/>
<path d="M127.251 74.9526C127.149 75.2945 127.226 75.6649 127.453 75.9402C130.103 79.1581 131.416 83.4545 130.714 87.8967C130.057 92.0539 127.761 95.5432 124.59 97.8094C124.51 97.8667 124.456 97.9533 124.44 98.0506V98.0506C124.395 98.3397 124.692 98.5591 124.951 98.4218C130.007 95.7376 133.785 90.7895 134.748 84.6943C135.704 78.6427 133.673 72.8073 129.748 68.6931C129.134 68.05 128.1 68.5744 128.086 69.4634C128.058 71.3135 127.783 73.1652 127.251 74.9526Z" fill="#202040"/>
<path d="M117.879 62.9451C118.273 62.9824 118.602 63.2615 118.697 63.6455C119.223 65.7703 119.264 68.0437 118.708 70.3077C118.651 70.5377 118.423 70.6787 118.189 70.6416V70.6416C113.228 69.8541 108.449 71.5874 105.156 74.895C104.873 75.1791 104.454 75.2876 104.075 75.1551L100.241 73.8116C99.6765 73.6137 99.4094 72.9655 99.7037 72.4443C103.277 66.1171 110.329 62.2284 117.879 62.9451Z" fill="#202040"/>
<g filter="url(#filter4_d_672_4957)">
<rect x="88.3784" y="30.1257" width="80.3647" height="100.483" rx="5" fill="#0CCA98"/>
</g>
<ellipse cx="128.56" cy="80.3673" rx="2.05012" ry="2.05067" fill="#202040"/>
<path d="M118.288 80.1277C118.18 80.187 118.12 80.3064 118.135 80.4283C119.118 88.4573 125.046 94.7564 132.568 96.5097C132.747 96.5516 132.921 96.4239 132.938 96.2404L133.426 90.959C133.437 90.8364 133.374 90.719 133.266 90.659C129.055 88.305 126.044 83.971 125.592 78.7975C125.589 78.7571 125.585 78.7167 125.582 78.6763C125.57 78.5189 125.442 78.3937 125.285 78.3907C122.747 78.3412 120.361 78.9831 118.288 80.1277Z" fill="#202040"/>
<path d="M127.951 69.005C128.062 69.013 128.169 68.9619 128.232 68.8708C130.696 65.3284 134.653 62.8653 139.284 62.4596C143.481 62.092 147.426 63.4847 150.392 66.0266C150.455 66.081 150.538 66.108 150.621 66.1008L150.748 66.0896C150.996 66.0679 151.116 65.7779 150.951 65.5921C147.125 61.2814 141.382 58.7744 135.204 59.3156C128.53 59.9003 122.974 63.8989 120.102 69.4425C119.976 69.6842 120.212 69.9501 120.472 69.87C122.874 69.13 125.418 68.8202 127.951 69.005Z" fill="#202040"/>
<path d="M119.343 87.3729C119.169 87.0503 118.84 86.8407 118.474 86.8146C114.281 86.5163 110.235 84.4721 107.506 80.8469C104.976 77.4849 104.063 73.4065 104.638 69.5476C104.652 69.4505 104.628 69.3514 104.569 69.2729V69.2729C104.393 69.0391 104.028 69.1006 103.948 69.3818C102.364 74.8889 103.296 81.0484 107.005 85.9776C110.681 90.8611 116.267 93.4525 121.936 93.4946C122.814 93.5011 123.166 92.4157 122.56 91.7812C121.303 90.4668 120.214 88.9842 119.343 87.3729Z" fill="#202040"/>
<path d="M134.105 89.1417C133.791 89.4022 133.345 89.4316 133.004 89.209C131.182 88.0225 129.609 86.4027 128.473 84.387C128.363 84.1929 128.422 83.9493 128.6 83.8151V83.8151C132.611 80.7883 134.685 76.1413 134.595 71.4699C134.588 71.0697 134.8 70.6936 135.158 70.5135L138.784 68.6859C139.319 68.4162 139.972 68.6747 140.142 69.2493C142.234 76.3149 140.043 84.2135 134.105 89.1417Z" fill="#202040"/>
<path d="M138.838 85.1643C138.652 85.4681 138.63 85.8459 138.778 86.1704C140.506 89.9651 140.662 94.4552 138.835 98.5645C137.125 102.41 134.005 105.186 130.356 106.554C130.263 106.589 130.188 106.658 130.148 106.748V106.748C130.029 107.016 130.26 107.305 130.545 107.239C136.123 105.955 141.052 102.154 143.559 96.5156C146.048 90.9176 145.597 84.7551 142.87 79.7646C142.443 78.9844 141.308 79.2231 141.065 80.0783C140.559 81.8581 139.814 83.5754 138.838 85.1643Z" fill="#202040"/>
<path d="M132.893 71.1387C133.264 71.2768 133.509 71.6314 133.501 72.0269C133.459 74.2156 132.911 76.4224 131.788 78.4653C131.674 78.6728 131.417 78.75 131.201 78.6535V78.6535C126.613 76.6081 121.549 77.0452 117.512 79.3873C117.165 79.5885 116.733 79.5848 116.401 79.3588L113.046 77.0683C112.551 76.7309 112.461 76.0357 112.88 75.6085C117.968 70.4218 125.785 68.4913 132.893 71.1387Z" fill="#202040"/>
<g filter="url(#filter5_d_672_4957)">
<rect width="80.3661" height="100.481" rx="5" transform="matrix(0.965908 0.258884 -0.258754 0.965943 113.374 32.1355)" fill="#0CCA98"/>
</g>
<ellipse rx="2.05015" ry="2.05064" transform="matrix(0.965908 0.258884 -0.258754 0.965943 139.187 91.0677)" fill="#202040"/>
<path d="M129.326 88.1766C129.207 88.2061 129.118 88.3059 129.1 88.4274C127.972 96.4373 132.068 104.056 138.88 107.697C139.043 107.784 139.244 107.706 139.307 107.533L141.145 102.558C141.188 102.442 141.157 102.313 141.069 102.227C137.61 98.8627 135.824 93.8971 136.726 88.7828C136.733 88.7428 136.74 88.7029 136.747 88.6631C136.776 88.5078 136.685 88.354 136.534 88.3102C134.095 87.6054 131.625 87.6079 129.326 88.1766Z" fill="#202040"/>
<path d="M141.538 79.9347C141.643 79.9711 141.759 79.9494 141.844 79.8778C145.141 77.094 149.6 75.7393 154.178 76.5463C158.327 77.2777 161.777 79.6442 163.985 82.8674C164.032 82.9364 164.105 82.9839 164.187 82.9984L164.313 83.0206C164.557 83.0637 164.748 82.8146 164.637 82.5925C162.057 77.4382 157.159 73.5299 151.051 72.4531C144.453 71.29 138.051 73.714 133.843 78.3251C133.659 78.5261 133.818 78.844 134.09 78.8339C136.601 78.7409 139.139 79.1005 141.538 79.9347Z" fill="#202040"/>
<path d="M128.471 95.4482C128.386 95.0914 128.122 94.8037 127.776 94.6838C123.803 93.3102 120.423 90.288 118.726 86.08C117.152 82.1774 117.326 78.0019 118.879 74.4231C118.918 74.333 118.92 74.231 118.883 74.1399V74.1399C118.774 73.8685 118.406 73.8336 118.255 74.0842C115.301 78.9939 114.607 85.1845 116.915 90.9062C119.201 96.5748 123.927 100.524 129.392 102.032C130.238 102.266 130.859 101.309 130.437 100.539C129.563 98.9438 128.895 97.23 128.471 95.4482Z" fill="#202040"/>
<path d="M142.272 100.978C141.901 101.149 141.463 101.062 141.191 100.758C139.738 99.1404 138.638 97.1687 138.062 94.9275C138.007 94.7116 138.126 94.4916 138.333 94.408V94.408C142.991 92.5229 146.196 88.571 147.318 84.0357C147.415 83.647 147.717 83.3388 148.109 83.2573L152.085 82.4309C152.672 82.309 153.235 82.7276 153.251 83.3268C153.443 90.693 149.283 97.7554 142.272 100.978Z" fill="#202040"/>
<path d="M147.873 98.3619C147.614 98.6071 147.496 98.9665 147.555 99.3183C148.241 103.431 147.231 107.808 144.402 111.305C141.755 114.577 138.023 116.45 134.145 116.827C134.047 116.836 133.956 116.884 133.894 116.961V116.961C133.71 117.188 133.858 117.527 134.151 117.538C139.871 117.742 145.615 115.346 149.496 110.549C153.349 105.786 154.507 99.7164 153.164 94.1899C152.954 93.326 151.796 93.2627 151.34 94.0258C150.391 95.6139 149.227 97.0799 147.873 98.3619Z" fill="#202040"/>
<path d="M145.759 83.2751C146.082 83.5044 146.227 83.9105 146.117 84.2906C145.51 86.3938 144.41 88.3836 142.797 90.0661C142.633 90.237 142.365 90.245 142.181 90.0959V90.0959C138.278 86.9323 133.274 86.0435 128.768 87.2607C128.381 87.3653 127.964 87.2497 127.703 86.9457L125.054 83.8644C124.664 83.4106 124.757 82.7157 125.272 82.4115C131.529 78.7188 139.579 78.8778 145.759 83.2751Z" fill="#202040"/>
<defs>
<filter id="filter0_d_672_4957" x="0.829102" y="5.85889" width="135.521" height="128.199" filterUnits="userSpaceOnUse" color-interpolation-filters="sRGB">
<feFlood flood-opacity="0" result="BackgroundImageFix"/>
<feColorMatrix in="SourceAlpha" type="matrix" values="0 0 0 0 0 0 0 0 0 0 0 0 0 0 0 0 0 0 127 0" result="hardAlpha"/>
<feOffset/>
<feGaussianBlur stdDeviation="3"/>
<feComposite in2="hardAlpha" operator="out"/>
<feColorMatrix type="matrix" values="0 0 0 0 0 0 0 0 0 0 0 0 0 0 0 0 0 0 0.25 0"/>
<feBlend mode="normal" in2="BackgroundImageFix" result="effect1_dropShadow_672_4957"/>
<feBlend mode="normal" in="SourceGraphic" in2="effect1_dropShadow_672_4957" result="shape"/>
</filter>
<filter id="filter1_d_672_4957" x="18.1479" y="0.0715332" width="135.718" height="135.751" filterUnits="userSpaceOnUse" color-interpolation-filters="sRGB">
<feFlood flood-opacity="0" result="BackgroundImageFix"/>
<feColorMatrix in="SourceAlpha" type="matrix" values="0 0 0 0 0 0 0 0 0 0 0 0 0 0 0 0 0 0 127 0" result="hardAlpha"/>
<feOffset/>
<feGaussianBlur stdDeviation="3"/>
<feComposite in2="hardAlpha" operator="out"/>
<feColorMatrix type="matrix" values="0 0 0 0 0 0 0 0 0 0 0 0 0 0 0 0 0 0 0.25 0"/>
<feBlend mode="normal" in2="BackgroundImageFix" result="effect1_dropShadow_672_4957"/>
<feBlend mode="normal" in="SourceGraphic" in2="effect1_dropShadow_672_4957" result="shape"/>
</filter>
<filter id="filter2_d_672_4957" x="36.9927" y="0.834473" width="128.167" height="135.555" filterUnits="userSpaceOnUse" color-interpolation-filters="sRGB">
<feFlood flood-opacity="0" result="BackgroundImageFix"/>
<feColorMatrix in="SourceAlpha" type="matrix" values="0 0 0 0 0 0 0 0 0 0 0 0 0 0 0 0 0 0 127 0" result="hardAlpha"/>
<feOffset/>
<feGaussianBlur stdDeviation="3"/>
<feComposite in2="hardAlpha" operator="out"/>
<feColorMatrix type="matrix" values="0 0 0 0 0 0 0 0 0 0 0 0 0 0 0 0 0 0 0.25 0"/>
<feBlend mode="normal" in2="BackgroundImageFix" result="effect1_dropShadow_672_4957"/>
<feBlend mode="normal" in="SourceGraphic" in2="effect1_dropShadow_672_4957" result="shape"/>
</filter>
<filter id="filter3_d_672_4957" x="59.3906" y="9.17114" width="113.382" height="127.619" filterUnits="userSpaceOnUse" color-interpolation-filters="sRGB">
<feFlood flood-opacity="0" result="BackgroundImageFix"/>
<feColorMatrix in="SourceAlpha" type="matrix" values="0 0 0 0 0 0 0 0 0 0 0 0 0 0 0 0 0 0 127 0" result="hardAlpha"/>
<feOffset/>
<feGaussianBlur stdDeviation="3"/>
<feComposite in2="hardAlpha" operator="out"/>
<feColorMatrix type="matrix" values="0 0 0 0 0 0 0 0 0 0 0 0 0 0 0 0 0 0 0.25 0"/>
<feBlend mode="normal" in2="BackgroundImageFix" result="effect1_dropShadow_672_4957"/>
<feBlend mode="normal" in="SourceGraphic" in2="effect1_dropShadow_672_4957" result="shape"/>
</filter>
<filter id="filter4_d_672_4957" x="82.3784" y="24.1257" width="92.3647" height="112.483" filterUnits="userSpaceOnUse" color-interpolation-filters="sRGB">
<feFlood flood-opacity="0" result="BackgroundImageFix"/>
<feColorMatrix in="SourceAlpha" type="matrix" values="0 0 0 0 0 0 0 0 0 0 0 0 0 0 0 0 0 0 127 0" result="hardAlpha"/>
<feOffset/>
<feGaussianBlur stdDeviation="3"/>
<feComposite in2="hardAlpha" operator="out"/>
<feColorMatrix type="matrix" values="0 0 0 0 0 0 0 0 0 0 0 0 0 0 0 0 0 0 0.25 0"/>
<feBlend mode="normal" in2="BackgroundImageFix" result="effect1_dropShadow_672_4957"/>
<feBlend mode="normal" in="SourceGraphic" in2="effect1_dropShadow_672_4957" result="shape"/>
</filter>
<filter id="filter5_d_672_4957" x="82.4961" y="27.2583" width="113.381" height="127.619" filterUnits="userSpaceOnUse" color-interpolation-filters="sRGB">
<feFlood flood-opacity="0" result="BackgroundImageFix"/>
<feColorMatrix in="SourceAlpha" type="matrix" values="0 0 0 0 0 0 0 0 0 0 0 0 0 0 0 0 0 0 127 0" result="hardAlpha"/>
<feOffset/>
<feGaussianBlur stdDeviation="3"/>
<feComposite in2="hardAlpha" operator="out"/>
<feColorMatrix type="matrix" values="0 0 0 0 0 0 0 0 0 0 0 0 0 0 0 0 0 0 0.25 0"/>
<feBlend mode="normal" in2="BackgroundImageFix" result="effect1_dropShadow_672_4957"/>
<feBlend mode="normal" in="SourceGraphic" in2="effect1_dropShadow_672_4957" result="shape"/>
</filter>
</defs>
</svg>
