<svg width="186" height="155" viewBox="0 0 186 155" fill="none" xmlns="http://www.w3.org/2000/svg">
<g filter="url(#filter0_d_672_4958)">
<rect x="18" y="45" width="80" height="100" rx="5" transform="rotate(-30 18 45)" fill="#0CCA98"/>
</g>
<ellipse cx="77.6408" cy="68.3012" rx="2.04082" ry="2.04082" transform="rotate(-30 77.6408 68.3012)" fill="#202040"/>
<path d="M68.6656 73.2078C68.6025 73.3124 68.61 73.4453 68.6835 73.5429C73.5259 79.9737 81.7708 82.4521 89.1277 80.2194C89.3032 80.1661 89.3896 79.9696 89.3129 79.8031L87.1054 75.0084C87.0541 74.8971 86.9413 74.8274 86.8188 74.8291C82.0167 74.8964 77.2648 72.6596 74.3008 68.4257C74.2776 68.3926 74.2546 68.3595 74.2318 68.3263C74.1426 68.1968 73.9708 68.1523 73.8331 68.2282C71.6208 69.4486 69.8837 71.1892 68.6656 73.2078Z" fill="#202040"/>
<path d="M71.4619 58.8116C71.5613 58.7635 71.6278 58.6664 71.6371 58.5563C71.9986 54.2769 74.1845 50.1843 77.9749 47.5298C81.4099 45.1241 85.5038 44.3609 89.3257 45.0754C89.4075 45.0907 89.4921 45.0729 89.5603 45.0252L89.6644 44.9522C89.8669 44.8104 89.826 44.5008 89.5914 44.4227C84.1482 42.6117 77.95 43.3093 72.8928 46.851C67.4303 50.6766 64.63 56.8884 64.9123 63.0959C64.9246 63.3665 65.2599 63.4786 65.4442 63.28C67.1465 61.4469 69.1862 59.9132 71.4619 58.8116Z" fill="#202040"/>
<path d="M73.1831 78.928C72.8708 78.7359 72.4809 78.719 72.1511 78.8793C68.3884 80.7081 63.8838 80.9598 59.7286 79.1938C55.8743 77.5556 53.0585 74.4947 51.6334 70.8831C51.5975 70.7921 51.5271 70.7188 51.4371 70.6806V70.6806C51.1691 70.5667 50.8856 70.8009 50.9558 71.0836C52.3313 76.618 56.199 81.4631 61.85 83.8649C67.4449 86.2429 73.5459 85.6982 78.4525 82.9175C79.2164 82.4846 78.9788 81.3684 78.1361 81.1219C76.4032 80.615 74.7317 79.8806 73.1831 78.928Z" fill="#202040"/>
<path d="M86.7878 73.101C86.6462 73.4834 86.2751 73.7316 85.8679 73.7097C83.7078 73.5935 81.5471 72.9804 79.5654 71.8092C79.3745 71.6963 79.3038 71.4572 79.3904 71.253V71.253C81.3422 66.6487 80.8179 61.613 78.4179 57.6318C78.2112 57.2889 78.2072 56.8569 78.4268 56.5221L80.6394 53.1488C80.968 52.6477 81.6626 52.5451 82.0971 52.9577C87.4124 58.0058 89.4529 65.9002 86.7878 73.101Z" fill="#202040"/>
<path d="M88.8882 67.3171C88.8785 67.6737 89.049 68.0115 89.3393 68.2188C92.7156 70.6295 95.0837 74.4208 95.5531 78.8709C95.9924 83.0365 94.684 86.9821 92.2188 89.9773C92.1566 90.053 92.1266 90.1503 92.1369 90.2477V90.2477C92.1674 90.5374 92.5099 90.6717 92.7231 90.4732C96.8932 86.5905 99.2507 80.8609 98.6065 74.7535C97.9674 68.6937 94.5154 63.6099 89.6861 60.6652C88.9271 60.2024 88.0635 60.9765 88.2799 61.8388C88.7272 63.6204 88.9387 65.4666 88.8882 67.3171Z" fill="#202040"/>
<path d="M76.7806 58.1916C77.1707 58.1257 77.5606 58.3101 77.7517 58.6565C78.8037 60.5631 79.4288 62.7368 79.4771 65.0553C79.482 65.291 79.299 65.4853 79.0645 65.5099V65.5099C74.0922 66.0307 69.945 68.9266 67.6298 72.9532C67.43 73.3008 67.0536 73.5139 66.6538 73.4838L62.6295 73.1805C62.0326 73.1355 61.6067 72.5786 61.7563 71.999C63.5632 64.9997 69.3393 59.4481 76.7806 58.1916Z" fill="#202040"/>
<g filter="url(#filter1_d_672_4958)">
<rect width="75.95" height="104.126" rx="5" transform="matrix(0.969695 -0.234247 0.283385 0.955644 38 31.791)" fill="#0CCA98"/>
</g>
<ellipse rx="1.9375" ry="2.12501" transform="matrix(0.969695 -0.234247 0.283385 0.955644 89.5777 72.6489)" fill="#202040"/>
<path d="M80.0935 74.6859C80.0124 74.7685 79.9923 74.9 80.0417 75.0174C83.3001 82.751 90.5824 87.6765 97.9905 87.7476C98.1672 87.7493 98.289 87.5845 98.2507 87.399L97.1467 82.0609C97.1211 81.937 97.0288 81.8347 96.9127 81.799C92.3619 80.4002 88.3303 76.7748 86.3968 71.7516C86.3817 71.7124 86.3667 71.6731 86.3519 71.6338C86.2942 71.4807 86.141 71.3849 85.9954 71.4168C83.6552 71.9296 81.6576 73.0935 80.0935 74.6859Z" fill="#202040"/>
<path d="M85.6832 61.5319C85.7869 61.5154 85.8697 61.4412 85.901 61.337C87.1187 57.2835 90.022 53.9682 94.1467 52.5413C97.8847 51.2482 101.909 51.754 105.374 53.6146C105.448 53.6544 105.531 53.663 105.606 53.6373L105.719 53.5981C105.939 53.5219 105.964 53.2081 105.758 53.0606C100.986 49.6387 94.9874 48.4274 89.4842 50.3312C83.5398 52.3875 79.6222 57.5773 78.6178 63.703C78.574 63.9701 78.8679 64.1813 79.0827 64.0444C81.0664 62.7799 83.3075 61.9098 85.6832 61.5319Z" fill="#202040"/>
<path d="M83.1962 81.6361C82.9376 81.3509 82.5475 81.2164 82.1728 81.2752C78.2574 81.8889 73.9721 80.757 70.4236 77.7848C67.1106 75.0099 65.0754 71.163 64.4731 67.2059C64.4603 67.1215 64.4162 67.0433 64.3487 66.9868V66.9868C64.1233 66.798 63.7876 66.9385 63.7957 67.222C63.963 73.0251 66.625 78.9172 71.4714 82.9765C76.2867 87.0098 82.186 88.3356 87.4041 87.1052C88.2307 86.9103 88.2802 85.8388 87.5528 85.3616C85.9717 84.3243 84.4991 83.0724 83.1962 81.6361Z" fill="#202040"/>
<path d="M97.2754 80.0481C97.0456 80.4078 96.5839 80.553 96.1657 80.3902C94.1727 79.6145 92.2811 78.3652 90.6672 76.638C90.5129 76.4728 90.5002 76.2299 90.626 76.0545V76.0545C93.4241 72.1544 93.9529 67.0701 92.4788 62.45C92.3621 62.0844 92.451 61.6916 92.7247 61.435L95.432 58.8968C95.8777 58.4791 96.623 58.5753 96.9514 59.1154C100.906 65.6211 101.22 73.8726 97.2754 80.0481Z" fill="#202040"/>
<path d="M100.392 75.1778C100.316 75.4896 100.396 75.8245 100.606 76.0847C103.329 79.4663 104.807 83.8993 104.337 88.3949C103.899 92.5769 101.86 96.0137 98.9227 98.1767C98.8419 98.2361 98.7898 98.3253 98.7794 98.425V98.425C98.7488 98.7179 99.0673 98.9378 99.3288 98.7983C104.042 96.286 107.425 91.4407 108.065 85.3199C108.696 79.289 106.525 73.348 102.638 69.0208C102.015 68.3272 100.933 68.8211 100.956 69.723C101.003 71.573 100.819 73.4128 100.392 75.1778Z" fill="#202040"/>
<path d="M90.8321 62.5501C91.2182 62.6054 91.5406 62.8835 91.6441 63.2521C92.2605 65.4484 92.4101 67.7784 91.973 70.0721C91.9322 70.2859 91.7162 70.4139 91.4942 70.3672V70.3672C86.7182 69.3637 82.232 70.8922 79.2204 74.0653C78.9303 74.3709 78.4716 74.4776 78.0625 74.3111L74.3265 72.7905C73.7936 72.5736 73.5284 71.9765 73.7711 71.4861C76.8942 65.177 83.513 61.5001 90.8321 62.5501Z" fill="#202040"/>
<g filter="url(#filter2_d_672_4958)">
<rect x="64" y="30" width="80" height="100" rx="5" fill="#0CCA98"/>
</g>
<ellipse cx="104" cy="79.9998" rx="2.04082" ry="2.04082" fill="#202040"/>
<path d="M93.774 79.7614C93.667 79.8205 93.607 79.9393 93.6219 80.0606C94.6001 88.0511 100.501 94.3198 107.989 96.0647C108.167 96.1064 108.34 95.9794 108.357 95.7967L108.843 90.5407C108.854 90.4187 108.791 90.3019 108.684 90.2421C104.492 87.8994 101.495 83.5863 101.045 78.4376C101.042 78.3974 101.038 78.3572 101.035 78.317C101.023 78.1603 100.896 78.0358 100.739 78.0328C98.2128 77.9835 95.8381 78.6224 93.774 79.7614Z" fill="#202040"/>
<path d="M103.394 68.6922C103.504 68.7002 103.61 68.6493 103.673 68.5587C106.126 65.0333 110.065 62.582 114.675 62.1783C118.853 61.8124 122.78 63.1984 125.732 65.7281C125.796 65.7823 125.878 65.8092 125.961 65.8019L126.087 65.7908C126.334 65.7693 126.453 65.4806 126.289 65.2957C122.48 61.0057 116.764 58.5108 110.613 59.0494C103.97 59.6312 98.4387 63.6106 95.5794 69.1276C95.4547 69.3681 95.6891 69.6328 95.948 69.5531C98.3388 68.8166 100.872 68.5083 103.394 68.6922Z" fill="#202040"/>
<path d="M94.8261 86.9743C94.6517 86.6517 94.3225 86.4421 93.9567 86.416C89.7837 86.1185 85.7567 84.0842 83.0413 80.4772C80.5225 77.1313 79.6143 73.0726 80.1859 69.2323C80.2003 69.1355 80.176 69.0369 80.1172 68.9588V68.9588C79.942 68.7261 79.5794 68.7873 79.4989 69.0671C77.9229 74.5479 78.8499 80.6777 82.5429 85.5832C86.1992 90.44 91.7552 93.0188 97.3948 93.064C98.2728 93.071 98.6251 91.9855 98.0185 91.3507C96.7713 90.0453 95.6909 88.5735 94.8261 86.9743Z" fill="#202040"/>
<path d="M109.522 88.7303C109.208 88.9907 108.762 89.02 108.421 88.7975C106.608 87.6168 105.043 86.0054 103.913 84.0003C103.804 83.8071 103.862 83.5647 104.039 83.4311V83.4311C108.032 80.4196 110.096 75.7964 110.008 71.1485C110 70.7482 110.213 70.3721 110.57 70.192L114.173 68.3769C114.708 68.1073 115.361 68.3657 115.531 68.9403C117.61 75.9697 115.43 83.8267 109.522 88.7303Z" fill="#202040"/>
<path d="M114.233 84.7713C114.046 85.0753 114.025 85.4531 114.172 85.7778C115.891 89.5536 116.046 94.021 114.228 98.1096C112.525 101.937 109.419 104.7 105.787 106.061C105.695 106.095 105.621 106.165 105.581 106.254V106.254C105.462 106.52 105.692 106.808 105.976 106.742C111.528 105.465 116.435 101.682 118.931 96.0705C121.407 90.503 120.96 84.3744 118.249 79.4096C117.824 78.6292 116.689 78.8678 116.445 79.7228C115.941 81.4893 115.202 83.194 114.233 84.7713Z" fill="#202040"/>
<path d="M108.31 70.8146C108.681 70.9526 108.926 71.3072 108.918 71.7028C108.876 73.8799 108.331 76.0749 107.213 78.107C107.1 78.3135 106.844 78.3903 106.629 78.2944V78.2944C102.062 76.2592 97.0226 76.6935 93.0042 79.0231C92.6574 79.2242 92.2248 79.2206 91.8937 78.9946L88.5602 76.7198C88.0657 76.3824 87.9754 75.6871 88.3947 75.26C93.4592 70.1018 101.237 68.1821 108.31 70.8146Z" fill="#202040"/>
<g filter="url(#filter3_d_672_4958)">
<rect x="89.8818" y="32" width="80" height="100" rx="5" transform="rotate(15 89.8818 32)" fill="#0CCA98"/>
</g>
<ellipse cx="115.578" cy="90.6489" rx="2.04082" ry="2.04082" transform="rotate(15 115.578 90.6489)" fill="#202040"/>
<path d="M105.762 87.7719C105.644 87.8012 105.555 87.9005 105.538 88.0215C104.415 95.9928 108.492 103.575 115.273 107.199C115.435 107.285 115.635 107.207 115.699 107.035L117.528 102.084C117.57 101.969 117.54 101.84 117.452 101.755C114.009 98.4066 112.23 93.4648 113.128 88.3751C113.135 88.3353 113.143 88.2956 113.15 88.256C113.178 88.1014 113.088 87.9484 112.937 87.9048C110.51 87.2034 108.051 87.2059 105.762 87.7719Z" fill="#202040"/>
<path d="M117.919 79.5695C118.023 79.6058 118.139 79.5841 118.224 79.5129C121.505 76.7425 125.945 75.3943 130.502 76.1975C134.632 76.9253 138.067 79.2805 140.264 82.4882C140.311 82.5568 140.383 82.6041 140.465 82.6185L140.59 82.6406C140.834 82.6835 141.024 82.4356 140.913 82.2145C138.345 77.085 133.469 73.1955 127.388 72.1239C120.821 70.9664 114.448 73.3787 110.258 77.9677C110.076 78.1677 110.234 78.4841 110.504 78.474C113.004 78.3815 115.531 78.7393 117.919 79.5695Z" fill="#202040"/>
<path d="M104.911 95.0114C104.826 94.6546 104.563 94.367 104.216 94.2471C100.262 92.8797 96.899 89.8724 95.2097 85.6855C93.6427 81.8017 93.8159 77.6462 95.362 74.0847C95.401 73.995 95.403 73.8934 95.3664 73.8027V73.8027C95.2575 73.5327 94.8914 73.4979 94.7412 73.7474C91.8004 78.6335 91.1092 84.7943 93.4067 90.4886C95.6814 96.1262 100.381 100.055 105.816 101.558C106.663 101.792 107.284 100.835 106.862 100.065C105.996 98.4812 105.333 96.7799 104.911 95.0114Z" fill="#202040"/>
<path d="M118.652 100.511C118.281 100.681 117.843 100.594 117.571 100.291C116.125 98.6814 115.031 96.7199 114.458 94.4905C114.403 94.2757 114.522 94.0567 114.728 93.9735V93.9735C119.364 92.0979 122.554 88.1664 123.672 83.6541C123.768 83.2655 124.071 82.9573 124.463 82.8758L128.412 82.055C128.999 81.9331 129.563 82.3517 129.578 82.9507C129.767 90.2787 125.628 97.3037 118.652 100.511Z" fill="#202040"/>
<path d="M124.227 97.9062C123.968 98.1515 123.85 98.511 123.908 98.8628C124.591 102.955 123.585 107.31 120.77 110.789C118.135 114.045 114.42 115.91 110.559 116.285C110.461 116.294 110.371 116.342 110.31 116.418V116.418C110.127 116.644 110.274 116.981 110.565 116.992C116.259 117.195 121.977 114.81 125.841 110.036C129.674 105.3 130.827 99.2639 129.495 93.7668C129.285 92.9029 128.127 92.8396 127.671 93.6023C126.727 95.1784 125.571 96.6334 124.227 97.9062Z" fill="#202040"/>
<path d="M122.118 82.8921C122.441 83.1214 122.586 83.5275 122.476 83.9076C121.872 85.9996 120.777 87.9786 119.172 89.6522C119.008 89.8223 118.742 89.8303 118.559 89.6819V89.6819C114.674 86.5342 109.694 85.6494 105.21 86.8596C104.823 86.9641 104.406 86.8486 104.144 86.5446L101.513 83.4845C101.123 83.0307 101.216 82.3357 101.731 82.0317C107.958 78.3601 115.968 78.5188 122.118 82.8921Z" fill="#202040"/>
<defs>
<filter id="filter0_d_672_4958" x="13.8291" y="0.829346" width="127.624" height="134.944" filterUnits="userSpaceOnUse" color-interpolation-filters="sRGB">
<feFlood flood-opacity="0" result="BackgroundImageFix"/>
<feColorMatrix in="SourceAlpha" type="matrix" values="0 0 0 0 0 0 0 0 0 0 0 0 0 0 0 0 0 0 127 0" result="hardAlpha"/>
<feOffset/>
<feGaussianBlur stdDeviation="3"/>
<feComposite in2="hardAlpha" operator="out"/>
<feColorMatrix type="matrix" values="0 0 0 0 0 0 0 0 0 0 0 0 0 0 0 0 0 0 0.25 0"/>
<feBlend mode="normal" in2="BackgroundImageFix" result="effect1_dropShadow_672_4958"/>
<feBlend mode="normal" in="SourceGraphic" in2="effect1_dropShadow_672_4958" result="shape"/>
</filter>
<filter id="filter1_d_672_4958" x="33.2129" y="9.02856" width="112.73" height="127.241" filterUnits="userSpaceOnUse" color-interpolation-filters="sRGB">
<feFlood flood-opacity="0" result="BackgroundImageFix"/>
<feColorMatrix in="SourceAlpha" type="matrix" values="0 0 0 0 0 0 0 0 0 0 0 0 0 0 0 0 0 0 127 0" result="hardAlpha"/>
<feOffset/>
<feGaussianBlur stdDeviation="3"/>
<feComposite in2="hardAlpha" operator="out"/>
<feColorMatrix type="matrix" values="0 0 0 0 0 0 0 0 0 0 0 0 0 0 0 0 0 0 0.25 0"/>
<feBlend mode="normal" in2="BackgroundImageFix" result="effect1_dropShadow_672_4958"/>
<feBlend mode="normal" in="SourceGraphic" in2="effect1_dropShadow_672_4958" result="shape"/>
</filter>
<filter id="filter2_d_672_4958" x="58" y="24" width="92" height="112" filterUnits="userSpaceOnUse" color-interpolation-filters="sRGB">
<feFlood flood-opacity="0" result="BackgroundImageFix"/>
<feColorMatrix in="SourceAlpha" type="matrix" values="0 0 0 0 0 0 0 0 0 0 0 0 0 0 0 0 0 0 127 0" result="hardAlpha"/>
<feOffset/>
<feGaussianBlur stdDeviation="3"/>
<feComposite in2="hardAlpha" operator="out"/>
<feColorMatrix type="matrix" values="0 0 0 0 0 0 0 0 0 0 0 0 0 0 0 0 0 0 0.25 0"/>
<feBlend mode="normal" in2="BackgroundImageFix" result="effect1_dropShadow_672_4958"/>
<feBlend mode="normal" in="SourceGraphic" in2="effect1_dropShadow_672_4958" result="shape"/>
</filter>
<filter id="filter3_d_672_4958" x="59.1226" y="27.1226" width="112.911" height="127.053" filterUnits="userSpaceOnUse" color-interpolation-filters="sRGB">
<feFlood flood-opacity="0" result="BackgroundImageFix"/>
<feColorMatrix in="SourceAlpha" type="matrix" values="0 0 0 0 0 0 0 0 0 0 0 0 0 0 0 0 0 0 127 0" result="hardAlpha"/>
<feOffset/>
<feGaussianBlur stdDeviation="3"/>
<feComposite in2="hardAlpha" operator="out"/>
<feColorMatrix type="matrix" values="0 0 0 0 0 0 0 0 0 0 0 0 0 0 0 0 0 0 0.25 0"/>
<feBlend mode="normal" in2="BackgroundImageFix" result="effect1_dropShadow_672_4958"/>
<feBlend mode="normal" in="SourceGraphic" in2="effect1_dropShadow_672_4958" result="shape"/>
</filter>
</defs>
</svg>
