<svg width="112" height="140" viewBox="0 0 112 140" fill="none" xmlns="http://www.w3.org/2000/svg">
<rect width="112" height="140" rx="10" fill="#0CCA98"/>
<circle cx="56.0002" cy="70" r="2.85714" fill="#202040"/>
<path d="M41.6834 69.6661C41.5336 69.7488 41.4496 69.9151 41.4704 70.0849C42.8399 81.2716 51.1015 90.0479 61.5842 92.4908C61.8343 92.549 62.0765 92.3712 62.1001 92.1156L62.7799 84.7571C62.7957 84.5863 62.7078 84.4228 62.558 84.3391C56.6886 81.0593 52.4931 75.0209 51.8631 67.8128C51.8581 67.7565 51.8534 67.7002 51.849 67.6439C51.8315 67.4246 51.6543 67.2502 51.4343 67.246C47.8977 67.177 44.5731 68.0714 41.6834 69.6661Z" fill="#202040"/>
<path d="M55.151 54.1691C55.3051 54.1804 55.4538 54.1091 55.5421 53.9822C58.9759 49.0468 64.4911 45.6149 70.9449 45.0497C76.7935 44.5375 82.2914 46.4779 86.4251 50.0195C86.5135 50.0953 86.6286 50.1329 86.7446 50.1228L86.922 50.1073C87.2667 50.0771 87.4338 49.673 87.204 49.4141C81.8723 43.4081 73.869 39.9152 65.2583 40.6693C55.9574 41.4838 48.214 47.055 44.211 54.7787C44.0364 55.1155 44.3646 55.486 44.727 55.3744C48.0742 54.3434 51.6207 53.9118 55.151 54.1691Z" fill="#202040"/>
<path d="M43.0439 79.554C42.8723 79.23 42.5427 79.0199 42.1766 78.9979C36.25 78.6426 30.5106 75.7862 26.6575 70.668C23.1312 65.9838 21.8597 60.3015 22.66 54.9251C22.6802 54.7896 22.6461 54.6515 22.5638 54.5422C22.3186 54.2164 21.8109 54.3021 21.6982 54.6939C19.4918 62.3669 20.7896 70.9486 25.9598 77.8164C31.2795 84.8829 39.4718 88.5047 47.6825 88.2805C48.5602 88.2566 48.9054 87.1682 48.2789 86.5531C46.1992 84.5112 44.4191 82.1503 43.0439 79.554Z" fill="#202040"/>
<path d="M63.5218 82.3932C63.2054 82.6504 62.7603 82.68 62.4157 82.4621C59.7816 80.797 57.5074 78.4909 55.8775 75.6003C55.725 75.3299 55.8067 74.9905 56.0546 74.8035C61.7198 70.5303 64.6111 63.9394 64.4038 57.3438C64.3912 56.9437 64.6047 56.5676 64.9622 56.3875L70.6443 53.5248C71.1795 53.2552 71.8315 53.5135 72.0114 54.0851C75.1678 64.1165 72.0728 75.4415 63.5218 82.3932Z" fill="#202040"/>
<path d="M70.2042 76.8759C70.015 77.1783 69.9936 77.5567 70.1449 77.8797C72.6412 83.2096 72.8984 89.5539 70.3187 95.3536C67.9355 100.712 63.5872 104.579 58.5017 106.485C58.3733 106.534 58.2688 106.631 58.2131 106.756C58.0473 107.129 58.3686 107.531 58.7661 107.44C66.5399 105.651 73.4089 100.355 76.9031 92.4989C80.5101 84.3895 79.6861 75.4297 75.4741 68.3392C75.0201 67.5749 73.8862 67.8218 73.6709 68.6843C72.9527 71.562 71.7919 74.3394 70.2042 76.8759Z" fill="#202040"/>
<path d="M62.2769 57.2324C62.6463 57.374 62.8917 57.7282 62.8892 58.1238C62.8696 61.2568 62.1075 64.424 60.4986 67.3499C60.3396 67.6391 59.9817 67.7466 59.6802 67.6123C53.2004 64.7244 46.0403 65.3882 40.378 68.7667C40.0338 68.972 39.6008 68.9676 39.2697 68.7416L34.0128 65.1543C33.5184 64.8169 33.4282 64.1223 33.8402 63.6881C40.9773 56.1635 52.1643 53.3553 62.2769 57.2324Z" fill="#202040"/>
</svg>
