<svg width="560" height="560" viewBox="0 0 560 560" fill="none" xmlns="http://www.w3.org/2000/svg">
<circle cx="280" cy="280" r="280" fill="white"/>
<circle cx="279.5" cy="280.5" r="17.5" fill="url(#paint0_radial_683_4665)"/>
<path fill-rule="evenodd" clip-rule="evenodd" d="M252.02 270.745C225.22 269.371 201.281 277.036 179.934 289.545C192.661 363.57 248.85 421.017 319.418 437.462C321.168 437.87 322.864 436.625 323.029 434.836L327.788 383.326C327.898 382.13 327.283 380.986 326.234 380.4C286.796 358.362 258.154 318.531 252.02 270.745ZM283.357 159.582C256.449 156.167 228.76 158.152 201.886 166.029C230.895 115.854 283.06 80.1479 345.137 74.7117C405.411 69.4331 461.435 93.8835 498.757 135.926C500.365 137.737 499.196 140.566 496.782 140.777L495.541 140.886C494.729 140.957 493.923 140.693 493.304 140.163C464.368 115.372 425.883 101.789 384.942 105.375C343.488 109.005 307.566 129.531 283.357 159.582Z" fill="url(#paint1_linear_683_4665)"/>
<path fill-rule="evenodd" clip-rule="evenodd" d="M337.74 360.702C336.785 361.545 335.393 361.681 334.296 361.033C314.241 349.179 296.811 333.26 284.965 311.393C284.288 310.143 284.621 308.594 285.711 307.681C322.12 277.164 340.251 232.252 338.048 187.598C337.988 186.398 338.633 185.27 339.705 184.729L385.861 161.475C387.467 160.667 389.421 161.445 390.003 163.146C413.587 232.115 394.378 310.704 337.74 360.702ZM215.614 401.68C217.537 403.574 216.271 406.881 213.573 406.844C158.657 406.1 104.657 380.847 69.0459 333.544C32.6347 285.177 23.661 224.667 39.4993 170.708C40.1821 168.381 43.2035 167.873 44.6617 169.81L45.4099 170.804C45.8996 171.454 46.1023 172.276 45.9812 173.081C40.3104 210.782 49.197 250.65 73.9303 283.504C98.5629 316.225 134.208 335.739 171.807 340.773C172.849 340.913 173.748 341.575 174.186 342.531C184.146 364.273 198.032 384.362 215.614 401.68Z" fill="url(#paint2_linear_683_4665)"/>
<path fill-rule="evenodd" clip-rule="evenodd" d="M315.989 187.703C317.171 188.094 317.985 189.186 318.012 190.431C318.518 213.773 314.116 237.034 301.614 258.703C300.882 259.971 299.324 260.487 297.953 259.971C253.933 243.387 206.362 249.379 168.714 272.768C167.693 273.403 166.392 273.387 165.398 272.709L122.701 243.572C121.217 242.56 120.951 240.476 122.154 239.143C170.042 186.099 245.969 164.605 315.989 187.703ZM383.055 343.819C382.677 342.858 382.807 341.771 383.404 340.928C397.456 321.099 407.984 298.657 414.123 274.434C414.791 271.8 418.319 271.237 419.63 273.617C446.492 322.383 451.02 382.724 426.648 437.519C402.039 492.845 353.517 530.038 298.69 542.331C296.326 542.861 294.417 540.467 295.402 538.253L295.91 537.11C296.241 536.366 296.862 535.79 297.625 535.505C333.316 522.191 363.842 495.083 380.557 457.502C397.241 419.993 396.974 379.23 383.055 343.819Z" fill="url(#paint3_linear_683_4665)"/>
<defs>
<radialGradient id="paint0_radial_683_4665" cx="0" cy="0" r="1" gradientUnits="userSpaceOnUse" gradientTransform="translate(279.5 280.5) rotate(90) scale(17.5)">
<stop stop-color="#00360E"/>
<stop offset="1"/>
</radialGradient>
<linearGradient id="paint1_linear_683_4665" x1="382.317" y1="64.5264" x2="320.072" y2="437.943" gradientUnits="userSpaceOnUse">
<stop/>
<stop offset="0.364583" stop-color="#017B1F"/>
<stop offset="0.521822" stop-color="#017B1F"/>
<stop offset="0.969867"/>
</linearGradient>
<linearGradient id="paint2_linear_683_4665" x1="387.328" y1="166.5" x2="48.281" y2="300.984" gradientUnits="userSpaceOnUse">
<stop/>
<stop offset="0.458657" stop-color="#017B1F"/>
<stop offset="0.64316" stop-color="#017B1F"/>
<stop offset="1"/>
</linearGradient>
<linearGradient id="paint3_linear_683_4665" x1="121.808" y1="237.848" x2="421.762" y2="457.727" gradientUnits="userSpaceOnUse">
<stop/>
<stop offset="0.467924" stop-color="#017B1F"/>
<stop offset="0.646565" stop-color="#017B1F"/>
<stop offset="1"/>
</linearGradient>
</defs>
</svg>
