<svg width="3839" height="1238" viewBox="0 0 3839 1238" fill="none" xmlns="http://www.w3.org/2000/svg">
<rect width="3838.75" height="1237.33" rx="250" fill="white"/>
<path d="M236.196 656.028V405.402H200V830.335H629.435L236.196 656.028ZM475.751 797.123L237.583 796.416V690.889L475.751 797.123Z" fill="black"/>
<path d="M566.123 405.402V657.912L567.693 673.616C570.049 703.217 586.721 732.791 585.15 732.582C616.819 780.582 618.415 775.661 626.424 784.167C640.478 799.112 655.842 808.403 674.476 817.144C696.484 826.755 720.187 831.88 744.199 832.22C759.615 831.042 777.202 833.633 795.549 827.509C817.906 820.029 838.938 809.058 857.865 795.003C873.935 782.676 892.072 762.156 901.207 745.066C911.67 724.506 918.825 702.425 922.406 679.635V405.402H566.123ZM890.476 674.506C889.211 684.981 886.923 695.307 883.645 705.337C880.246 715.523 875.492 725.206 869.512 734.126C833.944 783.722 793.926 792.804 779.375 796.939C763.802 801.336 735.405 803.142 715.619 795.683C699.418 789.559 689.107 790.292 675.418 780.608C646.001 759.827 613.914 727.949 602.555 686.702C597.32 667.989 600.095 678.85 597.32 659.692C595.776 648.909 597.32 434.611 597.32 434.611H890.45L890.476 674.506Z" fill="black"/>
<path d="M744.201 638.495C756.487 638.495 766.447 628.535 766.447 616.248C766.447 603.962 756.487 594.002 744.201 594.002C731.914 594.002 721.954 603.962 721.954 616.248C721.954 628.535 731.914 638.495 744.201 638.495Z" fill="black"/>
<path d="M1197.35 705.022V531.029L1400.26 405.402L1337.6 405.114L1198.89 489.572V405.402H1165.63V509.672L1117.89 537.939V405.402H1083.86V559.295L991.527 616.455L1082.61 673.616L1083.99 830.335H1118.02L1119.72 695.6L1164.94 723.238L1165.57 830.335H1197.29V745.851L1340.14 830.335H1402.43L1197.35 705.022ZM1083.99 632.734L1055.75 617.188L1084.05 599.784L1083.99 632.734ZM1165.13 684.686L1118.25 654.065L1118.72 580.338L1164.92 549.742L1165.13 684.686Z" fill="black"/>
<path d="M1479.33 405.402L1692.21 830.335L1759.92 704.708L1827.97 830.335L2040.43 405.402H1479.33ZM1692.55 763.962L1530.02 433.25H1628.48L1742.49 663.121L1692.55 763.962ZM1666.17 433.223H1853.67L1759.92 628.259L1666.17 433.223ZM1828.62 766.004L1778.89 665.581C1776.56 665.581 1892.25 433.223 1892.25 433.223H1991.7L1828.62 766.004Z" fill="black"/>
<path d="M2025.78 617.791L1920.46 830.336H2132.93L2025.78 617.791ZM1973.01 800.343L2026.72 690.812L2080.89 800.107L1973.01 800.343Z" fill="black"/>
<path d="M2133.95 405.402L2050.2 566.99L2178.1 830.335H2347.7L2133.95 405.402ZM2200.5 800.42L2086.39 566.048L2134.84 469.943L2297.34 800.42H2200.5Z" fill="black"/>
<path d="M2254.03 405.402L2422.44 613.341L2421.82 830.335H2453.22L2454.38 613.341L2621.56 405.402H2254.03ZM2437.83 579.867L2316.92 431.784H2560.01L2437.83 579.867Z" fill="black"/>
<circle cx="3243.53" cy="568.755" r="31.25" fill="url(#paint0_radial_682_4690)"/>
<path fill-rule="evenodd" clip-rule="evenodd" d="M3194.46 551.334C3146.6 548.881 3103.85 562.568 3065.73 584.905C3088.62 717.994 3190.17 821.075 3317.4 849.631C3319.15 850.025 3320.85 848.781 3321.02 846.992L3329.9 750.82C3330.01 749.624 3329.4 748.478 3328.34 747.898C3257.22 708.704 3205.48 637.214 3194.46 551.334ZM3250.41 352.829C3202.37 346.731 3152.92 350.275 3104.93 364.343C3156.73 274.741 3249.89 210.979 3360.74 201.271C3469.98 191.704 3571.41 236.825 3638.03 313.974C3639.61 315.807 3638.44 318.641 3636.03 318.852L3628.32 319.527C3627.51 319.598 3626.7 319.335 3626.08 318.802C3574.33 274.117 3505.29 249.592 3431.82 256.026C3357.79 262.509 3293.65 299.165 3250.41 352.829Z" fill="url(#paint1_linear_682_4690)"/>
<path fill-rule="evenodd" clip-rule="evenodd" d="M3346.27 713.08C3345.31 713.919 3343.92 714.055 3342.82 713.413C3305.88 691.857 3273.83 662.681 3252.38 622.237C3251.72 620.981 3252.05 619.427 3253.14 618.522C3319.57 563.659 3352.46 482.16 3348 401.31C3347.93 400.111 3348.57 398.982 3349.65 398.441L3435.83 355.022C3437.44 354.213 3439.39 354.993 3439.99 356.689C3483.61 480.956 3449.07 623.251 3346.27 713.08ZM3133.64 789.214C3135.59 791.076 3134.34 794.389 3131.64 794.4C3031.58 794.818 2932.57 749.626 2867.72 663.479C2801.72 575.816 2786.2 465.812 2816.26 368.376C2816.97 366.059 2820 365.552 2821.46 367.489L2826.11 373.673C2826.6 374.323 2826.8 375.144 2826.68 375.949C2816.25 443.564 2832.06 515.168 2876.44 574.124C2920.71 632.936 2984.91 667.856 3052.54 676.562C3053.58 676.697 3054.48 677.36 3054.92 678.317C3073.52 719.323 3099.92 757.068 3133.64 789.214Z" fill="url(#paint2_linear_682_4690)"/>
<path fill-rule="evenodd" clip-rule="evenodd" d="M3310.23 403.559C3311.41 403.955 3312.23 405.048 3312.26 406.292C3313.42 449.136 3305.4 491.866 3282.02 531.549C3281.27 532.81 3279.71 533.331 3278.35 532.804C3198.7 502.116 3112.34 512.99 3044.38 555.774C3043.36 556.414 3042.06 556.397 3041.06 555.719L2961.34 501.317C2959.86 500.304 2959.59 498.22 2960.79 496.877C3046.54 400.323 3183.91 361.193 3310.23 403.559ZM3427.97 680.611C3427.59 679.652 3427.72 678.564 3428.32 677.723C3454.91 640.487 3474.52 598.048 3485.34 552.146C3485.96 549.501 3489.49 548.924 3490.85 551.28C3541.39 639.244 3550.68 749.346 3506.29 849.145C3461.69 949.422 3373.1 1016.34 3273.39 1037.27C3271.02 1037.76 3269.11 1035.36 3270.09 1033.15L3273.24 1026.07C3273.57 1025.33 3274.19 1024.75 3274.96 1024.47C3339.09 1000.82 3393.99 952.268 3423.99 884.829C3453.97 817.419 3453.3 744.125 3427.97 680.611Z" fill="url(#paint3_linear_682_4690)"/>
<defs>
<radialGradient id="paint0_radial_682_4690" cx="0" cy="0" r="1" gradientUnits="userSpaceOnUse" gradientTransform="translate(3243.53 568.755) rotate(90) scale(31.25)">
<stop stop-color="#00360E"/>
<stop offset="1"/>
</radialGradient>
<linearGradient id="paint1_linear_682_4690" x1="3428.63" y1="183.069" x2="3317.74" y2="850.544" gradientUnits="userSpaceOnUse">
<stop/>
<stop offset="0.364583" stop-color="#017B1F"/>
<stop offset="0.521822" stop-color="#017B1F"/>
<stop offset="0.969867"/>
</linearGradient>
<linearGradient id="paint2_linear_682_4690" x1="3436.08" y1="364.269" x2="2830.27" y2="604.032" gradientUnits="userSpaceOnUse">
<stop/>
<stop offset="0.458657" stop-color="#017B1F"/>
<stop offset="0.64316" stop-color="#017B1F"/>
<stop offset="1"/>
</linearGradient>
<linearGradient id="paint3_linear_682_4690" x1="2960.77" y1="492.734" x2="3497.24" y2="886.251" gradientUnits="userSpaceOnUse">
<stop/>
<stop offset="0.467924" stop-color="#017B1F"/>
<stop offset="0.646565" stop-color="#017B1F"/>
<stop offset="1"/>
</linearGradient>
</defs>
</svg>
