<svg width="68" height="71" viewBox="0 0 68 71" fill="none" xmlns="http://www.w3.org/2000/svg">
<path d="M11.9176 25.0662L17.6441 30.4486C17.6967 30.4936 17.7627 30.5183 17.8308 30.5183C17.8989 30.5183 17.9649 30.4936 18.0175 30.4486C19.3033 29.3938 20.6945 28.486 22.1671 27.7408C28.5064 24.5153 34.5616 25.252 36.7705 25.5474C38.877 25.8353 40.9456 26.3685 42.9374 27.1369C42.9994 27.1613 43.0675 27.1628 43.1303 27.141C43.1931 27.1192 43.2468 27.0756 43.2822 27.0174L47.585 19.8829C47.6251 19.8147 47.6376 19.7327 47.6196 19.6549C47.6017 19.5771 47.5548 19.51 47.4892 19.4681L47.4541 19.4482C44.5002 18.1202 41.3859 17.217 38.1973 16.7636C35.5512 16.3886 26.8689 15.2737 17.9633 20.2247C15.7858 21.4331 13.756 22.9093 11.9176 24.6215C11.8892 24.6474 11.866 24.679 11.8495 24.7143C11.8329 24.7497 11.8233 24.7881 11.8212 24.8274C11.8192 24.8666 11.8246 24.9059 11.8373 24.9429C11.8501 24.9799 11.8698 25.014 11.8953 25.043L11.9176 25.0662Z" fill="#202040"/>
<path d="M57.0049 12.8645L48.5461 14.1919C48.472 14.2034 48.4052 14.2445 48.3599 14.3065C48.3146 14.3685 48.2943 14.4464 48.3035 14.5237C48.5401 16.2136 48.6543 17.9197 48.645 19.6274C48.645 20.3541 48.6259 24.3096 47.7257 27.5517C46.1297 33.329 41.661 37.0522 39.3755 38.6948C39.314 38.738 39.271 38.8044 39.2556 38.8798C39.2401 38.9553 39.2533 39.0341 39.2925 39.0996C40.7147 41.5005 42.2987 43.7937 44.0326 45.962C44.0796 46.0184 44.1449 46.0549 44.216 46.0647C44.2872 46.0745 44.3593 46.0569 44.4188 46.0151C49.3086 42.4935 53.1486 37.615 55.5014 31.9352C58.8435 23.8185 57.8476 16.1829 57.3305 13.1068C57.3179 13.0299 57.2767 12.9613 57.2157 12.9159C57.1547 12.8705 57.0789 12.852 57.0049 12.8645V12.8645Z" fill="#202040"/>
<path d="M42.5384 57.2843L45.59 48.5271C45.6033 48.4916 45.6098 48.4537 45.609 48.4156C45.6082 48.3775 45.6002 48.3399 45.5853 48.3051C45.5705 48.2702 45.5492 48.2387 45.5226 48.2125C45.496 48.1863 45.4646 48.1657 45.4304 48.1522V48.1522C42.6049 47.0216 39.99 45.389 37.7025 43.3272C35.9344 41.7494 34.4128 39.8956 33.1923 37.832C32.4932 36.6274 31.7239 35.3067 31.475 33.6542C31.4303 33.3422 31.2419 32.7648 31.0472 31.4408C30.9674 30.8933 30.9164 30.1732 30.894 29.7816C30.8892 29.7065 30.8572 29.636 30.8046 29.5843C30.7519 29.5326 30.6824 29.5035 30.6099 29.5029L21.6723 29.4664C21.5983 29.4663 21.5271 29.4959 21.4736 29.5491C21.4201 29.6023 21.3883 29.6749 21.3851 29.7518C21.337 30.7957 21.3915 31.8419 21.5478 32.8743C21.7619 34.205 22.135 35.5025 22.6587 36.7369C24.1061 40.2491 25.9999 43.5437 28.2893 46.5328C30.3234 49.0029 32.6484 51.197 35.2096 53.0634C37.4026 54.7412 39.7357 56.2116 42.1809 57.4569C42.2157 57.4714 42.2529 57.4786 42.2904 57.4781C42.3278 57.4777 42.3649 57.4695 42.3993 57.454C42.4337 57.4386 42.4648 57.4163 42.4909 57.3883C42.517 57.3603 42.5375 57.3272 42.5512 57.291L42.5384 57.2843Z" fill="#202040"/>
<path d="M23.1502 41.5054L27.0508 49.4994C27.084 49.5694 27.0893 49.6503 27.0653 49.7243C27.0414 49.7982 26.9903 49.8594 26.9231 49.8943C26.8807 49.9169 26.8335 49.9283 26.7859 49.9275C23.5409 49.8188 20.335 49.1574 17.296 47.9696C12.6762 46.1408 8.5615 43.1558 5.31648 39.2788C2.95196 36.1514 1.37735 32.4588 0.735968 28.5372V28.5173C-0.122411 25.0455 -0.231415 21.4193 0.416768 17.8985C0.619921 16.8233 0.912558 15.7686 1.29138 14.7461C1.41586 14.4142 1.54673 14.0824 1.67761 13.7738C1.69748 13.7291 1.7257 13.689 1.76061 13.6557C1.79552 13.6225 1.83643 13.5968 1.88098 13.5801C1.92552 13.5635 1.9728 13.5562 2.02009 13.5586C2.06737 13.5611 2.1137 13.5733 2.15641 13.5946C2.22185 13.6263 2.27661 13.6778 2.3136 13.7423C2.35059 13.8068 2.36811 13.8813 2.36389 13.9563C2.19171 16.6163 2.3095 19.2879 2.71501 21.9204C2.98066 23.65 3.37228 25.3561 3.88647 27.0241C3.88333 27.0382 3.88333 27.053 3.88647 27.0672C5.36916 30.4108 7.64501 33.3077 10.5003 35.4859C12.3179 36.9783 14.3056 38.2322 16.4182 39.2191C18.4923 40.1817 20.6715 40.8782 22.9076 41.2931C22.9611 41.3064 23.0109 41.3326 23.053 41.3695C23.0951 41.4063 23.1284 41.4529 23.1502 41.5054V41.5054Z" fill="#202040"/>
<path d="M33.4159 14.3047H23.6803C23.6428 14.3047 23.6056 14.2969 23.5709 14.2819C23.5362 14.2668 23.5047 14.2448 23.4783 14.217C23.4519 14.1892 23.431 14.1563 23.417 14.1201C23.4029 14.0839 23.3958 14.0451 23.3963 14.006C23.3963 13.9676 23.4028 13.9294 23.4154 13.8932C23.683 13.2075 23.9966 12.5422 24.3539 11.9022C25.8126 9.33708 27.6735 7.85377 29.5887 6.35386C32.3235 4.25566 35.3518 2.60604 38.5678 1.46257C41.9012 0.199915 45.4681 -0.254092 48.9961 0.135224C50.9782 0.248606 52.9429 0.582347 54.8566 1.13074C56.2663 1.53724 57.6406 2.06674 58.9647 2.7136C60.2874 3.36907 61.5558 4.13712 62.7568 5.00992C63.6068 5.58223 64.4135 6.22122 65.1699 6.9213C65.8082 7.52604 66.3965 8.18539 66.9287 8.89242C66.9878 8.96776 67.0186 9.06283 67.0154 9.15998C67.0121 9.25713 66.9751 9.34977 66.9112 9.4207C66.8472 9.49163 66.7607 9.53604 66.6677 9.54568C66.5746 9.55532 66.4814 9.52955 66.4052 9.47314C65.4049 8.77438 64.3692 8.13191 63.3026 7.54848C61.7184 6.61174 60.0301 5.87959 58.2752 5.3683C56.5515 4.8923 54.7724 4.66892 52.9893 4.70463C50.9204 4.68928 48.8596 4.97522 46.867 5.55413C45.6051 5.93721 44.3753 6.42664 43.1898 7.01754C41.5241 7.84089 39.9287 8.81003 38.421 9.91448C37.4378 10.6313 36.6782 11.2684 36.2089 11.6765C35.2836 12.4831 34.4002 13.3405 33.5628 14.245C33.5446 14.2663 33.5218 14.2829 33.4963 14.2933C33.4708 14.3037 33.4432 14.3076 33.4159 14.3047V14.3047Z" fill="#202040"/>
<path d="M54.0713 38.4592L59.6828 30.8734C59.7295 30.811 59.798 30.7704 59.8733 30.7605C59.9487 30.7505 60.0248 30.772 60.085 30.8203L60.1073 30.8402C60.8896 31.6213 61.5478 32.5262 62.0576 33.5214C62.9865 35.3432 63.1557 36.9925 63.3727 39.0996C63.5232 40.5597 63.5638 42.0298 63.494 43.4965C63.5443 46.2818 63.1118 49.0537 62.2172 51.6796C61.3371 54.5493 60.0872 57.2819 58.5018 59.803C56.6502 62.6336 54.2789 65.0559 51.5241 66.9309C49.3361 68.5676 46.8447 69.7135 44.208 70.2957C43.2916 70.5321 42.362 70.7094 41.4246 70.8267L40.1222 70.9859C40.0519 70.9956 39.9806 70.9778 39.9221 70.9361C39.8636 70.8944 39.822 70.8316 39.8054 70.7599C39.7887 70.6882 39.7982 70.6127 39.8319 70.5478C39.8657 70.4829 39.9213 70.4333 39.9882 70.4085C40.9458 70.0302 41.98 69.5856 43.0397 69.0613C44.1984 68.4872 45.255 67.8899 46.2062 67.2992L46.2317 67.2793C48.4018 65.6721 50.293 63.6926 51.8241 61.4257V61.4058C53.4675 59.3973 54.5387 56.9516 54.9171 54.3443V54.3111C55.2411 53.018 55.4547 51.6977 55.5555 50.3655C55.6768 48.7959 55.8013 47.4885 55.6896 46.3437C55.6867 45.4029 55.6099 44.464 55.4598 43.5363C55.3904 42.9259 55.2838 42.3208 55.1406 41.7245C54.998 41.2002 54.832 40.656 54.6426 40.0918C54.4735 39.5178 54.2724 38.9702 54.0713 38.4592Z" fill="#202040"/>
<path d="M38.59 28.4708C37.9223 28.352 37.2355 28.4572 36.629 28.7711C36.0225 29.085 35.5279 29.5913 35.2166 30.2168C34.9053 30.8424 34.7935 31.5546 34.8974 32.2506C35.0013 32.9466 35.3155 33.5901 35.7945 34.0881C36.2736 34.5861 36.8926 34.9128 37.5621 35.0208C38.2315 35.1288 38.9167 35.0126 39.5184 34.689C40.1201 34.3653 40.6071 33.8511 40.9091 33.2206C41.211 32.5901 41.3122 31.8761 41.1979 31.1819C41.0865 30.5051 40.7758 29.8808 40.3087 29.3952C39.8416 28.9096 39.2411 28.5867 38.59 28.4708V28.4708Z" fill="#202040"/>
</svg>
