<?xml version="1.0" encoding="utf-8"?>
<!-- Generator: Adobe Illustrator 24.0.2, SVG Export Plug-In . SVG Version: 6.00 Build 0)  -->
<svg version="1.1" id="Capa_1" xmlns="http://www.w3.org/2000/svg" xmlns:xlink="http://www.w3.org/1999/xlink" x="0px" y="0px"
	 viewBox="0 0 120 120" style="enable-background:new 0 0 120 120;" xml:space="preserve">
<style type="text/css">
	.st0{fill:url(#SVGID_1_);stroke:#000000;stroke-width:2;}
	.st1{fill:url(#SVGID_2_);}
	.st2{fill:none;stroke:#000000;}
	.st3{fill:#F1F1F1;}
	.st4{fill:url(#SVGID_3_);}
	.st5{fill:url(#SVGID_4_);}
	.st6{fill:url(#SVGID_5_);}
	.st7{fill:url(#SVGID_6_);}
	.st8{fill:url(#SVGID_7_);}
	.st9{fill:url(#SVGID_8_);}
	.st10{fill:url(#SVGID_9_);}
	.st11{fill:url(#SVGID_10_);}
</style>
<radialGradient id="SVGID_1_" cx="-79.65" cy="203.8146" r="1" gradientTransform="matrix(3.673941e-15 60 60 -3.673941e-15 -12168.874 4839)" gradientUnits="userSpaceOnUse">
	<stop  offset="0.3854" style="stop-color:#602080"/>
	<stop  offset="1" style="stop-color:#B030B0"/>
</radialGradient>
<path class="st0" d="M20,1h80c10.5,0,19,8.5,19,19v80c0,10.5-8.5,19-19,19H20c-10.5,0-19-8.5-19-19V20C1,9.5,9.5,1,20,1z"/>
<g>
	
		<linearGradient id="SVGID_2_" gradientUnits="userSpaceOnUse" x1="-9.1644" y1="51.504" x2="-9.1644" y2="-9.4335" gradientTransform="matrix(0.866 -0.5 -0.5 -0.866 72.7361 68.6153)">
		<stop  offset="0" style="stop-color:#0CCA98"/>
		<stop  offset="1" style="stop-color:#00FFCC"/>
	</linearGradient>
	<path class="st1" d="M27.4,35.3l23.3-13.4c4.8-2.8,10.9-1.1,13.7,3.7L84.8,61c2.8,4.8,1.1,10.9-3.7,13.7L57.9,88.1
		c-4.8,2.8-10.9,1.1-13.7-3.7L23.8,49C21,44.2,22.6,38.1,27.4,35.3z"/>
	<path class="st2" d="M27.7,35.7l23.3-13.4c4.5-2.6,10.4-1.1,13,3.5l20.5,35.5c2.6,4.5,1.1,10.4-3.5,13L57.6,87.7
		c-4.5,2.6-10.4,1.1-13-3.5L24.2,48.7C21.6,44.2,23.1,38.4,27.7,35.7z"/>
</g>
<path class="st3" d="M31,39.4l22.2-12.8c2.4-1.4,5.4-0.6,6.8,1.8l19.8,34.4c1.4,2.4,0.6,5.4-1.8,6.8L55.8,82.4
	c-2.4,1.4-5.4,0.6-6.8-1.8L29.1,46.2C27.7,43.8,28.6,40.8,31,39.4z"/>
<g>
	
		<linearGradient id="SVGID_3_" gradientUnits="userSpaceOnUse" x1="30.6507" y1="69.5656" x2="30.6507" y2="8.6281" gradientTransform="matrix(0.9659 -0.2588 -0.2588 -0.9659 41.975 102.7567)">
		<stop  offset="0" style="stop-color:#0CCA98"/>
		<stop  offset="1" style="stop-color:#00FFCC"/>
	</linearGradient>
	<path class="st4" d="M40.6,31.1l26-7c5.3-1.4,10.8,1.7,12.2,7.1l10.6,39.5c1.4,5.3-1.7,10.8-7.1,12.2l-26,7
		c-5.3,1.4-10.8-1.7-12.2-7.1L33.5,43.4C32.1,38,35.3,32.5,40.6,31.1z"/>
	<path class="st2" d="M40.7,31.6l26-7c5.1-1.4,10.3,1.6,11.6,6.7l10.6,39.5c1.4,5.1-1.6,10.3-6.7,11.6l-26,7
		c-5.1,1.4-10.3-1.6-11.6-6.7L34,43.2C32.7,38.2,35.7,32.9,40.7,31.6z"/>
</g>
<path class="st3" d="M43,35.9l24.8-6.6c2.7-0.7,5.4,0.9,6.1,3.5l10.3,38.3c0.7,2.7-0.9,5.4-3.5,6.1l-24.8,6.6
	c-2.7,0.7-5.4-0.9-6.1-3.5L39.4,42.1C38.7,39.4,40.3,36.7,43,35.9z"/>
<g>
	
		<linearGradient id="SVGID_4_" gradientUnits="userSpaceOnUse" x1="67.5" y1="92.4021" x2="67.5" y2="31.4646" gradientTransform="matrix(1 0 0 -1 0 121.4646)">
		<stop  offset="0" style="stop-color:#0CCA98"/>
		<stop  offset="1" style="stop-color:#00FFCC"/>
	</linearGradient>
	<path class="st5" d="M54.1,29.1h26.9c5.5,0,10,4.5,10,10V80c0,5.5-4.5,10-10,10H54.1c-5.5,0-10-4.5-10-10V39.1
		C44.1,33.5,48.5,29.1,54.1,29.1z"/>
	<path class="st2" d="M54.1,29.6h26.9c5.2,0,9.5,4.3,9.5,9.5V80c0,5.2-4.3,9.5-9.5,9.5H54.1c-5.2,0-9.5-4.3-9.5-9.5V39.1
		C44.6,33.8,48.8,29.6,54.1,29.6z"/>
</g>
<path class="st3" d="M54.7,34.7h25.6c2.8,0,5,2.2,5,5v39.7c0,2.8-2.2,5-5,5H54.7c-2.8,0-5-2.2-5-5V39.7
	C49.7,36.9,51.9,34.7,54.7,34.7z"/>
<g id="Capa_2_1_">
	<g id="Capa_1-2">
		
			<linearGradient id="SVGID_5_" gradientUnits="userSpaceOnUse" x1="58.0101" y1="66.3625" x2="73.1651" y2="66.3625" gradientTransform="matrix(1 0 0 -1 0 121.4646)">
			<stop  offset="0.54" style="stop-color:#000000"/>
			<stop  offset="1" style="stop-color:#017B1F"/>
		</linearGradient>
		<path class="st6" d="M58.1,55.8l2.4,2.2c0,0,0.1,0,0.2,0c0.5-0.4,1.1-0.8,1.8-1.1c2.7-1.3,5.2-1,6.2-0.9c0.9,0.1,1.8,0.3,2.6,0.6
			c0.1,0,0.1,0,0.1,0l1.8-2.9c0-0.1,0-0.1,0-0.2c0,0,0,0,0,0l0,0c-1.3-0.5-2.6-0.9-3.9-1.1c-1.1-0.2-4.8-0.6-8.6,1.4
			c-0.9,0.5-1.8,1.1-2.6,1.8C58,55.6,58,55.7,58.1,55.8L58.1,55.8z"/>
		
			<linearGradient id="SVGID_6_" gradientUnits="userSpaceOnUse" x1="73.5659" y1="70.6764" x2="73.5659" y2="57.1557" gradientTransform="matrix(1 0 0 -1 0 121.4646)">
			<stop  offset="0.54" style="stop-color:#000000"/>
			<stop  offset="1" style="stop-color:#017B1F"/>
		</linearGradient>
		<path class="st7" d="M77.1,50.8l-3.6,0.5c-0.1,0-0.1,0.1-0.1,0.1c0.1,0.7,0.1,1.4,0.1,2.1c0,0.3,0,1.9-0.4,3.2
			c-0.7,2.4-2.6,3.9-3.5,4.5c-0.1,0-0.1,0.1,0,0.2c0.6,1,1.3,1.9,2,2.8c0,0,0.1,0.1,0.2,0c2.1-1.4,3.7-3.4,4.7-5.7
			c1.4-3.3,1-6.4,0.8-7.7C77.3,50.8,77.2,50.8,77.1,50.8C77.1,50.8,77.1,50.8,77.1,50.8z"/>
		
			<linearGradient id="SVGID_7_" gradientUnits="userSpaceOnUse" x1="72.3084" y1="58.2163" x2="62.0531" y2="58.2163" gradientTransform="matrix(1 0 0 -1 0 121.4646)">
			<stop  offset="0.54" style="stop-color:#000000"/>
			<stop  offset="1" style="stop-color:#017B1F"/>
		</linearGradient>
		<path class="st8" d="M71,68.9l1.3-3.6c0-0.1,0-0.1-0.1-0.2l0,0c-1.2-0.5-2.3-1.1-3.3-2c-0.7-0.6-1.4-1.4-1.9-2.2
			c-0.3-0.5-0.6-1-0.7-1.7c0-0.1-0.1-0.4-0.2-0.9c0-0.2-0.1-0.5-0.1-0.7c0-0.1-0.1-0.1-0.1-0.1l-3.8,0c-0.1,0-0.1,0.1-0.1,0.1
			c0,0.4,0,0.9,0.1,1.3c0.1,0.5,0.2,1.1,0.5,1.6c0.6,1.4,1.4,2.8,2.4,4c0.9,1,1.8,1.9,2.9,2.7c0.9,0.7,1.9,1.3,3,1.8
			C70.9,69,71,68.9,71,68.9C71,68.9,71,68.9,71,68.9L71,68.9z"/>
		
			<linearGradient id="SVGID_8_" gradientUnits="userSpaceOnUse" x1="58.7387" y1="70.3912" x2="58.7387" y2="55.5852" gradientTransform="matrix(1 0 0 -1 0 121.4646)">
			<stop  offset="0.54" style="stop-color:#000000"/>
			<stop  offset="1" style="stop-color:#017B1F"/>
		</linearGradient>
		<path class="st9" d="M62.8,62.5l1.7,3.3c0,0.1,0,0.1-0.1,0.2c0,0,0,0-0.1,0c-1.4,0-2.7-0.3-4-0.8c-2-0.7-3.7-2-5.1-3.5
			c-1-1.3-1.7-2.8-1.9-4.4l0,0c-0.4-1.4-0.4-2.9-0.1-4.3c0.1-0.4,0.2-0.9,0.4-1.3c0.1-0.1,0.1-0.3,0.2-0.4c0-0.1,0.1-0.1,0.2-0.1
			c0,0,0,0,0,0c0.1,0,0.1,0.1,0.1,0.1c-0.1,1.1,0,2.2,0.1,3.2c0.1,0.7,0.3,1.4,0.5,2.1c0,0,0,0,0,0c0.6,1.4,1.6,2.5,2.8,3.4
			c0.8,0.6,1.6,1.1,2.5,1.5c0.9,0.4,1.8,0.7,2.7,0.8C62.7,62.4,62.8,62.4,62.8,62.5z"/>
		
			<linearGradient id="SVGID_9_" gradientUnits="userSpaceOnUse" x1="81.3543" y1="72.999" x2="62.91" y2="72.999" gradientTransform="matrix(1 0 0 -1 0 121.4646)">
			<stop  offset="0.54" style="stop-color:#000000"/>
			<stop  offset="1" style="stop-color:#017B1F"/>
		</linearGradient>
		<path class="st10" d="M67.2,51.4H63c-0.1,0-0.1-0.1-0.1-0.1c0,0,0,0,0,0c0,0,0,0,0,0c0.1-0.3,0.2-0.6,0.4-0.8
			c0.6-1,1.4-1.6,2.2-2.3c1.2-0.9,2.4-1.5,3.8-2c1.4-0.5,2.9-0.7,4.4-0.5c0.8,0,1.7,0.2,2.5,0.4c0.6,0.2,1.2,0.4,1.7,0.6
			c0.6,0.3,1.1,0.6,1.6,0.9c0.4,0.2,0.7,0.5,1,0.8c0.3,0.2,0.5,0.5,0.7,0.8c0,0.1,0,0.2,0,0.2c-0.1,0-0.1,0-0.2,0
			c-0.4-0.3-0.9-0.5-1.3-0.8c-0.7-0.4-1.4-0.7-2.1-0.9c-0.7-0.2-1.5-0.3-2.2-0.3c-0.9,0-1.7,0.1-2.6,0.4c-0.5,0.2-1.1,0.4-1.6,0.6
			c-0.7,0.3-1.4,0.7-2,1.2c-0.4,0.3-0.7,0.6-0.9,0.7C67.9,50.6,67.6,51,67.2,51.4C67.2,51.4,67.2,51.4,67.2,51.4z"/>
		
			<linearGradient id="SVGID_10_" gradientUnits="userSpaceOnUse" x1="74.8771" y1="47.018" x2="74.8771" y2="63.3896" gradientTransform="matrix(1 0 0 -1 0 121.4646)">
			<stop  offset="0.54" style="stop-color:#000000"/>
			<stop  offset="1" style="stop-color:#017B1F"/>
		</linearGradient>
		<path class="st11" d="M75.9,61.2l2.4-3.1c0-0.1,0.1-0.1,0.2,0c0,0,0,0,0,0h0c0.3,0.3,0.6,0.7,0.8,1.1c0.4,0.7,0.5,1.4,0.6,2.3
			c0.1,0.6,0.1,1.2,0.1,1.8c0,1.1-0.2,2.3-0.5,3.3c-0.4,1.2-0.9,2.3-1.6,3.3C77,71,76,72,74.8,72.8c-0.9,0.7-2,1.1-3.1,1.4
			c-0.4,0.1-0.8,0.2-1.2,0.2L70,74.4c-0.1,0-0.1,0-0.1-0.1c0-0.1,0-0.1,0.1-0.1c0.4-0.2,0.8-0.3,1.3-0.5c0.5-0.2,0.9-0.5,1.3-0.7
			l0,0c0.9-0.7,1.7-1.5,2.4-2.4v0c0.7-0.8,1.1-1.8,1.3-2.9v0c0.1-0.5,0.2-1.1,0.3-1.6c0.1-0.6,0.1-1.2,0.1-1.6c0-0.4,0-0.8-0.1-1.1
			c0-0.2-0.1-0.5-0.1-0.7c-0.1-0.2-0.1-0.4-0.2-0.7C76.1,61.6,76,61.4,75.9,61.2z"/>
		<path d="M69.3,57.1c-0.7-0.1-1.4,0.4-1.6,1.1c-0.1,0.7,0.4,1.4,1.1,1.6s1.4-0.4,1.6-1.1c0-0.2,0-0.3,0-0.5
			C70.3,57.7,69.9,57.2,69.3,57.1z"/>
	</g>
</g>
</svg>
