<?xml version="1.0" encoding="utf-8"?>
<!-- Generator: Adobe Illustrator 24.0.2, SVG Export Plug-In . SVG Version: 6.00 Build 0)  -->
<svg version="1.1" id="Capa_1" xmlns="http://www.w3.org/2000/svg" xmlns:xlink="http://www.w3.org/1999/xlink" x="0px" y="0px"
	 viewBox="0 0 138.8 158.9" style="enable-background:new 0 0 138.8 158.9;" xml:space="preserve">
<style type="text/css">
	.st0{fill:#DDDDDD;stroke:#DDDDDD;stroke-width:2;stroke-miterlimit:10;}
	.st1{fill:#EEEEEE;stroke:#EEEEEE;stroke-width:2;stroke-miterlimit:10;}
	.st2{fill:#FFFFFF;stroke:#FFFFFF;stroke-width:2;stroke-miterlimit:10;}
</style>
<title>icon_cards</title>
<path class="st0" d="M21,1l40,0c11.1,0,20,8.9,20,20l0,60c0,11.1-8.9,20-20,20l-40,0c-11.1,0-20-8.9-20-20l0-60
	c0-11,8.9-19.9,19.7-20C21,1,21,1,21,1z"/>
<path class="st1" d="M49.4,29.4l40-0.1c11.1,0,20,8.9,20,20l0,60c0.1,11-8.9,20-20,20l-40,0.1c-11.1,0-20-8.9-20-20l0-59.9
	c-0.1-11,8.8-19.9,19.7-20.1C49.2,29.4,49.3,29.4,49.4,29.4z"/>
<path class="st2" d="M77.7,57.7h40c11,0,20,9,20,20v60c0,11-9,20-20,20h-40c-11,0-20-9-20-20v-60C57.7,66.7,66.6,57.8,77.7,57.7z"/>
</svg>
