<?xml version="1.0" encoding="utf-8"?>
<!-- Generator: Adobe Illustrator 24.0.2, SVG Export Plug-In . SVG Version: 6.00 Build 0)  -->
<svg version="1.1" id="Capa_1" xmlns="http://www.w3.org/2000/svg" xmlns:xlink="http://www.w3.org/1999/xlink" x="0px" y="0px"
	 viewBox="0 0 160 200" style="enable-background:new 0 0 160 200;" xml:space="preserve">
<style type="text/css">
	.st0{fill:url(#SVGID_1_);}
	.st1{fill:none;stroke:#000000;stroke-width:2;}
	.st2{fill:url(#SVGID_2_);}
	.st3{fill:#202040;}
	.st4{clip-path:url(#SVGID_4_);}
	.st5{fill:#DB380E;}
	.st6{fill:#73A1FB;}
	.st7{fill:#8993BE;}
	.st8{fill-rule:evenodd;clip-rule:evenodd;fill:#232531;}
	.st9{fill:#F6D2A2;}
	.st10{fill:#69D7E2;}
	.st11{fill:#FFFFFF;}
	.st12{fill:#231F20;}
	.st13{clip-path:url(#SVGID_6_);}
	.st14{fill:url(#SVGID_7_);}
	.st15{fill:url(#SVGID_8_);}
	.st16{fill:#DD0031;}
	.st17{fill:#C3002F;}
	.st18{clip-path:url(#SVGID_10_);}
	.st19{fill:#FF3E00;}
	.st20{fill:#61DAFB;}
	.st21{fill:#41B883;}
	.st22{fill:#34495E;}
	.st23{clip-path:url(#SVGID_12_);}
	.st24{fill:#F7DF1E;}
	.st25{fill:#CD6799;}
	.st26{clip-path:url(#SVGID_14_);}
	.st27{fill:#2196F3;}
	.st28{fill:#FAFAFA;}
	.st29{clip-path:url(#SVGID_16_);}
	.st30{fill:#FF5722;}
</style>
<g>
	
		<linearGradient id="SVGID_1_" gradientUnits="userSpaceOnUse" x1="80" y1="199.4646" x2="80" y2="-0.5354" gradientTransform="matrix(1 0 0 -1 0 199.4646)">
		<stop  offset="0" style="stop-color:#0CCA98"/>
		<stop  offset="1" style="stop-color:#00FFCC"/>
	</linearGradient>
	<path class="st0" d="M30,0h100c16.6,0,30,13.4,30,30v140c0,16.6-13.4,30-30,30H30c-16.6,0-30-13.4-30-30V30C0,13.4,13.4,0,30,0z"/>
	<path class="st1" d="M30,1h100c16,0,29,13,29,29v140c0,16-13,29-29,29H30c-16,0-29-13-29-29V30C1,14,14,1,30,1z"/>
</g>
<g>
	
		<linearGradient id="SVGID_2_" gradientUnits="userSpaceOnUse" x1="80" y1="183.4646" x2="80" y2="39.4646" gradientTransform="matrix(1 0 0 -1 0 199.4646)">
		<stop  offset="0" style="stop-color:#F8F9FA"/>
		<stop  offset="1" style="stop-color:#DEE2E6"/>
	</linearGradient>
	<path class="st2" d="M36,16h88c11,0,20,9,20,20v104c0,11-9,20-20,20H36c-11,0-20-9-20-20V36C16,25,25,16,36,16z"/>
</g>
<path class="st3" d="M21.3,172.2h4.5c1.1,0,2,0.2,2.8,0.6c0.8,0.4,1.5,1,1.9,1.7c0.5,0.7,0.7,1.6,0.7,2.6c0,1-0.2,1.8-0.7,2.6
	c-0.4,0.7-1.1,1.3-1.9,1.7c-0.8,0.4-1.8,0.6-2.8,0.6h-4.5V172.2z M25.7,180.1c1,0,1.8-0.3,2.3-0.8c0.6-0.6,0.9-1.3,0.9-2.2
	s-0.3-1.7-0.9-2.2c-0.6-0.6-1.4-0.8-2.3-0.8h-2.1v6.1H25.7z M36.5,180.4c0.4,0,0.7-0.1,1-0.2c0.3-0.1,0.6-0.3,0.9-0.6l1.2,1.3
	c-0.7,0.8-1.7,1.2-3.1,1.2c-0.8,0-1.6-0.2-2.3-0.5c-0.7-0.3-1.2-0.8-1.5-1.4c-0.4-0.6-0.5-1.3-0.5-2c0-0.7,0.2-1.4,0.5-2
	c0.4-0.6,0.8-1.1,1.4-1.4c0.6-0.3,1.3-0.5,2.1-0.5c0.7,0,1.4,0.2,2,0.5c0.6,0.3,1.1,0.7,1.4,1.3c0.4,0.6,0.5,1.2,0.5,2l-5.6,1.1
	c0.2,0.4,0.4,0.7,0.7,0.8C35.6,180.3,36,180.4,36.5,180.4z M36.2,176c-0.6,0-1,0.2-1.3,0.5c-0.3,0.4-0.5,0.8-0.5,1.5l3.7-0.7
	c-0.1-0.4-0.3-0.7-0.6-0.9C37,176.1,36.7,176,36.2,176z M44.1,182.1c-0.6,0-1.2-0.1-1.8-0.2c-0.6-0.2-1.1-0.4-1.4-0.6l0.7-1.6
	c0.3,0.2,0.7,0.4,1.2,0.5c0.5,0.1,0.9,0.2,1.4,0.2c0.9,0,1.4-0.2,1.4-0.7c0-0.2-0.1-0.4-0.4-0.5s-0.6-0.2-1.2-0.2
	c-0.6-0.1-1.1-0.2-1.5-0.3c-0.4-0.1-0.8-0.3-1.1-0.6c-0.3-0.3-0.4-0.7-0.4-1.3c0-0.5,0.1-0.9,0.4-1.3c0.3-0.4,0.7-0.7,1.2-0.9
	c0.5-0.2,1.2-0.3,1.9-0.3c0.5,0,1.1,0.1,1.6,0.2c0.5,0.1,1,0.3,1.3,0.5l-0.7,1.6c-0.7-0.4-1.4-0.6-2.2-0.6c-0.5,0-0.8,0.1-1.1,0.2
	c-0.2,0.1-0.3,0.3-0.3,0.5c0,0.2,0.1,0.4,0.4,0.5s0.7,0.2,1.2,0.3c0.6,0.1,1.1,0.2,1.5,0.3c0.4,0.1,0.7,0.3,1,0.6
	c0.3,0.3,0.4,0.7,0.4,1.3c0,0.5-0.1,0.9-0.4,1.2s-0.7,0.6-1.2,0.9C45.5,182,44.8,182.1,44.1,182.1z M56.6,174.5v7.5h-2.1v-0.9
	c-0.5,0.7-1.3,1-2.4,1c-0.7,0-1.4-0.2-1.9-0.5c-0.6-0.3-1-0.8-1.3-1.4s-0.5-1.3-0.5-2c0-0.8,0.2-1.5,0.5-2s0.8-1,1.3-1.4
	c0.6-0.3,1.2-0.5,1.9-0.5c1,0,1.7,0.3,2.3,0.9v-0.8H56.6z M52.6,180.3c0.6,0,1-0.2,1.4-0.6c0.4-0.4,0.5-0.9,0.5-1.5
	c0-0.6-0.2-1.1-0.5-1.5c-0.4-0.4-0.8-0.6-1.4-0.6c-0.6,0-1,0.2-1.4,0.6c-0.4,0.4-0.5,0.9-0.5,1.5c0,0.6,0.2,1.1,0.5,1.5
	C51.6,180.1,52,180.3,52.6,180.3z M60.8,175.5c0.3-0.4,0.6-0.6,1-0.8c0.4-0.2,1-0.3,1.5-0.3v2c-0.2,0-0.4,0-0.5,0
	c-0.6,0-1.1,0.2-1.5,0.5c-0.4,0.3-0.5,0.9-0.5,1.6v3.6h-2.2v-7.5h2.1V175.5z M66.7,175.5c0.3-0.4,0.6-0.6,1-0.8
	c0.4-0.2,1-0.3,1.5-0.3v2c-0.2,0-0.4,0-0.5,0c-0.6,0-1.1,0.2-1.5,0.5c-0.4,0.3-0.5,0.9-0.5,1.6v3.6h-2.2v-7.5h2.1V175.5z
	 M74.1,182.1c-0.8,0-1.5-0.2-2.1-0.5c-0.6-0.3-1.1-0.8-1.5-1.4c-0.4-0.6-0.5-1.3-0.5-2c0-0.7,0.2-1.4,0.5-2c0.4-0.6,0.8-1,1.5-1.4
	c0.6-0.3,1.3-0.5,2.1-0.5c0.8,0,1.5,0.2,2.1,0.5c0.6,0.3,1.1,0.8,1.5,1.4c0.4,0.6,0.5,1.3,0.5,2c0,0.7-0.2,1.4-0.5,2
	c-0.4,0.6-0.8,1.1-1.5,1.4C75.6,181.9,74.9,182.1,74.1,182.1z M74.1,180.3c0.6,0,1-0.2,1.4-0.6c0.4-0.4,0.5-0.9,0.5-1.5
	c0-0.6-0.2-1.1-0.5-1.5c-0.4-0.4-0.8-0.6-1.4-0.6c-0.6,0-1,0.2-1.4,0.6c-0.4,0.4-0.5,0.9-0.5,1.5c0,0.6,0.2,1.1,0.5,1.5
	C73.1,180.1,73.6,180.3,74.1,180.3z M82.4,182.1c-0.8,0-1.5-0.2-2-0.7c-0.5-0.5-0.7-1.1-0.7-1.9v-7.9h2.2v7.8c0,0.3,0.1,0.6,0.2,0.7
	c0.2,0.2,0.4,0.3,0.7,0.3c0.1,0,0.2,0,0.3,0c0.1,0,0.2-0.1,0.3-0.1l0.1,1.7C83.2,182.1,82.8,182.1,82.4,182.1z M87.3,182.1
	c-0.9,0-1.5-0.2-2-0.7c-0.5-0.5-0.7-1.1-0.7-1.9v-7.9h2.2v7.8c0,0.3,0.1,0.6,0.2,0.7c0.2,0.2,0.4,0.3,0.7,0.3c0.1,0,0.2,0,0.3,0
	c0.1,0,0.2-0.1,0.3-0.1l0.1,1.7C88.1,182.1,87.7,182.1,87.3,182.1z M97,174.5v7.5H95v-0.9c-0.5,0.7-1.3,1-2.4,1
	c-0.7,0-1.4-0.2-1.9-0.5c-0.6-0.3-1-0.8-1.3-1.4c-0.3-0.6-0.5-1.3-0.5-2c0-0.8,0.2-1.5,0.5-2c0.3-0.6,0.8-1,1.3-1.4
	c0.6-0.3,1.2-0.5,1.9-0.5c1,0,1.7,0.3,2.3,0.9v-0.8H97z M93,180.3c0.6,0,1-0.2,1.4-0.6c0.4-0.4,0.5-0.9,0.5-1.5
	c0-0.6-0.2-1.1-0.5-1.5c-0.4-0.4-0.8-0.6-1.4-0.6c-0.6,0-1,0.2-1.4,0.6c-0.4,0.4-0.5,0.9-0.5,1.5c0,0.6,0.2,1.1,0.5,1.5
	C92,180.1,92.4,180.3,93,180.3z M106.7,171.6V182h-2.1v-0.9c-0.5,0.7-1.3,1-2.4,1c-0.7,0-1.4-0.2-1.9-0.5c-0.6-0.3-1-0.8-1.3-1.4
	c-0.3-0.6-0.5-1.3-0.5-2c0-0.8,0.2-1.5,0.5-2c0.3-0.6,0.8-1,1.3-1.4c0.6-0.3,1.2-0.5,1.9-0.5c1,0,1.7,0.3,2.3,0.9v-3.7H106.7z
	 M102.7,180.3c0.6,0,1-0.2,1.4-0.6c0.4-0.4,0.5-0.9,0.5-1.5c0-0.6-0.2-1.1-0.5-1.5c-0.4-0.4-0.8-0.6-1.4-0.6c-0.6,0-1,0.2-1.4,0.6
	c-0.4,0.4-0.5,0.9-0.5,1.5c0,0.6,0.2,1.1,0.5,1.5C101.7,180.1,102.1,180.3,102.7,180.3z M112.3,182.1c-0.8,0-1.5-0.2-2.1-0.5
	c-0.6-0.3-1.1-0.8-1.5-1.4c-0.4-0.6-0.5-1.3-0.5-2c0-0.7,0.2-1.4,0.5-2c0.4-0.6,0.8-1,1.5-1.4c0.6-0.3,1.3-0.5,2.1-0.5
	c0.8,0,1.5,0.2,2.1,0.5c0.6,0.3,1.1,0.8,1.5,1.4c0.4,0.6,0.5,1.3,0.5,2c0,0.7-0.2,1.4-0.5,2c-0.4,0.6-0.8,1.1-1.5,1.4
	C113.9,181.9,113.1,182.1,112.3,182.1z M112.3,180.3c0.6,0,1-0.2,1.4-0.6c0.4-0.4,0.5-0.9,0.5-1.5c0-0.6-0.2-1.1-0.5-1.5
	c-0.4-0.4-0.8-0.6-1.4-0.6c-0.6,0-1,0.2-1.4,0.6c-0.4,0.4-0.5,0.9-0.5,1.5c0,0.6,0.2,1.1,0.5,1.5
	C111.3,180.1,111.8,180.3,112.3,180.3z M120,175.5c0.3-0.4,0.6-0.6,1.1-0.8c0.4-0.2,1-0.3,1.5-0.3v2c-0.2,0-0.4,0-0.5,0
	c-0.6,0-1.1,0.2-1.5,0.5c-0.4,0.3-0.5,0.9-0.5,1.6v3.6h-2.2v-7.5h2.1V175.5z M127.6,180.4c0.4,0,0.7-0.1,1-0.2
	c0.3-0.1,0.6-0.3,0.9-0.6l1.2,1.3c-0.7,0.8-1.7,1.2-3.1,1.2c-0.8,0-1.6-0.2-2.3-0.5c-0.7-0.3-1.2-0.8-1.5-1.4
	c-0.4-0.6-0.5-1.3-0.5-2c0-0.7,0.2-1.4,0.5-2c0.4-0.6,0.8-1.1,1.4-1.4c0.6-0.3,1.3-0.5,2.1-0.5c0.7,0,1.4,0.2,2,0.5
	c0.6,0.3,1.1,0.7,1.4,1.3c0.4,0.6,0.5,1.2,0.5,2l-5.6,1.1c0.2,0.4,0.4,0.7,0.7,0.8C126.7,180.3,127.1,180.4,127.6,180.4z M127.3,176
	c-0.6,0-1,0.2-1.3,0.5c-0.3,0.4-0.5,0.8-0.5,1.5l3.7-0.7c-0.1-0.4-0.3-0.7-0.6-0.9C128.1,176.1,127.8,176,127.3,176z M135.2,182.1
	c-0.6,0-1.2-0.1-1.8-0.2c-0.6-0.2-1.1-0.4-1.4-0.6l0.7-1.6c0.3,0.2,0.7,0.4,1.2,0.5c0.5,0.1,0.9,0.2,1.4,0.2c0.9,0,1.4-0.2,1.4-0.7
	c0-0.2-0.1-0.4-0.4-0.5s-0.6-0.2-1.2-0.2c-0.6-0.1-1.1-0.2-1.5-0.3c-0.4-0.1-0.8-0.3-1.1-0.6c-0.3-0.3-0.4-0.7-0.4-1.3
	c0-0.5,0.1-0.9,0.4-1.3c0.3-0.4,0.7-0.7,1.2-0.9c0.5-0.2,1.2-0.3,1.9-0.3c0.5,0,1.1,0.1,1.6,0.2c0.5,0.1,1,0.3,1.3,0.5l-0.7,1.6
	c-0.7-0.4-1.4-0.6-2.2-0.6c-0.5,0-0.8,0.1-1.1,0.2c-0.2,0.1-0.4,0.3-0.4,0.5c0,0.2,0.1,0.4,0.4,0.5s0.7,0.2,1.2,0.3
	c0.6,0.1,1.1,0.2,1.5,0.3c0.4,0.1,0.7,0.3,1,0.6c0.3,0.3,0.4,0.7,0.4,1.3c0,0.5-0.1,0.9-0.4,1.2s-0.7,0.6-1.2,0.9
	C136.6,182,135.9,182.1,135.2,182.1z"/>
<g>
	<defs>
		<rect id="SVGID_3_" x="110.4" y="127.2" width="24" height="24"/>
	</defs>
	<clipPath id="SVGID_4_">
		<use xlink:href="#SVGID_3_"  style="overflow:visible;"/>
	</clipPath>
	<g class="st4">
		<path class="st5" d="M122.3,131.6c-1.1,0.8-2.4,1.7-3,3.1c-1.2,2.6,2.4,5.3,2.5,5.5c0,0,0.1,0,0.1,0c0,0,0.1,0,0.1,0
			c0.1-0.1,0.1-0.2,0-0.2c0,0-1.3-2.5-1.2-4.3c0-0.6,0.9-1.3,1.8-2.1c0.8-0.7,1.8-1.5,2.4-2.4c1.2-2-0.1-4-0.2-4
			c-0.1-0.1-0.2-0.1-0.2-0.1c-0.1,0-0.1,0.1-0.1,0.2c0,0,0.3,1.3-0.5,2.6C123.7,130.6,123.1,131.1,122.3,131.6z"/>
		<path class="st5" d="M127,132.5c0.1-0.1,0.1-0.2,0.1-0.3c0-0.1-0.2-0.1-0.2-0.1c-0.2,0.1-4.6,1.8-4.6,3.8c0,1.4,0.6,2.2,1.1,2.7
			c0.2,0.2,0.3,0.4,0.4,0.6c0.1,0.5-0.2,1.3-0.3,1.6c0,0.1,0,0.2,0,0.2c0,0,0.1,0,0.1,0c0,0,0.1,0,0.1,0c0.1-0.1,1.9-1.3,1.5-2.8
			c-0.1-0.6-0.4-1-0.7-1.4c-0.4-0.6-0.7-1-0.2-1.8C124.7,134.2,126.9,132.5,127,132.5z"/>
		<path class="st6" d="M115.4,141.2c-0.1,0.2,0,0.5,0.1,0.7c0.5,0.7,2.2,1,4.8,1c0,0,0,0,0,0c0.4,0,0.7,0,1.1,0
			c4.2-0.1,5.7-1.4,5.8-1.5c0.1-0.1,0.1-0.2,0-0.2c0-0.1-0.1-0.1-0.2-0.1c-1.5,0.4-4.2,0.5-6.1,0.5c-2.1,0-3.2-0.2-3.5-0.3
			c0.1-0.2,1-0.5,2-0.7c0.1,0,0.2-0.1,0.2-0.2c0-0.1-0.1-0.2-0.2-0.2C118.8,140.2,115.8,140.2,115.4,141.2z"/>
		<path class="st6" d="M129.4,139.8c-0.9,0-1.7,0.4-1.7,0.4c-0.1,0-0.1,0.1-0.1,0.2c0,0.1,0.1,0.1,0.2,0.1c0,0,1.8,0,2,1.1
			c0.1,0.9-1.7,2.3-2.4,2.8c-0.1,0.1-0.1,0.2-0.1,0.2c0,0.1,0.1,0.1,0.2,0.1c0,0,0,0,0,0c0.2,0,4.2-0.9,3.8-3.3
			C131,140.1,130.1,139.8,129.4,139.8z"/>
		<path class="st6" d="M126.6,144.3c0-0.1,0-0.2-0.1-0.2l-1-0.7c0,0-0.1,0-0.2,0c0,0-1,0.3-2.5,0.4c-0.6,0.1-1.2,0.1-1.9,0.1
			c-1.5,0-2.4-0.2-2.6-0.3c0,0,0-0.1,0-0.1c0-0.1,0.2-0.2,0.3-0.2c0.1,0,0.1-0.1,0.1-0.2c0-0.1-0.1-0.2-0.2-0.1
			c-1,0.2-1.5,0.6-1.4,1c0.1,0.7,1.8,1.1,3.2,1.2c0.2,0,0.4,0,0.7,0l0,0c2.4,0,5.5-0.8,5.5-0.8C126.5,144.4,126.6,144.3,126.6,144.3
			z"/>
		<path class="st6" d="M119.2,145.8c0.1,0,0.1-0.1,0.1-0.2s-0.1-0.1-0.2-0.1c-0.1,0-1.3,0.1-1.4,0.8c0,0.2,0,0.4,0.2,0.6
			c0.4,0.5,1.5,0.8,3.4,0.9c0.2,0,0.4,0,0.7,0c2.4,0,4-0.7,4.1-0.8c0.1,0,0.1-0.1,0.1-0.2c0-0.1,0-0.1-0.1-0.2l-1.2-0.8
			c0,0-0.1,0-0.1,0c0,0-0.8,0.2-2,0.3c-0.2,0-0.5,0-0.8,0C120.8,146.2,119.5,146,119.2,145.8C119.2,145.9,119.2,145.9,119.2,145.8z"
			/>
		<path class="st6" d="M120.9,150c5.5,0,8.4-1,9-1.6c0.2-0.2,0.2-0.4,0.2-0.6c0-0.3-0.3-0.5-0.4-0.6c-0.1-0.1-0.2,0-0.3,0
			c-0.1,0.1-0.1,0.2,0,0.3c0,0,0.1,0.1,0,0.2c-0.2,0.2-2.5,0.9-6.3,1c-0.5,0-1.1,0-1.6,0c-3.4,0-5.9-0.5-6.2-0.7
			c0.1-0.2,1-0.5,1.9-0.6c0.1,0,0.2-0.1,0.2-0.2c0-0.1-0.1-0.2-0.2-0.2c0,0-0.1,0-0.2,0c-1.5,0.1-3.3,0.3-3.4,1.1
			c0,0.2,0,0.5,0.2,0.7C114.1,149.4,115.3,150,120.9,150L120.9,150z"/>
		<path class="st6" d="M131,148.6c-0.1,0-0.2,0-0.2,0c0,0-0.8,0.9-3.3,1.4c-0.9,0.2-2.7,0.3-5.3,0.3c-2.6,0-5-0.1-5-0.1
			c-0.1,0-0.2,0.1-0.2,0.2c0,0.1,0.1,0.2,0.2,0.2c0,0,2.6,0.6,6.1,0.6c1.7,0,3.3-0.1,4.9-0.4c2.9-0.5,3.1-1.9,3.1-2
			C131.1,148.7,131.1,148.6,131,148.6z"/>
	</g>
</g>
<path class="st7" d="M80,148.8c10.2,0,18.4-4.3,18.4-9.6s-8.3-9.6-18.4-9.6s-18.4,4.3-18.4,9.6S69.9,148.8,80,148.8z"/>
<path class="st8" d="M66.8,144.9l2-10.2h4.7c2,0.1,3,1.1,3,2.9c0,3-2.4,4.8-4.5,4.7h-2.3l-0.5,2.7H66.8z M70.2,140.3l0.6-3.8h1.6
	c0.9,0,1.5,0.4,1.5,1.1c-0.1,2.1-1.1,2.5-2.3,2.7H70.2L70.2,140.3z M76,142.2l2-10.2h2.4l-0.5,2.7h2.3c2,0.1,2.8,1.1,2.5,2.4
	l-0.9,5.2h-2.5l0.9-4.7c0.1-0.6,0.1-1-0.8-1h-1.9l-1.1,5.7H76L76,142.2z M83.7,144.9l2-10.2h4.7c2,0.1,3,1.1,3,2.9
	c0,3-2.4,4.8-4.5,4.7h-2.3l-0.5,2.7H83.7L83.7,144.9z M87.1,140.3l0.6-3.8h1.6c0.9,0,1.5,0.4,1.5,1.1c-0.1,2.1-1.1,2.5-2.3,2.7H87.1
	L87.1,140.3z"/>
<path class="st9" d="M27.4,140.2c0,0.7,0.7,0.4,1.1,0.2c0.3-0.2,0.4,0,0.4-0.4c0-0.3,0-0.5,0-0.8c-0.5,0-1,0.1-1.3,0.3
	C27.4,139.6,27,140,27.4,140.2z"/>
<path class="st9" d="M41.6,148.9c0.5,0.3,1.5,1.4,0.7,1.9c-0.8,0.7-1.2-0.8-1.9-1C40.7,149.4,41,149,41.6,148.9z"/>
<path class="st9" d="M31.8,150.1c-0.6,0.1-1,0.7-1.5,1c-0.5,0.3-0.7-0.1-0.7-0.2c-0.1,0-0.1,0-0.2-0.1c-0.5-0.7,0.5-1.3,1-1.6
	C31,149,31.5,149.6,31.8,150.1z"/>
<path class="st9" d="M44.6,140.1c0,0.7-0.7,0.4-1.1,0.2c-0.3-0.2-0.4,0-0.4-0.4c0-0.3,0-0.5,0-0.8c0.5,0,1,0.1,1.3,0.3
	C44.6,139.5,45,139.9,44.6,140.1z"/>
<path class="st10" d="M42.7,131.5c2.5-0.9,0.5-4.2-1.6-2.7c-1.4-1.2-3.3-1.4-5.4-1.4c-2,0.2-3.9,0.5-5.2,1.7
	c-2.1-1.4-4.1,1.9-1.6,2.8c-0.7,2.7,0.1,5.5,0,8.3c-0.1,2.5-0.8,5.8,0.6,8.1c1.2,1.9,3.7,2.6,5.8,2.7c2.7,0.1,5.9-0.6,7.2-3.1
	c1.2-2.5,0.9-5.5,0.7-8.2C43.1,136.8,43.4,134,42.7,131.5z"/>
<path d="M44.8,139.7c-0.1-0.1-0.2-0.3-0.3-0.4c-0.3-0.2-0.7-0.4-1.1-0.4c0-0.4,0-0.9,0-1.5v-0.5c0-1.7,0-2.4-0.1-3.4
	c-0.1-0.7-0.2-1.4-0.4-2c0.6-0.2,0.9-0.6,1.1-1c0.1-0.4,0.1-0.9-0.2-1.3c-0.2-0.4-0.6-0.7-1.1-0.8c-0.5-0.1-1,0-1.5,0.3
	c-0.4-0.4-1-0.7-1.5-0.9c-1-0.4-2.2-0.5-3.8-0.5v0.1l0-0.1c-1.7,0.1-3,0.4-4.1,0.9c-0.4,0.2-0.8,0.5-1.1,0.7c-0.5-0.3-1-0.4-1.5-0.2
	c-0.5,0.1-0.8,0.5-1.1,0.9s-0.3,0.9-0.1,1.3c0.2,0.4,0.5,0.7,1.1,0.9c-0.2,0.7-0.3,1.4-0.3,2.2c0,0.8,0,1.4,0.1,2.9
	c0.1,1.1,0.1,1.6,0.1,2.1c-0.5,0-0.9,0.1-1.3,0.4c-0.1,0.1-0.3,0.2-0.3,0.4c-0.1,0.2-0.1,0.4,0.1,0.5c0,0.3,0.2,0.5,0.5,0.5
	c0.2,0,0.5-0.1,0.7-0.3c0,0,0.1-0.1,0.1-0.1c0,0,0,0,0.1,0c0,0,0,0,0.1,0c0,0,0,0,0.1,0c0,0.3,0,0.7-0.1,1.4
	c-0.1,0.9-0.1,1.3-0.1,1.9c-0.1,2,0.2,3.4,0.9,4.5c0.2,0.4,0.5,0.7,0.8,1c-0.1,0-0.3,0.2-0.4,0.3c-0.3,0.2-0.5,0.4-0.6,0.6
	c-0.2,0.3-0.2,0.5,0,0.8l0,0l0,0c0.1,0.1,0.1,0.1,0.2,0.1h0h0c0,0,0,0,0,0c0,0,0,0.1,0.1,0.1c0.2,0.2,0.4,0.2,0.7,0.1
	c0.2-0.1,0.3-0.2,0.6-0.4c0,0,0,0,0,0c0.4-0.4,0.6-0.5,0.9-0.5l0.1,0c0,0,0.1,0,0.1,0.1c1,0.4,2.1,0.6,3.3,0.6
	c1.5,0.1,2.9-0.1,4.1-0.6c0.3-0.1,0.6-0.3,0.9-0.4c0.2,0.1,0.3,0.2,0.6,0.6c0,0,0,0,0,0c0,0,0,0,0,0c0,0,0,0,0,0.1
	c0.2,0.3,0.4,0.4,0.6,0.5c0.2,0.1,0.4,0,0.7-0.2c0.4-0.2,0.4-0.6,0.2-1.1c-0.2-0.3-0.5-0.6-0.8-0.8c0.4-0.4,0.7-0.8,0.9-1.2
	c0.7-1.3,0.9-2.9,0.9-4.8c0-0.7,0-1.3-0.1-2.5v0c0,0,0.1,0,0.1,0.1c0.2,0.1,0.5,0.3,0.7,0.3c0.3,0,0.5-0.1,0.5-0.5
	C44.8,140,44.9,139.9,44.8,139.7z M42.6,128.5c0.4,0.1,0.8,0.4,1,0.8c0.2,0.4,0.3,0.8,0.2,1.2c-0.1,0.4-0.5,0.7-1,0.9
	c-0.1-0.4-0.2-0.7-0.4-1.1c0.2-0.2,0.3-0.4,0.1-0.7c-0.2-0.3-0.4-0.3-0.7-0.2c-0.2-0.2-0.4-0.4-0.6-0.6
	C41.7,128.4,42.1,128.3,42.6,128.5z M27.9,130.8c-0.1-0.4-0.1-0.8,0.1-1.2c0.2-0.4,0.6-0.7,1-0.8c0.4-0.1,0.9-0.1,1.4,0.2
	c-0.3,0.2-0.5,0.5-0.7,0.8c-0.4-0.2-0.7-0.2-0.9,0.2c-0.2,0.4,0,0.7,0.4,0.9c0,0.1-0.1,0.2-0.1,0.4c0,0.2-0.1,0.3-0.1,0.5
	C28.4,131.4,28,131.2,27.9,130.8z M28.7,140.2C28.7,140.2,28.7,140.2,28.7,140.2c-0.1,0-0.1,0-0.1,0c-0.1,0-0.1,0.1-0.2,0.1
	c-0.2,0.1-0.4,0.2-0.6,0.3c-0.2,0-0.3-0.1-0.3-0.3c0.1,0,0.2-0.1,0.3-0.2l-0.1-0.1c0,0.1-0.1,0.1-0.2,0.1c0,0,0,0,0,0
	c-0.1-0.1-0.1-0.2-0.1-0.3c0.1-0.1,0.2-0.3,0.3-0.3c0.3-0.2,0.8-0.4,1.2-0.3c0,0.2,0,0.3,0,0.5c0,0,0,0,0,0.1c0,0.1,0,0.1,0,0.2
	C28.8,140.1,28.8,140.1,28.7,140.2z M30.8,150.6C30.8,150.6,30.8,150.6,30.8,150.6c-0.3,0.2-0.4,0.3-0.6,0.4c-0.3,0.2-0.4,0.1-0.6,0
	c0,0,0,0,0-0.1c0,0,0,0,0,0c0,0,0,0,0,0c0-0.1,0.1-0.2,0.2-0.4c0,0,0,0,0,0c0.1-0.1,0.1-0.2,0.1-0.2l-0.1-0.1c0,0.1-0.1,0.1-0.1,0.2
	c0,0,0,0,0,0c-0.1,0.2-0.2,0.3-0.2,0.4h0c0,0,0,0,0,0h0c0,0,0,0-0.1,0c-0.3-0.4-0.1-0.8,0.6-1.2c0.1-0.1,0.3-0.2,0.4-0.3
	c0,0,0,0,0,0c0.4,0.3,0.8,0.6,1.3,0.8c0,0,0,0,0,0C31.4,150.1,31.2,150.2,30.8,150.6z M42.4,149.8c0.2,0.4,0.2,0.6-0.1,0.8
	c0,0,0-0.1-0.1-0.2c0,0,0,0,0,0c-0.1-0.3-0.2-0.4-0.3-0.5l-0.1,0.1c0.1,0.1,0.2,0.2,0.2,0.4c0,0,0,0,0,0c0,0.1,0.1,0.1,0.1,0.2
	c-0.2,0.2-0.3,0.2-0.5,0.1c-0.1-0.1-0.3-0.2-0.5-0.4c0,0,0,0,0-0.1c0,0,0,0,0,0c0,0,0,0,0,0c-0.3-0.3-0.4-0.5-0.6-0.5
	c0.4-0.2,0.7-0.5,1-0.8C41.9,149.2,42.2,149.5,42.4,149.8z M42.5,147.6c-0.6,1.2-1.6,2-3,2.5c-1.2,0.4-2.6,0.6-4.1,0.6
	c-2.5-0.1-4.7-1-5.7-2.6c-0.7-1.1-0.9-2.5-0.9-4.5c0-0.5,0-1,0.1-1.9c0.1-1,0.1-1.3,0.1-1.7c0-0.3,0-0.6,0-1c0-0.6,0-1.1-0.1-2.2
	c-0.1-1.4-0.2-2.1-0.1-2.8c0-1,0.2-1.9,0.4-2.8c0.5-1.4,1.3-2.3,2.6-3c1-0.5,2.3-0.8,4-0.9c1.6,0,2.8,0.1,3.8,0.5
	c1.2,0.4,2.1,1.2,2.7,2.4c0.4,1,0.6,2,0.8,3.2c0.1,0.9,0.1,1.7,0.1,3.4v0.5c0,0.8,0,1.4,0.1,2c0,0.2,0,0.3,0.1,0.9
	c0.1,1.2,0.1,1.8,0.1,2.5C43.4,144.8,43.1,146.3,42.5,147.6z M44.6,140C44.6,140,44.6,140,44.6,140c-0.1,0-0.2-0.1-0.2-0.1l-0.1,0.1
	c0.1,0.1,0.1,0.1,0.3,0.2c0,0.2-0.1,0.3-0.3,0.3c-0.2,0-0.4-0.1-0.6-0.3c-0.1,0-0.1-0.1-0.2-0.1c0,0,0,0,0,0c0-0.4,0-0.5,0-0.7
	c0-0.1,0-0.2,0-0.4c0.4,0,0.8,0.1,1.1,0.3c0.1,0.1,0.2,0.2,0.3,0.3C44.7,139.9,44.7,140,44.6,140z"/>
<path class="st11" d="M36.8,134.4c0,0.4,0.1,0.7,0,1.1c-0.1,0.2-0.3,0.2-0.4,0.3c-0.2,0-0.4-0.2-0.5-0.4c-0.1-0.4,0-0.8,0-1.2
	c0,0,0.3,0,0.5,0.1C36.6,134.3,36.8,134.4,36.8,134.4z"/>
<path class="st11" d="M34.8,134.4c-0.2,0.7,0.3,1.9,1,0.9c-0.1-0.4,0-0.8,0-1.2C35.9,134.1,34.8,134.4,34.8,134.4z"/>
<path d="M36.9,134.7c0-0.2,0-0.3,0-0.4v0l0,0l-0.9-0.3v0l-0.1,0h0v0l-1,0.2l0,0l0,0c-0.2,0.4-0.1,0.9,0.1,1.3c0.2,0.4,0.6,0.4,0.9,0
	c0.1,0.2,0.3,0.3,0.5,0.4h0l0,0c0,0,0.1,0,0.1,0c0,0,0,0,0,0c0.2-0.1,0.3-0.1,0.4-0.3l0,0v0c0-0.1,0-0.3,0-0.4
	C36.9,135,36.9,134.9,36.9,134.7z M35.8,134.5c0,0.1,0,0.2,0,0.2c0,0.3,0,0.4,0,0.6c-0.3,0.4-0.6,0.4-0.8,0.1
	c-0.2-0.3-0.2-0.8-0.1-1.1l0.9-0.2C35.8,134.2,35.8,134.3,35.8,134.5z M36.7,135.5c0,0.1-0.1,0.1-0.3,0.2c0,0,0,0,0,0
	c0,0-0.1,0-0.1,0c-0.2,0-0.3-0.2-0.4-0.3c0-0.2,0-0.4,0-0.6c0-0.1,0-0.1,0-0.2c0-0.2,0-0.3,0-0.3l0.8,0.2c0,0.1,0,0.2,0,0.4
	c0,0.2,0,0.3,0,0.4C36.7,135.2,36.7,135.4,36.7,135.5z"/>
<path class="st11" d="M30.7,131.4c0.6,2.5,4.6,1.8,4.4-0.6C34.9,127.8,30.1,128.4,30.7,131.4z"/>
<path d="M35.2,130.7c0-0.7-0.4-1.3-0.9-1.6c-0.5-0.3-1.1-0.4-1.7-0.4c-0.6,0.1-1.2,0.4-1.5,0.8c-0.4,0.5-0.6,1.1-0.4,1.8l0.1,0
	l-0.1,0C31.3,133.9,35.3,133.3,35.2,130.7z M30.7,131.4c-0.1-0.7,0-1.3,0.4-1.7c0.4-0.4,0.9-0.7,1.5-0.8c0.6-0.1,1.2,0,1.6,0.3
	c0.5,0.3,0.8,0.8,0.8,1.5C35.2,133.2,31.4,133.7,30.7,131.4z"/>
<path d="M31.8,131.7c0.4,0,0.7-0.3,0.7-0.7s-0.3-0.7-0.7-0.7c-0.4,0-0.7,0.3-0.7,0.7S31.4,131.7,31.8,131.7z"/>
<path class="st11" d="M32.1,131.3c0.1,0,0.2-0.1,0.2-0.2c0-0.1-0.1-0.2-0.2-0.2c-0.1,0-0.2,0.1-0.2,0.2
	C31.9,131.2,32,131.3,32.1,131.3z"/>
<path class="st11" d="M36.2,130.9c0.5,2.8,5.1,2.1,4.4-0.8C40.1,127.6,36,128.3,36.2,130.9z"/>
<path d="M40.7,130.1c-0.6-2.6-4.7-1.9-4.6,0.8v0c0.2,1.3,1.4,2,2.7,1.8c0.6-0.1,1.1-0.4,1.5-0.8C40.8,131.4,40.9,130.8,40.7,130.1z
	 M40.3,131.8c-0.3,0.4-0.8,0.7-1.4,0.8c-1.2,0.2-2.4-0.4-2.6-1.7c-0.2-2.5,3.7-3.2,4.3-0.8C40.8,130.8,40.6,131.4,40.3,131.8z"/>
<path d="M37.3,131.5c0.4,0,0.7-0.3,0.7-0.7c0-0.4-0.3-0.7-0.7-0.7c-0.4,0-0.7,0.3-0.7,0.7C36.7,131.2,37,131.5,37.3,131.5z"/>
<path class="st11" d="M37.7,131.1c0.1,0,0.2-0.1,0.2-0.2c0-0.1-0.1-0.2-0.2-0.2c-0.1,0-0.2,0.1-0.2,0.2
	C37.5,131.1,37.6,131.1,37.7,131.1z"/>
<path class="st9" d="M35,132.9c-0.5,0-1,0.7-0.7,1.2c0.4,0.7,1.2-0.1,1.7,0c0.6,0,1.1,0.6,1.6,0.1c0.5-0.6-0.2-1.1-0.8-1.4L35,132.9
	z"/>
<path class="st12" d="M37.6,133.4c-0.2-0.2-0.5-0.4-0.9-0.6l0,0h0l-1.8,0.1c-0.6,0.1-1.1,0.8-0.8,1.3c0.1,0.2,0.3,0.3,0.5,0.3
	c0.2,0,0.3,0,0.6-0.1c0,0,0,0,0.1,0c0.3-0.1,0.5-0.2,0.6-0.1h0c0.2,0,0.3,0,0.6,0.2c0.3,0.1,0.4,0.2,0.5,0.2c0.2,0,0.4-0.1,0.5-0.2
	C37.9,134,37.9,133.7,37.6,133.4z M37.5,134.2c-0.1,0.1-0.3,0.2-0.4,0.2c-0.1,0-0.2,0-0.5-0.2c-0.3-0.1-0.4-0.2-0.6-0.2
	c-0.2,0-0.3,0-0.7,0.1c0,0-0.1,0-0.1,0c-0.5,0.2-0.7,0.2-0.9-0.1c-0.2-0.4,0.1-1.1,0.6-1.1l1.7-0.1c0.3,0.1,0.6,0.3,0.8,0.6
	C37.7,133.7,37.7,134,37.5,134.2z"/>
<path d="M36.9,132.6c-0.2-0.8-2-0.7-2,0.3C35,133.6,37.1,133.4,36.9,132.6z"/>
<g>
	<defs>
		<rect id="SVGID_5_" x="110.4" y="92.8" width="24.1" height="24"/>
	</defs>
	<clipPath id="SVGID_6_">
		<use xlink:href="#SVGID_5_"  style="overflow:visible;"/>
	</clipPath>
	<g class="st13">
		
			<linearGradient id="SVGID_7_" gradientUnits="userSpaceOnUse" x1="112.6622" y1="104.51" x2="124.5912" y2="92.541" gradientTransform="matrix(1 0 0 -1 0 199.4646)">
			<stop  offset="0" style="stop-color:#387EB8"/>
			<stop  offset="1" style="stop-color:#366994"/>
		</linearGradient>
		<path class="st14" d="M122.4,92.8c-6.1,0-5.7,2.7-5.7,2.7l0,2.8h5.8V99h-8.2c0,0-3.9-0.4-3.9,5.7c0,6.2,3.4,6,3.4,6h2v-2.9
			c0,0-0.1-3.4,3.4-3.4s5.8,0,5.8,0s3.3,0.1,3.3-3.1c0-3.2,0-5.3,0-5.3S128.8,92.8,122.4,92.8z M119.2,94.6c0.6,0,1.1,0.5,1.1,1.1
			c0,0.6-0.5,1.1-1.1,1.1c-0.6,0-1.1-0.5-1.1-1.1C118.1,95.1,118.6,94.6,119.2,94.6z"/>
		
			<linearGradient id="SVGID_8_" gradientUnits="userSpaceOnUse" x1="119.9979" y1="96.8909" x2="132.8099" y2="84.6159" gradientTransform="matrix(1 0 0 -1 0 199.4646)">
			<stop  offset="0" style="stop-color:#FFE052"/>
			<stop  offset="1" style="stop-color:#FFC331"/>
		</linearGradient>
		<path class="st15" d="M122.6,116.8c6.1,0,5.7-2.7,5.7-2.7l0-2.8h-5.8v-0.8h8.2c0,0,3.9,0.4,3.9-5.7c0-6.2-3.4-6-3.4-6h-2v2.9
			c0,0,0.1,3.4-3.4,3.4c-3.5,0-5.8,0-5.8,0s-3.3-0.1-3.3,3.1s0,5.3,0,5.3S116.1,116.8,122.6,116.8z M125.8,114.9
			c-0.6,0-1.1-0.5-1.1-1.1c0-0.6,0.5-1.1,1.1-1.1c0.6,0,1.1,0.5,1.1,1.1C126.8,114.5,126.4,114.9,125.8,114.9z"/>
	</g>
</g>
<path class="st16" d="M80,92.8l-11.2,4l1.7,14.8l9.5,5.2l9.5-5.2l1.7-14.8L80,92.8z"/>
<path class="st17" d="M80,92.8v2.7v0v12.2v9.2l9.5-5.2l1.7-14.8L80,92.8z"/>
<path class="st11" d="M80,95.5l-7,15.7h2.6l1.4-3.5h5.9l1.4,3.5h2.6L80,95.5z M82,105.4h-4.1l2-4.9L82,105.4z"/>
<g>
	<defs>
		<rect id="SVGID_9_" x="26.4" y="92.8" width="20" height="24"/>
	</defs>
	<clipPath id="SVGID_10_">
		<use xlink:href="#SVGID_9_"  style="overflow:visible;"/>
	</clipPath>
	<g class="st18">
		<path class="st19" d="M45.1,96c-2.2-3.2-6.6-4.1-9.8-2.1l-5.6,3.6c-1.5,1-2.6,2.5-2.9,4.3c-0.3,1.5,0,3,0.7,4.3
			c-0.5,0.7-0.8,1.5-1,2.4c-0.3,1.8,0.1,3.7,1.2,5.2c2.2,3.2,6.6,4.1,9.8,2.1l5.6-3.6c1.5-1,2.6-2.5,2.9-4.3c0.3-1.5,0-3-0.7-4.3
			c0.5-0.7,0.8-1.5,1-2.4C46.6,99.3,46.1,97.5,45.1,96z"/>
		<path class="st11" d="M34.7,113.9c-1.8,0.5-3.7-0.2-4.8-1.8c-0.7-0.9-0.9-2-0.7-3.1c0-0.2,0.1-0.3,0.1-0.5l0.1-0.3l0.3,0.2
			c0.7,0.5,1.4,0.9,2.2,1.1l0.2,0.1l0,0.2c0,0.3,0.1,0.6,0.2,0.8c0.3,0.5,0.9,0.7,1.4,0.5c0.1,0,0.2-0.1,0.3-0.1l5.6-3.6
			c0.3-0.2,0.5-0.4,0.5-0.8c0.1-0.3,0-0.7-0.2-0.9c-0.3-0.5-0.9-0.7-1.4-0.5c-0.1,0-0.2,0.1-0.3,0.1l-2.1,1.4
			c-0.3,0.2-0.7,0.4-1.1,0.5c-1.8,0.5-3.7-0.2-4.8-1.8c-0.6-0.9-0.9-2-0.7-3.1c0.2-1.1,0.8-2,1.7-2.6l5.6-3.6
			c0.3-0.2,0.7-0.4,1.1-0.5c1.8-0.5,3.7,0.2,4.8,1.8c0.7,0.9,0.9,2,0.7,3.1c0,0.2-0.1,0.3-0.1,0.5l-0.1,0.3l-0.3-0.2
			c-0.7-0.5-1.4-0.9-2.2-1.1l-0.2-0.1l0-0.2c0-0.3-0.1-0.6-0.2-0.8c-0.3-0.5-0.9-0.7-1.4-0.5c-0.1,0-0.2,0.1-0.3,0.1l-5.6,3.6
			c-0.3,0.2-0.5,0.4-0.5,0.8c-0.1,0.3,0,0.7,0.2,0.9c0.3,0.5,0.9,0.7,1.4,0.5c0.1,0,0.2-0.1,0.3-0.1l2.1-1.4
			c0.3-0.2,0.7-0.4,1.1-0.5c1.8-0.5,3.7,0.2,4.8,1.8c0.7,0.9,0.9,2,0.7,3.1c-0.2,1.1-0.8,2-1.7,2.6l-5.6,3.6
			C35.5,113.6,35.1,113.8,34.7,113.9z"/>
	</g>
</g>
<path class="st20" d="M135.8,70.4c0-1.8-2.2-3.5-5.7-4.5c0.8-3.5,0.4-6.3-1.1-7.2c-0.4-0.2-0.8-0.3-1.2-0.3v1.2c0.3,0,0.5,0,0.6,0.1
	c0.7,0.4,1.1,2.1,0.8,4.2c-0.1,0.5-0.2,1.1-0.3,1.6c-1.1-0.3-2.3-0.5-3.5-0.6c-0.7-1-1.5-1.9-2.3-2.7c1.8-1.7,3.5-2.6,4.6-2.6v-1.2
	c-1.5,0-3.5,1.1-5.5,2.9c-2-1.9-4-2.9-5.5-2.9v1.2c1.1,0,2.8,0.9,4.6,2.6c-0.8,0.8-1.5,1.7-2.3,2.7c-1.2,0.1-2.4,0.3-3.5,0.6
	c-0.1-0.5-0.2-1.1-0.3-1.6c-0.3-2.1,0.1-3.7,0.8-4.2c0.2-0.1,0.4-0.1,0.6-0.1v-1.2c-0.5,0-0.9,0.1-1.2,0.3c-1.5,0.9-1.9,3.7-1.1,7.1
	c-3.4,1.1-5.6,2.7-5.6,4.5c0,1.8,2.2,3.5,5.7,4.5c-0.8,3.5-0.4,6.3,1.1,7.2c0.4,0.2,0.8,0.3,1.2,0.3c1.5,0,3.5-1.1,5.5-2.9
	c2,1.9,4,2.9,5.5,2.9c0.5,0,0.9-0.1,1.2-0.3c1.5-0.9,1.9-3.7,1.1-7.1C133.5,73.9,135.8,72.2,135.8,70.4z M128.6,66.7
	c-0.2,0.7-0.5,1.4-0.7,2.2c-0.2-0.4-0.5-0.9-0.7-1.3c-0.3-0.4-0.5-0.9-0.8-1.3C127.1,66.4,127.9,66.6,128.6,66.7z M126.1,72.6
	c-0.4,0.7-0.9,1.4-1.3,2.1c-0.8,0.1-1.6,0.1-2.5,0.1c-0.8,0-1.7,0-2.5-0.1c-0.5-0.7-0.9-1.4-1.3-2.1c-0.4-0.7-0.8-1.5-1.1-2.2
	c0.3-0.7,0.7-1.5,1.1-2.2c0.4-0.7,0.9-1.4,1.3-2.1c0.8-0.1,1.6-0.1,2.5-0.1c0.8,0,1.7,0,2.5,0.1c0.5,0.7,0.9,1.4,1.3,2.1
	c0.4,0.7,0.8,1.5,1.1,2.2C126.9,71.1,126.5,71.9,126.1,72.6z M127.9,71.9c0.3,0.7,0.5,1.5,0.8,2.2c-0.7,0.2-1.5,0.3-2.3,0.4
	c0.3-0.4,0.5-0.9,0.8-1.3C127.4,72.8,127.6,72.3,127.9,71.9z M122.3,77.7c-0.5-0.5-1-1.1-1.5-1.8c0.5,0,1,0,1.5,0c0.5,0,1,0,1.5,0
	C123.3,76.6,122.8,77.2,122.3,77.7z M118.2,74.5c-0.8-0.1-1.5-0.3-2.3-0.4c0.2-0.7,0.5-1.4,0.7-2.2c0.2,0.4,0.5,0.9,0.7,1.3
	C117.7,73.7,117.9,74.1,118.2,74.5z M122.3,63.1c0.5,0.5,1,1.1,1.5,1.8c-0.5,0-1,0-1.5,0c-0.5,0-1,0-1.5,0
	C121.2,64.2,121.8,63.6,122.3,63.1z M118.2,66.3c-0.3,0.4-0.5,0.9-0.8,1.3c-0.3,0.4-0.5,0.9-0.7,1.3c-0.3-0.7-0.5-1.5-0.8-2.2
	C116.6,66.6,117.4,66.4,118.2,66.3z M113.2,73.2c-1.9-0.8-3.2-1.9-3.2-2.8c0-0.9,1.3-2,3.2-2.8c0.5-0.2,1-0.4,1.5-0.6
	c0.3,1.1,0.7,2.2,1.2,3.3c-0.5,1.1-0.9,2.3-1.2,3.3C114.2,73.6,113.7,73.4,113.2,73.2z M116.2,81c-0.7-0.4-1.1-2.1-0.8-4.2
	c0.1-0.5,0.2-1.1,0.3-1.6c1.1,0.3,2.3,0.5,3.5,0.6c0.7,1,1.5,1.9,2.3,2.7c-1.8,1.7-3.5,2.6-4.6,2.6C116.6,81.2,116.3,81.1,116.2,81z
	 M129.2,76.8c0.3,2.1-0.1,3.7-0.8,4.2c-0.2,0.1-0.4,0.1-0.6,0.1c-1.1,0-2.8-0.9-4.6-2.6c0.8-0.8,1.5-1.7,2.3-2.7
	c1.2-0.1,2.4-0.3,3.5-0.6C129,75.8,129.1,76.3,129.2,76.8z M131.3,73.2c-0.5,0.2-1,0.4-1.5,0.6c-0.3-1.1-0.7-2.2-1.2-3.3
	c0.5-1.1,0.9-2.3,1.2-3.3c0.5,0.2,1.1,0.4,1.5,0.6c1.9,0.8,3.2,1.9,3.2,2.8C134.5,71.3,133.3,72.4,131.3,73.2z"/>
<path class="st20" d="M122.3,72.9c1.4,0,2.5-1.1,2.5-2.5c0-1.4-1.1-2.5-2.5-2.5c-1.4,0-2.5,1.1-2.5,2.5
	C119.8,71.8,120.9,72.9,122.3,72.9z"/>
<path class="st21" d="M83.5,58.4l-3.2,5.5l-3.2-5.5H66.4l13.9,24l13.9-24H83.5z"/>
<path class="st22" d="M83.5,58.4l-3.2,5.5l-3.2-5.5h-5.1l8.3,14.4l8.3-14.4H83.5z"/>
<g>
	<defs>
		<rect id="SVGID_11_" x="24" y="58.4" width="24" height="24"/>
	</defs>
	<clipPath id="SVGID_12_">
		<use xlink:href="#SVGID_11_"  style="overflow:visible;"/>
	</clipPath>
	<g class="st23">
		<path class="st24" d="M48,58.4H24v24h24V58.4z"/>
		<path d="M40.1,77.2c0.5,0.8,1.1,1.4,2.2,1.4c0.9,0,1.5-0.5,1.5-1.1c0-0.8-0.6-1-1.6-1.5l-0.6-0.2C40,75,39,74.1,39,72.3
			c0-1.7,1.3-3,3.3-3c1.4,0,2.5,0.5,3.2,1.8l-1.8,1.1c-0.4-0.7-0.8-1-1.5-1c-0.7,0-1.1,0.4-1.1,1c0,0.7,0.4,1,1.4,1.4l0.6,0.2
			c1.9,0.8,3,1.7,3,3.5c0,2-1.6,3.1-3.7,3.1c-2.1,0-3.4-1-4.1-2.3L40.1,77.2z M32.2,77.3c0.4,0.6,0.7,1.2,1.5,1.2
			c0.7,0,1.2-0.3,1.2-1.4v-7.7h2.3v7.7c0,2.3-1.4,3.4-3.4,3.4c-1.8,0-2.9-0.9-3.4-2.1L32.2,77.3z"/>
	</g>
</g>
<path class="st25" d="M131.6,37.8c-1.1,0-2.1,0.3-2.9,0.7c-0.3-0.6-0.6-1.1-0.6-1.5c-0.1-0.5-0.1-0.7-0.1-1.3
	c0.1-0.5,0.4-1.3,0.4-1.4c0-0.1-0.1-0.3-0.7-0.3c-0.6,0-1.2,0.1-1.3,0.3c-0.1,0.2-0.2,0.6-0.3,1c-0.1,0.6-1.3,2.7-2,3.8
	c-0.2-0.4-0.4-0.8-0.4-1.1c-0.1-0.5-0.1-0.7-0.1-1.3c0.1-0.5,0.4-1.3,0.4-1.4c0-0.1-0.1-0.3-0.7-0.3c-0.6,0-1.2,0.1-1.3,0.3
	c-0.1,0.2-0.1,0.6-0.3,1c-0.1,0.4-1.7,3.9-2.1,4.8c-0.2,0.5-0.4,0.8-0.5,1.1c0,0,0,0,0,0c-0.1,0.2-0.2,0.3-0.2,0.3s0,0,0,0
	c-0.1,0.2-0.2,0.3-0.2,0.3c0,0-0.1-0.4,0-1c0.2-1.2,0.8-3.1,0.8-3.2c0,0,0.1-0.4-0.4-0.5c-0.5-0.2-0.6,0.1-0.7,0.1
	c0,0-0.1,0.1-0.1,0.1s0.5-2.1-1-2.1c-0.9,0-2.2,1-2.8,1.9c-0.4,0.2-1.2,0.7-2.2,1.2c-0.3,0.2-0.7,0.4-1,0.6c0,0,0-0.1-0.1-0.1
	c-1.8-1.9-5.1-3.3-5-5.8c0.1-0.9,0.4-3.4,6.4-6.4c4.9-2.4,8.8-1.8,9.5-0.3c1,2.1-2.1,6.1-7.2,6.7c-1.9,0.2-3-0.5-3.2-0.8
	c-0.3-0.3-0.3-0.3-0.4-0.3c-0.2,0.1-0.1,0.4,0,0.5c0.2,0.4,0.8,1.1,1.8,1.4c0.9,0.3,3.2,0.5,6-0.6c3.1-1.2,5.5-4.5,4.8-7.3
	c-0.7-2.8-5.4-3.7-9.8-2.2c-2.6,0.9-5.5,2.4-7.5,4.3c-2.4,2.3-2.8,4.3-2.7,5.1c0.6,2.9,4.6,4.9,6.3,6.3c-0.1,0-0.2,0.1-0.2,0.1
	c-0.8,0.4-3.9,2-4.7,3.7c-0.9,1.9,0.1,3.3,0.8,3.5c2.1,0.6,4.2-0.5,5.4-2.2c1.2-1.7,1-4,0.5-5c0,0,0,0,0,0c0.2-0.1,0.4-0.3,0.6-0.4
	c0.4-0.2,0.8-0.5,1.2-0.7c-0.2,0.5-0.3,1.2-0.4,2.1c-0.1,1.1,0.4,2.5,1,3.1c0.3,0.2,0.6,0.3,0.8,0.3c0.7,0,1-0.6,1.3-1.3
	c0.4-0.8,0.8-1.8,0.8-1.8s-0.5,2.6,0.8,2.6c0.5,0,0.9-0.6,1.2-0.9c0,0,0,0,0,0s0,0,0-0.1c0-0.1,0.1-0.1,0.1-0.1s0,0,0,0
	c0.2-0.3,0.6-1.1,1.2-2.3c0.8-1.6,1.6-3.6,1.6-3.6s0.1,0.5,0.3,1.3c0.1,0.5,0.4,1,0.7,1.5c-0.2,0.3-0.3,0.4-0.3,0.4s0,0,0,0
	c-0.2,0.2-0.3,0.4-0.5,0.6c-0.6,0.8-1.4,1.6-1.5,1.9c-0.1,0.3-0.1,0.5,0.1,0.7c0.2,0.1,0.5,0.1,0.8,0.1c0.6,0,1-0.2,1.2-0.3
	c0.3-0.1,0.7-0.3,1-0.5c0.6-0.5,1-1.1,1-2c0-0.5-0.2-1-0.4-1.4c0.1-0.1,0.1-0.2,0.2-0.2c1-1.4,1.8-3,1.8-3s0.1,0.5,0.3,1.3
	c0.1,0.4,0.4,0.9,0.6,1.3c-0.9,0.8-1.5,1.6-1.7,2.2c-0.4,1.1-0.1,1.5,0.5,1.7c0.2,0.1,0.6-0.1,0.9-0.2c0.3-0.1,0.7-0.3,1.1-0.6
	c0.6-0.5,1.2-1.1,1.2-2c0-0.4-0.1-0.8-0.3-1.2c0.8-0.3,1.8-0.5,3.1-0.4c2.8,0.3,3.3,2.1,3.2,2.8c-0.1,0.7-0.7,1.1-0.9,1.3
	c-0.2,0.1-0.3,0.2-0.2,0.3c0,0.1,0.1,0.1,0.3,0.1c0.2,0,1.5-0.6,1.5-1.9C136.1,39.7,134.4,37.8,131.6,37.8z M110.1,45
	c-0.9,1-2.2,1.4-2.8,1.1c-0.6-0.3-0.4-1.8,0.8-2.9c0.7-0.6,1.6-1.3,2.2-1.6c0.1-0.1,0.3-0.2,0.6-0.3c0,0,0.1,0,0.1,0
	c0,0,0.1-0.1,0.1-0.1C111.5,42.6,111.1,44,110.1,45z M116.8,40.5c-0.3,0.8-1,2.8-1.4,2.7c-0.4-0.1-0.6-1.6-0.1-3.1
	c0.3-0.8,0.8-1.7,1.1-2c0.5-0.6,1.1-0.7,1.2-0.5C117.8,37.8,117,40,116.8,40.5z M122.4,43.1c-0.1,0.1-0.3,0.1-0.3,0.1
	c0,0,0.1-0.1,0.1-0.1s0.7-0.7,1-1.1c0.2-0.2,0.3-0.4,0.5-0.7c0,0,0,0.1,0,0.1C123.6,42.3,122.7,42.9,122.4,43.1z M126.6,42.1
	c-0.1-0.1-0.1-0.3,0.3-1c0.1-0.3,0.4-0.8,1-1.2c0.1,0.2,0.1,0.4,0.1,0.5C127.9,41.5,127.1,42,126.6,42.1z"/>
<g>
	<defs>
		<rect id="SVGID_13_" x="68" y="24" width="24" height="24"/>
	</defs>
	<clipPath id="SVGID_14_">
		<use xlink:href="#SVGID_13_"  style="overflow:visible;"/>
	</clipPath>
	<g class="st26">
		<path class="st27" d="M69.5,24l1.9,21.6L80,48l8.6-2.4L90.5,24H69.5z"/>
		<path class="st28" d="M86.4,31.1l-0.2,2.7l-0.7,8.1L80,43.4l0,0l-5.4-1.5l-0.4-4.3h2.7l0.2,2.2l3,0.8l0,0l3-0.8l0.4-3.7l-9.3,0
			l-0.3-2.5l9.8-0.1l0.2-2.7l-10.3,0l-0.2-2.5H80h6.6L86.4,31.1z"/>
	</g>
</g>
<g>
	<defs>
		<rect id="SVGID_15_" x="24" y="24" width="24" height="24"/>
	</defs>
	<clipPath id="SVGID_16_">
		<use xlink:href="#SVGID_15_"  style="overflow:visible;"/>
	</clipPath>
	<g class="st29">
		<path class="st30" d="M25.5,24l1.9,21.6L36,48l8.6-2.4L46.5,24H25.5z"/>
		<path class="st28" d="M42.4,31.1H36h-3.7l0.2,2.7H36h6.1l-0.7,8.1L36,43.4l0,0l-5.4-1.5l-0.4-4.3h2.6l0.2,2.2l2.9,0.8l0,0l2.9-0.8
			l0.3-3.4H36h-5.9l-0.7-8H36h6.6L42.4,31.1z"/>
	</g>
</g>
</svg>
