<?xml version="1.0" encoding="utf-8"?>
<!-- Generator: Adobe Illustrator 24.0.2, SVG Export Plug-In . SVG Version: 6.00 Build 0)  -->
<svg version="1.1" id="Capa_1" xmlns="http://www.w3.org/2000/svg" xmlns:xlink="http://www.w3.org/1999/xlink" x="0px" y="0px"
	 viewBox="0 0 160 200" style="enable-background:new 0 0 160 200;" xml:space="preserve">
<style type="text/css">
	.st0{fill:url(#SVGID_1_);}
	.st1{fill:none;stroke:#000000;stroke-width:2;}
	.st2{fill:url(#SVGID_2_);}
	.st3{fill:#202040;}
	.st4{fill:url(#SVGID_3_);}
	.st5{clip-path:url(#SVGID_5_);}
	.st6{fill:url(#SVGID_6_);}
	.st7{clip-path:url(#SVGID_8_);}
</style>
<g>
	
		<linearGradient id="SVGID_1_" gradientUnits="userSpaceOnUse" x1="80" y1="199.4646" x2="80" y2="-0.5354" gradientTransform="matrix(1 0 0 -1 0 199.4646)">
		<stop  offset="0" style="stop-color:#0CCA98"/>
		<stop  offset="1" style="stop-color:#00FFCC"/>
	</linearGradient>
	<path class="st0" d="M30,0h100c16.6,0,30,13.4,30,30v140c0,16.6-13.4,30-30,30H30c-16.6,0-30-13.4-30-30V30C0,13.4,13.4,0,30,0z"/>
	<path class="st1" d="M30,1h100c16,0,29,13,29,29v140c0,16-13,29-29,29H30c-16,0-29-13-29-29V30C1,14,14,1,30,1z"/>
</g>
<g>
	
		<radialGradient id="SVGID_2_" cx="-61.1111" cy="241.6364" r="1" gradientTransform="matrix(4.408729e-15 72 64 -3.918870e-15 -15384.7324 4488)" gradientUnits="userSpaceOnUse">
		<stop  offset="0" style="stop-color:#DEE2E6"/>
		<stop  offset="1" style="stop-color:#F8F9FA"/>
	</radialGradient>
	<path class="st2" d="M36,16h88c11,0,20,9,20,20v104c0,11-9,20-20,20H36c-11,0-20-9-20-20V36C16,25,25,16,36,16z"/>
</g>
<path class="st3" d="M66,174.8c-0.9,0-1.6,0.2-2,0.6c-0.5,0.4-0.7,1-0.7,1.7v0.7h4.6v2.1h-4.6v4.1h-2.6v-6.8c0-1.4,0.4-2.6,1.3-3.4
	c0.9-0.8,2.2-1.2,3.8-1.2c0.6,0,1.2,0.1,1.8,0.2c0.6,0.1,1.1,0.3,1.5,0.6l-0.8,2C67.7,175,66.9,174.8,66,174.8z M78.7,175.4v8.6
	h-2.4v-1c-0.6,0.7-1.5,1.1-2.7,1.1c-0.8,0-1.5-0.2-2.2-0.5c-0.7-0.4-1.2-0.9-1.5-1.6c-0.4-0.7-0.6-1.5-0.6-2.3s0.2-1.7,0.6-2.3
	c0.4-0.7,0.9-1.2,1.5-1.6c0.7-0.4,1.4-0.5,2.2-0.5c1.1,0,2,0.3,2.6,1v-0.9H78.7z M74.1,182.1c0.6,0,1.2-0.2,1.6-0.6
	c0.4-0.4,0.6-1,0.6-1.7s-0.2-1.3-0.6-1.7c-0.4-0.4-0.9-0.7-1.6-0.7c-0.6,0-1.2,0.2-1.6,0.7c-0.4,0.4-0.6,1-0.6,1.7s0.2,1.3,0.6,1.7
	C72.9,181.9,73.5,182.1,74.1,182.1z M75.1,172h2.7l-2.9,2.3h-2L75.1,172z M85.2,184.1c-0.9,0-1.7-0.2-2.5-0.6
	c-0.7-0.4-1.3-0.9-1.7-1.6c-0.4-0.7-0.6-1.4-0.6-2.3s0.2-1.6,0.6-2.3c0.4-0.7,1-1.2,1.7-1.6c0.7-0.4,1.6-0.6,2.5-0.6
	c0.9,0,1.7,0.2,2.4,0.6c0.7,0.4,1.2,0.9,1.5,1.6l-1.9,1c-0.4-0.8-1.1-1.2-1.9-1.2c-0.7,0-1.2,0.2-1.6,0.6s-0.6,1-0.6,1.7
	c0,0.7,0.2,1.3,0.6,1.7s1,0.6,1.6,0.6c0.9,0,1.5-0.4,1.9-1.2l1.9,1.1c-0.3,0.7-0.8,1.2-1.5,1.6C86.9,183.9,86.1,184.1,85.2,184.1z
	 M90.5,175.4H93v8.6h-2.5V175.4z M91.8,174.2c-0.5,0-0.8-0.1-1.1-0.4c-0.3-0.3-0.4-0.6-0.4-1s0.1-0.7,0.4-1c0.3-0.3,0.7-0.4,1.1-0.4
	c0.5,0,0.8,0.1,1.1,0.4c0.3,0.3,0.4,0.6,0.4,1c0,0.4-0.1,0.8-0.4,1C92.6,174.1,92.2,174.2,91.8,174.2z M98.4,184.1
	c-1,0-1.7-0.3-2.3-0.8c-0.5-0.5-0.8-1.3-0.8-2.2v-9h2.5v8.9c0,0.4,0.1,0.6,0.3,0.8c0.2,0.2,0.5,0.3,0.8,0.3c0.1,0,0.3,0,0.4,0
	c0.1,0,0.2-0.1,0.3-0.1l0.1,1.9C99.3,184.1,98.9,184.1,98.4,184.1z"/>
<g>
	
		<linearGradient id="SVGID_3_" gradientUnits="userSpaceOnUse" x1="73.977" y1="133.641" x2="73.977" y2="66.9743" gradientTransform="matrix(0.9659 -0.2588 -0.2588 -0.9659 34.5051 204.0361)">
		<stop  offset="0" style="stop-color:#0CCA98"/>
		<stop  offset="1" style="stop-color:#00FFCC"/>
	</linearGradient>
	<path class="st4" d="M57.2,59.6L85.5,52c6.4-1.7,13,2.1,14.7,8.5l11,41.2c1.7,6.4-2.1,13-8.5,14.7L74.5,124
		c-6.4,1.7-13-2.1-14.7-8.5l-11-41.2C47,67.9,50.8,61.3,57.2,59.6z"/>
	<path class="st1" d="M57.5,60.6L85.8,53c5.9-1.6,11.9,1.9,13.5,7.8l11,41.2c1.6,5.9-1.9,11.9-7.8,13.5L74.2,123
		c-5.9,1.6-11.9-1.9-13.5-7.8L49.7,74C48.1,68.2,51.6,62.1,57.5,60.6z"/>
</g>
<g>
	<defs>
		
			<rect id="SVGID_4_" x="64.8" y="74" transform="matrix(0.9659 -0.2588 0.2588 0.9659 -20.1724 23.4091)" width="28" height="28.6"/>
	</defs>
	<clipPath id="SVGID_5_">
		<use xlink:href="#SVGID_4_"  style="overflow:visible;"/>
	</clipPath>
	<g class="st5">
		<path class="st3" d="M69,86.6l2.9,1.5c0,0,0.1,0,0.1,0c0,0,0.1,0,0.1,0c0.4-0.5,0.9-1.1,1.4-1.5c2.2-1.9,4.8-2.3,5.7-2.4
			C80,84,80.9,84,81.8,84c0,0,0.1,0,0.1,0c0,0,0,0,0-0.1l1-3.2c0,0,0-0.1,0-0.1c0,0,0,0-0.1-0.1l0,0c-1.3-0.2-2.7-0.2-4,0
			c-1.1,0.1-4.7,0.6-7.8,3.5c-0.8,0.7-1.4,1.5-2,2.4c0,0,0,0,0,0C68.9,86.5,68.9,86.5,69,86.6C69,86.5,69,86.6,69,86.6
			C69,86.6,69,86.6,69,86.6L69,86.6z"/>
		<path class="st3" d="M86,77l-3.3,1.4c0,0-0.1,0-0.1,0.1c0,0,0,0.1,0,0.1c0.3,0.6,0.5,1.3,0.7,1.9c0.1,0.3,0.5,1.8,0.5,3.2
			c0,2.4-1.5,4.4-2.2,5.2c0,0,0,0.1,0,0.1s0,0.1,0,0.1c0.8,0.8,1.7,1.5,2.6,2.2c0,0,0.1,0,0.1,0c0,0,0.1,0,0.1,0
			c1.6-1.9,2.7-4.2,3-6.7c0.5-3.5-0.7-6.4-1.2-7.5C86.1,77,86.1,77,86,77C86,77,86,77,86,77L86,77z"/>
		<path class="st3" d="M84.7,95.8l0.3-3.7c0,0,0,0,0,0c0,0,0,0,0,0c0,0,0,0,0,0c0,0,0,0,0,0l0,0c-1.3-0.1-2.5-0.5-3.6-1
			c-0.9-0.4-1.7-1-2.4-1.6c-0.4-0.4-0.9-0.8-1.1-1.4c0-0.1-0.2-0.3-0.4-0.8c-0.1-0.2-0.2-0.5-0.2-0.6c0,0,0-0.1-0.1-0.1
			c0,0-0.1,0-0.1,0l-3.6,1c0,0-0.1,0-0.1,0.1c0,0,0,0.1,0,0.1c0.1,0.4,0.2,0.8,0.4,1.2c0.2,0.5,0.5,1,0.9,1.4c1,1.2,2.1,2.3,3.3,3.2
			c1.1,0.7,2.2,1.3,3.5,1.8c1.1,0.4,2.2,0.7,3.3,1c0,0,0,0,0,0C84.7,95.9,84.7,95.9,84.7,95.8C84.7,95.9,84.7,95.9,84.7,95.8
			C84.7,95.8,84.7,95.8,84.7,95.8L84.7,95.8z"/>
		<path class="st3" d="M75.3,91.8l2.4,2.7c0,0,0,0.1,0,0.1c0,0,0,0.1,0,0.1c0,0,0,0-0.1,0c-1.3,0.3-2.7,0.4-4,0.3
			c-2.1-0.2-4-0.9-5.7-2.1c-1.3-1-2.3-2.2-3-3.7l0,0c-0.7-1.3-1.1-2.7-1.2-4.1c0-0.4,0-0.9,0-1.3c0-0.1,0-0.3,0.1-0.4c0,0,0,0,0-0.1
			c0,0,0,0,0,0c0,0,0,0,0.1,0c0,0,0,0,0.1,0c0,0,0.1,0,0.1,0c0,0,0,0,0,0.1c0.2,1.1,0.5,2.1,1,3.1c0.3,0.6,0.6,1.3,1,1.9
			c0,0,0,0,0,0c0.9,1.1,2.2,2,3.6,2.6c0.9,0.4,1.8,0.7,2.8,0.8c0.9,0.1,1.9,0.2,2.8,0.1C75.2,91.7,75.2,91.7,75.3,91.8
			C75.2,91.7,75.2,91.8,75.3,91.8L75.3,91.8z"/>
		<path class="st3" d="M76.6,80.1l-3.9,1.1c0,0,0,0,0,0c0,0,0,0,0,0c0,0,0,0,0,0c0,0,0,0,0,0c0,0,0,0,0,0c0-0.3,0.1-0.6,0.2-0.9
			c0.3-1.2,0.9-1.9,1.5-2.7c0.9-1.1,1.9-2.1,3.1-2.9c1.2-0.9,2.6-1.4,4.1-1.6c0.8-0.2,1.6-0.3,2.5-0.2c0.6,0,1.2,0.1,1.8,0.2
			c0.6,0.1,1.2,0.3,1.8,0.5c0.4,0.1,0.8,0.3,1.2,0.5c0.3,0.2,0.6,0.4,0.9,0.6c0,0,0.1,0.1,0.1,0.1c0,0,0,0.1,0,0.1
			c0,0,0,0.1-0.1,0.1c0,0-0.1,0-0.1,0c-0.5-0.2-1-0.3-1.5-0.4c-0.7-0.2-1.5-0.3-2.3-0.3c-0.7,0-1.5,0.1-2.2,0.3
			c-0.8,0.2-1.6,0.6-2.4,1c-0.5,0.3-0.9,0.6-1.3,1c-0.6,0.5-1.1,1-1.6,1.6c-0.3,0.4-0.6,0.7-0.7,0.9C77.1,79.2,76.9,79.6,76.6,80.1
			C76.6,80.1,76.6,80.1,76.6,80.1C76.6,80.1,76.6,80.1,76.6,80.1L76.6,80.1z"/>
		<path class="st3" d="M87.4,87.2l1.5-3.6c0,0,0-0.1,0.1-0.1c0,0,0.1,0,0.1,0l0,0c0.4,0.2,0.8,0.5,1.1,0.8c0.6,0.6,0.8,1.2,1.1,2
			c0.2,0.6,0.4,1.1,0.5,1.7c0.3,1.1,0.4,2.2,0.3,3.3c-0.1,1.2-0.3,2.4-0.7,3.6c-0.5,1.3-1.2,2.5-2.1,3.5c-0.7,0.9-1.6,1.6-2.6,2.1
			c-0.3,0.2-0.7,0.4-1.1,0.5l-0.5,0.2c0,0-0.1,0-0.1,0s-0.1,0-0.1-0.1c0,0,0-0.1,0-0.1c0,0,0-0.1,0-0.1c0.3-0.3,0.7-0.5,1.1-0.9
			c0.4-0.3,0.8-0.7,1.1-1l0,0c0.7-0.9,1.3-1.8,1.7-2.9l0,0c0.5-1,0.6-2,0.5-3.1l0,0c0-0.5-0.1-1.1-0.2-1.6c-0.1-0.6-0.2-1.1-0.4-1.6
			c-0.1-0.4-0.2-0.7-0.4-1.1c-0.1-0.2-0.2-0.5-0.3-0.7c-0.1-0.2-0.2-0.4-0.4-0.6C87.7,87.6,87.6,87.4,87.4,87.2z"/>
		<path class="st3" d="M80.1,85c-0.3,0-0.5,0.1-0.8,0.3c-0.2,0.2-0.4,0.4-0.4,0.7c-0.1,0.3,0,0.6,0.1,0.8c0.1,0.3,0.3,0.5,0.6,0.6
			c0.2,0.1,0.5,0.2,0.8,0.2c0.3,0,0.5-0.1,0.8-0.3c0.2-0.2,0.4-0.4,0.4-0.7c0.1-0.3,0-0.6-0.1-0.8c-0.1-0.3-0.3-0.5-0.5-0.6
			C80.7,85.1,80.4,85,80.1,85L80.1,85z"/>
	</g>
</g>
<g>
	
		<linearGradient id="SVGID_6_" gradientUnits="userSpaceOnUse" x1="85.9996" y1="141.4646" x2="85.9996" y2="74.7979" gradientTransform="matrix(1 0 0 -1 0 199.4646)">
		<stop  offset="0" style="stop-color:#0CCA98"/>
		<stop  offset="1" style="stop-color:#00FFCC"/>
	</linearGradient>
	<path class="st6" d="M71.3,58h29.3c6.6,0,12,5.4,12,12v42.7c0,6.6-5.4,12-12,12H71.3c-6.6,0-12-5.4-12-12V70
		C59.3,63.4,64.7,58,71.3,58z"/>
	<path class="st1" d="M71.3,59h29.3c6.1,0,11,4.9,11,11v42.7c0,6.1-4.9,11-11,11H71.3c-6.1,0-11-4.9-11-11V70
		C60.3,63.9,65.3,59,71.3,59z"/>
</g>
<g>
	<defs>
		<rect id="SVGID_7_" x="70.8" y="77" width="28" height="28.6"/>
	</defs>
	<clipPath id="SVGID_8_">
		<use xlink:href="#SVGID_7_"  style="overflow:visible;"/>
	</clipPath>
	<g class="st7">
		<path class="st3" d="M75.7,87.1l2.4,2.2c0,0,0,0,0.1,0c0,0,0.1,0,0.1,0c0.5-0.4,1.1-0.8,1.7-1.1c2.7-1.3,5.2-1,6.1-0.9
			c0.9,0.1,1.7,0.3,2.6,0.6c0,0,0.1,0,0.1,0c0,0,0,0,0.1-0.1l1.8-2.9c0,0,0-0.1,0-0.1c0,0,0-0.1-0.1-0.1l0,0
			c-1.2-0.5-2.5-0.9-3.9-1.1c-1.1-0.2-4.7-0.6-8.5,1.4c-0.9,0.5-1.8,1.1-2.5,1.8c0,0,0,0,0,0C75.7,87,75.7,87,75.7,87.1
			C75.7,87.1,75.7,87.1,75.7,87.1C75.7,87.1,75.7,87.1,75.7,87.1L75.7,87.1z"/>
		<path class="st3" d="M94.6,82.2l-3.5,0.5c0,0-0.1,0-0.1,0c0,0,0,0.1,0,0.1c0.1,0.7,0.1,1.4,0.1,2.1c0,0.3,0,1.9-0.4,3.2
			c-0.7,2.3-2.5,3.8-3.5,4.5c0,0,0,0-0.1,0.1c0,0,0,0.1,0,0.1c0.6,1,1.3,1.9,2,2.8c0,0,0,0,0.1,0s0.1,0,0.1,0c2-1.4,3.7-3.4,4.6-5.7
			c1.4-3.3,1-6.3,0.8-7.6C94.7,82.3,94.7,82.3,94.6,82.2C94.7,82.2,94.6,82.2,94.6,82.2L94.6,82.2z"/>
		<path class="st3" d="M88.6,100.1l1.3-3.5c0,0,0,0,0,0c0,0,0,0,0,0c0,0,0,0,0,0c0,0,0,0,0,0l0,0c-1.2-0.5-2.3-1.1-3.2-1.9
			c-0.7-0.6-1.4-1.4-1.9-2.2c-0.3-0.5-0.6-1-0.7-1.7c0-0.1-0.1-0.4-0.2-0.9c0-0.2-0.1-0.5-0.1-0.7c0,0,0-0.1,0-0.1c0,0-0.1,0-0.1,0
			l-3.7,0c0,0-0.1,0-0.1,0c0,0,0,0.1,0,0.1c0,0.4,0,0.8,0.1,1.3c0.1,0.5,0.2,1.1,0.5,1.6c0.6,1.4,1.4,2.7,2.4,3.9
			c0.9,1,1.8,1.9,2.9,2.6c0.9,0.7,1.9,1.3,2.9,1.8c0,0,0,0,0,0C88.5,100.2,88.5,100.2,88.6,100.1C88.5,100.2,88.5,100.2,88.6,100.1
			C88.5,100.1,88.6,100.1,88.6,100.1L88.6,100.1z"/>
		<path class="st3" d="M80.4,93.8l1.6,3.2c0,0,0,0.1,0,0.1c0,0,0,0.1-0.1,0.1c0,0,0,0-0.1,0c-1.4,0-2.7-0.3-4-0.8
			c-1.9-0.7-3.7-1.9-5-3.5c-1-1.3-1.6-2.7-1.9-4.3v0c-0.4-1.4-0.4-2.9-0.1-4.3c0.1-0.4,0.2-0.9,0.4-1.3c0.1-0.1,0.1-0.3,0.2-0.4
			c0,0,0,0,0,0c0,0,0,0,0.1,0c0,0,0,0,0.1,0c0,0,0,0,0.1,0c0,0,0,0,0.1,0.1c0,0,0,0.1,0,0.1c-0.1,1.1,0,2.1,0.1,3.2
			c0.1,0.7,0.3,1.4,0.5,2.1c0,0,0,0,0,0c0.6,1.3,1.6,2.5,2.8,3.4c0.8,0.6,1.6,1.1,2.5,1.5c0.9,0.4,1.8,0.7,2.7,0.8
			C80.4,93.7,80.4,93.7,80.4,93.8C80.4,93.7,80.4,93.7,80.4,93.8L80.4,93.8z"/>
		<path class="st3" d="M84.7,82.8h-4.1c0,0,0,0,0,0c0,0,0,0,0,0c0,0,0,0,0,0c0,0,0,0,0,0c0,0,0,0,0,0c0.1-0.3,0.2-0.5,0.4-0.8
			c0.6-1,1.4-1.6,2.2-2.2c1.1-0.8,2.4-1.5,3.8-2c1.4-0.5,2.9-0.7,4.4-0.5c0.8,0,1.7,0.2,2.5,0.4c0.6,0.2,1.2,0.4,1.7,0.6
			c0.6,0.3,1.1,0.6,1.6,0.9c0.4,0.2,0.7,0.5,1,0.8c0.3,0.2,0.5,0.5,0.7,0.8c0,0,0,0.1,0,0.1c0,0,0,0.1,0,0.1c0,0-0.1,0-0.1,0.1
			c0,0-0.1,0-0.1,0c-0.4-0.3-0.9-0.5-1.3-0.8c-0.7-0.4-1.4-0.7-2.1-0.9c-0.7-0.2-1.5-0.3-2.2-0.3c-0.9,0-1.7,0.1-2.6,0.3
			c-0.5,0.2-1,0.4-1.5,0.6c-0.7,0.3-1.4,0.7-2,1.2c-0.4,0.3-0.7,0.5-0.9,0.7C85.5,82.1,85.2,82.4,84.7,82.8
			C84.8,82.8,84.8,82.8,84.7,82.8C84.8,82.8,84.8,82.8,84.7,82.8L84.7,82.8z"/>
		<path class="st3" d="M93.4,92.5l2.3-3.1c0,0,0,0,0.1,0c0,0,0.1,0,0.1,0l0,0c0.3,0.3,0.6,0.7,0.8,1.1c0.4,0.7,0.5,1.4,0.6,2.2
			c0.1,0.6,0.1,1.2,0.1,1.8c0,1.1-0.2,2.2-0.5,3.3c-0.4,1.2-0.9,2.3-1.6,3.3c-0.8,1.1-1.8,2.1-2.9,2.9c-0.9,0.7-2,1.1-3.1,1.4
			c-0.4,0.1-0.8,0.2-1.2,0.2l-0.5,0.1c0,0-0.1,0-0.1,0c0,0,0,0,0-0.1c0,0,0-0.1,0-0.1c0,0,0,0,0.1-0.1c0.4-0.2,0.8-0.3,1.3-0.5
			c0.5-0.2,0.9-0.5,1.3-0.7l0,0c0.9-0.6,1.7-1.4,2.3-2.4v0c0.7-0.8,1.1-1.8,1.3-2.8v0c0.1-0.5,0.2-1.1,0.3-1.6
			c0.1-0.6,0.1-1.2,0.1-1.6c0-0.4,0-0.8-0.1-1.1c0-0.2-0.1-0.5-0.1-0.7c-0.1-0.2-0.1-0.4-0.2-0.7C93.6,93,93.5,92.7,93.4,92.5z"/>
		<path class="st3" d="M86.9,88.5c-0.3,0-0.6,0-0.8,0.1c-0.3,0.1-0.5,0.3-0.6,0.6c-0.1,0.3-0.2,0.5-0.1,0.8c0,0.3,0.2,0.5,0.4,0.7
			c0.2,0.2,0.5,0.3,0.7,0.4c0.3,0,0.6,0,0.8-0.1c0.3-0.1,0.5-0.3,0.6-0.6c0.1-0.3,0.2-0.5,0.1-0.8c0-0.3-0.2-0.5-0.4-0.7
			C87.4,88.7,87.2,88.6,86.9,88.5L86.9,88.5z"/>
	</g>
</g>
</svg>
