<?xml version="1.0" encoding="utf-8"?>
<!-- Generator: Adobe Illustrator 24.0.2, SVG Export Plug-In . SVG Version: 6.00 Build 0)  -->
<svg version="1.1" id="Capa_1" xmlns="http://www.w3.org/2000/svg" xmlns:xlink="http://www.w3.org/1999/xlink" x="0px" y="0px"
	 viewBox="0 0 299 216.8" style="enable-background:new 0 0 299 216.8;" xml:space="preserve">
<style type="text/css">
	.st0{fill:url(#SVGID_1_);}
	.st1{fill:none;stroke:#000000;stroke-width:2;}
	.st2{clip-path:url(#SVGID_3_);}
	.st3{fill:#202040;}
	.st4{fill:url(#SVGID_4_);}
	.st5{clip-path:url(#SVGID_6_);}
	.st6{fill:url(#SVGID_7_);}
	.st7{clip-path:url(#SVGID_9_);}
	.st8{fill:url(#SVGID_10_);}
	.st9{clip-path:url(#SVGID_12_);}
	.st10{fill:url(#SVGID_13_);}
	.st11{clip-path:url(#SVGID_15_);}
	.st12{fill:url(#SVGID_16_);}
	.st13{clip-path:url(#SVGID_18_);}
	.st14{fill:url(#SVGID_19_);}
	.st15{clip-path:url(#SVGID_21_);}
	.st16{fill:url(#SVGID_22_);}
	.st17{clip-path:url(#SVGID_24_);}
	.st18{fill:url(#SVGID_25_);}
	.st19{clip-path:url(#SVGID_27_);}
	.st20{fill:url(#SVGID_28_);}
	.st21{clip-path:url(#SVGID_30_);}
	.st22{fill:url(#SVGID_31_);}
	.st23{clip-path:url(#SVGID_33_);}
	.st24{fill:url(#SVGID_34_);}
	.st25{clip-path:url(#SVGID_36_);}
	.st26{fill:url(#SVGID_37_);}
	.st27{clip-path:url(#SVGID_39_);}
	.st28{fill:url(#SVGID_40_);}
	.st29{clip-path:url(#SVGID_42_);}
	.st30{fill:url(#SVGID_43_);}
	.st31{clip-path:url(#SVGID_45_);}
</style>
<g>
	
		<linearGradient id="SVGID_1_" gradientUnits="userSpaceOnUse" x1="24" y1="215.3812" x2="24" y2="152.8812" gradientTransform="matrix(1 0 0 -1 0 215.4646)">
		<stop  offset="0" style="stop-color:#0CCA98"/>
		<stop  offset="1" style="stop-color:#00FFCC"/>
	</linearGradient>
	<path class="st0" d="M9,0.1h30c5.5,0,10,4.5,10,10v42.5c0,5.5-4.5,10-10,10H9c-5.5,0-10-4.5-10-10V10.1C-1,4.6,3.5,0.1,9,0.1z"/>
	<path class="st1" d="M9,1.1h30c5,0,9,4,9,9v42.5c0,5-4,9-9,9H9c-5,0-9-4-9-9V10.1C0,5.1,4,1.1,9,1.1z"/>
</g>
<g>
	<defs>
		<rect id="SVGID_2_" x="9.7" y="17.9" width="26.3" height="26.8"/>
	</defs>
	<clipPath id="SVGID_3_">
		<use xlink:href="#SVGID_2_"  style="overflow:visible;"/>
	</clipPath>
	<g class="st2">
		<path class="st3" d="M14.4,27.4l2.2,2c0,0,0,0,0.1,0c0,0,0.1,0,0.1,0c0.5-0.4,1-0.7,1.6-1c2.5-1.2,4.9-0.9,5.7-0.8
			c0.8,0.1,1.6,0.3,2.4,0.6c0,0,0.1,0,0.1,0c0,0,0,0,0.1,0l1.7-2.7c0,0,0-0.1,0-0.1c0,0,0-0.1-0.1-0.1l0,0c-1.2-0.5-2.4-0.8-3.6-1
			c-1-0.1-4.4-0.6-7.9,1.3c-0.9,0.5-1.7,1-2.4,1.7c0,0,0,0,0,0C14.4,27.3,14.4,27.3,14.4,27.4C14.4,27.3,14.4,27.3,14.4,27.4
			C14.4,27.4,14.4,27.4,14.4,27.4L14.4,27.4z"/>
		<path class="st3" d="M32.1,22.8l-3.3,0.5c0,0-0.1,0-0.1,0c0,0,0,0.1,0,0.1c0.1,0.6,0.1,1.3,0.1,1.9c0,0.3,0,1.8-0.4,3
			c-0.6,2.2-2.4,3.6-3.3,4.2c0,0,0,0,0,0.1c0,0,0,0.1,0,0.1c0.6,0.9,1.2,1.8,1.9,2.6c0,0,0,0,0.1,0s0.1,0,0.1,0
			c1.9-1.3,3.4-3.2,4.3-5.3c1.3-3.1,0.9-5.9,0.7-7.1C32.2,22.9,32.2,22.8,32.1,22.8C32.1,22.8,32.1,22.8,32.1,22.8L32.1,22.8z"/>
		<path class="st3" d="M26.4,39.6l1.2-3.3c0,0,0,0,0,0c0,0,0,0,0,0c0,0,0,0,0,0c0,0,0,0,0,0l0,0c-1.1-0.4-2.1-1-3-1.8
			c-0.7-0.6-1.3-1.3-1.8-2.1c-0.3-0.5-0.6-1-0.7-1.6c0-0.1-0.1-0.3-0.2-0.8c0-0.2-0.1-0.5-0.1-0.6c0,0,0-0.1,0-0.1c0,0,0,0-0.1,0
			l-3.5,0c0,0-0.1,0-0.1,0c0,0,0,0,0,0.1c0,0.4,0,0.8,0.1,1.2c0.1,0.5,0.2,1,0.4,1.5c0.6,1.3,1.3,2.6,2.2,3.7
			c0.8,0.9,1.7,1.8,2.7,2.5c0.9,0.6,1.8,1.2,2.7,1.7C26.3,39.6,26.3,39.6,26.4,39.6C26.3,39.6,26.3,39.6,26.4,39.6
			C26.4,39.6,26.4,39.6,26.4,39.6C26.4,39.6,26.4,39.6,26.4,39.6L26.4,39.6z"/>
		<path class="st3" d="M18.8,33.6l1.5,3c0,0,0,0.1,0,0.1c0,0,0,0.1-0.1,0.1c0,0,0,0-0.1,0c-1.3,0-2.5-0.3-3.7-0.7
			c-1.8-0.7-3.4-1.8-4.7-3.3c-0.9-1.2-1.5-2.6-1.8-4.1v0c-0.3-1.3-0.4-2.7-0.1-4c0.1-0.4,0.2-0.8,0.3-1.2c0-0.1,0.1-0.3,0.2-0.4
			c0,0,0,0,0,0c0,0,0,0,0,0c0,0,0,0,0.1,0c0,0,0,0,0.1,0c0,0,0,0,0.1,0.1c0,0,0,0.1,0,0.1c-0.1,1,0,2,0.1,3c0.1,0.7,0.3,1.3,0.5,1.9
			c0,0,0,0,0,0c0.6,1.3,1.5,2.4,2.6,3.2c0.7,0.6,1.5,1,2.3,1.4C17,33.1,17.8,33.4,18.8,33.6C18.7,33.5,18.7,33.5,18.8,33.6
			C18.8,33.6,18.8,33.6,18.8,33.6L18.8,33.6z"/>
		<path class="st3" d="M22.8,23.3H19c0,0,0,0,0,0c0,0,0,0,0,0c0,0,0,0,0,0c0,0,0,0,0,0c0,0,0,0,0,0c0.1-0.3,0.2-0.5,0.4-0.8
			c0.6-1,1.3-1.5,2.1-2.1c1.1-0.8,2.3-1.4,3.5-1.8c1.3-0.5,2.7-0.6,4.1-0.5c0.8,0,1.5,0.2,2.3,0.4c0.6,0.2,1.1,0.4,1.6,0.6
			c0.5,0.2,1,0.5,1.5,0.9c0.3,0.2,0.6,0.5,0.9,0.7c0.3,0.2,0.5,0.5,0.7,0.7c0,0,0,0.1,0,0.1c0,0,0,0.1,0,0.1c0,0-0.1,0-0.1,0
			c0,0-0.1,0-0.1,0c-0.4-0.3-0.8-0.5-1.2-0.7c-0.6-0.4-1.3-0.6-2-0.8c-0.7-0.2-1.4-0.3-2.1-0.3c-0.8,0-1.6,0.1-2.4,0.3
			c-0.5,0.1-1,0.3-1.4,0.6c-0.7,0.3-1.3,0.7-1.9,1.1c-0.4,0.3-0.7,0.5-0.9,0.7C23.6,22.7,23.2,23,22.8,23.3
			C22.9,23.3,22.9,23.3,22.8,23.3C22.8,23.3,22.8,23.3,22.8,23.3L22.8,23.3z"/>
		<path class="st3" d="M30.9,32.5l2.2-2.9c0,0,0,0,0.1,0c0,0,0.1,0,0.1,0l0,0c0.3,0.3,0.6,0.6,0.8,1c0.4,0.7,0.4,1.3,0.5,2.1
			c0.1,0.6,0.1,1.1,0,1.7c0,1.1-0.1,2.1-0.5,3.1c-0.3,1.1-0.8,2.1-1.5,3.1c-0.7,1.1-1.7,2-2.7,2.7c-0.9,0.6-1.8,1-2.9,1.3
			c-0.4,0.1-0.7,0.2-1.1,0.2l-0.5,0.1c0,0-0.1,0-0.1,0c0,0,0,0,0-0.1c0,0,0-0.1,0-0.1c0,0,0,0,0.1-0.1c0.4-0.1,0.8-0.3,1.2-0.5
			c0.5-0.2,0.9-0.4,1.2-0.7l0,0c0.9-0.6,1.6-1.4,2.2-2.2v0c0.6-0.8,1.1-1.7,1.2-2.7v0c0.1-0.5,0.2-1,0.3-1.5c0-0.6,0.1-1.1,0.1-1.5
			c0-0.4,0-0.7-0.1-1.1c0-0.2-0.1-0.5-0.1-0.7c-0.1-0.2-0.1-0.4-0.2-0.6C31.1,32.9,31,32.6,30.9,32.5z"/>
		<path class="st3" d="M24.8,28.7c-0.3,0-0.5,0-0.8,0.1c-0.2,0.1-0.4,0.3-0.6,0.5s-0.2,0.5-0.1,0.8c0,0.3,0.2,0.5,0.4,0.7
			c0.2,0.2,0.4,0.3,0.7,0.4c0.3,0,0.5,0,0.8-0.1s0.4-0.3,0.5-0.6c0.1-0.2,0.2-0.5,0.1-0.8c0-0.3-0.2-0.5-0.3-0.7
			C25.3,28.9,25.1,28.7,24.8,28.7L24.8,28.7z"/>
	</g>
</g>
<g>
	
		<linearGradient id="SVGID_4_" gradientUnits="userSpaceOnUse" x1="24" y1="138.2976" x2="24" y2="75.7976" gradientTransform="matrix(1 0 0 -1 0 215.4646)">
		<stop  offset="0" style="stop-color:#0CCA98"/>
		<stop  offset="1" style="stop-color:#00FFCC"/>
	</linearGradient>
	<path class="st4" d="M9,77.2h30c5.5,0,10,4.5,10,10v42.5c0,5.5-4.5,10-10,10H9c-5.5,0-10-4.5-10-10V87.2C-1,81.6,3.5,77.2,9,77.2z"
		/>
	<path class="st1" d="M9,78.2h30c5,0,9,4,9,9v42.5c0,5-4,9-9,9H9c-5,0-9-4-9-9V87.2C0,82.2,4,78.2,9,78.2z"/>
</g>
<g>
	<defs>
		<rect id="SVGID_5_" x="9.7" y="95" width="26.3" height="26.8"/>
	</defs>
	<clipPath id="SVGID_6_">
		<use xlink:href="#SVGID_5_"  style="overflow:visible;"/>
	</clipPath>
	<g class="st5">
		<path class="st3" d="M14.4,104.5l2.2,2c0,0,0,0,0.1,0c0,0,0.1,0,0.1,0c0.5-0.4,1-0.7,1.6-1c2.5-1.2,4.9-0.9,5.7-0.8
			c0.8,0.1,1.6,0.3,2.4,0.6c0,0,0.1,0,0.1,0c0,0,0,0,0.1,0l1.7-2.7c0,0,0-0.1,0-0.1c0,0,0-0.1-0.1-0.1l0,0c-1.2-0.5-2.4-0.8-3.6-1
			c-1-0.1-4.4-0.6-7.9,1.3c-0.9,0.5-1.7,1-2.4,1.7c0,0,0,0,0,0S14.4,104.4,14.4,104.5C14.4,104.4,14.4,104.4,14.4,104.5
			C14.4,104.5,14.4,104.5,14.4,104.5L14.4,104.5z"/>
		<path class="st3" d="M32.1,99.9l-3.3,0.5c0,0-0.1,0-0.1,0c0,0,0,0.1,0,0.1c0.1,0.6,0.1,1.3,0.1,1.9c0,0.3,0,1.8-0.4,3
			c-0.6,2.2-2.4,3.6-3.3,4.2c0,0,0,0,0,0.1c0,0,0,0.1,0,0.1c0.6,0.9,1.2,1.8,1.9,2.6c0,0,0,0,0.1,0c0,0,0.1,0,0.1,0
			c1.9-1.3,3.4-3.2,4.3-5.3c1.3-3.1,0.9-5.9,0.7-7.1C32.2,99.9,32.2,99.9,32.1,99.9C32.1,99.9,32.1,99.9,32.1,99.9L32.1,99.9z"/>
		<path class="st3" d="M26.4,116.6l1.2-3.3c0,0,0,0,0,0c0,0,0,0,0,0c0,0,0,0,0,0c0,0,0,0,0,0l0,0c-1.1-0.4-2.1-1-3-1.8
			c-0.7-0.6-1.3-1.3-1.8-2.1c-0.3-0.5-0.6-1-0.7-1.6c0-0.1-0.1-0.3-0.2-0.8c0-0.2-0.1-0.5-0.1-0.6c0,0,0-0.1,0-0.1c0,0,0,0-0.1,0
			l-3.5,0c0,0-0.1,0-0.1,0c0,0,0,0,0,0.1c0,0.4,0,0.8,0.1,1.2c0.1,0.5,0.2,1,0.4,1.5c0.6,1.3,1.3,2.6,2.2,3.7
			c0.8,0.9,1.7,1.8,2.7,2.5c0.9,0.6,1.8,1.2,2.7,1.7C26.3,116.7,26.3,116.7,26.4,116.6C26.3,116.7,26.3,116.7,26.4,116.6
			C26.4,116.7,26.4,116.7,26.4,116.6C26.4,116.7,26.4,116.7,26.4,116.6L26.4,116.6z"/>
		<path class="st3" d="M18.8,110.7l1.5,3c0,0,0,0.1,0,0.1s0,0.1-0.1,0.1c0,0,0,0-0.1,0c-1.3,0-2.5-0.3-3.7-0.7
			c-1.8-0.7-3.4-1.8-4.7-3.3c-0.9-1.2-1.5-2.6-1.8-4.1v0c-0.3-1.3-0.4-2.7-0.1-4c0.1-0.4,0.2-0.8,0.3-1.2c0-0.1,0.1-0.3,0.2-0.4
			c0,0,0,0,0,0c0,0,0,0,0,0c0,0,0,0,0.1,0c0,0,0,0,0.1,0c0,0,0,0,0.1,0.1c0,0,0,0.1,0,0.1c-0.1,1,0,2,0.1,3c0.1,0.7,0.3,1.3,0.5,1.9
			c0,0,0,0,0,0c0.6,1.3,1.5,2.4,2.6,3.2c0.7,0.6,1.5,1,2.3,1.4C17,110.2,17.8,110.5,18.8,110.7C18.7,110.6,18.7,110.6,18.8,110.7
			C18.8,110.6,18.8,110.7,18.8,110.7L18.8,110.7z"/>
		<path class="st3" d="M22.8,100.4H19c0,0,0,0,0,0c0,0,0,0,0,0c0,0,0,0,0,0c0,0,0,0,0,0c0,0,0,0,0,0c0.1-0.3,0.2-0.5,0.4-0.8
			c0.6-1,1.3-1.5,2.1-2.1c1.1-0.8,2.3-1.4,3.5-1.8c1.3-0.5,2.7-0.6,4.1-0.5c0.8,0,1.5,0.2,2.3,0.4c0.6,0.2,1.1,0.4,1.6,0.6
			c0.5,0.2,1,0.5,1.5,0.9c0.3,0.2,0.6,0.5,0.9,0.7c0.3,0.2,0.5,0.5,0.7,0.7c0,0,0,0.1,0,0.1c0,0,0,0.1,0,0.1c0,0-0.1,0-0.1,0
			c0,0-0.1,0-0.1,0c-0.4-0.3-0.8-0.5-1.2-0.7c-0.6-0.4-1.3-0.6-2-0.8c-0.7-0.2-1.4-0.3-2.1-0.3c-0.8,0-1.6,0.1-2.4,0.3
			c-0.5,0.1-1,0.3-1.4,0.6c-0.7,0.3-1.3,0.7-1.9,1.1c-0.4,0.3-0.7,0.5-0.9,0.7C23.6,99.7,23.2,100.1,22.8,100.4
			C22.9,100.4,22.9,100.4,22.8,100.4C22.8,100.4,22.8,100.4,22.8,100.4L22.8,100.4z"/>
		<path class="st3" d="M30.9,109.5l2.2-2.9c0,0,0,0,0.1,0c0,0,0.1,0,0.1,0l0,0c0.3,0.3,0.6,0.6,0.8,1c0.4,0.7,0.4,1.3,0.5,2.1
			c0.1,0.6,0.1,1.1,0,1.7c0,1.1-0.1,2.1-0.5,3.1c-0.3,1.1-0.8,2.1-1.5,3.1c-0.7,1.1-1.7,2-2.7,2.7c-0.9,0.6-1.8,1-2.9,1.3
			c-0.4,0.1-0.7,0.2-1.1,0.2l-0.5,0.1c0,0-0.1,0-0.1,0c0,0,0,0,0-0.1c0,0,0-0.1,0-0.1c0,0,0,0,0.1-0.1c0.4-0.1,0.8-0.3,1.2-0.5
			c0.5-0.2,0.9-0.4,1.2-0.7l0,0c0.9-0.6,1.6-1.4,2.2-2.2v0c0.6-0.8,1.1-1.7,1.2-2.7v0c0.1-0.5,0.2-1,0.3-1.5c0-0.6,0.1-1.1,0.1-1.5
			c0-0.4,0-0.7-0.1-1.1c0-0.2-0.1-0.5-0.1-0.7c-0.1-0.2-0.1-0.4-0.2-0.6C31.1,109.9,31,109.7,30.9,109.5z"/>
		<path class="st3" d="M24.8,105.8c-0.3,0-0.5,0-0.8,0.1c-0.2,0.1-0.4,0.3-0.6,0.5c-0.1,0.2-0.2,0.5-0.1,0.8c0,0.3,0.2,0.5,0.4,0.7
			c0.2,0.2,0.4,0.3,0.7,0.4c0.3,0,0.5,0,0.8-0.1c0.2-0.1,0.4-0.3,0.5-0.6c0.1-0.2,0.2-0.5,0.1-0.8c0-0.3-0.2-0.5-0.3-0.7
			C25.3,105.9,25.1,105.8,24.8,105.8L24.8,105.8z"/>
	</g>
</g>
<g>
	
		<linearGradient id="SVGID_7_" gradientUnits="userSpaceOnUse" x1="24" y1="61.2146" x2="24" y2="-1.2854" gradientTransform="matrix(1 0 0 -1 0 215.4646)">
		<stop  offset="0" style="stop-color:#0CCA98"/>
		<stop  offset="1" style="stop-color:#00FFCC"/>
	</linearGradient>
	<path class="st6" d="M9,154.3h30c5.5,0,10,4.5,10,10v42.5c0,5.5-4.5,10-10,10H9c-5.5,0-10-4.5-10-10v-42.5
		C-1,158.7,3.5,154.3,9,154.3z"/>
	<path class="st1" d="M9,155.3h30c5,0,9,4,9,9v42.5c0,5-4,9-9,9H9c-5,0-9-4-9-9v-42.5C0,159.3,4,155.3,9,155.3z"/>
</g>
<g>
	<defs>
		<rect id="SVGID_8_" x="9.7" y="172.1" width="26.3" height="26.8"/>
	</defs>
	<clipPath id="SVGID_9_">
		<use xlink:href="#SVGID_8_"  style="overflow:visible;"/>
	</clipPath>
	<g class="st7">
		<path class="st3" d="M14.4,181.6l2.2,2c0,0,0,0,0.1,0c0,0,0.1,0,0.1,0c0.5-0.4,1-0.7,1.6-1c2.5-1.2,4.9-0.9,5.7-0.8
			c0.8,0.1,1.6,0.3,2.4,0.6c0,0,0.1,0,0.1,0c0,0,0,0,0.1,0l1.7-2.7c0,0,0-0.1,0-0.1c0,0,0-0.1-0.1-0.1l0,0c-1.2-0.5-2.4-0.8-3.6-1
			c-1-0.1-4.4-0.6-7.9,1.3c-0.9,0.5-1.7,1-2.4,1.7c0,0,0,0,0,0C14.4,181.4,14.4,181.5,14.4,181.6C14.4,181.5,14.4,181.5,14.4,181.6
			C14.4,181.5,14.4,181.5,14.4,181.6L14.4,181.6z"/>
		<path class="st3" d="M32.1,177l-3.3,0.5c0,0-0.1,0-0.1,0c0,0,0,0.1,0,0.1c0.1,0.6,0.1,1.3,0.1,1.9c0,0.3,0,1.8-0.4,3
			c-0.6,2.2-2.4,3.6-3.3,4.2c0,0,0,0,0,0.1c0,0,0,0.1,0,0.1c0.6,0.9,1.2,1.8,1.9,2.6c0,0,0,0,0.1,0s0.1,0,0.1,0
			c1.9-1.3,3.4-3.2,4.3-5.3c1.3-3.1,0.9-5.9,0.7-7.1C32.2,177,32.2,177,32.1,177C32.1,177,32.1,177,32.1,177L32.1,177z"/>
		<path class="st3" d="M26.4,193.7l1.2-3.3c0,0,0,0,0,0c0,0,0,0,0,0c0,0,0,0,0,0c0,0,0,0,0,0l0,0c-1.1-0.4-2.1-1-3-1.8
			c-0.7-0.6-1.3-1.3-1.8-2.1c-0.3-0.5-0.6-1-0.7-1.6c0-0.1-0.1-0.3-0.2-0.8c0-0.2-0.1-0.5-0.1-0.6c0,0,0-0.1,0-0.1c0,0,0,0-0.1,0
			l-3.5,0c0,0-0.1,0-0.1,0c0,0,0,0,0,0.1c0,0.4,0,0.8,0.1,1.2c0.1,0.5,0.2,1,0.4,1.5c0.6,1.3,1.3,2.6,2.2,3.7
			c0.8,0.9,1.7,1.8,2.7,2.5c0.9,0.6,1.8,1.2,2.7,1.7C26.3,193.8,26.3,193.8,26.4,193.7C26.3,193.8,26.3,193.8,26.4,193.7
			C26.4,193.8,26.4,193.8,26.4,193.7C26.4,193.8,26.4,193.7,26.4,193.7L26.4,193.7z"/>
		<path class="st3" d="M18.8,187.8l1.5,3c0,0,0,0.1,0,0.1s0,0.1-0.1,0.1c0,0,0,0-0.1,0c-1.3,0-2.5-0.3-3.7-0.7
			c-1.8-0.7-3.4-1.8-4.7-3.3c-0.9-1.2-1.5-2.6-1.8-4.1v0c-0.3-1.3-0.4-2.7-0.1-4c0.1-0.4,0.2-0.8,0.3-1.2c0-0.1,0.1-0.3,0.2-0.4
			c0,0,0,0,0,0c0,0,0,0,0,0c0,0,0,0,0.1,0c0,0,0,0,0.1,0c0,0,0,0,0.1,0.1s0,0.1,0,0.1c-0.1,1,0,2,0.1,3c0.1,0.7,0.3,1.3,0.5,1.9
			c0,0,0,0,0,0c0.6,1.3,1.5,2.4,2.6,3.2c0.7,0.6,1.5,1,2.3,1.4C17,187.3,17.8,187.5,18.8,187.8C18.7,187.7,18.7,187.7,18.8,187.8
			C18.8,187.7,18.8,187.8,18.8,187.8L18.8,187.8z"/>
		<path class="st3" d="M22.8,177.5H19c0,0,0,0,0,0c0,0,0,0,0,0c0,0,0,0,0,0c0,0,0,0,0,0c0,0,0,0,0,0c0.1-0.3,0.2-0.5,0.4-0.8
			c0.6-1,1.3-1.5,2.1-2.1c1.1-0.8,2.3-1.4,3.5-1.8c1.3-0.5,2.7-0.6,4.1-0.5c0.8,0,1.5,0.2,2.3,0.4c0.6,0.2,1.1,0.4,1.6,0.6
			c0.5,0.2,1,0.5,1.5,0.9c0.3,0.2,0.6,0.5,0.9,0.7c0.3,0.2,0.5,0.5,0.7,0.7c0,0,0,0.1,0,0.1c0,0,0,0.1,0,0.1c0,0-0.1,0-0.1,0
			c0,0-0.1,0-0.1,0c-0.4-0.3-0.8-0.5-1.2-0.7c-0.6-0.4-1.3-0.6-2-0.8c-0.7-0.2-1.4-0.3-2.1-0.3c-0.8,0-1.6,0.1-2.4,0.3
			c-0.5,0.1-1,0.3-1.4,0.6c-0.7,0.3-1.3,0.7-1.9,1.1c-0.4,0.3-0.7,0.5-0.9,0.7C23.6,176.8,23.2,177.1,22.8,177.5
			C22.9,177.5,22.9,177.5,22.8,177.5C22.8,177.5,22.8,177.5,22.8,177.5L22.8,177.5z"/>
		<path class="st3" d="M30.9,186.6l2.2-2.9c0,0,0,0,0.1,0c0,0,0.1,0,0.1,0l0,0c0.3,0.3,0.6,0.6,0.8,1c0.4,0.7,0.4,1.3,0.5,2.1
			c0.1,0.6,0.1,1.1,0,1.7c0,1.1-0.1,2.1-0.5,3.1c-0.3,1.1-0.8,2.1-1.5,3.1c-0.7,1.1-1.7,2-2.7,2.7c-0.9,0.6-1.8,1-2.9,1.3
			c-0.4,0.1-0.7,0.2-1.1,0.2l-0.5,0.1c0,0-0.1,0-0.1,0c0,0,0,0,0-0.1c0,0,0-0.1,0-0.1c0,0,0,0,0.1-0.1c0.4-0.1,0.8-0.3,1.2-0.5
			c0.5-0.2,0.9-0.4,1.2-0.7l0,0c0.9-0.6,1.6-1.4,2.2-2.2v0c0.6-0.8,1.1-1.7,1.2-2.7v0c0.1-0.5,0.2-1,0.3-1.5c0-0.6,0.1-1.1,0.1-1.5
			c0-0.4,0-0.7-0.1-1.1c0-0.2-0.1-0.5-0.1-0.7c-0.1-0.2-0.1-0.4-0.2-0.6C31.1,187,31,186.8,30.9,186.6z"/>
		<path class="st3" d="M24.8,182.9c-0.3,0-0.5,0-0.8,0.1c-0.2,0.1-0.4,0.3-0.6,0.5c-0.1,0.2-0.2,0.5-0.1,0.8c0,0.3,0.2,0.5,0.4,0.7
			c0.2,0.2,0.4,0.3,0.7,0.4c0.3,0,0.5,0,0.8-0.1c0.2-0.1,0.4-0.3,0.5-0.6c0.1-0.2,0.2-0.5,0.1-0.8c0-0.3-0.2-0.5-0.3-0.7
			C25.3,183,25.1,182.9,24.8,182.9L24.8,182.9z"/>
	</g>
</g>
<g>
	
		<linearGradient id="SVGID_10_" gradientUnits="userSpaceOnUse" x1="149" y1="215.3812" x2="149" y2="152.8812" gradientTransform="matrix(1 0 0 -1 0 215.4646)">
		<stop  offset="0" style="stop-color:#0CCA98"/>
		<stop  offset="1" style="stop-color:#00FFCC"/>
	</linearGradient>
	<path class="st8" d="M134,0.1h30c5.5,0,10,4.5,10,10v42.5c0,5.5-4.5,10-10,10h-30c-5.5,0-10-4.5-10-10V10.1
		C124,4.6,128.5,0.1,134,0.1z"/>
	<path class="st1" d="M134,1.1h30c5,0,9,4,9,9v42.5c0,5-4,9-9,9h-30c-5,0-9-4-9-9V10.1C125,5.1,129,1.1,134,1.1z"/>
</g>
<g>
	<defs>
		<rect id="SVGID_11_" x="134.7" y="17.9" width="26.3" height="26.8"/>
	</defs>
	<clipPath id="SVGID_12_">
		<use xlink:href="#SVGID_11_"  style="overflow:visible;"/>
	</clipPath>
	<g class="st9">
		<path class="st3" d="M139.4,27.4l2.2,2c0,0,0,0,0.1,0c0,0,0.1,0,0.1,0c0.5-0.4,1-0.7,1.6-1c2.5-1.2,4.9-0.9,5.7-0.8
			c0.8,0.1,1.6,0.3,2.4,0.6c0,0,0.1,0,0.1,0c0,0,0,0,0.1,0l1.7-2.7c0,0,0-0.1,0-0.1c0,0,0-0.1-0.1-0.1l0,0c-1.2-0.5-2.4-0.8-3.6-1
			c-1-0.1-4.4-0.6-7.9,1.3c-0.9,0.5-1.6,1-2.4,1.7c0,0,0,0,0,0C139.4,27.3,139.4,27.3,139.4,27.4C139.4,27.3,139.4,27.3,139.4,27.4
			C139.4,27.4,139.4,27.4,139.4,27.4L139.4,27.4z"/>
		<path class="st3" d="M157.1,22.8l-3.3,0.5c0,0-0.1,0-0.1,0c0,0,0,0.1,0,0.1c0.1,0.6,0.1,1.3,0.1,1.9c0,0.3,0,1.8-0.4,3
			c-0.6,2.2-2.4,3.6-3.3,4.2c0,0,0,0,0,0.1c0,0,0,0.1,0,0.1c0.6,0.9,1.2,1.8,1.9,2.6c0,0,0,0,0.1,0s0.1,0,0.1,0
			c1.9-1.3,3.4-3.2,4.3-5.3c1.3-3.1,0.9-5.9,0.7-7.1C157.2,22.9,157.2,22.8,157.1,22.8C157.1,22.8,157.1,22.8,157.1,22.8L157.1,22.8
			z"/>
		<path class="st3" d="M151.4,39.6l1.2-3.3c0,0,0,0,0,0c0,0,0,0,0,0c0,0,0,0,0,0c0,0,0,0,0,0l0,0c-1.1-0.4-2.1-1-3-1.8
			c-0.7-0.6-1.3-1.3-1.8-2.1c-0.3-0.5-0.6-1-0.7-1.6c0-0.1-0.1-0.3-0.2-0.8c0-0.2-0.1-0.5-0.1-0.6c0,0,0-0.1,0-0.1c0,0,0,0-0.1,0
			l-3.5,0c0,0-0.1,0-0.1,0c0,0,0,0,0,0.1c0,0.4,0,0.8,0.1,1.2c0.1,0.5,0.2,1,0.4,1.5c0.6,1.3,1.3,2.6,2.2,3.7
			c0.8,0.9,1.7,1.8,2.7,2.5c0.9,0.6,1.8,1.2,2.7,1.7C151.3,39.6,151.3,39.6,151.4,39.6C151.3,39.6,151.3,39.6,151.4,39.6
			C151.4,39.6,151.4,39.6,151.4,39.6C151.4,39.6,151.4,39.6,151.4,39.6L151.4,39.6z"/>
		<path class="st3" d="M143.8,33.6l1.5,3c0,0,0,0.1,0,0.1c0,0,0,0.1-0.1,0.1c0,0,0,0-0.1,0c-1.3,0-2.5-0.3-3.7-0.7
			c-1.8-0.7-3.4-1.8-4.7-3.3c-0.9-1.2-1.5-2.6-1.8-4.1v0c-0.3-1.3-0.4-2.7-0.1-4c0.1-0.4,0.2-0.8,0.3-1.2c0-0.1,0.1-0.3,0.2-0.4
			c0,0,0,0,0,0c0,0,0,0,0,0c0,0,0,0,0.1,0c0,0,0,0,0.1,0c0,0,0,0,0.1,0.1c0,0,0,0.1,0,0.1c-0.1,1,0,2,0.1,3c0.1,0.7,0.3,1.3,0.5,1.9
			c0,0,0,0,0,0c0.6,1.3,1.5,2.4,2.6,3.2c0.7,0.6,1.5,1,2.3,1.4C142,33.1,142.8,33.4,143.8,33.6C143.7,33.5,143.7,33.5,143.8,33.6
			C143.8,33.6,143.8,33.6,143.8,33.6L143.8,33.6z"/>
		<path class="st3" d="M147.8,23.3H144c0,0,0,0,0,0c0,0,0,0,0,0c0,0,0,0,0,0c0,0,0,0,0,0c0,0,0,0,0,0c0.1-0.3,0.2-0.5,0.4-0.8
			c0.6-1,1.3-1.5,2.1-2.1c1.1-0.8,2.3-1.4,3.5-1.8c1.3-0.5,2.7-0.6,4.1-0.5c0.8,0,1.5,0.2,2.3,0.4c0.6,0.2,1.1,0.4,1.6,0.6
			c0.5,0.2,1,0.5,1.5,0.9c0.3,0.2,0.6,0.5,0.9,0.7c0.3,0.2,0.5,0.5,0.7,0.7c0,0,0,0.1,0,0.1c0,0,0,0.1,0,0.1c0,0-0.1,0-0.1,0
			c0,0-0.1,0-0.1,0c-0.4-0.3-0.8-0.5-1.2-0.7c-0.6-0.4-1.3-0.6-2-0.8c-0.7-0.2-1.4-0.3-2.1-0.3c-0.8,0-1.6,0.1-2.4,0.3
			c-0.5,0.1-1,0.3-1.4,0.6c-0.7,0.3-1.3,0.7-1.9,1.1c-0.4,0.3-0.7,0.5-0.9,0.7C148.6,22.7,148.2,23,147.8,23.3
			C147.9,23.3,147.9,23.3,147.8,23.3C147.8,23.3,147.8,23.3,147.8,23.3L147.8,23.3z"/>
		<path class="st3" d="M155.9,32.5l2.2-2.9c0,0,0,0,0.1,0c0,0,0.1,0,0.1,0l0,0c0.3,0.3,0.6,0.6,0.8,1c0.4,0.7,0.4,1.3,0.5,2.1
			c0.1,0.6,0.1,1.1,0,1.7c0,1.1-0.2,2.1-0.5,3.1c-0.3,1.1-0.8,2.1-1.5,3.1c-0.7,1.1-1.7,2-2.7,2.7c-0.9,0.6-1.8,1-2.9,1.3
			c-0.4,0.1-0.7,0.2-1.1,0.2l-0.5,0.1c0,0-0.1,0-0.1,0c0,0,0,0,0-0.1c0,0,0-0.1,0-0.1c0,0,0,0,0.1-0.1c0.4-0.1,0.8-0.3,1.2-0.5
			c0.5-0.2,0.9-0.4,1.2-0.7l0,0c0.9-0.6,1.6-1.4,2.2-2.2v0c0.6-0.8,1.1-1.7,1.2-2.7v0c0.1-0.5,0.2-1,0.3-1.5c0-0.6,0.1-1.1,0.1-1.5
			c0-0.4,0-0.7-0.1-1.1c0-0.2-0.1-0.5-0.1-0.7c-0.1-0.2-0.1-0.4-0.2-0.6C156.1,32.9,156,32.6,155.9,32.5z"/>
		<path class="st3" d="M149.9,28.7c-0.3,0-0.5,0-0.8,0.1c-0.2,0.1-0.4,0.3-0.6,0.5c-0.1,0.2-0.2,0.5-0.1,0.8c0,0.3,0.2,0.5,0.4,0.7
			s0.4,0.3,0.7,0.4c0.3,0,0.5,0,0.8-0.1c0.2-0.1,0.4-0.3,0.5-0.6c0.1-0.2,0.2-0.5,0.1-0.8c0-0.3-0.2-0.5-0.3-0.7
			C150.3,28.9,150.1,28.7,149.9,28.7L149.9,28.7z"/>
	</g>
</g>
<g>
	
		<linearGradient id="SVGID_13_" gradientUnits="userSpaceOnUse" x1="149" y1="138.2976" x2="149" y2="75.7976" gradientTransform="matrix(1 0 0 -1 0 215.4646)">
		<stop  offset="0" style="stop-color:#0CCA98"/>
		<stop  offset="1" style="stop-color:#00FFCC"/>
	</linearGradient>
	<path class="st10" d="M134,77.2h30c5.5,0,10,4.5,10,10v42.5c0,5.5-4.5,10-10,10h-30c-5.5,0-10-4.5-10-10V87.2
		C124,81.6,128.5,77.2,134,77.2z"/>
	<path class="st1" d="M134,78.2h30c5,0,9,4,9,9v42.5c0,5-4,9-9,9h-30c-5,0-9-4-9-9V87.2C125,82.2,129,78.2,134,78.2z"/>
</g>
<g>
	<defs>
		<rect id="SVGID_14_" x="134.7" y="95" width="26.3" height="26.8"/>
	</defs>
	<clipPath id="SVGID_15_">
		<use xlink:href="#SVGID_14_"  style="overflow:visible;"/>
	</clipPath>
	<g class="st11">
		<path class="st3" d="M139.4,104.5l2.2,2c0,0,0,0,0.1,0c0,0,0.1,0,0.1,0c0.5-0.4,1-0.7,1.6-1c2.5-1.2,4.9-0.9,5.7-0.8
			c0.8,0.1,1.6,0.3,2.4,0.6c0,0,0.1,0,0.1,0c0,0,0,0,0.1,0l1.7-2.7c0,0,0-0.1,0-0.1c0,0,0-0.1-0.1-0.1l0,0c-1.2-0.5-2.4-0.8-3.6-1
			c-1-0.1-4.4-0.6-7.9,1.3c-0.9,0.5-1.6,1-2.4,1.7c0,0,0,0,0,0C139.4,104.4,139.4,104.4,139.4,104.5
			C139.4,104.4,139.4,104.4,139.4,104.5C139.4,104.5,139.4,104.5,139.4,104.5L139.4,104.5z"/>
		<path class="st3" d="M157.1,99.9l-3.3,0.5c0,0-0.1,0-0.1,0c0,0,0,0.1,0,0.1c0.1,0.6,0.1,1.3,0.1,1.9c0,0.3,0,1.8-0.4,3
			c-0.6,2.2-2.4,3.6-3.3,4.2c0,0,0,0,0,0.1c0,0,0,0.1,0,0.1c0.6,0.9,1.2,1.8,1.9,2.6c0,0,0,0,0.1,0c0,0,0.1,0,0.1,0
			c1.9-1.3,3.4-3.2,4.3-5.3c1.3-3.1,0.9-5.9,0.7-7.1C157.2,99.9,157.2,99.9,157.1,99.9C157.1,99.9,157.1,99.9,157.1,99.9L157.1,99.9
			z"/>
		<path class="st3" d="M151.4,116.6l1.2-3.3c0,0,0,0,0,0c0,0,0,0,0,0c0,0,0,0,0,0c0,0,0,0,0,0l0,0c-1.1-0.4-2.1-1-3-1.8
			c-0.7-0.6-1.3-1.3-1.8-2.1c-0.3-0.5-0.6-1-0.7-1.6c0-0.1-0.1-0.3-0.2-0.8c0-0.2-0.1-0.5-0.1-0.6c0,0,0-0.1,0-0.1c0,0,0,0-0.1,0
			l-3.5,0c0,0-0.1,0-0.1,0c0,0,0,0,0,0.1c0,0.4,0,0.8,0.1,1.2c0.1,0.5,0.2,1,0.4,1.5c0.6,1.3,1.3,2.6,2.2,3.7
			c0.8,0.9,1.7,1.8,2.7,2.5c0.9,0.6,1.8,1.2,2.7,1.7C151.3,116.7,151.3,116.7,151.4,116.6C151.3,116.7,151.3,116.7,151.4,116.6
			C151.4,116.7,151.4,116.7,151.4,116.6C151.4,116.7,151.4,116.7,151.4,116.6L151.4,116.6z"/>
		<path class="st3" d="M143.8,110.7l1.5,3c0,0,0,0.1,0,0.1c0,0,0,0.1-0.1,0.1c0,0,0,0-0.1,0c-1.3,0-2.5-0.3-3.7-0.7
			c-1.8-0.7-3.4-1.8-4.7-3.3c-0.9-1.2-1.5-2.6-1.8-4.1v0c-0.3-1.3-0.4-2.7-0.1-4c0.1-0.4,0.2-0.8,0.3-1.2c0-0.1,0.1-0.3,0.2-0.4
			c0,0,0,0,0,0c0,0,0,0,0,0c0,0,0,0,0.1,0c0,0,0,0,0.1,0c0,0,0,0,0.1,0.1c0,0,0,0.1,0,0.1c-0.1,1,0,2,0.1,3c0.1,0.7,0.3,1.3,0.5,1.9
			c0,0,0,0,0,0c0.6,1.3,1.5,2.4,2.6,3.2c0.7,0.6,1.5,1,2.3,1.4C142,110.2,142.8,110.5,143.8,110.7
			C143.7,110.6,143.7,110.6,143.8,110.7C143.8,110.6,143.8,110.7,143.8,110.7L143.8,110.7z"/>
		<path class="st3" d="M147.8,100.4H144c0,0,0,0,0,0c0,0,0,0,0,0c0,0,0,0,0,0c0,0,0,0,0,0c0,0,0,0,0,0c0.1-0.3,0.2-0.5,0.4-0.8
			c0.6-1,1.3-1.5,2.1-2.1c1.1-0.8,2.3-1.4,3.5-1.8c1.3-0.5,2.7-0.6,4.1-0.5c0.8,0,1.5,0.2,2.3,0.4c0.6,0.2,1.1,0.4,1.6,0.6
			c0.5,0.2,1,0.5,1.5,0.9c0.3,0.2,0.6,0.5,0.9,0.7c0.3,0.2,0.5,0.5,0.7,0.7c0,0,0,0.1,0,0.1c0,0,0,0.1,0,0.1c0,0-0.1,0-0.1,0
			c0,0-0.1,0-0.1,0c-0.4-0.3-0.8-0.5-1.2-0.7c-0.6-0.4-1.3-0.6-2-0.8c-0.7-0.2-1.4-0.3-2.1-0.3c-0.8,0-1.6,0.1-2.4,0.3
			c-0.5,0.1-1,0.3-1.4,0.6c-0.7,0.3-1.3,0.7-1.9,1.1c-0.4,0.3-0.7,0.5-0.9,0.7C148.6,99.7,148.2,100.1,147.8,100.4
			C147.9,100.4,147.9,100.4,147.8,100.4C147.8,100.4,147.8,100.4,147.8,100.4L147.8,100.4z"/>
		<path class="st3" d="M155.9,109.5l2.2-2.9c0,0,0,0,0.1,0s0.1,0,0.1,0l0,0c0.3,0.3,0.6,0.6,0.8,1c0.4,0.7,0.4,1.3,0.5,2.1
			c0.1,0.6,0.1,1.1,0,1.7c0,1.1-0.2,2.1-0.5,3.1c-0.3,1.1-0.8,2.1-1.5,3.1c-0.7,1.1-1.7,2-2.7,2.7c-0.9,0.6-1.8,1-2.9,1.3
			c-0.4,0.1-0.7,0.2-1.1,0.2l-0.5,0.1c0,0-0.1,0-0.1,0c0,0,0,0,0-0.1c0,0,0-0.1,0-0.1c0,0,0,0,0.1-0.1c0.4-0.1,0.8-0.3,1.2-0.5
			c0.5-0.2,0.9-0.4,1.2-0.7l0,0c0.9-0.6,1.6-1.4,2.2-2.2v0c0.6-0.8,1.1-1.7,1.2-2.7v0c0.1-0.5,0.2-1,0.3-1.5c0-0.6,0.1-1.1,0.1-1.5
			c0-0.4,0-0.7-0.1-1.1c0-0.2-0.1-0.5-0.1-0.7c-0.1-0.2-0.1-0.4-0.2-0.6C156.1,109.9,156,109.7,155.9,109.5z"/>
		<path class="st3" d="M149.9,105.8c-0.3,0-0.5,0-0.8,0.1c-0.2,0.1-0.4,0.3-0.6,0.5c-0.1,0.2-0.2,0.5-0.1,0.8c0,0.3,0.2,0.5,0.4,0.7
			c0.2,0.2,0.4,0.3,0.7,0.4c0.3,0,0.5,0,0.8-0.1c0.2-0.1,0.4-0.3,0.5-0.6c0.1-0.2,0.2-0.5,0.1-0.8c0-0.3-0.2-0.5-0.3-0.7
			S150.1,105.8,149.9,105.8L149.9,105.8z"/>
	</g>
</g>
<g>
	
		<linearGradient id="SVGID_16_" gradientUnits="userSpaceOnUse" x1="149" y1="61.2146" x2="149" y2="-1.2854" gradientTransform="matrix(1 0 0 -1 0 215.4646)">
		<stop  offset="0" style="stop-color:#0CCA98"/>
		<stop  offset="1" style="stop-color:#00FFCC"/>
	</linearGradient>
	<path class="st12" d="M134,154.3h30c5.5,0,10,4.5,10,10v42.5c0,5.5-4.5,10-10,10h-30c-5.5,0-10-4.5-10-10v-42.5
		C124,158.7,128.5,154.3,134,154.3z"/>
	<path class="st1" d="M134,155.3h30c5,0,9,4,9,9v42.5c0,5-4,9-9,9h-30c-5,0-9-4-9-9v-42.5C125,159.3,129,155.3,134,155.3z"/>
</g>
<g>
	<defs>
		<rect id="SVGID_17_" x="134.7" y="172.1" width="26.3" height="26.8"/>
	</defs>
	<clipPath id="SVGID_18_">
		<use xlink:href="#SVGID_17_"  style="overflow:visible;"/>
	</clipPath>
	<g class="st13">
		<path class="st3" d="M139.4,181.6l2.2,2c0,0,0,0,0.1,0c0,0,0.1,0,0.1,0c0.5-0.4,1-0.7,1.6-1c2.5-1.2,4.9-0.9,5.7-0.8
			c0.8,0.1,1.6,0.3,2.4,0.6c0,0,0.1,0,0.1,0c0,0,0,0,0.1,0l1.7-2.7c0,0,0-0.1,0-0.1c0,0,0-0.1-0.1-0.1l0,0c-1.2-0.5-2.4-0.8-3.6-1
			c-1-0.1-4.4-0.6-7.9,1.3c-0.9,0.5-1.6,1-2.4,1.7c0,0,0,0,0,0C139.4,181.4,139.4,181.5,139.4,181.6
			C139.4,181.5,139.4,181.5,139.4,181.6C139.4,181.5,139.4,181.5,139.4,181.6L139.4,181.6z"/>
		<path class="st3" d="M157.1,177l-3.3,0.5c0,0-0.1,0-0.1,0c0,0,0,0.1,0,0.1c0.1,0.6,0.1,1.3,0.1,1.9c0,0.3,0,1.8-0.4,3
			c-0.6,2.2-2.4,3.6-3.3,4.2c0,0,0,0,0,0.1c0,0,0,0.1,0,0.1c0.6,0.9,1.2,1.8,1.9,2.6c0,0,0,0,0.1,0s0.1,0,0.1,0
			c1.9-1.3,3.4-3.2,4.3-5.3c1.3-3.1,0.9-5.9,0.7-7.1C157.2,177,157.2,177,157.1,177C157.1,177,157.1,177,157.1,177L157.1,177z"/>
		<path class="st3" d="M151.4,193.7l1.2-3.3c0,0,0,0,0,0c0,0,0,0,0,0c0,0,0,0,0,0c0,0,0,0,0,0l0,0c-1.1-0.4-2.1-1-3-1.8
			c-0.7-0.6-1.3-1.3-1.8-2.1c-0.3-0.5-0.6-1-0.7-1.6c0-0.1-0.1-0.3-0.2-0.8c0-0.2-0.1-0.5-0.1-0.6c0,0,0-0.1,0-0.1c0,0,0,0-0.1,0
			l-3.5,0c0,0-0.1,0-0.1,0c0,0,0,0,0,0.1c0,0.4,0,0.8,0.1,1.2c0.1,0.5,0.2,1,0.4,1.5c0.6,1.3,1.3,2.6,2.2,3.7
			c0.8,0.9,1.7,1.8,2.7,2.5c0.9,0.6,1.8,1.2,2.7,1.7C151.3,193.8,151.3,193.8,151.4,193.7C151.3,193.8,151.3,193.8,151.4,193.7
			C151.4,193.8,151.4,193.8,151.4,193.7C151.4,193.8,151.4,193.7,151.4,193.7L151.4,193.7z"/>
		<path class="st3" d="M143.8,187.8l1.5,3c0,0,0,0.1,0,0.1c0,0,0,0.1-0.1,0.1c0,0,0,0-0.1,0c-1.3,0-2.5-0.3-3.7-0.7
			c-1.8-0.7-3.4-1.8-4.7-3.3c-0.9-1.2-1.5-2.6-1.8-4.1v0c-0.3-1.3-0.4-2.7-0.1-4c0.1-0.4,0.2-0.8,0.3-1.2c0-0.1,0.1-0.3,0.2-0.4
			c0,0,0,0,0,0c0,0,0,0,0,0c0,0,0,0,0.1,0c0,0,0,0,0.1,0c0,0,0,0,0.1,0.1c0,0,0,0.1,0,0.1c-0.1,1,0,2,0.1,3c0.1,0.7,0.3,1.3,0.5,1.9
			c0,0,0,0,0,0c0.6,1.3,1.5,2.4,2.6,3.2c0.7,0.6,1.5,1,2.3,1.4C142,187.3,142.8,187.5,143.8,187.8
			C143.7,187.7,143.7,187.7,143.8,187.8C143.8,187.7,143.8,187.8,143.8,187.8L143.8,187.8z"/>
		<path class="st3" d="M147.8,177.5H144c0,0,0,0,0,0c0,0,0,0,0,0c0,0,0,0,0,0c0,0,0,0,0,0c0,0,0,0,0,0c0.1-0.3,0.2-0.5,0.4-0.8
			c0.6-1,1.3-1.5,2.1-2.1c1.1-0.8,2.3-1.4,3.5-1.8c1.3-0.5,2.7-0.6,4.1-0.5c0.8,0,1.5,0.2,2.3,0.4c0.6,0.2,1.1,0.4,1.6,0.6
			c0.5,0.2,1,0.5,1.5,0.9c0.3,0.2,0.6,0.5,0.9,0.7c0.3,0.2,0.5,0.5,0.7,0.7c0,0,0,0.1,0,0.1c0,0,0,0.1,0,0.1c0,0-0.1,0-0.1,0
			c0,0-0.1,0-0.1,0c-0.4-0.3-0.8-0.5-1.2-0.7c-0.6-0.4-1.3-0.6-2-0.8c-0.7-0.2-1.4-0.3-2.1-0.3c-0.8,0-1.6,0.1-2.4,0.3
			c-0.5,0.1-1,0.3-1.4,0.6c-0.7,0.3-1.3,0.7-1.9,1.1c-0.4,0.3-0.7,0.5-0.9,0.7C148.6,176.8,148.2,177.1,147.8,177.5
			C147.9,177.5,147.9,177.5,147.8,177.5C147.8,177.5,147.8,177.5,147.8,177.5L147.8,177.5z"/>
		<path class="st3" d="M155.9,186.6l2.2-2.9c0,0,0,0,0.1,0c0,0,0.1,0,0.1,0l0,0c0.3,0.3,0.6,0.6,0.8,1c0.4,0.7,0.4,1.3,0.5,2.1
			c0.1,0.6,0.1,1.1,0,1.7c0,1.1-0.2,2.1-0.5,3.1c-0.3,1.1-0.8,2.1-1.5,3.1c-0.7,1.1-1.7,2-2.7,2.7c-0.9,0.6-1.8,1-2.9,1.3
			c-0.4,0.1-0.7,0.2-1.1,0.2l-0.5,0.1c0,0-0.1,0-0.1,0c0,0,0,0,0-0.1c0,0,0-0.1,0-0.1c0,0,0,0,0.1-0.1c0.4-0.1,0.8-0.3,1.2-0.5
			c0.5-0.2,0.9-0.4,1.2-0.7l0,0c0.9-0.6,1.6-1.4,2.2-2.2v0c0.6-0.8,1.1-1.7,1.2-2.7v0c0.1-0.5,0.2-1,0.3-1.5c0-0.6,0.1-1.1,0.1-1.5
			c0-0.4,0-0.7-0.1-1.1c0-0.2-0.1-0.5-0.1-0.7c-0.1-0.2-0.1-0.4-0.2-0.6C156.1,187,156,186.8,155.9,186.6z"/>
		<path class="st3" d="M149.9,182.9c-0.3,0-0.5,0-0.8,0.1c-0.2,0.1-0.4,0.3-0.6,0.5c-0.1,0.2-0.2,0.5-0.1,0.8c0,0.3,0.2,0.5,0.4,0.7
			c0.2,0.2,0.4,0.3,0.7,0.4c0.3,0,0.5,0,0.8-0.1c0.2-0.1,0.4-0.3,0.5-0.6c0.1-0.2,0.2-0.5,0.1-0.8c0-0.3-0.2-0.5-0.3-0.7
			S150.1,182.9,149.9,182.9L149.9,182.9z"/>
	</g>
</g>
<g>
	
		<linearGradient id="SVGID_19_" gradientUnits="userSpaceOnUse" x1="86.5" y1="215.3812" x2="86.5" y2="152.8812" gradientTransform="matrix(1 0 0 -1 0 215.4646)">
		<stop  offset="0" style="stop-color:#0CCA98"/>
		<stop  offset="1" style="stop-color:#00FFCC"/>
	</linearGradient>
	<path class="st14" d="M71.5,0.1h30c5.5,0,10,4.5,10,10v42.5c0,5.5-4.5,10-10,10h-30c-5.5,0-10-4.5-10-10V10.1
		C61.5,4.6,66,0.1,71.5,0.1z"/>
	<path class="st1" d="M71.5,1.1h30c5,0,9,4,9,9v42.5c0,5-4,9-9,9h-30c-5,0-9-4-9-9V10.1C62.5,5.1,66.5,1.1,71.5,1.1z"/>
</g>
<g>
	<defs>
		<rect id="SVGID_20_" x="72.2" y="17.9" width="26.3" height="26.8"/>
	</defs>
	<clipPath id="SVGID_21_">
		<use xlink:href="#SVGID_20_"  style="overflow:visible;"/>
	</clipPath>
	<g class="st15">
		<path class="st3" d="M76.9,27.4l2.2,2c0,0,0,0,0.1,0c0,0,0.1,0,0.1,0c0.5-0.4,1-0.7,1.6-1c2.5-1.2,4.9-0.9,5.7-0.8
			c0.8,0.1,1.6,0.3,2.4,0.6c0,0,0.1,0,0.1,0c0,0,0,0,0.1,0l1.7-2.7c0,0,0-0.1,0-0.1c0,0,0-0.1-0.1-0.1l0,0c-1.2-0.5-2.4-0.8-3.6-1
			c-1-0.1-4.4-0.6-7.9,1.3c-0.9,0.5-1.6,1-2.4,1.7c0,0,0,0,0,0C76.9,27.3,76.9,27.3,76.9,27.4C76.8,27.3,76.9,27.3,76.9,27.4
			C76.9,27.4,76.9,27.4,76.9,27.4L76.9,27.4z"/>
		<path class="st3" d="M94.6,22.8l-3.3,0.5c0,0-0.1,0-0.1,0c0,0,0,0.1,0,0.1c0.1,0.6,0.1,1.3,0.1,1.9c0,0.3,0,1.8-0.4,3
			c-0.6,2.2-2.4,3.6-3.3,4.2c0,0,0,0,0,0.1c0,0,0,0.1,0,0.1c0.6,0.9,1.2,1.8,1.9,2.6c0,0,0,0,0.1,0s0.1,0,0.1,0
			c1.9-1.3,3.4-3.2,4.3-5.3c1.3-3.1,0.9-5.9,0.7-7.1C94.7,22.9,94.7,22.8,94.6,22.8C94.6,22.8,94.6,22.8,94.6,22.8L94.6,22.8z"/>
		<path class="st3" d="M88.9,39.6l1.2-3.3c0,0,0,0,0,0c0,0,0,0,0,0c0,0,0,0,0,0c0,0,0,0,0,0l0,0c-1.1-0.4-2.1-1-3-1.8
			c-0.7-0.6-1.3-1.3-1.8-2.1c-0.3-0.5-0.6-1-0.7-1.6c0-0.1-0.1-0.3-0.2-0.8c0-0.2-0.1-0.5-0.1-0.6c0,0,0-0.1,0-0.1c0,0,0,0-0.1,0
			l-3.5,0c0,0-0.1,0-0.1,0c0,0,0,0,0,0.1c0,0.4,0,0.8,0.1,1.2c0.1,0.5,0.2,1,0.4,1.5c0.6,1.3,1.3,2.6,2.2,3.7
			c0.8,0.9,1.7,1.8,2.7,2.5c0.9,0.6,1.8,1.2,2.7,1.7C88.8,39.6,88.8,39.6,88.9,39.6C88.8,39.6,88.8,39.6,88.9,39.6
			C88.9,39.6,88.9,39.6,88.9,39.6C88.9,39.6,88.9,39.6,88.9,39.6L88.9,39.6z"/>
		<path class="st3" d="M81.3,33.6l1.5,3c0,0,0,0.1,0,0.1c0,0,0,0.1-0.1,0.1c0,0,0,0-0.1,0c-1.3,0-2.5-0.3-3.7-0.7
			c-1.8-0.7-3.4-1.8-4.7-3.3c-0.9-1.2-1.5-2.6-1.8-4.1v0c-0.3-1.3-0.4-2.7-0.1-4c0.1-0.4,0.2-0.8,0.3-1.2c0-0.1,0.1-0.3,0.2-0.4
			c0,0,0,0,0,0c0,0,0,0,0,0c0,0,0,0,0.1,0c0,0,0,0,0.1,0c0,0,0,0,0.1,0.1c0,0,0,0.1,0,0.1c-0.1,1,0,2,0.1,3c0.1,0.7,0.3,1.3,0.5,1.9
			c0,0,0,0,0,0c0.6,1.3,1.5,2.4,2.6,3.2c0.7,0.6,1.5,1,2.3,1.4C79.5,33.1,80.3,33.4,81.3,33.6C81.2,33.5,81.2,33.5,81.3,33.6
			C81.3,33.6,81.3,33.6,81.3,33.6L81.3,33.6z"/>
		<path class="st3" d="M85.3,23.3h-3.8c0,0,0,0,0,0c0,0,0,0,0,0c0,0,0,0,0,0c0,0,0,0,0,0c0,0,0,0,0,0c0.1-0.3,0.2-0.5,0.4-0.8
			c0.6-1,1.3-1.5,2.1-2.1c1.1-0.8,2.3-1.4,3.5-1.8c1.3-0.5,2.7-0.6,4.1-0.5c0.8,0,1.5,0.2,2.3,0.4c0.6,0.2,1.1,0.4,1.6,0.6
			c0.5,0.2,1,0.5,1.5,0.9c0.3,0.2,0.6,0.5,0.9,0.7c0.3,0.2,0.5,0.5,0.7,0.7c0,0,0,0.1,0,0.1c0,0,0,0.1,0,0.1c0,0-0.1,0-0.1,0
			c0,0-0.1,0-0.1,0c-0.4-0.3-0.8-0.5-1.2-0.7c-0.6-0.4-1.3-0.6-2-0.8c-0.7-0.2-1.4-0.3-2.1-0.3c-0.8,0-1.6,0.1-2.4,0.3
			c-0.5,0.1-1,0.3-1.4,0.6c-0.7,0.3-1.3,0.7-1.9,1.1c-0.4,0.3-0.7,0.5-0.9,0.7C86.1,22.7,85.7,23,85.3,23.3
			C85.4,23.3,85.4,23.3,85.3,23.3C85.3,23.3,85.3,23.3,85.3,23.3L85.3,23.3z"/>
		<path class="st3" d="M93.4,32.5l2.2-2.9c0,0,0,0,0.1,0c0,0,0.1,0,0.1,0l0,0c0.3,0.3,0.6,0.6,0.8,1c0.4,0.7,0.4,1.3,0.5,2.1
			c0.1,0.6,0.1,1.1,0,1.7c0,1.1-0.2,2.1-0.5,3.1c-0.3,1.1-0.8,2.1-1.5,3.1c-0.7,1.1-1.7,2-2.7,2.7c-0.9,0.6-1.8,1-2.9,1.3
			c-0.4,0.1-0.7,0.2-1.1,0.2L88,44.7c0,0-0.1,0-0.1,0c0,0,0,0,0-0.1c0,0,0-0.1,0-0.1c0,0,0,0,0.1-0.1c0.4-0.1,0.8-0.3,1.2-0.5
			c0.5-0.2,0.9-0.4,1.2-0.7l0,0c0.9-0.6,1.6-1.4,2.2-2.2v0c0.6-0.8,1.1-1.7,1.2-2.7v0c0.1-0.5,0.2-1,0.3-1.5c0-0.6,0.1-1.1,0.1-1.5
			c0-0.4,0-0.7-0.1-1.1c0-0.2-0.1-0.5-0.1-0.7c-0.1-0.2-0.1-0.4-0.2-0.6C93.6,32.9,93.5,32.6,93.4,32.5z"/>
		<path class="st3" d="M87.4,28.7c-0.3,0-0.5,0-0.8,0.1c-0.2,0.1-0.4,0.3-0.6,0.5c-0.1,0.2-0.2,0.5-0.1,0.8c0,0.3,0.2,0.5,0.4,0.7
			s0.4,0.3,0.7,0.4c0.3,0,0.5,0,0.8-0.1c0.2-0.1,0.4-0.3,0.5-0.6c0.1-0.2,0.2-0.5,0.1-0.8c0-0.3-0.2-0.5-0.3-0.7
			C87.8,28.9,87.6,28.7,87.4,28.7L87.4,28.7z"/>
	</g>
</g>
<g>
	
		<linearGradient id="SVGID_22_" gradientUnits="userSpaceOnUse" x1="86.5" y1="138.2976" x2="86.5" y2="75.7976" gradientTransform="matrix(1 0 0 -1 0 215.4646)">
		<stop  offset="0" style="stop-color:#0CCA98"/>
		<stop  offset="1" style="stop-color:#00FFCC"/>
	</linearGradient>
	<path class="st16" d="M71.5,77.2h30c5.5,0,10,4.5,10,10v42.5c0,5.5-4.5,10-10,10h-30c-5.5,0-10-4.5-10-10V87.2
		C61.5,81.6,66,77.2,71.5,77.2z"/>
	<path class="st1" d="M71.5,78.2h30c5,0,9,4,9,9v42.5c0,5-4,9-9,9h-30c-5,0-9-4-9-9V87.2C62.5,82.2,66.5,78.2,71.5,78.2z"/>
</g>
<g>
	<defs>
		<rect id="SVGID_23_" x="72.2" y="95" width="26.3" height="26.8"/>
	</defs>
	<clipPath id="SVGID_24_">
		<use xlink:href="#SVGID_23_"  style="overflow:visible;"/>
	</clipPath>
	<g class="st17">
		<path class="st3" d="M76.9,104.5l2.2,2c0,0,0,0,0.1,0c0,0,0.1,0,0.1,0c0.5-0.4,1-0.7,1.6-1c2.5-1.2,4.9-0.9,5.7-0.8
			c0.8,0.1,1.6,0.3,2.4,0.6c0,0,0.1,0,0.1,0c0,0,0,0,0.1,0l1.7-2.7c0,0,0-0.1,0-0.1c0,0,0-0.1-0.1-0.1l0,0c-1.2-0.5-2.4-0.8-3.6-1
			c-1-0.1-4.4-0.6-7.9,1.3c-0.9,0.5-1.6,1-2.4,1.7c0,0,0,0,0,0C76.9,104.4,76.9,104.4,76.9,104.5C76.8,104.4,76.9,104.4,76.9,104.5
			C76.9,104.5,76.9,104.5,76.9,104.5L76.9,104.5z"/>
		<path class="st3" d="M94.6,99.9l-3.3,0.5c0,0-0.1,0-0.1,0c0,0,0,0.1,0,0.1c0.1,0.6,0.1,1.3,0.1,1.9c0,0.3,0,1.8-0.4,3
			c-0.6,2.2-2.4,3.6-3.3,4.2c0,0,0,0,0,0.1c0,0,0,0.1,0,0.1c0.6,0.9,1.2,1.8,1.9,2.6c0,0,0,0,0.1,0c0,0,0.1,0,0.1,0
			c1.9-1.3,3.4-3.2,4.3-5.3c1.3-3.1,0.9-5.9,0.7-7.1C94.7,99.9,94.7,99.9,94.6,99.9C94.6,99.9,94.6,99.9,94.6,99.9L94.6,99.9z"/>
		<path class="st3" d="M88.9,116.6l1.2-3.3c0,0,0,0,0,0c0,0,0,0,0,0c0,0,0,0,0,0c0,0,0,0,0,0l0,0c-1.1-0.4-2.1-1-3-1.8
			c-0.7-0.6-1.3-1.3-1.8-2.1c-0.3-0.5-0.6-1-0.7-1.6c0-0.1-0.1-0.3-0.2-0.8c0-0.2-0.1-0.5-0.1-0.6c0,0,0-0.1,0-0.1c0,0,0,0-0.1,0
			l-3.5,0c0,0-0.1,0-0.1,0c0,0,0,0,0,0.1c0,0.4,0,0.8,0.1,1.2c0.1,0.5,0.2,1,0.4,1.5c0.6,1.3,1.3,2.6,2.2,3.7
			c0.8,0.9,1.7,1.8,2.7,2.5c0.9,0.6,1.8,1.2,2.7,1.7C88.8,116.7,88.8,116.7,88.9,116.6C88.8,116.7,88.8,116.7,88.9,116.6
			C88.9,116.7,88.9,116.7,88.9,116.6C88.9,116.7,88.9,116.7,88.9,116.6L88.9,116.6z"/>
		<path class="st3" d="M81.3,110.7l1.5,3c0,0,0,0.1,0,0.1c0,0,0,0.1-0.1,0.1c0,0,0,0-0.1,0c-1.3,0-2.5-0.3-3.7-0.7
			c-1.8-0.7-3.4-1.8-4.7-3.3c-0.9-1.2-1.5-2.6-1.8-4.1v0c-0.3-1.3-0.4-2.7-0.1-4c0.1-0.4,0.2-0.8,0.3-1.2c0-0.1,0.1-0.3,0.2-0.4
			c0,0,0,0,0,0c0,0,0,0,0,0c0,0,0,0,0.1,0c0,0,0,0,0.1,0c0,0,0,0,0.1,0.1c0,0,0,0.1,0,0.1c-0.1,1,0,2,0.1,3c0.1,0.7,0.3,1.3,0.5,1.9
			c0,0,0,0,0,0c0.6,1.3,1.5,2.4,2.6,3.2c0.7,0.6,1.5,1,2.3,1.4C79.5,110.2,80.3,110.5,81.3,110.7C81.2,110.6,81.2,110.6,81.3,110.7
			C81.3,110.6,81.3,110.7,81.3,110.7L81.3,110.7z"/>
		<path class="st3" d="M85.3,100.4h-3.8c0,0,0,0,0,0c0,0,0,0,0,0c0,0,0,0,0,0c0,0,0,0,0,0c0,0,0,0,0,0c0.1-0.3,0.2-0.5,0.4-0.8
			c0.6-1,1.3-1.5,2.1-2.1c1.1-0.8,2.3-1.4,3.5-1.8c1.3-0.5,2.7-0.6,4.1-0.5c0.8,0,1.5,0.2,2.3,0.4c0.6,0.2,1.1,0.4,1.6,0.6
			c0.5,0.2,1,0.5,1.5,0.9c0.3,0.2,0.6,0.5,0.9,0.7c0.3,0.2,0.5,0.5,0.7,0.7c0,0,0,0.1,0,0.1c0,0,0,0.1,0,0.1c0,0-0.1,0-0.1,0
			c0,0-0.1,0-0.1,0c-0.4-0.3-0.8-0.5-1.2-0.7c-0.6-0.4-1.3-0.6-2-0.8c-0.7-0.2-1.4-0.3-2.1-0.3c-0.8,0-1.6,0.1-2.4,0.3
			c-0.5,0.1-1,0.3-1.4,0.6c-0.7,0.3-1.3,0.7-1.9,1.1c-0.4,0.3-0.7,0.5-0.9,0.7C86.1,99.7,85.7,100.1,85.3,100.4
			C85.4,100.4,85.4,100.4,85.3,100.4C85.3,100.4,85.3,100.4,85.3,100.4L85.3,100.4z"/>
		<path class="st3" d="M93.4,109.5l2.2-2.9c0,0,0,0,0.1,0s0.1,0,0.1,0l0,0c0.3,0.3,0.6,0.6,0.8,1c0.4,0.7,0.4,1.3,0.5,2.1
			c0.1,0.6,0.1,1.1,0,1.7c0,1.1-0.2,2.1-0.5,3.1c-0.3,1.1-0.8,2.1-1.5,3.1c-0.7,1.1-1.7,2-2.7,2.7c-0.9,0.6-1.8,1-2.9,1.3
			c-0.4,0.1-0.7,0.2-1.1,0.2l-0.5,0.1c0,0-0.1,0-0.1,0c0,0,0,0,0-0.1c0,0,0-0.1,0-0.1c0,0,0,0,0.1-0.1c0.4-0.1,0.8-0.3,1.2-0.5
			c0.5-0.2,0.9-0.4,1.2-0.7l0,0c0.9-0.6,1.6-1.4,2.2-2.2v0c0.6-0.8,1.1-1.7,1.2-2.7v0c0.1-0.5,0.2-1,0.3-1.5c0-0.6,0.1-1.1,0.1-1.5
			c0-0.4,0-0.7-0.1-1.1c0-0.2-0.1-0.5-0.1-0.7c-0.1-0.2-0.1-0.4-0.2-0.6C93.6,109.9,93.5,109.7,93.4,109.5z"/>
		<path class="st3" d="M87.4,105.8c-0.3,0-0.5,0-0.8,0.1c-0.2,0.1-0.4,0.3-0.6,0.5c-0.1,0.2-0.2,0.5-0.1,0.8c0,0.3,0.2,0.5,0.4,0.7
			c0.2,0.2,0.4,0.3,0.7,0.4c0.3,0,0.5,0,0.8-0.1c0.2-0.1,0.4-0.3,0.5-0.6c0.1-0.2,0.2-0.5,0.1-0.8c0-0.3-0.2-0.5-0.3-0.7
			S87.6,105.8,87.4,105.8L87.4,105.8z"/>
	</g>
</g>
<g>
	
		<linearGradient id="SVGID_25_" gradientUnits="userSpaceOnUse" x1="86.5" y1="61.2146" x2="86.5" y2="-1.2854" gradientTransform="matrix(1 0 0 -1 0 215.4646)">
		<stop  offset="0" style="stop-color:#0CCA98"/>
		<stop  offset="1" style="stop-color:#00FFCC"/>
	</linearGradient>
	<path class="st18" d="M71.5,154.3h30c5.5,0,10,4.5,10,10v42.5c0,5.5-4.5,10-10,10h-30c-5.5,0-10-4.5-10-10v-42.5
		C61.5,158.7,66,154.3,71.5,154.3z"/>
	<path class="st1" d="M71.5,155.3h30c5,0,9,4,9,9v42.5c0,5-4,9-9,9h-30c-5,0-9-4-9-9v-42.5C62.5,159.3,66.5,155.3,71.5,155.3z"/>
</g>
<g>
	<defs>
		<rect id="SVGID_26_" x="72.2" y="172.1" width="26.3" height="26.8"/>
	</defs>
	<clipPath id="SVGID_27_">
		<use xlink:href="#SVGID_26_"  style="overflow:visible;"/>
	</clipPath>
	<g class="st19">
		<path class="st3" d="M76.9,181.6l2.2,2c0,0,0,0,0.1,0c0,0,0.1,0,0.1,0c0.5-0.4,1-0.7,1.6-1c2.5-1.2,4.9-0.9,5.7-0.8
			c0.8,0.1,1.6,0.3,2.4,0.6c0,0,0.1,0,0.1,0c0,0,0,0,0.1,0l1.7-2.7c0,0,0-0.1,0-0.1c0,0,0-0.1-0.1-0.1l0,0c-1.2-0.5-2.4-0.8-3.6-1
			c-1-0.1-4.4-0.6-7.9,1.3c-0.9,0.5-1.6,1-2.4,1.7c0,0,0,0,0,0C76.9,181.4,76.9,181.5,76.9,181.6C76.8,181.5,76.9,181.5,76.9,181.6
			C76.9,181.5,76.9,181.5,76.9,181.6L76.9,181.6z"/>
		<path class="st3" d="M94.6,177l-3.3,0.5c0,0-0.1,0-0.1,0c0,0,0,0.1,0,0.1c0.1,0.6,0.1,1.3,0.1,1.9c0,0.3,0,1.8-0.4,3
			c-0.6,2.2-2.4,3.6-3.3,4.2c0,0,0,0,0,0.1c0,0,0,0.1,0,0.1c0.6,0.9,1.2,1.8,1.9,2.6c0,0,0,0,0.1,0s0.1,0,0.1,0
			c1.9-1.3,3.4-3.2,4.3-5.3c1.3-3.1,0.9-5.9,0.7-7.1C94.7,177,94.7,177,94.6,177C94.6,177,94.6,177,94.6,177L94.6,177z"/>
		<path class="st3" d="M88.9,193.7l1.2-3.3c0,0,0,0,0,0c0,0,0,0,0,0c0,0,0,0,0,0c0,0,0,0,0,0l0,0c-1.1-0.4-2.1-1-3-1.8
			c-0.7-0.6-1.3-1.3-1.8-2.1c-0.3-0.5-0.6-1-0.7-1.6c0-0.1-0.1-0.3-0.2-0.8c0-0.2-0.1-0.5-0.1-0.6c0,0,0-0.1,0-0.1c0,0,0,0-0.1,0
			l-3.5,0c0,0-0.1,0-0.1,0c0,0,0,0,0,0.1c0,0.4,0,0.8,0.1,1.2c0.1,0.5,0.2,1,0.4,1.5c0.6,1.3,1.3,2.6,2.2,3.7
			c0.8,0.9,1.7,1.8,2.7,2.5c0.9,0.6,1.8,1.2,2.7,1.7C88.8,193.8,88.8,193.8,88.9,193.7C88.8,193.8,88.8,193.8,88.9,193.7
			C88.9,193.8,88.9,193.8,88.9,193.7C88.9,193.8,88.9,193.7,88.9,193.7L88.9,193.7z"/>
		<path class="st3" d="M81.3,187.8l1.5,3c0,0,0,0.1,0,0.1c0,0,0,0.1-0.1,0.1c0,0,0,0-0.1,0c-1.3,0-2.5-0.3-3.7-0.7
			c-1.8-0.7-3.4-1.8-4.7-3.3c-0.9-1.2-1.5-2.6-1.8-4.1v0c-0.3-1.3-0.4-2.7-0.1-4c0.1-0.4,0.2-0.8,0.3-1.2c0-0.1,0.1-0.3,0.2-0.4
			c0,0,0,0,0,0c0,0,0,0,0,0c0,0,0,0,0.1,0c0,0,0,0,0.1,0c0,0,0,0,0.1,0.1c0,0,0,0.1,0,0.1c-0.1,1,0,2,0.1,3c0.1,0.7,0.3,1.3,0.5,1.9
			c0,0,0,0,0,0c0.6,1.3,1.5,2.4,2.6,3.2c0.7,0.6,1.5,1,2.3,1.4C79.5,187.3,80.3,187.5,81.3,187.8C81.2,187.7,81.2,187.7,81.3,187.8
			C81.3,187.7,81.3,187.8,81.3,187.8L81.3,187.8z"/>
		<path class="st3" d="M85.3,177.5h-3.8c0,0,0,0,0,0c0,0,0,0,0,0c0,0,0,0,0,0c0,0,0,0,0,0c0,0,0,0,0,0c0.1-0.3,0.2-0.5,0.4-0.8
			c0.6-1,1.3-1.5,2.1-2.1c1.1-0.8,2.3-1.4,3.5-1.8c1.3-0.5,2.7-0.6,4.1-0.5c0.8,0,1.5,0.2,2.3,0.4c0.6,0.2,1.1,0.4,1.6,0.6
			c0.5,0.2,1,0.5,1.5,0.9c0.3,0.2,0.6,0.5,0.9,0.7c0.3,0.2,0.5,0.5,0.7,0.7c0,0,0,0.1,0,0.1c0,0,0,0.1,0,0.1c0,0-0.1,0-0.1,0
			c0,0-0.1,0-0.1,0c-0.4-0.3-0.8-0.5-1.2-0.7c-0.6-0.4-1.3-0.6-2-0.8c-0.7-0.2-1.4-0.3-2.1-0.3c-0.8,0-1.6,0.1-2.4,0.3
			c-0.5,0.1-1,0.3-1.4,0.6c-0.7,0.3-1.3,0.7-1.9,1.1c-0.4,0.3-0.7,0.5-0.9,0.7C86.1,176.8,85.7,177.1,85.3,177.5
			C85.4,177.5,85.4,177.5,85.3,177.5C85.3,177.5,85.3,177.5,85.3,177.5L85.3,177.5z"/>
		<path class="st3" d="M93.4,186.6l2.2-2.9c0,0,0,0,0.1,0c0,0,0.1,0,0.1,0l0,0c0.3,0.3,0.6,0.6,0.8,1c0.4,0.7,0.4,1.3,0.5,2.1
			c0.1,0.6,0.1,1.1,0,1.7c0,1.1-0.2,2.1-0.5,3.1c-0.3,1.1-0.8,2.1-1.5,3.1c-0.7,1.1-1.7,2-2.7,2.7c-0.9,0.6-1.8,1-2.9,1.3
			c-0.4,0.1-0.7,0.2-1.1,0.2l-0.5,0.1c0,0-0.1,0-0.1,0c0,0,0,0,0-0.1c0,0,0-0.1,0-0.1c0,0,0,0,0.1-0.1c0.4-0.1,0.8-0.3,1.2-0.5
			c0.5-0.2,0.9-0.4,1.2-0.7l0,0c0.9-0.6,1.6-1.4,2.2-2.2v0c0.6-0.8,1.1-1.7,1.2-2.7v0c0.1-0.5,0.2-1,0.3-1.5c0-0.6,0.1-1.1,0.1-1.5
			c0-0.4,0-0.7-0.1-1.1c0-0.2-0.1-0.5-0.1-0.7c-0.1-0.2-0.1-0.4-0.2-0.6C93.6,187,93.5,186.8,93.4,186.6z"/>
		<path class="st3" d="M87.4,182.9c-0.3,0-0.5,0-0.8,0.1c-0.2,0.1-0.4,0.3-0.6,0.5c-0.1,0.2-0.2,0.5-0.1,0.8c0,0.3,0.2,0.5,0.4,0.7
			c0.2,0.2,0.4,0.3,0.7,0.4c0.3,0,0.5,0,0.8-0.1c0.2-0.1,0.4-0.3,0.5-0.6c0.1-0.2,0.2-0.5,0.1-0.8c0-0.3-0.2-0.5-0.3-0.7
			S87.6,182.9,87.4,182.9L87.4,182.9z"/>
	</g>
</g>
<g>
	
		<linearGradient id="SVGID_28_" gradientUnits="userSpaceOnUse" x1="211.5" y1="215.3812" x2="211.5" y2="152.8812" gradientTransform="matrix(1 0 0 -1 0 215.4646)">
		<stop  offset="0" style="stop-color:#0CCA98"/>
		<stop  offset="1" style="stop-color:#00FFCC"/>
	</linearGradient>
	<path class="st20" d="M196.5,0.1h30c5.5,0,10,4.5,10,10v42.5c0,5.5-4.5,10-10,10h-30c-5.5,0-10-4.5-10-10V10.1
		C186.5,4.6,191,0.1,196.5,0.1z"/>
	<path class="st1" d="M196.5,1.1h30c5,0,9,4,9,9v42.5c0,5-4,9-9,9h-30c-5,0-9-4-9-9V10.1C187.5,5.1,191.5,1.1,196.5,1.1z"/>
</g>
<g>
	<defs>
		<rect id="SVGID_29_" x="197.2" y="17.9" width="26.3" height="26.8"/>
	</defs>
	<clipPath id="SVGID_30_">
		<use xlink:href="#SVGID_29_"  style="overflow:visible;"/>
	</clipPath>
	<g class="st21">
		<path class="st3" d="M201.9,27.4l2.2,2c0,0,0,0,0.1,0c0,0,0.1,0,0.1,0c0.5-0.4,1-0.7,1.6-1c2.5-1.2,4.9-0.9,5.7-0.8
			c0.8,0.1,1.6,0.3,2.4,0.6c0,0,0.1,0,0.1,0c0,0,0,0,0.1,0l1.7-2.7c0,0,0-0.1,0-0.1c0,0,0-0.1-0.1-0.1l0,0c-1.2-0.5-2.4-0.8-3.6-1
			c-1-0.1-4.4-0.6-7.9,1.3c-0.9,0.5-1.6,1-2.4,1.7c0,0,0,0,0,0C201.9,27.3,201.9,27.3,201.9,27.4C201.9,27.3,201.9,27.3,201.9,27.4
			C201.9,27.4,201.9,27.4,201.9,27.4L201.9,27.4z"/>
		<path class="st3" d="M219.6,22.8l-3.3,0.5c0,0-0.1,0-0.1,0s0,0.1,0,0.1c0.1,0.6,0.1,1.3,0.1,1.9c0,0.3,0,1.8-0.4,3
			c-0.6,2.2-2.4,3.6-3.3,4.2c0,0,0,0,0,0.1c0,0,0,0.1,0,0.1c0.6,0.9,1.2,1.8,1.9,2.6c0,0,0,0,0.1,0c0,0,0.1,0,0.1,0
			c1.9-1.3,3.4-3.2,4.3-5.3c1.3-3.1,0.9-5.9,0.7-7.1C219.7,22.9,219.7,22.8,219.6,22.8C219.6,22.8,219.6,22.8,219.6,22.8L219.6,22.8
			z"/>
		<path class="st3" d="M213.9,39.6l1.2-3.3c0,0,0,0,0,0c0,0,0,0,0,0c0,0,0,0,0,0c0,0,0,0,0,0l0,0c-1.1-0.4-2.1-1-3-1.8
			c-0.7-0.6-1.3-1.3-1.8-2.1c-0.3-0.5-0.6-1-0.7-1.6c0-0.1-0.1-0.3-0.2-0.8c0-0.2-0.1-0.5-0.1-0.6c0,0,0-0.1,0-0.1c0,0,0,0-0.1,0
			l-3.5,0c0,0-0.1,0-0.1,0c0,0,0,0,0,0.1c0,0.4,0,0.8,0.1,1.2c0.1,0.5,0.2,1,0.4,1.5c0.6,1.3,1.3,2.6,2.2,3.7
			c0.8,0.9,1.7,1.8,2.7,2.5c0.9,0.6,1.8,1.2,2.7,1.7C213.8,39.6,213.8,39.6,213.9,39.6C213.8,39.6,213.8,39.6,213.9,39.6
			C213.9,39.6,213.9,39.6,213.9,39.6C213.9,39.6,213.9,39.6,213.9,39.6L213.9,39.6z"/>
		<path class="st3" d="M206.3,33.6l1.5,3c0,0,0,0.1,0,0.1c0,0,0,0.1-0.1,0.1c0,0,0,0-0.1,0c-1.3,0-2.5-0.3-3.7-0.7
			c-1.8-0.7-3.4-1.8-4.7-3.3c-0.9-1.2-1.5-2.6-1.8-4.1v0c-0.3-1.3-0.4-2.7-0.1-4c0.1-0.4,0.2-0.8,0.3-1.2c0-0.1,0.1-0.3,0.2-0.4
			c0,0,0,0,0,0c0,0,0,0,0,0c0,0,0,0,0.1,0c0,0,0,0,0.1,0c0,0,0,0,0.1,0.1c0,0,0,0.1,0,0.1c-0.1,1,0,2,0.1,3c0.1,0.7,0.3,1.3,0.5,1.9
			c0,0,0,0,0,0c0.6,1.3,1.5,2.4,2.6,3.2c0.7,0.6,1.5,1,2.3,1.4C204.5,33.1,205.3,33.4,206.3,33.6C206.2,33.5,206.2,33.5,206.3,33.6
			C206.3,33.6,206.3,33.6,206.3,33.6L206.3,33.6z"/>
		<path class="st3" d="M210.3,23.3h-3.8c0,0,0,0,0,0c0,0,0,0,0,0c0,0,0,0,0,0c0,0,0,0,0,0c0,0,0,0,0,0c0.1-0.3,0.2-0.5,0.4-0.8
			c0.6-1,1.3-1.5,2.1-2.1c1.1-0.8,2.3-1.4,3.5-1.8c1.3-0.5,2.7-0.6,4.1-0.5c0.8,0,1.5,0.2,2.3,0.4c0.6,0.2,1.1,0.4,1.6,0.6
			c0.5,0.2,1,0.5,1.5,0.9c0.3,0.2,0.6,0.5,0.9,0.7c0.3,0.2,0.5,0.5,0.7,0.7c0,0,0,0.1,0,0.1c0,0,0,0.1,0,0.1c0,0-0.1,0-0.1,0
			c0,0-0.1,0-0.1,0c-0.4-0.3-0.8-0.5-1.2-0.7c-0.6-0.4-1.3-0.6-2-0.8c-0.7-0.2-1.4-0.3-2.1-0.3c-0.8,0-1.6,0.1-2.4,0.3
			c-0.5,0.1-1,0.3-1.4,0.6c-0.7,0.3-1.3,0.7-1.9,1.1c-0.4,0.3-0.7,0.5-0.9,0.7C211.1,22.7,210.7,23,210.3,23.3
			C210.4,23.3,210.4,23.3,210.3,23.3C210.3,23.3,210.3,23.3,210.3,23.3L210.3,23.3z"/>
		<path class="st3" d="M218.4,32.5l2.2-2.9c0,0,0,0,0.1,0c0,0,0.1,0,0.1,0l0,0c0.3,0.3,0.6,0.6,0.8,1c0.4,0.7,0.4,1.3,0.5,2.1
			c0.1,0.6,0.1,1.1,0,1.7c0,1.1-0.1,2.1-0.5,3.1c-0.3,1.1-0.8,2.1-1.5,3.1c-0.7,1.1-1.7,2-2.7,2.7c-0.9,0.6-1.8,1-2.9,1.3
			c-0.4,0.1-0.7,0.2-1.1,0.2l-0.5,0.1c0,0-0.1,0-0.1,0c0,0,0,0,0-0.1c0,0,0-0.1,0-0.1c0,0,0,0,0.1-0.1c0.4-0.1,0.8-0.3,1.2-0.5
			c0.5-0.2,0.9-0.4,1.2-0.7l0,0c0.9-0.6,1.6-1.4,2.2-2.2v0c0.6-0.8,1.1-1.7,1.2-2.7v0c0.1-0.5,0.2-1,0.3-1.5c0-0.6,0.1-1.1,0.1-1.5
			c0-0.4,0-0.7-0.1-1.1c0-0.2-0.1-0.5-0.1-0.7c-0.1-0.2-0.1-0.4-0.2-0.6C218.6,32.9,218.5,32.6,218.4,32.5z"/>
		<path class="st3" d="M212.4,28.7c-0.3,0-0.5,0-0.8,0.1s-0.4,0.3-0.6,0.5c-0.1,0.2-0.2,0.5-0.1,0.8c0,0.3,0.2,0.5,0.4,0.7
			s0.4,0.3,0.7,0.4c0.3,0,0.5,0,0.8-0.1c0.2-0.1,0.4-0.3,0.5-0.6c0.1-0.2,0.2-0.5,0.1-0.8c0-0.3-0.2-0.5-0.3-0.7
			C212.8,28.9,212.6,28.7,212.4,28.7L212.4,28.7z"/>
	</g>
</g>
<g>
	
		<linearGradient id="SVGID_31_" gradientUnits="userSpaceOnUse" x1="211.5" y1="138.2976" x2="211.5" y2="75.7976" gradientTransform="matrix(1 0 0 -1 0 215.4646)">
		<stop  offset="0" style="stop-color:#0CCA98"/>
		<stop  offset="1" style="stop-color:#00FFCC"/>
	</linearGradient>
	<path class="st22" d="M196.5,77.2h30c5.5,0,10,4.5,10,10v42.5c0,5.5-4.5,10-10,10h-30c-5.5,0-10-4.5-10-10V87.2
		C186.5,81.6,191,77.2,196.5,77.2z"/>
	<path class="st1" d="M196.5,78.2h30c5,0,9,4,9,9v42.5c0,5-4,9-9,9h-30c-5,0-9-4-9-9V87.2C187.5,82.2,191.5,78.2,196.5,78.2z"/>
</g>
<g>
	<defs>
		<rect id="SVGID_32_" x="197.2" y="95" width="26.3" height="26.8"/>
	</defs>
	<clipPath id="SVGID_33_">
		<use xlink:href="#SVGID_32_"  style="overflow:visible;"/>
	</clipPath>
	<g class="st23">
		<path class="st3" d="M201.9,104.5l2.2,2c0,0,0,0,0.1,0c0,0,0.1,0,0.1,0c0.5-0.4,1-0.7,1.6-1c2.5-1.2,4.9-0.9,5.7-0.8
			c0.8,0.1,1.6,0.3,2.4,0.6c0,0,0.1,0,0.1,0c0,0,0,0,0.1,0l1.7-2.7c0,0,0-0.1,0-0.1c0,0,0-0.1-0.1-0.1l0,0c-1.2-0.5-2.4-0.8-3.6-1
			c-1-0.1-4.4-0.6-7.9,1.3c-0.9,0.5-1.6,1-2.4,1.7c0,0,0,0,0,0C201.9,104.4,201.9,104.4,201.9,104.5
			C201.9,104.4,201.9,104.4,201.9,104.5C201.9,104.5,201.9,104.5,201.9,104.5L201.9,104.5z"/>
		<path class="st3" d="M219.6,99.9l-3.3,0.5c0,0-0.1,0-0.1,0c0,0,0,0.1,0,0.1c0.1,0.6,0.1,1.3,0.1,1.9c0,0.3,0,1.8-0.4,3
			c-0.6,2.2-2.4,3.6-3.3,4.2c0,0,0,0,0,0.1c0,0,0,0.1,0,0.1c0.6,0.9,1.2,1.8,1.9,2.6c0,0,0,0,0.1,0c0,0,0.1,0,0.1,0
			c1.9-1.3,3.4-3.2,4.3-5.3c1.3-3.1,0.9-5.9,0.7-7.1C219.7,99.9,219.7,99.9,219.6,99.9C219.6,99.9,219.6,99.9,219.6,99.9L219.6,99.9
			z"/>
		<path class="st3" d="M213.9,116.6l1.2-3.3c0,0,0,0,0,0c0,0,0,0,0,0c0,0,0,0,0,0c0,0,0,0,0,0l0,0c-1.1-0.4-2.1-1-3-1.8
			c-0.7-0.6-1.3-1.3-1.8-2.1c-0.3-0.5-0.6-1-0.7-1.6c0-0.1-0.1-0.3-0.2-0.8c0-0.2-0.1-0.5-0.1-0.6c0,0,0-0.1,0-0.1c0,0,0,0-0.1,0
			l-3.5,0c0,0-0.1,0-0.1,0s0,0,0,0.1c0,0.4,0,0.8,0.1,1.2c0.1,0.5,0.2,1,0.4,1.5c0.6,1.3,1.3,2.6,2.2,3.7c0.8,0.9,1.7,1.8,2.7,2.5
			c0.9,0.6,1.8,1.2,2.7,1.7C213.8,116.7,213.8,116.7,213.9,116.6C213.8,116.7,213.8,116.7,213.9,116.6
			C213.9,116.7,213.9,116.7,213.9,116.6C213.9,116.7,213.9,116.7,213.9,116.6L213.9,116.6z"/>
		<path class="st3" d="M206.3,110.7l1.5,3c0,0,0,0.1,0,0.1c0,0,0,0.1-0.1,0.1c0,0,0,0-0.1,0c-1.3,0-2.5-0.3-3.7-0.7
			c-1.8-0.7-3.4-1.8-4.7-3.3c-0.9-1.2-1.5-2.6-1.8-4.1v0c-0.3-1.3-0.4-2.7-0.1-4c0.1-0.4,0.2-0.8,0.3-1.2c0-0.1,0.1-0.3,0.2-0.4
			c0,0,0,0,0,0c0,0,0,0,0,0c0,0,0,0,0.1,0c0,0,0,0,0.1,0c0,0,0,0,0.1,0.1c0,0,0,0.1,0,0.1c-0.1,1,0,2,0.1,3c0.1,0.7,0.3,1.3,0.5,1.9
			c0,0,0,0,0,0c0.6,1.3,1.5,2.4,2.6,3.2c0.7,0.6,1.5,1,2.3,1.4C204.5,110.2,205.3,110.5,206.3,110.7
			C206.2,110.6,206.2,110.6,206.3,110.7C206.3,110.6,206.3,110.7,206.3,110.7L206.3,110.7z"/>
		<path class="st3" d="M210.3,100.4h-3.8c0,0,0,0,0,0c0,0,0,0,0,0c0,0,0,0,0,0c0,0,0,0,0,0c0,0,0,0,0,0c0.1-0.3,0.2-0.5,0.4-0.8
			c0.6-1,1.3-1.5,2.1-2.1c1.1-0.8,2.3-1.4,3.5-1.8c1.3-0.5,2.7-0.6,4.1-0.5c0.8,0,1.5,0.2,2.3,0.4c0.6,0.2,1.1,0.4,1.6,0.6
			c0.5,0.2,1,0.5,1.5,0.9c0.3,0.2,0.6,0.5,0.9,0.7c0.3,0.2,0.5,0.5,0.7,0.7c0,0,0,0.1,0,0.1c0,0,0,0.1,0,0.1c0,0-0.1,0-0.1,0
			c0,0-0.1,0-0.1,0c-0.4-0.3-0.8-0.5-1.2-0.7c-0.6-0.4-1.3-0.6-2-0.8c-0.7-0.2-1.4-0.3-2.1-0.3c-0.8,0-1.6,0.1-2.4,0.3
			c-0.5,0.1-1,0.3-1.4,0.6c-0.7,0.3-1.3,0.7-1.9,1.1c-0.4,0.3-0.7,0.5-0.9,0.7C211.1,99.7,210.7,100.1,210.3,100.4
			C210.4,100.4,210.4,100.4,210.3,100.4C210.3,100.4,210.3,100.4,210.3,100.4L210.3,100.4z"/>
		<path class="st3" d="M218.4,109.5l2.2-2.9c0,0,0,0,0.1,0s0.1,0,0.1,0l0,0c0.3,0.3,0.6,0.6,0.8,1c0.4,0.7,0.4,1.3,0.5,2.1
			c0.1,0.6,0.1,1.1,0,1.7c0,1.1-0.1,2.1-0.5,3.1c-0.3,1.1-0.8,2.1-1.5,3.1c-0.7,1.1-1.7,2-2.7,2.7c-0.9,0.6-1.8,1-2.9,1.3
			c-0.4,0.1-0.7,0.2-1.1,0.2l-0.5,0.1c0,0-0.1,0-0.1,0c0,0,0,0,0-0.1c0,0,0-0.1,0-0.1c0,0,0,0,0.1-0.1c0.4-0.1,0.8-0.3,1.2-0.5
			c0.5-0.2,0.9-0.4,1.2-0.7l0,0c0.9-0.6,1.6-1.4,2.2-2.2v0c0.6-0.8,1.1-1.7,1.2-2.7v0c0.1-0.5,0.2-1,0.3-1.5c0-0.6,0.1-1.1,0.1-1.5
			c0-0.4,0-0.7-0.1-1.1c0-0.2-0.1-0.5-0.1-0.7c-0.1-0.2-0.1-0.4-0.2-0.6C218.6,109.9,218.5,109.7,218.4,109.5z"/>
		<path class="st3" d="M212.4,105.8c-0.3,0-0.5,0-0.8,0.1c-0.2,0.1-0.4,0.3-0.6,0.5c-0.1,0.2-0.2,0.5-0.1,0.8c0,0.3,0.2,0.5,0.4,0.7
			c0.2,0.2,0.4,0.3,0.7,0.4c0.3,0,0.5,0,0.8-0.1c0.2-0.1,0.4-0.3,0.5-0.6c0.1-0.2,0.2-0.5,0.1-0.8c0-0.3-0.2-0.5-0.3-0.7
			C212.8,105.9,212.6,105.8,212.4,105.8L212.4,105.8z"/>
	</g>
</g>
<g>
	
		<linearGradient id="SVGID_34_" gradientUnits="userSpaceOnUse" x1="211.5" y1="61.2146" x2="211.5" y2="-1.2854" gradientTransform="matrix(1 0 0 -1 0 215.4646)">
		<stop  offset="0" style="stop-color:#0CCA98"/>
		<stop  offset="1" style="stop-color:#00FFCC"/>
	</linearGradient>
	<path class="st24" d="M196.5,154.3h30c5.5,0,10,4.5,10,10v42.5c0,5.5-4.5,10-10,10h-30c-5.5,0-10-4.5-10-10v-42.5
		C186.5,158.7,191,154.3,196.5,154.3z"/>
	<path class="st1" d="M196.5,155.3h30c5,0,9,4,9,9v42.5c0,5-4,9-9,9h-30c-5,0-9-4-9-9v-42.5C187.5,159.3,191.5,155.3,196.5,155.3z"
		/>
</g>
<g>
	<defs>
		<rect id="SVGID_35_" x="197.2" y="172.1" width="26.3" height="26.8"/>
	</defs>
	<clipPath id="SVGID_36_">
		<use xlink:href="#SVGID_35_"  style="overflow:visible;"/>
	</clipPath>
	<g class="st25">
		<path class="st3" d="M201.9,181.6l2.2,2c0,0,0,0,0.1,0c0,0,0.1,0,0.1,0c0.5-0.4,1-0.7,1.6-1c2.5-1.2,4.9-0.9,5.7-0.8
			c0.8,0.1,1.6,0.3,2.4,0.6c0,0,0.1,0,0.1,0c0,0,0,0,0.1,0l1.7-2.7c0,0,0-0.1,0-0.1c0,0,0-0.1-0.1-0.1l0,0c-1.2-0.5-2.4-0.8-3.6-1
			c-1-0.1-4.4-0.6-7.9,1.3c-0.9,0.5-1.6,1-2.4,1.7c0,0,0,0,0,0C201.9,181.4,201.9,181.5,201.9,181.6
			C201.9,181.5,201.9,181.5,201.9,181.6C201.9,181.5,201.9,181.5,201.9,181.6L201.9,181.6z"/>
		<path class="st3" d="M219.6,177l-3.3,0.5c0,0-0.1,0-0.1,0c0,0,0,0.1,0,0.1c0.1,0.6,0.1,1.3,0.1,1.9c0,0.3,0,1.8-0.4,3
			c-0.6,2.2-2.4,3.6-3.3,4.2c0,0,0,0,0,0.1c0,0,0,0.1,0,0.1c0.6,0.9,1.2,1.8,1.9,2.6c0,0,0,0,0.1,0c0,0,0.1,0,0.1,0
			c1.9-1.3,3.4-3.2,4.3-5.3c1.3-3.1,0.9-5.9,0.7-7.1C219.7,177,219.7,177,219.6,177C219.6,177,219.6,177,219.6,177L219.6,177z"/>
		<path class="st3" d="M213.9,193.7l1.2-3.3c0,0,0,0,0,0c0,0,0,0,0,0c0,0,0,0,0,0c0,0,0,0,0,0l0,0c-1.1-0.4-2.1-1-3-1.8
			c-0.7-0.6-1.3-1.3-1.8-2.1c-0.3-0.5-0.6-1-0.7-1.6c0-0.1-0.1-0.3-0.2-0.8c0-0.2-0.1-0.5-0.1-0.6c0,0,0-0.1,0-0.1c0,0,0,0-0.1,0
			l-3.5,0c0,0-0.1,0-0.1,0c0,0,0,0,0,0.1c0,0.4,0,0.8,0.1,1.2c0.1,0.5,0.2,1,0.4,1.5c0.6,1.3,1.3,2.6,2.2,3.7
			c0.8,0.9,1.7,1.8,2.7,2.5c0.9,0.6,1.8,1.2,2.7,1.7C213.8,193.8,213.8,193.8,213.9,193.7C213.8,193.8,213.8,193.8,213.9,193.7
			C213.9,193.8,213.9,193.8,213.9,193.7C213.9,193.8,213.9,193.7,213.9,193.7L213.9,193.7z"/>
		<path class="st3" d="M206.3,187.8l1.5,3c0,0,0,0.1,0,0.1c0,0,0,0.1-0.1,0.1c0,0,0,0-0.1,0c-1.3,0-2.5-0.3-3.7-0.7
			c-1.8-0.7-3.4-1.8-4.7-3.3c-0.9-1.2-1.5-2.6-1.8-4.1v0c-0.3-1.3-0.4-2.7-0.1-4c0.1-0.4,0.2-0.8,0.3-1.2c0-0.1,0.1-0.3,0.2-0.4
			c0,0,0,0,0,0c0,0,0,0,0,0c0,0,0,0,0.1,0c0,0,0,0,0.1,0c0,0,0,0,0.1,0.1c0,0,0,0.1,0,0.1c-0.1,1,0,2,0.1,3c0.1,0.7,0.3,1.3,0.5,1.9
			c0,0,0,0,0,0c0.6,1.3,1.5,2.4,2.6,3.2c0.7,0.6,1.5,1,2.3,1.4C204.5,187.3,205.3,187.5,206.3,187.8
			C206.2,187.7,206.2,187.7,206.3,187.8C206.3,187.7,206.3,187.8,206.3,187.8L206.3,187.8z"/>
		<path class="st3" d="M210.3,177.5h-3.8c0,0,0,0,0,0c0,0,0,0,0,0c0,0,0,0,0,0c0,0,0,0,0,0c0,0,0,0,0,0c0.1-0.3,0.2-0.5,0.4-0.8
			c0.6-1,1.3-1.5,2.1-2.1c1.1-0.8,2.3-1.4,3.5-1.8c1.3-0.5,2.7-0.6,4.1-0.5c0.8,0,1.5,0.2,2.3,0.4c0.6,0.2,1.1,0.4,1.6,0.6
			c0.5,0.2,1,0.5,1.5,0.9c0.3,0.2,0.6,0.5,0.9,0.7c0.3,0.2,0.5,0.5,0.7,0.7c0,0,0,0.1,0,0.1c0,0,0,0.1,0,0.1c0,0-0.1,0-0.1,0
			c0,0-0.1,0-0.1,0c-0.4-0.3-0.8-0.5-1.2-0.7c-0.6-0.4-1.3-0.6-2-0.8c-0.7-0.2-1.4-0.3-2.1-0.3c-0.8,0-1.6,0.1-2.4,0.3
			c-0.5,0.1-1,0.3-1.4,0.6c-0.7,0.3-1.3,0.7-1.9,1.1c-0.4,0.3-0.7,0.5-0.9,0.7C211.1,176.8,210.7,177.1,210.3,177.5
			C210.4,177.5,210.4,177.5,210.3,177.5C210.3,177.5,210.3,177.5,210.3,177.5L210.3,177.5z"/>
		<path class="st3" d="M218.4,186.6l2.2-2.9c0,0,0,0,0.1,0c0,0,0.1,0,0.1,0l0,0c0.3,0.3,0.6,0.6,0.8,1c0.4,0.7,0.4,1.3,0.5,2.1
			c0.1,0.6,0.1,1.1,0,1.7c0,1.1-0.1,2.1-0.5,3.1c-0.3,1.1-0.8,2.1-1.5,3.1c-0.7,1.1-1.7,2-2.7,2.7c-0.9,0.6-1.8,1-2.9,1.3
			c-0.4,0.1-0.7,0.2-1.1,0.2l-0.5,0.1c0,0-0.1,0-0.1,0c0,0,0,0,0-0.1c0,0,0-0.1,0-0.1c0,0,0,0,0.1-0.1c0.4-0.1,0.8-0.3,1.2-0.5
			c0.5-0.2,0.9-0.4,1.2-0.7l0,0c0.9-0.6,1.6-1.4,2.2-2.2v0c0.6-0.8,1.1-1.7,1.2-2.7v0c0.1-0.5,0.2-1,0.3-1.5c0-0.6,0.1-1.1,0.1-1.5
			c0-0.4,0-0.7-0.1-1.1c0-0.2-0.1-0.5-0.1-0.7c-0.1-0.2-0.1-0.4-0.2-0.6C218.6,187,218.5,186.8,218.4,186.6z"/>
		<path class="st3" d="M212.4,182.9c-0.3,0-0.5,0-0.8,0.1c-0.2,0.1-0.4,0.3-0.6,0.5c-0.1,0.2-0.2,0.5-0.1,0.8c0,0.3,0.2,0.5,0.4,0.7
			c0.2,0.2,0.4,0.3,0.7,0.4c0.3,0,0.5,0,0.8-0.1c0.2-0.1,0.4-0.3,0.5-0.6c0.1-0.2,0.2-0.5,0.1-0.8c0-0.3-0.2-0.5-0.3-0.7
			C212.8,183,212.6,182.9,212.4,182.9L212.4,182.9z"/>
	</g>
</g>
<g>
	
		<linearGradient id="SVGID_37_" gradientUnits="userSpaceOnUse" x1="274" y1="215.4646" x2="274" y2="152.9646" gradientTransform="matrix(1 0 0 -1 0 215.4646)">
		<stop  offset="0" style="stop-color:#0CCA98"/>
		<stop  offset="1" style="stop-color:#00FFCC"/>
	</linearGradient>
	<path class="st26" d="M259,0h30c5.5,0,10,4.5,10,10v42.5c0,5.5-4.5,10-10,10h-30c-5.5,0-10-4.5-10-10V10C249,4.5,253.5,0,259,0z"/>
	<path class="st1" d="M259,1h30c5,0,9,4,9,9v42.5c0,5-4,9-9,9h-30c-5,0-9-4-9-9V10C250,5,254,1,259,1z"/>
</g>
<g>
	<defs>
		<rect id="SVGID_38_" x="259.7" y="17.9" width="26.3" height="26.8"/>
	</defs>
	<clipPath id="SVGID_39_">
		<use xlink:href="#SVGID_38_"  style="overflow:visible;"/>
	</clipPath>
	<g class="st27">
		<path class="st3" d="M264.4,27.3l2.2,2c0,0,0,0,0.1,0c0,0,0.1,0,0.1,0c0.5-0.4,1-0.7,1.6-1c2.5-1.2,4.9-0.9,5.7-0.8
			c0.8,0.1,1.6,0.3,2.4,0.6c0,0,0.1,0,0.1,0c0,0,0,0,0.1,0l1.7-2.7c0,0,0-0.1,0-0.1c0,0,0-0.1-0.1-0.1l0,0c-1.2-0.5-2.4-0.8-3.6-1
			c-1-0.1-4.4-0.6-7.9,1.3c-0.9,0.5-1.7,1-2.4,1.7c0,0,0,0,0,0C264.4,27.2,264.4,27.2,264.4,27.3C264.4,27.2,264.4,27.3,264.4,27.3
			C264.4,27.3,264.4,27.3,264.4,27.3L264.4,27.3z"/>
		<path class="st3" d="M282.1,22.7l-3.3,0.5c0,0-0.1,0-0.1,0c0,0,0,0.1,0,0.1c0.1,0.6,0.1,1.3,0.1,1.9c0,0.3,0,1.8-0.4,3
			c-0.6,2.2-2.4,3.6-3.3,4.2c0,0,0,0,0,0.1c0,0,0,0.1,0,0.1c0.6,0.9,1.2,1.8,1.9,2.6c0,0,0,0,0.1,0c0,0,0.1,0,0.1,0
			c1.9-1.3,3.4-3.2,4.3-5.3c1.3-3.1,0.9-5.9,0.7-7.1C282.2,22.8,282.2,22.8,282.1,22.7C282.1,22.7,282.1,22.7,282.1,22.7L282.1,22.7
			z"/>
		<path class="st3" d="M276.4,39.5l1.2-3.3c0,0,0,0,0,0c0,0,0,0,0,0c0,0,0,0,0,0c0,0,0,0,0,0l0,0c-1.1-0.4-2.1-1-3-1.8
			c-0.7-0.6-1.3-1.3-1.8-2.1c-0.3-0.5-0.6-1-0.7-1.6c0-0.1-0.1-0.3-0.2-0.8c0-0.2-0.1-0.5-0.1-0.6c0,0,0-0.1,0-0.1c0,0,0,0-0.1,0
			l-3.5,0c0,0-0.1,0-0.1,0c0,0,0,0,0,0.1c0,0.4,0,0.8,0.1,1.2c0.1,0.5,0.2,1,0.4,1.5c0.6,1.3,1.3,2.6,2.2,3.7
			c0.8,0.9,1.7,1.8,2.7,2.5c0.9,0.6,1.8,1.2,2.7,1.7C276.3,39.5,276.3,39.5,276.4,39.5C276.3,39.5,276.3,39.5,276.4,39.5
			C276.4,39.5,276.4,39.5,276.4,39.5C276.4,39.5,276.4,39.5,276.4,39.5L276.4,39.5z"/>
		<path class="st3" d="M268.8,33.5l1.5,3c0,0,0,0.1,0,0.1c0,0,0,0.1-0.1,0.1c0,0,0,0-0.1,0c-1.3,0-2.5-0.3-3.7-0.7
			c-1.8-0.7-3.4-1.8-4.7-3.3c-0.9-1.2-1.5-2.6-1.8-4.1v0c-0.3-1.3-0.4-2.7-0.1-4c0.1-0.4,0.2-0.8,0.3-1.2c0-0.1,0.1-0.3,0.2-0.4
			c0,0,0,0,0,0c0,0,0,0,0,0c0,0,0,0,0.1,0c0,0,0,0,0.1,0c0,0,0,0,0.1,0.1c0,0,0,0.1,0,0.1c-0.1,1,0,2,0.1,3c0.1,0.7,0.3,1.3,0.5,1.9
			c0,0,0,0,0,0c0.6,1.3,1.5,2.4,2.6,3.2c0.7,0.6,1.5,1,2.3,1.4C267,33,267.8,33.3,268.8,33.5C268.7,33.4,268.7,33.5,268.8,33.5
			C268.8,33.5,268.8,33.5,268.8,33.5L268.8,33.5z"/>
		<path class="st3" d="M272.8,23.3H269c0,0,0,0,0,0c0,0,0,0,0,0c0,0,0,0,0,0c0,0,0,0,0,0c0,0,0,0,0,0c0.1-0.3,0.2-0.5,0.4-0.8
			c0.6-1,1.3-1.5,2.1-2.1c1.1-0.8,2.3-1.4,3.5-1.8c1.3-0.5,2.7-0.6,4.1-0.5c0.8,0,1.5,0.2,2.3,0.4c0.6,0.2,1.1,0.4,1.6,0.6
			c0.5,0.2,1,0.5,1.5,0.9c0.3,0.2,0.6,0.5,0.9,0.7c0.3,0.2,0.5,0.5,0.7,0.7c0,0,0,0.1,0,0.1c0,0,0,0.1,0,0.1c0,0-0.1,0-0.1,0
			c0,0-0.1,0-0.1,0c-0.4-0.3-0.8-0.5-1.2-0.7c-0.6-0.4-1.3-0.6-2-0.8c-0.7-0.2-1.4-0.3-2.1-0.3c-0.8,0-1.6,0.1-2.4,0.3
			c-0.5,0.1-1,0.3-1.4,0.6c-0.7,0.3-1.3,0.7-1.9,1.1c-0.4,0.3-0.7,0.5-0.9,0.7C273.6,22.6,273.2,22.9,272.8,23.3
			C272.9,23.2,272.9,23.3,272.8,23.3C272.8,23.3,272.8,23.3,272.8,23.3L272.8,23.3z"/>
		<path class="st3" d="M280.9,32.4l2.2-2.9c0,0,0,0,0.1,0c0,0,0.1,0,0.1,0l0,0c0.3,0.3,0.6,0.6,0.8,1c0.4,0.7,0.4,1.3,0.5,2.1
			c0.1,0.6,0.1,1.1,0,1.7c0,1.1-0.1,2.1-0.5,3.1c-0.3,1.1-0.8,2.1-1.5,3.1c-0.7,1.1-1.7,2-2.7,2.7c-0.9,0.6-1.8,1-2.9,1.3
			c-0.4,0.1-0.7,0.2-1.1,0.2l-0.5,0.1c0,0-0.1,0-0.1,0c0,0,0,0,0-0.1c0,0,0-0.1,0-0.1c0,0,0,0,0.1-0.1c0.4-0.1,0.8-0.3,1.2-0.5
			c0.5-0.2,0.9-0.4,1.2-0.7l0,0c0.9-0.6,1.6-1.4,2.2-2.2v0c0.6-0.8,1.1-1.7,1.2-2.7v0c0.1-0.5,0.2-1,0.3-1.5c0-0.6,0.1-1.1,0.1-1.5
			c0-0.4,0-0.7-0.1-1.1c0-0.2-0.1-0.5-0.1-0.7c-0.1-0.2-0.1-0.4-0.2-0.6C281.1,32.8,281,32.6,280.9,32.4z"/>
		<path class="st3" d="M274.9,28.6c-0.3,0-0.5,0-0.8,0.1s-0.4,0.3-0.6,0.5c-0.1,0.2-0.2,0.5-0.1,0.8c0,0.3,0.2,0.5,0.4,0.7
			c0.2,0.2,0.4,0.3,0.7,0.4c0.3,0,0.5,0,0.8-0.1c0.2-0.1,0.4-0.3,0.5-0.6c0.1-0.2,0.2-0.5,0.1-0.8c0-0.3-0.2-0.5-0.3-0.7
			C275.3,28.8,275.1,28.6,274.9,28.6L274.9,28.6z"/>
	</g>
</g>
<g>
	
		<linearGradient id="SVGID_40_" gradientUnits="userSpaceOnUse" x1="274" y1="138.3816" x2="274" y2="75.8816" gradientTransform="matrix(1 0 0 -1 0 215.4646)">
		<stop  offset="0" style="stop-color:#0CCA98"/>
		<stop  offset="1" style="stop-color:#00FFCC"/>
	</linearGradient>
	<path class="st28" d="M259,77.1h30c5.5,0,10,4.5,10,10v42.5c0,5.5-4.5,10-10,10h-30c-5.5,0-10-4.5-10-10V87.1
		C249,81.6,253.5,77.1,259,77.1z"/>
	<path class="st1" d="M259,78.1h30c5,0,9,4,9,9v42.5c0,5-4,9-9,9h-30c-5,0-9-4-9-9V87.1C250,82.1,254,78.1,259,78.1z"/>
</g>
<g>
	<defs>
		<rect id="SVGID_41_" x="259.7" y="94.9" width="26.3" height="26.8"/>
	</defs>
	<clipPath id="SVGID_42_">
		<use xlink:href="#SVGID_41_"  style="overflow:visible;"/>
	</clipPath>
	<g class="st29">
		<path class="st3" d="M264.4,104.4l2.2,2c0,0,0,0,0.1,0c0,0,0.1,0,0.1,0c0.5-0.4,1-0.7,1.6-1c2.5-1.2,4.9-0.9,5.7-0.8
			c0.8,0.1,1.6,0.3,2.4,0.6c0,0,0.1,0,0.1,0c0,0,0,0,0.1,0l1.7-2.7c0,0,0-0.1,0-0.1c0,0,0-0.1-0.1-0.1l0,0c-1.2-0.5-2.4-0.8-3.6-1
			c-1-0.1-4.4-0.6-7.9,1.3c-0.9,0.5-1.7,1-2.4,1.7c0,0,0,0,0,0C264.4,104.3,264.4,104.3,264.4,104.4
			C264.4,104.3,264.4,104.3,264.4,104.4C264.4,104.4,264.4,104.4,264.4,104.4L264.4,104.4z"/>
		<path class="st3" d="M282.1,99.8l-3.3,0.5c0,0-0.1,0-0.1,0c0,0,0,0.1,0,0.1c0.1,0.6,0.1,1.3,0.1,1.9c0,0.3,0,1.8-0.4,3
			c-0.6,2.2-2.4,3.6-3.3,4.2c0,0,0,0,0,0.1c0,0,0,0.1,0,0.1c0.6,0.9,1.2,1.8,1.9,2.6c0,0,0,0,0.1,0c0,0,0.1,0,0.1,0
			c1.9-1.3,3.4-3.2,4.3-5.3c1.3-3.1,0.9-5.9,0.7-7.1C282.2,99.9,282.2,99.8,282.1,99.8C282.1,99.8,282.1,99.8,282.1,99.8L282.1,99.8
			z"/>
		<path class="st3" d="M276.4,116.6l1.2-3.3c0,0,0,0,0,0c0,0,0,0,0,0c0,0,0,0,0,0c0,0,0,0,0,0l0,0c-1.1-0.4-2.1-1-3-1.8
			c-0.7-0.6-1.3-1.3-1.8-2.1c-0.3-0.5-0.6-1-0.7-1.6c0-0.1-0.1-0.3-0.2-0.8c0-0.2-0.1-0.5-0.1-0.6c0,0,0-0.1,0-0.1c0,0,0,0-0.1,0
			l-3.5,0c0,0-0.1,0-0.1,0c0,0,0,0,0,0.1c0,0.4,0,0.8,0.1,1.2c0.1,0.5,0.2,1,0.4,1.5c0.6,1.3,1.3,2.6,2.2,3.7
			c0.8,0.9,1.7,1.8,2.7,2.5c0.9,0.6,1.8,1.2,2.7,1.7C276.3,116.6,276.3,116.6,276.4,116.6C276.3,116.6,276.3,116.6,276.4,116.6
			C276.4,116.6,276.4,116.6,276.4,116.6C276.4,116.6,276.4,116.6,276.4,116.6L276.4,116.6z"/>
		<path class="st3" d="M268.8,110.6l1.5,3c0,0,0,0.1,0,0.1c0,0,0,0.1-0.1,0.1c0,0,0,0-0.1,0c-1.3,0-2.5-0.3-3.7-0.7
			c-1.8-0.7-3.4-1.8-4.7-3.3c-0.9-1.2-1.5-2.6-1.8-4.1v0c-0.3-1.3-0.4-2.7-0.1-4c0.1-0.4,0.2-0.8,0.3-1.2c0-0.1,0.1-0.3,0.2-0.4
			c0,0,0,0,0,0c0,0,0,0,0,0c0,0,0,0,0.1,0c0,0,0,0,0.1,0c0,0,0,0,0.1,0.1c0,0,0,0.1,0,0.1c-0.1,1,0,2,0.1,3c0.1,0.7,0.3,1.3,0.5,1.9
			c0,0,0,0,0,0c0.6,1.3,1.5,2.4,2.6,3.2c0.7,0.6,1.5,1,2.3,1.4C267,110.1,267.8,110.4,268.8,110.6
			C268.7,110.5,268.7,110.5,268.8,110.6C268.8,110.6,268.8,110.6,268.8,110.6L268.8,110.6z"/>
		<path class="st3" d="M272.8,100.3H269c0,0,0,0,0,0c0,0,0,0,0,0c0,0,0,0,0,0c0,0,0,0,0,0s0,0,0,0c0.1-0.3,0.2-0.5,0.4-0.8
			c0.6-1,1.3-1.5,2.1-2.1c1.1-0.8,2.3-1.4,3.5-1.8c1.3-0.5,2.7-0.6,4.1-0.5c0.8,0,1.5,0.2,2.3,0.4c0.6,0.2,1.1,0.4,1.6,0.6
			c0.5,0.2,1,0.5,1.5,0.9c0.3,0.2,0.6,0.5,0.9,0.7c0.3,0.2,0.5,0.5,0.7,0.7c0,0,0,0.1,0,0.1c0,0,0,0.1,0,0.1c0,0-0.1,0-0.1,0
			c0,0-0.1,0-0.1,0c-0.4-0.3-0.8-0.5-1.2-0.7c-0.6-0.4-1.3-0.6-2-0.8c-0.7-0.2-1.4-0.3-2.1-0.3c-0.8,0-1.6,0.1-2.4,0.3
			c-0.5,0.1-1,0.3-1.4,0.6c-0.7,0.3-1.3,0.7-1.9,1.1c-0.4,0.3-0.7,0.5-0.9,0.7C273.6,99.7,273.2,100,272.8,100.3
			C272.9,100.3,272.9,100.3,272.8,100.3C272.8,100.3,272.8,100.3,272.8,100.3L272.8,100.3z"/>
		<path class="st3" d="M280.9,109.5l2.2-2.9c0,0,0,0,0.1,0c0,0,0.1,0,0.1,0l0,0c0.3,0.3,0.6,0.6,0.8,1c0.4,0.7,0.4,1.3,0.5,2.1
			c0.1,0.6,0.1,1.1,0,1.7c0,1.1-0.1,2.1-0.5,3.1c-0.3,1.1-0.8,2.1-1.5,3.1c-0.7,1.1-1.7,2-2.7,2.7c-0.9,0.6-1.8,1.1-2.9,1.3
			c-0.4,0.1-0.7,0.2-1.1,0.2l-0.5,0.1c0,0-0.1,0-0.1,0c0,0,0,0,0-0.1c0,0,0-0.1,0-0.1s0,0,0.1-0.1c0.4-0.1,0.8-0.3,1.2-0.5
			c0.5-0.2,0.9-0.4,1.2-0.7l0,0c0.9-0.6,1.6-1.4,2.2-2.2v0c0.6-0.8,1.1-1.7,1.2-2.7v0c0.1-0.5,0.2-1,0.3-1.5c0-0.6,0.1-1.1,0.1-1.5
			c0-0.4,0-0.7-0.1-1.1c0-0.2-0.1-0.5-0.1-0.7c-0.1-0.2-0.1-0.4-0.2-0.6C281.1,109.9,281,109.6,280.9,109.5z"/>
		<path class="st3" d="M274.9,105.7c-0.3,0-0.5,0-0.8,0.1c-0.2,0.1-0.4,0.3-0.6,0.5c-0.1,0.2-0.2,0.5-0.1,0.8c0,0.3,0.2,0.5,0.4,0.7
			s0.4,0.3,0.7,0.4c0.3,0,0.5,0,0.8-0.1c0.2-0.1,0.4-0.3,0.5-0.6c0.1-0.2,0.2-0.5,0.1-0.8c0-0.3-0.2-0.5-0.3-0.7
			C275.3,105.9,275.1,105.7,274.9,105.7L274.9,105.7z"/>
	</g>
</g>
<g>
	
		<linearGradient id="SVGID_43_" gradientUnits="userSpaceOnUse" x1="274" y1="61.2976" x2="274" y2="-1.2024" gradientTransform="matrix(1 0 0 -1 0 215.4646)">
		<stop  offset="0" style="stop-color:#0CCA98"/>
		<stop  offset="1" style="stop-color:#00FFCC"/>
	</linearGradient>
	<path class="st30" d="M259,154.2h30c5.5,0,10,4.5,10,10v42.5c0,5.5-4.5,10-10,10h-30c-5.5,0-10-4.5-10-10v-42.5
		C249,158.6,253.5,154.2,259,154.2z"/>
	<path class="st1" d="M259,155.2h30c5,0,9,4,9,9v42.5c0,5-4,9-9,9h-30c-5,0-9-4-9-9v-42.5C250,159.2,254,155.2,259,155.2z"/>
</g>
<g>
	<defs>
		<rect id="SVGID_44_" x="259.7" y="172" width="26.3" height="26.8"/>
	</defs>
	<clipPath id="SVGID_45_">
		<use xlink:href="#SVGID_44_"  style="overflow:visible;"/>
	</clipPath>
	<g class="st31">
		<path class="st3" d="M264.4,181.5l2.2,2c0,0,0,0,0.1,0c0,0,0.1,0,0.1,0c0.5-0.4,1-0.7,1.6-1c2.5-1.2,4.9-0.9,5.7-0.8
			c0.8,0.1,1.6,0.3,2.4,0.6c0,0,0.1,0,0.1,0c0,0,0,0,0.1,0l1.7-2.7c0,0,0-0.1,0-0.1c0,0,0-0.1-0.1-0.1l0,0c-1.2-0.5-2.4-0.8-3.6-1
			c-1-0.1-4.4-0.6-7.9,1.3c-0.9,0.5-1.7,1-2.4,1.7c0,0,0,0,0,0C264.4,181.4,264.4,181.4,264.4,181.5
			C264.4,181.4,264.4,181.4,264.4,181.5C264.4,181.5,264.4,181.5,264.4,181.5L264.4,181.5z"/>
		<path class="st3" d="M282.1,176.9l-3.3,0.5c0,0-0.1,0-0.1,0c0,0,0,0.1,0,0.1c0.1,0.6,0.1,1.3,0.1,1.9c0,0.3,0,1.8-0.4,3
			c-0.6,2.2-2.4,3.6-3.3,4.2c0,0,0,0,0,0.1c0,0,0,0.1,0,0.1c0.6,0.9,1.2,1.8,1.9,2.6c0,0,0,0,0.1,0c0,0,0.1,0,0.1,0
			c1.9-1.3,3.4-3.2,4.3-5.3c1.3-3.1,0.9-5.9,0.7-7.1C282.2,176.9,282.2,176.9,282.1,176.9C282.1,176.9,282.1,176.9,282.1,176.9
			L282.1,176.9z"/>
		<path class="st3" d="M276.4,193.6l1.2-3.3c0,0,0,0,0,0c0,0,0,0,0,0c0,0,0,0,0,0c0,0,0,0,0,0l0,0c-1.1-0.4-2.1-1-3-1.8
			c-0.7-0.6-1.3-1.3-1.8-2.1c-0.3-0.5-0.6-1-0.7-1.6c0-0.1-0.1-0.3-0.2-0.8c0-0.2-0.1-0.5-0.1-0.6c0,0,0-0.1,0-0.1c0,0,0,0-0.1,0
			l-3.5,0c0,0-0.1,0-0.1,0s0,0,0,0.1c0,0.4,0,0.8,0.1,1.2c0.1,0.5,0.2,1,0.4,1.5c0.6,1.3,1.3,2.6,2.2,3.7c0.8,0.9,1.7,1.8,2.7,2.5
			c0.9,0.6,1.8,1.2,2.7,1.7C276.3,193.7,276.3,193.7,276.4,193.6C276.3,193.7,276.3,193.7,276.4,193.6
			C276.4,193.7,276.4,193.7,276.4,193.6C276.4,193.7,276.4,193.7,276.4,193.6L276.4,193.6z"/>
		<path class="st3" d="M268.8,187.7l1.5,3c0,0,0,0.1,0,0.1c0,0,0,0.1-0.1,0.1c0,0,0,0-0.1,0c-1.3,0-2.5-0.3-3.7-0.7
			c-1.8-0.7-3.4-1.8-4.7-3.3c-0.9-1.2-1.5-2.6-1.8-4.1v0c-0.3-1.3-0.4-2.7-0.1-4c0.1-0.4,0.2-0.8,0.3-1.2c0-0.1,0.1-0.3,0.2-0.4
			c0,0,0,0,0,0c0,0,0,0,0,0c0,0,0,0,0.1,0c0,0,0,0,0.1,0c0,0,0,0,0.1,0.1c0,0,0,0.1,0,0.1c-0.1,1,0,2,0.1,3c0.1,0.7,0.3,1.3,0.5,1.9
			c0,0,0,0,0,0c0.6,1.3,1.5,2.4,2.6,3.2c0.7,0.6,1.5,1,2.3,1.4C267,187.2,267.8,187.5,268.8,187.7
			C268.7,187.6,268.7,187.6,268.8,187.7C268.8,187.6,268.8,187.7,268.8,187.7L268.8,187.7z"/>
		<path class="st3" d="M272.8,177.4H269c0,0,0,0,0,0c0,0,0,0,0,0c0,0,0,0,0,0c0,0,0,0,0,0c0,0,0,0,0,0c0.1-0.3,0.2-0.5,0.4-0.8
			c0.6-1,1.3-1.5,2.1-2.1c1.1-0.8,2.3-1.4,3.5-1.8c1.3-0.5,2.7-0.6,4.1-0.5c0.8,0,1.5,0.2,2.3,0.4c0.6,0.2,1.1,0.4,1.6,0.6
			c0.5,0.2,1,0.5,1.5,0.9c0.3,0.2,0.6,0.5,0.9,0.7c0.3,0.2,0.5,0.5,0.7,0.7c0,0,0,0.1,0,0.1c0,0,0,0.1,0,0.1c0,0-0.1,0-0.1,0
			c0,0-0.1,0-0.1,0c-0.4-0.3-0.8-0.5-1.2-0.7c-0.6-0.4-1.3-0.6-2-0.8c-0.7-0.2-1.4-0.3-2.1-0.3c-0.8,0-1.6,0.1-2.4,0.3
			c-0.5,0.1-1,0.3-1.4,0.6c-0.7,0.3-1.3,0.7-1.9,1.1c-0.4,0.3-0.7,0.5-0.9,0.7C273.6,176.7,273.2,177.1,272.8,177.4
			C272.9,177.4,272.9,177.4,272.8,177.4C272.8,177.4,272.8,177.4,272.8,177.4L272.8,177.4z"/>
		<path class="st3" d="M280.9,186.5l2.2-2.9c0,0,0,0,0.1,0s0.1,0,0.1,0l0,0c0.3,0.3,0.6,0.6,0.8,1c0.4,0.7,0.4,1.3,0.5,2.1
			c0.1,0.6,0.1,1.1,0,1.7c0,1.1-0.1,2.1-0.5,3.1c-0.3,1.1-0.8,2.1-1.5,3.1c-0.7,1.1-1.7,2-2.7,2.7c-0.9,0.6-1.8,1.1-2.9,1.3
			c-0.4,0.1-0.7,0.2-1.1,0.2l-0.5,0.1c0,0-0.1,0-0.1,0c0,0,0,0,0-0.1c0,0,0-0.1,0-0.1c0,0,0,0,0.1-0.1c0.4-0.1,0.8-0.3,1.2-0.5
			c0.5-0.2,0.9-0.4,1.2-0.7l0,0c0.9-0.6,1.6-1.4,2.2-2.2v0c0.6-0.8,1.1-1.7,1.2-2.7v0c0.1-0.5,0.2-1,0.3-1.5c0-0.6,0.1-1.1,0.1-1.5
			c0-0.4,0-0.7-0.1-1.1c0-0.2-0.1-0.5-0.1-0.7c-0.1-0.2-0.1-0.4-0.2-0.6C281.1,186.9,281,186.7,280.9,186.5z"/>
		<path class="st3" d="M274.9,182.8c-0.3,0-0.5,0-0.8,0.1c-0.2,0.1-0.4,0.3-0.6,0.5c-0.1,0.2-0.2,0.5-0.1,0.8c0,0.3,0.2,0.5,0.4,0.7
			c0.2,0.2,0.4,0.3,0.7,0.4c0.3,0,0.5,0,0.8-0.1c0.2-0.1,0.4-0.3,0.5-0.6c0.1-0.2,0.2-0.5,0.1-0.8c0-0.3-0.2-0.5-0.3-0.7
			C275.3,182.9,275.1,182.8,274.9,182.8L274.9,182.8z"/>
	</g>
</g>
</svg>
