<?xml version="1.0" encoding="utf-8"?>
<!-- Generator: Adobe Illustrator 24.0.2, SVG Export Plug-In . SVG Version: 6.00 Build 0)  -->
<svg version="1.1" id="Capa_1" xmlns="http://www.w3.org/2000/svg" xmlns:xlink="http://www.w3.org/1999/xlink" x="0px" y="0px"
	 viewBox="0 0 160 200" style="enable-background:new 0 0 160 200;" xml:space="preserve">
<style type="text/css">
	.st0{fill:url(#SVGID_1_);}
	.st1{fill:none;stroke:#000000;stroke-width:2;}
	.st2{fill:url(#SVGID_2_);}
	.st3{fill:#202040;}
	.st4{clip-path:url(#SVGID_4_);}
	.st5{fill:#80B6FF;}
	.st6{clip-path:url(#SVGID_6_);}
	.st7{fill:#FFAD95;}
	.st8{fill:#FF9171;}
	.st9{fill:#8AA8BD;}
	.st10{clip-path:url(#SVGID_8_);}
	.st11{fill:#A7BDCD;}
	.st12{fill:#FFFFFF;}
	.st13{fill:#E2E9EE;}
	.st14{clip-path:url(#SVGID_10_);}
	.st15{fill:#6D92AC;}
	.st16{fill:#89DF8F;}
	.st17{clip-path:url(#SVGID_12_);}
	.st18{fill:#FF7D97;}
	.st19{clip-path:url(#SVGID_14_);}
	.st20{fill:#C68A65;}
	.st21{fill:#D1A184;}
	.st22{clip-path:url(#SVGID_16_);}
	.st23{fill:#FFC144;}
	.st24{fill:#FFCD69;}
	.st25{fill:#FFE6B4;}
	.st26{clip-path:url(#SVGID_18_);}
	.st27{fill:#FF5D7D;}
	.st28{clip-path:url(#SVGID_20_);}
	.st29{clip-path:url(#SVGID_22_);}
	.st30{fill:#FFC8B8;}
	.st31{clip-path:url(#SVGID_24_);}
	.st32{fill:#FFF3DA;}
	.st33{clip-path:url(#SVGID_26_);}
	.st34{fill:#FF9EB1;}
</style>
<g>
	
		<linearGradient id="SVGID_1_" gradientUnits="userSpaceOnUse" x1="80" y1="199.4646" x2="80" y2="-0.5354" gradientTransform="matrix(1 0 0 -1 0 199.4646)">
		<stop  offset="0" style="stop-color:#0CCA98"/>
		<stop  offset="1" style="stop-color:#00FFCC"/>
	</linearGradient>
	<path class="st0" d="M30,0h100c16.6,0,30,13.4,30,30v140c0,16.6-13.4,30-30,30H30c-16.6,0-30-13.4-30-30V30C0,13.4,13.4,0,30,0z"/>
	<path class="st1" d="M30,1h100c16,0,29,13,29,29v140c0,16-13,29-29,29H30c-16,0-29-13-29-29V30C1,14,14,1,30,1z"/>
</g>
<g>
	
		<linearGradient id="SVGID_2_" gradientUnits="userSpaceOnUse" x1="80" y1="183.4646" x2="80" y2="39.4646" gradientTransform="matrix(1 0 0 -1 0 199.4646)">
		<stop  offset="0" style="stop-color:#F8F9FA"/>
		<stop  offset="1" style="stop-color:#DEE2E6"/>
	</linearGradient>
	<path class="st2" d="M36,16h88c11,0,20,9,20,20v104c0,11-9,20-20,20H36c-11,0-20-9-20-20V36C16,25,25,16,36,16z"/>
</g>
<path class="st3" d="M50,172c0.9,0,1.7,0.2,2.4,0.5c0.7,0.4,1.2,0.9,1.6,1.6c0.4,0.7,0.6,1.5,0.6,2.5v5.4h-2.3v-2.4h-4.5v2.4h-2.2
	v-5.4c0-1,0.2-1.8,0.6-2.5c0.4-0.7,0.9-1.2,1.6-1.6C48.3,172.2,49.1,172,50,172z M52.2,177.8v-1.4c0-0.8-0.2-1.4-0.6-1.8
	c-0.4-0.4-0.9-0.6-1.6-0.6c-0.7,0-1.3,0.2-1.7,0.6c-0.4,0.4-0.6,1-0.6,1.8v1.4H52.2z M61.2,174.4c0.9,0,1.7,0.3,2.3,0.8
	c0.6,0.6,0.9,1.4,0.9,2.5v4.3h-2.2v-4c0-0.6-0.1-1-0.4-1.3c-0.3-0.3-0.6-0.4-1.1-0.4c-0.6,0-1,0.2-1.3,0.5c-0.3,0.3-0.5,0.8-0.5,1.5
	v3.7h-2.2v-7.5h2.1v0.9c0.3-0.3,0.6-0.6,1.1-0.7C60.2,174.4,60.7,174.4,61.2,174.4z M66.3,174.5h2.2v7.5h-2.2V174.5z M67.4,173.4
	c-0.4,0-0.7-0.1-1-0.4c-0.3-0.2-0.4-0.5-0.4-0.9s0.1-0.6,0.4-0.9s0.6-0.4,1-0.4c0.4,0,0.7,0.1,1,0.3c0.3,0.2,0.4,0.5,0.4,0.8
	c0,0.4-0.1,0.7-0.4,0.9C68.1,173.3,67.8,173.4,67.4,173.4z M80.1,174.4c0.9,0,1.7,0.3,2.2,0.8c0.6,0.6,0.8,1.4,0.8,2.5v4.3H81v-4
	c0-0.6-0.1-1-0.4-1.3c-0.2-0.3-0.6-0.4-1-0.4c-0.5,0-0.9,0.2-1.2,0.5c-0.3,0.3-0.4,0.8-0.4,1.5v3.8h-2.2v-4c0-1.2-0.5-1.8-1.4-1.8
	c-0.5,0-0.9,0.2-1.2,0.5c-0.3,0.3-0.4,0.8-0.4,1.5v3.8h-2.2v-7.5h2.1v0.9c0.3-0.3,0.6-0.6,1-0.7c0.4-0.2,0.9-0.3,1.3-0.3
	c0.5,0,1,0.1,1.4,0.3c0.4,0.2,0.8,0.5,1,0.9c0.3-0.4,0.7-0.7,1.2-0.9C79.1,174.5,79.6,174.4,80.1,174.4z M92.9,174.5v7.5h-2.1v-0.9
	c-0.5,0.7-1.3,1-2.4,1c-0.7,0-1.4-0.2-1.9-0.5c-0.6-0.3-1-0.8-1.3-1.4c-0.3-0.6-0.5-1.3-0.5-2c0-0.8,0.2-1.5,0.5-2
	c0.3-0.6,0.8-1,1.3-1.4c0.6-0.3,1.2-0.5,1.9-0.5c1,0,1.7,0.3,2.3,0.9v-0.8H92.9z M88.8,180.3c0.6,0,1-0.2,1.4-0.6
	c0.4-0.4,0.5-0.9,0.5-1.5c0-0.6-0.2-1.1-0.5-1.5c-0.4-0.4-0.8-0.6-1.4-0.6c-0.6,0-1,0.2-1.4,0.6c-0.4,0.4-0.5,0.9-0.5,1.5
	c0,0.6,0.2,1.1,0.5,1.5C87.8,180.1,88.3,180.3,88.8,180.3z M97.6,182.1c-0.8,0-1.5-0.2-2-0.7c-0.5-0.5-0.7-1.1-0.7-1.9v-7.9h2.2v7.8
	c0,0.3,0.1,0.6,0.2,0.7c0.2,0.2,0.4,0.3,0.7,0.3c0.1,0,0.2,0,0.3,0c0.1,0,0.2-0.1,0.3-0.1l0.1,1.7C98.4,182.1,98,182.1,97.6,182.1z
	 M103.5,180.4c0.4,0,0.7-0.1,1-0.2c0.3-0.1,0.6-0.3,0.9-0.6l1.2,1.3c-0.7,0.8-1.7,1.2-3.1,1.2c-0.8,0-1.6-0.2-2.3-0.5
	c-0.7-0.3-1.2-0.8-1.5-1.4c-0.4-0.6-0.5-1.3-0.5-2c0-0.7,0.2-1.4,0.5-2c0.4-0.6,0.8-1.1,1.4-1.4c0.6-0.3,1.3-0.5,2.1-0.5
	c0.7,0,1.4,0.2,2,0.5c0.6,0.3,1.1,0.7,1.4,1.3c0.4,0.6,0.5,1.2,0.5,2l-5.6,1.1c0.2,0.4,0.4,0.7,0.7,0.8
	C102.6,180.3,103,180.4,103.5,180.4z M103.2,176c-0.5,0-1,0.2-1.3,0.5c-0.3,0.4-0.5,0.8-0.5,1.5l3.7-0.7c-0.1-0.4-0.3-0.7-0.6-0.9
	C104,176.1,103.6,176,103.2,176z M111.1,182.1c-0.6,0-1.2-0.1-1.8-0.2c-0.6-0.2-1.1-0.4-1.4-0.6l0.7-1.6c0.3,0.2,0.7,0.4,1.2,0.5
	c0.5,0.1,0.9,0.2,1.4,0.2c0.9,0,1.4-0.2,1.4-0.7c0-0.2-0.1-0.4-0.4-0.5s-0.6-0.2-1.2-0.2c-0.6-0.1-1.1-0.2-1.5-0.3
	c-0.4-0.1-0.8-0.3-1.1-0.6c-0.3-0.3-0.4-0.7-0.4-1.3c0-0.5,0.1-0.9,0.4-1.3c0.3-0.4,0.7-0.7,1.2-0.9c0.5-0.2,1.2-0.3,1.9-0.3
	c0.5,0,1.1,0.1,1.6,0.2c0.5,0.1,1,0.3,1.3,0.5l-0.7,1.6c-0.7-0.4-1.4-0.6-2.2-0.6c-0.5,0-0.8,0.1-1.1,0.2c-0.2,0.1-0.3,0.3-0.3,0.5
	c0,0.2,0.1,0.4,0.4,0.5s0.7,0.2,1.2,0.3c0.6,0.1,1.1,0.2,1.5,0.3c0.4,0.1,0.7,0.3,1,0.6c0.3,0.3,0.4,0.7,0.4,1.3
	c0,0.5-0.1,0.9-0.4,1.2c-0.3,0.4-0.7,0.6-1.2,0.9C112.4,182,111.8,182.1,111.1,182.1z"/>
<g>
	<defs>
		<rect id="SVGID_3_" x="112" y="92.8" width="24" height="24"/>
	</defs>
	<clipPath id="SVGID_4_">
		<use xlink:href="#SVGID_3_"  style="overflow:visible;"/>
	</clipPath>
	<g class="st4">
		<path class="st5" d="M134.8,98.3c0-0.5-0.3-0.9-0.8-1l-2-0.7c-1-1.3-3.1-3.3-6.8-3.3c-1.3,0-2.6,0.3-3.8,0.7
			c-0.7,0.3-1.5,0.3-2.3,0c-0.4-0.2-0.9-0.2-1.4-0.2c-1.7,0-3.1,1-3.7,2.4c0.8-0.2,1.6-0.2,2.4,0c0.5,0.2,0.7,0.7,0.3,1.1
			c-1.7,2.1-2.8,4.9-2.8,7.7c0,2.4,0.7,4.4,2,6.1c0.3,0.5,0.2,1.2-0.4,1.4l-0.9,0.4c-1.3,0.6-1.8,2.1-1.3,3.3l2.7-1.2
			c0.6-0.3,1.1-0.8,1.3-1.3c0.2-0.4,0.7-0.6,1.1-0.3c0.5,0.3,1.1,0.5,1.8,0.4l3-0.5c-0.2-1.4-1.5-2.3-2.9-2.1l-1.4,0.2
			c-0.5,0.1-0.9-0.3-0.9-0.8c0-3.7,1.7-6.6,4.3-8.6c0.6,1.5,0.6,3.1-0.3,4.2c1-0.2,2-0.8,2.6-1.7c0.9-1.2,1-2.7,0.5-4
			c1.8-0.7,3.9-1.1,6-1.1h2.2C134.3,99.5,134.8,98.9,134.8,98.3L134.8,98.3z"/>
		<path d="M135.2,98.3c0-0.7-0.5-1.2-1.1-1.5l-1.9-0.7c-1.8-2.2-4.2-3.4-7.1-3.4c-1.4,0-2.7,0.3-4,0.8c-0.6,0.2-1.3,0.3-1.9,0
			c-0.5-0.2-1-0.3-1.5-0.3c-1.8,0-3.4,1.1-4.1,2.7c-0.1,0.2,0,0.4,0.1,0.5s0.3,0.2,0.5,0.1c0.7-0.2,1.4-0.2,2.1,0
			c0.1,0,0.1,0.1,0.2,0.2c0,0,0,0.1,0,0.2c-1.4,1.7-2.3,3.7-2.7,5.8c0,0.3,0.1,0.5,0.4,0.5c0,0,0.1,0,0.1,0c0.2,0,0.4-0.2,0.5-0.4
			c0.4-2,1.2-3.9,2.5-5.4c0.3-0.3,0.3-0.7,0.2-1.1c-0.1-0.4-0.4-0.7-0.8-0.8c-0.5-0.2-1.1-0.2-1.6-0.2c0.7-0.8,1.7-1.3,2.8-1.3
			c0.4,0,0.8,0.1,1.2,0.2c0.8,0.3,1.7,0.3,2.6-0.1c1.2-0.5,2.4-0.7,3.6-0.7c2.6,0,4.8,1,6.4,3.1c0.1,0.1,0.1,0.1,0.2,0.2l2,0.7
			c0.3,0.1,0.5,0.3,0.5,0.6c0,0.2-0.1,0.4-0.2,0.5c-0.1,0.1-0.3,0.2-0.5,0.2h-2.2c-2.1,0-4,0.3-5.8,1c-0.1-0.1-0.1-0.2-0.2-0.3
			c-0.1-0.2-0.4-0.3-0.6-0.2c-0.2,0.1-0.3,0.4-0.2,0.6c0.8,1.3,0.7,3-0.2,4.2c-0.3,0.5-0.8,0.9-1.3,1.1c0.4-1.4,0.1-3.1-0.6-4.4
			c-0.1-0.2-0.4-0.3-0.6-0.2c-0.2,0.1-0.3,0.4-0.2,0.6c0.1,0.1,0.1,0.3,0.2,0.4c-1.3,1-2.3,2.2-3,3.6c-0.8,1.6-1.2,3.3-1.2,5.2
			c0,0.4,0.2,0.7,0.4,1c0.3,0.2,0.6,0.3,1,0.3l1.4-0.2c0.5-0.1,1.1,0,1.5,0.4c0.3,0.2,0.6,0.5,0.7,0.9l-2.5,0.4
			c-0.5,0.1-1,0-1.4-0.3c-0.3-0.2-0.7-0.2-1-0.1c-0.3,0.1-0.6,0.3-0.8,0.7c-0.2,0.5-0.6,0.9-1.1,1.1l-2.3,1c-0.1-0.4,0-0.8,0.1-1.1
			c0.2-0.5,0.6-0.9,1.1-1.2l0.9-0.4c0.4-0.2,0.7-0.5,0.8-0.9c0.1-0.4,0-0.8-0.2-1.2c-0.9-1.2-1.4-2.4-1.7-3.8
			c-0.1-0.3-0.3-0.4-0.6-0.4c-0.3,0.1-0.4,0.3-0.4,0.6c0.3,1.5,0.9,2.9,1.9,4.2c0.1,0.2,0.1,0.3,0.1,0.4c0,0.1-0.1,0.3-0.3,0.3
			l-0.9,0.4c-0.7,0.3-1.3,0.9-1.6,1.7c-0.3,0.8-0.3,1.6,0.1,2.3c0.1,0.2,0.2,0.3,0.4,0.3c0.1,0,0.1,0,0.2,0l2.7-1.2
			c0.7-0.3,1.2-0.9,1.6-1.6c0-0.1,0.1-0.1,0.2-0.1c0,0,0.1,0,0.2,0c0.6,0.4,1.4,0.6,2.1,0.4l3-0.5c0.3,0,0.4-0.3,0.4-0.5
			c-0.1-0.8-0.6-1.5-1.2-2c-0.6-0.5-1.4-0.7-2.2-0.5L119,111c-0.1,0-0.2,0-0.3-0.1c0,0-0.1-0.1-0.1-0.2c0-3.2,1.2-5.8,3.6-7.8
			c0.3,1.1,0.3,2.3-0.4,3.1c-0.1,0.2-0.1,0.4,0,0.5c0.1,0.1,0.2,0.2,0.4,0.2c0,0,0.1,0,0.1,0c1.2-0.2,2.2-0.9,2.9-1.9
			c0.8-1.2,1.1-2.7,0.7-4c1.7-0.6,3.5-0.9,5.4-0.9h2.2c0.4,0,0.8-0.2,1.1-0.5C135.1,99.1,135.2,98.7,135.2,98.3L135.2,98.3z"/>
		<path d="M128.2,97.3c0.1-0.1,0.1-0.2,0.1-0.3s-0.1-0.2-0.1-0.3c-0.1-0.1-0.2-0.1-0.3-0.1c-0.1,0-0.2,0.1-0.3,0.1
			c-0.1,0.1-0.1,0.2-0.1,0.3s0.1,0.2,0.1,0.3c0.1,0.1,0.2,0.1,0.3,0.1C128,97.4,128.2,97.4,128.2,97.3L128.2,97.3z"/>
		<path d="M114.3,105.4c0.1-0.1,0.1-0.2,0.1-0.3c0-0.1-0.1-0.2-0.1-0.3c-0.1-0.1-0.2-0.1-0.3-0.1c-0.1,0-0.2,0.1-0.3,0.1
			c-0.1,0.1-0.1,0.2-0.1,0.3c0,0.1,0.1,0.2,0.1,0.3c0.1,0.1,0.2,0.1,0.3,0.1C114.1,105.6,114.2,105.5,114.3,105.4z"/>
	</g>
</g>
<g>
	<defs>
		<rect id="SVGID_5_" x="68.8" y="92.8" width="24" height="24"/>
	</defs>
	<clipPath id="SVGID_6_">
		<use xlink:href="#SVGID_5_"  style="overflow:visible;"/>
	</clipPath>
	<g class="st6">
		<path class="st7" d="M73.6,105.6h-2.7l-1.6,3.6l2.6-1.7h3.3L73.6,105.6z"/>
		<path class="st7" d="M75.2,107.5l-3.5,2l0.4,3.9l1.3-2.7l3-1.7L75.2,107.5z"/>
		<path class="st7" d="M77.3,109.8l-2.2,2.2l1.5,3.6l0.4-2.8l1.8-1.8"/>
		<path class="st7" d="M88,105.6h2.7l1.6,3.6l-2.6-1.7h-3.3L88,105.6z"/>
		<path class="st7" d="M86.4,107.5l3.5,2l-0.4,3.9l-1.3-2.7l-3-1.7L86.4,107.5z"/>
		<path class="st7" d="M84.3,109.8l2.2,2.2l-1.5,3.6l-0.4-2.8l-1.8-1.8L84.3,109.8z"/>
		<path class="st7" d="M87.7,103.6l2.2-0.8v-2l2,0.4v1.1c0,1.1-0.7,2.1-1.7,2.5l-2.4,0.9L87.7,103.6z"/>
		<path class="st7" d="M73.9,103.6l-2.2-0.8v-2l-2,0.4v1.1c0,1.1,0.7,2.1,1.7,2.5l2.4,0.9L73.9,103.6z"/>
		<path class="st8" d="M72.2,97.5l0.7-3.4c-2.1,0.7-3.6,2.7-3.6,5.1c0,0.7,0.1,1.4,0.4,2.1c0,0,0,0,0,0c2.9,0,5.3-2.4,5.3-5.3
			C73.6,96.6,72.2,97.5,72.2,97.5L72.2,97.5z"/>
		<path class="st8" d="M89.4,97.5l-0.7-3.4c2.1,0.7,3.6,2.7,3.6,5.1c0,0.7-0.1,1.4-0.4,2.1c0,0,0,0,0,0c-2.9,0-5.3-2.4-5.3-5.3
			C88,96.6,89.4,97.5,89.4,97.5L89.4,97.5z"/>
		<path class="st8" d="M87.2,106.6l-3.1,3.1c-1.9,1.9-4.9,1.9-6.7,0l-3.1-3.1c-1-1-1-2.6,0-3.6c3.6-3.6,9.3-3.6,12.9,0
			C88.2,104,88.2,105.6,87.2,106.6z"/>
		<path class="st9" d="M84.3,101c0.5,0,0.9-0.4,0.9-0.9s-0.4-0.9-0.9-0.9c-0.5,0-0.9,0.4-0.9,0.9S83.8,101,84.3,101z"/>
		<path class="st9" d="M77.3,101c0.5,0,0.9-0.4,0.9-0.9s-0.4-0.9-0.9-0.9c-0.5,0-0.9,0.4-0.9,0.9S76.8,101,77.3,101z"/>
		<path d="M92.8,109l-1.6-3.6c-0.1-0.2-0.2-0.3-0.4-0.3h-0.1c1.1-0.5,1.8-1.6,1.8-2.8v-1c0.3-0.7,0.4-1.4,0.4-2.1
			c0-0.3-0.2-0.5-0.5-0.5c0,0,0,0,0,0c-0.3,0-0.5,0.2-0.5,0.5c0,0.5-0.1,1-0.3,1.5c-2.2-0.1-4.1-1.8-4.5-4l2.1,1.2
			c0.2,0.1,0.4,0.1,0.5,0c0.1-0.1,0.2-0.3,0.2-0.5l-0.5-2.5c0.4,0.2,0.8,0.5,1.1,0.8c0.2,0.2,0.5,0.2,0.7,0c0.2-0.2,0.2-0.5,0-0.7
			c-0.6-0.6-1.4-1.1-2.2-1.4c-0.2-0.1-0.3,0-0.5,0.1c-0.1,0.1-0.2,0.3-0.1,0.4l0.5,2.4l-2-1.1c-0.1-0.1-0.3-0.1-0.5,0
			c-0.1,0.1-0.2,0.2-0.2,0.4c0,1.5,0.6,3,1.7,4.1c0.5,0.5,1,0.8,1.6,1.1v1.4l-1.5,0.6c-0.1-0.1-0.2-0.2-0.3-0.3
			c-0.7-0.7-1.5-1.2-2.3-1.7c0.2-0.3,0.4-0.6,0.4-1c0-0.8-0.6-1.4-1.4-1.4c-0.8,0-1.4,0.6-1.4,1.4c0,0,0,0,0,0.1
			c-1.4-0.3-2.8-0.3-4.1,0c0,0,0,0,0-0.1c0-0.8-0.6-1.4-1.4-1.4c-0.8,0-1.4,0.6-1.4,1.4c0,0.4,0.1,0.7,0.4,1c-0.8,0.4-1.6,1-2.3,1.7
			c-0.1,0.1-0.2,0.2-0.3,0.3l-1.5-0.6v-1.4c0.6-0.3,1.1-0.7,1.6-1.1c1.1-1.1,1.7-2.5,1.7-4.1c0-0.2-0.1-0.3-0.2-0.4
			c-0.1-0.1-0.3-0.1-0.5,0l-2,1.1l0.5-2.4c0-0.2,0-0.3-0.1-0.4c-0.1-0.1-0.3-0.1-0.5-0.1c-2.3,0.8-3.9,3-3.9,5.5
			c0,0.8,0.1,1.5,0.4,2.2v1c0,1.2,0.7,2.3,1.8,2.8h-0.1c-0.2,0-0.4,0.1-0.4,0.3l-1.6,3.6c-0.1,0.2,0,0.4,0.1,0.5
			c0.1,0.1,0.2,0.1,0.3,0.1c0.1,0,0.2,0,0.3-0.1l2.5-1.7h1.5l-2,1.1c-0.2,0.1-0.3,0.3-0.2,0.5l0.4,3.9c0,0.2,0.2,0.4,0.4,0.4
			c0,0,0.1,0,0.1,0c0.2,0,0.3-0.1,0.4-0.3l1.2-2.6l2.7-1.5l0.3,0.3l-1.9,1.9c-0.1,0.1-0.2,0.3-0.1,0.5l1.5,3.6
			c0.1,0.2,0.2,0.3,0.4,0.3c0,0,0,0,0.1,0c0.2,0,0.4-0.2,0.4-0.4l0.3-2.7l1.6-1.6c0.5,0.2,1.1,0.3,1.6,0.3c0.6,0,1.1-0.1,1.6-0.3
			l1.6,1.6l0.4,2.7c0,0.2,0.2,0.4,0.4,0.4c0,0,0,0,0.1,0c0.2,0,0.4-0.1,0.4-0.3l1.5-3.6c0.1-0.2,0-0.4-0.1-0.5l-1.9-1.9l0.3-0.3
			l2.7,1.5l1.2,2.6c0.1,0.2,0.2,0.3,0.4,0.3c0,0,0,0,0.1,0c0.2,0,0.4-0.2,0.4-0.4l0.4-3.9c0-0.2-0.1-0.4-0.2-0.5l-2-1.1h1.5l2.5,1.7
			c0.1,0.1,0.2,0.1,0.3,0.1c0.1,0,0.2,0,0.3-0.1C92.8,109.4,92.8,109.2,92.8,109L92.8,109z M91.4,101.6v0.7c0,0.4-0.1,0.8-0.3,1.1
			l-0.8-0.8v-1.2C90.7,101.5,91.1,101.6,91.4,101.6L91.4,101.6z M89.7,103.3l0.8,0.8c-0.1,0.1-0.3,0.2-0.5,0.2l-1.6,0.6
			c0-0.4,0-0.8-0.2-1.1L89.7,103.3z M84.3,99.6c0.3,0,0.5,0.2,0.5,0.5s-0.2,0.5-0.5,0.5c-0.3,0-0.5-0.2-0.5-0.5S84,99.6,84.3,99.6z
			 M77.3,99.6c0.3,0,0.5,0.2,0.5,0.5s-0.2,0.5-0.5,0.5c-0.3,0-0.5-0.2-0.5-0.5S77.1,99.6,77.3,99.6z M73.2,105l-1.6-0.6
			c-0.2-0.1-0.3-0.1-0.5-0.2l0.8-0.8l1.5,0.5C73.2,104.2,73.1,104.6,73.2,105L73.2,105z M71.3,102.6l-0.8,0.8
			c-0.2-0.3-0.3-0.7-0.3-1.1v-0.7c0.4,0,0.8-0.1,1.1-0.2V102.6z M72.2,94.9l-0.5,2.5c0,0.2,0,0.4,0.2,0.5c0.1,0.1,0.3,0.1,0.5,0
			l2.1-1.2c-0.4,2.2-2.2,3.8-4.5,4c-0.2-0.5-0.3-1-0.3-1.6C69.7,97.3,70.7,95.7,72.2,94.9L72.2,94.9z M71.9,107
			c-0.1,0-0.2,0-0.3,0.1l-1.3,0.8l0.8-1.9h2.2c0.1,0.3,0.3,0.6,0.6,0.9l0.1,0.1H71.9z M73.2,110.2c-0.1,0-0.2,0.1-0.2,0.2l-0.6,1.2
			l-0.2-1.9l2.9-1.7l0.7,0.7L73.2,110.2z M76.8,112.4c-0.1,0.1-0.1,0.2-0.1,0.3l-0.2,1.2l-0.7-1.7l1.7-1.7c0.2,0.2,0.5,0.4,0.8,0.5
			L76.8,112.4z M77.8,109.4l-3.1-3.1c-0.8-0.8-0.8-2.1,0-2.9c1.7-1.7,3.9-2.5,6.1-2.5s4.4,0.8,6.1,2.5c0.8,0.8,0.8,2.1,0,2.9
			l-3.1,3.1C82.2,111,79.4,111,77.8,109.4L77.8,109.4z M85.1,113.8l-0.2-1.2c0-0.1-0.1-0.2-0.1-0.3l-1.5-1.5
			c0.3-0.2,0.5-0.3,0.8-0.5l1.7,1.7L85.1,113.8z M89.1,111.6l-0.6-1.2c0-0.1-0.1-0.2-0.2-0.2l-2.6-1.5l0.7-0.7l2.9,1.7L89.1,111.6z
			 M90,107.1c-0.1-0.1-0.2-0.1-0.3-0.1h-2.2l0.1-0.1l0,0c0.3-0.3,0.5-0.6,0.6-0.9h2.2l0.8,1.9L90,107.1z"/>
		<path d="M91.9,97.6c-0.1,0-0.2-0.1-0.3-0.1c-0.1-0.1-0.1-0.2-0.1-0.3c0-0.1,0.1-0.2,0.1-0.3c0.1-0.1,0.2-0.1,0.3-0.1
			c0.1,0,0.2,0,0.3,0.1c0.1,0.1,0.1,0.2,0.1,0.3c0,0.1-0.1,0.2-0.1,0.3C92.2,97.5,92.1,97.6,91.9,97.6z"/>
	</g>
</g>
<g>
	<defs>
		<rect id="SVGID_7_" x="24" y="58.4" width="24" height="24"/>
	</defs>
	<clipPath id="SVGID_8_">
		<use xlink:href="#SVGID_7_"  style="overflow:visible;"/>
	</clipPath>
	<g class="st10">
		<path class="st11" d="M41.1,64c0,0-1.6-0.4-1.1-2.1c0,0,0,0,0,0c0.2,0.1,0.5,0.2,0.8,0.2c1.1-0.1,1.7,1,1.7,0.9L41.1,64z"/>
		<path class="st11" d="M43.7,62.9c-0.1,0.1,0.6-1,1.7-0.9c0.3,0,0.6,0,0.8-0.2c0,0,0,0,0,0C46.6,63.6,45,64,45,64L43.7,62.9z"/>
		<path class="st12" d="M47.1,65.3c-1-0.5-2-1.2-2.8-1.9c-0.3-0.3-0.8-0.4-1.2-0.4c-0.7,0-1.3,0.4-1.6,1c-0.3,0.6-1,1-1.7,1H28.3
			c-2.1,0-3.9,1.7-3.9,3.9l0,1.3c0,1.3,0.7,2.6,1.8,3.3l0.5,1.8v3.4c0,0.2,0.2,0.4,0.4,0.4h1.7h0h1.9c0.3,0,0.5-0.3,0.3-0.6
			l-0.3-0.6v-3.4h5c0.1,0.3,0.3,0.6,0.5,0.9v3.4c0,0.2,0.2,0.4,0.4,0.4h1.4h2.1c0.3,0,0.5-0.3,0.3-0.6l-0.3-0.6v-3.6
			c1.6-0.4,2.8-1.9,2.8-3.6v-1.8c0-0.6,0.5-1.1,1.1-1.1h2.6c0.5,0,0.8-0.4,0.8-0.8V66C47.5,65.7,47.4,65.5,47.1,65.3L47.1,65.3z"/>
		<path class="st13" d="M40.5,78.4l-0.3-0.6v-3.6h-1c-0.2,0.4-0.5,0.7-0.9,1v2.9l0.3,0.4c0.2,0.2,0,0.6-0.3,0.6v0h2
			C40.5,78.9,40.7,78.6,40.5,78.4L40.5,78.4z"/>
		<path class="st13" d="M31.2,78.4l-0.3-0.6v-2.6v-0.8l-1.1,0c-0.2,0.3-0.5,0.6-0.9,0.8v2.6l0.3,0.6c0.1,0.3,0,0.6-0.3,0.6h1.9
			C31.1,78.9,31.3,78.6,31.2,78.4L31.2,78.4z"/>
		<path class="st11" d="M24.9,69.5c-0.1,0-0.3,0-0.4,0l0,0l0,0.5c0,1.3,0.7,2.6,1.8,3.3l0.1,0.4c0,0,0,0,0,0
			c0.5-0.4,0.9-1.1,0.9-1.8C27.3,70.6,26.2,69.5,24.9,69.5L24.9,69.5z"/>
		<path class="st11" d="M28.3,64.9c-0.4,0-0.7,0.1-1.1,0.2V67c0,0.4,0.3,0.8,0.8,0.8c0.4,0,0.7,0.2,0.8,0.5c0.2,0.6,0.8,1,1.4,1h2.5
			c0.4,0,0.8-0.3,0.8-0.8s0.3-0.8,0.8-0.8c0.5,0,0.9-0.4,0.9-0.9v-1.9H28.3L28.3,64.9z"/>
		<path class="st11" d="M41.4,67.2h-1.9c-0.4,0-0.7,0.3-0.7,0.7c0,0.4-0.3,0.7-0.7,0.7h0c-0.5,0-0.8,0.4-0.8,0.8
			c0,0.5,0.4,0.8,0.8,0.8h3.4c0.9,0,1.6-0.7,1.6-1.6S42.3,67.2,41.4,67.2z"/>
		<path d="M47.3,64.9c-0.5-0.3-1-0.5-1.4-0.8c0.2-0.1,0.4-0.3,0.5-0.6c0.3-0.5,0.3-1.1,0.2-1.7c0-0.1-0.1-0.3-0.3-0.3
			c-0.1-0.1-0.3,0-0.4,0c-0.2,0.1-0.4,0.1-0.5,0.1c-0.5-0.1-1.1,0.1-1.6,0.5c-0.1,0.1-0.3,0.3-0.4,0.4c-0.1,0-0.2,0-0.3,0
			c-0.1,0-0.2,0-0.3,0c-0.1-0.1-0.3-0.3-0.4-0.4c-0.5-0.4-1-0.6-1.6-0.5c-0.2,0-0.4,0-0.5-0.1l0,0c-0.1-0.1-0.3-0.1-0.4,0
			c-0.1,0.1-0.2,0.2-0.3,0.3c-0.2,0.7-0.1,1.3,0.2,1.7c0.2,0.4,0.5,0.6,0.8,0.7c-0.2,0.1-0.5,0.2-0.8,0.2h-6.4
			c-0.3,0-0.5,0.2-0.5,0.5c0,0.3,0.2,0.5,0.5,0.5h1.4v1.4c0,0.3-0.2,0.5-0.5,0.5c-0.7,0-1.2,0.5-1.2,1.2c0,0.2-0.1,0.3-0.3,0.3h-2.5
			c-0.4,0-0.8-0.3-1-0.7c-0.2-0.5-0.7-0.8-1.2-0.8c-0.2,0-0.3-0.1-0.3-0.3v-1.6c0.2,0,0.4-0.1,0.6-0.1h0.8c0.3,0,0.5-0.2,0.5-0.5
			c0-0.3-0.2-0.5-0.5-0.5h-0.8c-1.2,0-2.2,0.4-3.1,1.3c-0.8,0.8-1.3,1.9-1.3,3.1l0,7.5c0,0.3,0.2,0.5,0.5,0.5c0.3,0,0.5-0.2,0.5-0.5
			v-3.5c0.3,0.3,0.6,0.6,1,0.9l0.5,1.5v3.3c0,0.5,0.4,0.8,0.8,0.8h3.6c0.3,0,0.6-0.2,0.7-0.4c0.2-0.3,0.2-0.6,0-0.8l-0.3-0.5v-2.8
			h4.2c0.1,0.2,0.2,0.4,0.4,0.6v3.2c0,0.5,0.4,0.8,0.8,0.8h3.5c0.3,0,0.6-0.2,0.7-0.4c0.2-0.3,0.2-0.6,0-0.8l-0.3-0.5v-3.1
			c1.6-0.6,2.8-2.1,2.8-4v-1.8c0-0.3,0.3-0.6,0.6-0.6h2.6c0.7,0,1.3-0.6,1.3-1.3V66C48,65.5,47.7,65.1,47.3,64.9L47.3,64.9z
			 M45.3,62.5c0.2,0,0.3,0,0.5,0c0,0.2,0,0.4-0.1,0.5c-0.1,0.2-0.4,0.4-0.5,0.4c-0.2-0.1-0.4-0.3-0.5-0.4c-0.1-0.1-0.1-0.1-0.2-0.2
			C44.6,62.7,44.9,62.5,45.3,62.5L45.3,62.5z M40.9,62.5c0.4,0,0.7,0.2,0.9,0.4c-0.2,0.2-0.5,0.4-0.6,0.6c-0.1-0.1-0.5-0.2-0.6-0.5
			c-0.1-0.1-0.1-0.3-0.1-0.5C40.6,62.5,40.7,62.5,40.9,62.5z M24.9,70.1L24.9,70.1c1-0.1,1.9,0.8,1.9,1.8c0,0.4-0.1,0.7-0.3,1.1
			C25.5,72.3,24.9,71.3,24.9,70.1L24.9,70.1z M30.4,77.9l0.3,0.5h-1c0-0.1,0-0.2-0.1-0.3l-0.3-0.5v-2.3c0.2-0.2,0.5-0.4,0.6-0.6h0.4
			v3C30.3,77.8,30.4,77.9,30.4,77.9L30.4,77.9z M39.8,77.9l0.3,0.5h-1c0-0.1-0.1-0.3-0.1-0.4l-0.2-0.3v-2.5c0.2-0.2,0.4-0.4,0.6-0.6
			c0.1,0,0.3,0,0.4,0v3C39.7,77.8,39.7,77.9,39.8,77.9L39.8,77.9z M42.5,68.7c0,0.6-0.5,1.1-1.1,1.1H38c-0.2,0-0.4-0.2-0.4-0.4
			s0.2-0.4,0.4-0.4h0c0.7,0,1.2-0.5,1.2-1.2c0-0.1,0.1-0.3,0.3-0.3h1.9C42,67.6,42.5,68.1,42.5,68.7L42.5,68.7z M47.1,66.8
			c0,0.2-0.2,0.4-0.4,0.4h-2.6c-0.4,0-0.7,0.1-1,0.4c-0.4-0.5-1-0.9-1.7-0.9h-1.9c-0.7,0-1.2,0.5-1.2,1.2c0,0.1-0.1,0.3-0.3,0.3h0
			c-0.7,0-1.3,0.6-1.3,1.3s0.6,1.3,1.3,1.3h3.4c0.4,0,0.8-0.1,1.1-0.3v0.1c0,1.6-1.2,2.9-2.7,3.2c0.1-0.3,0.2-0.7,0.2-1.1v-0.5
			c0-0.3-0.2-0.5-0.5-0.5c-0.3,0-0.5,0.2-0.5,0.5v0.5c0,0.8-0.4,1.5-1.1,2c-0.1,0.1-0.2,0.2-0.2,0.4v2.9c0,0.1,0,0.2,0.1,0.3
			l0.2,0.2h-1.2v-3.3c0-0.1-0.1-0.3-0.1-0.3c-0.3-0.3-0.5-0.7-0.5-1.1v-1.3c0-0.3-0.2-0.5-0.5-0.5c-0.3,0-0.5,0.2-0.5,0.5v1.3
			c0,0,0,0.1,0,0.1h-4.8c0.1-0.3,0.1-0.6,0.1-0.9v-0.9c0-0.3-0.2-0.5-0.5-0.5c-0.3,0-0.5,0.2-0.5,0.5v0.9c0,0.7-0.4,1.4-1,1.7
			c-0.2,0.1-0.3,0.2-0.3,0.4v2.6c0,0.1,0,0.2,0.1,0.2l0.3,0.5h-1.5v-3.3c0,0,0-0.1,0-0.1l-0.3-1.1c0.5-0.5,0.8-1.2,0.8-2
			c0-1.6-1.3-2.8-2.8-2.8l0-0.3c0-0.9,0.4-1.8,1-2.4c0.3-0.3,0.5-0.5,0.9-0.6V67c0,0.7,0.5,1.2,1.2,1.2c0.2,0,0.3,0.1,0.4,0.2
			c0.3,0.8,1,1.3,1.8,1.3h2.5c0.7,0,1.2-0.5,1.2-1.2c0-0.2,0.1-0.3,0.3-0.3c0.8,0,1.4-0.6,1.4-1.4v-1.4h4.1c0.9,0,1.7-0.5,2.2-1.3
			c0.2-0.4,0.7-0.7,1.2-0.7c0.3,0,0.6,0.1,0.9,0.3c0.9,0.8,1.9,1.4,2.9,2c0.1,0.1,0.2,0.2,0.2,0.3V66.8z"/>
		<path d="M43.9,64.8c-0.1,0-0.2,0.1-0.3,0.1c-0.1,0.1-0.1,0.2-0.1,0.3c0,0.1,0.1,0.2,0.1,0.3c0.1,0.1,0.2,0.1,0.3,0.1
			s0.2,0,0.3-0.1c0.1-0.1,0.1-0.2,0.1-0.3c0-0.1-0.1-0.2-0.1-0.3C44.1,64.9,44,64.8,43.9,64.8z"/>
		<path d="M31.2,65.4c0.1,0,0.2-0.1,0.3-0.1c0.1-0.1,0.1-0.2,0.1-0.3c0-0.1-0.1-0.2-0.1-0.3c-0.1-0.1-0.2-0.1-0.3-0.1
			c-0.1,0-0.2,0.1-0.3,0.1c-0.1,0.1-0.1,0.2-0.1,0.3c0,0.1,0.1,0.2,0.1,0.3C31,65.3,31.1,65.4,31.2,65.4z"/>
	</g>
</g>
<g>
	<defs>
		<rect id="SVGID_9_" x="68.8" y="127.2" width="24" height="24"/>
	</defs>
	<clipPath id="SVGID_10_">
		<use xlink:href="#SVGID_9_"  style="overflow:visible;"/>
	</clipPath>
	<g class="st14">
		<path class="st11" d="M83.6,143.9h0.5c0.8,0,1.5-0.7,1.5-1.5s-0.7-1.5-1.5-1.5h-3.3l-4.6-1.7c-1.5,1.2-2.5,3-2.5,5.1
			c0,3.5,2.9,6.4,6.4,6.4h4.4c0,0,0-0.1,0-0.1c0-0.8-0.5-1.5-1.2-1.8h0.4V143.9z"/>
		<path class="st11" d="M87.4,134.9c0.2,0,0.5,0.1,0.7,0.1c2,0,3.7-1.6,3.7-3.7c0-2-1.6-3.7-3.7-3.7c-1.6,0-2.9,1-3.4,2.4
			L87.4,134.9z"/>
		<path class="st12" d="M88.1,133c0.9,0,1.7-0.8,1.7-1.7c0-0.9-0.8-1.7-1.7-1.7c-0.9,0-1.7,0.8-1.7,1.7
			C86.4,132.3,87.2,133,88.1,133z"/>
		<path class="st11" d="M74.2,134.9c-0.2,0-0.5,0.1-0.7,0.1c-2,0-3.7-1.6-3.7-3.7c0-2,1.6-3.7,3.7-3.7c1.6,0,2.9,1,3.4,2.4
			L74.2,134.9z"/>
		<path class="st12" d="M73.5,133c0.9,0,1.7-0.8,1.7-1.7c0-0.9-0.8-1.7-1.7-1.7s-1.7,0.8-1.7,1.7C71.8,132.3,72.6,133,73.5,133z"/>
		<path class="st11" d="M80.8,141c3.7,0,6.6-2.7,6.6-6c0-3.3-3-6-6.6-6c-3.7,0-6.6,2.7-6.6,6C74.2,138.3,77.1,141,80.8,141z"/>
		<path class="st15" d="M80.8,137.7c-0.7,0-1.2-0.5-1.2-1.2v-0.8c0-0.7,0.5-1.2,1.2-1.2s1.2,0.5,1.2,1.2v0.8
			C82,137.2,81.5,137.7,80.8,137.7L80.8,137.7z"/>
		<path class="st16" d="M89.1,133.6l-1.4-0.4c-0.4-0.1-0.8,0.1-0.9,0.5l-2.1,7.3c0.5,0.2,0.9,0.7,0.9,1.3c0,0.8-0.7,1.5-1.5,1.5
			h-0.2l-1.4,4.9h0.7c0.7,0.3,1.2,1,1.2,1.8c0,0,0,0.1,0,0.1c0,0,0,0,0,0c0.4,0,0.7-0.2,0.8-0.5l4.4-15.6
			C89.7,134.2,89.5,133.7,89.1,133.6L89.1,133.6z"/>
		<path class="st11" d="M87.7,141.8c0,0-0.6,1.3-2,1.7c-0.8,0.2-1.3,1.1-1.1,1.9c0.3,1.2,1.8,1,1.8,1S89.5,145.8,87.7,141.8
			L87.7,141.8z"/>
		<path d="M77.8,133.6c-0.1,0-0.2,0.1-0.3,0.1c-0.1,0.1-0.1,0.2-0.1,0.3c0,0.1,0,0.2,0.1,0.3c0.1,0.1,0.2,0.1,0.3,0.1
			s0.2-0.1,0.3-0.1c0.1-0.1,0.1-0.2,0.1-0.3c0-0.1-0.1-0.2-0.1-0.3C78.1,133.6,77.9,133.6,77.8,133.6z"/>
		<path d="M83.8,133.6c-0.1,0-0.2,0.1-0.3,0.1c-0.1,0.1-0.1,0.2-0.1,0.3c0,0.1,0.1,0.2,0.1,0.3c0.1,0.1,0.2,0.1,0.3,0.1
			s0.2-0.1,0.3-0.1c0.1-0.1,0.1-0.2,0.1-0.3c0-0.1,0-0.2-0.1-0.3C84,133.6,83.9,133.6,83.8,133.6z"/>
		<path d="M80.8,134.1c-0.9,0-1.7,0.7-1.7,1.7v0.8c0,0.9,0.7,1.7,1.7,1.7s1.7-0.7,1.7-1.7v-0.8C82.5,134.8,81.7,134.1,80.8,134.1z
			 M81.5,136.5c0,0.4-0.3,0.7-0.7,0.7c-0.4,0-0.7-0.3-0.7-0.7v-0.8c0-0.4,0.3-0.7,0.7-0.7c0.4,0,0.7,0.3,0.7,0.7V136.5z"/>
		<path d="M88.1,127.2c-1.6,0-3,0.9-3.7,2.2c-1.1-0.6-2.3-0.9-3.6-0.9c-1.3,0-2.6,0.3-3.6,0.9c-0.7-1.4-2.1-2.2-3.7-2.2
			c-2.3,0-4.1,1.9-4.1,4.1s1.8,4.1,4.1,4.1c0.1,0,0.2,0,0.2,0c0.1,1.5,0.8,2.8,1.8,3.8c-0.9,0.8-1.5,1.7-1.9,2.8
			c-0.1,0.2,0,0.5,0.3,0.6c0.1,0,0.1,0,0.2,0c0.2,0,0.4-0.1,0.4-0.3c0.3-1,0.9-1.8,1.7-2.5c1.2,1,2.9,1.6,4.6,1.6h3.3
			c0.6,0,1,0.5,1,1c0,0.6-0.5,1-1,1h-0.9c-0.3,0-0.5,0.2-0.5,0.5c0,0.3,0.2,0.5,0.5,0.5h0.1l-0.4,1.5c-0.4-1.1-1.4-1.9-2.6-1.9
			c-0.3,0-0.5,0.2-0.5,0.5c0,0.3,0.2,0.5,0.5,0.5c1,0,1.8,0.8,1.8,1.8c0,0.5-0.2,1-0.6,1.4h-0.5c-0.3,0-0.5,0.2-0.5,0.5
			c0,0.3,0.2,0.5,0.5,0.5h1.4c0.7,0,1.3,0.5,1.5,1.1h-3.8c-2.5,0-4.8-1.6-5.6-4c-0.1-0.2-0.4-0.4-0.6-0.3c-0.2,0.1-0.4,0.4-0.3,0.6
			c1,2.8,3.6,4.6,6.5,4.6c0,0,4.4,0,4.4,0c0.5,0,1-0.4,1.2-0.9l1-3.6c0.4-0.1,1.3-0.5,1.7-1.3c0.5-1,0.4-2.2-0.3-3.8c0,0,0,0,0,0
			l1.8-6.6c1.4-0.7,2.3-2.1,2.3-3.7C92.2,129.1,90.4,127.2,88.1,127.2L88.1,127.2z M73.7,134.5c-0.1,0-0.2,0-0.2,0
			c-1.8,0-3.2-1.4-3.2-3.2c0-1.8,1.4-3.2,3.2-3.2c1.2,0,2.3,0.7,2.9,1.8c-0.3,0.2-0.6,0.5-0.8,0.7c-0.3-0.9-1.1-1.5-2-1.5
			c-1.2,0-2.2,1-2.2,2.2c0,1.2,1,2.2,2.2,2.2c0.1,0,0.3,0,0.4,0C73.8,133.8,73.8,134.1,73.7,134.5z M73.5,132.5
			c-0.7,0-1.2-0.5-1.2-1.2c0-0.7,0.5-1.2,1.2-1.2c0.7,0,1.2,0.5,1.2,1.2C74.7,132,74.2,132.5,73.5,132.5z M84.7,139.2
			c-1.1,0.8-2.5,1.3-3.9,1.3c-3.4,0-6.2-2.5-6.2-5.5c0-3,2.8-5.5,6.2-5.5c2.6,0,4.9,1.5,5.8,3.7c-0.1,0.1-0.2,0.3-0.3,0.5
			L84.7,139.2z M84.8,149.9c-0.2-0.8-0.8-1.4-1.6-1.6l0.9-3.2c0,0.1,0,0.2,0,0.3c0.2,0.9,0.9,1.2,1.6,1.3L84.8,149.9z M87.6,144.9
			c-0.4,0.8-1.3,0.9-1.3,0.9c0,0,0,0,0,0c0,0-1.1,0.2-1.2-0.6c-0.1-0.6,0.2-1.2,0.8-1.3c0.8-0.2,1.4-0.7,1.7-1.1
			C87.8,143.7,87.9,144.4,87.6,144.9z M89.1,134.4l-2.1,7.5c0,0,0,0,0,0c-0.2,0.3-0.5,0.6-1,0.9c0-0.1,0-0.2,0-0.3
			c0-0.6-0.3-1.2-0.8-1.6l2-7c0-0.1,0.1-0.1,0.1-0.2c0.1,0,0.1,0,0.2,0l1.4,0.4C89.1,134.1,89.2,134.3,89.1,134.4z M86.9,131.3
			c0-0.7,0.5-1.2,1.2-1.2c0.7,0,1.2,0.5,1.2,1.2c0,0.7-0.5,1.2-1.2,1.2C87.4,132.5,86.9,132,86.9,131.3z M90,133.9
			c-0.1-0.3-0.4-0.6-0.8-0.7c0.6-0.4,1.1-1.1,1.1-1.9c0-1.2-1-2.2-2.2-2.2c-1,0-1.8,0.6-2,1.5c-0.3-0.3-0.5-0.5-0.8-0.7
			c0.5-1.1,1.6-1.8,2.9-1.8c1.8,0,3.2,1.4,3.2,3.2C91.3,132.4,90.8,133.3,90,133.9z"/>
		<path d="M73.7,144.8c-0.1,0-0.2-0.1-0.3-0.1c-0.1-0.1-0.1-0.2-0.1-0.3s0.1-0.2,0.1-0.3c0.1-0.1,0.2-0.1,0.3-0.1s0.2,0.1,0.3,0.1
			c0.1,0.1,0.1,0.2,0.1,0.3s0,0.2-0.1,0.3C73.9,144.8,73.8,144.8,73.7,144.8z"/>
	</g>
</g>
<g>
	<defs>
		<rect id="SVGID_11_" x="112" y="127.2" width="24" height="24"/>
	</defs>
	<clipPath id="SVGID_12_">
		<use xlink:href="#SVGID_11_"  style="overflow:visible;"/>
	</clipPath>
	<g class="st17">
		<path class="st18" d="M128.6,133.9c-0.6-0.6-0.9-1.3-0.9-2.2c0-0.6,0.5-1,1-1h3.2l-1.7-2c-0.5-0.6-1.2-1-2-1
			c-1.4,0-2.6,1.2-2.6,2.6v0.4v1c0,1.4,0.5,2.7,1.5,3.6l1.6,1.6c0.2,0.2,0.4,0.5,0.4,0.9c0,0.7-0.5,1.4-1.3,1.4h0
			c-0.5,0-1-0.3-1.3-0.8c-0.9-1.7-2.7-2.9-4.8-2.9c-1.6,0-3.1,0.7-4.1,1.9l-3.4,3.9h11.5h1.4h0.7c1.8,0,3.3-1.5,3.3-3.4
			c0-0.9-0.4-1.8-1-2.4L128.6,133.9z"/>
		<path class="st9" d="M130.6,128.8h1.8c0.7,0,1.3,0.6,1.3,1.3v1.8l-0.6-0.7c-0.3-0.3-0.7-0.5-1.2-0.5L130.6,128.8z"/>
		<path d="M132.5,128.3h-1.8c-0.6-0.7-1.5-1.1-2.4-1.1c-1.7,0-3.1,1.4-3.1,3.1v1.4c0,1.5,0.6,2.9,1.7,4l1.6,1.6
			c0.2,0.2,0.3,0.4,0.3,0.6c0,0.2-0.1,0.4-0.2,0.6c-0.2,0.2-0.4,0.3-0.6,0.3c-0.4,0-0.7-0.2-0.9-0.5c-0.6-1.2-1.7-2.2-3-2.7
			c-0.2-0.1-0.5,0-0.6,0.3c-0.1,0.2,0,0.5,0.3,0.6c1.1,0.4,2,1.3,2.5,2.3c0.3,0.6,1,1,1.7,1c0.5,0,0.9-0.2,1.3-0.6
			c0.3-0.4,0.5-0.8,0.5-1.3c0-0.4-0.2-0.9-0.5-1.2l-1.6-1.6c-0.9-0.9-1.4-2.1-1.4-3.3v-1.4c0-1.2,1-2.1,2.1-2.1
			c0.6,0,1.3,0.3,1.7,0.8l1,1.3h-2.2c-0.8,0-1.5,0.7-1.5,1.5c0,0.9,0.4,1.8,1,2.5l1.6,1.6c0.6,0.5,0.9,1.3,0.9,2.1
			c0,1.6-1.3,2.9-2.9,2.9h-4.6l1.3-1.3c0.2-0.2,0.2-0.5,0-0.7s-0.5-0.2-0.7,0l-1.9,1.9h-1.3l1.3-1.3c0.2-0.2,0.2-0.5,0-0.7
			s-0.5-0.2-0.7,0l-1.9,1.9H118l1.3-1.3c0.2-0.2,0.2-0.5,0-0.7s-0.5-0.2-0.7,0l-1.9,1.9h-1.4l2.7-3.1c0.5-0.6,1.1-1,1.9-1.3
			c0.2-0.1,0.4-0.4,0.3-0.6c-0.1-0.2-0.4-0.4-0.6-0.3c-0.8,0.3-1.6,0.9-2.2,1.6l-3.4,3.9c-0.1,0.1-0.1,0.3-0.1,0.5
			c0.1,0.2,0.2,0.3,0.4,0.3h8.4l-1.1,2.5c0,0.1,0,0.2,0,0.4c0,0.1,0.1,0.2,0.3,0.3l2.9,1.2v3.6c0,0.1,0,0.2,0.1,0.3l1,1.1
			c0.1,0.1,0.2,0.2,0.3,0.2c0.1,0,0.2,0,0.3-0.1c0.2-0.2,0.2-0.5,0-0.7l-0.9-1v-3l1.3,0.5v0.9c0,0.3,0.2,0.5,0.5,0.5
			c0.3,0,0.5-0.2,0.5-0.5v-1.2c0-0.2-0.1-0.4-0.3-0.4l-1.9-0.8v-3.7h2.2c2.1,0,3.8-1.7,3.8-3.8c0-1-0.4-2-1.1-2.7l-1.6-1.6
			c-0.5-0.5-0.8-1.1-0.8-1.8c0-0.3,0.3-0.6,0.6-0.6h3.2c0.3,0,0.6,0.1,0.8,0.4l0.6,0.7c0.1,0.1,0.2,0.2,0.3,0.2c0.1,0,0.1,0,0.2,0
			c0.2-0.1,0.3-0.2,0.3-0.4v-1.8C134.2,129.1,133.4,128.3,132.5,128.3L132.5,128.3z M124.7,145l-2.1-0.9l1-2.4h1.1V145z
			 M133.3,130.7c-0.3-0.3-0.7-0.4-1.1-0.5l-0.8-1h1.1c0.5,0,0.8,0.4,0.8,0.8V130.7L133.3,130.7z"/>
		<path d="M121.8,135.9c0.1,0,0.2-0.1,0.3-0.1c0.1-0.1,0.1-0.2,0.1-0.3c0-0.1,0-0.2-0.1-0.3c-0.1-0.1-0.2-0.1-0.3-0.1
			c-0.1,0-0.2,0.1-0.3,0.1c-0.1,0.1-0.1,0.2-0.1,0.3c0,0.1,0.1,0.2,0.1,0.3C121.5,135.8,121.6,135.9,121.8,135.9z"/>
	</g>
</g>
<g>
	<defs>
		<rect id="SVGID_13_" x="24" y="127.2" width="24" height="24"/>
	</defs>
	<clipPath id="SVGID_14_">
		<use xlink:href="#SVGID_13_"  style="overflow:visible;"/>
	</clipPath>
	<g class="st19">
		<path class="st20" d="M38.8,134.5l2.7-2.3c0.6-0.5,1.4-0.8,2.1-0.9l0.5-1.3h-1.4c-1.6,0-3.2,0.5-4.5,1.5c-1,0.8-1.9,1.8-2.4,3
			l-0.6,1.3h0.6C37,135.6,38,135.2,38.8,134.5L38.8,134.5z"/>
		<path class="st20" d="M27.2,144.1l-0.2-2c-0.1-0.6-0.4-1.2-0.7-1.7c-0.2-0.4-0.4-1-0.4-1.5c0-0.7,0.2-1.3,0.6-1.8l0,0
			c-1.2,0-2.1,0.9-2.1,2.1v5c0,1.2,0.6,2.3,1.5,3l0,0C26.8,146.3,27.2,145.2,27.2,144.1L27.2,144.1L27.2,144.1z"/>
		<path class="st20" d="M32.3,142h-2.1l-1,2.8v3.3l0.2,0.5c0.1,0.2,0,0.4-0.2,0.5v0H31c0.3,0,0.4-0.3,0.3-0.5l-0.2-0.5v-3.3
			L32.3,142z"/>
		<path class="st20" d="M34.8,142l-1.5,6.6c-0.1,0.3,0.1,0.5,0.4,0.5h1.4c0.3,0,0.5-0.3,0.4-0.6l-0.2-0.3l1.6-5.9L34.8,142z"/>
		<path class="st21" d="M47.2,134l-1.7-2.1c-0.4-0.4-0.9-0.7-1.5-0.7c-0.9,0-1.8,0.3-2.5,0.9l-2.7,2.3c-0.9,0.8-2,1.2-3.2,1.2h-6.4
			c-1.8,0-3.2,1.4-3.2,3.2c0,0.5,0.1,1.1,0.4,1.5c0.5,1,0.9,2.1,0.9,3.2v5.2c0,0.2,0.2,0.3,0.3,0.3h1.5c0.3,0,0.4-0.3,0.3-0.5
			l-0.2-0.5v-3.3l1-2.8h6.3c0.6,0,1.1,0.5,1.1,1.1v5.6c0,0.2,0.2,0.3,0.3,0.3h1.5c0.3,0,0.4-0.3,0.3-0.5l-0.2-0.5v-3.5
			c0-1.3,0.7-2.5,1.8-3.1c0.9-0.6,1.5-1.6,1.5-2.8v-1.1l1.2-2.1l1.7,0.7c0.7,0.3,1.4,0,1.7-0.6C47.6,135,47.6,134.4,47.2,134
			L47.2,134z"/>
		<path d="M44.6,133.7c0.1-0.1,0.1-0.2,0.1-0.3c0-0.1-0.1-0.2-0.1-0.3c-0.1-0.1-0.2-0.1-0.3-0.1s-0.2,0.1-0.3,0.1
			c-0.1,0.1-0.1,0.2-0.1,0.3c0,0.1,0.1,0.2,0.1,0.3c0.1,0.1,0.2,0.1,0.3,0.1S44.5,133.8,44.6,133.7z"/>
		<path d="M47.6,133.6l-1.7-2.1c0,0,0,0,0,0c-0.2-0.3-0.5-0.4-0.8-0.6v-1.7c0-0.2-0.1-0.4-0.3-0.4c-0.2-0.1-0.4,0-0.5,0.2l-0.3,0.4
			h-1.2c-1.7,0-3.4,0.5-4.8,1.6c-1.1,0.8-2,1.9-2.6,3.1l-0.5,1h-1.5c-0.3,0-0.5,0.2-0.5,0.5c0,0.3,0.2,0.5,0.5,0.5h2.2
			c1.3,0,2.5-0.5,3.5-1.3l2.7-2.3c0.6-0.5,1.4-0.8,2.2-0.8c0.4,0,0.8,0.2,1.1,0.5l1.7,2.1c0,0,0,0,0,0c0.2,0.3,0.3,0.7,0.1,1
			c-0.2,0.4-0.7,0.6-1.1,0.4l-1.7-0.7c-0.2-0.1-0.5,0-0.6,0.2l-1.2,2.1c0,0.1-0.1,0.2-0.1,0.2v1.1c0,1-0.5,1.9-1.3,2.4
			c-1.2,0.8-2,2.1-2,3.5v3.5c0,0.1,0,0.1,0,0.2l0.1,0.3H38v-5.5c0-0.9-0.7-1.6-1.6-1.6h-5.6l0.3-0.7c0.1-0.2,0-0.5-0.3-0.6
			c-0.2-0.1-0.5,0-0.6,0.3l-1.5,4.1c0,0.1,0,0.1,0,0.2v3.3c0,0.1,0,0.1,0,0.2l0.1,0.3h-1.1v-5c0-1.2-0.3-2.4-0.9-3.5
			c-0.2-0.4-0.3-0.8-0.3-1.3c0-0.7,0.3-1.4,0.8-1.9c0.5-0.5,1.2-0.8,2-0.8c0.3,0,0.5-0.2,0.5-0.5s-0.2-0.5-0.5-0.5
			c-1,0-1.9,0.4-2.6,1.1c-0.1,0.1-0.2,0.2-0.2,0.3c-1.3,0.1-2.3,1.2-2.3,2.6v5c0,1.3,0.6,2.6,1.7,3.4c0.1,0.1,0.2,0.1,0.3,0.1
			c0.1,0,0.2,0,0.3-0.1l0,0c0.2-0.2,0.3-0.3,0.4-0.5v1.8c0,0.4,0.4,0.8,0.8,0.8H31c0.3,0,0.5-0.1,0.7-0.4c0.1-0.2,0.2-0.5,0-0.8
			l-0.2-0.4v-3.1l1.1-2.4h1.6l-1.4,6c-0.1,0.3,0,0.5,0.2,0.8c0.2,0.2,0.4,0.3,0.7,0.3h1.4c0.3,0,0.6-0.2,0.8-0.4
			c0.2-0.3,0.2-0.6,0-0.9l-0.1-0.2l1.2-4.6v5.2c0,0.4,0.4,0.8,0.8,0.8h1.5c0.3,0,0.5-0.1,0.7-0.4c0.1-0.2,0.2-0.5,0-0.8l-0.2-0.4
			v-3.4c0-1.1,0.6-2.1,1.5-2.7c1.1-0.7,1.8-1.9,1.8-3.2v-1l0.9-1.7l1.3,0.5c0.9,0.4,1.9,0,2.3-0.8C48.1,135,48,134.2,47.6,133.6
			L47.6,133.6z M41.2,131.8l-2.7,2.3c-0.7,0.6-1.6,1-2.5,1.1l0.3-0.6c0.5-1.1,1.3-2.1,2.3-2.8c1.2-0.9,2.7-1.4,4.2-1.4h0.5l-0.3,0.5
			C42.3,131,41.7,131.3,41.2,131.8z M25.9,146.5c-0.6-0.6-1-1.5-1-2.4v-5c0-0.6,0.3-1.1,0.7-1.4c-0.1,0.4-0.2,0.7-0.2,1.1
			c0,0.6,0.2,1.2,0.5,1.7c0.5,0.9,0.8,2,0.8,3v0.5C26.8,144.9,26.5,145.8,25.9,146.5L25.9,146.5z M30.6,144.6c0,0.1,0,0.1,0,0.2v3.3
			c0,0.1,0,0.1,0,0.2l0.1,0.3h-0.9c0-0.1,0-0.2-0.1-0.2l-0.2-0.4v-3.1l0.9-2.4h1.1L30.6,144.6z M34.9,148c0,0.1,0,0.2,0,0.3l0.1,0.3
			h-1.3l1.4-6.2h1.2L34.9,148z"/>
		<path d="M31.3,136.1c0.1,0,0.2-0.1,0.3-0.1c0.1-0.1,0.1-0.2,0.1-0.3c0-0.1-0.1-0.2-0.1-0.3c-0.1-0.1-0.2-0.1-0.3-0.1
			c-0.1,0-0.2,0-0.3,0.1c-0.1,0.1-0.1,0.2-0.1,0.3c0,0.1,0,0.2,0.1,0.3C31.1,136.1,31.2,136.1,31.3,136.1z"/>
	</g>
</g>
<g>
	<defs>
		<rect id="SVGID_15_" x="24" y="24" width="24" height="24"/>
	</defs>
	<clipPath id="SVGID_16_">
		<use xlink:href="#SVGID_15_"  style="overflow:visible;"/>
	</clipPath>
	<g class="st22">
		<path class="st23" d="M33.1,44.3v-3h-2.4v3.1l0.3,0.6c0.2,0.3,0,0.6-0.3,0.7v0H33c0.3,0,0.6-0.4,0.4-0.7L33.1,44.3z"/>
		<path class="st23" d="M42.6,44.3v-4.1c-0.5,0.5-1.1,0.9-1.9,1l-0.6,0.1v3.1l0.3,0.5c0.2,0.3,0,0.6-0.3,0.7v0h2.3
			c0.4,0,0.6-0.4,0.4-0.7L42.6,44.3z"/>
		<path class="st24" d="M25.4,42.4c0.6-0.5,0.9-1.2,0.9-1.9c0-0.5-0.4-0.9-0.9-0.9c-0.5,0-0.9,0.4-0.9,0.9
			C24.5,41.2,24.8,41.9,25.4,42.4z"/>
		<path class="st24" d="M42.6,39.1c-0.8,0.5-1.8,0.5-2.6,0l-1.9-1.2c0,0,0,0,0,0c-0.5-0.3-0.9-0.9-0.9-1.6v-0.1l-0.5,0.5
			c-1-1.1-1.5-2.4-1.6-3.7h-2.4c-2.5,0-4.6,2.1-4.6,4.6v7.5c0,0.3,0.2,0.5,0.5,0.5h2c0.4,0,0.6-0.4,0.4-0.7l-0.3-0.6v-3h6.9v3.9
			c0,0.3,0.2,0.5,0.5,0.5h2c0.4,0,0.6-0.4,0.4-0.7l-0.3-0.6v-3l0.6-0.1c1.4-0.2,2.4-1.2,2.7-2.6c0,0,0,0,0,0l0,0L42.6,39.1z"/>
		<path class="st23" d="M37.2,36.3l-0.5,0.5c-2.2-2.4-2.2-6.2,0.2-8.6c2.4-2.4,6.4-2.4,8.8,0c2.4,2.4,2.4,6.2,0.2,8.6l-0.5-0.5v0.1
			c0,0.6-0.3,1.2-0.9,1.6c0,0,0,0,0,0l-1.9,1.2c-0.8,0.5-1.8,0.5-2.6,0l-1.9-1.2c0,0,0,0,0,0c-0.5-0.3-0.9-0.9-0.9-1.6V36.3z"/>
		<path class="st25" d="M40.2,36.2l-0.7-0.4c-1.9-1.2-2.3-3.9-0.7-5.5c1.4-1.4,3.6-1.4,4.9,0c1.6,1.6,1.3,4.3-0.7,5.5l-0.7,0.4
			C41.7,36.6,40.9,36.6,40.2,36.2z"/>
		<path d="M45.5,30.6c0-0.3-0.1-0.6-0.3-0.8c-0.2-0.2-0.5-0.3-0.8-0.3c-0.2,0-0.4,0.1-0.6,0.2c-1.4-1.1-3.5-1.1-4.9,0
			c-0.4-0.3-1-0.2-1.4,0.2c-0.4,0.4-0.4,1.2,0,1.6c0,0,0.1,0.1,0.1,0.1c-0.2,0.5-0.2,1.1-0.2,1.7c0.1,1.2,0.8,2.3,1.9,2.9l0.7,0.4
			l0,0c0.4,0.2,0.9,0.4,1.3,0.4c0.5,0,0.9-0.1,1.3-0.4l0.7-0.4c1.1-0.6,1.7-1.7,1.9-2.9c0.1-0.6,0-1.2-0.2-1.7c0,0,0.1-0.1,0.1-0.1
			C45.4,31.2,45.5,30.9,45.5,30.6z M44.3,33.1c-0.1,0.9-0.6,1.7-1.4,2.2l-0.7,0.4c-0.5,0.3-1.2,0.3-1.7,0l-0.7-0.4
			c-0.8-0.5-1.3-1.3-1.4-2.2c-0.1-0.9,0.2-1.8,0.9-2.5c0.6-0.6,1.4-0.9,2.1-0.9c0.8,0,1.5,0.3,2.1,0.9
			C44.1,31.3,44.4,32.2,44.3,33.1z"/>
		<path d="M48,32.5c0-1.8-0.7-3.4-2-4.6c-2-2-5.1-2.5-7.7-1.3c-0.2,0.1-0.3,0.4-0.2,0.6c0.1,0.2,0.4,0.3,0.6,0.2
			c2.2-1.1,4.9-0.6,6.6,1.1c2.1,2.1,2.3,5.3,0.5,7.6l-0.2-0.2c-0.1-0.1-0.3-0.2-0.5-0.1c-0.2,0.1-0.3,0.2-0.3,0.4v0.1
			c0,0.5-0.2,0.9-0.7,1.2l-1.9,1.2c-0.7,0.4-1.5,0.4-2.1,0l-1.9-1.2l0,0c-0.4-0.2-0.7-0.7-0.7-1.2v-0.1c0-0.2-0.1-0.4-0.3-0.4
			c-0.2-0.1-0.4,0-0.5,0.1l-0.2,0.2c-1.3-1.7-1.5-4.1-0.6-6c0.1-0.2,0-0.5-0.2-0.6c-0.2-0.1-0.5,0-0.6,0.2c-0.4,0.9-0.7,1.9-0.7,2.9
			h-1.9c-1.8,0-3.4,1-4.3,2.4c-0.4-0.4-0.9-0.7-1.4-0.7c-1.1,0-1.9,0.9-1.9,1.9v2.9c-0.5,0.2-0.9,0.7-0.9,1.3c0,0.9,0.4,1.7,1.1,2.3
			c0.1,0.1,0.2,0.1,0.3,0.1c0.1,0,0.2,0,0.3-0.1c0.7-0.5,1.1-1.4,1.1-2.3c0-0.6-0.4-1.1-0.9-1.3v-2.9c0-0.5,0.4-1,1-1
			c0.5,0,0.9,0.3,1,0.8c0,0,0,0,0,0c-0.2,0.5-0.3,1-0.3,1.6v7.5c0,0.5,0.4,1,1,1H33c0.3,0,0.6-0.2,0.8-0.5c0.2-0.3,0.2-0.6,0-0.9
			l-0.3-0.5v-2.5h3.5v3.4c0,0.5,0.4,1,1,1h4.5c0.3,0,0.6-0.2,0.8-0.4c0.2-0.3,0.2-0.6,0-0.9l-0.3-0.6v-3.8c0.4-0.4,0.6-1,0.8-1.6
			l0.9-0.5c0,0,0,0,0,0c0.4-0.3,0.8-0.7,0.9-1.1c0.1,0,0.1,0.1,0.2,0.1c0.1,0,0.2-0.1,0.3-0.2C47.4,35.8,48,34.2,48,32.5L48,32.5z
			 M25.4,41.7c-0.3-0.4-0.5-0.8-0.5-1.3c0-0.3,0.2-0.5,0.5-0.5c0.3,0,0.5,0.2,0.5,0.5C25.9,40.9,25.7,41.4,25.4,41.7z M32.7,44.6
			l0.3,0.6h-1.5c0-0.1,0-0.3-0.1-0.4l-0.3-0.5v-2.5h1.5v2.6C32.6,44.4,32.6,44.5,32.7,44.6L32.7,44.6z M38,45.2v-3.9
			c0-0.3-0.2-0.5-0.5-0.5h-5.2c0.8-0.5,1.3-1.5,1.3-2.5c0-0.3-0.2-0.5-0.5-0.5c-0.3,0-0.5,0.2-0.5,0.5c0,1.1-0.9,2.1-2.1,2.1
			c0,0,0,0,0,0c0,0,0,0,0,0c-0.3,0-0.5,0.2-0.5,0.5v3.5c0,0.1,0,0.2,0.1,0.2l0.3,0.6h-2.1c0,0,0,0,0,0v-7.5c0-2.3,1.8-4.1,4.1-4.1h2
			c0,0,0,0,0,0c0.2,1.3,0.8,2.6,1.7,3.5c0.1,0.1,0.2,0.2,0.3,0.2c0.1,0,0.2,0,0.2-0.1c0.2,0.5,0.5,0.9,0.9,1.1l1.9,1.2
			c0.5,0.3,1,0.4,1.6,0.4c0.4,0,0.8-0.1,1.2-0.2c-0.5,0.7-1.4,1.2-2.3,1.2c-0.3,0-0.5,0.2-0.5,0.5v3c0,0.1,0,0.2,0.1,0.2l0.3,0.6
			L38,45.2C38,45.2,38,45.2,38,45.2L38,45.2z M41,45.2c0-0.1,0-0.3-0.1-0.4l-0.3-0.5v-2.4c0.5-0.1,1.1-0.3,1.5-0.5v3.1
			c0,0.1,0,0.2,0.1,0.2l0.3,0.6L41,45.2L41,45.2z"/>
		<path d="M42.7,31.9h-0.5c-0.3,0-0.5,0.2-0.5,0.5v1.1l-0.5,0.3l-0.5-0.3v-1.1c0-0.3-0.2-0.5-0.5-0.5h-0.5c-0.3,0-0.5,0.2-0.5,0.5
			c0,0.3,0.2,0.5,0.5,0.5v0.9c0,0.2,0.1,0.3,0.2,0.4l0.9,0.5c0.1,0,0.1,0.1,0.2,0.1c0.1,0,0.2,0,0.2-0.1l0.9-0.5
			c0.2-0.1,0.2-0.2,0.2-0.4v-0.9c0.3,0,0.5-0.2,0.5-0.5C43.2,32.1,42.9,31.9,42.7,31.9z"/>
		<path d="M36.9,28.6c0.1,0,0.2-0.1,0.3-0.1c0.1-0.1,0.1-0.2,0.1-0.3s0-0.2-0.1-0.3c-0.1-0.1-0.2-0.1-0.3-0.1
			c-0.1,0-0.2,0.1-0.3,0.1c-0.1,0.1-0.1,0.2-0.1,0.3s0.1,0.2,0.1,0.3C36.6,28.6,36.7,28.6,36.9,28.6L36.9,28.6z"/>
	</g>
</g>
<g>
	<defs>
		<rect id="SVGID_17_" x="68" y="58.4" width="24" height="24"/>
	</defs>
	<clipPath id="SVGID_18_">
		<use xlink:href="#SVGID_17_"  style="overflow:visible;"/>
	</clipPath>
	<g class="st26">
		<path class="st27" d="M76.1,75.4l-0.4,1.9c0.4,0.5,0.7,1.1,0.7,1.8h2.1c0-0.6-0.2-1.3-0.7-1.8c0,0,0.2-1.2,0.3-1.9L76.1,75.4z"/>
		<path class="st27" d="M85,75.4l-0.4,1.9c0.4,0.5,0.7,1.1,0.7,1.8h2.1c0-0.6-0.2-1.3-0.7-1.8c0,0,0.3-2.1,0.4-2.8L85,75.4z"/>
		<path class="st18" d="M76.1,75.4C76.1,75.4,76.1,75.4,76.1,75.4C76.1,75.4,76.1,75.4,76.1,75.4z"/>
		<path class="st18" d="M76.1,75.4C76.1,75.4,76.1,75.4,76.1,75.4C76.1,75.4,76.1,75.4,76.1,75.4z"/>
		<path class="st18" d="M88.9,66.4c-0.6-0.9-1.4-1.6-2.3-2.1l0.7-2.5c-1.4-0.4-2.9,0.5-3.3,1.9h-7.9c-3.2,0-5.8,2.6-5.8,5.8
			c0,1.6,0.6,3,1.7,4.1c1,1,1.6,2.4,1.6,3.9v1c0,0.2,0.2,0.4,0.4,0.4h2.3c0-0.6-0.2-1.3-0.7-1.8l0.4-1.9h6.4v3.2
			c0,0.2,0.2,0.4,0.4,0.4h2.3c0-0.6-0.2-1.3-0.7-1.8c0,0,0.2-1.2,0.3-1.9c2.3-0.3,4.1-2,4.7-4.2l1.9-1.1v-2.7h-1
			C89.9,67.3,89.3,67,88.9,66.4z"/>
		<path class="st18" d="M76.1,75.4C76.1,75.4,76.1,75.4,76.1,75.4L76.1,75.4z"/>
		<path d="M86.5,68.3c-0.1,0-0.2-0.1-0.3-0.1c-0.1-0.1-0.1-0.2-0.1-0.3c0-0.1,0.1-0.2,0.1-0.3c0.1-0.1,0.2-0.1,0.3-0.1
			c0.1,0,0.2,0,0.3,0.1c0.1,0.1,0.1,0.2,0.1,0.3c0,0.1-0.1,0.2-0.1,0.3C86.8,68.2,86.7,68.3,86.5,68.3z"/>
		<path d="M79.8,64.2c-0.1,0-0.2,0-0.3-0.1c-0.1-0.1-0.1-0.2-0.1-0.3c0-0.1,0.1-0.2,0.1-0.3c0.1-0.1,0.2-0.1,0.3-0.1
			c0.1,0,0.2,0,0.3,0.1c0.1,0.1,0.1,0.2,0.1,0.3c0,0.1-0.1,0.2-0.1,0.3C80,64.2,79.9,64.2,79.8,64.2L79.8,64.2z"/>
		<path d="M91.5,66.9h-1c-0.5,0-1-0.3-1.2-0.7c-0.5-0.9-1.3-1.6-2.2-2.1l0.6-2.1c0.1-0.3-0.1-0.5-0.3-0.6c-1.5-0.4-3.1,0.4-3.7,1.9
			h-1.8c-0.3,0-0.5,0.2-0.5,0.5c0,0.3,0.2,0.5,0.5,0.5H84c0.2,0,0.4-0.1,0.5-0.3c0.3-1,1.2-1.7,2.2-1.6l-0.5,2
			c-0.1,0.2,0,0.4,0.2,0.5c0.9,0.4,1.6,1.1,2.1,1.9c0.4,0.7,1.2,1.1,2,1.1h0.5v2l-1.7,1c-0.1,0.1-0.2,0.2-0.2,0.3
			c-0.6,2-2.3,3.5-4.3,3.8c-0.2,0-0.4,0.2-0.4,0.4l-0.3,1.9c0,0.1,0,0.3,0.1,0.4c0.2,0.3,0.4,0.6,0.5,1H83v-4.8
			c0-0.3-0.2-0.5-0.5-0.5S82,73.5,82,73.8v1.1h-4c0.4-0.4,0.6-1,0.6-1.6c0-0.3-0.2-0.5-0.5-0.5s-0.5,0.2-0.5,0.5
			c0,0.9-0.7,1.6-1.6,1.6c-0.2,0-0.4,0.2-0.5,0.4l-0.4,1.9c0,0.1,0,0.3,0.1,0.4c0.2,0.3,0.4,0.6,0.5,1h-1.7v-1
			c0-1.6-0.6-3.1-1.8-4.3c-1-1-1.5-2.3-1.5-3.8c0-2.9,2.4-5.3,5.3-5.3h1.6c0.3,0,0.5-0.2,0.5-0.5c0-0.3-0.2-0.5-0.5-0.5h-1.6
			c-2.5,0-4.6,1.4-5.6,3.5C70.3,66.9,70,67,69.7,67c-0.2,0-0.4-0.1-0.6-0.3c-0.1-0.2-0.2-0.4-0.2-0.6c0-0.3,0.3-0.6,0.6-0.5
			c0.3,0,0.5-0.2,0.5-0.4c0-0.3-0.2-0.5-0.4-0.5c-0.8-0.1-1.6,0.6-1.6,1.4c0,0.5,0.1,0.9,0.4,1.3c0.3,0.4,0.7,0.6,1.2,0.6
			c0.1,0,0.1,0,0.2,0c0.1,0,0.2,0,0.2,0c-0.1,0.5-0.2,1.1-0.2,1.6c0,1.7,0.6,3.2,1.8,4.4c1,1,1.5,2.3,1.5,3.6v1
			c0,0.5,0.4,0.9,0.9,0.9h4.4c0.3,0,0.5-0.2,0.5-0.5c0-0.7-0.2-1.4-0.6-1.9l0.2-1.3H82v2.7c0,0.5,0.4,0.9,0.9,0.9h4.4
			c0.3,0,0.5-0.2,0.5-0.5c0-0.7-0.2-1.4-0.6-1.9c0.1-0.5,0.2-1.7,0.3-2.3c1.2-0.8,2.1-1.9,2.5-3.3l1.8-1c0.1-0.1,0.2-0.2,0.2-0.4
			v-2.7C92,67.1,91.8,66.9,91.5,66.9L91.5,66.9z M76.8,78.6c-0.1-0.5-0.3-1-0.6-1.4l0.3-1.3h1.1l-0.2,1.3c0,0.1,0,0.3,0.1,0.4
			c0.2,0.3,0.4,0.6,0.5,1H76.8z M85.7,78.6c-0.1-0.5-0.3-1-0.6-1.4l0.2-1.4c0.4-0.1,0.8-0.2,1.2-0.4c-0.1,0.8-0.2,1.8-0.3,1.9
			c0,0.1,0,0.3,0.1,0.4c0.2,0.3,0.4,0.6,0.5,1H85.7z"/>
	</g>
</g>
<g>
	<defs>
		<rect id="SVGID_19_" x="24" y="92.8" width="24" height="24"/>
	</defs>
	<clipPath id="SVGID_20_">
		<use xlink:href="#SVGID_19_"  style="overflow:visible;"/>
	</clipPath>
	<g class="st28">
		<path class="st12" d="M38,103.1c-1,1.5-2.6,2.5-4.4,2.5c-2.9,0-5.3-2.4-5.3-5.3v0h-1.9c0,5.8,4.7,10.5,10.5,10.5h0.6
			c4.5,0,8.3-2.8,9.9-6.8c0.7-1.8-0.7-3.8-2.6-3.8h-1.6C41.1,100.3,39.1,101.3,38,103.1L38,103.1z"/>
		<path class="st9" d="M38,103.1c-1,1.5-2.6,2.5-4.4,2.5c-2.9,0-5.3-2.4-5.3-5.3v0h-1.9c0,3.7,1.9,6.9,4.8,8.8l1.1-0.7
			c1.5-1,3.3-1.5,5.1-1.5c3.7,0,6.7-3,6.7-6.7h-1C41.1,100.3,39.1,101.3,38,103.1L38,103.1z"/>
		<path class="st9" d="M24.5,98.1H26c0.8,0,1.5,0.7,1.5,1.5v0.6h-1C25.4,100.3,24.5,99.3,24.5,98.1L24.5,98.1z"/>
		<path class="st9" d="M30.6,98.1h-1.5c-0.8,0-1.5,0.7-1.5,1.5v0.6h1C29.7,100.3,30.6,99.3,30.6,98.1L30.6,98.1z"/>
		<path d="M40.9,103.6c-0.1,0-0.2-0.1-0.3-0.1c-0.1-0.1-0.1-0.2-0.1-0.3c0-0.1,0.1-0.2,0.1-0.3c0.1-0.1,0.2-0.1,0.3-0.1
			c0.1,0,0.2,0,0.3,0.1c0.1,0.1,0.1,0.2,0.1,0.3c0,0.1-0.1,0.2-0.1,0.3C41.1,103.5,41,103.6,40.9,103.6z"/>
		<path class="st9" d="M40.2,106.3l-1.7,0.7c-1.7,0.7-2.4,2.7-1.7,4.4l1.7-0.7C40.2,110,41,108,40.2,106.3z"/>
		<path d="M47.4,101.2c-0.6-0.9-1.6-1.4-2.7-1.4h-1.6c-1.4,0-2.8,0.5-4,1.4c-0.2,0.2-0.2,0.5-0.1,0.7s0.5,0.2,0.7,0.1
			c1-0.7,2.2-1.2,3.4-1.2h0.5c-0.2,3.2-2.9,5.8-6.2,5.8c-1.9,0-3.8,0.5-5.4,1.5l-0.8,0.5c-2.5-1.7-4.2-4.6-4.3-7.8h1
			c0.2,2.9,2.7,5.3,5.7,5.3c1.2,0,2.3-0.4,3.3-1c0.2-0.1,0.3-0.4,0.1-0.7c-0.1-0.2-0.4-0.3-0.7-0.1c-0.8,0.6-1.7,0.8-2.7,0.8
			c-2.5,0-4.5-1.9-4.8-4.3c1.3-0.1,2.3-1.2,2.3-2.6c0-0.3-0.2-0.5-0.5-0.5h-1.5c-0.6,0-1.2,0.3-1.5,0.7c-0.4-0.4-0.9-0.7-1.5-0.7
			h-1.5c-0.3,0-0.5,0.2-0.5,0.5c0,1.2,0.8,2.2,1.9,2.5c0.1,2.7,1.2,5.3,3.1,7.3c1.9,2,4.5,3.2,7.3,3.3c0,0.1,0.1,0.3,0.2,0.4
			c0.1,0.2,0.2,0.3,0.4,0.3c0.1,0,0.1,0,0.2,0l1.5-0.7c2-0.2,4-1,5.6-2.2c1.6-1.2,2.9-2.9,3.6-4.8C48.2,103.2,48,102.1,47.4,101.2
			L47.4,101.2z M29.1,98.6h1c-0.2,0.7-0.8,1.2-1.6,1.2H28v-0.1C28,99.1,28.5,98.6,29.1,98.6L29.1,98.6z M25,98.6h1c0.6,0,1,0.5,1,1
			v0.1h-0.5C25.8,99.8,25.2,99.3,25,98.6L25,98.6z M44.6,100.7h0.2c0.3,0,0.6,0.1,0.8,0.2c-0.2,2.9-2,5.5-4.6,6.7
			c0-0.4-0.1-0.7-0.2-1C42.9,105.4,44.4,103.2,44.6,100.7L44.6,100.7z M36.1,110.3c-1.5-0.1-2.9-0.5-4.1-1.2l0.4-0.3
			c0.2-0.1,0.4-0.2,0.6-0.3c1,0.5,2,0.7,3.1,0.8C36.2,109.6,36.1,110,36.1,110.3z M36.5,108.4c-0.8,0-1.5-0.2-2.2-0.4
			c0.9-0.3,1.9-0.5,2.9-0.5C37,107.7,36.7,108,36.5,108.4z M39.9,108.7c-0.3,0.7-0.8,1.3-1.5,1.6l-1.2,0.5c-0.2-0.6-0.1-1.2,0.1-1.7
			c0.3-0.7,0.8-1.3,1.5-1.6L40,107C40.1,107.5,40.1,108.1,39.9,108.7z M46.9,103.8c-1.1,3-3.7,5.2-6.7,6.1c0.2-0.3,0.4-0.6,0.5-0.9
			c0-0.1,0.1-0.2,0.1-0.4c1.6-0.6,2.9-1.7,3.9-3.1c0.9-1.2,1.5-2.7,1.7-4.2c0.1,0.1,0.1,0.2,0.2,0.3
			C47.1,102.4,47.2,103.1,46.9,103.8L46.9,103.8z"/>
		<path d="M38,103.5c-0.1,0-0.2-0.1-0.3-0.1c-0.1-0.1-0.1-0.2-0.1-0.3c0-0.1,0.1-0.2,0.1-0.3c0.1-0.1,0.2-0.1,0.3-0.1
			c0.1,0,0.2,0,0.3,0.1c0.1,0.1,0.1,0.2,0.1,0.3c0,0.1-0.1,0.2-0.1,0.3C38.3,103.5,38.1,103.5,38,103.5z"/>
	</g>
</g>
<g>
	<defs>
		<rect id="SVGID_21_" x="112" y="58.4" width="24" height="24"/>
	</defs>
	<clipPath id="SVGID_22_">
		<use xlink:href="#SVGID_21_"  style="overflow:visible;"/>
	</clipPath>
	<g class="st29">
		<path class="st8" d="M112.5,69.5v-3.4c0-2.5,2-4.4,4.4-4.4c2.5,0,4.4,2,4.4,4.4v1.7v1.6H112.5z"/>
		<path class="st30" d="M115.7,69.5v-1.7c0-1.6,1.3-2.8,2.8-2.8c1.6,0,2.8,1.3,2.8,2.8v0.7v1H115.7z"/>
		<path class="st24" d="M132,61.8c-1.3,0-2.3,1-2.3,2.3v2.2c0,0.8-0.7,1.5-1.5,1.5H118v2.1v0.2c0,3.6,2.5,6.6,5.9,7.4
			c0.3,0.8,0.9,1.4,1.6,1.7c0.8-0.3,1.4-0.9,1.6-1.7c3.4-0.7,5.9-3.8,5.9-7.4v-3.6c0-0.7,0.5-1.2,1.2-1.2v-1.1
			C134.3,62.8,133.3,61.8,132,61.8L132,61.8z"/>
		<path class="st18" d="M134.8,60c-0.4-0.3-0.9-0.3-1.4-0.2c-0.3-0.6-0.8-0.9-1.5-0.9c-0.7,0-1.2,0.4-1.5,0.9
			c-0.5-0.1-1-0.1-1.4,0.2c-0.7,0.5-0.9,1.5-0.4,2.2c0.5,0.7,1.5,0.9,2.2,0.4c0.2-0.2,0.4-0.4,0.5-0.6c0.2,0.1,0.3,0.1,0.5,0.1
			c0.2,0,0.4,0,0.5-0.1c0.1,0.2,0.3,0.4,0.5,0.6c0.7,0.5,1.7,0.3,2.2-0.4C135.7,61.5,135.6,60.5,134.8,60L134.8,60z"/>
		<path class="st8" d="M121.6,70h4.8c1.3,0,2.3,1,2.3,2.3s-1,2.3-2.3,2.3h-0.2C123.6,74.6,121.6,72.6,121.6,70L121.6,70z"/>
		<path d="M126.1,75.1h0.2c1.5,0,2.8-1.2,2.8-2.8c0-1.5-1.2-2.8-2.8-2.8h-4.8c-0.3,0-0.5,0.2-0.5,0.5
			C121.1,72.8,123.4,75.1,126.1,75.1z M128.2,72.3c0,1-0.8,1.8-1.8,1.8h-0.2c-1.2,0-2.3-0.5-3-1.3c0.3,0.1,0.6,0.1,0.9,0.1h1.6
			c0.3,0,0.5-0.2,0.5-0.5c0-0.3-0.2-0.5-0.5-0.5H124c-1,0-1.8-0.7-2-1.5h4.3C127.4,70.5,128.2,71.3,128.2,72.3z"/>
		<path d="M132.3,64.3c0.1-0.1,0.1-0.2,0.1-0.3c0-0.1-0.1-0.2-0.1-0.3c-0.1-0.1-0.2-0.1-0.3-0.1c-0.1,0-0.2,0-0.3,0.1
			c-0.1,0.1-0.1,0.2-0.1,0.3c0,0.1,0.1,0.2,0.1,0.3c0.1,0.1,0.2,0.1,0.3,0.1C132.1,64.5,132.2,64.4,132.3,64.3z"/>
		<path d="M136,61c-0.1-0.5-0.4-1-0.9-1.3c-0.4-0.3-0.9-0.4-1.4-0.4c-0.4-0.5-1-0.9-1.7-0.9c-0.7,0-1.3,0.3-1.7,0.9
			c-0.5-0.1-1,0.1-1.4,0.4c-0.9,0.6-1.2,1.9-0.5,2.9c0.2,0.4,0.6,0.6,1,0.8c-0.1,0.3-0.1,0.6-0.1,0.9v2.2c0,0.6-0.5,1-1,1h-6.4v-1.3
			c0-2.7-2.2-4.9-4.9-4.9c-2.7,0-4.9,2.2-4.9,4.9v3.4c0,0.3,0.2,0.5,0.5,0.5h5.1v0.1c0,1.3,0.3,2.6,0.9,3.8c0.1,0.2,0.4,0.3,0.6,0.2
			c0.2-0.1,0.3-0.4,0.2-0.6c-0.5-1-0.8-2.2-0.8-3.3v-1.8h9.7c1.1,0,2-0.9,2-2v-2.2c0-1,0.8-1.8,1.9-1.8c1,0,1.8,0.8,1.8,1.8v0.7
			c-0.7,0.2-1.2,0.8-1.2,1.6v3.6c0,3.3-2.3,6.2-5.5,6.9c-0.2,0-0.3,0.2-0.3,0.3c-0.2,0.6-0.6,1.1-1.2,1.4c-0.6-0.3-1-0.8-1.2-1.4
			c-0.1-0.2-0.2-0.3-0.3-0.3c-0.7-0.2-1.4-0.4-2-0.8c-0.2-0.1-0.5-0.1-0.6,0.2c-0.1,0.2-0.1,0.5,0.2,0.6c0.6,0.4,1.3,0.6,2,0.8
			c0.3,0.7,0.8,1.3,1.5,1.6v2h-0.9c-0.3,0-0.5,0.2-0.5,0.5s0.2,0.5,0.5,0.5h3.1c0.3,0,0.5-0.2,0.5-0.5s-0.2-0.5-0.5-0.5H126v-2
			c0.7-0.3,1.2-0.9,1.5-1.6c1.7-0.4,3.1-1.4,4.2-2.7c1.2-1.4,1.8-3.2,1.8-5v-3.6c0-0.4,0.3-0.7,0.7-0.7c0.3,0,0.5-0.2,0.5-0.5v-1.1
			c0-0.3,0-0.6-0.1-0.9c0.4-0.1,0.7-0.4,1-0.8C135.9,62,136.1,61.5,136,61L136,61z M112.9,66.1c0-2.2,1.8-4,4-4c2,0,3.6,1.4,3.9,3.3
			c-0.6-0.6-1.4-0.9-2.3-0.9c-1.8,0-3.3,1.5-3.3,3.3V69h-2.3V66.1z M118,67.4c-0.3,0-0.5,0.2-0.5,0.5V69h-1.4v-1.2
			c0-1.3,1.1-2.3,2.3-2.3c1.2,0,2.1,0.8,2.3,1.9H118L118,67.4z M134.9,62c-0.2,0.2-0.4,0.4-0.7,0.5c-0.5-0.7-1.3-1.1-2.2-1.1
			c-0.9,0-1.7,0.4-2.2,1.1c-0.3-0.1-0.5-0.2-0.7-0.5c-0.4-0.5-0.2-1.2,0.3-1.6c0.3-0.2,0.6-0.3,1-0.1c0.2,0.1,0.5,0,0.6-0.2
			c0.2-0.4,0.6-0.7,1-0.7c0.4,0,0.9,0.3,1,0.7c0.1,0.2,0.3,0.3,0.6,0.2c0.3-0.1,0.7-0.1,1,0.1C135.1,60.8,135.2,61.5,134.9,62
			L134.9,62z"/>
		<path d="M120.2,74.9c-0.1,0-0.2,0-0.3,0.1c-0.1,0.1-0.1,0.2-0.1,0.3c0,0.1,0.1,0.2,0.1,0.3c0.1,0.1,0.2,0.1,0.3,0.1
			c0.1,0,0.2-0.1,0.3-0.1c0.1-0.1,0.1-0.2,0.1-0.3c0-0.1-0.1-0.2-0.1-0.3C120.4,74.9,120.3,74.9,120.2,74.9z"/>
	</g>
</g>
<g>
	<defs>
		<rect id="SVGID_23_" x="112" y="24" width="24" height="24"/>
	</defs>
	<clipPath id="SVGID_24_">
		<use xlink:href="#SVGID_23_"  style="overflow:visible;"/>
	</clipPath>
	<g class="st31">
		<path class="st15" d="M132.2,32.8v2l0,0.1c1.1,0,2-0.9,2-2v-2.5c0-1.1-0.9-2-2-2c-0.6,0-1.1,0.3-1.5,0.7v0
			C131.6,30,132.2,31.3,132.2,32.8z"/>
		<path class="st9" d="M134.4,40.2c-1.2,0-2.2-1-2.2-2.2v-0.4V37v-4.2c0-2.9-2.4-5.3-5.3-5.3c-0.8,0-1.6,0.3-2.1,0.9H120
			c-3.5,0-6.4,2.9-6.4,6.4c0,1.1,0.3,2.1,0.8,3c0.2,0.4,0.4,0.9,0.4,1.5v4.8c0,0.3,0.2,0.5,0.5,0.5h2.1c0.3,0,0.5-0.2,0.5-0.5v-3.3
			c0.7,0.3,1.5,0.4,2.2,0.4h3v2.9c0,0.3,0.2,0.5,0.5,0.5h2.1c0.3,0,0.5-0.2,0.5-0.5V41c0.8-0.2,1.6-0.6,2.3-1.1l0,0
			c0.7,1.6,2.3,2.8,4.3,2.8h1.9c0.7,0,1.2-0.6,1.2-1.2v0C135.5,40.8,135,40.2,134.4,40.2z"/>
		<path class="st15" d="M128.2,39.9L128.2,39.9c-0.7,0.5-1.4,0.9-2.2,1.1v3.1c0,0.3-0.2,0.5-0.5,0.5h2.2c0.3,0,0.5-0.2,0.5-0.5V39.9
			L128.2,39.9z"/>
		<path class="st15" d="M120,41.2c-0.8,0-1.6-0.1-2.2-0.4v3.3c0,0.3-0.2,0.5-0.5,0.5h2.3c0.3,0,0.5-0.2,0.5-0.5V41.2z"/>
		<path class="st32" d="M129.3,38.5c-1.4,0-2.6-1.2-2.6-2.6c0-0.5,0.4-0.9,0.9-0.9c0.5,0,0.9,0.4,0.9,0.9c0,0.4,0.3,0.7,0.8,0.7
			c0.5,0,0.9,0.4,0.9,0.9S129.9,38.5,129.3,38.5z"/>
		<path d="M134.4,39.8c-1,0-1.7-0.8-1.7-1.7v-2.7c1.2-0.2,2.1-1.2,2.1-2.5v-2.5c0-1.4-1.1-2.5-2.5-2.5c-0.6,0-1.1,0.2-1.5,0.5
			c-1-0.9-2.4-1.5-3.8-1.5c-0.9,0-1.7,0.3-2.3,0.9H120c-1.1,0-2.1,0.2-3,0.7c-0.2,0.1-0.3,0.4-0.2,0.6c0.1,0.2,0.2,0.3,0.4,0.3
			c0.1,0,0.1,0,0.2,0c0.8-0.4,1.7-0.6,2.6-0.6h1.6c-0.3,0.4-0.5,1-0.5,1.6v2.5c0,1.4,1.1,2.5,2.5,2.5c1.4,0,2.5-1.1,2.5-2.5
			c0-0.3-0.2-0.5-0.5-0.5c-0.3,0-0.5,0.2-0.5,0.5c0,0.9-0.7,1.6-1.6,1.6c-0.9,0-1.6-0.7-1.6-1.6v-2.5c0-0.9,0.7-1.6,1.6-1.6
			c0.5,0,1,0.2,1.2,0.6c0.2,0.2,0.4,0.3,0.7,0.1c0.2-0.2,0.3-0.4,0.1-0.7c-0.1-0.1-0.2-0.2-0.3-0.3c0.4-0.4,1-0.7,1.7-0.7
			c2.7,0,4.8,2.2,4.8,4.8V38c0,1.5,1.2,2.7,2.7,2.7c0.4,0,0.7,0.3,0.7,0.7c0,0.4-0.3,0.8-0.8,0.8h-1.9c-2,0-3.7-1.5-4.1-3.4
			c0.3,0.1,0.6,0.2,1,0.2c0.8,0,1.4-0.6,1.4-1.4s-0.6-1.4-1.4-1.4c-0.2,0-0.3-0.1-0.3-0.3c0-0.8-0.6-1.4-1.4-1.4
			c-0.8,0-1.4,0.6-1.4,1.4c0,0.9,0.4,1.8,1.1,2.4c0,0.5,0.1,1,0.3,1.5c-0.5,0.4-1.2,0.7-1.8,0.8c-0.2,0.1-0.4,0.2-0.4,0.5v3.1h-2.1
			v-2.9c0-0.3-0.2-0.5-0.5-0.5h-5.2c-0.3,0-0.5,0.2-0.5,0.5v2.9h-2.1v-4.8c0-0.6-0.1-1.2-0.4-1.7c-0.5-0.9-0.7-1.8-0.7-2.8
			c0-0.9,0.2-1.8,0.6-2.6c0.1-0.2,0-0.5-0.2-0.6c-0.2-0.1-0.5,0-0.6,0.2c-0.4,0.8-0.6,1.7-0.7,2.6c-0.7,0.2-1.1,0.8-1.1,1.5v4.8
			c0,0.3,0.2,0.5,0.5,0.5c0.3,0,0.5-0.2,0.5-0.5v-4.8c0-0.2,0.1-0.4,0.2-0.5c0.1,0.9,0.4,1.8,0.8,2.6c0.2,0.4,0.3,0.8,0.3,1.2v4.8
			c0,0.5,0.4,0.9,0.9,0.9h4.3c0.5,0,0.9-0.4,0.9-0.9v-2.4h2v2.4c0,0.5,0.4,0.9,0.9,0.9h4.3c0.5,0,0.9-0.4,0.9-0.9v-2.6
			c0.9,1,2.3,1.7,3.8,1.7h1.9c0.9,0,1.7-0.8,1.7-1.7C136,40.5,135.3,39.8,134.4,39.8L134.4,39.8z M131.3,29.1
			c0.3-0.2,0.6-0.3,0.9-0.3c0.9,0,1.6,0.7,1.6,1.6v2.5c0,0.7-0.5,1.3-1.1,1.5v-1.6C132.6,31.4,132.1,30.1,131.3,29.1L131.3,29.1z
			 M127.7,35.4c0.3,0,0.5,0.2,0.5,0.5c0,0.7,0.5,1.2,1.2,1.2c0.3,0,0.5,0.2,0.5,0.5c0,0.3-0.2,0.5-0.5,0.5c-1.2,0-2.2-1-2.2-2.2
			C127.2,35.6,127.4,35.4,127.7,35.4z M119.5,44.1h-1.3v-2.4h1.3V44.1z M126.4,44.1v-2.7c0.5-0.1,0.9-0.3,1.3-0.6v3.3H126.4
			L126.4,44.1z"/>
		<path d="M128.8,32.9c0.1-0.1,0.1-0.2,0.1-0.3c0-0.1-0.1-0.2-0.1-0.3c-0.1-0.1-0.2-0.1-0.3-0.1c-0.1,0-0.2,0.1-0.3,0.1
			c-0.1,0.1-0.1,0.2-0.1,0.3c0,0.1,0.1,0.2,0.1,0.3c0.1,0.1,0.2,0.1,0.3,0.1C128.6,33,128.7,33,128.8,32.9z"/>
		<path d="M115.4,30.8c0.1,0,0.2-0.1,0.3-0.1c0.1-0.1,0.1-0.2,0.1-0.3c0-0.1-0.1-0.2-0.1-0.3c-0.1-0.1-0.2-0.1-0.3-0.1
			c-0.1,0-0.2,0.1-0.3,0.1c-0.1,0.1-0.1,0.2-0.1,0.3c0,0.1,0.1,0.2,0.1,0.3C115.2,30.7,115.3,30.8,115.4,30.8z"/>
	</g>
</g>
<g>
	<defs>
		<rect id="SVGID_25_" x="68" y="23.2" width="24" height="24"/>
	</defs>
	<clipPath id="SVGID_26_">
		<use xlink:href="#SVGID_25_"  style="overflow:visible;"/>
	</clipPath>
	<g class="st33">
		<path class="st20" d="M83.3,45.8h-7.1c-2.2,0-4-1.8-4-4v-9.9c0-0.5-0.4-0.9-0.9-1c-0.5,0-1,0.4-1,0.9v2.4c0,0.5-0.4,0.9-0.9,1
			c-0.5,0-1-0.4-1-0.9V32c0-1.5,1.2-2.8,2.8-2.9c1.6,0,2.9,1.2,2.9,2.8v9.9c0,1.2,0.9,2.1,2.1,2.1h2.2L83.3,45.8z"/>
		<path class="st34" d="M90.1,27.2c0.7,0,1.3-0.6,1.3-1.3c0-0.7-0.6-1.3-1.3-1.3s-1.3,0.6-1.3,1.3C88.8,26.6,89.4,27.2,90.1,27.2z"
			/>
		<path class="st20" d="M90.6,34.7c-0.6-1.6-1.4-2.6-1.8-3l0,0c0.7-0.8,1.1-1.8,1.1-2.9c0-2.3-1.9-4.2-4.2-4.2h-3.2
			c-2.3,0-4.2,1.9-4.2,4.2c0,1.1,0.4,2.1,1.2,2.9c-2.2,1.5-3.5,4.1-3.5,6.7c0,4.1,3.3,7.3,7.3,7.3h3.8l2.1-3.8
			c-0.1,0.5,0.2,1.1,0.8,1.2c0.6,0.1,1.2-0.2,1.3-0.8C91.9,39,91.3,36.3,90.6,34.7L90.6,34.7z"/>
		<path class="st25" d="M87.9,28.8c0-1.2-0.9-2.1-2.1-2.1h-3.2c-1.2,0-2.1,0.9-2.1,2.1c0,0.8,0.4,1.5,1.1,1.8c0,1.5,1.2,2.6,2.7,2.6
			c1.5,0,2.7-1.2,2.7-2.7C87.5,30.2,87.9,29.6,87.9,28.8L87.9,28.8z"/>
		<path class="st34" d="M78.3,27.2c0.7,0,1.3-0.6,1.3-1.3c0-0.7-0.6-1.3-1.3-1.3c-0.7,0-1.3,0.6-1.3,1.3
			C77,26.6,77.6,27.2,78.3,27.2z"/>
		<path class="st24" d="M88.3,42.6c-0.6-0.6-0.9-1.5-0.9-2.3c0-0.4-0.4-0.6-0.7-0.3c-0.6,0.5-1,1.3-1,2.2c0,1.6,1.3,2.9,2.9,2.9
			c0.9,0,1.7-0.4,2.2-1c0.2-0.3,0-0.7-0.3-0.7C89.8,43.5,88.9,43.2,88.3,42.6z"/>
		<path class="st20" d="M80,34.4c0,0.9,0.7,1.7,1.6,1.6c0.9,0,1.6-0.7,1.6-1.6v-0.7c0-0.6,0.5-1,1-1c0.6,0,1,0.5,1,1v0.7
			c0,2-1.7,3.7-3.7,3.7"/>
		<path d="M82.7,28.6c-0.1,0-0.2,0.1-0.3,0.1c-0.1,0.1-0.1,0.2-0.1,0.3c0,0.1,0,0.2,0.1,0.3c0.1,0.1,0.2,0.1,0.3,0.1
			c0.1,0,0.2,0,0.3-0.1c0.1-0.1,0.1-0.2,0.1-0.3c0-0.1,0-0.2-0.1-0.3C83,28.7,82.9,28.6,82.7,28.6z"/>
		<path d="M85.6,29.6c0.1,0,0.2,0,0.3-0.1c0.1-0.1,0.1-0.2,0.1-0.3c0-0.1-0.1-0.2-0.1-0.3c-0.1-0.1-0.2-0.1-0.3-0.1
			c-0.1,0-0.2,0.1-0.3,0.1c-0.1,0.1-0.1,0.2-0.1,0.3c0,0.1,0.1,0.2,0.1,0.3C85.4,29.5,85.5,29.6,85.6,29.6z"/>
		<path d="M91.8,42.4c0.6-3.5-0.1-6.2-0.7-7.9c-0.5-1.3-1.2-2.3-1.6-2.8c0.6-0.8,1-1.8,1-2.9c0-0.4,0-0.7-0.1-1.1
			c0.9-0.1,1.6-0.9,1.6-1.8c0-1-0.8-1.8-1.8-1.8c-0.7,0-1.3,0.4-1.6,0.9c-0.8-0.6-1.7-0.9-2.8-0.9h-3.2c-1,0-2,0.3-2.7,0.9
			c-0.3-0.5-0.9-0.9-1.5-0.9c-1,0-1.8,0.8-1.8,1.8c0,0.9,0.7,1.7,1.6,1.8c-0.1,0.4-0.1,0.7-0.1,1.1c0,1,0.3,2,1,2.8
			c-2.1,1.6-3.3,4.1-3.3,6.8c0,1.9,0.7,3.6,1.8,5h-1.2c-0.9,0-1.6-0.7-1.6-1.6v-3c0-0.3-0.2-0.5-0.5-0.5c-0.3,0-0.5,0.2-0.5,0.5v3
			c0,1.4,1.1,2.6,2.6,2.6h2.1c0.4,0.4,0.9,0.7,1.4,0.9h-3.5c-1.9,0-3.5-1.6-3.5-3.5v-9.9c0-0.8-0.6-1.4-1.4-1.4
			c-0.4,0-0.8,0.1-1,0.4c-0.3,0.3-0.4,0.6-0.4,1v2.4c0,0.3-0.2,0.5-0.5,0.5c-0.1,0-0.3,0-0.3-0.1c-0.1-0.1-0.1-0.2-0.1-0.3V32
			c0-1.3,1-2.4,2.3-2.4c0.6,0,1.2,0.2,1.7,0.7c0.5,0.4,0.7,1,0.7,1.7v2.7c0,0.3,0.2,0.5,0.5,0.5c0.3,0,0.5-0.2,0.5-0.5v-2.7
			c0-0.9-0.3-1.7-1-2.3c-0.6-0.6-1.5-1-2.4-0.9c-1.8,0-3.2,1.5-3.2,3.3v2.3c0,0.4,0.2,0.7,0.4,1c0.3,0.3,0.6,0.4,1,0.4
			c0.8,0,1.4-0.7,1.4-1.4v-2.4c0-0.1,0.1-0.2,0.1-0.3c0.1-0.1,0.2-0.1,0.3-0.1c0.2,0,0.4,0.2,0.4,0.5v9.9c0,2.4,2,4.4,4.4,4.4h11.2
			c0.3,0,0.5-0.2,0.5-0.5c0-0.1,0-0.3,0-0.4c0.3,0.1,0.6,0.1,1,0.1c1,0,1.9-0.4,2.5-1.1c0.2-0.3,0.3-0.6,0.1-1
			c0-0.1-0.1-0.1-0.1-0.2C91.5,43,91.7,42.7,91.8,42.4L91.8,42.4z M90.1,25.1c0.5,0,0.8,0.4,0.8,0.8c0,0.5-0.4,0.8-0.8,0.8
			c-0.1,0-0.1,0-0.2,0c-0.2-0.4-0.4-0.7-0.7-1C89.4,25.4,89.7,25.1,90.1,25.1L90.1,25.1z M78.3,26.8c-0.5,0-0.8-0.4-0.8-0.8
			c0-0.5,0.4-0.8,0.8-0.8c0.4,0,0.7,0.3,0.8,0.6c-0.3,0.3-0.5,0.7-0.7,1.1C78.4,26.8,78.3,26.8,78.3,26.8z M83.4,45.3
			c-3.8,0-6.9-3.1-6.9-6.9c0-2.5,1.3-4.9,3.3-6.4c0.1-0.1,0.2-0.2,0.2-0.3c0-0.1,0-0.3-0.1-0.4c-0.7-0.7-1.1-1.6-1.1-2.6
			c0-2,1.7-3.7,3.7-3.7h3.2c2,0,3.7,1.7,3.7,3.7c0,1-0.4,1.9-1,2.5c-0.2,0.2-0.2,0.4,0,0.6c0.3,0.4,1.1,1.3,1.7,2.9
			c0.6,1.6,1.2,4.1,0.7,7.4c0,0.2-0.1,0.3-0.2,0.4c-0.1,0.1-0.3,0.1-0.4,0.1c-0.3-0.1-0.5-0.4-0.4-0.6c0.6-3.4-0.2-6-1-7.6
			c-0.1-0.2-0.4-0.3-0.6-0.2c-0.2,0.1-0.3,0.4-0.2,0.6c0.7,1.4,1.4,3.8,0.9,7c0,0.2,0,0.3,0,0.5c-0.1,0-0.1-0.1-0.2-0.2
			c-0.5-0.5-0.8-1.2-0.7-1.9c0-0.4-0.2-0.7-0.5-0.9c-0.3-0.2-0.7-0.1-1,0.1c-0.1,0.1-0.2,0.2-0.3,0.3c-0.3-1-1.1-1.8-2-2.2
			c0.1-0.1,0.2-0.2,0.3-0.3c0.8-0.8,1.2-1.8,1.2-2.9v-0.7c0-0.1,0-0.2,0-0.3c1-0.5,1.6-1.4,1.7-2.5c0.6-0.5,1-1.2,1-2.1
			c0-1.4-1.2-2.6-2.6-2.6h-3.2c-1.4,0-2.6,1.2-2.6,2.6c0,0.8,0.4,1.6,1.1,2.1c0.1,1.1,0.7,2,1.7,2.5c0,0.1,0,0.2,0,0.4v0.7
			c0,0.6-0.5,1.1-1.1,1.1c-0.3,0-0.6-0.1-0.8-0.3c-0.2-0.2-0.4-0.5-0.4-0.8c0-0.3-0.2-0.5-0.5-0.5c-0.3,0-0.5,0.2-0.5,0.5
			c0,0.6,0.2,1.1,0.6,1.5c0.4,0.4,0.9,0.6,1.5,0.6c1.1,0,2-0.9,2-2.1v-0.7c0-0.3,0.3-0.6,0.6-0.6s0.6,0.3,0.6,0.6v0.7
			c0,0.9-0.3,1.7-0.9,2.3c-0.6,0.6-1.4,0.9-2.2,0.9c0,0,0,0,0,0c-0.3,0-0.5,0.2-0.5,0.5c0,0.3,0.2,0.5,0.5,0.5c0,0,0,0,0,0
			c0.5,0,1-0.1,1.5-0.3c1.3,0.2,2.3,1.4,2.3,2.8c0,0.7-0.2,1.3-0.7,1.9c-0.2,0.2-0.2,0.5-0.1,0.8c0.1,0.3,0.4,0.4,0.7,0.4
			c0.7,0,1.3,0.5,1.5,1.1H83.4z M83.2,32.6c-0.7-0.4-1.2-1.1-1.2-2c0-0.2-0.1-0.3-0.2-0.4c-0.5-0.3-0.8-0.8-0.8-1.4
			c0-0.9,0.7-1.7,1.6-1.7h3.2c0.9,0,1.7,0.7,1.7,1.7c0,0.6-0.3,1.1-0.8,1.4c-0.1,0.1-0.2,0.2-0.2,0.4c0,0.9-0.5,1.6-1.3,2
			c-0.3-0.2-0.6-0.4-1-0.4C83.8,32.2,83.5,32.3,83.2,32.6L83.2,32.6z M88.7,44.6c-0.7,0-1.3-0.3-1.7-0.7c-0.5-0.5-0.7-1.1-0.7-1.7
			c0-0.7,0.3-1.3,0.7-1.7c0,0.9,0.3,1.8,1,2.5c0.7,0.7,1.6,1,2.5,1C90,44.4,89.4,44.6,88.7,44.6z"/>
		<path d="M84.8,30.8c0-0.3-0.2-0.5-0.5-0.5H84c-0.3,0-0.5,0.2-0.5,0.5c0,0.3,0.2,0.5,0.5,0.5h0.3C84.6,31.2,84.8,31,84.8,30.8z"/>
		<path d="M74.1,36.2c-0.1,0-0.2,0.1-0.3,0.1c-0.1,0.1-0.1,0.2-0.1,0.3c0,0.1,0.1,0.2,0.1,0.3c0.1,0.1,0.2,0.1,0.3,0.1
			c0.1,0,0.2,0,0.3-0.1c0.1-0.1,0.1-0.2,0.1-0.3c0-0.1,0-0.2-0.1-0.3C74.3,36.3,74.2,36.2,74.1,36.2z"/>
	</g>
</g>
</svg>
