<?xml version="1.0" encoding="utf-8"?>
<!-- Generator: Adobe Illustrator 24.0.2, SVG Export Plug-In . SVG Version: 6.00 Build 0)  -->
<svg version="1.1" id="Capa_1" xmlns="http://www.w3.org/2000/svg" xmlns:xlink="http://www.w3.org/1999/xlink" x="0px" y="0px"
	 viewBox="0 0 160 200" style="enable-background:new 0 0 160 200;" xml:space="preserve">
<style type="text/css">
	.st0{fill:url(#SVGID_1_);}
	.st1{fill:none;stroke:#000000;stroke-width:2;}
	.st2{fill:url(#SVGID_2_);}
	.st3{fill:#202040;}
	.st4{clip-path:url(#SVGID_4_);}
	.st5{fill:#7CC8FB;}
	.st6{fill:#DB1B1B;}
	.st7{fill:#F6C752;}
	.st8{fill:#C41616;}
	.st9{fill:#E0AD3D;}
	.st10{fill:#EF3A3A;}
	.st11{clip-path:url(#SVGID_6_);}
	.st12{fill:#F55B4B;}
	.st13{fill:#FFFFFF;}
	.st14{fill:#E2E2E2;}
	.st15{clip-path:url(#SVGID_8_);}
	.st16{fill:#27273D;}
	.st17{fill:#02934D;}
	.st18{fill:#E83838;}
	.st19{fill:#3E436D;}
	.st20{fill:#037C3C;}
	.st21{fill:#C41C1C;}
	.st22{clip-path:url(#SVGID_10_);}
	.st23{fill:#934CF5;}
	.st24{fill:#00B564;}
	.st25{fill:#E0E0E0;}
	.st26{fill:#C11616;}
	.st27{fill:#EA3434;}
	.st28{fill:#029E53;}
	.st29{fill:#CCCCCC;}
	.st30{clip-path:url(#SVGID_12_);}
	.st31{fill:#FC4581;}
	.st32{fill:#205BB2;}
	.st33{fill:#18539B;}
	.st34{clip-path:url(#SVGID_14_);}
	.st35{fill:#1C1C2B;}
	.st36{fill:#F7BB38;}
	.st37{fill:#14141E;}
	.st38{fill:#C61A1A;}
	.st39{fill:#DDA431;}
	.st40{fill:#32314B;}
	.st41{clip-path:url(#SVGID_16_);}
	.st42{fill:#FCC8BC;}
	.st43{fill:#C11A1A;}
	.st44{fill:#E0A327;}
	.st45{fill:#F6D372;}
	.st46{clip-path:url(#SVGID_18_);}
	.st47{fill:#EC2227;}
	.st48{clip-path:url(#SVGID_20_);}
	.st49{fill:#343A5B;}
	.st50{fill:#C11717;}
	.st51{fill:#E23737;}
	.st52{clip-path:url(#SVGID_22_);}
	.st53{fill:#DBDBDB;}
	.st54{fill:#E54141;}
	.st55{clip-path:url(#SVGID_24_);}
	.st56{fill:#04A558;}
	.st57{fill:#03914A;}
	.st58{fill:#FCC13D;}
	.st59{fill:#DDA22C;}
	.st60{clip-path:url(#SVGID_26_);}
	.st61{fill:#41C0E3;}
	.st62{fill:#3AB3CE;}
	.st63{fill:#E88032;}
</style>
<g>
	
		<linearGradient id="SVGID_1_" gradientUnits="userSpaceOnUse" x1="80" y1="199.4646" x2="80" y2="-0.5354" gradientTransform="matrix(1 0 0 -1 0 199.4646)">
		<stop  offset="0" style="stop-color:#0CCA98"/>
		<stop  offset="1" style="stop-color:#00FFCC"/>
	</linearGradient>
	<path class="st0" d="M30,0h100c16.6,0,30,13.4,30,30v140c0,16.6-13.4,30-30,30H30c-16.6,0-30-13.4-30-30V30C0,13.4,13.4,0,30,0z"/>
	<path class="st1" d="M30,1h100c16,0,29,13,29,29v140c0,16-13,29-29,29H30c-16,0-29-13-29-29V30C1,14,14,1,30,1z"/>
</g>
<g>
	
		<linearGradient id="SVGID_2_" gradientUnits="userSpaceOnUse" x1="80" y1="183.4646" x2="80" y2="39.4646" gradientTransform="matrix(1 0 0 -1 0 199.4646)">
		<stop  offset="0" style="stop-color:#F8F9FA"/>
		<stop  offset="1" style="stop-color:#DEE2E6"/>
	</linearGradient>
	<path class="st2" d="M36,16h88c11,0,20,9,20,20v104c0,11-9,20-20,20H36c-11,0-20-9-20-20V36C16,25,25,16,36,16z"/>
</g>
<path class="st3" d="M60.8,172.2c0.9,0,1.6,0.1,2.3,0.4c0.6,0.3,1.1,0.7,1.5,1.2c0.3,0.5,0.5,1.2,0.5,1.9c0,0.7-0.2,1.3-0.5,1.9
	c-0.3,0.5-0.8,0.9-1.5,1.2c-0.6,0.3-1.4,0.4-2.3,0.4h-2v2.7h-2.3v-9.8H60.8z M60.6,177.4c0.7,0,1.2-0.1,1.6-0.4
	c0.4-0.3,0.5-0.7,0.5-1.3c0-0.6-0.2-1-0.5-1.3c-0.4-0.3-0.9-0.4-1.6-0.4h-1.8v3.4H60.6z M74.1,174.5v7.5H72v-0.9
	c-0.5,0.7-1.3,1-2.4,1c-0.7,0-1.4-0.2-1.9-0.5c-0.6-0.3-1-0.8-1.3-1.4c-0.3-0.6-0.5-1.3-0.5-2c0-0.8,0.2-1.5,0.5-2
	c0.3-0.6,0.8-1,1.3-1.4c0.6-0.3,1.2-0.5,1.9-0.5c1,0,1.7,0.3,2.3,0.9v-0.8H74.1z M70.1,180.3c0.5,0,1-0.2,1.4-0.6
	c0.4-0.4,0.5-0.9,0.5-1.5c0-0.6-0.2-1.1-0.5-1.5c-0.4-0.4-0.8-0.6-1.4-0.6c-0.6,0-1,0.2-1.4,0.6c-0.4,0.4-0.5,0.9-0.5,1.5
	c0,0.6,0.2,1.1,0.5,1.5C69,180.1,69.5,180.3,70.1,180.3z M76.1,174.5h2.2v7.5h-2.2V174.5z M77.8,171.5h2.4l-2.5,2H76L77.8,171.5z
	 M82.9,182.1c-0.6,0-1.2-0.1-1.8-0.2c-0.6-0.2-1.1-0.4-1.4-0.6l0.7-1.6c0.3,0.2,0.7,0.4,1.2,0.5c0.5,0.1,0.9,0.2,1.4,0.2
	c0.9,0,1.4-0.2,1.4-0.7c0-0.2-0.1-0.4-0.4-0.5c-0.3-0.1-0.6-0.2-1.2-0.2c-0.6-0.1-1.1-0.2-1.5-0.3c-0.4-0.1-0.8-0.3-1.1-0.6
	c-0.3-0.3-0.4-0.7-0.4-1.3c0-0.5,0.1-0.9,0.4-1.3c0.3-0.4,0.7-0.7,1.2-0.9c0.5-0.2,1.2-0.3,1.9-0.3c0.5,0,1.1,0.1,1.6,0.2
	c0.5,0.1,1,0.3,1.3,0.5l-0.7,1.6c-0.7-0.4-1.4-0.6-2.2-0.6c-0.5,0-0.8,0.1-1.1,0.2c-0.2,0.1-0.4,0.3-0.4,0.5c0,0.2,0.1,0.4,0.4,0.5
	s0.7,0.2,1.2,0.3c0.6,0.1,1.1,0.2,1.5,0.3c0.4,0.1,0.7,0.3,1,0.6c0.3,0.3,0.4,0.7,0.4,1.3c0,0.5-0.1,0.9-0.4,1.2s-0.7,0.6-1.2,0.9
	C84.3,182,83.6,182.1,82.9,182.1z M91.6,180.4c0.4,0,0.7-0.1,1-0.2c0.3-0.1,0.6-0.3,0.9-0.6l1.2,1.3c-0.7,0.8-1.7,1.2-3.1,1.2
	c-0.8,0-1.6-0.2-2.3-0.5c-0.7-0.3-1.2-0.8-1.5-1.4c-0.4-0.6-0.5-1.3-0.5-2c0-0.7,0.2-1.4,0.5-2c0.4-0.6,0.8-1.1,1.4-1.4
	c0.6-0.3,1.3-0.5,2.1-0.5c0.7,0,1.4,0.2,2,0.5c0.6,0.3,1.1,0.7,1.4,1.3c0.4,0.6,0.5,1.2,0.5,2l-5.6,1.1c0.2,0.4,0.4,0.7,0.7,0.8
	C90.7,180.3,91.1,180.4,91.6,180.4z M91.3,176c-0.6,0-1,0.2-1.3,0.5c-0.3,0.4-0.5,0.8-0.5,1.5l3.7-0.7c-0.1-0.4-0.3-0.7-0.6-0.9
	C92.1,176.1,91.7,176,91.3,176z M99.1,182.1c-0.6,0-1.2-0.1-1.8-0.2c-0.6-0.2-1.1-0.4-1.4-0.6l0.7-1.6c0.3,0.2,0.7,0.4,1.2,0.5
	c0.5,0.1,0.9,0.2,1.4,0.2c0.9,0,1.4-0.2,1.4-0.7c0-0.2-0.1-0.4-0.4-0.5s-0.6-0.2-1.2-0.2c-0.6-0.1-1.1-0.2-1.5-0.3
	c-0.4-0.1-0.8-0.3-1.1-0.6c-0.3-0.3-0.4-0.7-0.4-1.3c0-0.5,0.1-0.9,0.4-1.3c0.3-0.4,0.7-0.7,1.2-0.9c0.5-0.2,1.2-0.3,1.9-0.3
	c0.5,0,1.1,0.1,1.6,0.2c0.5,0.1,1,0.3,1.3,0.5l-0.7,1.6c-0.7-0.4-1.4-0.6-2.2-0.6c-0.5,0-0.8,0.1-1.1,0.2c-0.2,0.1-0.3,0.3-0.3,0.5
	c0,0.2,0.1,0.4,0.4,0.5s0.7,0.2,1.2,0.3c0.6,0.1,1.1,0.2,1.5,0.3c0.4,0.1,0.7,0.3,1,0.6c0.3,0.3,0.4,0.7,0.4,1.3
	c0,0.5-0.1,0.9-0.4,1.2s-0.7,0.6-1.2,0.9C100.5,182,99.9,182.1,99.1,182.1z"/>
<g>
	<defs>
		<rect id="SVGID_3_" x="112" y="127.2" width="24" height="24"/>
	</defs>
	<clipPath id="SVGID_4_">
		<use xlink:href="#SVGID_3_"  style="overflow:visible;"/>
	</clipPath>
	<g class="st4">
		<path class="st5" d="M124,151.2c6.6,0,12-5.4,12-12s-5.4-12-12-12s-12,5.4-12,12S117.4,151.2,124,151.2z"/>
		<path class="st6" d="M124,151.2c6.6,0,12-5.4,12-12s-5.4-12-12-12s-12,5.4-12,12S117.4,151.2,124,151.2z"/>
		<path class="st7" d="M126.3,133.1l0.7,1.1l1.2-0.3l-0.8,1l0.7,1.1l-1.2-0.5l-0.8,1l0.1-1.3l-1.2-0.5l1.2-0.3L126.3,133.1z"/>
		<path class="st7" d="M122.3,130.3l1.2,0.5l0.9-1l-0.1,1.3l1.2,0.5l-1.3,0.3l-0.1,1.3l-0.6-1.1l-1.3,0.3l0.9-1L122.3,130.3z"/>
		<path class="st7" d="M125.3,141.8l-1.1,0.7l0.3,1.2l-1-0.8l-1.1,0.7l0.5-1.2l-1-0.8l1.3,0.1l0.5-1.2l0.3,1.2L125.3,141.8z"/>
		<path class="st7" d="M128,137.8l-0.5,1.2l1,0.9l-1.3-0.1l-0.5,1.2l-0.3-1.3l-1.3-0.1l1.1-0.6l-0.3-1.3l1,0.9L128,137.8z"/>
		<path class="st8" d="M125.8,151.1c-0.6,0.1-1.2,0.1-1.8,0.1c-6.6,0-12-5.4-12-12s5.4-12,12-12c0.6,0,1.2,0,1.8,0.1
			c-4.6,0.7-8.4,4-9.7,8.4c-0.3,1-0.5,2-0.5,3c0,0.1,0,0.3,0,0.4c0,0.4,0,0.8,0.1,1.2C116.1,145.9,120.3,150.3,125.8,151.1z"/>
		<path class="st7" d="M117.5,132.6l1,3.2h3.4l-2.7,2l1,3.2l-2.7-2l-2.7,2l1-3.2l-2.7-2h3.4L117.5,132.6z"/>
		<path class="st9" d="M115.5,139.2c0,0.4,0,0.8,0.1,1.2l-0.8,0.5l0.7-2.2C115.5,138.9,115.5,139.1,115.5,139.2L115.5,139.2z"/>
		<path class="st9" d="M116,135.8c-0.2,0.6-0.3,1.2-0.4,1.8l-2.5-1.8H116z"/>
		<path class="st10" d="M132.3,134.9c0.6,0,1.1-0.5,1.1-1.1c0-0.6-0.5-1.1-1.1-1.1c-0.6,0-1.1,0.5-1.1,1.1
			C131.2,134.4,131.7,134.9,132.3,134.9z"/>
		<path class="st10" d="M130.7,132.9c0.4,0,0.8-0.4,0.8-0.8c0-0.4-0.4-0.8-0.8-0.8c-0.4,0-0.8,0.3-0.8,0.8
			C129.9,132.5,130.2,132.9,130.7,132.9z"/>
	</g>
</g>
<g>
	<defs>
		<rect id="SVGID_5_" x="68" y="127.2" width="24" height="24"/>
	</defs>
	<clipPath id="SVGID_6_">
		<use xlink:href="#SVGID_5_"  style="overflow:visible;"/>
	</clipPath>
	<g class="st11">
		<path class="st12" d="M80,151.2c6.6,0,12-5.4,12-12s-5.4-12-12-12s-12,5.4-12,12S73.4,151.2,80,151.2z"/>
		<path class="st13" d="M80,151.2c6.6,0,12-5.4,12-12s-5.4-12-12-12s-12,5.4-12,12S73.4,151.2,80,151.2z"/>
		<path class="st14" d="M81.2,151.1c-0.4,0-0.8,0.1-1.2,0.1c-6.6,0-12-5.4-12-12s5.4-12,12-12c0.4,0,0.8,0,1.2,0.1
			c-6.1,0.6-10.8,5.7-10.8,11.9C70.3,145.4,75.1,150.6,81.2,151.1z"/>
		<path class="st6" d="M80,144.7c3.1,0,5.5-2.5,5.5-5.5c0-3.1-2.5-5.5-5.5-5.5c-3.1,0-5.5,2.5-5.5,5.5
			C74.5,142.3,76.9,144.7,80,144.7z"/>
	</g>
</g>
<g>
	<defs>
		<rect id="SVGID_7_" x="24" y="127.2" width="24" height="24"/>
	</defs>
	<clipPath id="SVGID_8_">
		<use xlink:href="#SVGID_7_"  style="overflow:visible;"/>
	</clipPath>
	<g class="st15">
		<path class="st16" d="M36,151.2c6.6,0,12-5.4,12-12s-5.4-12-12-12s-12,5.4-12,12S29.4,151.2,36,151.2z"/>
		<path class="st17" d="M33.6,127.4V151c-5.5-1.1-9.6-6-9.6-11.8S28.1,128.5,33.6,127.4L33.6,127.4z"/>
		<path class="st6" d="M48,139.2c0,6.6-5.3,11.9-11.8,12h-0.4c-0.7,0-1.5-0.1-2.2-0.2v-23.5c0.7-0.1,1.4-0.2,2.2-0.2h0.5
			C42.8,127.3,48,132.6,48,139.2L48,139.2z"/>
		<path class="st7" d="M33.6,131.3c-1,0-2,0.3-2.8,0.9c-0.8,0.6-1.5,1.4-1.9,2.3c-0.4,0.9-0.5,2-0.3,2.9c0.2,1,0.7,1.9,1.4,2.6
			c0.7,0.7,1.6,1.2,2.6,1.4c1,0.2,2,0.1,2.9-0.3c0.9-0.4,1.7-1,2.3-1.9c0.6-0.8,0.9-1.8,0.9-2.8c0-1.3-0.5-2.6-1.5-3.6
			C36.3,131.9,35,131.3,33.6,131.3L33.6,131.3z M38,136.1h-3.5l0.1-0.1l1.3-1.3l1.1-1.1C37.5,134.3,37.9,135.2,38,136.1L38,136.1z
			 M34,132.1c0.9,0.1,1.7,0.4,2.4,1l0.1,0.1l-2.5,2.5V132.1z M33.3,132.1v3.5l-0.1-0.1l-1.4-1.4l-1-1l0.1-0.1
			C31.5,132.5,32.4,132.1,33.3,132.1L33.3,132.1z M30.3,133.6l1.1,1.1l1.3,1.3l0.1,0.1h-3.5C29.3,135.2,29.7,134.3,30.3,133.6
			L30.3,133.6z M29.2,136.8h3.5l-0.5,0.5l-0.7,0.7l-0.7,0.7l-0.6,0.6C29.7,138.6,29.3,137.7,29.2,136.8L29.2,136.8z M33.3,140.8
			c-0.9-0.1-1.8-0.4-2.5-1l0.5-0.5l0.7-0.7l1.3-1.3L33.3,140.8z M34,140.8v-3.5l2.5,2.5C35.7,140.4,34.9,140.7,34,140.8L34,140.8z
			 M36.9,139.3l-1.3-1.3l-0.7-0.7l-0.5-0.5H38C37.9,137.7,37.5,138.6,36.9,139.3L36.9,139.3z"/>
		<path class="st18" d="M30.9,133c-0.1,0-0.2,0-0.3,0.1c-0.1,0.1-0.1,0.2-0.1,0.3v4.1h0c0.1,0.8,0.4,1.5,1,2s1.3,0.8,2.1,0.8
			c0.8,0,1.5-0.3,2.1-0.8c0.6-0.5,0.9-1.2,1-2h0v-4.1c0-0.1,0-0.2-0.1-0.3c-0.1-0.1-0.2-0.1-0.3-0.1H30.9z"/>
		<path class="st13" d="M31.8,134c-0.1,0-0.2,0-0.3,0.1c-0.1,0.1-0.1,0.2-0.1,0.3v2.9h0c0.1,0.5,0.3,1,0.7,1.4
			c0.4,0.4,0.9,0.6,1.5,0.6c0.5,0,1.1-0.2,1.5-0.6c0.4-0.4,0.7-0.9,0.7-1.4h0v-2.9c0-0.1,0-0.2-0.1-0.3c-0.1-0.1-0.2-0.1-0.3-0.1
			L31.8,134z"/>
		<path class="st19" d="M33.2,134.5C33.1,134.5,33.1,134.5,33.2,134.5C33.1,134.5,33.1,134.6,33.2,134.5l-0.1,0.8h0
			c0,0.1,0.1,0.3,0.2,0.3c0.1,0.1,0.2,0.1,0.4,0.1c0.1,0,0.3,0,0.4-0.1c0.1-0.1,0.2-0.2,0.2-0.3h0v-0.7c0,0,0,0,0-0.1c0,0,0,0-0.1,0
			H33.2z"/>
		<path class="st19" d="M33.2,137.6C33.1,137.6,33.1,137.6,33.2,137.6C33.1,137.7,33.1,137.7,33.2,137.6l-0.1,0.8h0
			c0,0.1,0.1,0.3,0.2,0.3c0.1,0.1,0.2,0.1,0.4,0.1c0.1,0,0.3,0,0.4-0.1c0.1-0.1,0.2-0.2,0.2-0.3h0v-0.7c0,0,0,0,0-0.1c0,0,0,0-0.1,0
			L33.2,137.6z"/>
		<path class="st19" d="M33.2,136C33.1,136,33.1,136,33.2,136C33.1,136.1,33.1,136.1,33.2,136l-0.1,0.8h0c0,0.1,0.1,0.3,0.2,0.3
			c0.1,0.1,0.2,0.1,0.4,0.1c0.1,0,0.3,0,0.4-0.1c0.1-0.1,0.2-0.2,0.2-0.3h0v-0.7c0,0,0,0,0-0.1c0,0,0,0-0.1,0H33.2z"/>
		<path class="st19" d="M31.9,136C31.9,136,31.9,136,31.9,136C31.8,136.1,31.8,136.1,31.9,136l-0.1,0.8h0c0,0.1,0.1,0.3,0.2,0.3
			c0.1,0.1,0.2,0.1,0.4,0.1c0.1,0,0.3,0,0.4-0.1c0.1-0.1,0.2-0.2,0.2-0.3h0v-0.7c0,0,0,0,0-0.1c0,0,0,0-0.1,0H31.9z"/>
		<path class="st19" d="M34.5,136C34.4,136,34.4,136,34.5,136C34.4,136.1,34.4,136.1,34.5,136l-0.1,0.8h0c0,0.1,0.1,0.3,0.2,0.3
			c0.1,0.1,0.2,0.1,0.4,0.1c0.1,0,0.3,0,0.4-0.1c0.1-0.1,0.2-0.2,0.2-0.3h0v-0.7c0,0,0,0,0-0.1c0,0,0,0-0.1,0H34.5z"/>
		<path class="st20" d="M33.6,127.4v1c-2,1-3.7,2.5-4.8,4.4c-1.2,1.9-1.8,4.1-1.8,6.3c0,2.2,0.6,4.4,1.8,6.3
			c1.2,1.9,2.8,3.4,4.8,4.4v1c-5.5-1.1-9.6-6-9.6-11.8S28.1,128.5,33.6,127.4L33.6,127.4z"/>
		<path class="st21" d="M36.6,127.4c-1,0.2-2.1,0.6-3,1v-1c0.7-0.1,1.4-0.2,2.2-0.2h0.5c0.4,0,0.8,0,1.3,0.1
			C37.2,127.3,36.9,127.4,36.6,127.4L36.6,127.4z"/>
		<path class="st21" d="M36.6,151c0.3,0.1,0.6,0.1,0.9,0.1c-0.4,0.1-0.9,0.1-1.3,0.1h-0.4c-0.7,0-1.5-0.1-2.2-0.2v-1
			C34.6,150.4,35.6,150.8,36.6,151L36.6,151z"/>
	</g>
</g>
<g>
	<defs>
		<rect id="SVGID_9_" x="112" y="92.8" width="24" height="24"/>
	</defs>
	<clipPath id="SVGID_10_">
		<use xlink:href="#SVGID_9_"  style="overflow:visible;"/>
	</clipPath>
	<g class="st22">
		<path class="st23" d="M124,116.8c6.6,0,12-5.4,12-12s-5.4-12-12-12s-12,5.4-12,12S117.4,116.8,124,116.8z"/>
		<path class="st24" d="M119.8,93.5v22.5c-4.6-1.7-7.8-6.1-7.8-11.3C112,99.6,115.3,95.2,119.8,93.5L119.8,93.5z"/>
		<path class="st13" d="M128.2,93.5v22.5c-2.7,1-5.6,1-8.3,0V93.5c0.4-0.2,0.9-0.3,1.4-0.4C123.5,92.6,125.9,92.7,128.2,93.5
			L128.2,93.5z"/>
		<path class="st6" d="M136,104.8c0,2.5-0.8,4.8-2.2,6.9c-1.4,2-3.4,3.5-5.7,4.4V93.5c0.5,0.2,0.9,0.4,1.4,0.6
			c1.9,1,3.6,2.5,4.7,4.4C135.4,100.5,136,102.6,136,104.8L136,104.8z"/>
		<path class="st25" d="M121.2,93.1v23.3c-0.5-0.1-0.9-0.3-1.4-0.4V93.5C120.3,93.4,120.7,93.2,121.2,93.1L121.2,93.1z"/>
		<path class="st26" d="M129.5,94.2v21.3c-0.4,0.2-0.9,0.4-1.4,0.6V93.5C128.6,93.7,129.1,93.9,129.5,94.2L129.5,94.2z"/>
		<path class="st27" d="M132.8,101.4c0.4,0,0.8-0.3,0.8-0.8c0-0.4-0.3-0.8-0.8-0.8c-0.4,0-0.8,0.3-0.8,0.8
			C132.1,101,132.4,101.4,132.8,101.4z"/>
		<path class="st27" d="M132.8,99.6c0.3,0,0.5-0.2,0.5-0.5c0-0.3-0.2-0.5-0.5-0.5c-0.3,0-0.5,0.2-0.5,0.5
			C132.3,99.3,132.5,99.6,132.8,99.6z"/>
		<path class="st28" d="M114.7,104.8c0,1.9,0.5,3.8,1.4,5.5c0.9,1.7,2.2,3.2,3.8,4.3v1.4c-4.6-1.7-7.8-6.1-7.8-11.3
			c0-5.2,3.3-9.6,7.8-11.3V95c-1.6,1.1-2.9,2.6-3.8,4.3C115.2,101,114.7,102.9,114.7,104.8L114.7,104.8z"/>
		<path class="st25" d="M121.2,115.5c1.3,0.7,2.7,1.1,4.1,1.3c-0.4,0-0.9,0.1-1.3,0.1c-0.9,0-1.9-0.1-2.8-0.3
			c-0.5-0.1-0.9-0.3-1.4-0.4v-1.4C120.3,114.9,120.7,115.2,121.2,115.5L121.2,115.5z"/>
		<path class="st25" d="M121.2,94.1c-0.5,0.2-0.9,0.5-1.4,0.8v-1.4c0.4-0.2,0.9-0.3,1.4-0.4c0.9-0.2,1.8-0.3,2.8-0.3
			c0.5,0,0.9,0,1.4,0.1C123.9,93,122.5,93.5,121.2,94.1L121.2,94.1z"/>
		<path class="st29" d="M121.2,93.1v1c-0.5,0.2-0.9,0.5-1.4,0.8v-1.4C120.3,93.4,120.7,93.2,121.2,93.1L121.2,93.1z"/>
		<path class="st29" d="M119.8,114.6c0.4,0.3,0.9,0.6,1.4,0.8v1c-0.5-0.1-0.9-0.3-1.4-0.4V114.6z"/>
	</g>
</g>
<g>
	<defs>
		<rect id="SVGID_11_" x="68" y="92.8" width="24" height="24"/>
	</defs>
	<clipPath id="SVGID_12_">
		<use xlink:href="#SVGID_11_"  style="overflow:visible;"/>
	</clipPath>
	<g class="st30">
		<path class="st31" d="M80,116.8c6.6,0,12-5.4,12-12s-5.4-12-12-12s-12,5.4-12,12S73.4,116.8,80,116.8z"/>
		<path class="st32" d="M75.8,93.5v22.5c-4.6-1.7-7.8-6.1-7.8-11.3C68,99.6,71.3,95.2,75.8,93.5L75.8,93.5z"/>
		<path class="st13" d="M84.2,93.5v22.5c-2.7,1-5.6,1-8.3,0V93.5C78.5,92.6,81.5,92.6,84.2,93.5L84.2,93.5z"/>
		<path class="st6" d="M92,104.8c0,2.5-0.8,4.8-2.2,6.9c-1.4,2-3.4,3.5-5.7,4.4V93.5c2.3,0.9,4.3,2.4,5.7,4.4
			C91.2,100,92,102.3,92,104.8L92,104.8z"/>
		<path class="st25" d="M77.2,93.1v23.3c-0.5-0.1-0.9-0.3-1.4-0.4V93.5C76.3,93.4,76.7,93.2,77.2,93.1L77.2,93.1z"/>
		<path class="st26" d="M85.5,94.2v21.3c-0.4,0.2-0.9,0.4-1.4,0.6V93.5C84.6,93.7,85.1,93.9,85.5,94.2L85.5,94.2z"/>
		<path class="st27" d="M88.8,101.4c0.4,0,0.8-0.3,0.8-0.8c0-0.4-0.3-0.8-0.8-0.8c-0.4,0-0.8,0.3-0.8,0.8
			C88.1,101,88.4,101.4,88.8,101.4z"/>
		<path class="st27" d="M88.8,99.6c0.3,0,0.5-0.2,0.5-0.5c0-0.3-0.2-0.5-0.5-0.5c-0.3,0-0.5,0.2-0.5,0.5
			C88.3,99.3,88.5,99.6,88.8,99.6z"/>
		<path class="st33" d="M70.7,104.8c0,1.9,0.5,3.8,1.4,5.5c0.9,1.7,2.2,3.2,3.8,4.3v1.4c-4.6-1.7-7.8-6.1-7.8-11.3
			c0-5.2,3.3-9.6,7.8-11.3V95c-1.6,1.1-2.9,2.6-3.8,4.3C71.2,101,70.7,102.9,70.7,104.8L70.7,104.8z"/>
		<path class="st25" d="M77.2,115.5c1.3,0.7,2.7,1.1,4.1,1.3c-0.4,0.1-0.9,0.1-1.3,0.1c-1.4,0-2.8-0.3-4.2-0.7v-1.4
			C76.3,114.9,76.7,115.2,77.2,115.5L77.2,115.5z"/>
		<path class="st25" d="M77.2,94.1c-0.5,0.2-0.9,0.5-1.4,0.8v-1.4c1.3-0.5,2.7-0.7,4.2-0.7c0.5,0,0.9,0,1.4,0.1
			C79.9,93,78.5,93.5,77.2,94.1L77.2,94.1z"/>
		<path class="st29" d="M77.2,93.1v1c-0.5,0.2-0.9,0.5-1.4,0.8v-1.4C76.3,93.4,76.7,93.2,77.2,93.1L77.2,93.1z"/>
		<path class="st29" d="M75.8,114.6c0.4,0.3,0.9,0.6,1.4,0.8v1c-0.5-0.1-0.9-0.3-1.4-0.4V114.6z"/>
	</g>
</g>
<g>
	<defs>
		<rect id="SVGID_13_" x="24" y="92.8" width="24" height="24"/>
	</defs>
	<clipPath id="SVGID_14_">
		<use xlink:href="#SVGID_13_"  style="overflow:visible;"/>
	</clipPath>
	<g class="st34">
		<path class="st24" d="M36,116.8c6.6,0,12-5.4,12-12s-5.4-12-12-12s-12,5.4-12,12S29.4,116.8,36,116.8z"/>
		<path class="st35" d="M47.3,100.6H24.7c1.7-4.6,6.1-7.8,11.3-7.8C41.2,92.8,45.6,96.1,47.3,100.6z"/>
		<path class="st6" d="M47.3,109H24.7c-1-2.7-1-5.6,0-8.3h22.5c0.2,0.5,0.3,0.9,0.4,1.4C48.2,104.3,48.1,106.7,47.3,109L47.3,109z"
			/>
		<path class="st36" d="M36,116.8c-2.5,0-4.8-0.8-6.9-2.2c-2-1.4-3.5-3.4-4.4-5.7h22.5c-0.2,0.5-0.4,0.9-0.6,1.4
			c-1,1.9-2.5,3.6-4.4,4.7C40.3,116.2,38.2,116.8,36,116.8L36,116.8z"/>
		<path class="st37" d="M37.6,92.9c-4.5,0.6-8.2,3.6-9.7,7.7h-3.1c1.7-4.6,6.1-7.8,11.3-7.8C36.5,92.8,37,92.8,37.6,92.9L37.6,92.9z
			"/>
		<path class="st38" d="M27.1,104.8c0,1.4,0.2,2.8,0.7,4.2h-3.1c-1-2.7-1-5.6,0-8.3h3.1c-0.2,0.4-0.3,0.9-0.4,1.4
			C27.3,102.9,27.1,103.9,27.1,104.8L27.1,104.8z"/>
		<path class="st39" d="M37.6,116.7c-2.4,0.3-4.9-0.1-7.1-1.3c-2.2-1.1-4-2.9-5.1-5.1c-0.2-0.4-0.4-0.9-0.6-1.4h3.1
			c0.8,2,2.1,3.9,3.8,5.2S35.4,116.4,37.6,116.7L37.6,116.7z"/>
		<path class="st40" d="M44,99.2c0.5,0,0.8-0.4,0.8-0.8s-0.4-0.8-0.8-0.8c-0.5,0-0.8,0.4-0.8,0.8S43.5,99.2,44,99.2z"/>
		<path class="st40" d="M42.9,97.5c0.3,0,0.6-0.3,0.6-0.6c0-0.3-0.3-0.6-0.6-0.6s-0.6,0.3-0.6,0.6C42.3,97.2,42.6,97.5,42.9,97.5z"
			/>
	</g>
</g>
<g>
	<defs>
		<rect id="SVGID_15_" x="112" y="58.4" width="24" height="24"/>
	</defs>
	<clipPath id="SVGID_16_">
		<use xlink:href="#SVGID_15_"  style="overflow:visible;"/>
	</clipPath>
	<g class="st41">
		<path class="st42" d="M124,82.4c6.6,0,12-5.4,12-12s-5.4-12-12-12s-12,5.4-12,12S117.4,82.4,124,82.4z"/>
		<path class="st6" d="M134.7,75.9c-1,2-2.5,3.6-4.4,4.8c-1.9,1.1-4,1.8-6.3,1.8s-4.4-0.6-6.3-1.8c-1.9-1.1-3.4-2.8-4.4-4.8H134.7z"
			/>
		<path class="st6" d="M134.7,64.9h-21.3c1-2,2.5-3.6,4.4-4.8c1.9-1.1,4-1.8,6.3-1.8s4.4,0.6,6.3,1.8
			C132.1,61.3,133.7,62.9,134.7,64.9L134.7,64.9z"/>
		<path class="st36" d="M136,70.4c0,1.9-0.5,3.8-1.3,5.5h-21.3c-0.9-1.7-1.3-3.6-1.3-5.5c0-1.9,0.5-3.8,1.3-5.5h21.3
			C135.5,66.6,136,68.5,136,70.4L136,70.4z"/>
		<path class="st43" d="M125.8,82.3c-0.6,0.1-1.2,0.1-1.8,0.1c-2.2,0-4.4-0.6-6.3-1.8c-1.9-1.1-3.4-2.8-4.4-4.8h3.6
			c0.9,1.7,2.1,3.2,3.7,4.3S123.9,82,125.8,82.3L125.8,82.3z"/>
		<path class="st43" d="M125.8,58.5c-1.9,0.3-3.7,1-5.2,2.1s-2.8,2.6-3.7,4.3h-3.6c1-2,2.5-3.6,4.4-4.8c1.9-1.1,4-1.8,6.3-1.8
			C124.6,58.4,125.2,58.4,125.8,58.5L125.8,58.5z"/>
		<path class="st44" d="M115.6,70.4c0,1.9,0.5,3.8,1.3,5.5h-3.6c-0.9-1.7-1.3-3.6-1.3-5.5c0-1.9,0.5-3.8,1.3-5.5h3.6
			C116,66.6,115.6,68.5,115.6,70.4L115.6,70.4z"/>
		<path class="st45" d="M133.9,71.7c0.4,0,0.8-0.3,0.8-0.8c0-0.4-0.3-0.8-0.8-0.8c-0.4,0-0.8,0.3-0.8,0.8
			C133.1,71.3,133.5,71.7,133.9,71.7z"/>
		<path class="st45" d="M133.9,69.9c0.3,0,0.5-0.2,0.5-0.5c0-0.3-0.2-0.5-0.5-0.5c-0.3,0-0.5,0.2-0.5,0.5
			C133.4,69.6,133.6,69.9,133.9,69.9z"/>
	</g>
</g>
<g>
	<defs>
		<rect id="SVGID_17_" x="68" y="58.4" width="24" height="24"/>
	</defs>
	<clipPath id="SVGID_18_">
		<use xlink:href="#SVGID_17_"  style="overflow:visible;"/>
	</clipPath>
	<g class="st46">
		<path class="st5" d="M80,82.4c6.6,0,12-5.4,12-12s-5.4-12-12-12s-12,5.4-12,12S73.4,82.4,80,82.4z"/>
		<path class="st6" d="M92,70.4c0,1.8-0.4,3.6-1.2,5.2c-0.8,1.6-1.9,3.1-3.4,4.2c-1.4,1.1-3.1,1.9-4.9,2.3c-1.8,0.4-3.6,0.4-5.4,0
			c-0.5-0.1-0.9-0.3-1.4-0.4C71.3,80,68,75.6,68,70.4s3.3-9.6,7.8-11.3c0.4-0.2,0.9-0.3,1.4-0.4c2.3-0.5,4.7-0.4,7,0.4
			c0.5,0.2,0.9,0.4,1.4,0.6c1.9,1,3.6,2.5,4.7,4.4S92,68.2,92,70.4L92,70.4z"/>
		<path class="st6" d="M75.8,59.1v22.5C71.3,80,68,75.6,68,70.4S71.3,60.8,75.8,59.1L75.8,59.1z"/>
		<path class="st13" d="M84.2,59.1v22.5c-2.7,1-5.6,1-8.3,0V59.1c0.4-0.2,0.9-0.3,1.4-0.4C79.5,58.2,81.9,58.3,84.2,59.1L84.2,59.1z
			"/>
		<path class="st6" d="M92,70.4c0,2.5-0.8,4.8-2.2,6.9c-1.4,2-3.4,3.5-5.7,4.4V59.1c0.5,0.2,0.9,0.4,1.4,0.6c1.9,1,3.6,2.5,4.7,4.4
			C91.4,66.1,92,68.2,92,70.4z"/>
		<path class="st25" d="M77.2,58.7v23.3c-0.5-0.1-0.9-0.3-1.4-0.4V59.1C76.3,59,76.7,58.8,77.2,58.7L77.2,58.7z"/>
		<path class="st26" d="M85.5,59.8V81c-0.4,0.2-0.9,0.4-1.4,0.6V59.1C84.6,59.3,85.1,59.5,85.5,59.8L85.5,59.8z"/>
		<path class="st27" d="M88.8,67c0.4,0,0.8-0.3,0.8-0.8c0-0.4-0.3-0.8-0.8-0.8c-0.4,0-0.8,0.3-0.8,0.8C88.1,66.6,88.4,67,88.8,67z"
			/>
		<path class="st27" d="M88.8,65.2c0.3,0,0.5-0.2,0.5-0.5c0-0.3-0.2-0.5-0.5-0.5c-0.3,0-0.5,0.2-0.5,0.5
			C88.3,64.9,88.5,65.2,88.8,65.2z"/>
		<path class="st26" d="M70.7,70.4c0,1.9,0.5,3.8,1.4,5.5c0.9,1.7,2.2,3.2,3.8,4.3v1.4C71.3,80,68,75.6,68,70.4s3.3-9.6,7.8-11.3
			v1.4c-1.6,1.1-2.9,2.6-3.8,4.3C71.2,66.6,70.7,68.5,70.7,70.4L70.7,70.4z"/>
		<path class="st25" d="M77.2,81.1c1.3,0.7,2.7,1.1,4.1,1.3c-0.4,0.1-0.9,0.1-1.3,0.1c-0.9,0-1.9-0.1-2.8-0.3
			c-0.5-0.1-0.9-0.3-1.4-0.4v-1.4C76.3,80.5,76.7,80.8,77.2,81.1L77.2,81.1z"/>
		<path class="st25" d="M77.2,59.7c-0.5,0.2-0.9,0.5-1.4,0.8v-1.4c0.4-0.2,0.9-0.3,1.4-0.4c0.9-0.2,1.8-0.3,2.8-0.3
			c0.5,0,0.9,0,1.4,0.1C79.9,58.6,78.5,59.1,77.2,59.7L77.2,59.7z"/>
		<path class="st29" d="M77.2,58.7v1c-0.5,0.2-0.9,0.5-1.4,0.8v-1.4C76.3,59,76.7,58.8,77.2,58.7L77.2,58.7z"/>
		<path class="st29" d="M75.8,80.2c0.4,0.3,0.9,0.6,1.4,0.8v1c-0.5-0.1-0.9-0.3-1.4-0.4V80.2z"/>
		<path class="st47" d="M81.9,72l1.5-1.3c0,0,0,0,0-0.1c0,0,0,0,0-0.1c0,0,0,0,0-0.1c0,0,0,0-0.1,0l-0.1,0c0,0-0.1,0-0.1-0.1
			c0,0,0-0.1,0-0.1l0.2-1c0,0,0,0,0-0.1c0,0,0,0,0-0.1c0,0,0,0-0.1,0c0,0,0,0-0.1,0l-0.8,0.1c0,0-0.1,0-0.1,0c0,0-0.1,0-0.1-0.1
			L82.1,69c0,0,0,0,0-0.1c0,0,0,0-0.1,0s0,0-0.1,0c0,0,0,0-0.1,0l-0.6,0.6c0,0,0,0-0.1,0c0,0-0.1,0-0.1,0c0,0-0.1,0-0.1-0.1
			c0,0,0-0.1,0-0.1l0.3-1.6c0,0,0,0,0-0.1c0,0,0,0,0-0.1c0,0,0,0-0.1,0c0,0,0,0-0.1,0l-0.4,0.1c0,0-0.1,0-0.1,0c0,0-0.1,0-0.1-0.1
			l-0.5-0.8c0,0,0,0,0,0c0,0,0,0-0.1,0s0,0-0.1,0c0,0,0,0,0,0l-0.5,0.8c0,0,0,0.1-0.1,0.1c0,0-0.1,0-0.1,0l-0.4-0.1c0,0,0,0-0.1,0
			c0,0,0,0-0.1,0c0,0,0,0,0,0.1c0,0,0,0,0,0.1l0.3,1.6c0,0,0,0.1,0,0.1c0,0-0.1,0.1-0.1,0.1c0,0-0.1,0-0.1,0c0,0-0.1,0-0.1,0
			l-0.6-0.6c0,0,0,0-0.1,0c0,0,0,0-0.1,0c0,0,0,0-0.1,0c0,0,0,0,0,0.1l-0.1,0.2c0,0,0,0.1-0.1,0.1c0,0-0.1,0-0.1,0l-0.8-0.1
			c0,0,0,0-0.1,0c0,0,0,0-0.1,0c0,0,0,0,0,0.1c0,0,0,0,0,0.1l0.2,1c0,0,0,0.1,0,0.1c0,0,0,0.1-0.1,0.1l-0.1,0c0,0,0,0-0.1,0
			c0,0,0,0,0,0.1c0,0,0,0,0,0.1c0,0,0,0,0,0.1l1.5,1.3c0,0,0.1,0.1,0.1,0.1c0,0,0,0.1,0,0.1l-0.1,0.3c0,0,0,0,0,0.1c0,0,0,0,0,0.1
			c0,0,0,0,0.1,0c0,0,0,0,0.1,0l1.3-0.2c0,0,0.1,0,0.1,0c0,0,0.1,0,0.1,0c0,0,0,0,0.1,0.1c0,0,0,0.1,0,0.1l-0.1,1.5
			c0,0.1,0,0.1,0.1,0.2c0,0.1,0.1,0.1,0.2,0.1c0,0,0.1,0,0.1,0c0,0,0.1,0,0.1-0.1c0,0,0.1-0.1,0.1-0.1c0,0,0-0.1,0-0.1l-0.1-1.5
			c0,0,0-0.1,0-0.1c0,0,0-0.1,0.1-0.1c0,0,0,0,0.1,0c0,0,0.1,0,0.1,0l1.3,0.2c0,0,0,0,0.1,0c0,0,0,0,0.1,0c0,0,0,0,0-0.1
			c0,0,0,0,0-0.1l-0.1-0.3c0,0,0-0.1,0-0.1C81.8,72.1,81.8,72,81.9,72L81.9,72z"/>
	</g>
</g>
<g>
	<defs>
		<rect id="SVGID_19_" x="24" y="58.4" width="24" height="24"/>
	</defs>
	<clipPath id="SVGID_20_">
		<use xlink:href="#SVGID_19_"  style="overflow:visible;"/>
	</clipPath>
	<g class="st48">
		<path class="st12" d="M36,82.4c6.6,0,12-5.4,12-12s-5.4-12-12-12s-12,5.4-12,12S29.4,82.4,36,82.4z"/>
		<path class="st19" d="M48,70.4c0,0.6,0,1.2-0.1,1.9c-0.3,1.8-1,3.6-2.1,5.1c-0.1,0.1-0.2,0.2-0.2,0.3c-0.2,0.3-0.5,0.6-0.7,0.9
			c-1.7,1.8-3.9,3.1-6.3,3.6c-0.3,0.1-0.6,0.1-1,0.2c-1,0.1-2,0.1-3,0c-0.3,0-0.7-0.1-1-0.2c-1.9-0.4-3.7-1.3-5.2-2.5
			c-0.2-0.1-0.3-0.3-0.4-0.4c-0.3-0.3-0.6-0.5-0.8-0.8c-1.9-2.1-3-4.9-3.1-7.8c-0.1-2.9,0.9-5.7,2.7-7.9c0.1-0.1,0.2-0.2,0.3-0.4
			c0.3-0.3,0.5-0.6,0.8-0.8c1.6-1.5,3.6-2.5,5.7-2.9c0.3-0.1,0.6-0.1,1-0.2c1-0.1,2-0.1,3,0c0.3,0,0.7,0.1,1,0.2
			c1.6,0.3,3.1,1,4.4,1.9c0.2,0.1,0.3,0.2,0.5,0.3c0.3,0.2,0.6,0.5,0.9,0.8c0.4,0.3,0.7,0.7,1,1.1c1.4,1.7,2.3,3.7,2.6,5.8
			C48,69.2,48,69.8,48,70.4z"/>
		<path class="st49" d="M37.5,82.3c0.1,0,0.1,0,0.2,0C37.6,82.3,37.5,82.3,37.5,82.3c-1,0.2-2,0.2-3,0c-0.3,0-0.7-0.1-1-0.2
			c-1.9-0.4-3.7-1.3-5.2-2.5c-0.2-0.1-0.3-0.3-0.4-0.4c-0.3-0.3-0.6-0.5-0.8-0.8c-1.9-2.1-3-4.9-3.1-7.8c-0.1-2.9,0.9-5.7,2.7-7.9
			c0.1-0.1,0.2-0.2,0.3-0.4c0.3-0.3,0.5-0.6,0.8-0.8c1.6-1.5,3.6-2.5,5.7-2.9c0.3-0.1,0.6-0.1,1-0.2c1-0.1,2-0.1,3,0
			c0.1,0,0.1,0,0.2,0c-0.1,0-0.1,0-0.2,0c-0.2,0-0.4,0.1-0.6,0.1c-0.8,0.2-1.6,0.4-2.3,0.8c-0.3,0.1-0.7,0.3-1,0.5
			c-0.4,0.2-0.8,0.5-1.2,0.7c-0.4,0.3-0.8,0.6-1.2,1c-0.2,0.2-0.4,0.4-0.6,0.6c-0.1,0.1-0.2,0.2-0.2,0.3c-0.1,0.1-0.2,0.2-0.3,0.4
			c-0.2,0.2-0.3,0.4-0.4,0.6c-0.2,0.3-0.4,0.6-0.6,1c-0.1,0.1-0.2,0.3-0.2,0.4c-0.6,1.2-1.1,2.5-1.3,3.8c-0.2,1.2-0.2,2.5,0,3.7
			c0.2,1.5,0.8,2.9,1.5,4.3c0.2,0.3,0.3,0.5,0.5,0.8c0,0.1,0.1,0.1,0.1,0.2c0.1,0.2,0.2,0.3,0.4,0.5c0.1,0.2,0.3,0.3,0.4,0.5
			c0.3,0.3,0.5,0.6,0.8,0.8c0.1,0.1,0.3,0.3,0.4,0.4c0.6,0.5,1.2,0.9,1.9,1.3c0.3,0.2,0.6,0.3,1,0.5c0.8,0.3,1.5,0.6,2.3,0.8
			C37.1,82.2,37.3,82.2,37.5,82.3L37.5,82.3z"/>
		<path class="st13" d="M45.2,62.7l-4.5,4.5l-1.3,1.3l-1,1l-0.3,0.3l-0.7,0.7l-1.8,1.8l-1.2,1.2l-0.1,0.1l-0.9,0.9l-5.2,5.2
			c-0.2-0.1-0.3-0.3-0.4-0.4c-0.3-0.3-0.6-0.5-0.8-0.8c-0.3-0.4-0.6-0.7-0.9-1.1l3.7-3.7l3.6-3.6l0.2-0.2l0.8-0.8l0.4-0.4l1-1
			l0.3-0.3l1.3-1.3l1-1l4.4-4.4c0.2,0.1,0.3,0.2,0.5,0.3c0.3,0.2,0.6,0.5,0.9,0.8C44.6,62,44.9,62.4,45.2,62.7L45.2,62.7z"/>
		<path class="st13" d="M45.8,77.3c-0.1,0.1-0.2,0.2-0.2,0.3c-0.2,0.3-0.5,0.6-0.7,0.9c-0.4,0.4-0.8,0.8-1.2,1.1l-5.2-5.2l-0.9-0.9
			l0,0l-1.3-1.3L36,72l-1.5-1.5l-0.8-0.8l-0.2-0.2l-1-1l-1.3-1.3l-4.5-4.5c0.1-0.1,0.2-0.2,0.3-0.4c0.3-0.3,0.5-0.6,0.8-0.8
			c0.4-0.4,0.8-0.7,1.2-1L45.8,77.3z"/>
		<path class="st6" d="M33.3,73.8l-5.4,5.4c-0.3-0.3-0.6-0.5-0.8-0.8l4.6-4.6H33.3z"/>
		<path class="st6" d="M44.2,61.7l-5.6,5.6l-0.2,0.2l-0.1,0.1h-1.6l0.3-0.3l0.5-0.5l5.9-5.9C43.7,61.2,43.9,61.4,44.2,61.7
			L44.2,61.7z"/>
		<path class="st6" d="M45.6,77.7c-0.2,0.3-0.5,0.6-0.7,0.9l-4.7-4.7h1.6L45.6,77.7z"/>
		<path class="st6" d="M33.8,67.5h-1.6l-0.3-0.3l-4.8-4.8c0.3-0.3,0.5-0.6,0.8-0.8l5.7,5.7l0,0L33.8,67.5z"/>
		<path class="st13" d="M47.9,68.5c-0.1-0.4-0.2-0.9-0.3-1.3h-9.1v-8.6c-0.3-0.1-0.6-0.1-1-0.2c-1-0.1-2-0.1-3,0
			c-0.3,0-0.7,0.1-1,0.2v8.6h-9.1c-0.1,0.4-0.2,0.9-0.3,1.3c-0.2,1.2-0.2,2.5,0,3.7c0.1,0.4,0.2,0.9,0.3,1.3h9.1v8.6
			c0.3,0.1,0.6,0.1,1,0.2c1,0.1,2,0.1,3,0c0.3,0,0.7-0.1,1-0.2v-8.6h9.1c0.1-0.4,0.2-0.9,0.3-1.3C48,71,48,69.8,47.9,68.5L47.9,68.5
			z"/>
		<path class="st25" d="M29.6,77.5c0.1,0.2,0.2,0.3,0.4,0.5l-1.7,1.7c-0.2-0.1-0.3-0.3-0.4-0.4c-0.3-0.3-0.6-0.5-0.8-0.8
			c-0.3-0.4-0.6-0.7-0.9-1.1l2.1-2.1c0.2,0.5,0.4,0.9,0.7,1.3c0.2,0.3,0.3,0.5,0.5,0.8C29.5,77.4,29.6,77.4,29.6,77.5L29.6,77.5z"/>
		<path class="st25" d="M30.6,62.1c-0.1,0.1-0.2,0.2-0.2,0.3c-0.1,0.1-0.2,0.2-0.3,0.4c-0.2,0.2-0.3,0.4-0.4,0.6
			c-0.2,0.3-0.4,0.6-0.6,1c-0.1,0.1-0.2,0.3-0.2,0.4l-2-2c0.1-0.1,0.2-0.2,0.3-0.4c0.3-0.3,0.5-0.6,0.8-0.8c0.4-0.4,0.8-0.7,1.2-1
			L30.6,62.1z"/>
		<path class="st25" d="M27.5,68.5c-0.2,1.2-0.2,2.5,0,3.7c0.1,0.4,0.2,0.9,0.3,1.3h-3.3c-0.1-0.4-0.2-0.9-0.3-1.3
			c-0.2-1.2-0.2-2.5,0-3.7c0.1-0.4,0.2-0.9,0.3-1.3h3.3C27.6,67.7,27.5,68.1,27.5,68.5L27.5,68.5z"/>
		<path class="st25" d="M34.5,59.4c-0.3,0.1-0.7,0.3-1,0.5v-1.2c0.3-0.1,0.6-0.1,1-0.2c1-0.1,2-0.1,3,0c0.1,0,0.1,0,0.2,0
			c-0.1,0-0.1,0-0.2,0c-0.2,0-0.4,0.1-0.6,0.1C36,58.8,35.3,59.1,34.5,59.4L34.5,59.4z"/>
		<path class="st6" d="M48,70.4c0-0.6,0-1.2-0.1-1.9H37.5v-10c-1-0.1-2-0.1-3,0v10H24.1c-0.2,1.2-0.2,2.5,0,3.7h10.4v10
			c1,0.1,2,0.1,3,0v-10h10.4C48,71.6,48,71,48,70.4L48,70.4z"/>
		<path class="st50" d="M29.6,77.5l-1.7,1.7c-0.3-0.3-0.6-0.5-0.8-0.8l1.9-1.9c0.2,0.3,0.3,0.5,0.5,0.8
			C29.5,77.4,29.6,77.4,29.6,77.5L29.6,77.5z"/>
		<path class="st50" d="M29.6,63.3c-0.2,0.3-0.4,0.6-0.6,1l-1.9-1.9c0.3-0.3,0.5-0.6,0.8-0.8L29.6,63.3z"/>
		<path class="st50" d="M27.5,68.5c-0.2,1.2-0.2,2.5,0,3.7h-3.3c-0.2-1.2-0.2-2.5,0-3.7H27.5z"/>
		<path class="st50" d="M37.5,58.5L37.5,58.5c-0.2,0.1-0.4,0.1-0.6,0.2c-0.8,0.2-1.6,0.4-2.3,0.8v-0.9
			C35.5,58.4,36.5,58.4,37.5,58.5L37.5,58.5z"/>
		<path class="st51" d="M46.2,71.2c0.4,0,0.8-0.3,0.8-0.8c0-0.4-0.3-0.8-0.8-0.8c-0.4,0-0.8,0.3-0.8,0.8
			C45.5,70.8,45.8,71.2,46.2,71.2z"/>
		<path class="st51" d="M44.6,70.9c0.3,0,0.5-0.2,0.5-0.5c0-0.3-0.2-0.5-0.5-0.5s-0.5,0.2-0.5,0.5C44.1,70.7,44.3,70.9,44.6,70.9z"
			/>
	</g>
</g>
<g>
	<defs>
		<rect id="SVGID_21_" x="112" y="24" width="24" height="24"/>
	</defs>
	<clipPath id="SVGID_22_">
		<use xlink:href="#SVGID_21_"  style="overflow:visible;"/>
	</clipPath>
	<g class="st52">
		<path class="st31" d="M124,48c6.6,0,12-5.4,12-12s-5.4-12-12-12s-12,5.4-12,12S117.4,48,124,48z"/>
		<path class="st6" d="M130.4,25.8h-12.8c0.2-0.1,0.5-0.3,0.7-0.4c1.7-0.9,3.6-1.4,5.5-1.4h0.4c0.2,0,0.5,0,0.7,0
			C126.8,24.2,128.7,24.8,130.4,25.8L130.4,25.8z"/>
		<path class="st13" d="M132.7,27.7h-17.3c0,0,0,0,0,0c0.2-0.2,0.4-0.4,0.7-0.6c0.2-0.2,0.5-0.4,0.7-0.6c0.3-0.2,0.6-0.4,0.9-0.6
			h12.8C131.2,26.4,132,27,132.7,27.7L132.7,27.7z"/>
		<path class="st6" d="M134.1,29.5h-20.2c0.2-0.3,0.4-0.5,0.5-0.8c0.3-0.4,0.6-0.7,0.9-1.1h17.3C133.2,28.3,133.7,28.9,134.1,29.5
			L134.1,29.5z"/>
		<path class="st13" d="M135.1,31.4h-22.2c0.1-0.1,0.1-0.3,0.2-0.4c0.2-0.4,0.4-0.9,0.7-1.3c0,0,0.1-0.1,0.1-0.1h20.2
			C134.5,30.1,134.8,30.7,135.1,31.4L135.1,31.4z"/>
		<path class="st6" d="M135.7,33.2h-23.4c0.1-0.3,0.1-0.6,0.2-0.8c0.1-0.3,0.2-0.7,0.4-1h22.2C135.3,32,135.5,32.6,135.7,33.2
			L135.7,33.2z"/>
		<path class="st13" d="M136,35.1H112c0-0.6,0.1-1.2,0.3-1.8h23.4C135.8,33.8,135.9,34.5,136,35.1z"/>
		<path class="st6" d="M136,36c0,0.3,0,0.6,0,0.9H112c0-0.3,0-0.6,0-0.9v-0.6c0,0,0,0,0,0c0,0,0-0.1,0-0.1c0-0.1,0-0.2,0-0.3H136
			C136,35.4,136,35.7,136,36z"/>
		<path class="st13" d="M136,36.9c0,0.6-0.1,1.2-0.3,1.8h-23.4c-0.1-0.6-0.2-1.2-0.3-1.8H136z"/>
		<path class="st6" d="M135.7,38.8c-0.1,0.6-0.3,1.2-0.6,1.8h-22.2c-0.3-0.6-0.4-1.2-0.6-1.8H135.7z"/>
		<path class="st13" d="M135.1,40.6c-0.3,0.6-0.6,1.3-1,1.8h-20.2c-0.4-0.6-0.7-1.2-1-1.8H135.1z"/>
		<path class="st6" d="M134.1,42.5c-0.4,0.7-0.9,1.3-1.5,1.8h-17.3c-0.5-0.6-1-1.2-1.5-1.8H134.1z"/>
		<path class="st13" d="M132.7,44.3c-0.7,0.7-1.4,1.3-2.3,1.8h-12.8c-0.8-0.5-1.6-1.1-2.3-1.8H132.7z"/>
		<path class="st6" d="M130.4,46.2c-1.8,1.2-4,1.8-6.2,1.8h-0.5c-2.2,0-4.3-0.7-6.2-1.8L130.4,46.2z"/>
		<path class="st19" d="M124.9,24v12.9H112c0-0.3,0-0.6,0-0.9v-0.6c0,0,0,0,0,0c0,0,0-0.1,0-0.1c0-0.1,0-0.2,0-0.3
			c0-0.6,0.1-1.2,0.3-1.8c0.1-0.3,0.1-0.6,0.2-0.8c0.1-0.3,0.2-0.7,0.4-1c0.1-0.1,0.1-0.3,0.2-0.4c0.2-0.4,0.4-0.9,0.7-1.3
			c0,0,0.1-0.1,0.1-0.1c0.2-0.3,0.4-0.5,0.5-0.8c0.3-0.4,0.6-0.7,0.9-1.1c0,0,0,0,0,0c0.2-0.2,0.4-0.4,0.7-0.6
			c0.2-0.2,0.5-0.4,0.7-0.6c0.3-0.2,0.6-0.4,0.9-0.6c0.2-0.1,0.5-0.3,0.7-0.4c1.7-0.9,3.6-1.4,5.5-1.4h0.4
			C124.4,24,124.7,24,124.9,24L124.9,24z"/>
		<path class="st13" d="M123.5,24.8l0.2,0.5c0,0,0,0,0,0c0,0,0,0,0.1,0h0.5c0,0,0,0,0,0c0,0,0,0,0,0c0,0,0,0,0,0.1c0,0,0,0,0,0
			l-0.4,0.3c0,0,0,0,0,0c0,0,0,0,0,0.1l0.2,0.5c0,0,0,0,0,0.1c0,0,0,0,0,0c0,0,0,0,0,0c0,0,0,0-0.1,0l-0.4-0.3c0,0,0,0,0,0
			c0,0,0,0-0.1,0l-0.4,0.3c0,0,0,0,0,0c0,0,0,0,0,0c0,0,0,0,0,0c0,0,0,0,0-0.1l0.2-0.5c0,0,0,0,0-0.1c0,0,0,0,0,0l-0.4-0.3
			c0,0,0,0,0,0c0,0,0,0,0-0.1c0,0,0,0,0,0c0,0,0,0,0.1,0h0.5c0,0,0,0,0.1,0c0,0,0,0,0,0l0.2-0.5c0,0,0,0,0,0
			C123.4,24.7,123.4,24.7,123.5,24.8C123.4,24.7,123.5,24.7,123.5,24.8C123.5,24.7,123.5,24.8,123.5,24.8L123.5,24.8z"/>
		<path class="st13" d="M117.8,25.8C117.8,25.9,117.8,25.9,117.8,25.8l0.2,0.6c0,0,0,0,0,0.1c0,0,0,0,0,0c0,0,0,0,0,0c0,0,0,0,0,0
			l-0.4-0.3c0,0,0,0-0.1,0s0,0-0.1,0l-0.4,0.3c0,0,0,0,0,0c0,0,0,0,0,0c0,0,0,0,0,0s0,0,0,0c0.3-0.2,0.6-0.4,0.9-0.6
			c0.2-0.1,0.5-0.3,0.7-0.4c0,0,0,0,0,0L117.8,25.8C117.8,25.8,117.8,25.8,117.8,25.8L117.8,25.8z"/>
		<path class="st13" d="M123.5,28.7l0.2,0.5c0,0,0,0,0,0c0,0,0,0,0.1,0h0.5c0,0,0,0,0,0c0,0,0,0,0,0c0,0,0,0,0,0.1c0,0,0,0,0,0
			l-0.4,0.3c0,0,0,0,0,0c0,0,0,0,0,0.1l0.2,0.5c0,0,0,0,0,0.1c0,0,0,0,0,0c0,0,0,0-0.1,0c0,0,0,0,0,0l-0.4-0.3c0,0,0,0-0.1,0
			c0,0,0,0-0.1,0l-0.4,0.3c0,0,0,0,0,0c0,0,0,0-0.1,0c0,0,0,0,0,0c0,0,0,0,0-0.1l0.2-0.5c0,0,0,0,0-0.1c0,0,0,0,0,0l-0.4-0.3
			c0,0,0,0,0,0c0,0,0,0,0-0.1c0,0,0,0,0,0c0,0,0,0,0.1,0h0.5c0,0,0,0,0.1,0c0,0,0,0,0,0l0.2-0.5c0,0,0,0,0,0
			C123.4,28.6,123.4,28.6,123.5,28.7C123.4,28.6,123.5,28.6,123.5,28.7C123.5,28.7,123.5,28.7,123.5,28.7L123.5,28.7z"/>
		<path class="st13" d="M120.5,28.7l0.2,0.5c0,0,0,0,0,0c0,0,0,0,0,0h0.5c0,0,0,0,0.1,0s0,0,0,0c0,0,0,0,0,0.1c0,0,0,0,0,0l-0.4,0.3
			c0,0,0,0,0,0c0,0,0,0,0,0.1l0.2,0.5c0,0,0,0,0,0.1c0,0,0,0,0,0c0,0,0,0,0,0c0,0,0,0-0.1,0l-0.4-0.3c0,0,0,0,0,0c0,0,0,0-0.1,0
			l-0.4,0.3c0,0,0,0-0.1,0c0,0,0,0,0,0c0,0,0,0,0,0c0,0,0,0,0-0.1l0.2-0.5c0,0,0,0,0-0.1c0,0,0,0,0,0l-0.4-0.3c0,0,0,0,0,0
			c0,0,0,0,0-0.1c0,0,0,0,0,0c0,0,0,0,0.1,0h0.5c0,0,0,0,0.1,0c0,0,0,0,0,0l0.2-0.5c0,0,0,0,0,0C120.4,28.6,120.4,28.6,120.5,28.7
			C120.4,28.6,120.4,28.6,120.5,28.7C120.5,28.7,120.5,28.7,120.5,28.7L120.5,28.7z"/>
		<path class="st13" d="M115.2,29.4l-0.2,0.1l-0.3,0.2c0,0,0,0,0,0c0,0,0,0,0,0.1l0.2,0.5c0,0,0,0,0,0.1s0,0,0,0c0,0,0,0,0,0
			c0,0,0,0,0,0l-0.4-0.3c0,0,0,0-0.1,0c0,0,0,0-0.1,0l-0.4,0.3c0,0,0,0,0,0c0,0,0,0,0,0c0,0,0,0,0,0c0,0,0,0,0-0.1l0.2-0.5
			c0,0,0,0,0-0.1c0,0,0,0,0,0l-0.1,0c0,0,0.1-0.1,0.1-0.1c0.2-0.3,0.4-0.5,0.5-0.8l0.1,0.4c0,0,0,0,0,0c0,0,0,0,0.1,0h0.5
			c0,0,0,0,0,0C115.3,29.3,115.3,29.3,115.2,29.4C115.3,29.3,115.3,29.4,115.2,29.4C115.3,29.4,115.2,29.4,115.2,29.4z"/>
		<path class="st13" d="M123.5,32.7l0.2,0.5c0,0,0,0,0,0c0,0,0,0,0.1,0h0.5c0,0,0,0,0,0c0,0,0,0,0,0c0,0,0,0,0,0.1c0,0,0,0,0,0
			l-0.4,0.3c0,0,0,0,0,0c0,0,0,0,0,0.1l0.2,0.5c0,0,0,0,0,0.1c0,0,0,0,0,0c0,0,0,0-0.1,0c0,0,0,0-0.1,0l-0.4-0.3c0,0,0,0-0.1,0
			c0,0,0,0-0.1,0l-0.4,0.3c0,0,0,0-0.1,0c0,0,0,0,0,0c0,0,0,0,0,0c0,0,0,0,0-0.1l0.2-0.5c0,0,0,0,0-0.1c0,0,0,0,0,0l-0.4-0.3
			c0,0,0,0,0,0c0,0,0,0,0-0.1c0,0,0,0,0,0c0,0,0,0,0.1,0h0.5c0,0,0,0,0,0c0,0,0,0,0,0l0.2-0.5c0,0,0,0,0,0
			C123.4,32.6,123.4,32.6,123.5,32.7C123.4,32.6,123.5,32.6,123.5,32.7C123.5,32.7,123.5,32.7,123.5,32.7L123.5,32.7z"/>
		<path class="st13" d="M120.5,32.7l0.2,0.5c0,0,0,0,0,0c0,0,0,0,0,0h0.5c0,0,0,0,0.1,0c0,0,0,0,0,0c0,0,0,0,0,0.1c0,0,0,0,0,0
			l-0.4,0.3c0,0,0,0,0,0c0,0,0,0,0,0.1l0.2,0.5c0,0,0,0,0,0.1c0,0,0,0,0,0c0,0,0,0,0,0c0,0,0,0-0.1,0l-0.4-0.3c0,0,0,0,0,0
			c0,0,0,0-0.1,0l-0.4,0.3c0,0,0,0,0,0c0,0,0,0-0.1,0c0,0,0,0,0,0c0,0,0,0,0-0.1l0.2-0.5c0,0,0,0,0-0.1c0,0,0,0,0,0l-0.4-0.3
			c0,0,0,0,0,0c0,0,0,0,0-0.1c0,0,0,0,0,0c0,0,0,0,0.1,0h0.5c0,0,0,0,0.1,0c0,0,0,0,0,0l0.2-0.5c0,0,0,0,0,0S120.4,32.6,120.5,32.7
			C120.4,32.6,120.4,32.6,120.5,32.7C120.5,32.7,120.5,32.7,120.5,32.7L120.5,32.7z"/>
		<path class="st13" d="M117.4,32.7l0.2,0.5c0,0,0,0,0,0c0,0,0,0,0.1,0h0.5c0,0,0,0,0.1,0c0,0,0,0,0,0c0,0,0,0,0,0.1c0,0,0,0,0,0
			l-0.4,0.3c0,0,0,0,0,0c0,0,0,0,0,0.1l0.2,0.5c0,0,0,0,0,0.1c0,0,0,0,0,0c0,0,0,0,0,0c0,0,0,0-0.1,0l-0.4-0.3c0,0,0,0,0,0
			c0,0,0,0-0.1,0l-0.4,0.3c0,0,0,0-0.1,0c0,0,0,0,0,0c0,0,0,0,0,0c0,0,0,0,0-0.1l0.2-0.5c0,0,0,0,0-0.1c0,0,0,0,0,0l-0.4-0.3
			c0,0,0,0,0,0c0,0,0,0,0-0.1c0,0,0,0,0,0c0,0,0,0,0,0h0.5c0,0,0,0,0,0c0,0,0,0,0,0l0.2-0.5c0,0,0,0,0,0
			C117.3,32.6,117.3,32.6,117.4,32.7C117.4,32.6,117.4,32.6,117.4,32.7C117.4,32.7,117.4,32.7,117.4,32.7L117.4,32.7z"/>
		<path class="st13" d="M114.4,32.7l0.2,0.5c0,0,0,0,0,0c0,0,0,0,0.1,0h0.5c0,0,0,0,0,0c0,0,0,0,0,0c0,0,0,0,0,0.1s0,0,0,0l-0.4,0.3
			c0,0,0,0,0,0s0,0,0,0.1l0.2,0.5c0,0,0,0,0,0.1c0,0,0,0,0,0c0,0,0,0,0,0c0,0,0,0-0.1,0l-0.4-0.3c0,0,0,0-0.1,0c0,0,0,0-0.1,0
			l-0.4,0.3c0,0,0,0-0.1,0c0,0,0,0,0,0c0,0,0,0,0,0c0,0,0,0,0-0.1l0.2-0.5c0,0,0,0,0-0.1c0,0,0,0,0,0l-0.4-0.3c0,0,0,0,0,0
			c0,0,0,0,0-0.1c0,0,0,0,0,0c0,0,0,0,0.1,0h0.5c0,0,0,0,0.1,0s0,0,0,0l0.2-0.5c0,0,0,0,0,0C114.3,32.6,114.3,32.6,114.4,32.7
			C114.3,32.6,114.4,32.6,114.4,32.7C114.4,32.7,114.4,32.7,114.4,32.7z"/>
		<path class="st13" d="M122,26.6l0.2,0.5c0,0,0,0,0,0c0,0,0,0,0,0h0.5c0,0,0,0,0,0c0,0,0,0,0,0c0,0,0,0,0,0.1c0,0,0,0,0,0l-0.4,0.3
			c0,0,0,0,0,0c0,0,0,0,0,0.1l0.2,0.5c0,0,0,0,0,0.1c0,0,0,0,0,0c0,0,0,0,0,0c0,0,0,0-0.1,0L122,28c0,0,0,0,0,0c0,0,0,0-0.1,0
			l-0.4,0.3c0,0,0,0-0.1,0c0,0,0,0,0,0c0,0,0,0,0,0c0,0,0,0,0-0.1l0.2-0.5c0,0,0,0,0-0.1c0,0,0,0,0,0l-0.4-0.3c0,0,0,0,0,0
			c0,0,0,0,0-0.1c0,0,0,0,0,0c0,0,0,0,0,0h0.5c0,0,0,0,0.1,0c0,0,0,0,0,0l0.2-0.5c0,0,0,0,0,0C121.9,26.6,121.9,26.6,122,26.6
			C121.9,26.6,121.9,26.6,122,26.6C122,26.6,122,26.6,122,26.6z"/>
		<path class="st13" d="M116.3,27.7C116.3,27.7,116.3,27.7,116.3,27.7l0.2,0.6c0,0,0,0,0,0.1s0,0,0,0c0,0,0,0,0,0c0,0,0,0,0,0
			l-0.4-0.3c0,0,0,0-0.1,0c0,0,0,0,0,0l-0.4,0.3c0,0,0,0,0,0c0,0,0,0,0,0c0,0,0,0,0,0s0,0,0-0.1l0.2-0.5c0,0,0,0,0-0.1c0,0,0,0,0,0
			c0.2-0.2,0.4-0.4,0.7-0.6l0,0.1c0,0,0,0,0,0s0,0,0.1,0h0.5c0,0,0,0,0.1,0c0,0,0,0,0,0c0,0,0,0,0,0.1c0,0,0,0,0,0L116.3,27.7
			C116.3,27.7,116.3,27.7,116.3,27.7L116.3,27.7z"/>
		<path class="st13" d="M113.9,31.4C113.9,31.4,113.9,31.4,113.9,31.4C113.9,31.4,113.9,31.4,113.9,31.4l-0.5,0.4c0,0,0,0,0,0
			c0,0,0,0,0,0.1l0.2,0.5c0,0,0,0,0,0.1c0,0,0,0,0,0c0,0,0,0-0.1,0c0,0,0,0,0,0l-0.4-0.3c0,0,0,0-0.1,0c0,0,0,0,0,0l-0.3,0.2
			c0.1-0.3,0.2-0.7,0.4-1c0.1-0.1,0.1-0.3,0.2-0.4l0.1,0.3c0,0,0,0,0,0c0,0,0,0,0.1,0L113.9,31.4C113.8,31.3,113.8,31.3,113.9,31.4
			C113.8,31.3,113.9,31.3,113.9,31.4C113.9,31.3,113.9,31.3,113.9,31.4C113.9,31.4,113.9,31.4,113.9,31.4L113.9,31.4z"/>
		<path class="st13" d="M122,30.7l0.2,0.5c0,0,0,0,0,0c0,0,0,0,0,0h0.5c0,0,0,0,0.1,0c0,0,0,0,0,0c0,0,0,0,0,0.1c0,0,0,0,0,0
			l-0.4,0.3c0,0,0,0,0,0c0,0,0,0,0,0.1l0.2,0.5c0,0,0,0,0,0.1c0,0,0,0,0,0c0,0,0,0,0,0c0,0,0,0-0.1,0l-0.4-0.3c0,0,0,0,0,0
			c0,0,0,0-0.1,0l-0.4,0.3c0,0,0,0-0.1,0s0,0,0,0c0,0,0,0,0,0c0,0,0,0,0-0.1l0.2-0.5c0,0,0,0,0-0.1c0,0,0,0,0,0l-0.4-0.3
			c0,0,0,0,0,0c0,0,0,0,0-0.1c0,0,0,0,0,0c0,0,0,0,0.1,0h0.5c0,0,0,0,0.1,0c0,0,0,0,0,0l0.2-0.5c0,0,0,0,0,0
			C121.9,30.7,121.9,30.7,122,30.7C121.9,30.7,121.9,30.7,122,30.7C122,30.7,122,30.7,122,30.7z"/>
		<path class="st13" d="M119,30.7l0.2,0.5c0,0,0,0,0,0c0,0,0,0,0.1,0h0.5c0,0,0,0,0.1,0c0,0,0,0,0,0c0,0,0,0,0,0.1c0,0,0,0,0,0
			l-0.4,0.3c0,0,0,0,0,0c0,0,0,0,0,0.1l0.2,0.5c0,0,0,0,0,0.1s0,0,0,0c0,0,0,0,0,0c0,0,0,0,0,0l-0.4-0.3c0,0,0,0-0.1,0s0,0-0.1,0
			l-0.4,0.3c0,0,0,0,0,0c0,0,0,0-0.1,0c0,0,0,0,0,0s0,0,0-0.1l0.2-0.5c0,0,0,0,0-0.1c0,0,0,0,0,0l-0.4-0.3c0,0,0,0,0,0
			c0,0,0,0,0-0.1c0,0,0,0,0,0c0,0,0,0,0.1,0h0.5c0,0,0,0,0.1,0c0,0,0,0,0,0l0.2-0.5c0,0,0,0,0,0C118.8,30.7,118.9,30.7,119,30.7
			C118.9,30.7,118.9,30.7,119,30.7C118.9,30.7,118.9,30.7,119,30.7L119,30.7z"/>
		<path class="st13" d="M113.4,35.8C113.4,35.8,113.4,35.8,113.4,35.8C113.4,35.8,113.4,35.9,113.4,35.8l0.1,0.6c0,0,0,0,0,0.1
			c0,0,0,0,0,0c0,0,0,0-0.1,0c0,0,0,0,0,0l-0.4-0.3c0,0,0,0-0.1,0c0,0,0,0,0,0l-0.4,0.3c0,0,0,0-0.1,0c0,0,0,0,0,0c0,0,0,0,0,0
			c0,0,0,0,0-0.1l0.2-0.5c0,0,0,0,0-0.1c0,0,0,0,0,0l-0.4-0.3c0,0,0,0,0,0c0,0,0-0.1,0-0.1c0,0,0,0,0,0c0,0,0,0,0,0h0.5
			c0,0,0,0,0.1,0c0,0,0,0,0,0l0.1-0.2l0.1-0.3c0,0,0,0,0,0c0,0,0,0,0,0c0,0,0,0,0.1,0c0,0,0,0,0,0l0.1,0.3l0.1,0.2c0,0,0,0,0,0
			c0,0,0,0,0.1,0h0.5c0,0,0,0,0.1,0c0,0,0,0,0,0c0,0,0,0,0,0.1c0,0,0,0,0,0L113.4,35.8z"/>
		<path class="st13" d="M122,34.8l0.2,0.5c0,0,0,0,0,0c0,0,0,0,0,0h0.5c0,0,0,0,0.1,0c0,0,0,0,0,0c0,0,0,0,0,0.1c0,0,0,0,0,0
			l-0.4,0.3c0,0,0,0,0,0c0,0,0,0,0,0.1l0.2,0.5c0,0,0,0,0,0.1c0,0,0,0,0,0c0,0,0,0,0,0c0,0,0,0-0.1,0l-0.4-0.3c0,0,0,0,0,0
			c0,0,0,0-0.1,0l-0.4,0.3c0,0,0,0-0.1,0s0,0,0,0c0,0,0,0,0,0c0,0,0,0,0-0.1l0.2-0.5c0,0,0,0,0-0.1c0,0,0,0,0,0l-0.4-0.3
			c0,0,0,0,0,0c0,0,0,0,0-0.1c0,0,0,0,0,0c0,0,0,0,0.1,0h0.5c0,0,0,0,0.1,0c0,0,0,0,0,0l0.2-0.5c0,0,0,0,0,0
			C121.9,34.7,121.9,34.7,122,34.8C121.9,34.7,121.9,34.7,122,34.8C122,34.7,122,34.7,122,34.8z"/>
		<path class="st13" d="M119,34.8l0.2,0.5c0,0,0,0,0,0c0,0,0,0,0.1,0h0.5c0,0,0,0,0,0c0,0,0,0,0,0c0,0,0,0,0,0.1s0,0,0,0l-0.4,0.3
			c0,0,0,0,0,0s0,0,0,0.1l0.2,0.5c0,0,0,0,0,0.1c0,0,0,0,0,0c0,0,0,0,0,0s0,0-0.1,0l-0.4-0.3c0,0,0,0-0.1,0c0,0,0,0,0,0l-0.4,0.3
			c0,0,0,0-0.1,0c0,0,0,0,0,0c0,0,0,0,0,0c0,0,0,0,0-0.1l0.2-0.5c0,0,0,0,0-0.1c0,0,0,0,0,0l-0.4-0.3c0,0,0,0,0,0c0,0,0,0,0-0.1
			c0,0,0,0,0,0c0,0,0,0,0.1,0h0.5c0,0,0,0,0.1,0c0,0,0,0,0,0l0.2-0.5c0,0,0,0,0,0C118.8,34.7,118.9,34.7,119,34.8
			C118.9,34.7,118.9,34.7,119,34.8C118.9,34.7,119,34.7,119,34.8L119,34.8z"/>
		<path class="st13" d="M115.9,34.8l0.2,0.5c0,0,0,0,0,0c0,0,0,0,0.1,0h0.5c0,0,0,0,0.1,0c0,0,0,0,0,0s0,0,0,0.1c0,0,0,0,0,0
			l-0.4,0.3c0,0,0,0,0,0c0,0,0,0,0,0.1l0.2,0.5c0,0,0,0,0,0.1c0,0,0,0,0,0c0,0,0,0-0.1,0c0,0,0,0,0,0l-0.4-0.3c0,0,0,0-0.1,0
			c0,0,0,0,0,0l-0.4,0.3c0,0,0,0,0,0c0,0,0,0-0.1,0c0,0,0,0,0,0c0,0,0,0,0-0.1l0.2-0.5c0,0,0,0,0-0.1c0,0,0,0,0,0l-0.4-0.3
			c0,0,0,0,0,0c0,0,0,0,0-0.1c0,0,0,0,0,0c0,0,0,0,0.1,0h0.5c0,0,0,0,0,0c0,0,0,0,0,0l0.2-0.5c0,0,0,0,0,0
			C115.8,34.7,115.8,34.7,115.9,34.8C115.9,34.7,115.9,34.7,115.9,34.8C115.9,34.7,115.9,34.7,115.9,34.8L115.9,34.8z"/>
		<path class="st6" d="M125.5,24.1c-0.2,0-0.4,0-0.6,0.1c-1.2,0.2-2.5,0.6-3.6,1.2c0,0-0.1,0-0.1,0.1c-0.2,0.1-0.5,0.3-0.7,0.4h-2.9
			c0.2-0.1,0.5-0.3,0.7-0.4c1.7-0.9,3.6-1.4,5.5-1.4h0.4c0.2,0,0.5,0,0.7,0C125.1,24,125.3,24.1,125.5,24.1L125.5,24.1z"/>
		<path class="st13" d="M120.5,25.8c-0.2,0.1-0.5,0.3-0.7,0.5c-0.1,0-0.1,0.1-0.2,0.1c-0.2,0.2-0.4,0.3-0.6,0.5c0,0-0.1,0.1-0.1,0.1
			c-0.2,0.2-0.4,0.4-0.6,0.6l0.1,0c0,0,0,0,0,0h-3.1c0,0,0,0,0,0c0.2-0.2,0.4-0.4,0.7-0.6c0.2-0.2,0.5-0.4,0.7-0.6
			c0.3-0.2,0.6-0.4,0.9-0.6L120.5,25.8z"/>
		<path class="st6" d="M118.2,27.7c-0.3,0.3-0.6,0.6-0.8,1l-0.1,0.1c0,0.1-0.1,0.1-0.1,0.2l-0.1,0.3c0,0,0,0,0,0c0,0,0,0,0,0H117
			c-0.1,0.1-0.1,0.2-0.2,0.3h-2.9c0.2-0.3,0.4-0.5,0.5-0.8c0.3-0.4,0.6-0.7,0.9-1.1H118.2z"/>
		<path class="st13" d="M116.8,29.5L116.8,29.5l-0.1,0.1c-0.3,0.4-0.5,0.8-0.7,1.3c-0.1,0.1-0.1,0.3-0.2,0.4h-2.9
			c0.1-0.1,0.1-0.3,0.2-0.4c0.2-0.4,0.4-0.9,0.7-1.3c0,0,0.1-0.1,0.1-0.1L116.8,29.5z"/>
		<path class="st6" d="M115.8,31.4c-0.1,0.3-0.3,0.7-0.4,1c-0.1,0.3-0.2,0.6-0.2,0.8h-2.9c0.1-0.3,0.1-0.6,0.2-0.8
			c0.1-0.3,0.2-0.7,0.4-1L115.8,31.4z"/>
		<path class="st13" d="M115.2,33.4L115.2,33.4c-0.2,0.6-0.3,1.1-0.3,1.7H112c0-0.6,0.1-1.2,0.3-1.8h2.9c0,0,0,0,0,0c0,0,0,0,0,0
			C115.3,33.3,115.3,33.3,115.2,33.4C115.3,33.4,115.3,33.4,115.2,33.4C115.3,33.4,115.2,33.4,115.2,33.4L115.2,33.4z"/>
		<path class="st6" d="M114.9,36c0,0.3,0,0.6,0,0.9H112c0-0.3,0-0.6,0-0.9v-0.6c0,0,0,0,0,0c0,0,0-0.1,0-0.1c0-0.1,0-0.2,0-0.3h2.9
			c0,0.1,0,0.2,0,0.3c0,0,0,0.1,0,0.1c0,0,0,0,0,0c0,0,0,0,0,0c0,0,0,0,0,0L114.9,36z"/>
		<path class="st53" d="M115.2,38.8h-2.9c-0.1-0.6-0.2-1.2-0.3-1.8h2.9C115,37.5,115.1,38.2,115.2,38.8L115.2,38.8z"/>
		<path class="st43" d="M115.8,40.6h-2.9c-0.3-0.6-0.4-1.2-0.6-1.8h2.9C115.4,39.4,115.6,40,115.8,40.6L115.8,40.6z"/>
		<path class="st53" d="M116.8,42.5h-2.9c-0.4-0.6-0.7-1.2-1-1.8h2.9C116.1,41.3,116.4,41.9,116.8,42.5L116.8,42.5z"/>
		<path class="st43" d="M118.2,44.3h-2.9c-0.5-0.6-1-1.2-1.5-1.8h2.9C117.2,43.1,117.7,43.7,118.2,44.3L118.2,44.3z"/>
		<path class="st53" d="M120.5,46.2h-2.9c-0.8-0.5-1.6-1.1-2.3-1.8h2.9C118.9,45,119.7,45.6,120.5,46.2L120.5,46.2z"/>
		<path class="st43" d="M125.5,47.9c-0.4,0-0.8,0.1-1.2,0.1h-0.5c-2.2,0-4.3-0.7-6.2-1.8h2.9C122,47.1,123.7,47.7,125.5,47.9z"/>
		<path class="st40" d="M124.9,24v0.1c-1.2,0.2-2.5,0.6-3.6,1.2c0,0-0.1,0-0.1,0.1c-0.2,0.1-0.5,0.3-0.7,0.4
			c-0.2,0.1-0.5,0.3-0.7,0.5c-0.1,0-0.1,0.1-0.2,0.1c-0.2,0.2-0.4,0.3-0.6,0.5c0,0-0.1,0.1-0.1,0.1c-0.2,0.2-0.4,0.4-0.6,0.6l0.1,0
			c0,0,0,0,0,0h-0.2c-0.3,0.3-0.6,0.6-0.8,1l-0.1,0.1c0,0.1-0.1,0.1-0.1,0.2l-0.1,0.3c0,0,0,0,0,0c0,0,0,0,0,0H117
			c-0.1,0.1-0.1,0.2-0.2,0.3l-0.1,0.1l0,0.1c-0.3,0.4-0.5,0.8-0.7,1.3c-0.1,0.1-0.1,0.3-0.2,0.4c-0.1,0.3-0.3,0.7-0.4,1
			c-0.1,0.3-0.2,0.6-0.2,0.8c0,0,0,0,0,0c0,0,0,0,0,0c0,0,0,0,0,0c0,0,0,0,0,0c0,0,0,0,0,0l-0.1,0c-0.1,0.5-0.2,1.1-0.2,1.6
			c0,0.1,0,0.2,0,0.3c0,0,0,0.1,0,0.1c0,0,0,0,0,0c0,0,0,0,0,0c0,0,0,0,0,0V36c0,0.3,0,0.6,0,0.9H112c0-0.3,0-0.6,0-0.9v-0.6
			c0,0,0,0,0,0c0,0,0-0.1,0-0.1c0-0.1,0-0.2,0-0.3c0-0.6,0.1-1.2,0.3-1.8c0.1-0.3,0.1-0.6,0.2-0.8c0.1-0.3,0.2-0.7,0.4-1
			c0.1-0.1,0.1-0.3,0.2-0.4c0.2-0.4,0.4-0.9,0.7-1.3c0,0,0.1-0.1,0.1-0.1c0.2-0.3,0.4-0.5,0.5-0.8c0.3-0.4,0.6-0.7,0.9-1.1
			c0,0,0,0,0,0c0.2-0.2,0.4-0.4,0.7-0.6c0.2-0.2,0.5-0.4,0.7-0.6c0.3-0.2,0.6-0.4,0.9-0.6c0.2-0.1,0.5-0.3,0.7-0.4
			c1.7-0.9,3.6-1.4,5.5-1.4h0.4C124.4,24,124.7,24,124.9,24L124.9,24z"/>
		<path class="st53" d="M117.8,25.8C117.8,25.9,117.8,25.9,117.8,25.8l0.2,0.6c0,0,0,0,0,0.1c0,0,0,0,0,0c0,0,0,0,0,0c0,0,0,0,0,0
			l-0.4-0.3c0,0,0,0-0.1,0s0,0-0.1,0l-0.4,0.3c0,0,0,0,0,0c0,0,0,0,0,0c0,0,0,0,0,0c0,0,0,0,0,0c0.3-0.2,0.6-0.4,0.9-0.6
			c0.2-0.1,0.5-0.3,0.7-0.4c0,0,0,0,0,0L117.8,25.8C117.8,25.8,117.8,25.8,117.8,25.8L117.8,25.8z"/>
		<path class="st53" d="M117.4,28.7l-0.1,0.1c0,0.1-0.1,0.1-0.1,0.2l0.1-0.2c0,0,0,0,0,0C117.3,28.7,117.3,28.6,117.4,28.7
			C117.3,28.6,117.4,28.6,117.4,28.7C117.4,28.6,117.4,28.6,117.4,28.7L117.4,28.7z"/>
		<path class="st53" d="M115.2,29.4l-0.2,0.1l-0.3,0.2c0,0,0,0,0,0c0,0,0,0,0,0.1l0.2,0.5c0,0,0,0,0,0.1c0,0,0,0,0,0c0,0,0,0,0,0
			c0,0,0,0,0,0l-0.4-0.3c0,0,0,0-0.1,0c0,0,0,0-0.1,0l-0.4,0.3c0,0,0,0,0,0c0,0,0,0,0,0c0,0,0,0,0,0c0,0,0,0,0-0.1l0.2-0.5
			c0,0,0,0,0-0.1c0,0,0,0,0,0l-0.1,0c0,0,0.1-0.1,0.1-0.1c0.2-0.3,0.4-0.5,0.5-0.8l0.1,0.4c0,0,0,0,0,0c0,0,0,0,0.1,0h0.5
			c0,0,0,0,0,0C115.3,29.3,115.3,29.3,115.2,29.4C115.3,29.3,115.3,29.4,115.2,29.4C115.3,29.4,115.2,29.4,115.2,29.4z"/>
		<path class="st53" d="M115.2,33.4L115.2,33.4l-0.4,0.3c0,0,0,0,0,0c0,0,0,0,0,0.1l0.2,0.5c0,0,0,0,0,0.1c0,0,0,0,0,0c0,0,0,0,0,0
			c0,0,0,0-0.1,0l-0.4-0.3c0,0,0,0-0.1,0c0,0,0,0-0.1,0l-0.4,0.3c0,0,0,0-0.1,0c0,0,0,0,0,0c0,0,0,0,0,0c0,0,0,0,0-0.1l0.2-0.5
			c0,0,0,0,0-0.1c0,0,0,0,0,0l-0.4-0.3c0,0,0,0,0,0c0,0,0,0,0-0.1c0,0,0,0,0,0c0,0,0,0,0.1,0h0.5c0,0,0,0,0,0c0,0,0,0,0,0
			c0,0,0,0,0,0l0.2-0.5c0,0,0,0,0,0c0,0,0,0,0.1,0c0,0,0,0,0.1,0c0,0,0,0,0,0l0.2,0.5c0,0,0,0,0,0c0,0,0,0,0,0c0,0,0,0,0,0h0.5
			c0,0,0,0,0,0c0,0,0,0,0,0C115.3,33.3,115.3,33.3,115.2,33.4C115.3,33.4,115.3,33.4,115.2,33.4C115.3,33.4,115.2,33.4,115.2,33.4
			L115.2,33.4z"/>
		<path class="st53" d="M116.3,27.7C116.3,27.7,116.3,27.7,116.3,27.7l0.2,0.6c0,0,0,0,0,0.1s0,0,0,0c0,0,0,0,0,0c0,0,0,0,0,0
			l-0.4-0.3c0,0,0,0-0.1,0c0,0,0,0,0,0l-0.4,0.3c0,0,0,0,0,0c0,0,0,0,0,0c0,0,0,0,0,0s0,0,0-0.1l0.2-0.5c0,0,0,0,0-0.1c0,0,0,0,0,0
			c0.2-0.2,0.4-0.4,0.7-0.6l0,0.1c0,0,0,0,0,0c0,0,0,0,0.1,0h0.5c0,0,0,0,0.1,0c0,0,0,0,0,0c0,0,0,0,0,0.1c0,0,0,0,0,0L116.3,27.7
			C116.3,27.7,116.3,27.7,116.3,27.7L116.3,27.7z"/>
		<path class="st53" d="M113.9,31.4C113.9,31.4,113.9,31.4,113.9,31.4C113.9,31.4,113.9,31.4,113.9,31.4l-0.5,0.4c0,0,0,0,0,0
			c0,0,0,0,0,0.1l0.2,0.5c0,0,0,0,0,0.1c0,0,0,0,0,0c0,0,0,0-0.1,0c0,0,0,0,0,0l-0.4-0.3c0,0,0,0-0.1,0c0,0,0,0,0,0l-0.3,0.2
			c0.1-0.3,0.2-0.7,0.4-1c0.1-0.1,0.1-0.3,0.2-0.4l0.1,0.3c0,0,0,0,0,0c0,0,0,0,0.1,0L113.9,31.4C113.8,31.3,113.8,31.3,113.9,31.4
			C113.8,31.3,113.9,31.3,113.9,31.4C113.9,31.3,113.9,31.3,113.9,31.4C113.9,31.4,113.9,31.4,113.9,31.4L113.9,31.4z"/>
		<path class="st53" d="M113.4,35.8C113.4,35.8,113.4,35.8,113.4,35.8C113.4,35.8,113.4,35.9,113.4,35.8l0.1,0.6c0,0,0,0,0,0.1
			c0,0,0,0,0,0c0,0,0,0-0.1,0c0,0,0,0,0,0l-0.4-0.3c0,0,0,0-0.1,0c0,0,0,0,0,0l-0.4,0.3c0,0,0,0-0.1,0c0,0,0,0,0,0c0,0,0,0,0,0
			c0,0,0,0,0-0.1l0.2-0.5c0,0,0,0,0-0.1c0,0,0,0,0,0l-0.4-0.3c0,0,0,0,0,0c0,0,0-0.1,0-0.1c0,0,0,0,0,0c0,0,0,0,0,0h0.5
			c0,0,0,0,0.1,0c0,0,0,0,0,0l0.1-0.2l0.1-0.3c0,0,0,0,0,0c0,0,0,0,0,0c0,0,0,0,0.1,0c0,0,0,0,0,0l0.1,0.3l0.1,0.2c0,0,0,0,0,0
			c0,0,0,0,0.1,0h0.5c0,0,0,0,0.1,0c0,0,0,0,0,0c0,0,0,0,0,0.1c0,0,0,0,0,0L113.4,35.8z"/>
		<path class="st13" d="M114.9,35.4C114.9,35.4,114.9,35.4,114.9,35.4C114.9,35.4,114.9,35.4,114.9,35.4
			C114.9,35.4,114.9,35.4,114.9,35.4C114.9,35.4,114.9,35.4,114.9,35.4C114.9,35.4,114.9,35.4,114.9,35.4L114.9,35.4z"/>
		<path class="st13" d="M115.9,30.7l0.2,0.5c0,0,0,0,0,0c0,0,0,0,0.1,0h0.5c0,0,0,0,0.1,0s0,0,0,0c0,0,0,0,0,0.1c0,0,0,0,0,0
			l-0.4,0.3c0,0,0,0,0,0c0,0,0,0,0,0.1l0.2,0.5c0,0,0,0,0,0.1c0,0,0,0,0,0c0,0,0,0,0,0c0,0,0,0,0,0l-0.4-0.3c0,0,0,0-0.1,0
			c0,0,0,0,0,0l-0.4,0.3c0,0,0,0,0,0c0,0,0,0-0.1,0c0,0,0,0,0,0c0,0,0,0,0-0.1l0.2-0.5c0,0,0,0,0-0.1c0,0,0,0,0,0l-0.4-0.3
			c0,0,0,0,0,0c0,0,0,0,0-0.1c0,0,0,0,0,0c0,0,0,0,0.1,0h0.5c0,0,0,0,0,0c0,0,0,0,0,0l0.2-0.5c0,0,0,0,0,0S115.8,30.7,115.9,30.7
			C115.9,30.7,115.9,30.7,115.9,30.7C115.9,30.7,115.9,30.7,115.9,30.7L115.9,30.7z"/>
		<path class="st53" d="M116,31c-0.1,0.1-0.1,0.3-0.2,0.4c-0.1,0.3-0.3,0.7-0.4,1l-0.1,0.1c0,0,0,0-0.1,0c0,0,0,0,0,0c0,0,0,0,0,0
			c0,0,0,0,0-0.1l0.2-0.5c0,0,0,0,0-0.1c0,0,0,0,0,0l-0.4-0.3c0,0,0,0,0,0s0,0,0,0c0,0,0,0,0,0c0,0,0,0,0,0c0,0,0,0,0,0c0,0,0,0,0,0
			h0.5c0,0,0,0,0,0c0,0,0,0,0,0l0.2-0.5c0,0,0,0,0,0c0,0,0,0,0,0c0,0,0,0,0.1,0c0,0,0,0,0,0L116,31z"/>
		<path class="st13" d="M117.4,28.7l0.2,0.5c0,0,0,0,0,0c0,0,0,0,0.1,0h0.5c0,0,0,0,0.1,0c0,0,0,0,0,0c0,0,0,0,0,0.1c0,0,0,0,0,0
			l-0.4,0.3c0,0,0,0,0,0c0,0,0,0,0,0.1l0.2,0.5c0,0,0,0,0,0.1c0,0,0,0,0,0c0,0,0,0,0,0c0,0,0,0-0.1,0l-0.4-0.3c0,0,0,0-0.1,0
			c0,0,0,0,0,0l-0.4,0.3c0,0,0,0-0.1,0c0,0,0,0,0,0c0,0,0,0,0,0c0,0,0,0,0-0.1l0.2-0.5c0,0,0,0,0-0.1c0,0,0,0,0,0l-0.4-0.3
			c0,0,0,0,0,0c0,0,0,0,0-0.1c0,0,0,0,0,0c0,0,0,0,0,0h0.5c0,0,0,0,0.1,0s0,0,0,0l0.2-0.5c0,0,0,0,0,0
			C117.3,28.6,117.3,28.6,117.4,28.7C117.4,28.6,117.4,28.6,117.4,28.7C117.4,28.7,117.4,28.7,117.4,28.7L117.4,28.7z"/>
		<path class="st53" d="M116.5,29.3h0.5c-0.1,0.1-0.1,0.2-0.2,0.3l-0.1,0.1l-0.1-0.1l-0.2-0.1c0,0,0,0,0,0
			C116.4,29.4,116.4,29.3,116.5,29.3C116.4,29.3,116.4,29.3,116.5,29.3C116.5,29.3,116.5,29.3,116.5,29.3L116.5,29.3z"/>
		<path class="st13" d="M119,26.6l0.2,0.5c0,0,0,0,0,0c0,0,0,0,0.1,0h0.5c0,0,0,0,0,0c0,0,0,0,0,0c0,0,0,0,0,0.1s0,0,0,0l-0.4,0.3
			c0,0,0,0,0,0c0,0,0,0,0,0.1l0.2,0.5c0,0,0,0,0,0.1c0,0,0,0,0,0c0,0,0,0,0,0s0,0-0.1,0l-0.4-0.3c0,0,0,0-0.1,0c0,0,0,0,0,0
			l-0.4,0.3c0,0,0,0-0.1,0c0,0,0,0,0,0c0,0,0,0,0,0c0,0,0,0,0-0.1l0.2-0.5c0,0,0,0,0-0.1c0,0,0,0,0,0l-0.4-0.3c0,0,0,0,0,0
			c0,0,0,0,0-0.1c0,0,0,0,0,0c0,0,0,0,0.1,0h0.5c0,0,0,0,0.1,0c0,0,0,0,0,0l0.2-0.5c0,0,0,0,0,0C118.8,26.6,118.9,26.6,119,26.6
			C118.9,26.6,118.9,26.6,119,26.6C118.9,26.6,119,26.6,119,26.6L119,26.6z"/>
		<path class="st53" d="M119.1,26.9c0,0-0.1,0.1-0.1,0.1c-0.2,0.2-0.4,0.4-0.6,0.6l-0.4-0.3c0,0,0,0,0,0c0,0,0,0,0-0.1c0,0,0,0,0,0
			c0,0,0,0,0.1,0h0.5c0,0,0,0,0.1,0c0,0,0,0,0,0l0.2-0.5c0,0,0,0,0,0c0,0,0,0,0.1,0s0,0,0.1,0c0,0,0,0,0,0L119.1,26.9z"/>
		<path class="st13" d="M120.5,24.8l0.2,0.5c0,0,0,0,0,0c0,0,0,0,0.1,0h0.5c0,0,0,0,0.1,0c0,0,0,0,0,0c0,0,0,0,0,0.1c0,0,0,0,0,0
			l-0.4,0.3c0,0,0,0,0,0c0,0,0,0,0,0.1l0.2,0.5c0,0,0,0,0,0.1c0,0,0,0,0,0c0,0,0,0,0,0c0,0,0,0-0.1,0l-0.4-0.3c0,0,0,0,0,0
			c0,0,0,0-0.1,0l-0.4,0.3c0,0,0,0,0,0c0,0,0,0-0.1,0c0,0,0,0,0,0c0,0,0,0,0-0.1l0.2-0.5c0,0,0,0,0-0.1c0,0,0,0,0,0l-0.4-0.3
			c0,0,0,0,0,0c0,0,0,0,0-0.1c0,0,0,0,0,0c0,0,0,0,0.1,0h0.5c0,0,0,0,0.1,0c0,0,0,0,0,0l0.2-0.5c0,0,0,0,0,0
			C120.4,24.7,120.4,24.7,120.5,24.8C120.4,24.7,120.4,24.7,120.5,24.8C120.5,24.7,120.5,24.8,120.5,24.8L120.5,24.8z"/>
		<path class="st53" d="M121.3,25.4c0,0-0.1,0-0.1,0.1c-0.2,0.1-0.5,0.3-0.7,0.4c-0.2,0.1-0.5,0.3-0.7,0.5l0.1-0.4c0,0,0,0,0,0
			c0,0,0,0,0,0l-0.4-0.3c0,0,0,0,0,0c0,0,0,0,0-0.1c0,0,0,0,0,0c0,0,0,0,0.1,0h0.5c0,0,0,0,0.1,0c0,0,0,0,0,0l0.2-0.5c0,0,0,0,0,0
			c0,0,0,0,0.1,0c0,0,0,0,0,0c0,0,0,0,0,0l0.2,0.5c0,0,0,0,0,0c0,0,0,0,0.1,0L121.3,25.4C121.3,25.3,121.3,25.3,121.3,25.4
			C121.3,25.4,121.3,25.4,121.3,25.4L121.3,25.4z"/>
		<path class="st54" d="M134.6,36.8c0.4,0,0.8-0.3,0.8-0.8c0-0.4-0.3-0.8-0.8-0.8c-0.4,0-0.8,0.3-0.8,0.8
			C133.8,36.4,134.1,36.8,134.6,36.8z"/>
		<path class="st54" d="M133,36.5c0.3,0,0.5-0.2,0.5-0.5s-0.2-0.5-0.5-0.5c-0.3,0-0.5,0.2-0.5,0.5S132.7,36.5,133,36.5z"/>
	</g>
</g>
<g>
	<defs>
		<rect id="SVGID_23_" x="68" y="24" width="24" height="24"/>
	</defs>
	<clipPath id="SVGID_24_">
		<use xlink:href="#SVGID_23_"  style="overflow:visible;"/>
	</clipPath>
	<g class="st55">
		<path class="st16" d="M80,48c6.6,0,12-5.4,12-12s-5.4-12-12-12s-12,5.4-12,12S73.4,48,80,48z"/>
		<path class="st56" d="M80,48c6.6,0,12-5.4,12-12s-5.4-12-12-12s-12,5.4-12,12S73.4,48,80,48z"/>
		<path class="st57" d="M81.9,47.9C81.2,48,80.6,48,80,48c-6.6,0-12-5.4-12-12c0-6.6,5.4-12,12-12c0.6,0,1.2,0,1.9,0.1
			c-5.2,0.8-9.3,4.9-10,10.1c-0.2,1.2-0.2,2.3,0,3.5C72.6,42.9,76.7,47.1,81.9,47.9z"/>
		<path class="st58" d="M80,29.5L68.8,36L80,42.5L91.2,36L80,29.5z"/>
		<path class="st59" d="M71.7,36c0,0.6,0,1.2,0.1,1.8l-3-1.8l3-1.8C71.7,34.8,71.7,35.4,71.7,36L71.7,36z"/>
		<path class="st24" d="M89.2,31.3c0.4,0,0.8-0.3,0.8-0.8c0-0.4-0.3-0.8-0.8-0.8c-0.4,0-0.8,0.3-0.8,0.8
			C88.4,31,88.8,31.3,89.2,31.3z"/>
		<path class="st24" d="M88.2,29.9c0.3,0,0.5-0.2,0.5-0.5s-0.2-0.5-0.5-0.5c-0.3,0-0.5,0.2-0.5,0.5S87.9,29.9,88.2,29.9z"/>
		<path class="st19" d="M84.6,36L84.6,36c0,1.3-0.5,2.4-1.4,3.3c-0.9,0.9-2,1.3-3.2,1.3c-1.2,0-2.4-0.5-3.2-1.3
			c-0.9-0.9-1.3-2-1.3-3.2c0-1.2,0.5-2.4,1.3-3.2c0.9-0.9,2-1.3,3.2-1.3c1.2,0,2.4,0.5,3.2,1.3C84.1,33.6,84.6,34.8,84.6,36L84.6,36
			z"/>
		<path class="st13" d="M84.6,36c0,0.6-0.1,1.2-0.3,1.7c-0.9-1.7-2.4-2.9-4.5-3.6c-1.6-0.5-3.1-0.6-3.7-0.6c0.3-0.4,0.6-0.8,1-1.2
			c1,0.1,2,0.3,3,0.6C82,33.6,83.6,34.7,84.6,36z"/>
		<path class="st13" d="M76.8,37.8c0.2,0,0.3-0.1,0.3-0.3c0-0.2-0.1-0.3-0.3-0.3c-0.2,0-0.3,0.1-0.3,0.3
			C76.5,37.6,76.6,37.8,76.8,37.8z"/>
		<path class="st13" d="M78.4,39.7c0.2,0,0.3-0.1,0.3-0.3S78.5,39,78.4,39c-0.2,0-0.3,0.1-0.3,0.3S78.2,39.7,78.4,39.7z"/>
		<path class="st13" d="M80,38.8c0.2,0,0.3-0.1,0.3-0.3s-0.1-0.3-0.3-0.3s-0.3,0.1-0.3,0.3S79.8,38.8,80,38.8z"/>
		<path class="st13" d="M80.7,40c0.2,0,0.3-0.1,0.3-0.3c0-0.2-0.1-0.3-0.3-0.3s-0.3,0.1-0.3,0.3C80.3,39.9,80.5,40,80.7,40z"/>
		<path class="st13" d="M82.9,38.4c0.2,0,0.3-0.1,0.3-0.3c0-0.2-0.1-0.3-0.3-0.3s-0.3,0.1-0.3,0.3C82.6,38.2,82.7,38.4,82.9,38.4z"
			/>
		<path class="st13" d="M82,39.4c0.2,0,0.3-0.1,0.3-0.3c0-0.2-0.1-0.3-0.3-0.3c-0.2,0-0.3,0.1-0.3,0.3C81.7,39.3,81.8,39.4,82,39.4z
			"/>
		<path class="st13" d="M80.7,36.3c0.2,0,0.3-0.1,0.3-0.3s-0.1-0.3-0.3-0.3s-0.3,0.1-0.3,0.3S80.5,36.3,80.7,36.3z"/>
		<path class="st13" d="M76.8,35.1c0.2,0,0.3-0.1,0.3-0.3c0-0.2-0.1-0.3-0.3-0.3c-0.2,0-0.3,0.1-0.3,0.3
			C76.5,35,76.6,35.1,76.8,35.1z"/>
		<path class="st13" d="M78.4,38.1c0.2,0,0.3-0.1,0.3-0.3c0-0.2-0.1-0.3-0.3-0.3c-0.2,0-0.3,0.1-0.3,0.3C78,38,78.2,38.1,78.4,38.1z
			"/>
	</g>
</g>
<g>
	<defs>
		<rect id="SVGID_25_" x="24" y="24" width="24" height="24"/>
	</defs>
	<clipPath id="SVGID_26_">
		<use xlink:href="#SVGID_25_"  style="overflow:visible;"/>
	</clipPath>
	<g class="st60">
		<path class="st36" d="M36,48c6.6,0,12-5.4,12-12s-5.4-12-12-12s-12,5.4-12,12S29.4,48,36,48z"/>
		<path class="st61" d="M47.3,31.8H24.7C26.4,27.3,30.8,24,36,24C41.2,24,45.6,27.3,47.3,31.8z"/>
		<path class="st13" d="M47.3,40.2H24.7c-1-2.7-1-5.6,0-8.3h22.5c0.2,0.5,0.3,0.9,0.4,1.4C48.2,35.5,48.1,37.9,47.3,40.2L47.3,40.2z
			"/>
		<path class="st61" d="M36,48c-2.5,0-4.8-0.8-6.9-2.2c-2-1.4-3.5-3.4-4.4-5.7h22.5c-0.2,0.5-0.4,0.9-0.6,1.4
			c-1,1.9-2.5,3.6-4.4,4.7C40.3,47.4,38.2,48,36,48L36,48z"/>
		<path class="st62" d="M37.6,24.1c-4.5,0.6-8.2,3.6-9.7,7.7h-3.1C26.4,27.3,30.8,24,36,24C36.5,24,37,24,37.6,24.1L37.6,24.1z"/>
		<path class="st25" d="M27.1,36c0,1.4,0.2,2.8,0.7,4.2h-3.1c-1-2.7-1-5.6,0-8.3h3.1c-0.2,0.5-0.3,0.9-0.4,1.4
			C27.3,34.1,27.1,35.1,27.1,36L27.1,36z"/>
		<path class="st62" d="M37.6,47.9C37,48,36.5,48,36,48c-2.5,0-4.8-0.8-6.9-2.2c-2-1.4-3.5-3.4-4.4-5.7h3.1c0.8,2,2.1,3.9,3.8,5.2
			C33.4,46.7,35.4,47.6,37.6,47.9L37.6,47.9z"/>
		<path class="st5" d="M43.7,29.4c0.4,0,0.8-0.3,0.8-0.8c0-0.4-0.3-0.8-0.8-0.8c-0.4,0-0.8,0.3-0.8,0.8
			C42.9,29.1,43.3,29.4,43.7,29.4z"/>
		<path class="st5" d="M42.6,28.1c0.3,0,0.5-0.2,0.5-0.5S42.9,27,42.6,27c-0.3,0-0.5,0.2-0.5,0.5S42.3,28.1,42.6,28.1z"/>
		<path class="st7" d="M35.8,34.9C35.8,34.9,35.7,34.9,35.8,34.9c-0.1-0.1-0.1-0.1-0.1-0.1v-0.3c0-0.1,0-0.2,0-0.3
			c0-0.2,0-0.3,0-0.5l0,0l0,0c0,0,0.1-0.2,0-0.4c0-0.1-0.2-0.5,0-0.7c0,0,0,0,0,0c0,0,0-0.1,0-0.2c0-0.1,0-0.1,0-0.2c0,0,0,0,0,0
			c0,0,0,0,0,0c0,0,0,0,0,0c0,0,0,0,0,0c0,0,0,0,0,0c0,0,0,0,0,0c0,0,0,0,0,0c0,0,0,0,0,0c0,0.1,0.1,0.2,0.1,0.3c0,0.1,0,0.2,0,0.3
			c0,0,0,0.1-0.1,0.1c-0.1,0.1,0,0.3,0,0.4v0c0.1,0.3,0,0.5,0,0.6c0,0.1,0,0.2,0,0.4c0,0.1,0,0.2,0,0.3v0.3
			C35.9,34.8,35.9,34.8,35.8,34.9C35.9,34.9,35.8,34.9,35.8,34.9L35.8,34.9z"/>
		<path class="st7" d="M35.5,34.9C35.5,34.9,35.4,34.9,35.5,34.9c-0.1,0-0.1-0.1-0.1-0.1l-0.1-0.3c0-0.1-0.1-0.2-0.1-0.3
			c-0.1-0.2-0.1-0.3-0.1-0.5v0l0,0c0,0,0-0.2-0.1-0.4c-0.1-0.1-0.3-0.4-0.2-0.6c0,0,0,0,0-0.1c0-0.1,0-0.1,0-0.2s0-0.1-0.1-0.1
			c0,0,0,0,0,0c0,0,0,0,0,0c0,0,0,0,0,0c0,0,0,0,0,0c0,0,0,0,0,0c0,0,0,0,0,0c0,0,0,0,0,0c0,0,0,0,0,0c0.1,0.1,0.1,0.1,0.1,0.2
			c0,0.1,0,0.2,0,0.3c0,0,0,0.1,0,0.1c0,0.1,0.1,0.3,0.2,0.4v0c0.2,0.3,0.2,0.5,0.2,0.6c0,0.1,0,0.3,0.1,0.4
			c0.1,0.1,0.1,0.2,0.1,0.3l0.1,0.3c0,0,0,0,0,0.1C35.6,34.8,35.6,34.9,35.5,34.9C35.6,34.9,35.6,34.9,35.5,34.9
			C35.5,34.9,35.5,34.9,35.5,34.9L35.5,34.9z"/>
		<path class="st7" d="M35.2,35C35.2,35,35.1,35,35.2,35c-0.1,0-0.1,0-0.1-0.1l-0.2-0.3c-0.1-0.1-0.1-0.2-0.2-0.2
			c-0.1-0.1-0.2-0.3-0.2-0.4l0,0v0c0,0,0-0.2-0.2-0.3c-0.1-0.1-0.4-0.3-0.3-0.6c0,0,0,0,0-0.1c0-0.1,0-0.1-0.1-0.1
			c0,0-0.1-0.1-0.1-0.1c0,0,0,0-0.1-0.1c0,0,0-0.1,0-0.1c0,0,0,0,0.1-0.1c0,0,0.1,0,0.1,0c0.1,0,0.1,0.1,0.2,0.2
			c0.1,0.1,0.1,0.2,0.1,0.3c0,0,0,0.1,0,0.1c0,0.1,0.1,0.3,0.2,0.3h0c0.3,0.2,0.3,0.4,0.3,0.5c0,0.1,0.1,0.2,0.2,0.3
			c0.1,0.1,0.1,0.2,0.2,0.3l0.2,0.3c0,0,0,0,0,0.1c0,0,0,0,0,0.1C35.3,35,35.3,35,35.2,35C35.2,35,35.2,35,35.2,35L35.2,35z"/>
		<path class="st7" d="M34.9,35.2C34.9,35.2,34.9,35.2,34.9,35.2C34.9,35.2,34.9,35.2,34.9,35.2L34.6,35c-0.1-0.1-0.2-0.1-0.2-0.2
			c-0.1-0.1-0.2-0.2-0.3-0.4l0,0l0,0c0,0-0.1-0.2-0.3-0.3c-0.1,0-0.5-0.2-0.5-0.5c0,0,0,0,0-0.1c0,0,0-0.1-0.1-0.1
			c0,0-0.1-0.1-0.1-0.1c0,0-0.1,0-0.1-0.1c0,0,0-0.1,0-0.1c0,0,0-0.1,0-0.1c0,0,0.1,0,0.1,0c0.1,0,0.2,0.1,0.2,0.1
			c0.1,0.1,0.1,0.1,0.2,0.2c0,0,0,0.1,0,0.1c0,0.1,0.2,0.2,0.3,0.3h0c0.1,0,0.2,0.1,0.3,0.2c0.1,0.1,0.1,0.2,0.2,0.3
			c0.1,0.1,0.1,0.2,0.2,0.3c0.1,0.1,0.2,0.1,0.3,0.2L35,35c0,0,0,0,0,0c0,0,0,0,0,0c0,0,0,0,0,0C35,35.2,35,35.2,34.9,35.2
			C35,35.2,35,35.2,34.9,35.2C35,35.2,34.9,35.2,34.9,35.2L34.9,35.2z"/>
		<path class="st7" d="M34.7,35.5C34.7,35.5,34.7,35.5,34.7,35.5l-0.3-0.2c-0.1-0.1-0.2-0.1-0.3-0.1c-0.2-0.1-0.3-0.2-0.4-0.3l0,0
			l0,0c0,0-0.1-0.2-0.3-0.2c-0.1,0-0.5-0.1-0.6-0.3c0,0,0,0,0-0.1c0,0-0.1-0.1-0.1-0.1c0,0-0.1,0-0.2,0c0,0,0,0,0,0c0,0,0,0,0,0
			c0,0,0,0,0,0c0,0,0,0,0,0s0,0,0,0c0,0,0,0,0,0c0,0,0,0,0,0c0,0,0,0,0,0c0.1,0,0.2,0,0.3,0.1c0.1,0,0.2,0.1,0.2,0.2
			c0,0,0,0.1,0.1,0.1c0,0.1,0.2,0.2,0.4,0.2h0c0.1,0,0.2,0,0.3,0.1c0.1,0.1,0.2,0.1,0.2,0.2c0.1,0.1,0.2,0.2,0.3,0.2
			c0.1,0,0.2,0.1,0.3,0.1l0.3,0.2c0,0,0,0,0,0.1c0,0,0,0.1,0,0.1C34.8,35.4,34.8,35.5,34.7,35.5C34.8,35.5,34.8,35.5,34.7,35.5
			L34.7,35.5z"/>
		<path class="st7" d="M34.6,35.8C34.6,35.8,34.6,35.8,34.6,35.8l-0.3-0.1c-0.1,0-0.2,0-0.3,0c-0.2,0-0.3-0.1-0.5-0.2l0,0l0,0
			c0,0-0.1-0.1-0.4-0.1c-0.1,0-0.5,0.1-0.6-0.2c0,0,0,0,0,0c0,0-0.1-0.1-0.1-0.1c-0.1,0-0.1,0-0.2,0c0,0,0,0,0,0c0,0,0,0,0,0
			c0,0,0,0,0,0c0,0,0,0,0,0c0,0,0,0,0,0c0,0,0,0,0,0c0,0,0,0,0,0c0,0,0,0,0,0c0.1,0,0.2,0,0.3,0c0.1,0,0.2,0.1,0.2,0.1
			c0,0,0.1,0.1,0.1,0.1c0.1,0.1,0.3,0.1,0.4,0.1h0c0.1,0,0.2,0,0.3,0s0.2,0.1,0.3,0.1c0.1,0.1,0.2,0.1,0.4,0.1c0.1,0,0.2,0,0.3,0.1
			l0.3,0.1c0,0,0.1,0,0.1,0c0,0,0,0.1,0,0.1C34.7,35.7,34.7,35.7,34.6,35.8C34.7,35.8,34.6,35.8,34.6,35.8L34.6,35.8z"/>
		<path class="st7" d="M32.6,36.2c-0.1,0-0.2,0-0.3-0.1c0,0,0,0,0,0c0,0-0.1,0-0.2,0c-0.1,0-0.1,0-0.2,0c0,0,0,0,0,0c0,0,0,0,0,0
			s0,0,0,0c0,0,0,0,0,0c0,0,0,0,0,0c0,0,0,0,0,0c0,0,0,0,0,0c0,0,0,0,0,0c0.1,0,0.2-0.1,0.3-0.1c0.1,0,0.2,0,0.3,0
			c0,0,0.1,0,0.1,0.1c0.1,0.1,0.3,0,0.4,0h0c0.3-0.1,0.5,0,0.6,0c0.1,0,0.2,0,0.4,0c0.1,0,0.2,0,0.3,0h0.3c0,0,0,0,0,0c0,0,0,0,0,0
			c0,0,0,0,0,0c0,0,0,0,0,0s0,0,0,0c0,0,0,0,0,0c0,0,0,0,0,0c0,0,0,0,0,0h-0.3c-0.1,0-0.2,0-0.3,0c-0.2,0-0.3,0-0.5,0l0,0l0,0
			c0,0-0.2-0.1-0.4,0C32.9,36.2,32.8,36.2,32.6,36.2L32.6,36.2z"/>
		<path class="st7" d="M32.1,37.1C32,37.1,32,37.1,32.1,37.1c-0.1,0-0.1,0-0.1-0.1c0,0,0,0,0-0.1c0,0,0,0,0-0.1
			c0.1-0.1,0.1-0.1,0.2-0.1c0.1,0,0.2,0,0.3,0c0,0,0.1,0,0.1,0c0.1,0,0.3-0.1,0.4-0.2h0c0.1-0.1,0.2-0.1,0.3-0.1c0.1,0,0.2,0,0.3,0
			c0.1,0,0.3,0,0.4-0.1c0.1-0.1,0.2-0.1,0.3-0.1l0.3-0.1c0,0,0,0,0,0c0,0,0,0,0,0c0,0,0,0,0,0c0,0,0,0,0,0c0,0,0,0,0,0c0,0,0,0,0,0
			c0,0,0,0,0,0c0,0,0,0,0,0l-0.3,0.1c-0.1,0-0.2,0.1-0.3,0.1c-0.2,0.1-0.3,0.1-0.5,0.1h0l0,0c0,0-0.2,0-0.4,0.1
			c-0.1,0.1-0.4,0.3-0.6,0.2c0,0,0,0-0.1,0c-0.1,0-0.1,0-0.2,0C32.2,37,32.2,37,32.1,37.1C32.1,37.1,32.1,37.1,32.1,37.1
			C32.1,37.1,32.1,37.1,32.1,37.1L32.1,37.1z"/>
		<path class="st7" d="M32.5,38.1C32.4,38.1,32.4,38,32.5,38.1c-0.1,0-0.1-0.1-0.1-0.1c0,0,0-0.1,0-0.1c0-0.1,0.1-0.1,0.2-0.2
			c0.1-0.1,0.2-0.1,0.3-0.1c0,0,0.1,0,0.1,0c0.1,0,0.3-0.1,0.3-0.2c0.2-0.3,0.4-0.3,0.5-0.3c0.1,0,0.2-0.1,0.3-0.2
			c0.1-0.1,0.2-0.1,0.3-0.2l0.3-0.2c0,0,0.1,0,0.1,0c0,0,0.1,0,0.1,0.1s0,0.1,0,0.1c0,0,0,0.1-0.1,0.1l-0.3,0.2
			c-0.1,0.1-0.2,0.1-0.2,0.2c-0.1,0.1-0.3,0.2-0.4,0.2l0,0h0c0,0-0.2,0-0.3,0.2c-0.1,0.1-0.3,0.4-0.6,0.3c0,0,0,0-0.1,0
			c-0.1,0-0.1,0-0.1,0.1c0,0-0.1,0.1-0.1,0.1C32.5,38,32.5,38,32.5,38.1C32.5,38,32.5,38.1,32.5,38.1L32.5,38.1z"/>
		<path class="st7" d="M33.1,38.9C33.1,38.9,33.1,38.9,33.1,38.9C33,38.8,33,38.8,33.1,38.9C33,38.8,33,38.7,33,38.7
			c0-0.1,0.1-0.2,0.1-0.2c0.1-0.1,0.1-0.1,0.2-0.2c0,0,0.1,0,0.1,0c0.1,0,0.2-0.2,0.3-0.3v0c0.1-0.3,0.4-0.4,0.4-0.4
			c0.1-0.1,0.2-0.1,0.3-0.2c0.1-0.1,0.1-0.2,0.2-0.3l0.2-0.2c0,0,0,0,0,0c0,0,0,0,0,0c0,0,0,0,0,0c0,0,0,0,0,0c0,0,0,0,0,0
			c0,0,0,0,0,0c0,0,0,0,0,0c0,0,0,0,0,0l-0.2,0.2c-0.1,0.1-0.1,0.2-0.2,0.2c-0.1,0.1-0.2,0.2-0.4,0.3l0,0l0,0c0,0-0.2,0.1-0.3,0.3
			c0,0.1-0.2,0.5-0.5,0.5c0,0,0,0-0.1,0c0,0-0.1,0-0.1,0.1c0,0-0.1,0.1-0.1,0.1C33.2,38.8,33.2,38.8,33.1,38.9
			C33.1,38.8,33.1,38.9,33.1,38.9L33.1,38.9z"/>
		<path class="st7" d="M33.9,39.5C33.8,39.5,33.8,39.5,33.9,39.5c-0.1-0.1-0.1-0.1-0.1-0.1c0-0.1,0-0.2,0.1-0.3
			c0-0.1,0.1-0.2,0.2-0.2c0,0,0.1,0,0.1-0.1c0.1,0,0.2-0.2,0.2-0.4v0c0-0.3,0.2-0.5,0.3-0.5c0.1-0.1,0.2-0.2,0.2-0.3
			c0-0.1,0.1-0.2,0.1-0.3l0.2-0.3c0,0,0,0,0.1-0.1c0,0,0.1,0,0.1,0c0,0,0,0,0.1,0.1c0,0,0,0.1,0,0.1l-0.2,0.3
			c-0.1,0.1-0.1,0.2-0.1,0.3c-0.1,0.2-0.2,0.3-0.3,0.4l0,0l0,0c0,0-0.2,0.1-0.2,0.3c0,0.1-0.1,0.5-0.3,0.6c0,0,0,0-0.1,0
			c0,0-0.1,0.1-0.1,0.1c0,0,0,0.1,0,0.2C34,39.4,34,39.4,33.9,39.5C33.9,39.5,33.9,39.5,33.9,39.5L33.9,39.5z"/>
		<path class="st7" d="M34.8,39.9C34.8,39.9,34.8,39.8,34.8,39.9c-0.1,0-0.1-0.1-0.1-0.1c0-0.1,0-0.2,0-0.3c0-0.1,0.1-0.2,0.1-0.2
			c0,0,0.1-0.1,0.1-0.1c0.1-0.1,0.1-0.3,0.1-0.4v0c0-0.3,0.1-0.5,0.2-0.6c0.1-0.1,0.1-0.2,0.1-0.4c0-0.1,0-0.2,0.1-0.3l0.1-0.3
			c0,0,0,0,0,0c0,0,0,0,0,0c0,0,0,0,0,0c0,0,0,0,0,0c0,0,0,0,0,0c0,0,0,0,0,0c0,0,0,0,0,0c0,0,0,0,0,0l-0.1,0.3c0,0.1,0,0.2-0.1,0.3
			c0,0.2-0.1,0.3-0.2,0.5l0,0l0,0c0,0-0.1,0.1-0.1,0.4c0,0.1,0.1,0.5-0.2,0.6c0,0,0,0,0,0c0,0-0.1,0.1-0.1,0.1c0,0.1,0,0.1,0,0.2
			c0,0,0,0,0,0c0,0,0,0,0,0C34.9,39.8,34.9,39.8,34.8,39.9C34.9,39.8,34.9,39.8,34.8,39.9C34.8,39.8,34.8,39.9,34.8,39.9L34.8,39.9z
			"/>
		<path class="st7" d="M35.8,40C35.8,40,35.8,40,35.8,40C35.7,40,35.7,39.9,35.8,40c-0.1-0.1-0.2-0.2-0.2-0.3c0-0.1,0-0.2,0-0.3
			c0,0,0-0.1,0.1-0.1c0.1-0.1,0-0.3,0-0.4v0c0-0.1-0.1-0.2-0.1-0.3c0-0.1,0-0.2,0.1-0.3c0-0.1,0-0.2,0-0.4c0-0.1,0-0.2,0-0.3v-0.3
			c0,0,0-0.1,0-0.1c0,0,0.1,0,0.1,0c0,0,0.1,0,0.1,0c0,0,0,0,0,0.1v0.3c0,0.1,0,0.2,0,0.3c0,0.2,0,0.3,0,0.5l0,0l0,0
			c0,0-0.1,0.2,0,0.4c0,0.1,0.2,0.5,0,0.7c0,0,0,0,0,0c0,0,0,0.1,0,0.2c0,0.1,0,0.1,0,0.1c0,0,0,0,0,0.1s0,0,0,0.1
			C35.9,39.9,35.9,40,35.8,40C35.8,40,35.8,40,35.8,40L35.8,40z"/>
		<path class="st7" d="M36.8,39.9C36.8,39.9,36.7,39.8,36.8,39.9c-0.1-0.1-0.2-0.2-0.2-0.3c0-0.1,0-0.2,0-0.3c0,0,0-0.1,0-0.1
			c0-0.1-0.1-0.3-0.2-0.4v0c-0.2-0.3-0.2-0.5-0.2-0.6c0-0.1,0-0.3-0.1-0.4c-0.1-0.1-0.1-0.2-0.1-0.3L36,37.2c0,0,0,0,0,0s0,0,0,0
			c0,0,0,0,0,0c0,0,0,0,0,0c0,0,0,0,0,0c0,0,0,0,0,0s0,0,0,0c0,0,0,0,0,0l0.1,0.3c0,0.1,0.1,0.2,0.1,0.3c0.1,0.2,0.1,0.3,0.1,0.5v0
			l0,0c0,0,0,0.2,0.1,0.4c0.1,0.1,0.3,0.4,0.2,0.6c0,0,0,0,0,0.1c0,0.1,0,0.1,0,0.2s0,0.1,0.1,0.1c0,0,0,0,0,0.1c0,0,0,0,0,0.1
			C36.9,39.8,36.9,39.8,36.8,39.9C36.9,39.8,36.8,39.9,36.8,39.9L36.8,39.9z"/>
		<path class="st7" d="M37.7,39.5C37.7,39.5,37.7,39.5,37.7,39.5c-0.1-0.1-0.2-0.1-0.3-0.2c-0.1-0.1-0.1-0.2-0.1-0.3
			c0,0,0-0.1,0-0.1c0-0.1-0.1-0.3-0.2-0.3h0c-0.3-0.2-0.3-0.4-0.3-0.5c0-0.1-0.1-0.2-0.2-0.3c-0.1-0.1-0.1-0.2-0.2-0.3l-0.2-0.3
			c0,0,0,0,0,0c0,0,0,0,0,0c0,0,0,0,0,0s0,0,0,0c0,0,0,0,0,0c0,0,0,0,0,0c0,0,0,0,0,0c0,0,0,0,0,0l0.2,0.3c0.1,0.1,0.1,0.2,0.2,0.2
			c0.1,0.1,0.2,0.3,0.2,0.4l0,0v0c0,0,0,0.2,0.2,0.3c0.1,0.1,0.4,0.3,0.3,0.6c0,0,0,0,0,0.1c0,0.1,0,0.1,0.1,0.1
			c0,0,0.1,0.1,0.1,0.1c0,0,0,0,0.1,0.1c0,0,0,0.1,0,0.1C37.8,39.4,37.8,39.4,37.7,39.5C37.8,39.5,37.8,39.5,37.7,39.5L37.7,39.5z"
			/>
		<path class="st7" d="M38.5,38.9C38.5,38.9,38.5,38.9,38.5,38.9c-0.1,0-0.2-0.1-0.3-0.1c-0.1-0.1-0.1-0.1-0.2-0.2c0,0,0-0.1,0-0.1
			c0-0.1-0.2-0.2-0.3-0.3h0c-0.1,0-0.2-0.1-0.3-0.2c-0.1-0.1-0.1-0.2-0.2-0.3c-0.1-0.1-0.1-0.2-0.2-0.3c-0.1-0.1-0.2-0.1-0.3-0.2
			L36.6,37c0,0,0-0.1,0-0.1c0,0,0-0.1,0-0.1c0,0,0.1,0,0.1,0c0,0,0.1,0,0.1,0L37,37c0.1,0.1,0.2,0.1,0.2,0.2
			c0.1,0.1,0.2,0.2,0.3,0.4l0,0l0,0c0,0,0.1,0.2,0.3,0.3c0.1,0,0.5,0.2,0.5,0.5c0,0,0,0,0,0.1c0,0,0,0.1,0.1,0.1
			c0,0,0.1,0.1,0.1,0.1c0,0,0.1,0,0.1,0c0,0,0,0.1,0,0.1C38.7,38.8,38.6,38.8,38.5,38.9C38.6,38.8,38.6,38.9,38.5,38.9L38.5,38.9z"
			/>
		<path class="st7" d="M39.3,38.1c-0.1,0-0.2,0-0.2-0.1c-0.1,0-0.1-0.1-0.2-0.2c0,0,0-0.1-0.1-0.1c0-0.1-0.2-0.2-0.4-0.2h0
			c-0.3,0-0.5-0.2-0.5-0.3c-0.1-0.1-0.2-0.2-0.3-0.2c-0.1,0-0.2-0.1-0.3-0.1l-0.3-0.2c0,0,0,0,0-0.1c0,0,0-0.1,0-0.1s0,0,0.1-0.1
			s0.1,0,0.1,0l0.3,0.2c0.1,0.1,0.2,0.1,0.3,0.1c0.2,0.1,0.3,0.2,0.4,0.3l0,0l0,0c0,0,0.1,0.2,0.3,0.2c0.1,0,0.5,0.1,0.6,0.3
			c0,0,0,0,0,0.1c0,0,0.1,0.1,0.1,0.1c0,0,0.1,0,0.2,0c0,0,0.1,0,0.1,0c0,0,0,0,0,0.1c0,0,0,0.1,0,0.1C39.3,38,39.3,38,39.3,38.1
			L39.3,38.1z"/>
		<path class="st7" d="M39.4,37.1c-0.1,0-0.2,0-0.3-0.1c0,0-0.1-0.1-0.1-0.1c-0.1-0.1-0.3-0.1-0.4-0.1h0c-0.3,0-0.5-0.1-0.6-0.2
			c-0.1-0.1-0.2-0.1-0.4-0.1c-0.1,0-0.2,0-0.3-0.1L37,36.4c0,0,0,0,0,0c0,0,0,0,0,0c0,0,0,0,0,0c0,0,0,0,0,0c0,0,0,0,0,0
			c0,0,0,0,0,0c0,0,0,0,0,0c0,0,0,0,0,0l0.3,0.1c0.1,0,0.2,0,0.3,0c0.2,0,0.3,0.1,0.5,0.2l0,0l0,0c0,0,0.1,0.1,0.4,0.1
			c0.1,0,0.5-0.1,0.6,0.2c0,0,0,0,0,0c0,0,0.1,0.1,0.1,0.1c0.1,0,0.1,0,0.2,0c0,0,0.1,0,0.1,0c0,0,0,0,0.1,0.1s0,0.1,0,0.1
			c0,0,0,0-0.1,0.1C39.5,37.1,39.5,37.1,39.4,37.1L39.4,37.1z"/>
		<path class="st7" d="M39.4,36.2c-0.1,0-0.2,0-0.2,0c0,0-0.1,0-0.1-0.1c-0.1-0.1-0.3,0-0.4,0h0c-0.3,0.1-0.5,0-0.6,0
			c-0.1,0-0.2,0-0.4,0c-0.1,0-0.2,0-0.3,0H37c0,0,0,0,0,0c0,0,0,0,0,0c0,0,0,0,0,0c0,0,0,0,0,0c0,0,0,0,0,0c0,0,0,0,0,0c0,0,0,0,0,0
			c0,0,0,0,0,0h0.3c0.1,0,0.2,0,0.3,0c0.2,0,0.3,0,0.5,0l0,0l0,0c0,0,0.2,0.1,0.4,0c0.1,0,0.5-0.2,0.7,0c0,0,0,0,0,0
			c0,0,0.1,0,0.2,0c0.1,0,0.1,0,0.1,0c0,0,0.1,0,0.1,0c0,0,0.1,0,0.1,0.1c0,0,0,0.1,0,0.1c0,0,0,0.1-0.1,0.1
			C39.6,36.2,39.5,36.2,39.4,36.2L39.4,36.2z"/>
		<path class="st7" d="M37,35.8C37,35.8,36.9,35.8,37,35.8c-0.1,0-0.1-0.1-0.1-0.1c0,0,0-0.1,0-0.1c0,0,0,0,0.1,0l0.3-0.1
			c0.1,0,0.2-0.1,0.3-0.1c0.2-0.1,0.3-0.1,0.5-0.1h0l0,0c0,0,0.2,0,0.4-0.1c0.1-0.1,0.4-0.3,0.6-0.2c0,0,0,0,0.1,0
			c0.1,0,0.1,0,0.2,0s0.1,0,0.1-0.1c0,0,0.1,0,0.1,0c0,0,0,0,0,0c0,0,0,0,0,0c0,0,0,0,0,0c0,0,0,0,0,0c0,0,0,0,0,0c0,0,0,0,0,0
			c-0.1,0.1-0.1,0.1-0.2,0.1c-0.1,0-0.2,0-0.3,0c0,0-0.1,0-0.1,0c-0.1,0-0.3,0.1-0.4,0.2h0c-0.1,0.1-0.2,0.1-0.3,0.1
			c-0.1,0-0.2,0-0.3,0c-0.1,0-0.3,0-0.4,0.1c-0.1,0.1-0.2,0.1-0.3,0.1L37,35.8C37,35.8,37,35.8,37,35.8L37,35.8z"/>
		<path class="st7" d="M36.9,35.5C36.9,35.5,36.8,35.5,36.9,35.5c-0.1,0-0.1-0.1-0.1-0.1c0,0,0-0.1,0-0.1c0,0,0,0,0-0.1l0.3-0.2
			c0.1-0.1,0.2-0.1,0.2-0.2c0.1-0.1,0.3-0.2,0.4-0.2l0,0h0c0,0,0.2,0,0.3-0.2c0.1-0.1,0.3-0.4,0.6-0.3c0,0,0,0,0.1,0
			c0.1,0,0.1,0,0.1-0.1c0,0,0.1-0.1,0.1-0.1c0,0,0,0,0.1-0.1s0.1,0,0.1,0c0,0,0,0,0.1,0.1c0,0,0,0.1,0,0.1c0,0.1-0.1,0.1-0.2,0.2
			c-0.1,0.1-0.2,0.1-0.3,0.1c0,0-0.1,0-0.1,0c-0.1,0-0.3,0.1-0.3,0.2v0c-0.2,0.3-0.4,0.3-0.5,0.3c-0.1,0-0.2,0.1-0.3,0.2
			c-0.1,0.1-0.2,0.1-0.3,0.2L36.9,35.5C36.9,35.5,36.9,35.5,36.9,35.5L36.9,35.5z"/>
		<path class="st7" d="M36.7,35.2C36.7,35.2,36.7,35.2,36.7,35.2C36.6,35.2,36.6,35.2,36.7,35.2c-0.1,0-0.1-0.1-0.1-0.1c0,0,0,0,0,0
			c0,0,0,0,0,0c0,0,0,0,0,0l0.2-0.2c0.1-0.1,0.1-0.2,0.2-0.2c0.1-0.1,0.2-0.2,0.4-0.3l0,0l0,0c0,0,0.2-0.1,0.3-0.3
			c0-0.1,0.2-0.5,0.5-0.5c0,0,0,0,0.1,0c0,0,0.1,0,0.1-0.1c0,0,0.1-0.1,0.1-0.1c0,0,0,0,0,0c0,0,0,0,0,0c0,0,0,0,0,0s0,0,0,0
			s0,0,0,0c0,0,0,0,0,0c0,0,0,0,0,0c0,0,0,0,0,0c0,0.1-0.1,0.2-0.1,0.2c-0.1,0.1-0.1,0.1-0.2,0.2c0,0-0.1,0-0.1,0
			c-0.1,0-0.2,0.2-0.3,0.3v0c-0.1,0.3-0.4,0.4-0.4,0.4c-0.1,0.1-0.2,0.1-0.3,0.2c-0.1,0.1-0.1,0.2-0.2,0.3L36.7,35.2
			C36.8,35.2,36.7,35.2,36.7,35.2C36.7,35.2,36.7,35.2,36.7,35.2L36.7,35.2z"/>
		<path class="st7" d="M36.4,35C36.4,35,36.4,35,36.4,35C36.4,35,36.3,35,36.4,35C36.3,35,36.3,35,36.3,35s0,0,0,0c0,0,0,0,0,0
			l0.2-0.3c0.1-0.1,0.1-0.2,0.1-0.3c0.1-0.2,0.2-0.3,0.3-0.4l0,0l0,0c0,0,0.2-0.1,0.2-0.3c0-0.1,0.1-0.5,0.3-0.6c0,0,0,0,0.1,0
			c0,0,0.1-0.1,0.1-0.1c0,0,0-0.1,0-0.2c0,0,0-0.1,0-0.1c0,0,0,0,0.1,0c0,0,0.1,0,0.1,0c0,0,0,0,0,0.1c0,0.1,0,0.2-0.1,0.3
			c0,0.1-0.1,0.2-0.2,0.2c0,0-0.1,0-0.1,0.1c-0.1,0-0.2,0.2-0.2,0.4v0c0,0.1,0,0.2-0.1,0.3c-0.1,0.1-0.1,0.2-0.2,0.2
			c-0.1,0.1-0.2,0.2-0.2,0.3c0,0.1-0.1,0.2-0.1,0.3L36.5,35C36.5,35,36.5,35,36.4,35C36.5,35,36.4,35,36.4,35L36.4,35z"/>
		<path class="st7" d="M36.1,34.9C36.1,34.9,36.1,34.9,36.1,34.9C36.1,34.9,36,34.9,36.1,34.9C36,34.9,36,34.8,36,34.8
			c0,0,0,0,0-0.1l0.1-0.3c0-0.1,0-0.2,0.1-0.3c0-0.2,0.1-0.3,0.2-0.5l0,0l0,0c0,0,0.1-0.1,0.1-0.4c0-0.1-0.1-0.5,0.2-0.6
			c0,0,0,0,0,0c0,0,0.1-0.1,0.1-0.1s0-0.1,0-0.2c0,0,0,0,0,0c0,0,0,0,0,0c0,0,0,0,0,0c0,0,0,0,0,0c0,0,0,0,0,0c0,0,0,0,0,0
			c0,0,0,0,0,0c0,0,0,0,0,0c0,0.1,0,0.2,0,0.3c0,0.1-0.1,0.2-0.1,0.2c0,0-0.1,0.1-0.1,0.1c-0.1,0.1-0.1,0.3-0.1,0.4v0
			c0,0.3-0.1,0.5-0.2,0.6c-0.1,0.1-0.1,0.2-0.1,0.4c0,0.1,0,0.2-0.1,0.3l-0.1,0.3C36.2,34.9,36.2,34.9,36.1,34.9
			C36.2,34.9,36.2,34.9,36.1,34.9L36.1,34.9z"/>
		<path class="st63" d="M35.8,37.7c0.9,0,1.7-0.8,1.7-1.7c0-0.9-0.8-1.7-1.7-1.7c-0.9,0-1.7,0.8-1.7,1.7
			C34.1,36.9,34.9,37.7,35.8,37.7z"/>
		<path class="st7" d="M35.8,37.5c0.8,0,1.5-0.7,1.5-1.5c0-0.8-0.7-1.5-1.5-1.5c-0.8,0-1.5,0.7-1.5,1.5C34.3,36.8,35,37.5,35.8,37.5
			z"/>
		<path class="st63" d="M35.8,36.5c-0.1,0-0.2,0-0.3-0.1c-0.1,0-0.1-0.1-0.1-0.2c0-0.1,0.1-0.1,0.1-0.2l0.1-0.5c0-0.1,0-0.2-0.1-0.3
			c-0.1-0.1-0.2-0.1-0.3-0.1c-0.1,0-0.2,0-0.3,0.1c-0.1,0.1-0.1,0.2-0.1,0.3c0,0,0,0,0,0s0,0,0,0c0,0,0,0,0,0c0,0,0,0,0,0
			c0-0.1,0.1-0.3,0.2-0.3c0.1-0.1,0.2-0.1,0.3-0.1c0.1,0,0.3,0.1,0.3,0.1c0.1,0.1,0.1,0.2,0.2,0.3v0l-0.1,0.5l0,0
			c0,0-0.1,0.1-0.1,0.1c0,0,0,0,0.1,0.1l0,0l0,0c0.1,0.1,0.2,0.1,0.3,0.1c0,0,0,0,0,0c0,0,0,0,0,0C35.8,36.4,35.9,36.4,35.8,36.5
			C35.9,36.4,35.9,36.4,35.8,36.5C35.9,36.5,35.9,36.5,35.8,36.5C35.9,36.5,35.8,36.5,35.8,36.5C35.8,36.5,35.8,36.5,35.8,36.5
			C35.8,36.5,35.8,36.5,35.8,36.5L35.8,36.5z"/>
		<path class="st63" d="M35.8,36.5C35.8,36.5,35.8,36.5,35.8,36.5C35.8,36.5,35.8,36.5,35.8,36.5c-0.1-0.1-0.1-0.1,0-0.1
			c0,0,0,0,0,0c0.1,0,0.2,0,0.3-0.1l0,0l0,0c0,0,0.1,0,0.1-0.1c0,0,0-0.1-0.1-0.1l0,0l0,0l-0.1-0.5v0c0-0.1,0.1-0.3,0.2-0.3
			c0.1-0.1,0.2-0.1,0.3-0.1c0.1,0,0.3,0.1,0.3,0.1c0.1,0.1,0.1,0.2,0.2,0.3c0,0,0,0,0,0c0,0,0,0,0,0c0,0,0,0,0,0c0,0,0,0,0,0
			c0-0.1,0-0.2-0.1-0.3c-0.1-0.1-0.2-0.1-0.3-0.1c-0.1,0-0.2,0-0.3,0.1c-0.1,0.1-0.1,0.2-0.1,0.3l0.1,0.5c0,0,0.1,0.1,0.1,0.2
			c0,0.1,0,0.1-0.1,0.2C36.1,36.5,35.9,36.5,35.8,36.5L35.8,36.5z"/>
		<path class="st63" d="M35.8,37.1c-0.2,0-0.4-0.2-0.4-0.2l0,0l0,0c0,0,0.2-0.2,0.4-0.2c0.2,0,0.4,0.2,0.4,0.2l0,0l0,0
			C36.2,36.9,36,37.1,35.8,37.1L35.8,37.1z M35.6,36.8c0,0,0.1,0.1,0.1,0.1c0,0,0.1,0,0.1,0c0,0,0.1,0,0.1,0c0,0,0.1,0,0.1-0.1
			c0,0-0.1-0.1-0.1-0.1c0,0-0.1,0-0.1,0c0,0-0.1,0-0.1,0C35.6,36.8,35.6,36.8,35.6,36.8L35.6,36.8z"/>
		<path class="st63" d="M36.5,36c-0.2,0-0.3-0.2-0.3-0.2l0,0l0,0c0,0,0.1-0.2,0.3-0.2s0.3,0.2,0.3,0.2l0,0l0,0
			C36.8,35.8,36.7,36,36.5,36z M36.3,35.8C36.4,35.8,36.4,35.8,36.3,35.8c0.1,0.1,0.2,0.1,0.2,0.1s0.1,0,0.1,0c0,0,0.1,0,0.1-0.1
			c0,0-0.1,0-0.1-0.1c0,0-0.1,0-0.1,0C36.5,35.7,36.5,35.7,36.3,35.8C36.4,35.7,36.4,35.7,36.3,35.8z"/>
		<path class="st63" d="M35.1,36c-0.2,0-0.3-0.2-0.3-0.2l0,0l0,0c0,0,0.1-0.2,0.3-0.2c0.2,0,0.3,0.2,0.3,0.2l0,0l0,0
			C35.4,35.8,35.3,36,35.1,36z M34.9,35.8C34.9,35.8,35,35.8,34.9,35.8c0.1,0.1,0.2,0.1,0.2,0.1s0.1,0,0.1,0c0,0,0.1,0,0.1-0.1
			c0,0-0.1,0-0.1-0.1c0,0-0.1,0-0.1,0C35.1,35.7,35,35.7,34.9,35.8C35,35.7,34.9,35.7,34.9,35.8L34.9,35.8z"/>
		<path class="st63" d="M36.1,37.4C36.1,37.4,36.1,37.4,36.1,37.4C36.1,37.4,36.1,37.4,36.1,37.4c0,0-0.2-0.2-0.3-0.2
			c-0.2,0-0.3,0.1-0.3,0.2c0,0,0,0,0,0c0,0,0,0,0,0c0,0,0,0,0,0c0,0,0,0,0,0c0,0,0.2-0.2,0.4-0.2C36,37.1,36.2,37.3,36.1,37.4
			C36.2,37.3,36.2,37.3,36.1,37.4C36.2,37.3,36.2,37.4,36.1,37.4C36.2,37.4,36.2,37.4,36.1,37.4L36.1,37.4z"/>
	</g>
</g>
</svg>
