<?xml version="1.0" encoding="utf-8"?>
<!-- Generator: Adobe Illustrator 24.0.2, SVG Export Plug-In . SVG Version: 6.00 Build 0)  -->
<svg version="1.1" id="Capa_1" xmlns="http://www.w3.org/2000/svg" xmlns:xlink="http://www.w3.org/1999/xlink" x="0px" y="0px"
	 viewBox="0 0 160 200" style="enable-background:new 0 0 160 200;" xml:space="preserve">
<style type="text/css">
	.st0{fill:url(#SVGID_1_);}
	.st1{fill:none;stroke:#000000;stroke-width:2;}
	.st2{fill:url(#SVGID_2_);}
	.st3{fill:#202040;}
	.st4{fill:url(#SVGID_3_);}
	.st5{clip-path:url(#SVGID_5_);}
	.st6{fill:url(#SVGID_6_);}
	.st7{clip-path:url(#SVGID_8_);}
	.st8{fill:url(#SVGID_9_);}
	.st9{clip-path:url(#SVGID_11_);}
	.st10{fill:url(#SVGID_12_);}
	.st11{clip-path:url(#SVGID_14_);}
	.st12{fill:url(#SVGID_15_);}
	.st13{clip-path:url(#SVGID_17_);}
	.st14{fill:url(#SVGID_18_);}
	.st15{clip-path:url(#SVGID_20_);}
</style>
<g>
	
		<linearGradient id="SVGID_1_" gradientUnits="userSpaceOnUse" x1="80" y1="199.4646" x2="80" y2="-0.5354" gradientTransform="matrix(1 0 0 -1 0 199.4646)">
		<stop  offset="0" style="stop-color:#0CCA98"/>
		<stop  offset="1" style="stop-color:#00FFCC"/>
	</linearGradient>
	<path class="st0" d="M30,0h100c16.6,0,30,13.4,30,30v140c0,16.6-13.4,30-30,30H30c-16.6,0-30-13.4-30-30V30C0,13.4,13.4,0,30,0z"/>
	<path class="st1" d="M30,1h100c16,0,29,13,29,29v140c0,16-13,29-29,29H30c-16,0-29-13-29-29V30C1,14,14,1,30,1z"/>
</g>
<g>
	
		<radialGradient id="SVGID_2_" cx="-61.1111" cy="241.6364" r="1" gradientTransform="matrix(4.408729e-15 72 64 -3.918870e-15 -15384.7324 4488)" gradientUnits="userSpaceOnUse">
		<stop  offset="0" style="stop-color:#DEE2E6"/>
		<stop  offset="1" style="stop-color:#F8F9FA"/>
	</radialGradient>
	<path class="st2" d="M36,16h88c11,0,20,9,20,20v104c0,11-9,20-20,20H36c-11,0-20-9-20-20V36C16,25,25,16,36,16z"/>
</g>
<path class="st3" d="M54.9,172.8H60c1.2,0,2.3,0.2,3.2,0.7c0.9,0.5,1.7,1.1,2.2,2c0.5,0.8,0.8,1.8,0.8,2.9c0,1.1-0.3,2.1-0.8,2.9
	c-0.5,0.8-1.2,1.5-2.2,2c-0.9,0.5-2,0.7-3.2,0.7h-5.1V172.8z M59.9,181.9c1.1,0,2-0.3,2.7-0.9c0.7-0.6,1-1.5,1-2.5s-0.3-1.9-1-2.5
	c-0.7-0.6-1.6-0.9-2.7-0.9h-2.4v6.9H59.9z M68,175.4h2.5v8.6H68V175.4z M69.2,174.2c-0.5,0-0.8-0.1-1.1-0.4c-0.3-0.3-0.4-0.6-0.4-1
	s0.1-0.7,0.4-1c0.3-0.3,0.7-0.4,1.1-0.4c0.5,0,0.8,0.1,1.1,0.4c0.3,0.3,0.4,0.6,0.4,1c0,0.4-0.1,0.8-0.4,1
	C70,174.1,69.7,174.2,69.2,174.2z M75.2,175.6h2.2v1.9h-2.1v6.5h-2.5v-8.8c0-1,0.3-1.8,0.9-2.3c0.6-0.6,1.4-0.9,2.5-0.9
	c0.4,0,0.7,0,1.1,0.1c0.3,0.1,0.6,0.2,0.8,0.3l-0.7,1.8c-0.3-0.2-0.6-0.3-1-0.3c-0.8,0-1.1,0.4-1.1,1.2V175.6z M79.9,175.4h2.5v8.6
	h-2.5V175.4z M81.9,172h2.7l-2.9,2.3h-2L81.9,172z M88.9,184.1c-0.9,0-1.7-0.2-2.5-0.6c-0.7-0.4-1.3-0.9-1.7-1.6
	c-0.4-0.7-0.6-1.4-0.6-2.3s0.2-1.6,0.6-2.3c0.4-0.7,1-1.2,1.7-1.6c0.7-0.4,1.6-0.6,2.5-0.6c0.9,0,1.7,0.2,2.4,0.6
	c0.7,0.4,1.2,0.9,1.5,1.6l-1.9,1c-0.4-0.8-1.1-1.2-1.9-1.2c-0.7,0-1.2,0.2-1.6,0.6c-0.4,0.4-0.6,1-0.6,1.7c0,0.7,0.2,1.3,0.6,1.7
	c0.4,0.4,1,0.6,1.6,0.6c0.9,0,1.5-0.4,1.9-1.2l1.9,1.1c-0.3,0.7-0.8,1.2-1.5,1.6C90.6,183.9,89.8,184.1,88.9,184.1z M94.2,175.4h2.5
	v8.6h-2.5V175.4z M95.5,174.2c-0.5,0-0.8-0.1-1.1-0.4c-0.3-0.3-0.4-0.6-0.4-1s0.1-0.7,0.4-1c0.3-0.3,0.7-0.4,1.1-0.4
	c0.5,0,0.8,0.1,1.1,0.4c0.3,0.3,0.4,0.6,0.4,1c0,0.4-0.1,0.8-0.4,1C96.3,174.1,95.9,174.2,95.5,174.2z M102.1,184.1
	c-1,0-1.7-0.3-2.3-0.8c-0.5-0.5-0.8-1.3-0.8-2.2v-9h2.5v8.9c0,0.4,0.1,0.6,0.3,0.8c0.2,0.2,0.5,0.3,0.8,0.3c0.1,0,0.3,0,0.4,0
	c0.1,0,0.2-0.1,0.3-0.1l0.1,1.9C103,184.1,102.6,184.1,102.1,184.1z"/>
<g>
	
		<linearGradient id="SVGID_3_" gradientUnits="userSpaceOnUse" x1="51.7272" y1="100.8845" x2="51.7272" y2="34.2178" gradientTransform="matrix(0.5736 -0.8192 -0.8192 -0.5736 91.4636 164.5514)">
		<stop  offset="0" style="stop-color:#0CCA98"/>
		<stop  offset="1" style="stop-color:#00FFCC"/>
	</linearGradient>
	<path class="st4" d="M30.1,76.3l16.8-24c3.8-5.4,11.3-6.7,16.7-2.9l35,24.5c5.4,3.8,6.7,11.3,2.9,16.7l-16.8,24
		c-3.8,5.4-11.3,6.7-16.7,2.9L33,93C27.6,89.2,26.3,81.8,30.1,76.3z"/>
	<path class="st1" d="M30.9,76.9l16.8-24c3.5-5,10.3-6.2,15.3-2.7l35,24.5c5,3.5,6.2,10.3,2.7,15.3l-16.8,24
		c-3.5,5-10.3,6.2-15.3,2.7l-35-24.5C28.6,88.7,27.4,81.9,30.9,76.9z"/>
</g>
<g>
	<defs>
		
			<rect id="SVGID_4_" x="51.1" y="70.2" transform="matrix(0.5736 -0.8192 0.8192 0.5736 -41.407 89.3295)" width="28" height="28.6"/>
	</defs>
	<clipPath id="SVGID_5_">
		<use xlink:href="#SVGID_4_"  style="overflow:visible;"/>
	</clipPath>
	<g class="st5">
		<path class="st3" d="M56.5,89.4l3.1-0.7c0,0,0.1,0,0.1,0c0,0,0-0.1,0-0.1c0-0.7,0-1.4,0.1-2c0.5-2.9,2.2-4.8,2.8-5.5
			c0.6-0.7,1.3-1.2,2-1.7c0,0,0,0,0-0.1c0,0,0-0.1,0-0.1L63.3,76c0,0,0-0.1-0.1-0.1c0,0-0.1,0-0.1,0l0,0c-1.1,0.7-2.2,1.6-3.1,2.6
			c-0.8,0.8-3.2,3.5-3.7,7.7c-0.1,1-0.1,2.1,0,3.1c0,0,0,0,0,0c0,0,0,0,0,0C56.4,89.4,56.4,89.4,56.5,89.4
			C56.4,89.4,56.5,89.4,56.5,89.4L56.5,89.4z"/>
		<path class="st3" d="M63.3,71.2l-1.6,3.2c0,0,0,0.1,0,0.1s0,0.1,0.1,0.1c0.6,0.3,1.2,0.7,1.8,1.1c0.2,0.2,1.5,1.1,2.4,2.1
			c1.5,1.9,1.7,4.3,1.7,5.4c0,0,0,0.1,0,0.1c0,0,0.1,0,0.1,0c1.1,0.1,2.3,0.1,3.4,0c0,0,0.1,0,0.1,0c0,0,0,0,0-0.1
			c0-2.5-0.7-4.9-2-7c-1.9-3-4.6-4.4-5.8-5C63.4,71.1,63.4,71.1,63.3,71.2C63.3,71.1,63.3,71.1,63.3,71.2L63.3,71.2z"/>
		<path class="st3" d="M74.5,86.4l-2.2-3.1c0,0,0,0,0,0c0,0,0,0,0,0s0,0,0,0c0,0,0,0,0,0l0,0c-1.1,0.7-2.2,1.2-3.4,1.5
			c-0.9,0.2-1.9,0.3-2.9,0.3c-0.6,0-1.2-0.1-1.8-0.4c-0.1-0.1-0.3-0.1-0.8-0.4c-0.2-0.1-0.4-0.2-0.6-0.3c0,0-0.1,0-0.1,0
			c0,0-0.1,0-0.1,0l-2.2,3.1c0,0,0,0.1,0,0.1c0,0,0,0.1,0,0.1c0.3,0.3,0.7,0.5,1.1,0.7c0.5,0.2,1,0.4,1.5,0.5c1.5,0.3,3,0.4,4.6,0.3
			c1.3-0.1,2.6-0.4,3.8-0.9c1.1-0.4,2.1-0.8,3.1-1.4c0,0,0,0,0,0C74.5,86.5,74.5,86.5,74.5,86.4C74.5,86.4,74.5,86.4,74.5,86.4
			C74.5,86.4,74.5,86.4,74.5,86.4L74.5,86.4z"/>
		<path class="st3" d="M64.6,89.4l3.6,0.5c0,0,0.1,0,0.1,0c0,0,0,0.1,0,0.1c0,0,0,0,0,0.1c-0.8,1.1-1.8,2-2.9,2.8
			c-1.7,1.2-3.7,1.9-5.7,2.1c-1.6,0.1-3.2-0.2-4.6-0.9l0,0c-1.4-0.5-2.6-1.3-3.6-2.3c-0.3-0.3-0.6-0.7-0.8-1
			c-0.1-0.1-0.2-0.2-0.2-0.4c0,0,0,0,0-0.1c0,0,0,0,0-0.1c0,0,0,0,0-0.1c0,0,0,0,0,0c0,0,0.1,0,0.1,0c0,0,0.1,0,0.1,0
			c0.8,0.7,1.7,1.2,2.7,1.7c0.6,0.3,1.3,0.6,2,0.8c0,0,0,0,0,0c1.5,0.3,3,0.2,4.4-0.3c0.9-0.3,1.8-0.7,2.7-1.2
			c0.8-0.5,1.6-1.1,2.2-1.7C64.5,89.4,64.5,89.4,64.6,89.4C64.6,89.4,64.6,89.4,64.6,89.4L64.6,89.4z"/>
		<path class="st3" d="M58.1,79.6l-2.3,3.3c0,0,0,0,0,0c0,0,0,0,0,0c0,0,0,0,0,0c0,0,0,0,0,0s0,0,0,0c-0.2-0.3-0.3-0.5-0.4-0.8
			c-0.5-1.1-0.5-2.1-0.6-3.1c0-1.4,0.1-2.8,0.5-4.2c0.4-1.4,1.1-2.8,2.1-3.9c0.5-0.7,1.1-1.2,1.7-1.8c0.5-0.4,1-0.7,1.5-1
			c0.5-0.3,1.1-0.6,1.7-0.8c0.4-0.2,0.8-0.3,1.2-0.4c0.4-0.1,0.7-0.1,1.1-0.1c0,0,0.1,0,0.1,0c0,0,0.1,0.1,0.1,0.1c0,0,0,0.1,0,0.1
			c0,0,0,0.1-0.1,0.1c-0.5,0.2-0.9,0.4-1.4,0.6c-0.7,0.3-1.3,0.7-1.9,1.2c-0.6,0.5-1.1,1-1.5,1.7c-0.5,0.7-0.9,1.5-1.2,2.3
			c-0.2,0.5-0.3,1.1-0.4,1.6c-0.1,0.8-0.2,1.5-0.2,2.3c0,0.5,0,0.9,0.1,1.2C57.9,78.5,58,79,58.1,79.6
			C58.1,79.5,58.1,79.5,58.1,79.6C58.1,79.6,58.1,79.6,58.1,79.6L58.1,79.6z"/>
		<path class="st3" d="M71,78.1l-1.2-3.7c0,0,0-0.1,0-0.1c0,0,0,0,0.1-0.1l0,0c0.4-0.1,0.9-0.1,1.4-0.1c0.8,0.1,1.4,0.4,2.2,0.8
			c0.5,0.3,1,0.6,1.5,1c0.9,0.6,1.7,1.4,2.4,2.3c0.7,1,1.3,2,1.8,3.1c0.5,1.3,0.7,2.7,0.7,4c0,1.1-0.2,2.2-0.6,3.3
			c-0.1,0.4-0.3,0.7-0.5,1.1l-0.3,0.5c0,0,0,0-0.1,0.1c0,0-0.1,0-0.1,0c0,0-0.1,0-0.1-0.1c0,0,0-0.1,0-0.1c0.1-0.4,0.2-0.9,0.3-1.4
			c0.1-0.5,0.1-1,0.2-1.5v0c0-1.1-0.2-2.2-0.6-3.3l0,0c-0.3-1-0.8-2-1.6-2.7l0,0c-0.3-0.4-0.7-0.8-1.1-1.1c-0.5-0.4-0.9-0.7-1.3-1
			c-0.3-0.2-0.6-0.4-1-0.6c-0.2-0.1-0.4-0.2-0.7-0.3c-0.2-0.1-0.4-0.1-0.7-0.2C71.5,78.2,71.2,78.1,71,78.1z"/>
		<path class="st3" d="M64,81.1c-0.2,0.2-0.3,0.5-0.4,0.7s0,0.6,0.1,0.8c0.1,0.3,0.3,0.5,0.6,0.6c0.3,0.1,0.5,0.2,0.8,0.1
			c0.3,0,0.5-0.2,0.7-0.4c0.2-0.2,0.3-0.5,0.4-0.7c0-0.3,0-0.6-0.2-0.8c-0.1-0.2-0.3-0.4-0.6-0.6c-0.2-0.1-0.5-0.2-0.8-0.1
			S64.2,80.9,64,81.1L64,81.1z"/>
	</g>
</g>
<g>
	
		<linearGradient id="SVGID_6_" gradientUnits="userSpaceOnUse" x1="59.5909" y1="117.5193" x2="59.5909" y2="50.8526" gradientTransform="matrix(0.766 -0.6428 -0.6428 -0.766 80.674 184.1913)">
		<stop  offset="0" style="stop-color:#0CCA98"/>
		<stop  offset="1" style="stop-color:#00FFCC"/>
	</linearGradient>
	<path class="st6" d="M39.5,65.3L62,46.4c5.1-4.3,12.6-3.6,16.9,1.5l27.4,32.7c4.3,5.1,3.6,12.6-1.5,16.9l-22.5,18.9
		c-5.1,4.3-12.6,3.6-16.9-1.5L38.1,82.2C33.8,77.1,34.5,69.5,39.5,65.3z"/>
	<path class="st1" d="M40.2,66.1l22.5-18.9c4.7-3.9,11.6-3.3,15.5,1.4l27.4,32.7c3.9,4.7,3.3,11.6-1.4,15.5l-22.5,18.9
		c-4.7,3.9-11.6,3.3-15.5-1.4L38.8,81.6C34.9,76.9,35.5,70,40.2,66.1z"/>
</g>
<g>
	<defs>
		
			<rect id="SVGID_7_" x="57.3" y="67.9" transform="matrix(0.766 -0.6428 0.6428 0.766 -36.1516 65.0403)" width="28" height="28.6"/>
	</defs>
	<clipPath id="SVGID_8_">
		<use xlink:href="#SVGID_7_"  style="overflow:visible;"/>
	</clipPath>
	<g class="st7">
		<path class="st3" d="M61.7,84.8l3.2,0.1c0,0,0.1,0,0.1,0c0,0,0,0,0-0.1c0.1-0.7,0.3-1.3,0.6-2c1.2-2.7,3.3-4.1,4.1-4.6
			c0.8-0.5,1.6-0.9,2.4-1.2c0,0,0,0,0.1-0.1c0,0,0-0.1,0-0.1l-0.5-3.4c0,0,0-0.1,0-0.1c0,0-0.1,0-0.1,0l0,0
			c-1.3,0.4-2.5,0.9-3.7,1.7c-0.9,0.6-4,2.6-5.6,6.5c-0.4,1-0.7,2-0.8,3c0,0,0,0,0,0C61.6,84.7,61.6,84.7,61.7,84.8
			C61.6,84.7,61.6,84.8,61.7,84.8C61.6,84.8,61.6,84.8,61.7,84.8L61.7,84.8z"/>
		<path class="st3" d="M73,68.9l-2.4,2.7c0,0,0,0.1,0,0.1c0,0,0,0.1,0,0.1c0.5,0.5,1,1,1.4,1.5c0.2,0.2,1.2,1.4,1.8,2.7
			c1,2.2,0.5,4.6,0.2,5.7c0,0,0,0.1,0,0.1c0,0,0,0,0.1,0.1c1.1,0.4,2.2,0.6,3.3,0.8c0,0,0.1,0,0.1,0c0,0,0,0,0.1-0.1
			c0.7-2.4,0.6-4.9-0.1-7.3c-1-3.4-3.3-5.5-4.3-6.3C73.1,68.9,73.1,68.8,73,68.9C73,68.9,73,68.9,73,68.9L73,68.9z"/>
		<path class="st3" d="M79.8,86.5L78.5,83c0,0,0,0,0,0c0,0,0,0,0,0c0,0,0,0,0,0c0,0,0,0,0,0l0,0c-1.2,0.4-2.5,0.6-3.7,0.6
			c-1,0-1.9-0.2-2.9-0.5c-0.5-0.2-1.1-0.4-1.6-0.8c-0.1-0.1-0.3-0.2-0.7-0.6c-0.2-0.1-0.4-0.4-0.5-0.5c0,0,0,0-0.1,0
			c0,0-0.1,0-0.1,0l-2.9,2.4c0,0,0,0,0,0.1c0,0,0,0.1,0,0.1c0.3,0.3,0.5,0.6,0.9,0.9c0.4,0.4,0.9,0.7,1.4,0.9
			c1.4,0.7,2.8,1.2,4.3,1.5c1.3,0.2,2.6,0.3,3.9,0.2c1.1-0.1,2.3-0.2,3.4-0.5c0,0,0,0,0,0S79.8,86.6,79.8,86.5
			C79.8,86.5,79.8,86.5,79.8,86.5C79.8,86.5,79.8,86.5,79.8,86.5L79.8,86.5z"/>
		<path class="st3" d="M69.5,86.8l3.3,1.4c0,0,0.1,0,0.1,0.1c0,0,0,0.1,0,0.1c0,0,0,0,0,0c-1.1,0.8-2.3,1.5-3.5,1.9
			c-2,0.7-4,0.9-6.1,0.5c-1.6-0.3-3-1-4.2-2.1l0,0c-1.2-0.8-2.1-1.9-2.8-3.2c-0.2-0.4-0.4-0.8-0.5-1.2c0-0.1-0.1-0.3-0.1-0.4
			c0,0,0,0,0-0.1c0,0,0,0,0-0.1c0,0,0,0,0,0c0,0,0,0,0.1,0c0,0,0.1,0,0.1,0c0,0,0.1,0,0.1,0.1c0.6,0.9,1.4,1.7,2.2,2.4
			c0.5,0.5,1.1,0.9,1.7,1.3c0,0,0,0,0,0c1.3,0.6,2.8,0.9,4.3,0.8c1,0,1.9-0.2,2.9-0.4c0.9-0.3,1.8-0.6,2.6-1.1
			C69.4,86.8,69.4,86.8,69.5,86.8C69.5,86.8,69.5,86.8,69.5,86.8L69.5,86.8z"/>
		<path class="st3" d="M65.8,75.7l-3.1,2.6c0,0,0,0,0,0c0,0,0,0,0,0c0,0,0,0,0,0c0,0,0,0,0,0c0,0,0,0,0,0c-0.1-0.3-0.2-0.6-0.2-0.9
			c-0.2-1.2,0-2.1,0.2-3.1c0.3-1.4,0.9-2.7,1.6-3.9c0.7-1.3,1.8-2.4,3-3.2c0.7-0.5,1.4-0.9,2.1-1.3c0.6-0.3,1.1-0.5,1.7-0.6
			c0.6-0.2,1.2-0.3,1.8-0.3c0.4-0.1,0.8-0.1,1.3-0.1c0.4,0,0.7,0.1,1.1,0.1c0,0,0.1,0,0.1,0.1c0,0,0,0.1,0,0.1c0,0,0,0.1,0,0.1
			s-0.1,0-0.1,0c-0.5,0.1-1,0.1-1.5,0.2c-0.8,0.1-1.5,0.4-2.2,0.7c-0.7,0.3-1.3,0.7-1.9,1.2c-0.7,0.6-1.3,1.2-1.7,1.9
			c-0.3,0.5-0.6,0.9-0.8,1.4c-0.3,0.7-0.6,1.4-0.8,2.2c-0.1,0.5-0.2,0.9-0.3,1.1C65.9,74.6,65.8,75.1,65.8,75.7
			C65.8,75.6,65.8,75.6,65.8,75.7C65.8,75.7,65.8,75.7,65.8,75.7L65.8,75.7z"/>
		<path class="st3" d="M78.6,77.6l-0.2-3.8c0,0,0-0.1,0-0.1c0,0,0.1,0,0.1,0h0c0.5,0,0.9,0.1,1.3,0.3c0.8,0.3,1.3,0.8,1.9,1.4
			c0.4,0.4,0.8,0.9,1.2,1.3c0.7,0.8,1.3,1.8,1.7,2.9c0.5,1.1,0.8,2.3,0.9,3.5c0.1,1.4,0,2.8-0.4,4.1c-0.3,1.1-0.8,2.1-1.5,3
			c-0.2,0.3-0.5,0.6-0.8,0.9l-0.4,0.4c0,0,0,0-0.1,0c0,0-0.1,0-0.1,0c0,0,0,0,0-0.1c0,0,0-0.1,0-0.1c0.2-0.4,0.4-0.8,0.6-1.2
			c0.2-0.5,0.4-1,0.6-1.4l0,0c0.3-1.1,0.4-2.2,0.3-3.3l0,0c0-1.1-0.3-2.1-0.8-3l0,0c-0.2-0.5-0.5-1-0.8-1.4c-0.4-0.5-0.7-1-1-1.3
			c-0.2-0.3-0.5-0.6-0.8-0.8c-0.2-0.2-0.4-0.3-0.6-0.5c-0.2-0.1-0.4-0.2-0.6-0.4C79,77.8,78.8,77.7,78.6,77.6z"/>
		<path class="st3" d="M71.1,78.7c-0.2,0.1-0.4,0.4-0.5,0.6c-0.1,0.3-0.1,0.5-0.1,0.8c0.1,0.3,0.2,0.5,0.4,0.7
			c0.2,0.2,0.5,0.3,0.8,0.3c0.3,0,0.6,0,0.8-0.2c0.2-0.1,0.4-0.4,0.5-0.6c0.1-0.3,0.1-0.6,0.1-0.8c-0.1-0.3-0.2-0.5-0.4-0.7
			c-0.2-0.2-0.5-0.3-0.7-0.3C71.6,78.5,71.3,78.5,71.1,78.7L71.1,78.7z"/>
	</g>
</g>
<g>
	
		<linearGradient id="SVGID_9_" gradientUnits="userSpaceOnUse" x1="69.6513" y1="131.8752" x2="69.6513" y2="65.2085" gradientTransform="matrix(0.9063 -0.4226 -0.4226 -0.9063 57.4099 199.8766)">
		<stop  offset="0" style="stop-color:#0CCA98"/>
		<stop  offset="1" style="stop-color:#00FFCC"/>
	</linearGradient>
	<path class="st8" d="M51.5,57.1l26.6-12.4c6-2.8,13.1-0.2,15.9,5.8l18,38.7c2.8,6,0.2,13.1-5.8,15.9l-26.6,12.4
		c-6,2.8-13.1,0.2-15.9-5.8l-18-38.7C42.9,67.1,45.5,59.9,51.5,57.1z"/>
	<path class="st1" d="M51.9,58l26.6-12.4c5.5-2.6,12.1-0.2,14.6,5.3l18,38.7c2.6,5.5,0.2,12.1-5.3,14.6l-26.6,12.4
		c-5.5,2.6-12.1,0.2-14.6-5.3l-18-38.7C44,67.1,46.4,60.6,51.9,58z"/>
</g>
<g>
	<defs>
		
			<rect id="SVGID_10_" x="63.8" y="67.4" transform="matrix(0.9063 -0.4226 0.4226 0.9063 -27.2186 40.5215)" width="28" height="28.6"/>
	</defs>
	<clipPath id="SVGID_11_">
		<use xlink:href="#SVGID_10_"  style="overflow:visible;"/>
	</clipPath>
	<g class="st9">
		<path class="st3" d="M67.8,81.7l3.1,1c0,0,0.1,0,0.1,0c0,0,0,0,0.1-0.1c0.3-0.6,0.7-1.2,1.1-1.7c1.9-2.3,4.3-3.1,5.2-3.4
			c0.8-0.3,1.7-0.4,2.6-0.5c0,0,0.1,0,0.1,0c0,0,0,0,0-0.1l0.4-3.4c0,0,0-0.1,0-0.1c0,0,0,0-0.1,0l0,0c-1.3,0-2.7,0.3-4,0.7
			c-1.1,0.3-4.5,1.5-7.1,4.8c-0.6,0.8-1.1,1.7-1.5,2.7c0,0,0,0,0,0C67.7,81.6,67.7,81.6,67.8,81.7C67.8,81.6,67.8,81.6,67.8,81.7
			C67.8,81.6,67.8,81.7,67.8,81.7L67.8,81.7z"/>
		<path class="st3" d="M82.8,69.2l-3,2c0,0,0,0-0.1,0.1c0,0,0,0.1,0,0.1c0.4,0.6,0.7,1.2,1,1.8c0.1,0.3,0.8,1.7,1,3.1
			c0.4,2.4-0.7,4.5-1.3,5.5c0,0,0,0.1,0,0.1c0,0,0,0.1,0.1,0.1c0.9,0.6,1.9,1.2,3,1.7c0,0,0.1,0,0.1,0c0,0,0.1,0,0.1-0.1
			c1.3-2.1,1.9-4.6,1.8-7.1c-0.1-3.6-1.8-6.2-2.5-7.2C83,69.2,83,69.2,82.8,69.2C82.9,69.2,82.9,69.2,82.8,69.2L82.8,69.2z"/>
		<path class="st3" d="M84.9,88l-0.3-3.7c0,0,0,0,0,0c0,0,0,0,0,0c0,0,0,0,0,0c0,0,0,0,0,0l0,0c-1.3,0.1-2.5,0-3.8-0.4
			c-0.9-0.3-1.8-0.7-2.6-1.2c-0.5-0.3-1-0.7-1.4-1.2c-0.1-0.1-0.2-0.3-0.5-0.7c-0.1-0.2-0.3-0.4-0.3-0.6c0,0,0,0-0.1-0.1
			c0,0-0.1,0-0.1,0l-3.4,1.6c0,0-0.1,0-0.1,0.1c0,0,0,0.1,0,0.1c0.2,0.4,0.4,0.8,0.6,1.1c0.3,0.4,0.7,0.9,1.1,1.2
			c1.1,1,2.4,1.9,3.8,2.6c1.2,0.5,2.4,0.9,3.7,1.2c1.1,0.2,2.3,0.3,3.4,0.4c0,0,0,0,0,0C84.9,88.1,84.9,88.1,84.9,88
			C84.9,88.1,84.9,88.1,84.9,88C84.9,88,84.9,88,84.9,88L84.9,88z"/>
		<path class="st3" d="M74.9,85.7l2.8,2.2c0,0,0,0,0,0.1c0,0,0,0.1,0,0.1c0,0,0,0,0,0c-1.2,0.5-2.6,0.9-3.9,1
			c-2.1,0.2-4.1-0.2-6-1.1c-1.4-0.7-2.7-1.8-3.6-3.1l0,0c-0.9-1.1-1.6-2.4-1.9-3.8c-0.1-0.4-0.2-0.9-0.2-1.3c0-0.1,0-0.3,0-0.4
			c0,0,0,0,0-0.1c0,0,0,0,0,0c0,0,0,0,0,0c0,0,0,0,0.1,0c0,0,0.1,0,0.1,0c0,0,0,0,0.1,0.1c0.4,1,0.9,2,1.5,2.8
			c0.4,0.6,0.8,1.1,1.3,1.7c0,0,0,0,0,0c1.1,1,2.5,1.6,3.9,1.9C70,85.9,71,86,71.9,86c0.9,0,1.9-0.1,2.8-0.4
			C74.8,85.6,74.8,85.6,74.9,85.7C74.8,85.6,74.9,85.7,74.9,85.7L74.9,85.7z"/>
		<path class="st3" d="M74.1,73.9l-3.7,1.7c0,0,0,0,0,0c0,0,0,0,0,0c0,0,0,0,0,0c0,0,0,0,0,0c0,0,0,0,0,0c0-0.3,0-0.6,0-0.9
			c0.1-1.2,0.6-2.1,1-2.9c0.7-1.2,1.5-2.4,2.6-3.4c1-1.1,2.3-1.8,3.7-2.3c0.8-0.3,1.6-0.5,2.4-0.7c0.6-0.1,1.2-0.2,1.8-0.1
			c0.6,0,1.2,0.1,1.8,0.2c0.4,0.1,0.8,0.1,1.2,0.3c0.3,0.1,0.7,0.2,1,0.4c0,0,0.1,0,0.1,0.1c0,0,0,0.1,0,0.1c0,0,0,0.1-0.1,0.1
			c0,0-0.1,0-0.1,0c-0.5-0.1-1-0.1-1.5-0.2c-0.8-0.1-1.5,0-2.3,0.1c-0.7,0.1-1.4,0.4-2.1,0.7c-0.8,0.4-1.5,0.8-2.2,1.4
			c-0.4,0.4-0.8,0.8-1.1,1.2c-0.5,0.6-0.9,1.2-1.3,1.9c-0.3,0.4-0.4,0.8-0.5,1C74.5,72.9,74.4,73.4,74.1,73.9
			C74.2,73.9,74.2,73.9,74.1,73.9C74.2,73.9,74.2,73.9,74.1,73.9L74.1,73.9z"/>
		<path class="st3" d="M86.1,79.1l0.8-3.8c0,0,0-0.1,0.1-0.1c0,0,0.1,0,0.1,0l0,0c0.4,0.1,0.8,0.4,1.2,0.6c0.7,0.5,1,1.1,1.4,1.8
			c0.3,0.5,0.6,1,0.8,1.6c0.5,1,0.8,2.1,0.9,3.2c0.2,1.2,0.1,2.4,0,3.6c-0.2,1.4-0.7,2.7-1.4,3.8c-0.6,1-1.3,1.8-2.2,2.5
			c-0.3,0.2-0.6,0.5-1,0.7l-0.5,0.3c0,0-0.1,0-0.1,0c0,0-0.1,0-0.1,0c0,0,0-0.1,0-0.1c0,0,0-0.1,0-0.1c0.3-0.3,0.6-0.7,0.9-1
			c0.3-0.4,0.6-0.8,0.9-1.2l0,0c0.5-1,0.9-2,1.1-3.1l0,0c0.3-1,0.3-2.1,0-3.1l0,0c-0.1-0.5-0.2-1-0.4-1.6c-0.2-0.6-0.4-1.1-0.6-1.5
			c-0.2-0.3-0.4-0.7-0.6-1c-0.1-0.2-0.3-0.4-0.4-0.6c-0.1-0.2-0.3-0.3-0.5-0.5C86.4,79.4,86.2,79.2,86.1,79.1z"/>
		<path class="st3" d="M78.5,78.2c-0.3,0.1-0.5,0.2-0.7,0.5c-0.2,0.2-0.3,0.5-0.3,0.8c0,0.3,0.1,0.6,0.2,0.8
			c0.2,0.2,0.4,0.4,0.7,0.5c0.3,0.1,0.6,0.1,0.8,0c0.3-0.1,0.5-0.2,0.7-0.5c0.2-0.2,0.3-0.5,0.3-0.8c0-0.3-0.1-0.6-0.2-0.8
			c-0.2-0.2-0.4-0.4-0.6-0.5C79.1,78.1,78.8,78.1,78.5,78.2L78.5,78.2z"/>
	</g>
</g>
<g>
	
		<linearGradient id="SVGID_12_" gradientUnits="userSpaceOnUse" x1="80.8777" y1="141.9599" x2="80.8777" y2="75.2932" gradientTransform="matrix(0.9848 -0.1736 -0.1736 -0.9848 24.2526 204.6898)">
		<stop  offset="0" style="stop-color:#0CCA98"/>
		<stop  offset="1" style="stop-color:#00FFCC"/>
	</linearGradient>
	<path class="st10" d="M64.8,53.4l28.9-5.1c6.5-1.2,12.8,3.2,13.9,9.7l7.4,42c1.2,6.5-3.2,12.8-9.7,13.9L76.4,119
		c-6.5,1.2-12.8-3.2-13.9-9.7l-7.4-42C53.9,60.8,58.3,54.5,64.8,53.4z"/>
	<path class="st1" d="M65,54.4l28.9-5.1c6-1.1,11.7,2.9,12.7,8.9l7.4,42c1.1,6-2.9,11.7-8.9,12.7l-28.9,5.1
		c-6,1.1-11.7-2.9-12.7-8.9l-7.4-42C55,61.1,59,55.4,65,54.4z"/>
</g>
<g>
	<defs>
		
			<rect id="SVGID_13_" x="69.8" y="69.6" transform="matrix(0.9848 -0.1736 0.1736 0.9848 -13.2923 15.8319)" width="28" height="28.6"/>
	</defs>
	<clipPath id="SVGID_14_">
		<use xlink:href="#SVGID_13_"  style="overflow:visible;"/>
	</clipPath>
	<g class="st11">
		<path class="st3" d="M74.2,81.3l2.7,1.7c0,0,0.1,0,0.1,0s0.1,0,0.1,0c0.5-0.5,1-1,1.5-1.4c2.4-1.7,4.9-1.9,5.9-1.9
			c0.9,0,1.8,0,2.7,0.2c0,0,0.1,0,0.1,0c0,0,0,0,0.1-0.1l1.3-3.1c0,0,0-0.1,0-0.1c0,0,0-0.1-0.1-0.1l0,0c-1.3-0.3-2.7-0.4-4-0.4
			c-1.1,0-4.8,0.2-8.1,2.8c-0.8,0.6-1.5,1.4-2.2,2.2c0,0,0,0,0,0C74.2,81.2,74.2,81.2,74.2,81.3C74.2,81.2,74.2,81.3,74.2,81.3
			C74.2,81.3,74.2,81.3,74.2,81.3L74.2,81.3z"/>
		<path class="st3" d="M91.9,73.2l-3.4,1.1c0,0-0.1,0-0.1,0.1c0,0,0,0.1,0,0.1c0.2,0.7,0.4,1.3,0.5,2c0.1,0.3,0.3,1.9,0.2,3.2
			c-0.3,2.4-1.8,4.2-2.7,5c0,0,0,0.1,0,0.1c0,0,0,0.1,0,0.1c0.8,0.8,1.6,1.6,2.4,2.4c0,0,0.1,0,0.1,0c0,0,0.1,0,0.1,0
			c1.8-1.8,3-4,3.6-6.4c0.8-3.5-0.1-6.4-0.6-7.6C92.1,73.3,92.1,73.2,91.9,73.2C92,73.2,92,73.2,91.9,73.2L91.9,73.2z"/>
		<path class="st3" d="M89.1,91.9l0.6-3.7c0,0,0,0,0,0c0,0,0,0,0,0s0,0,0,0c0,0,0,0,0,0l0,0c-1.2-0.2-2.4-0.7-3.5-1.4
			c-0.8-0.5-1.6-1.1-2.2-1.9c-0.4-0.4-0.8-0.9-1-1.5c0-0.1-0.2-0.3-0.3-0.8c-0.1-0.2-0.1-0.5-0.2-0.6c0,0,0-0.1-0.1-0.1
			c0,0-0.1,0-0.1,0l-3.7,0.6c0,0-0.1,0-0.1,0c0,0,0,0.1,0,0.1c0.1,0.4,0.1,0.8,0.3,1.2c0.2,0.5,0.4,1,0.7,1.4c0.8,1.3,1.9,2.5,3,3.5
			c1,0.8,2.1,1.5,3.3,2.1c1,0.5,2.1,0.9,3.2,1.2C89,92,89,92,89.1,91.9C89,92,89,91.9,89.1,91.9C89,91.9,89.1,91.9,89.1,91.9
			C89.1,91.9,89.1,91.9,89.1,91.9L89.1,91.9z"/>
		<path class="st3" d="M80,87l2.2,2.9c0,0,0,0.1,0,0.1c0,0,0,0.1,0,0.1c0,0,0,0-0.1,0c-1.3,0.2-2.7,0.2-4-0.1
			c-2-0.4-3.9-1.3-5.5-2.6c-1.2-1.1-2.1-2.4-2.6-3.9l0,0c-0.6-1.3-0.9-2.7-0.9-4.2c0-0.4,0.1-0.9,0.1-1.3c0-0.1,0.1-0.3,0.1-0.4
			c0,0,0,0,0-0.1c0,0,0,0,0,0c0,0,0,0,0.1,0c0,0,0,0,0.1,0c0,0,0.1,0,0.1,0c0,0,0,0.1,0,0.1c0.1,1.1,0.3,2.1,0.7,3.1
			c0.2,0.7,0.5,1.3,0.8,1.9c0,0,0,0,0,0c0.8,1.2,2,2.2,3.3,2.9c0.9,0.5,1.8,0.8,2.7,1c0.9,0.2,1.9,0.3,2.8,0.4
			C79.9,87,79.9,87,80,87C80,87,80,87,80,87L80,87z"/>
		<path class="st3" d="M82.3,75.5l-4,0.7c0,0,0,0,0,0c0,0,0,0,0,0s0,0,0,0c0,0,0,0,0,0c0,0,0,0,0,0c0.1-0.3,0.1-0.6,0.2-0.9
			c0.4-1.1,1.1-1.8,1.8-2.6c1-1,2.1-1.9,3.4-2.6c1.3-0.7,2.7-1.2,4.2-1.3c0.8-0.1,1.7-0.1,2.5,0c0.6,0.1,1.2,0.2,1.8,0.3
			c0.6,0.2,1.2,0.4,1.7,0.6c0.4,0.2,0.8,0.4,1.1,0.6c0.3,0.2,0.6,0.4,0.9,0.7c0,0,0,0.1,0.1,0.1c0,0,0,0.1,0,0.1s-0.1,0.1-0.1,0.1
			c0,0-0.1,0-0.1,0c-0.5-0.2-0.9-0.4-1.4-0.5c-0.7-0.3-1.5-0.4-2.2-0.5c-0.7-0.1-1.5,0-2.2,0.1c-0.9,0.1-1.7,0.4-2.5,0.8
			c-0.5,0.2-1,0.5-1.4,0.8c-0.6,0.4-1.2,0.9-1.8,1.5c-0.4,0.4-0.6,0.7-0.8,0.9C83,74.6,82.7,75,82.3,75.5
			C82.4,75.5,82.4,75.5,82.3,75.5C82.3,75.5,82.3,75.5,82.3,75.5L82.3,75.5z"/>
		<path class="st3" d="M92.5,83.6l1.8-3.4c0,0,0,0,0.1-0.1c0,0,0.1,0,0.1,0l0,0c0.4,0.3,0.7,0.6,1,0.9c0.5,0.7,0.7,1.3,0.9,2.1
			c0.2,0.6,0.3,1.1,0.4,1.7c0.2,1.1,0.2,2.2,0,3.3c-0.2,1.2-0.5,2.4-1,3.5c-0.6,1.3-1.4,2.4-2.4,3.3c-0.8,0.8-1.7,1.4-2.8,1.9
			c-0.4,0.2-0.7,0.3-1.1,0.4L89,97.5c0,0-0.1,0-0.1,0c0,0,0,0-0.1-0.1c0,0,0-0.1,0-0.1c0,0,0-0.1,0.1-0.1c0.4-0.2,0.8-0.5,1.2-0.8
			c0.4-0.3,0.8-0.6,1.2-0.9l0,0c0.8-0.8,1.4-1.7,1.9-2.7l0,0c0.5-0.9,0.8-2,0.8-3l0,0c0-0.5,0-1.1,0-1.6c-0.1-0.6-0.1-1.2-0.2-1.6
			c-0.1-0.4-0.2-0.7-0.3-1.1c-0.1-0.2-0.2-0.5-0.3-0.7c-0.1-0.2-0.2-0.4-0.3-0.6C92.8,84,92.6,83.8,92.5,83.6z"/>
		<path class="st3" d="M85.4,80.7c-0.3,0-0.6,0.1-0.8,0.3c-0.2,0.2-0.4,0.4-0.5,0.7c-0.1,0.3-0.1,0.6,0,0.8c0.1,0.3,0.3,0.5,0.5,0.7
			c0.2,0.2,0.5,0.2,0.8,0.2c0.3,0,0.6-0.1,0.8-0.3c0.2-0.2,0.4-0.4,0.5-0.7c0.1-0.3,0.1-0.6,0-0.8c-0.1-0.3-0.3-0.5-0.5-0.6
			C86,80.8,85.7,80.7,85.4,80.7L85.4,80.7z"/>
	</g>
</g>
<g>
	
		<linearGradient id="SVGID_15_" gradientUnits="userSpaceOnUse" x1="93.7075" y1="148.8818" x2="93.7075" y2="82.2151" gradientTransform="matrix(0.9962 8.715574e-02 8.715574e-02 -0.9962 -11.9817 193.9833)">
		<stop  offset="0" style="stop-color:#0CCA98"/>
		<stop  offset="1" style="stop-color:#00FFCC"/>
	</linearGradient>
	<path class="st12" d="M79.7,52.6l29.2,2.6c6.6,0.6,11.5,6.4,10.9,13l-3.7,42.5c-0.6,6.6-6.4,11.5-13,10.9L73.9,119
		c-6.6-0.6-11.5-6.4-10.9-13l3.7-42.5C67.3,56.9,73.1,52,79.7,52.6z"/>
	<path class="st1" d="M79.6,53.6l29.2,2.6c6.1,0.5,10.5,5.9,10,11.9l-3.7,42.5c-0.5,6.1-5.9,10.5-11.9,10L74,118
		c-6.1-0.5-10.5-5.9-10-11.9l3.7-42.5C68.3,57.5,73.6,53,79.6,53.6z"/>
</g>
<g>
	<defs>
		
			<rect id="SVGID_16_" x="75.9" y="72.9" transform="matrix(8.715574e-02 -0.9962 0.9962 8.715574e-02 -4.246 169.2359)" width="28.6" height="28"/>
	</defs>
	<clipPath id="SVGID_17_">
		<use xlink:href="#SVGID_16_"  style="overflow:visible;"/>
	</clipPath>
	<g class="st13">
		<path class="st3" d="M81.6,82l2.2,2.4c0,0,0,0,0.1,0c0,0,0.1,0,0.1,0c0.6-0.4,1.2-0.7,1.8-0.9c2.8-1.1,5.3-0.5,6.2-0.3
			c0.9,0.2,1.7,0.5,2.5,0.9c0,0,0.1,0,0.1,0c0,0,0.1,0,0.1,0l2-2.7c0,0,0-0.1,0-0.1c0,0,0-0.1,0-0.1l0,0c-1.2-0.6-2.5-1.1-3.8-1.4
			c-1.1-0.2-4.7-1-8.6,0.7c-0.9,0.4-1.8,0.9-2.7,1.5c0,0,0,0,0,0C81.6,81.8,81.6,81.9,81.6,82C81.6,81.9,81.6,81.9,81.6,82
			C81.6,81.9,81.6,81.9,81.6,82L81.6,82z"/>
		<path class="st3" d="M100.8,78.7l-3.6,0.2c0,0-0.1,0-0.1,0c0,0,0,0.1,0,0.1c0,0.7,0,1.4,0,2.1c0,0.3-0.2,1.9-0.7,3.1
			c-0.9,2.3-2.9,3.6-3.9,4.2c0,0,0,0-0.1,0.1c0,0,0,0.1,0,0.1c0.5,1,1.1,2,1.7,2.9c0,0,0,0,0.1,0c0,0,0.1,0,0.1,0
			c2.2-1.2,3.9-3,5.1-5.2c1.7-3.1,1.5-6.2,1.4-7.5C100.9,78.8,100.9,78.8,100.8,78.7C100.9,78.7,100.8,78.7,100.8,78.7L100.8,78.7z"
			/>
		<path class="st3" d="M93.2,96l1.6-3.4c0,0,0,0,0,0c0,0,0,0,0,0c0,0,0,0,0,0c0,0,0,0,0,0l0,0c-1.1-0.6-2.2-1.3-3.1-2.2
			c-0.7-0.7-1.3-1.5-1.7-2.4c-0.2-0.5-0.5-1.1-0.6-1.7c0-0.1-0.1-0.4-0.1-0.9c0-0.2,0-0.5,0-0.7c0,0,0-0.1,0-0.1c0,0,0,0-0.1,0
			l-3.7-0.3c0,0-0.1,0-0.1,0c0,0,0,0,0,0.1c-0.1,0.4-0.1,0.8,0,1.3c0,0.5,0.2,1.1,0.3,1.6c0.5,1.5,1.2,2.8,2,4.1
			c0.8,1.1,1.7,2,2.7,2.9c0.9,0.8,1.8,1.4,2.8,2c0,0,0,0,0,0C93.1,96.1,93.1,96.1,93.2,96C93.2,96.1,93.2,96.1,93.2,96
			C93.2,96,93.2,96,93.2,96L93.2,96z"/>
		<path class="st3" d="M85.7,89l1.3,3.3c0,0,0,0.1,0,0.1c0,0,0,0.1-0.1,0.1c0,0,0,0-0.1,0c-1.3-0.2-2.7-0.5-3.9-1.1
			c-1.9-0.9-3.5-2.2-4.7-3.9c-0.9-1.3-1.4-2.9-1.5-4.5l0,0c-0.2-1.4-0.2-2.9,0.2-4.3c0.1-0.4,0.3-0.8,0.5-1.2
			c0.1-0.1,0.1-0.3,0.2-0.4c0,0,0,0,0,0s0,0,0.1,0c0,0,0,0,0.1,0c0,0,0,0,0.1,0c0,0,0,0,0.1,0.1c0,0,0,0.1,0,0.1
			c-0.2,1.1-0.2,2.1-0.1,3.2c0.1,0.7,0.2,1.4,0.3,2.1c0,0,0,0,0,0c0.5,1.4,1.3,2.6,2.5,3.6c0.7,0.7,1.5,1.2,2.3,1.7
			C83.8,88.3,84.7,88.6,85.7,89C85.6,88.9,85.6,88.9,85.7,89C85.7,88.9,85.7,88.9,85.7,89L85.7,89z"/>
		<path class="st3" d="M90.9,78.4l-4.1-0.4c0,0,0,0,0,0c0,0,0,0,0,0c0,0,0,0,0,0c0,0,0,0,0,0c0,0,0,0,0,0c0.1-0.3,0.3-0.5,0.5-0.8
			c0.7-1,1.5-1.5,2.4-2c1.2-0.7,2.5-1.3,3.9-1.6c1.4-0.4,2.9-0.4,4.4-0.2c0.8,0.1,1.6,0.3,2.4,0.6c0.6,0.2,1.1,0.5,1.7,0.8
			c0.5,0.3,1,0.7,1.5,1.1c0.3,0.3,0.6,0.5,0.9,0.9c0.2,0.3,0.5,0.6,0.7,0.9c0,0,0,0.1,0,0.1c0,0,0,0.1-0.1,0.1c0,0-0.1,0-0.1,0
			c0,0-0.1,0-0.1,0c-0.4-0.3-0.8-0.6-1.2-0.9c-0.6-0.4-1.3-0.8-2-1.1c-0.7-0.3-1.4-0.4-2.2-0.5c-0.9-0.1-1.7,0-2.6,0.1
			c-0.5,0.1-1.1,0.3-1.6,0.5c-0.7,0.3-1.4,0.6-2.1,1c-0.4,0.3-0.8,0.5-1,0.6C91.8,77.8,91.4,78.1,90.9,78.4
			C91,78.4,91,78.4,90.9,78.4C91,78.4,90.9,78.4,90.9,78.4L90.9,78.4z"/>
		<path class="st3" d="M98.7,88.9l2.6-2.8c0,0,0.1,0,0.1,0c0,0,0.1,0,0.1,0l0,0c0.3,0.3,0.5,0.7,0.7,1.1c0.3,0.8,0.3,1.4,0.4,2.3
			c0,0.6,0,1.2-0.1,1.8c-0.1,1.1-0.4,2.2-0.8,3.2c-0.5,1.1-1.1,2.2-1.8,3.1c-0.9,1.1-1.9,2-3.2,2.6c-1,0.6-2,0.9-3.2,1.1
			c-0.4,0.1-0.8,0.1-1.2,0.1l-0.5,0c0,0-0.1,0-0.1,0s0,0,0-0.1c0,0,0-0.1,0-0.1c0,0,0,0,0.1-0.1c0.4-0.1,0.9-0.3,1.3-0.4
			c0.5-0.2,1-0.4,1.4-0.6l0,0c1-0.6,1.8-1.3,2.5-2.1l0,0c0.8-0.7,1.3-1.7,1.5-2.7l0,0c0.2-0.5,0.3-1,0.4-1.6
			c0.1-0.6,0.2-1.1,0.2-1.6c0-0.4,0-0.8,0-1.1c0-0.2,0-0.5-0.1-0.7c0-0.2-0.1-0.4-0.2-0.7C98.8,89.3,98.8,89.1,98.7,88.9z"/>
		<path class="st3" d="M92.6,84.3c-0.3-0.1-0.6-0.1-0.8,0c-0.3,0.1-0.5,0.3-0.6,0.5c-0.2,0.2-0.2,0.5-0.2,0.8c0,0.3,0.1,0.6,0.3,0.8
			c0.2,0.2,0.4,0.4,0.7,0.4c0.3,0.1,0.6,0,0.8-0.1c0.3-0.1,0.5-0.3,0.6-0.5c0.1-0.2,0.2-0.5,0.2-0.8c0-0.3-0.1-0.5-0.3-0.7
			C93.1,84.5,92.9,84.4,92.6,84.3L92.6,84.3z"/>
	</g>
</g>
<g>
	
		<linearGradient id="SVGID_18_" gradientUnits="userSpaceOnUse" x1="106.1471" y1="150.5113" x2="106.1471" y2="83.8446" gradientTransform="matrix(0.9397 0.342 0.342 -0.9397 -43.2851 166.4835)">
		<stop  offset="0" style="stop-color:#0CCA98"/>
		<stop  offset="1" style="stop-color:#00FFCC"/>
	</linearGradient>
	<path class="st14" d="M94.2,56.3l27.6,10c6.2,2.3,9.4,9.2,7.2,15.4l-14.6,40.1c-2.3,6.2-9.2,9.4-15.4,7.2l-27.6-10
		c-6.2-2.3-9.4-9.2-7.2-15.4l14.6-40.1C81,57.3,87.9,54.1,94.2,56.3z"/>
	<path class="st1" d="M93.8,57.3l27.6,10c5.7,2.1,8.7,8.4,6.6,14.1l-14.6,40.1c-2.1,5.7-8.4,8.7-14.1,6.6l-27.6-10
		c-5.7-2.1-8.7-8.4-6.6-14.1l14.6-40.1C81.8,58.1,88.1,55.2,93.8,57.3z"/>
</g>
<g>
	<defs>
		
			<rect id="SVGID_19_" x="81.1" y="78.2" transform="matrix(0.342 -0.9397 0.9397 0.342 -23.9309 150.34)" width="28.6" height="28"/>
	</defs>
	<clipPath id="SVGID_20_">
		<use xlink:href="#SVGID_19_"  style="overflow:visible;"/>
	</clipPath>
	<g class="st15">
		<path class="st3" d="M88.3,85.2l1.5,2.9c0,0,0,0,0.1,0.1c0,0,0.1,0,0.1,0c0.6-0.2,1.3-0.4,2-0.4c2.9-0.3,5.2,0.8,6,1.3
			c0.8,0.4,1.5,0.9,2.2,1.5c0,0,0,0,0.1,0c0,0,0.1,0,0.1,0l2.7-2.1c0,0,0,0,0-0.1c0,0,0-0.1,0-0.1l0,0c-1-0.9-2.1-1.7-3.3-2.3
			c-1-0.5-4.2-2.2-8.4-1.6c-1,0.1-2,0.4-3,0.8c0,0,0,0,0,0c0,0,0,0,0,0C88.3,85.1,88.3,85.2,88.3,85.2
			C88.3,85.2,88.3,85.2,88.3,85.2L88.3,85.2z"/>
		<path class="st3" d="M107.7,87.1l-3.5-0.7c0,0-0.1,0-0.1,0c0,0,0,0-0.1,0.1c-0.1,0.7-0.3,1.3-0.6,2c-0.1,0.3-0.7,1.8-1.5,2.9
			c-1.4,2-3.7,2.7-4.8,3c0,0-0.1,0-0.1,0.1c0,0,0,0.1,0,0.1c0.2,1.1,0.5,2.2,0.9,3.3c0,0,0,0.1,0.1,0.1c0,0,0.1,0,0.1,0
			c2.4-0.6,4.6-1.9,6.3-3.7c2.4-2.6,3.1-5.6,3.3-6.9C107.8,87.2,107.8,87.1,107.7,87.1C107.8,87.1,107.8,87.1,107.7,87.1L107.7,87.1
			z"/>
		<path class="st3" d="M95.9,101.8l2.4-2.9c0,0,0,0,0,0c0,0,0,0,0,0c0,0,0,0,0,0c0,0,0,0,0,0l0,0c-1-0.8-1.8-1.8-2.4-2.9
			c-0.5-0.8-0.8-1.8-1-2.7c-0.1-0.6-0.2-1.2-0.1-1.8c0-0.1,0-0.4,0.1-0.9c0-0.2,0.1-0.5,0.2-0.6c0,0,0-0.1,0-0.1c0,0,0,0-0.1-0.1
			l-3.5-1.3c0,0-0.1,0-0.1,0c0,0-0.1,0-0.1,0.1c-0.2,0.4-0.3,0.8-0.4,1.2c-0.1,0.5-0.1,1.1-0.1,1.6c0.1,1.5,0.4,3.1,0.9,4.5
			c0.5,1.2,1.1,2.4,1.8,3.5c0.6,0.9,1.3,1.8,2.1,2.7c0,0,0,0,0,0C95.8,101.8,95.8,101.8,95.9,101.8
			C95.9,101.8,95.9,101.8,95.9,101.8C95.9,101.8,95.9,101.8,95.9,101.8L95.9,101.8z"/>
		<path class="st3" d="M90.5,93.1l0.4,3.6c0,0,0,0.1,0,0.1c0,0,0,0-0.1,0c0,0,0,0-0.1,0c-1.3-0.5-2.4-1.2-3.5-2.1
			c-1.6-1.4-2.8-3.1-3.5-5c-0.5-1.5-0.6-3.1-0.3-4.7l0,0c0.1-1.4,0.6-2.8,1.3-4.1c0.2-0.4,0.5-0.7,0.8-1.1c0.1-0.1,0.2-0.2,0.3-0.3
			c0,0,0,0,0,0c0,0,0,0,0.1,0s0,0,0.1,0c0,0,0,0,0,0c0,0,0,0,0,0.1c0,0,0,0.1,0,0.1c-0.4,1-0.8,2-1,3.1c-0.1,0.7-0.2,1.4-0.2,2.1
			c0,0,0,0,0,0c0.1,1.5,0.6,2.9,1.4,4.1c0.5,0.8,1.1,1.6,1.8,2.3c0.7,0.7,1.4,1.2,2.3,1.7C90.4,93,90.5,93,90.5,93.1
			C90.5,93,90.5,93,90.5,93.1L90.5,93.1z"/>
		<path class="st3" d="M98.3,84.2l-3.8-1.4c0,0,0,0,0,0c0,0,0,0,0,0c0,0,0,0,0,0c0,0,0,0,0,0c0,0,0,0,0,0c0.2-0.2,0.4-0.4,0.6-0.6
			c0.9-0.8,1.9-1.1,2.8-1.3c1.4-0.4,2.8-0.6,4.2-0.6c1.5,0,2.9,0.3,4.3,1c0.8,0.3,1.5,0.7,2.2,1.2c0.5,0.4,1,0.8,1.4,1.2
			c0.4,0.4,0.8,0.9,1.2,1.4c0.3,0.3,0.5,0.7,0.7,1.1c0.2,0.3,0.3,0.7,0.4,1c0,0,0,0.1,0,0.1c0,0,0,0.1-0.1,0.1c0,0-0.1,0-0.1,0
			c0,0-0.1,0-0.1-0.1c-0.3-0.4-0.6-0.8-1-1.2c-0.5-0.6-1.1-1.1-1.7-1.5c-0.6-0.4-1.3-0.8-2-1c-0.8-0.3-1.7-0.5-2.5-0.6
			c-0.5,0-1.1,0-1.6,0c-0.8,0.1-1.5,0.2-2.3,0.4c-0.5,0.1-0.9,0.3-1.1,0.4C99.3,83.8,98.8,84,98.3,84.2
			C98.3,84.2,98.3,84.2,98.3,84.2C98.3,84.2,98.3,84.2,98.3,84.2L98.3,84.2z"/>
		<path class="st3" d="M103.1,96.3l3.3-2.1c0,0,0.1,0,0.1,0c0,0,0.1,0,0.1,0.1l0,0c0.2,0.4,0.3,0.8,0.4,1.3c0.1,0.8,0,1.5-0.3,2.3
			c-0.1,0.6-0.3,1.1-0.6,1.7c-0.4,1.1-0.9,2-1.6,2.9c-0.7,1-1.6,1.8-2.6,2.5c-1.1,0.8-2.4,1.4-3.7,1.7c-1.1,0.3-2.2,0.4-3.3,0.2
			c-0.4,0-0.8-0.1-1.2-0.2l-0.5-0.1c0,0-0.1,0-0.1,0c0,0,0-0.1,0-0.1c0,0,0-0.1,0-0.1c0,0,0.1,0,0.1,0c0.4,0,0.9,0,1.4-0.1
			c0.5-0.1,1-0.1,1.5-0.2l0,0c1.1-0.3,2.1-0.8,3-1.4l0,0c0.9-0.5,1.7-1.3,2.2-2.2l0,0c0.3-0.4,0.6-0.9,0.8-1.4
			c0.3-0.6,0.5-1.1,0.6-1.5c0.1-0.4,0.2-0.7,0.3-1.1c0.1-0.2,0.1-0.5,0.1-0.7c0-0.2,0-0.4,0-0.7C103.1,96.8,103.1,96.5,103.1,96.3z"
			/>
		<path class="st3" d="M98.4,90.3c-0.2-0.1-0.5-0.2-0.8-0.2c-0.3,0-0.5,0.2-0.8,0.3c-0.2,0.2-0.4,0.4-0.4,0.7
			c-0.1,0.3,0,0.6,0.1,0.8c0.1,0.3,0.3,0.5,0.6,0.6c0.2,0.1,0.5,0.2,0.8,0.2c0.3,0,0.5-0.2,0.7-0.4c0.2-0.2,0.3-0.5,0.4-0.7
			c0-0.3,0-0.6-0.1-0.8C98.8,90.7,98.6,90.5,98.4,90.3L98.4,90.3z"/>
	</g>
</g>
</svg>
