<?xml version="1.0" encoding="utf-8"?>
<!-- Generator: Adobe Illustrator 24.0.2, SVG Export Plug-In . SVG Version: 6.00 Build 0)  -->
<svg version="1.1" id="Capa_1" xmlns="http://www.w3.org/2000/svg" xmlns:xlink="http://www.w3.org/1999/xlink" x="0px" y="0px"
	 viewBox="0 0 160 199" style="enable-background:new 0 0 160 199;" xml:space="preserve">
<style type="text/css">
	.st0{fill:url(#SVGID_1_);}
	.st1{fill:none;stroke:#000000;stroke-width:2;}
	.st2{fill:url(#SVGID_2_);}
	.st3{fill:#202040;}
	.st4{fill:url(#SVGID_3_);}
	.st5{clip-path:url(#SVGID_5_);}
	.st6{fill:url(#SVGID_6_);}
	.st7{clip-path:url(#SVGID_8_);}
	.st8{fill:url(#SVGID_9_);}
	.st9{clip-path:url(#SVGID_11_);}
	.st10{fill:url(#SVGID_12_);}
	.st11{clip-path:url(#SVGID_14_);}
</style>
<g>
	
		<linearGradient id="SVGID_1_" gradientUnits="userSpaceOnUse" x1="80" y1="198.4646" x2="80" y2="-1.5354" gradientTransform="matrix(1 0 0 -1 0 197.4646)">
		<stop  offset="0" style="stop-color:#0CCA98"/>
		<stop  offset="1" style="stop-color:#00FFCC"/>
	</linearGradient>
	<path class="st0" d="M30-1h100c16.6,0,30,13.4,30,30v140c0,16.6-13.4,30-30,30H30c-16.6,0-30-13.4-30-30V29C0,12.4,13.4-1,30-1z"/>
	<path class="st1" d="M30,0h100c16,0,29,13,29,29v140c0,16-13,29-29,29H30c-16,0-29-13-29-29V29C1,13,14,0,30,0z"/>
</g>
<g>
	
		<radialGradient id="SVGID_2_" cx="-61.1111" cy="240.6364" r="1" gradientTransform="matrix(4.408729e-15 72 64 -3.918870e-15 -15320.7324 4487)" gradientUnits="userSpaceOnUse">
		<stop  offset="0" style="stop-color:#DEE2E6"/>
		<stop  offset="1" style="stop-color:#F8F9FA"/>
	</radialGradient>
	<path class="st2" d="M36,15h88c11,0,20,9,20,20v104c0,11-9,20-20,20H36c-11,0-20-9-20-20V35C16,24,25,15,36,15z"/>
</g>
<path class="st3" d="M54.3,171.6c1.3,0,2.4,0.4,3.1,1.3c0.7,0.8,1.1,2,1.1,3.6v6.6H56v-6.5c0-0.9-0.2-1.6-0.6-2
	c-0.4-0.5-1-0.7-1.7-0.7c-0.8,0-1.4,0.2-1.9,0.7c-0.5,0.5-0.7,1.2-0.7,2.1v6.3h-2.6v-11.2h2.5v1.4c0.4-0.5,0.9-0.9,1.4-1.2
	C52.9,171.7,53.6,171.6,54.3,171.6z M65.1,183.1c-0.9,0-1.7-0.2-2.4-0.6c-0.7-0.4-1.3-0.9-1.7-1.6c-0.4-0.7-0.6-1.4-0.6-2.3
	s0.2-1.6,0.6-2.3c0.4-0.7,1-1.2,1.7-1.6c0.7-0.4,1.5-0.6,2.4-0.6c0.9,0,1.7,0.2,2.4,0.6c0.7,0.4,1.3,0.9,1.7,1.6
	c0.4,0.7,0.6,1.4,0.6,2.3s-0.2,1.6-0.6,2.3c-0.4,0.7-1,1.2-1.7,1.6C66.8,182.9,66,183.1,65.1,183.1z M65.1,181.1
	c0.6,0,1.2-0.2,1.6-0.6c0.4-0.4,0.6-1,0.6-1.7s-0.2-1.3-0.6-1.7c-0.4-0.4-0.9-0.7-1.6-0.7s-1.2,0.2-1.6,0.7c-0.4,0.4-0.6,1-0.6,1.7
	s0.2,1.3,0.6,1.7C63.9,180.9,64.4,181.1,65.1,181.1z M73.8,175.5c0.3-0.4,0.7-0.7,1.2-0.9c0.5-0.2,1.1-0.3,1.8-0.3v2.3
	c-0.3,0-0.5,0-0.6,0c-0.7,0-1.3,0.2-1.7,0.6c-0.4,0.4-0.6,1-0.6,1.8v4.1h-2.5v-8.6h2.4V175.5z M89.3,174.3c1.1,0,1.9,0.3,2.6,1
	c0.6,0.6,1,1.6,1,2.8v4.9h-2.5v-4.5c0-0.7-0.1-1.2-0.4-1.5c-0.3-0.3-0.7-0.5-1.2-0.5c-0.6,0-1.1,0.2-1.4,0.6
	c-0.3,0.4-0.5,0.9-0.5,1.7v4.3h-2.5v-4.5c0-1.4-0.5-2-1.6-2c-0.6,0-1,0.2-1.4,0.6c-0.3,0.4-0.5,0.9-0.5,1.7v4.3h-2.5v-8.6h2.4v1
	c0.3-0.4,0.7-0.6,1.2-0.8c0.5-0.2,1-0.3,1.5-0.3c0.6,0,1.2,0.1,1.6,0.4c0.5,0.2,0.9,0.6,1.2,1c0.4-0.4,0.8-0.8,1.3-1
	C88.1,174.4,88.7,174.3,89.3,174.3z M103.9,174.4v8.6h-2.4v-1c-0.6,0.7-1.5,1.1-2.7,1.1c-0.8,0-1.5-0.2-2.2-0.5
	c-0.6-0.4-1.2-0.9-1.5-1.6c-0.4-0.7-0.6-1.5-0.6-2.3s0.2-1.7,0.6-2.3c0.4-0.7,0.9-1.2,1.5-1.6c0.7-0.4,1.4-0.5,2.2-0.5
	c1.1,0,2,0.3,2.6,1v-0.9H103.9z M99.2,181.1c0.6,0,1.2-0.2,1.6-0.6c0.4-0.4,0.6-1,0.6-1.7s-0.2-1.3-0.6-1.7
	c-0.4-0.4-0.9-0.7-1.6-0.7c-0.6,0-1.2,0.2-1.6,0.7c-0.4,0.4-0.6,1-0.6,1.7s0.2,1.3,0.6,1.7C98.1,180.9,98.6,181.1,99.2,181.1z
	 M109.3,183.1c-1,0-1.7-0.3-2.3-0.8c-0.5-0.5-0.8-1.3-0.8-2.2v-9h2.5v8.9c0,0.4,0.1,0.6,0.3,0.8c0.2,0.2,0.5,0.3,0.8,0.3
	c0.1,0,0.3,0,0.4,0c0.1,0,0.2-0.1,0.3-0.1l0.1,1.9C110.2,183.1,109.7,183.1,109.3,183.1z"/>
<g>
	
		<linearGradient id="SVGID_3_" gradientUnits="userSpaceOnUse" x1="63.1929" y1="122.5598" x2="63.1929" y2="55.8931" gradientTransform="matrix(0.866 -0.5 -0.5 -0.866 63.6472 192.736)">
		<stop  offset="0" style="stop-color:#0CCA98"/>
		<stop  offset="1" style="stop-color:#00FFCC"/>
	</linearGradient>
	<path class="st4" d="M44.4,62.3l25.4-14.7c5.7-3.3,13.1-1.3,16.4,4.4l21.3,37c3.3,5.7,1.3,13.1-4.4,16.4l-25.4,14.7
		c-5.7,3.3-13.1,1.3-16.4-4.4L40,78.7C36.7,73,38.7,65.6,44.4,62.3z"/>
	<path class="st1" d="M44.9,63.2l25.4-14.7c5.3-3,12-1.2,15,4l21.3,37c3,5.3,1.2,12-4,15l-25.4,14.7c-5.3,3-12,1.2-15-4l-21.3-37
		C37.8,73,39.6,66.2,44.9,63.2z"/>
</g>
<g>
	<defs>
		<rect id="SVGID_4_" x="58.7" y="70.2" transform="matrix(0.866 -0.5 0.5 0.866 -32.4997 47.6685)" width="28" height="28.6"/>
	</defs>
	<clipPath id="SVGID_5_">
		<use xlink:href="#SVGID_4_"  style="overflow:visible;"/>
	</clipPath>
	<g class="st5">
		<path class="st3" d="M62.8,85.4l3.2,0.7c0,0,0.1,0,0.1,0c0,0,0,0,0.1-0.1c0.3-0.6,0.6-1.2,1-1.8c1.6-2.4,4-3.5,4.8-3.8
			c0.8-0.3,1.7-0.6,2.6-0.7c0,0,0.1,0,0.1,0c0,0,0,0,0-0.1l0.1-3.4c0,0,0-0.1,0-0.1c0,0-0.1,0-0.1,0h0c-1.3,0.2-2.6,0.5-3.9,1
			c-1,0.4-4.4,1.9-6.6,5.4c-0.5,0.9-1,1.8-1.3,2.8c0,0,0,0,0,0C62.7,85.3,62.7,85.3,62.8,85.4C62.7,85.3,62.7,85.3,62.8,85.4
			C62.7,85.3,62.8,85.4,62.8,85.4L62.8,85.4z"/>
		<path class="st3" d="M76.7,71.7l-2.8,2.2c0,0,0,0,0,0.1c0,0,0,0.1,0,0.1c0.4,0.5,0.8,1.1,1.2,1.7c0.1,0.3,0.9,1.6,1.3,3
			c0.6,2.3-0.3,4.6-0.8,5.6c0,0,0,0.1,0,0.1c0,0,0,0.1,0.1,0.1c1,0.5,2,1,3.1,1.4c0,0,0.1,0,0.1,0c0,0,0.1,0,0.1-0.1
			c1.1-2.3,1.5-4.8,1.2-7.2c-0.4-3.5-2.3-6-3.1-6.9C76.8,71.7,76.8,71.7,76.7,71.7C76.7,71.7,76.7,71.7,76.7,71.7L76.7,71.7z"/>
		<path class="st3" d="M80.4,90.2l-0.7-3.7c0,0,0,0,0,0s0,0,0,0c0,0,0,0,0,0c0,0,0,0,0,0l0,0c-1.3,0.2-2.5,0.2-3.8-0.1
			c-1-0.2-1.9-0.5-2.7-1c-0.5-0.3-1-0.6-1.5-1.1c-0.1-0.1-0.3-0.3-0.6-0.7c-0.1-0.2-0.3-0.4-0.4-0.5c0,0,0,0-0.1-0.1
			c0,0-0.1,0-0.1,0l-3.2,1.9c0,0,0,0-0.1,0.1c0,0,0,0.1,0,0.1c0.2,0.4,0.4,0.7,0.7,1.1c0.3,0.4,0.7,0.8,1.2,1.1
			c1.2,0.9,2.6,1.7,4,2.2c1.2,0.4,2.5,0.7,3.8,0.8c1.1,0.1,2.3,0.2,3.4,0.1c0,0,0,0,0,0C80.3,90.3,80.3,90.3,80.4,90.2
			C80.4,90.3,80.4,90.2,80.4,90.2C80.4,90.2,80.4,90.2,80.4,90.2L80.4,90.2z"/>
		<path class="st3" d="M70.2,88.7l3,2c0,0,0,0,0.1,0.1c0,0,0,0.1,0,0.1c0,0,0,0,0,0c-1.2,0.6-2.5,1.1-3.8,1.3
			c-2,0.3-4.1,0.1-6.1-0.5c-1.5-0.6-2.8-1.6-3.8-2.8l0,0c-1-1-1.8-2.3-2.3-3.6c-0.1-0.4-0.2-0.8-0.3-1.3c0-0.1,0-0.3-0.1-0.4
			c0,0,0,0,0-0.1c0,0,0,0,0-0.1c0,0,0,0,0,0c0,0,0,0,0.1,0c0,0,0.1,0,0.1,0c0,0,0,0,0.1,0.1c0.5,1,1.1,1.9,1.7,2.7
			c0.4,0.5,0.9,1.1,1.5,1.5c0,0,0,0,0,0c1.2,0.9,2.6,1.4,4.1,1.6c1,0.1,1.9,0.2,2.9,0.1c0.9-0.1,1.9-0.3,2.8-0.6
			C70.1,88.7,70.1,88.7,70.2,88.7C70.1,88.7,70.1,88.7,70.2,88.7L70.2,88.7z"/>
		<path class="st3" d="M68.4,77.1l-3.5,2c0,0,0,0,0,0c0,0,0,0,0,0c0,0,0,0,0,0c0,0,0,0,0,0c0,0,0,0,0,0c0-0.3-0.1-0.6-0.1-0.9
			c0-1.2,0.4-2.1,0.8-3c0.6-1.3,1.3-2.5,2.3-3.6c1-1.1,2.2-2,3.5-2.6c0.7-0.4,1.5-0.7,2.3-0.9c0.6-0.2,1.2-0.3,1.8-0.3
			c0.6,0,1.2,0,1.8,0c0.4,0,0.8,0.1,1.3,0.2c0.4,0.1,0.7,0.2,1,0.3c0,0,0.1,0,0.1,0.1c0,0,0,0.1,0,0.1c0,0,0,0.1-0.1,0.1
			c0,0-0.1,0-0.1,0c-0.5,0-1,0-1.5,0c-0.8,0-1.5,0.1-2.3,0.3c-0.7,0.2-1.4,0.5-2,0.9c-0.8,0.4-1.4,1-2,1.6c-0.4,0.4-0.7,0.8-1,1.3
			c-0.4,0.6-0.8,1.3-1.1,2c-0.2,0.5-0.4,0.8-0.4,1.1C68.7,76.1,68.6,76.6,68.4,77.1C68.4,77.1,68.4,77.1,68.4,77.1
			C68.4,77.1,68.4,77.1,68.4,77.1L68.4,77.1z"/>
		<path class="st3" d="M80.8,81.2l0.5-3.8c0,0,0-0.1,0-0.1c0,0,0.1,0,0.1,0l0,0c0.4,0.1,0.9,0.3,1.2,0.5c0.7,0.4,1.1,1,1.6,1.7
			c0.3,0.5,0.7,1,0.9,1.5c0.6,1,1,2,1.2,3.1c0.3,1.2,0.4,2.4,0.3,3.6c-0.1,1.4-0.5,2.7-1.1,3.9c-0.5,1-1.1,1.9-2,2.7
			c-0.3,0.3-0.6,0.5-0.9,0.8l-0.4,0.3c0,0-0.1,0-0.1,0s-0.1,0-0.1,0c0,0,0-0.1,0-0.1c0,0,0-0.1,0-0.1c0.3-0.3,0.6-0.7,0.8-1.1
			c0.3-0.4,0.6-0.9,0.8-1.3l0,0c0.5-1,0.8-2.1,0.8-3.2l0,0c0.2-1,0.1-2.1-0.3-3.1l0,0c-0.1-0.5-0.3-1-0.6-1.5
			c-0.3-0.6-0.5-1.1-0.8-1.4c-0.2-0.3-0.4-0.6-0.6-0.9c-0.1-0.2-0.3-0.4-0.5-0.6c-0.2-0.2-0.3-0.3-0.5-0.5
			C81.1,81.5,80.9,81.3,80.8,81.2z"/>
		<path class="st3" d="M73.1,81c-0.3,0.1-0.5,0.3-0.7,0.5c-0.2,0.2-0.2,0.5-0.2,0.8c0,0.3,0.1,0.6,0.3,0.8c0.2,0.2,0.4,0.4,0.7,0.5
			c0.3,0.1,0.6,0.1,0.8,0c0.3-0.1,0.5-0.3,0.6-0.5c0.2-0.2,0.2-0.5,0.2-0.8c0-0.3-0.1-0.6-0.3-0.8c-0.2-0.2-0.4-0.4-0.7-0.4
			C73.7,80.9,73.4,80.9,73.1,81L73.1,81z"/>
	</g>
</g>
<g>
	
		<linearGradient id="SVGID_6_" gradientUnits="userSpaceOnUse" x1="74.3624" y1="134.875" x2="74.3624" y2="68.2083" gradientTransform="matrix(0.9659 -0.2588 -0.2588 -0.9659 34.8377 202.0938)">
		<stop  offset="0" style="stop-color:#0CCA98"/>
		<stop  offset="1" style="stop-color:#00FFCC"/>
	</linearGradient>
	<path class="st6" d="M57.6,56.4l28.3-7.6c6.4-1.7,13,2.1,14.7,8.5l11,41.2c1.7,6.4-2.1,13-8.5,14.7l-28.3,7.6
		c-6.4,1.7-13-2.1-14.7-8.5l-11-41.2C47.4,64.7,51.2,58.1,57.6,56.4z"/>
	<path class="st1" d="M57.8,57.3l28.3-7.6c5.9-1.6,11.9,1.9,13.5,7.8l11,41.2c1.6,5.9-1.9,11.9-7.8,13.5l-28.3,7.6
		c-5.9,1.6-11.9-1.9-13.5-7.8l-11-41.2C48.5,64.9,52,58.9,57.8,57.3z"/>
</g>
<g>
	<defs>
		
			<rect id="SVGID_7_" x="65.2" y="70.8" transform="matrix(0.9659 -0.2588 0.2588 0.9659 -19.3222 23.3985)" width="28" height="28.6"/>
	</defs>
	<clipPath id="SVGID_8_">
		<use xlink:href="#SVGID_7_"  style="overflow:visible;"/>
	</clipPath>
	<g class="st7">
		<path class="st3" d="M69.4,83.4l2.9,1.5c0,0,0.1,0,0.1,0c0,0,0.1,0,0.1,0c0.4-0.5,0.9-1.1,1.4-1.5c2.2-1.9,4.7-2.3,5.7-2.4
			c0.9-0.1,1.8-0.1,2.7-0.1c0,0,0.1,0,0.1,0s0,0,0-0.1l1-3.2c0,0,0-0.1,0-0.1c0,0,0,0-0.1-0.1l0,0c-1.3-0.2-2.7-0.2-4,0
			c-1.1,0.1-4.7,0.6-7.8,3.5c-0.8,0.7-1.4,1.5-2,2.4c0,0,0,0,0,0C69.3,83.3,69.3,83.3,69.4,83.4C69.3,83.3,69.3,83.3,69.4,83.4
			C69.4,83.3,69.4,83.4,69.4,83.4L69.4,83.4z"/>
		<path class="st3" d="M86.3,73.7l-3.3,1.4c0,0-0.1,0-0.1,0.1c0,0,0,0.1,0,0.1c0.3,0.6,0.5,1.3,0.7,1.9c0.1,0.3,0.5,1.8,0.5,3.2
			c0,2.4-1.5,4.4-2.2,5.2c0,0,0,0.1,0,0.1c0,0,0,0.1,0,0.1c0.8,0.8,1.7,1.5,2.6,2.2c0,0,0.1,0,0.1,0s0.1,0,0.1,0
			c1.6-1.9,2.7-4.2,3-6.7c0.5-3.5-0.7-6.4-1.2-7.5C86.5,73.8,86.5,73.8,86.3,73.7C86.4,73.7,86.4,73.7,86.3,73.7L86.3,73.7z"/>
		<path class="st3" d="M85.1,92.6l0.3-3.7c0,0,0,0,0,0c0,0,0,0,0,0c0,0,0,0,0,0c0,0,0,0,0,0l0,0c-1.3-0.1-2.5-0.5-3.6-1
			c-0.9-0.4-1.7-1-2.4-1.6c-0.4-0.4-0.9-0.8-1.1-1.4c-0.1-0.1-0.2-0.3-0.4-0.8c-0.1-0.2-0.2-0.5-0.2-0.6c0,0,0-0.1-0.1-0.1
			c0,0-0.1,0-0.1,0l-3.6,1c0,0-0.1,0-0.1,0.1c0,0,0,0.1,0,0.1c0.1,0.4,0.2,0.8,0.4,1.2c0.2,0.5,0.5,1,0.9,1.4c1,1.2,2.1,2.3,3.3,3.2
			c1.1,0.7,2.2,1.3,3.5,1.8c1.1,0.4,2.2,0.7,3.3,1c0,0,0,0,0,0C85.1,92.7,85.1,92.7,85.1,92.6C85.1,92.6,85.1,92.6,85.1,92.6
			C85.1,92.6,85.1,92.6,85.1,92.6L85.1,92.6z"/>
		<path class="st3" d="M75.6,88.5l2.4,2.7c0,0,0,0.1,0,0.1c0,0,0,0.1,0,0.1c0,0,0,0-0.1,0c-1.3,0.3-2.7,0.4-4,0.3
			c-2.1-0.2-4-0.9-5.7-2.1c-1.3-1-2.3-2.2-3-3.7l0,0c-0.7-1.3-1.1-2.7-1.2-4.1c0-0.4,0-0.9,0-1.3c0-0.1,0-0.3,0.1-0.4c0,0,0,0,0-0.1
			c0,0,0,0,0,0c0,0,0,0,0.1,0c0,0,0,0,0.1,0c0,0,0.1,0,0.1,0c0,0,0,0,0,0.1c0.2,1.1,0.5,2.1,1,3.1c0.3,0.6,0.6,1.3,1,1.9
			c0,0,0,0,0,0c0.9,1.1,2.2,2,3.5,2.6c0.9,0.4,1.8,0.7,2.8,0.8c0.9,0.2,1.9,0.2,2.8,0.1C75.6,88.5,75.6,88.5,75.6,88.5
			C75.6,88.5,75.6,88.5,75.6,88.5L75.6,88.5z"/>
		<path class="st3" d="M77,76.9L73,77.9c0,0,0,0,0,0c0,0,0,0,0,0c0,0,0,0,0,0c0,0,0,0,0,0c0,0,0,0,0,0c0-0.3,0.1-0.6,0.2-0.9
			c0.3-1.2,0.9-1.9,1.5-2.7c0.9-1.1,1.9-2.1,3.1-2.9c1.2-0.9,2.6-1.4,4.1-1.6c0.8-0.2,1.6-0.3,2.5-0.2c0.6,0,1.2,0.1,1.8,0.2
			c0.6,0.1,1.2,0.3,1.8,0.5c0.4,0.1,0.8,0.3,1.2,0.5c0.3,0.2,0.6,0.4,0.9,0.6c0,0,0.1,0.1,0.1,0.1c0,0,0,0.1,0,0.1
			c0,0,0,0.1-0.1,0.1s-0.1,0-0.1,0c-0.5-0.2-1-0.3-1.5-0.4c-0.7-0.2-1.5-0.3-2.3-0.3c-0.7,0-1.5,0.1-2.2,0.3c-0.8,0.2-1.6,0.6-2.4,1
			c-0.5,0.3-0.9,0.6-1.3,1c-0.6,0.5-1.1,1-1.6,1.6c-0.3,0.4-0.6,0.7-0.7,0.9C77.5,75.9,77.3,76.4,77,76.9C77,76.8,77,76.8,77,76.9
			C77,76.9,77,76.9,77,76.9L77,76.9z"/>
		<path class="st3" d="M87.8,84l1.5-3.6c0,0,0-0.1,0.1-0.1c0,0,0.1,0,0.1,0l0,0c0.4,0.2,0.8,0.5,1.1,0.8c0.6,0.6,0.8,1.2,1.1,2
			c0.2,0.6,0.4,1.1,0.5,1.7c0.3,1.1,0.4,2.2,0.3,3.3c-0.1,1.2-0.3,2.4-0.7,3.6c-0.5,1.3-1.2,2.5-2.1,3.5c-0.7,0.9-1.6,1.6-2.6,2.1
			c-0.3,0.2-0.7,0.4-1.1,0.5l-0.5,0.2c0,0-0.1,0-0.1,0c0,0-0.1,0-0.1-0.1c0,0,0-0.1,0-0.1c0,0,0-0.1,0-0.1c0.3-0.3,0.7-0.5,1.1-0.9
			c0.4-0.3,0.8-0.7,1.1-1l0,0c0.7-0.9,1.3-1.8,1.6-2.9l0,0c0.5-1,0.6-2,0.5-3.1l0,0c0-0.5-0.1-1.1-0.2-1.6c-0.1-0.6-0.2-1.1-0.4-1.6
			c-0.1-0.4-0.2-0.7-0.4-1.1c-0.1-0.2-0.2-0.5-0.3-0.7c-0.1-0.2-0.2-0.4-0.4-0.6C88.1,84.4,88,84.2,87.8,84z"/>
		<path class="st3" d="M80.5,81.8c-0.3,0-0.5,0.1-0.8,0.3c-0.2,0.2-0.4,0.4-0.4,0.7c-0.1,0.3,0,0.6,0.1,0.8c0.1,0.3,0.3,0.5,0.6,0.6
			c0.2,0.1,0.5,0.2,0.8,0.2c0.3,0,0.5-0.2,0.8-0.3c0.2-0.2,0.4-0.4,0.4-0.7s0-0.6-0.1-0.8c-0.1-0.3-0.3-0.5-0.5-0.6
			S80.8,81.8,80.5,81.8L80.5,81.8z"/>
	</g>
</g>
<g>
	
		<linearGradient id="SVGID_9_" gradientUnits="userSpaceOnUse" x1="85.9996" y1="142.4646" x2="85.9996" y2="75.7979" gradientTransform="matrix(1 0 0 -1 0 197.4646)">
		<stop  offset="0" style="stop-color:#0CCA98"/>
		<stop  offset="1" style="stop-color:#00FFCC"/>
	</linearGradient>
	<path class="st8" d="M71.3,55h29.3c6.6,0,12,5.4,12,12v42.7c0,6.6-5.4,12-12,12H71.3c-6.6,0-12-5.4-12-12V67
		C59.3,60.4,64.7,55,71.3,55z"/>
	<path class="st1" d="M71.3,56h29.3c6.1,0,11,4.9,11,11v42.7c0,6.1-4.9,11-11,11H71.3c-6.1,0-11-4.9-11-11V67
		C60.3,60.9,65.3,56,71.3,56z"/>
</g>
<g>
	<defs>
		<rect id="SVGID_10_" x="70.8" y="74" width="28" height="28.6"/>
	</defs>
	<clipPath id="SVGID_11_">
		<use xlink:href="#SVGID_10_"  style="overflow:visible;"/>
	</clipPath>
	<g class="st9">
		<path class="st3" d="M75.7,84.1l2.4,2.2c0,0,0,0,0.1,0c0,0,0.1,0,0.1,0c0.5-0.4,1.1-0.8,1.7-1.1c2.7-1.3,5.2-1,6.1-0.9
			c0.9,0.1,1.7,0.3,2.6,0.6c0,0,0.1,0,0.1,0c0,0,0,0,0.1-0.1l1.8-2.9c0,0,0-0.1,0-0.1c0,0,0-0.1-0.1-0.1l0,0
			c-1.2-0.5-2.5-0.9-3.9-1.1c-1.1-0.2-4.7-0.6-8.5,1.4c-0.9,0.5-1.8,1.1-2.5,1.8c0,0,0,0,0,0C75.7,84,75.7,84,75.7,84.1
			C75.7,84.1,75.7,84.1,75.7,84.1C75.7,84.1,75.7,84.1,75.7,84.1L75.7,84.1z"/>
		<path class="st3" d="M94.6,79.2l-3.5,0.5c0,0-0.1,0-0.1,0c0,0,0,0.1,0,0.1c0.1,0.7,0.1,1.4,0.1,2.1c0,0.3,0,1.9-0.4,3.2
			c-0.7,2.3-2.5,3.8-3.5,4.5c0,0,0,0-0.1,0.1s0,0.1,0,0.1c0.6,1,1.3,1.9,2,2.8c0,0,0,0,0.1,0s0.1,0,0.1,0c2-1.4,3.7-3.4,4.6-5.7
			c1.4-3.3,1-6.3,0.8-7.6C94.7,79.3,94.7,79.3,94.6,79.2C94.7,79.2,94.6,79.2,94.6,79.2L94.6,79.2z"/>
		<path class="st3" d="M88.6,97.1l1.3-3.5c0,0,0,0,0,0c0,0,0,0,0,0c0,0,0,0,0,0c0,0,0,0,0,0l0,0c-1.2-0.5-2.3-1.1-3.2-1.9
			c-0.7-0.6-1.4-1.4-1.9-2.2c-0.3-0.5-0.6-1-0.7-1.7c0-0.1-0.1-0.4-0.2-0.9c0-0.2-0.1-0.5-0.1-0.7c0,0,0-0.1,0-0.1c0,0-0.1,0-0.1,0
			l-3.7,0c0,0-0.1,0-0.1,0c0,0,0,0.1,0,0.1c0,0.4,0,0.8,0.1,1.3c0.1,0.5,0.2,1.1,0.5,1.6c0.6,1.4,1.4,2.7,2.4,3.9
			c0.9,1,1.8,1.9,2.9,2.6c0.9,0.7,1.9,1.3,2.9,1.8c0,0,0,0,0,0C88.5,97.2,88.5,97.2,88.6,97.1C88.5,97.2,88.5,97.2,88.6,97.1
			C88.5,97.1,88.6,97.1,88.6,97.1L88.6,97.1z"/>
		<path class="st3" d="M80.4,90.8l1.6,3.2c0,0,0,0.1,0,0.1c0,0,0,0.1-0.1,0.1c0,0,0,0-0.1,0c-1.4,0-2.7-0.3-4-0.8
			c-1.9-0.7-3.7-1.9-5-3.5c-1-1.3-1.6-2.7-1.9-4.3v0c-0.4-1.4-0.4-2.9-0.1-4.3c0.1-0.4,0.2-0.9,0.4-1.3c0.1-0.1,0.1-0.3,0.2-0.4
			c0,0,0,0,0,0c0,0,0,0,0.1,0c0,0,0,0,0.1,0c0,0,0,0,0.1,0c0,0,0,0,0.1,0.1c0,0,0,0.1,0,0.1c-0.1,1.1,0,2.1,0.1,3.2
			c0.1,0.7,0.3,1.4,0.5,2.1c0,0,0,0,0,0c0.6,1.3,1.6,2.5,2.8,3.4c0.8,0.6,1.6,1.1,2.5,1.5c0.9,0.4,1.8,0.7,2.7,0.8
			C80.4,90.7,80.4,90.7,80.4,90.8C80.4,90.7,80.4,90.7,80.4,90.8L80.4,90.8z"/>
		<path class="st3" d="M84.7,79.8h-4.1c0,0,0,0,0,0c0,0,0,0,0,0c0,0,0,0,0,0c0,0,0,0,0,0c0,0,0,0,0,0c0.1-0.3,0.2-0.5,0.4-0.8
			c0.6-1,1.4-1.6,2.2-2.2c1.1-0.8,2.4-1.5,3.8-2c1.4-0.5,2.9-0.7,4.4-0.5c0.8,0,1.7,0.2,2.5,0.4c0.6,0.2,1.2,0.4,1.7,0.6
			c0.6,0.3,1.1,0.6,1.6,0.9c0.4,0.2,0.7,0.5,1,0.8c0.3,0.2,0.5,0.5,0.7,0.8c0,0,0,0.1,0,0.1c0,0,0,0.1,0,0.1c0,0-0.1,0-0.1,0.1
			c0,0-0.1,0-0.1,0c-0.4-0.3-0.9-0.5-1.3-0.8c-0.7-0.4-1.4-0.7-2.1-0.9c-0.7-0.2-1.5-0.3-2.2-0.3c-0.9,0-1.7,0.1-2.6,0.3
			c-0.5,0.2-1,0.4-1.5,0.6c-0.7,0.3-1.4,0.7-2,1.2c-0.4,0.3-0.7,0.5-0.9,0.7C85.5,79.1,85.2,79.4,84.7,79.8
			C84.8,79.8,84.8,79.8,84.7,79.8C84.8,79.8,84.8,79.8,84.7,79.8L84.7,79.8z"/>
		<path class="st3" d="M93.4,89.5l2.3-3.1c0,0,0,0,0.1,0c0,0,0.1,0,0.1,0l0,0c0.3,0.3,0.6,0.7,0.8,1.1c0.4,0.7,0.5,1.4,0.6,2.2
			c0.1,0.6,0.1,1.2,0.1,1.8c0,1.1-0.2,2.2-0.5,3.3c-0.4,1.2-0.9,2.3-1.6,3.3c-0.8,1.1-1.8,2.1-2.9,2.9c-0.9,0.7-2,1.1-3.1,1.4
			c-0.4,0.1-0.8,0.2-1.2,0.2l-0.5,0.1c0,0-0.1,0-0.1,0c0,0,0,0,0-0.1c0,0,0-0.1,0-0.1c0,0,0,0,0.1-0.1c0.4-0.2,0.8-0.3,1.3-0.5
			c0.5-0.2,0.9-0.5,1.3-0.7l0,0c0.9-0.6,1.7-1.4,2.3-2.4v0c0.7-0.8,1.1-1.8,1.3-2.8v0c0.1-0.5,0.2-1.1,0.3-1.6
			c0.1-0.6,0.1-1.2,0.1-1.6c0-0.4,0-0.8-0.1-1.1c0-0.2-0.1-0.5-0.1-0.7c-0.1-0.2-0.1-0.4-0.2-0.7C93.6,90,93.5,89.7,93.4,89.5z"/>
		<path class="st3" d="M86.9,85.5c-0.3,0-0.6,0-0.8,0.1c-0.3,0.1-0.5,0.3-0.6,0.6c-0.1,0.3-0.2,0.5-0.1,0.8c0,0.3,0.2,0.5,0.4,0.7
			c0.2,0.2,0.5,0.3,0.7,0.4c0.3,0,0.6,0,0.8-0.1c0.3-0.1,0.5-0.3,0.6-0.6c0.1-0.3,0.2-0.5,0.1-0.8c0-0.3-0.2-0.5-0.4-0.7
			C87.4,85.7,87.2,85.6,86.9,85.5L86.9,85.5z"/>
	</g>
</g>
<g>
	
		<linearGradient id="SVGID_12_" gradientUnits="userSpaceOnUse" x1="98.8093" y1="146.372" x2="98.8093" y2="79.7054" gradientTransform="matrix(0.9659 0.2588 0.2588 -0.9659 -32.9803 176.3796)">
		<stop  offset="0" style="stop-color:#0CCA98"/>
		<stop  offset="1" style="stop-color:#00FFCC"/>
	</linearGradient>
	<path class="st10" d="M86.2,56.8l28.3,7.6c6.4,1.7,10.2,8.3,8.5,14.7l-11,41.2c-1.7,6.4-8.3,10.2-14.7,8.5l-28.3-7.6
		c-6.4-1.7-10.2-8.3-8.5-14.7l11-41.2C73.2,58.9,79.8,55.1,86.2,56.8z"/>
	<path class="st1" d="M85.9,57.7l28.3,7.6c5.9,1.6,9.4,7.6,7.8,13.5L111,120c-1.6,5.9-7.6,9.4-13.5,7.8l-28.3-7.6
		c-5.9-1.6-9.4-7.6-7.8-13.5l11-41.2C74,59.6,80.1,56.2,85.9,57.7z"/>
</g>
<g>
	<defs>
		
			<rect id="SVGID_13_" x="76.3" y="78.4" transform="matrix(0.2588 -0.9659 0.9659 0.2588 -22.195 155.9733)" width="28.6" height="28"/>
	</defs>
	<clipPath id="SVGID_14_">
		<use xlink:href="#SVGID_13_"  style="overflow:visible;"/>
	</clipPath>
	<g class="st11">
		<path class="st3" d="M82.9,86.1l1.8,2.7c0,0,0,0,0.1,0c0,0,0.1,0,0.1,0c0.6-0.3,1.3-0.5,2-0.6c2.9-0.6,5.3,0.4,6.1,0.7
			c0.8,0.3,1.6,0.8,2.3,1.3c0,0,0.1,0,0.1,0c0,0,0.1,0,0.1,0l2.5-2.3c0,0,0-0.1,0-0.1c0,0,0-0.1,0-0.1l0,0c-1.1-0.8-2.2-1.5-3.5-2
			c-1-0.4-4.4-1.8-8.5-0.8c-1,0.2-2,0.6-2.9,1.1c0,0,0,0,0,0c0,0,0,0,0,0C82.9,86,82.9,86,82.9,86.1C82.9,86,82.9,86,82.9,86.1
			L82.9,86.1z"/>
		<path class="st3" d="M102.4,86.2l-3.6-0.4c0,0-0.1,0-0.1,0s0,0,0,0.1c-0.1,0.7-0.2,1.4-0.4,2c-0.1,0.3-0.5,1.8-1.2,3
			c-1.2,2.1-3.4,3-4.5,3.4c0,0-0.1,0-0.1,0.1c0,0,0,0.1,0,0.1c0.3,1.1,0.7,2.2,1.2,3.2c0,0,0,0,0.1,0.1c0,0,0.1,0,0.1,0
			c2.3-0.8,4.4-2.3,5.9-4.3c2.2-2.8,2.6-5.9,2.7-7.1C102.5,86.3,102.5,86.3,102.4,86.2C102.5,86.2,102.4,86.2,102.4,86.2L102.4,86.2
			z"/>
		<path class="st3" d="M91.9,101.9l2.1-3.1c0,0,0,0,0,0c0,0,0,0,0,0c0,0,0,0,0,0c0,0,0,0,0,0l0,0c-1-0.7-1.9-1.7-2.6-2.7
			c-0.6-0.8-1-1.7-1.3-2.6c-0.2-0.5-0.3-1.1-0.3-1.8c0-0.1,0-0.4,0.1-0.9c0-0.2,0.1-0.5,0.1-0.7c0,0,0-0.1,0-0.1c0,0,0,0-0.1-0.1
			l-3.6-1c0,0-0.1,0-0.1,0c0,0,0,0-0.1,0.1c-0.1,0.4-0.2,0.8-0.3,1.2c-0.1,0.5,0,1.1,0,1.6c0.2,1.5,0.6,3,1.3,4.4
			c0.6,1.2,1.3,2.3,2.1,3.3c0.7,0.9,1.5,1.7,2.4,2.5c0,0,0,0,0,0S91.8,102,91.9,101.9C91.9,101.9,91.9,101.9,91.9,101.9
			C91.9,101.9,91.9,101.9,91.9,101.9L91.9,101.9z"/>
		<path class="st3" d="M85.7,93.7l0.7,3.5c0,0,0,0.1,0,0.1c0,0,0,0-0.1,0.1c0,0,0,0-0.1,0c-1.3-0.4-2.5-1-3.6-1.8
			c-1.7-1.2-3-2.8-3.9-4.7c-0.6-1.5-0.9-3.1-0.7-4.7l0,0c0-1.4,0.3-2.9,1-4.2c0.2-0.4,0.4-0.8,0.7-1.1c0.1-0.1,0.2-0.2,0.3-0.3
			c0,0,0,0,0,0c0,0,0,0,0.1,0c0,0,0,0,0.1,0c0,0,0,0,0.1,0c0,0,0,0,0,0.1c0,0,0,0.1,0,0.1c-0.3,1-0.6,2.1-0.7,3.1
			c-0.1,0.7-0.1,1.4-0.1,2.1c0,0,0,0,0,0c0.3,1.5,0.9,2.8,1.8,4c0.6,0.8,1.3,1.5,2,2.1c0.7,0.6,1.5,1.1,2.4,1.5
			C85.7,93.6,85.7,93.6,85.7,93.7C85.7,93.6,85.7,93.6,85.7,93.7L85.7,93.7z"/>
		<path class="st3" d="M92.7,84.2l-3.9-1.1c0,0,0,0,0,0c0,0,0,0,0,0c0,0,0,0,0,0c0,0,0,0,0,0c0,0,0,0,0,0c0.2-0.2,0.4-0.5,0.6-0.7
			c0.9-0.8,1.8-1.2,2.7-1.6c1.3-0.5,2.7-0.8,4.1-0.9c1.5-0.1,3,0.1,4.4,0.6c0.8,0.3,1.5,0.6,2.3,1c0.5,0.3,1,0.7,1.5,1.1
			c0.5,0.4,0.9,0.8,1.3,1.3c0.3,0.3,0.5,0.7,0.8,1c0.2,0.3,0.4,0.6,0.5,1c0,0,0,0.1,0,0.1c0,0,0,0.1-0.1,0.1c0,0-0.1,0-0.1,0
			c0,0-0.1,0-0.1-0.1c-0.3-0.4-0.7-0.7-1.1-1.1c-0.5-0.5-1.1-1-1.8-1.4c-0.6-0.4-1.3-0.7-2.1-0.8c-0.8-0.2-1.7-0.3-2.6-0.3
			c-0.6,0-1.1,0.1-1.6,0.2c-0.8,0.1-1.5,0.3-2.2,0.6c-0.5,0.2-0.8,0.3-1.1,0.4C93.7,83.7,93.2,83.9,92.7,84.2
			C92.8,84.2,92.8,84.2,92.7,84.2C92.7,84.2,92.7,84.2,92.7,84.2L92.7,84.2z"/>
		<path class="st3" d="M98.5,95.8l3.1-2.3c0,0,0.1,0,0.1,0c0,0,0.1,0,0.1,0l0,0c0.2,0.4,0.4,0.8,0.5,1.3c0.2,0.8,0.1,1.5-0.1,2.3
			c-0.1,0.6-0.2,1.2-0.4,1.7c-0.3,1.1-0.7,2.1-1.4,3c-0.7,1-1.4,1.9-2.3,2.8c-1,0.9-2.3,1.6-3.6,2c-1.1,0.4-2.2,0.6-3.3,0.5
			c-0.4,0-0.8,0-1.2-0.1l-0.5-0.1c0,0-0.1,0-0.1,0c0,0,0-0.1,0-0.1c0,0,0-0.1,0-0.1c0,0,0,0,0.1,0c0.4,0,0.9-0.1,1.4-0.2
			c0.5-0.1,1-0.2,1.5-0.3l0,0c1-0.4,2-1,2.9-1.7l0,0c0.9-0.6,1.6-1.4,2-2.4l0,0c0.3-0.5,0.5-1,0.7-1.5c0.2-0.6,0.4-1.1,0.5-1.5
			c0.1-0.4,0.2-0.7,0.2-1.1c0-0.2,0.1-0.5,0.1-0.7c0-0.2,0-0.4,0-0.7C98.6,96.3,98.6,96.1,98.5,95.8z"/>
		<path class="st3" d="M93.3,90.3c-0.3-0.1-0.5-0.2-0.8-0.1c-0.3,0.1-0.5,0.2-0.7,0.4c-0.2,0.2-0.3,0.5-0.3,0.8c0,0.3,0,0.6,0.2,0.8
			c0.1,0.2,0.4,0.4,0.6,0.6c0.3,0.1,0.5,0.1,0.8,0.1c0.3-0.1,0.5-0.2,0.7-0.4c0.2-0.2,0.3-0.5,0.3-0.8c0-0.3,0-0.6-0.2-0.8
			C93.8,90.6,93.6,90.4,93.3,90.3L93.3,90.3z"/>
	</g>
</g>
</svg>
