<?xml version="1.0" encoding="utf-8"?>
<!-- Generator: Adobe Illustrator 24.0.2, SVG Export Plug-In . SVG Version: 6.00 Build 0)  -->
<svg version="1.1" id="Capa_1" focusable="false" xmlns="http://www.w3.org/2000/svg" xmlns:xlink="http://www.w3.org/1999/xlink"
	 x="0px" y="0px" viewBox="0 0 512 512" style="enable-background:new 0 0 512 512;" xml:space="preserve">
<style type="text/css">
	.st0{fill:#563D7C;}
	.st1{fill:#FFFFFF;}
</style>
<title>Bootstrap</title>
<path class="st0" d="M512,426.7c0,46.9-38.4,85.3-85.3,85.3H85.3C38.4,512,0,473.6,0,426.7V85.3C0,38.4,38.4,0,85.3,0h341.3
	C473.6,0,512,38.4,512,85.3V426.7z"/>
<path class="st1" d="M139.1,111.3h145.1c26.8,0,48.3,6.1,64.4,18.4c16.1,12.3,24.3,30.8,24.3,55.6c0,15.1-3.7,27.9-11,38.7
	c-7.4,10.7-17.9,19.1-31.6,24.9v0.8c18.4,3.9,32.4,12.6,41.8,26.1c9.5,13.6,14.2,30.5,14.2,50.9c0,11.7-2.1,22.7-6.3,32.8
	c-4.2,10.2-10.7,19-19.7,26.4c-9,7.4-20.3,13.2-34.3,17.6c-14,4.4-30.5,6.5-49.8,6.5H139.1L139.1,111.3L139.1,111.3z M191.4,236.3
	h85.3c12.5,0,23-3.5,31.4-10.7c8.4-7.2,12.5-17.4,12.5-30.8c0-15.1-3.8-25.7-11.3-31.8c-7.5-6.1-18.4-9.2-32.6-9.2h-85.3
	L191.4,236.3L191.4,236.3z M191.4,367.3h92.4c15.9,0,28.3-4.1,37-12.4c8.8-8.2,13.2-19.9,13.2-35c0-14.8-4.4-26.1-13.2-34.1
	c-8.9-8-21.1-11.9-37-11.9h-92.4V367.3z"/>
</svg>
