<?xml version="1.0" encoding="utf-8"?>
<!-- Generator: Adobe Illustrator 24.0.2, SVG Export Plug-In . SVG Version: 6.00 Build 0)  -->
<svg version="1.1" id="Capa_1" xmlns="http://www.w3.org/2000/svg" xmlns:xlink="http://www.w3.org/1999/xlink" x="0px" y="0px"
	 viewBox="0 0 512 512" style="enable-background:new 0 0 512 512;" xml:space="preserve">
<style type="text/css">
	.st0{fill:#F6D2A2;}
	.st1{fill:#69D7E2;}
	.st2{fill:#FFFFFF;}
	.st3{fill:#231F20;}
</style>
<g>
	<path class="st0" d="M72.8,277c0.7,15.1,15.9,8.1,22.6,3.4c6.5-4.6,8.4-0.7,9-9.5c0.4-5.9,1-11.6,0.7-17.5
		c-9.8-0.9-20.4,1.5-28.5,7.3C72.3,263.6,64.7,273.3,72.8,277"/>
	<path class="st0" d="M374.3,462.9c11.6,7.2,32.9,28.9,15.4,39.5c-16.7,15.3-26.1-16.9-40.8-21.3
		C355.2,472.5,363.1,464.5,374.3,462.9L374.3,462.9L374.3,462.9z"/>
	<path class="st0" d="M166.6,487.5c-13.7,2.1-21.3,14.4-32.8,20.7c-10.7,6.3-14.8-2.1-15.7-3.8c-1.6-0.7-1.5,0.7-4.1-1.9
		c-10-15.7,10.3-27.2,20.9-35C149.6,464.5,158.8,477.3,166.6,487.5L166.6,487.5L166.6,487.5z"/>
	<path class="st0" d="M438.8,275.1c-0.7,15.1-15.9,8.1-22.6,3.4c-6.5-4.6-8.4-0.7-9-9.5c-0.4-5.9-1-11.6-0.7-17.5
		c9.8-0.9,20.4,1.5,28.5,7.3C439.1,261.7,446.9,271.4,438.8,275.1"/>
	<path class="st1" d="M398.7,90.6c52.4-18.5,11.5-90.3-34.2-58.6c-30-25.7-71.2-30.4-114.6-30.4c-42.4,3.4-82.8,11.2-111,35.8
		C93.3,8,51.3,78.5,104.8,96.3c-15,58.2,2.1,117.5-0.3,176.7c-2.2,53.2-16.2,124.4,13.4,172.1c25.1,40.8,79.2,55.4,123.7,57
		c56.8,2.1,125.7-11.9,153.3-67c26.4-52.4,19.1-117.8,15.7-174.3C407.2,203.7,413.5,145.7,398.7,90.6L398.7,90.6z"/>
	<path d="M442.8,266.1c-1.5-3.1-4.3-6.6-6.9-8.5c-6.8-4.8-15.4-7.5-24.4-7.8c-0.3-9.1-0.6-19.1-0.6-31.7v-11.5
		c-0.1-36.1-0.6-52-2.6-71.8c-1.6-15.6-4.1-30-7.6-43.5c11.9-4.6,19.7-12,22.8-21.7c2.9-9,1.5-19.1-3.5-28.1
		c-5.1-8.8-13.4-15.4-22.9-18.1c-10.3-2.8-21.4-0.7-32.2,6.5c-9.5-8.1-20.6-14.2-32.9-18.9C310,2.9,284.6-0.2,250-0.2v1.5l-0.1-1.5
		c-36.9,2.9-64.2,8.7-86.8,19.7c-9.1,4.4-17.2,9.7-24.2,15.9c-10.9-6.8-22.2-8.4-32.6-5.1c-9.7,2.9-18.1,9.8-23.1,18.8
		c-5,9-6.2,19.2-2.8,28.1c3.4,8.8,11.2,15.7,22.8,20c-3.7,14.8-5.6,30.6-5.9,47.9c-0.3,16.9,0.4,30.4,3.1,61
		c1.9,22.8,2.6,33.2,2.9,45.8c-10-0.4-20,2.2-27.5,7.6c-2.6,1.9-5.6,5.3-6.9,8.5c-1.9,4.1-1.2,7.8,2.6,10c0.6,7.1,4.6,10.3,10.6,9.7
		c4.4-0.4,9.7-2.8,14.2-6c1-0.7,2.1-1.3,3.1-1.8c0.4-0.1,0.7-0.3,1.2-0.4c0,0,0.9-0.3,1.2-0.4c0.4-0.1,0.9-0.3,1.2-0.6
		c-0.3,6.9-0.9,14.1-2.2,30.6c-1.5,18.5-2.2,28.6-2.5,40c-1.3,42,3.7,72.6,18.7,96.8c4.7,7.6,10.4,14.4,17.2,20.6
		c-1.3,0.9-6.9,5-8.7,6.3c-6.2,4.7-10.4,8.7-12.9,13.1c-3.2,5.7-3.2,11.5,0.4,17.5l0.1,0.1l0.1,0.1c1.6,1.6,2.5,2.1,3.7,2.1h0.1h0.3
		l0,0c0.1,0.3,0.3,0.4,0.4,0.7c0.4,0.7,0.9,1.3,1.3,1.9c3.7,4.3,8.8,5.3,15.7,1.2c3.7-1.9,6.3-4.1,11.9-8.8c0.1-0.1,0.1-0.1,0.3-0.3
		c9-7.6,13.4-10.4,20-11.5l2.4-0.4c0.9,0.4,1.8,0.7,2.8,1.2c20.9,8.4,45.1,12.9,69.6,13.8c31.7,1.2,62.3-2.8,88.1-12.2
		c6.9-2.5,13.4-5.4,19.5-8.7c3.8,1.5,7.1,4.6,13.2,11.8c0.3,0.3,0.3,0.3,0.4,0.6c0.3,0.3,0.3,0.4,0.4,0.6c0.3,0.4,0.7,0.7,1,1.2
		c4.8,5.7,8.1,8.5,11.8,10.1c4.8,2.1,9.5,1,14.4-3.4c8.5-5.3,9.1-13.5,3.5-22.9c-4-6.6-10.9-13.5-17.3-17.9
		c7.6-7.5,14.2-16.5,19.4-26.6c14.1-28.2,19.5-61.1,19.2-103.4c-0.1-15-0.7-28.1-2.4-53v-0.7c0.7,0.3,1.5,0.7,2.2,1.3
		c4.6,3.1,9.8,5.6,14.2,6c6,0.6,10-2.6,10.6-9.7l0,0C443.9,273.9,444.7,270.2,442.8,266.1L442.8,266.1z M396,26.5
		c8.8,2.4,16.5,8.5,21.2,16.7s6,17.5,3.4,25.7c-2.8,8.7-9.8,15.6-20.9,19.7c-2.2-7.9-4.8-15.7-7.8-23.2c4.3-3.7,6.3-8.2,2.9-14.7
		s-9.3-7.2-15.3-5.3c-3.8-5-8.1-9.4-12.5-13.5C376.8,25.8,386.8,24,396,26.5L396,26.5z M82.9,76.2c-3.1-7.9-2.1-17.3,2.6-25.6
		S97.9,35.9,107,33.3c9.4-2.8,19.5-1.5,29.5,4.4c-5.7,5.1-10.9,11-15.3,17.5c-7.6-4-15.4-4.7-19.8,3.4c-4.6,8.7,0.7,14.1,8.2,18.2
		c-1,2.5-2.1,5.1-2.9,7.8c-1,3.2-2.1,6.6-2.9,10C93,90.4,86,84.1,82.9,76.2L82.9,76.2z M100.7,276.4c-0.1,0-1,0.3-1,0.4
		c-0.4,0.1-0.9,0.3-1.3,0.6c-1.2,0.4-2.4,1.2-3.5,2.1c-4.1,2.9-9.1,5.1-12.9,5.4c-4.4,0.4-6.9-1.5-7.3-6.8c3.1-1,4.4-1.8,5.6-3.5
		l-2.4-1.8c-0.9,1.2-1.8,1.6-4.4,2.5l0,0c-0.1,0-0.1,0-0.3,0.1c-2.4-1.3-2.8-3.4-1.5-6.3c1.2-2.6,3.8-5.7,6-7.3
		c7.1-5.1,16.5-7.6,25.9-7.1c0,3.7,0.1,7.3,0,10.9c0,0.4,0,0.7-0.1,1.2c-0.1,2.1-0.1,2.9-0.3,4l0,0
		C102.6,275.1,102.3,275.7,100.7,276.4L100.7,276.4z M145,498c-0.1,0.1-0.1,0.1-0.3,0.3c-5.4,4.7-8.1,6.6-11.5,8.5
		c-5.6,3.4-9.4,2.6-12-0.6c-0.4-0.4-0.7-1-1-1.5c-0.1-0.1-0.3-0.4-0.4-0.6c0,0,0,0,0-0.1c0.3-2.6,1.3-4.6,4-8.7
		c0.1-0.1,0.1-0.1,0.1-0.3c1.6-2.4,2.4-3.7,3.1-5.3l-2.6-1.2c-0.6,1.3-1.3,2.5-2.8,4.8c-0.1,0.1-0.1,0.1-0.1,0.3
		c-2.6,3.8-3.8,6.2-4.4,8.8h-0.1c0,0,0,0-0.1,0h-0.3c-0.3-0.1-0.7-0.4-1.3-1c-5.7-9.1-1.2-16.9,11.8-26.6c1.6-1.2,7.1-5,8.5-6.2
		c0.3,0,0.6-0.1,0.9-0.3c7.9,6.8,17.2,12.6,27.5,17.5l0,0c0,0.1,0.1,0.3,0.3,0.4C157.9,487.9,153.2,491,145,498L145,498z M391.6,482
		c4.6,7.6,4.4,13.8-1.3,18.1c-0.4-0.9-0.7-1.9-1.3-3.4c0-0.1,0-0.1-0.1-0.3c-2.1-5.6-3.4-7.9-5.9-10.6l-2.1,2.1
		c2.2,2.1,3.2,4.3,5.3,9.4c0,0.1,0,0.1,0.1,0.3c0.7,1.9,1.2,3.1,1.6,4.1c-3.8,3.2-7.2,3.8-10.7,2.2c-3.1-1.3-6-4.1-10.7-9.4
		c-0.3-0.3-0.6-0.7-0.9-1.2c-0.1-0.1-0.3-0.3-0.4-0.6c-0.3-0.3-0.3-0.3-0.4-0.6c-5.4-6.3-8.7-9.7-12.2-11.6
		c8.2-4.7,15.6-10,22.2-16.2C380.9,469,387.8,475.7,391.6,482L391.6,482z M393.7,434.4c-12.6,25.4-35,43.3-64.9,54.2
		c-25.6,9.3-55.8,13.1-87.1,11.9c-53.9-1.9-100.6-20.7-122.5-56.3c-14.7-23.6-19.5-53.8-18.2-95.2c0.4-11.3,1-21.4,2.5-40
		c1.6-20.9,2.1-26.9,2.5-36.3c0.3-6.8,0.3-13.7,0.1-21c-0.3-12.9-1-23.2-2.9-46.3c-2.6-30.6-3.4-43.9-3.1-60.7
		c0.4-22,3.4-41.4,9.5-59.8c10-29.8,28.3-49.9,54.8-63C186.6,11.3,213.5,5.7,250,2.7c34.2,0,59.2,3.1,80.8,11
		c25.9,9.5,45.1,26.3,58.3,52c8.5,20.9,13.5,43.3,16.2,69.2c2.1,19.7,2.5,35.5,2.6,71.5v11.5c0.1,17.8,0.4,30.3,1.2,42.7
		c0.3,4.8,0.4,6.9,1.2,18.5c1.6,25,2.2,37.9,2.4,52.9C412.9,374.2,407.6,406.7,393.7,434.4L393.7,434.4z M438.6,273.6L438.6,273.6
		c-0.1,0-0.3-0.1-0.4-0.1c-2.6-0.9-3.5-1.5-4.4-2.5l-2.4,1.8c1.3,1.8,2.6,2.5,5.6,3.5c-0.6,5.3-3.1,7.2-7.3,6.8
		c-3.8-0.3-8.8-2.6-12.9-5.4c-1.2-0.9-2.4-1.5-3.5-2.1c-0.1,0-0.3-0.1-0.4-0.1c-0.6-8.1-0.6-10.1-0.9-14.4c-0.1-2.6-0.3-5.3-0.4-7.9
		c8.2,0.1,16.3,2.6,22.5,7.2c2.2,1.6,4.8,4.7,6,7.3C441.4,270.1,441.1,272.3,438.6,273.6L438.6,273.6z"/>
	<g transform="translate(108.934905, 96.951015)">
		<path class="st2" d="M163.2,56.1c0.1,7.5,1.6,15.7,0.3,23.6c-2.1,3.8-5.9,4.3-9.3,5.7c-4.7-0.7-8.7-3.8-10.6-8.2
			c-1.2-9,0.3-17.5,0.7-26.4c0-0.3,5.6,0.1,10.6,1.6C159.3,53.7,163.2,56,163.2,56.1L163.2,56.1z"/>
		<path class="st2" d="M121.7,56.7c-4.1,15.6,5.4,41,21.2,20.1c-1.2-8.8,0.1-17.3,0.6-26C143.5,50.1,121.8,55.7,121.7,56.7
			L121.7,56.7z"/>
		<path d="M165,63c-0.3-4.4-0.4-6.2-0.4-8.4v-1l-1-0.3L145,47.6v-1l-1.9,0.4H143v0.1l-20.9,5.3l-0.7,0.1l-0.3,0.7
			c-3.2,7.8-2.5,19.5,1.6,26.7c4.7,8.2,12.3,8.4,20.1-1c2.2,4.3,6.3,7.2,11,7.9h0.4l0.4-0.1c0.6-0.3,1.2-0.4,2.2-0.9
			c0.1,0,0.1,0,0.3-0.1c4.3-1.5,6-2.6,7.5-5.4l0.1-0.1v-0.3c0.4-2.6,0.6-5.4,0.6-8.5C165.4,69.2,165.3,67.1,165,63L165,63z
			 M141.5,57.6c-0.1,2.6-0.3,3.7-0.4,5.1c-0.3,5.4-0.3,9.5,0.1,13.7c-6.9,8.8-12.3,8.8-16,2.2c-3.5-6.2-4.3-16.6-1.6-23.5l18.5-4.7
			C141.9,52.3,141.8,54.2,141.5,57.6L141.5,57.6z M162.1,79.3c-1,1.8-2.4,2.6-5.9,3.8c-0.1,0-0.1,0-0.3,0.1
			c-0.9,0.3-1.5,0.6-1.9,0.7c-4-0.7-7.3-3.4-9-7.1c-0.4-4-0.4-8.1-0.1-13.5c0.1-1.5,0.1-2.5,0.4-5.1c0.3-3.4,0.4-5.4,0.4-7.3l16,4.8
			c0,1.9,0.1,3.7,0.4,7.5c0.3,4,0.4,6,0.4,8.4C162.6,74.5,162.5,77,162.1,79.3L162.1,79.3z"/>
	</g>
	<g transform="translate(48.475508, 21.975564)">
		<path class="st2" d="M93.7,67.1c13.5,52.6,97.7,39.1,94.4-13.7C184.3-9.7,80.8,2.5,93.7,67.1"/>
		<path d="M189.6,53.3c-0.9-15.3-7.6-27.2-18.8-34.7c-10-6.8-23.2-9.4-36.3-7.8c-13.1,1.8-25.1,7.6-33,16.9
			C92.7,38,89.3,51.5,92.4,67.1l1.3-0.3l-1.3,0.3C106.2,121.1,192.9,108.1,189.6,53.3L189.6,53.3z M95,66.8
			c-2.9-14.8,0.3-27.5,8.5-37c7.5-8.7,18.8-14.4,31.3-16s25,0.9,34.4,7.3c10.4,7.1,16.7,18.1,17.6,32.6
			C189.9,105,108.1,117.3,95,66.8L95,66.8z"/>
		<ellipse cx="116.9" cy="58.4" rx="14.2" ry="15.4"/>
		<ellipse class="st2" cx="123.4" cy="61.9" rx="3.4" ry="4"/>
	</g>
	<g transform="translate(129.617789, 18.097523)">
		<path class="st2" d="M130.6,61.1c10.4,60.4,109.1,44.4,94.9-16.5C212.7-10,127.1,5.2,130.6,61.1"/>
		<path d="M226.8,44.4c-13.1-56.3-101.2-40.8-97.7,16.9v0.1c4.8,28.5,30.3,43,58.3,38.3c12.8-2.2,24.2-8.4,31.7-17.5
			C227.4,72.1,230.3,59.1,226.8,44.4L226.8,44.4z M217,80.5c-7.1,8.5-17.8,14.4-30,16.5c-26.6,4.4-50.4-9.3-55.1-36
			c-3.2-54.3,79.9-68.9,92.2-16C227.4,58.9,224.7,71.1,217,80.5L217,80.5z"/>
		<ellipse cx="154.8" cy="58.5" rx="14" ry="15.4"/>
		<ellipse class="st2" cx="161.3" cy="62" rx="3.2" ry="4"/>
	</g>
	<g transform="translate(99.536375, 70.451072)">
		<path class="st0" d="M134.1,51.5c-11.6,1-21,14.7-15,25.6c7.9,14.4,25.7-1.3,36.7,0.1c12.8,0.3,23.2,13.5,33.3,2.4
			c11.3-12.3-4.8-24.4-17.6-29.7L134.1,51.5L134.1,51.5z"/>
		<path class="st3" d="M190.6,61.3c-4-5-10.9-9.5-18.4-12.6l-0.3-0.1h-0.3L134.1,50c-13.1,1.2-22.5,16.3-16.2,27.8
			c2.5,4.4,5.9,6.6,10.4,6.9c3.4,0.1,6.9-0.6,12.3-2.5c0.4-0.1,1-0.3,1.8-0.6c7.3-2.5,10.3-3.2,13.2-2.8h0.1c3.5,0,6.5,1,12,3.2
			c6.2,2.5,8.1,3.2,11.2,3.5c4.3,0.3,7.9-1.2,11.3-4.8C196.1,74.4,195.8,67.6,190.6,61.3L190.6,61.3z M188.1,78.6
			c-2.8,3.1-5.6,4.1-9,4c-2.6-0.1-4.4-0.9-10.3-3.2c-5.9-2.5-9.1-3.4-12.9-3.5c-3.7-0.4-6.8,0.3-14.5,2.9c-0.7,0.3-1.3,0.4-1.8,0.6
			c-10.7,3.7-15.9,3.4-19.4-3.1c-5.3-9.5,2.8-22.5,13.8-23.5l37.2-1.5c7.1,2.9,13.4,7.2,17,11.8C192.7,68.3,192.8,73.6,188.1,78.6
			L188.1,78.6z"/>
		<g transform="translate(11.953307, 0.000000)">
			<path d="M162.5,45.1c-4.6-16.7-42.7-14.2-41.9,5.7C122.6,65.7,166.9,61.7,162.5,45.1L162.5,45.1z"/>
		</g>
	</g>
</g>
</svg>
