<?xml version="1.0" encoding="utf-8"?>
<!-- Generator: Adobe Illustrator 24.0.2, SVG Export Plug-In . SVG Version: 6.00 Build 0)  -->
<svg version="1.1" id="Capa_1" xmlns="http://www.w3.org/2000/svg" xmlns:xlink="http://www.w3.org/1999/xlink" x="0px" y="0px"
	 viewBox="0 0 512 512" style="enable-background:new 0 0 512 512;" xml:space="preserve">
<style type="text/css">
	.st0{fill-rule:evenodd;clip-rule:evenodd;fill:#8993BE;}
	.st1{fill-rule:evenodd;clip-rule:evenodd;fill:#232531;}
</style>
<g>
	<ellipse class="st0" cx="256" cy="252.2" rx="256" ry="133.3"/>
	<path class="st1" d="M71.9,331.1l28.1-142h64.9c28.1,1.8,42.1,15.8,42.1,40.3c0,42.1-33.3,66.6-63.1,64.9h-31.6l-7,36.8H71.9z
		 M119.2,268l8.8-52.6h22.8c12.3,0,21,5.3,21,15.8c-1.8,29.8-15.8,35.1-31.6,36.8H119.2L119.2,268z M200.4,294.3l28.1-142h33.3
		l-7,36.8h31.6c28.1,1.8,38.6,15.8,35.1,33.3l-12.3,71.9H274l12.3-64.9c1.8-8.8,1.8-14-10.5-14h-26.3l-15.8,78.9H200.4z
		 M306.8,331.1l28.1-142h64.9c28.1,1.8,42.1,15.8,42.1,40.3c0,42.1-33.3,66.6-63.1,64.9h-31.6l-7,36.8H306.8z M354.2,268l8.8-52.6
		h22.8c12.3,0,21,5.3,21,15.8c-1.8,29.8-15.8,35.1-31.6,36.8H354.2L354.2,268z"/>
</g>
</svg>
