<?xml version="1.0" encoding="utf-8"?>
<!-- Generator: Adobe Illustrator 24.0.2, SVG Export Plug-In . SVG Version: 6.00 Build 0)  -->
<svg version="1.1" id="Layer_1" xmlns="http://www.w3.org/2000/svg" xmlns:xlink="http://www.w3.org/1999/xlink" x="0px" y="0px"
	 viewBox="0 0 425.6 512" style="enable-background:new 0 0 425.6 512;" xml:space="preserve">
<style type="text/css">
	.st0{fill:#FF3E00;}
	.st1{fill:#FFFFFF;}
</style>
<path class="st0" d="M398.4,67.7C351.1-0.4,256.9-20.3,189.3,22.6L70,99c-32.5,20.4-55.1,53.8-61.6,91.5
	c-5.6,31.7-0.9,64.2,14.3,92.4c-10.4,15.6-17.4,33-20.4,51.2c-6.9,38.6,2.2,78.5,24.7,110.2c47.7,68.1,141.4,88.1,209.1,45.1
	l119.3-75.9c32.5-20.4,55.1-53.8,61.6-91.5c5.6-31.7,0.9-64.2-14.3-92.4c10.4-15.6,17.4-33,20.4-51.2
	C430.5,139.3,421.3,99.4,398.4,67.7"/>
<path class="st1" d="M177.6,450.8c-38.6,10-79-5.2-101.5-37.7c-13.9-19.1-19.1-42.9-15.2-66.4c0.9-3.9,1.7-7.4,2.6-11.3l2.2-6.9
	l6.1,4.3c14.3,10.4,29.9,18.2,46.8,23.4l4.3,1.3l-0.4,4.3c-0.4,6.1,1.3,12.6,4.8,17.8c6.9,10,19.1,14.7,30.8,11.7
	c2.6-0.9,5.2-1.7,7.4-3l118.9-75.9c6.1-3.9,10-9.5,11.3-16.5c1.3-6.9-0.4-14.3-4.3-20c-6.9-10-19.1-14.3-30.8-11.3
	c-2.6,0.9-5.2,1.7-7.4,3l-45.5,29.1c-7.4,4.8-15.6,8.2-24.3,10.4c-38.6,10-79-5.2-101.5-37.7c-13.4-19.1-19.1-42.9-14.7-66.4
	c3.9-22.6,17.8-42.9,37.3-55.1l119.3-75.9c7.4-4.8,15.6-8.2,24.3-10.8c38.6-10,79,5.2,101.5,37.7c13.9,19.1,19.1,42.9,15.2,66.4
	c-0.9,3.9-1.7,7.4-3,11.3l-2.2,6.9l-6.1-4.3c-14.3-10.4-29.9-18.2-46.8-23.4l-4.3-1.3l0.4-4.3c0.4-6.1-1.3-12.6-4.8-17.8
	c-6.9-10-19.1-14.3-30.8-11.3c-2.6,0.9-5.2,1.7-7.4,3L140.7,200c-6.1,3.9-10,9.5-11.3,16.5c-1.3,6.9,0.4,14.3,4.3,20
	c6.9,10,19.1,14.3,30.8,11.3c2.6-0.9,5.2-1.7,7.4-3l45.5-29.1c7.4-4.8,15.6-8.2,24.3-10.8c38.6-10,79,5.2,101.5,37.7
	c13.9,19.1,19.1,42.9,15.2,66.4c-3.9,22.6-17.8,42.9-37.3,55.1l-119.3,75.9C194.5,444.7,186.2,448.2,177.6,450.8"/>
</svg>
