<?xml version="1.0" encoding="utf-8"?>
<!-- Generator: Adobe Illustrator 24.0.2, SVG Export Plug-In . SVG Version: 6.00 Build 0)  -->
<svg version="1.1" id="Layer_1" xmlns="http://www.w3.org/2000/svg" xmlns:xlink="http://www.w3.org/1999/xlink" x="0px" y="0px"
	 viewBox="0 0 512 512" style="enable-background:new 0 0 512 512;" xml:space="preserve">
<style type="text/css">
	.st0{fill:#DD0031;}
	.st1{fill:#C3002F;}
	.st2{fill:#FFFFFF;}
</style>
<g>
	<polygon class="st0" points="256,0 256,0 256,0 17.7,85 54,400.1 256,512 256,512 256,512 458,400.1 494.3,85 	"/>
	<polygon class="st1" points="256,0 256,56.8 256,56.6 256,315.9 256,315.9 256,512 256,512 458,400.1 494.3,85 	"/>
	<path class="st2" d="M256,56.6L107,390.7l0,0h55.6l0,0l30-74.8H319l30,74.8l0,0h55.6l0,0L256,56.6L256,56.6L256,56.6L256,56.6
		L256,56.6z M299.5,269.8h-87L256,165.1L299.5,269.8z"/>
</g>
</svg>
